<svg width="24" height="24" viewBox="0 0 24 24" fill="none" xmlns="http://www.w3.org/2000/svg">
<path d="M13.9613 4.70154C14.653 3.97147 15 3.1827 15 2.33793C15 2.22588 14.9941 2.11293 14.9801 2C14.4982 2.02223 13.9859 2.15206 13.4443 2.38683C12.9015 2.62515 12.4539 2.92391 12.1019 3.28321C11.397 3.99285 11 4.86076 11 5.67174C11 5.78383 11.0081 5.89049 11.022 5.99184C12.1169 6.07098 13.1266 5.56946 13.9613 4.70154Z" fill="black"/>
<path fill-rule="evenodd" clip-rule="evenodd" d="M19.9483 16.4185C19.8431 16.7326 19.7313 17.0361 19.6114 17.3296L19.6075 17.3389C19.3138 18.0379 18.9637 18.6871 18.5548 19.2875C18.0477 20.0323 17.583 20.6253 17.1725 20.9957C16.5398 21.5914 15.7888 21.9583 14.9338 21.9789L14.9098 21.9792C14.3214 21.9792 13.694 21.8102 13.0569 21.5405C12.576 21.3385 12.1845 21.2601 11.8693 21.2601C11.5244 21.2601 11.1158 21.3416 10.6329 21.5422C10.0151 21.7998 9.42013 21.9781 8.8872 21.9977C7.98997 22.0355 7.20335 21.6185 6.54647 20.9931C6.11459 20.6019 5.63439 19.9962 5.11317 19.2373C4.50035 18.3488 4.00661 17.3333 3.62492 16.1978L3.62411 16.1953C3.21288 14.9614 3 13.746 3 12.5526C3 11.1836 3.28772 9.94388 3.9075 8.87584C4.39356 8.02275 5.05013 7.33533 5.87463 6.83117C6.70336 6.32442 7.60801 6.06359 8.57191 6.04707L8.58904 6.04692C9.20324 6.04692 9.904 6.23583 10.6437 6.52009L10.6457 6.52084C10.9846 6.6519 11.2459 6.74396 11.4365 6.80183C11.5096 6.82401 11.5661 6.83927 11.6081 6.84933C11.6568 6.83603 11.7225 6.81646 11.8079 6.78899C12.0335 6.71643 12.3517 6.60314 12.7683 6.44568L12.7743 6.44343C13.6458 6.12037 14.4775 5.94815 15.2343 6.01384C16.9852 6.15988 18.4048 6.89484 19.3476 8.27533C19.5012 8.50024 19.5565 8.77808 19.5005 9.04464C19.4446 9.31119 19.2824 9.54341 19.0513 9.68762C17.9892 10.3505 17.5224 11.2064 17.5322 12.3404C17.5419 13.2543 17.8519 13.9665 18.4572 14.5444L18.4658 14.5526C18.7487 14.8293 19.0571 15.0364 19.3965 15.183C19.8734 15.389 20.1132 15.9259 19.9483 16.4185ZM12.4204 8.6929C12.6918 8.60559 13.0447 8.47928 13.4724 8.31766C14.1979 8.04902 14.7143 7.97601 15.0623 8.00644L15.0666 8.0068C15.9008 8.07615 16.5491 8.31545 17.0527 8.70994C16.0449 9.65987 15.5194 10.891 15.5323 12.3585L15.5323 12.3601C15.547 13.7847 16.06 15.0188 17.0718 15.9869C17.2893 16.199 17.5208 16.3895 17.7663 16.5575L17.7618 16.5686C17.5173 17.1495 17.2305 17.6788 16.9016 18.1619C16.4063 18.8893 16.0503 19.3161 15.8281 19.5149C15.821 19.5212 15.814 19.5276 15.8071 19.5342C15.4622 19.8609 15.1651 19.9697 14.8978 19.9791C14.6748 19.9767 14.328 19.9068 13.8357 19.6983L13.833 19.6972C13.172 19.4194 12.5139 19.2601 11.8693 19.2601C11.2075 19.2601 10.5365 19.4164 9.8646 19.6957L9.86356 19.6961C9.32636 19.9201 8.99119 19.9928 8.81285 19.999L8.80395 19.9994C8.62457 20.0073 8.33649 19.9383 7.91861 19.538C7.91093 19.5306 7.90313 19.5234 7.89522 19.5163C7.64227 19.289 7.26606 18.8393 6.76129 18.1043L6.76004 18.1024C6.26711 17.388 5.85171 16.545 5.52108 15.5617C5.16952 14.5065 5 13.5052 5 12.5526C5 11.4645 5.22734 10.585 5.63898 9.87692L5.64364 9.86873C5.96923 9.29629 6.39197 8.8591 6.91798 8.53746C7.43837 8.21926 7.99132 8.05888 8.59672 8.04695C8.84426 8.0487 9.26989 8.13482 9.92541 8.38665C10.2854 8.52581 10.5979 8.63737 10.8556 8.7156C11.0789 8.78338 11.368 8.86107 11.6303 8.86107C11.7994 8.86107 11.9613 8.82294 12.0474 8.80157C12.1588 8.77393 12.2851 8.73643 12.4204 8.6929Z" fill="black"/>
</svg>
