<svg width="24" height="24" viewBox="0 0 24 24" fill="none" xmlns="http://www.w3.org/2000/svg">
<path d="M8.29437 14.0435C7.75145 14.1448 7.22922 13.7868 7.12794 13.2439L7.12436 13.2245L7.1149 13.1728C7.10679 13.1281 7.09522 13.0638 7.08116 12.9837C7.05306 12.8238 7.01483 12.6004 6.97422 12.3455C6.89421 11.8434 6.80026 11.1909 6.76026 10.6608C6.715 10.0612 6.71592 9.31528 6.72642 8.74009C6.73175 8.44808 6.73973 8.19164 6.74639 8.00798C6.74973 7.91606 6.75273 7.84213 6.75493 7.79081L6.75755 7.73131L6.75828 7.71551C6.76238 7.61426 6.78167 7.5166 6.81401 7.42487C6.86211 7.28799 6.94088 7.15948 7.05033 7.05003C7.15018 6.95018 7.26589 6.87586 7.38936 6.82707C7.42577 6.81266 7.46327 6.80032 7.50171 6.79019C7.57165 6.77169 7.64449 6.76062 7.71925 6.75784L7.73162 6.75727L7.79112 6.75465C7.84244 6.75245 7.91637 6.74944 8.00829 6.74611C8.19195 6.73945 8.4484 6.73147 8.7404 6.72614C9.31559 6.71564 10.0615 6.71472 10.6612 6.75998C11.1912 6.79998 11.8437 6.89393 12.3458 6.97393C12.6007 7.01455 12.8241 7.05278 12.984 7.08088C13.0641 7.09494 13.1284 7.10651 13.1731 7.11462L13.2248 7.12408L13.2436 7.12755C13.7865 7.22884 14.1451 7.75117 14.0438 8.29409C13.9425 8.83699 13.4203 9.195 12.8774 9.09375L12.8625 9.09099L12.8157 9.08242C12.7744 9.07493 12.7138 9.06404 12.6379 9.0507C12.4859 9.02399 12.2732 8.9876 12.031 8.94901C11.5391 8.87061 10.9541 8.78778 10.5106 8.75431C10.3974 8.74576 10.2756 8.73909 10.1485 8.73402L16.9498 15.5353C17.3404 15.9258 17.3404 16.559 16.9498 16.9495C16.5593 17.34 15.9261 17.34 15.5356 16.9495L8.7343 10.1482C8.73938 10.2753 8.74604 10.3971 8.75459 10.5103C8.78806 10.9538 8.87089 11.5387 8.9493 12.0307C8.98788 12.2729 9.02427 12.4856 9.05098 12.6376C9.06432 12.7135 9.07521 12.7741 9.0827 12.8153L9.09127 12.8622L9.09392 12.8765C9.19517 13.4194 8.83727 13.9422 8.29437 14.0435Z" fill="black"/>
</svg>
