<svg width="24" height="24" viewBox="0 0 24 24" fill="none" xmlns="http://www.w3.org/2000/svg">
<path d="M10.8248 16.0652C10.5125 16.5207 9.89009 16.6369 9.43457 16.3246L9.41837 16.3134L9.37508 16.2835C9.33778 16.2577 9.2841 16.2204 9.21756 16.1737C9.08461 16.0805 8.89957 15.9495 8.69062 15.798C8.27903 15.4996 7.75121 15.1046 7.34812 14.7581C6.89207 14.3661 6.36531 13.838 5.96601 13.4239C5.7633 13.2136 5.58761 13.0266 5.46245 12.892C5.39981 12.8247 5.34966 12.7703 5.31493 12.7325L5.27471 12.6885L5.26405 12.6768C5.19536 12.6023 5.13994 12.5196 5.09795 12.4319C5.03517 12.3011 5 12.1545 5 11.9998C5 11.8585 5.02927 11.7242 5.08207 11.6024C5.09763 11.5664 5.11542 11.5312 5.13543 11.4969C5.17181 11.4343 5.21548 11.375 5.26639 11.3201L5.27473 11.311L5.31495 11.2671C5.34968 11.2292 5.39983 11.1748 5.46247 11.1075C5.58763 10.9729 5.76332 10.7859 5.96603 10.5757C6.36533 10.1615 6.89209 9.63347 7.34814 9.24142C7.75123 8.89491 8.27905 8.49994 8.69064 8.2015C8.89959 8.04999 9.08463 7.91901 9.21758 7.8258C9.28412 7.77915 9.3378 7.74183 9.3751 7.71599L9.41839 7.68609L9.43413 7.67526C9.88965 7.36298 10.5125 7.47878 10.8248 7.9343C11.1371 8.3898 11.021 9.01221 10.5655 9.3245L10.553 9.33309L10.5138 9.36018C10.4793 9.38405 10.4288 9.41918 10.3657 9.46343C10.2393 9.55202 10.0632 9.67671 9.86468 9.82065C9.46135 10.1131 8.98918 10.4681 8.65191 10.7581C8.56579 10.8321 8.47499 10.9135 8.38152 10.9998L18 10.9998C18.5523 10.9998 19 11.4475 19 11.9998C19 12.552 18.5523 12.9998 18 12.9998L8.38149 12.9998C8.47496 13.0861 8.56576 13.1674 8.65189 13.2415C8.98916 13.5314 9.46133 13.8864 9.86466 14.1789C10.0632 14.3228 10.2393 14.4475 10.3657 14.5361C10.4288 14.5803 10.4793 14.6155 10.5138 14.6393L10.553 14.6664L10.565 14.6747C11.0205 14.987 11.1371 15.6097 10.8248 16.0652Z" fill="black"/>
</svg>
