<svg width="24" height="24" viewBox="0 0 24 24" fill="none" xmlns="http://www.w3.org/2000/svg">
<path d="M14.0436 15.7056C14.1449 16.2485 13.7869 16.7707 13.244 16.872L13.2246 16.8756L13.1729 16.885C13.1282 16.8931 13.0639 16.9047 12.9839 16.9188C12.8239 16.9469 12.6005 16.9851 12.3456 17.0257C11.8435 17.1057 11.191 17.1997 10.661 17.2397C10.0613 17.2849 9.3154 17.284 8.74021 17.2735C8.44821 17.2682 8.19176 17.2602 8.0081 17.2535C7.91618 17.2502 7.84225 17.2472 7.79093 17.245L7.73143 17.2424L7.71563 17.2417C7.61438 17.2376 7.51672 17.2183 7.425 17.1859C7.28811 17.1378 7.1596 17.0591 7.05015 16.9496C6.9503 16.8498 6.87598 16.734 6.82719 16.6106C6.81278 16.5742 6.80044 16.5367 6.79031 16.4982C6.77181 16.4283 6.76074 16.3555 6.75796 16.2807L6.75739 16.2683L6.75477 16.2088C6.75257 16.1575 6.74956 16.0836 6.74623 15.9916C6.73957 15.808 6.73159 15.5515 6.72626 15.2595C6.71576 14.6844 6.71484 13.9385 6.7601 13.3388C6.8001 12.8087 6.89405 12.1562 6.97405 11.6542C7.01467 11.3993 7.0529 11.1758 7.081 11.0159C7.09506 10.9358 7.10663 10.8715 7.11474 10.8269L7.1242 10.7751L7.12768 10.7563C7.22896 10.2134 7.75129 9.85484 8.29421 9.95613C8.83711 10.0574 9.19512 10.5796 9.09387 11.1225L9.09111 11.1374L9.08254 11.1843C9.07505 11.2255 9.06416 11.2861 9.05082 11.362C9.02411 11.514 8.98772 11.7268 8.94913 11.9689C8.87073 12.4609 8.7879 13.0458 8.75443 13.4893C8.74588 13.6026 8.73922 13.7243 8.73414 13.8514L15.5354 7.05011C15.926 6.65959 16.5591 6.65959 16.9496 7.05011C17.3402 7.44064 17.3402 8.0738 16.9496 8.46432L10.1483 15.2656C10.2754 15.2606 10.3972 15.2539 10.5105 15.2453C10.9539 15.2119 11.5389 15.129 12.0309 15.0506C12.273 15.0121 12.4857 14.9757 12.6377 14.949C12.7136 14.9356 12.7742 14.9247 12.8155 14.9172L12.8623 14.9087L12.8766 14.906C13.4195 14.8048 13.9423 15.1627 14.0436 15.7056Z" fill="black"/>
</svg>
