<svg width="24" height="24" viewBox="0 0 24 24" fill="none" xmlns="http://www.w3.org/2000/svg">
<path d="M7.93466 10.8247C7.47914 10.5124 7.36302 9.88997 7.6753 9.43445L7.68644 9.41825L7.71635 9.37496C7.74219 9.33766 7.7795 9.28398 7.82616 9.21744C7.91937 9.08449 8.05035 8.89945 8.20185 8.6905C8.50029 8.27891 8.89527 7.75108 9.24178 7.348C9.63382 6.89195 10.1619 6.36518 10.576 5.96589C10.7863 5.76318 10.9733 5.58749 11.1078 5.46233C11.1752 5.39969 11.2296 5.34954 11.2674 5.31481L11.3114 5.27459L11.323 5.26393C11.3975 5.19524 11.4802 5.13982 11.568 5.09783C11.6988 5.03505 11.8453 4.99988 12.0001 4.99988C12.1413 4.99988 12.2757 5.02915 12.3975 5.08195C12.4334 5.09751 12.4687 5.11529 12.503 5.13531C12.5656 5.17169 12.6249 5.21536 12.6797 5.26626L12.6889 5.27461L12.7328 5.31483C12.7706 5.34956 12.825 5.39971 12.8924 5.46235C13.027 5.58751 13.214 5.7632 13.4242 5.96591C13.8383 6.36521 14.3664 6.89197 14.7585 7.34802C15.105 7.7511 15.4999 8.27893 15.7984 8.69052C15.9499 8.89947 16.0809 9.08451 16.1741 9.21746C16.2207 9.284 16.258 9.33768 16.2839 9.37498L16.3138 9.41827L16.3246 9.43401C16.6369 9.88953 16.5211 10.5124 16.0656 10.8247C15.6101 11.137 14.9877 11.0209 14.6754 10.5654L14.6668 10.5529L14.6397 10.5137C14.6158 10.4792 14.5807 10.4287 14.5365 10.3656C14.4479 10.2392 14.3232 10.0631 14.1792 9.86456C13.8868 9.46123 13.5318 8.98906 13.2418 8.65179C13.1678 8.56566 13.0864 8.47487 13.0001 8.38139L13.0001 17.9999C13.0001 18.5522 12.5524 18.9999 12.0001 18.9999C11.4478 18.9999 11.0001 18.5522 11.0001 17.9999L11.0001 8.38136C10.9138 8.47484 10.8325 8.56564 10.7584 8.65177C10.4685 8.98904 10.1135 9.46121 9.821 9.86454C9.67707 10.063 9.55238 10.2392 9.46378 10.3656C9.41953 10.4287 9.38441 10.4792 9.36054 10.5137L9.33345 10.5529L9.3252 10.5649C9.01291 11.0203 8.39016 11.1369 7.93466 10.8247Z" fill="black"/>
</svg>
