<svg width="24" height="24" viewBox="0 0 24 24" fill="none" xmlns="http://www.w3.org/2000/svg">
<path d="M13.1752 7.93453C13.4875 7.47901 14.1099 7.3629 14.5654 7.67518L14.5816 7.68632L14.6249 7.71623C14.6622 7.74206 14.7159 7.77938 14.7824 7.82603C14.9154 7.91925 15.1004 8.05022 15.3094 8.20173C15.721 8.50017 16.2488 8.89514 16.6519 9.24166C17.1079 9.6337 17.6347 10.1618 18.034 10.5759C18.2367 10.7862 18.4124 10.9731 18.5375 11.1077C18.6002 11.1751 18.6503 11.2295 18.6851 11.2673L18.7253 11.3112L18.736 11.3229C18.8046 11.3974 18.8601 11.4801 18.9021 11.5678C18.9648 11.6986 19 11.8452 19 12C19 12.1412 18.9707 12.2756 18.9179 12.3974C18.9024 12.4333 18.8846 12.4686 18.8646 12.5029C18.8282 12.5654 18.7845 12.6248 18.7336 12.6796L18.7253 12.6888L18.6851 12.7327C18.6503 12.7705 18.6002 12.8249 18.5375 12.8923C18.4124 13.0269 18.2367 13.2138 18.034 13.4241C17.6347 13.8382 17.1079 14.3663 16.6519 14.7583C16.2488 15.1048 15.7209 15.4998 15.3094 15.7983C15.1004 15.9498 14.9154 16.0807 14.7824 16.174C14.7159 16.2206 14.6622 16.2579 14.6249 16.2838L14.5816 16.3137L14.5659 16.3245C14.1103 16.6368 13.4875 16.521 13.1752 16.0655C12.8629 15.61 12.979 14.9875 13.4345 14.6753L13.447 14.6667L13.4862 14.6396C13.5207 14.6157 13.5712 14.5806 13.6343 14.5363C13.7607 14.4477 13.9368 14.323 14.1353 14.1791C14.5386 13.8867 15.0108 13.5316 15.3481 13.2417C15.4342 13.1677 15.525 13.0863 15.6185 13H6C5.44772 13 5 12.5523 5 12C5 11.4477 5.44772 11 6 11H15.6185C15.525 10.9137 15.4342 10.8323 15.3481 10.7583C15.0108 10.4684 14.5387 10.1133 14.1353 9.82088C13.9368 9.67694 13.7607 9.55226 13.6343 9.46366C13.5712 9.41941 13.5207 9.38429 13.4862 9.36041L13.447 9.33333L13.435 9.32508C12.9795 9.01279 12.8629 8.39004 13.1752 7.93453Z" fill="black"/>
</svg>
