<svg width="24" height="24" viewBox="0 0 24 24" fill="none" xmlns="http://www.w3.org/2000/svg">
<path d="M9.95638 8.29431C9.85509 7.75139 10.2131 7.22916 10.756 7.12788L10.7754 7.1243L10.8271 7.11484C10.8718 7.10673 10.9361 7.09516 11.0161 7.0811C11.1761 7.053 11.3995 7.01477 11.6544 6.97415C12.1565 6.89415 12.809 6.8002 13.339 6.7602C13.9387 6.71494 14.6846 6.71586 15.2598 6.72636C15.5518 6.73169 15.8082 6.73967 15.9919 6.74633C16.0838 6.74966 16.1578 6.75267 16.2091 6.75487L16.2686 6.75749L16.2844 6.75822C16.3856 6.76232 16.4833 6.78161 16.575 6.81395C16.7119 6.86205 16.8404 6.94082 16.9498 7.05027C17.0497 7.15012 17.124 7.26583 17.1728 7.38929C17.1872 7.42571 17.1996 7.46321 17.2097 7.50164C17.2282 7.57159 17.2393 7.64442 17.242 7.71919L17.2426 7.73156L17.2452 7.79106C17.2474 7.84238 17.2504 7.91631 17.2538 8.00823C17.2604 8.19189 17.2684 8.44833 17.2737 8.74034C17.2842 9.31553 17.2852 10.0614 17.2399 10.6611C17.1999 11.1911 17.106 11.8437 17.0259 12.3457C16.9853 12.6006 16.9471 12.8241 16.919 12.984C16.9049 13.064 16.8934 13.1284 16.8853 13.173L16.8758 13.2248L16.8723 13.2436C16.771 13.7865 16.2487 14.145 15.7058 14.0438C15.1629 13.9425 14.8049 13.4203 14.9061 12.8774L14.9089 12.8625L14.9175 12.8156C14.925 12.7743 14.9358 12.7138 14.9492 12.6379C14.9759 12.4859 15.0123 12.2731 15.0509 12.031C15.1293 11.539 15.2121 10.9541 15.2456 10.5106C15.2541 10.3973 15.2608 10.2756 15.2659 10.1485L8.46457 16.9498C8.07404 17.3403 7.44088 17.3403 7.05035 16.9498C6.65983 16.5592 6.65983 15.9261 7.05035 15.5356L13.8517 8.73424C13.7246 8.73932 13.6028 8.74598 13.4895 8.75453C13.0461 8.788 12.4611 8.87083 11.9691 8.94923C11.727 8.98782 11.5143 9.02421 11.3623 9.05092C11.2864 9.06426 11.2258 9.07515 11.1845 9.08264L11.1377 9.09121L11.1234 9.09386C10.5805 9.19511 10.0577 8.83721 9.95638 8.29431Z" fill="black"/>
</svg>
