<svg width="24" height="24" viewBox="0 0 24 24" fill="none" xmlns="http://www.w3.org/2000/svg">
<path fill-rule="evenodd" clip-rule="evenodd" d="M12 6.27416C11.2997 5.48606 10.2836 4.9859 9.12056 5.00492C8.71132 5.01161 8.29991 5.02612 7.92736 5.05326C6.87183 5.13013 5.48385 5.35627 4.63569 5.50566C3.67665 5.67458 3 6.5092 3 7.46276V16.6007C3 17.8741 4.14672 18.7737 5.32829 18.6291C6.57087 18.477 8.29122 18.3916 9.38954 18.7687C9.55832 18.8267 9.7594 18.9122 9.97811 19.0166C10.6309 19.3284 11.4007 19.2678 12 18.9196C12.5993 19.2678 13.3691 19.3284 14.0219 19.0166C14.2406 18.9122 14.4417 18.8267 14.6105 18.7687C15.7088 18.3916 17.4291 18.477 18.6717 18.6291C19.8533 18.7737 21 17.8741 21 16.6007V7.46276C21 6.5092 20.3233 5.67458 19.3643 5.50566C18.5162 5.35627 17.1282 5.13013 16.0726 5.05326C15.7001 5.02612 15.2887 5.01161 14.8794 5.00492C13.7164 4.9859 12.7003 5.48606 12 6.27416ZM11 8.91442C11 7.82734 10.155 6.98827 9.15325 7.00465C8.76586 7.01098 8.39477 7.02451 8.07264 7.04797C7.13477 7.11628 5.84657 7.32344 5 7.47228V16.6007C5 16.6032 5.00017 16.6036 5.00061 16.6045C5.00178 16.6069 5.00591 16.6139 5.01539 16.622C5.0363 16.6397 5.0622 16.6467 5.08537 16.6439C6.32005 16.4928 8.46025 16.3351 10.039 16.8771C10.306 16.9688 10.5822 17.0887 10.8401 17.2119C10.8763 17.2292 10.9264 17.2298 10.9724 17.2033C10.9893 17.1935 10.9973 17.1845 10.9999 17.181L11 17.1784V8.91442ZM13 8.91442C13 7.82734 13.845 6.98827 14.8467 7.00465C15.2341 7.01098 15.6052 7.02451 15.9274 7.04797C16.8652 7.11628 18.1534 7.32344 19 7.47228V16.6007C19 16.6032 18.9998 16.6036 18.9994 16.6045C18.9982 16.6069 18.9941 16.6139 18.9846 16.622C18.9637 16.6397 18.9378 16.6467 18.9146 16.6439C17.6799 16.4928 15.5397 16.3351 13.961 16.8771C13.694 16.9688 13.4178 17.0887 13.1599 17.2119C13.1237 17.2292 13.0736 17.2298 13.0276 17.2033C13.0107 17.1935 13.0027 17.1845 13.0001 17.181L13 17.1784V8.91442Z" fill="black"/>
</svg>
