<svg width="24" height="24" viewBox="0 0 24 24" fill="none" xmlns="http://www.w3.org/2000/svg">
<path d="M8 7C7.44772 7 7 7.44772 7 8C7 8.55228 7.44772 9 8 9C8.55228 9 9 8.55228 9 8C9 7.44772 8.55228 7 8 7Z" fill="black"/>
<path d="M7 12C7 11.4477 7.44772 11 8 11C8.55228 11 9 11.4477 9 12C9 12.5523 8.55228 13 8 13C7.44772 13 7 12.5523 7 12Z" fill="black"/>
<path d="M12 7C11.4477 7 11 7.44772 11 8C11 8.55228 11.4477 9 12 9C12.5523 9 13 8.55228 13 8C13 7.44772 12.5523 7 12 7Z" fill="black"/>
<path d="M11 12C11 11.4477 11.4477 11 12 11C12.5523 11 13 11.4477 13 12C13 12.5523 12.5523 13 12 13C11.4477 13 11 12.5523 11 12Z" fill="black"/>
<path fill-rule="evenodd" clip-rule="evenodd" d="M12.5 21C11.3954 21 10.5 20.1046 10.5 19H9.36957C9.36957 20.1046 8.47414 21 7.36957 21H6C4.34315 21 3 19.6569 3 18V6C3 4.34315 4.34315 3 6 3H14C15.6569 3 17 4.34315 17 6V18C17 18.3506 16.9398 18.6872 16.8293 19H18C18.5523 19 19 18.5523 19 18V12.8284C19 12.5632 18.8946 12.3089 18.7071 12.1213L18.2929 11.7071C17.9024 11.3166 17.9024 10.6834 18.2929 10.2929C18.6834 9.90237 19.3166 9.90237 19.7071 10.2929L20.1213 10.7071C20.6839 11.2697 21 12.0328 21 12.8284V18C21 19.6569 19.6569 21 18 21H12.5ZM5 6C5 5.44772 5.44772 5 6 5H14C14.5523 5 15 5.44772 15 6V18C15 18.5523 14.5523 19 14 19H12.5C12.5 17.8954 11.6046 17 10.5 17H9.36957C8.265 17 7.36957 17.8954 7.36957 19H6C5.44772 19 5 18.5523 5 18V6Z" fill="black"/>
</svg>
