<svg width="24" height="24" viewBox="0 0 24 24" fill="none" xmlns="http://www.w3.org/2000/svg">
<path d="M13.332 11.9453C13.3909 12.0336 13.4339 12.128 13.4617 12.2249C13.4887 12.3193 13.5013 12.4163 13.5 12.5125V16.5C13.5 17.0523 13.0523 17.5 12.5 17.5C11.9477 17.5 11.5 17.0523 11.5 16.5V14.366C11.047 14.6281 10.4623 14.4962 10.1679 14.0547C9.86158 13.5951 9.98575 12.9743 10.4453 12.6679L11.9453 11.6679C12.4048 11.3616 13.0257 11.4857 13.332 11.9453Z" fill="black"/>
<path fill-rule="evenodd" clip-rule="evenodd" d="M9 3C9 2.44772 8.55228 2 8 2C7.44772 2 7 2.44772 7 3V4.23372C6.87002 4.24357 6.74234 4.25344 6.61738 4.26327C4.62068 4.42044 3.10608 6.0449 3.00534 8H3V16.7923C3 18.8389 4.55036 20.574 6.61738 20.7367C8.25175 20.8654 10.3509 21 12 21C13.6491 21 15.7482 20.8654 17.3826 20.7367C19.4496 20.574 21 18.8389 21 16.7923V8H20.9947C20.8939 6.0449 19.3793 4.42044 17.3826 4.26327C17.2577 4.25344 17.13 4.24357 17 4.23372V3C17 2.44772 16.5523 2 16 2C15.4477 2 15 2.44772 15 3V4.10007C13.9656 4.04133 12.9137 4 12 4C11.0863 4 10.0344 4.04133 9 4.10007V3ZM5 16.7923V10H19V16.7923C19 17.8221 18.2256 18.6642 17.2257 18.7429C15.6001 18.8708 13.5663 19 12 19C10.4337 19 8.39989 18.8708 6.77433 18.7429C5.77441 18.6642 5 17.8221 5 16.7923ZM5.01062 8C5.1066 7.06669 5.84255 6.33045 6.77433 6.25711C8.39989 6.12915 10.4337 6 12 6C13.5663 6 15.6001 6.12915 17.2257 6.25711C18.1574 6.33045 18.8934 7.06669 18.9894 8H5.01062Z" fill="black"/>
</svg>
