<svg width="24" height="24" viewBox="0 0 24 24" fill="none" xmlns="http://www.w3.org/2000/svg">
<path d="M7 13C7 12.4477 7.44772 12 8 12C8.55228 12 9 12.4477 9 13C9 13.5523 8.55228 14 8 14C7.44772 14 7 13.5523 7 13Z" fill="black"/>
<path d="M8 15C7.44772 15 7 15.4477 7 16C7 16.5523 7.44772 17 8 17C8.55228 17 9 16.5523 9 16C9 15.4477 8.55228 15 8 15Z" fill="black"/>
<path d="M11 16C11 15.4477 11.4477 15 12 15C12.5523 15 13 15.4477 13 16C13 16.5523 12.5523 17 12 17C11.4477 17 11 16.5523 11 16Z" fill="black"/>
<path d="M12 12C11.4477 12 11 12.4477 11 13C11 13.5523 11.4477 14 12 14C12.5523 14 13 13.5523 13 13C13 12.4477 12.5523 12 12 12Z" fill="black"/>
<path d="M15 13C15 12.4477 15.4477 12 16 12C16.5523 12 17 12.4477 17 13C17 13.5523 16.5523 14 16 14C15.4477 14 15 13.5523 15 13Z" fill="black"/>
<path d="M16 15C15.4477 15 15 15.4477 15 16C15 16.5523 15.4477 17 16 17C16.5523 17 17 16.5523 17 16C17 15.4477 16.5523 15 16 15Z" fill="black"/>
<path fill-rule="evenodd" clip-rule="evenodd" d="M8 2C8.55229 2 9 2.44772 9 3V4.10007C10.0344 4.04133 11.0863 4 12 4C12.9137 4 13.9656 4.04133 15 4.10007V3C15 2.44772 15.4477 2 16 2C16.5523 2 17 2.44772 17 3V4.23372C17.13 4.24357 17.2577 4.25344 17.3826 4.26327C19.3793 4.42044 20.8939 6.0449 20.9947 8H21V16.7923C21 18.8389 19.4496 20.574 17.3826 20.7367C15.7482 20.8654 13.6491 21 12 21C10.3509 21 8.25175 20.8654 6.61738 20.7367C4.55036 20.574 3 18.8389 3 16.7923V8H3.00534C3.10608 6.0449 4.62068 4.42044 6.61738 4.26327C6.74234 4.25344 6.87002 4.24357 7 4.23372V3C7 2.44772 7.44772 2 8 2ZM5 10V16.7923C5 17.8221 5.77441 18.6642 6.77433 18.7429C8.39989 18.8708 10.4337 19 12 19C13.5663 19 15.6001 18.8708 17.2257 18.7429C18.2256 18.6642 19 17.8221 19 16.7923V10H5ZM6.77433 6.25711C5.84255 6.33045 5.1066 7.06669 5.01062 8H18.9894C18.8934 7.06669 18.1574 6.33045 17.2257 6.25711C15.6001 6.12915 13.5663 6 12 6C10.4337 6 8.39989 6.12915 6.77433 6.25711Z" fill="black"/>
</svg>
