<svg width="24" height="24" viewBox="0 0 24 24" fill="none" xmlns="http://www.w3.org/2000/svg">
<path d="M13.3966 3.98338C13.3946 4.51215 13.8216 4.93915 14.3503 4.9371L17.7178 4.92406L13.7071 8.93469C13.3166 9.32521 13.3166 9.95837 13.7071 10.3489C14.0977 10.7394 14.7308 10.7394 15.1213 10.3489L19.1319 6.3383L19.1189 9.7057C19.1169 10.2345 19.5439 10.6615 20.0726 10.6594C20.6014 10.6574 21.0317 10.2271 21.0338 9.69829L21.056 3.95968L21.056 3.95373C21.0581 3.42495 20.6311 2.99796 20.1023 3.00001L14.3577 3.02225C13.829 3.0243 13.3987 3.45461 13.3966 3.98338Z" fill="black"/>
<path fill-rule="evenodd" clip-rule="evenodd" d="M4.62785 4.30051L4.4294 4.4989C4.03529 4.89249 3.71579 5.21157 3.47375 5.64245C3.19689 6.1353 3.01444 6.83687 3.01612 7.40216C3.01759 7.8952 3.12053 8.25724 3.24605 8.69872L3.26114 8.75183C4.04444 11.5116 5.52264 14.1155 7.69302 16.2858C9.8634 18.4562 12.4673 19.9344 15.227 20.7177L15.2801 20.7328C15.7216 20.8583 16.0836 20.9613 16.5767 20.9627C17.142 20.9644 17.8436 20.782 18.3364 20.5051C18.7673 20.2631 19.0864 19.9436 19.4799 19.5495L19.6783 19.351L19.7656 19.2639C20.1326 18.8981 20.4721 18.5597 20.6705 18.1674C21.0601 17.3972 21.0601 16.4875 20.6705 15.7173C20.4721 15.325 20.1326 14.9866 19.7656 14.6208L19.6783 14.5337L19.454 14.3092C19.2129 14.0677 18.9908 13.8451 18.7492 13.688C17.8496 13.1031 16.6898 13.1031 15.7902 13.688C15.5486 13.8451 15.3265 14.0676 15.0855 14.3092L15.0025 14.3922L14.997 14.3896C13.8549 13.8412 12.7835 13.0933 11.8345 12.1444C10.8855 11.1954 10.1376 10.124 9.58926 8.98184L9.58661 8.97633L9.66963 8.89338C9.9112 8.65233 10.1337 8.43027 10.2909 8.18863C10.8758 7.28902 10.8758 6.12927 10.2909 5.22967C10.1337 4.98802 9.9112 4.76597 9.66963 4.52492L9.44514 4.30051L9.35807 4.21325C8.99222 3.8462 8.65387 3.50674 8.26154 3.3083C7.4913 2.91872 6.58169 2.91872 5.81146 3.3083C5.41912 3.50674 5.08077 3.8462 4.71492 4.21325L4.62785 4.30051ZM6.71415 5.093C6.91682 4.99049 7.15617 4.99049 7.35884 5.093C7.42478 5.12635 7.51985 5.20364 8.03092 5.71472L8.19795 5.88174C8.5337 6.21749 8.58769 6.27924 8.6141 6.31985C8.768 6.55657 8.768 6.86173 8.6141 7.09845C8.58769 7.13906 8.5337 7.2008 8.19795 7.53655L8.17748 7.55696C8.10128 7.63281 7.99511 7.73851 7.90403 7.8657C7.79229 8.02175 7.70665 8.19675 7.64874 8.381C7.53853 8.7317 7.52883 9.11589 7.63106 9.4666C7.67461 9.61598 7.73407 9.73922 7.77619 9.8265L7.7863 9.84749C8.43101 11.1903 9.30951 12.4478 10.4203 13.5586C11.531 14.6693 12.7886 15.5478 14.1314 16.1926L14.1523 16.2027C14.2396 16.2448 14.3629 16.3042 14.5123 16.3478C15.0472 16.5037 15.6601 16.3992 16.1132 16.0748C16.2403 15.9837 16.346 15.8776 16.4219 15.8014L16.4423 15.7809C16.778 15.4452 16.8398 15.3912 16.8804 15.3648C17.1171 15.2108 17.4223 15.2108 17.659 15.3648C17.6996 15.3912 17.7614 15.4452 18.0971 15.7809L18.2641 15.9479C18.7752 16.459 18.8525 16.5541 18.8859 16.62C18.9884 16.8227 18.9884 17.062 18.8859 17.2647C18.8525 17.3306 18.7752 17.4257 18.2641 17.9368L18.129 18.0719C17.6445 18.5564 17.5203 18.6696 17.3569 18.7614C17.1649 18.8692 16.8028 18.9634 16.5827 18.9627C16.3875 18.9622 16.2747 18.9361 15.7731 18.7937C13.333 18.1011 11.0303 16.7947 9.10723 14.8716C7.18416 12.9486 5.87771 10.6458 5.18514 8.20574C5.04278 7.70415 5.0167 7.5914 5.01612 7.3962C5.01546 7.17601 5.10962 6.81395 5.21746 6.62197C5.30927 6.45854 5.42243 6.33436 5.90696 5.84983L6.04207 5.71472C6.55314 5.20364 6.64821 5.12635 6.71415 5.093Z" fill="black"/>
</svg>
