<svg width="24" height="24" viewBox="0 0 24 24" fill="none" xmlns="http://www.w3.org/2000/svg">
<path fill-rule="evenodd" clip-rule="evenodd" d="M4.70711 3.29289C4.31658 2.90237 3.68342 2.90237 3.29289 3.29289C2.90237 3.68342 2.90237 4.31658 3.29289 4.70711L4.72658 6.14079C3.22544 6.37609 2 7.60604 2 9.20003V16.5C2 18.2581 3.49075 19.5734 5.19793 19.5996L5.20193 19.6L5.33906 19.6129C5.45811 19.624 5.63065 19.6398 5.84576 19.6587C6.27584 19.6965 6.87685 19.7469 7.56128 19.7973C8.92323 19.8977 10.6411 20 12 20C13.3589 20 15.0768 19.8977 16.4387 19.7973C17.1231 19.7469 17.7242 19.6965 18.1542 19.6587C18.1826 19.6562 18.2103 19.6538 18.2372 19.6514L19.2929 20.7071C19.6834 21.0976 20.3166 21.0976 20.7071 20.7071C21.0976 20.3166 21.0976 19.6834 20.7071 19.2929L4.70711 3.29289ZM16.3819 17.7961L14.6138 16.028C13.9127 16.6337 12.9991 17 12 17C9.79086 17 8 15.2091 8 13C8 12.0009 8.36633 11.0873 8.97201 10.3862L6.68582 8.10003H5.25C4.49354 8.10003 4 8.65638 4 9.20003V16.5C4 17.0437 4.49354 17.6 5.25 17.6H5.29855L5.34687 17.6047L5.39166 17.609L5.5244 17.6215C5.6404 17.6323 5.80953 17.6478 6.02093 17.6664C6.44387 17.7036 7.03524 17.7532 7.70822 17.8027C9.0611 17.9024 10.7183 18 12 18C13.2817 18 14.9389 17.9024 16.2918 17.8027C16.322 17.8005 16.352 17.7983 16.3819 17.7961ZM10.3938 11.8081C10.1464 12.1409 10 12.5534 10 13C10 14.1046 10.8954 15 12 15C12.4466 15 12.8591 14.8536 13.1919 14.6062L10.3938 11.8081Z" fill="black"/>
<path d="M20 9.20003V15.796L21.7954 17.5914C21.9272 17.2553 22 16.8885 22 16.5V9.20003C22 7.42409 20.4788 6.10003 18.75 6.10003H16.6638L15.8137 4.91879L15.8124 4.91694C15.4912 4.46847 14.982 4.21332 14.455 4.19007L14.4409 4.18821C14.3973 4.18254 14.3346 4.17456 14.2569 4.16506C14.1016 4.14608 13.8847 4.1209 13.6373 4.09596C13.153 4.04713 12.5137 3.99519 11.9907 4.00008C11.5227 4.00444 10.9513 4.05612 10.5184 4.10287C10.2973 4.12674 10.1034 4.15033 9.96463 4.16798C9.89513 4.17681 9.83917 4.18419 9.80022 4.18942L9.79467 4.19017C9.42556 4.20691 9.06532 4.33742 8.77242 4.56841L10.3406 6.13657C10.4523 6.12289 10.5864 6.10715 10.7331 6.09131C11.154 6.04586 11.6445 6.00339 12.0093 5.99999C12.417 5.99618 12.9657 6.03839 13.4367 6.08587C13.667 6.1091 13.8696 6.13261 14.0143 6.1503C14.0866 6.15913 14.1442 6.16647 14.1832 6.17154L14.2274 6.17735L14.2382 6.17879L14.241 6.17918L14.2584 6.18155L15.639 8.10003H18.75C19.5065 8.10003 20 8.65638 20 9.20003Z" fill="black"/>
</svg>
