<svg width="24" height="24" viewBox="0 0 24 24" fill="none" xmlns="http://www.w3.org/2000/svg">
<path fill-rule="evenodd" clip-rule="evenodd" d="M3 4C3 3.44772 3.44772 3 4 3H6C6.43245 3 7.19494 3.00821 7.84732 3.62128C8.22255 3.97391 8.4944 4.4636 8.69626 5.08992C8.89418 5.04389 9.10105 5.01763 9.31518 5.01358C10.6241 4.98885 12.2729 4.98871 13.5796 5.09301C15.0184 5.20786 17.0184 5.47539 18.5121 5.69019C20.2544 5.94073 21.3779 7.63279 20.9769 9.32767L19.9445 13.6908C19.6244 15.0438 18.4168 16 17.0257 16H10.4825C9.06114 16 7.83622 15.0027 7.54638 13.6121L6.49765 8.58056C6.32541 7.7542 6.51171 6.94039 6.94566 6.29919C6.76683 5.43775 6.56259 5.15851 6.47768 5.07872L6.47571 5.07686C6.43704 5.04041 6.39417 5 6 5H4C3.44772 5 3 4.55228 3 4ZM13.4204 7.08667C12.2167 6.99058 10.6493 6.98873 9.35296 7.01323C8.7722 7.0242 8.32892 7.56484 8.45557 8.17247L9.5043 13.2041C9.60104 13.6682 10.0093 14 10.4825 14H17.0257C17.4889 14 17.8914 13.6817 17.9983 13.2303L19.0306 8.86717C19.1653 8.29777 18.7882 7.75047 18.2274 7.66982C16.7345 7.45514 14.79 7.19599 13.4204 7.08667Z" fill="black"/>
<path d="M11 17C9.896 17 9 17.896 9 19C9 20.104 9.896 21 11 21C12.104 21 13 20.104 13 19C13 17.896 12.104 17 11 17Z" fill="black"/>
<path d="M17 17C15.896 17 15 17.896 15 19C15 20.104 15.896 21 17 21C18.104 21 19 20.104 19 19C19 17.896 18.104 17 17 17Z" fill="black"/>
</svg>
