<svg width="24" height="24" viewBox="0 0 24 24" fill="none" xmlns="http://www.w3.org/2000/svg">
<path d="M20 8C20.3566 8 20.6695 7.81338 20.8466 7.53248C20.9438 7.3783 21 7.19572 21 7C21 6.44772 20.5523 6 20 6H18V4C18 3.44772 17.5523 3 17 3C16.4477 3 16 3.44772 16 4V6H14C13.4477 6 13 6.44772 13 7C13 7.01938 13.0006 7.03863 13.0016 7.05774C13.0316 7.58316 13.4671 8 14 8H16V10C16 10.5523 16.4477 11 17 11C17.5523 11 18 10.5523 18 10V8H20Z" fill="black"/>
<path d="M9.31518 5.01358C10.0602 4.9995 10.9154 4.99339 11.755 5.00998C11.2853 5.53953 11 6.23645 11 7C10.4347 6.997 9.8721 7.00342 9.35296 7.01323C8.7722 7.0242 8.32892 7.56484 8.45557 8.17247L9.5043 13.2041C9.60104 13.6682 10.0093 14 10.4825 14H17.0257C17.4889 14 17.8914 13.6817 17.9983 13.2303L18.0773 12.8961C18.766 12.764 19.6359 12.5701 20.2594 12.36L19.9445 13.6908C19.6244 15.0438 18.4168 16 17.0257 16H10.4825C9.06114 16 7.83622 15.0027 7.54638 13.6121L6.49765 8.58056C6.32541 7.7542 6.51171 6.94039 6.94566 6.29919C6.76683 5.43775 6.56259 5.15851 6.47768 5.07872L6.47571 5.07686C6.43704 5.04041 6.39417 5 6 5H4C3.44772 5 3 4.55228 3 4C3 3.44772 3.44772 3 4 3H6C6.43245 3 7.19494 3.00821 7.84732 3.62128C8.22255 3.97391 8.4944 4.4636 8.69626 5.08992C8.89418 5.04389 9.10105 5.01763 9.31518 5.01358Z" fill="black"/>
<path d="M9 19C9 17.896 9.896 17 11 17C12.104 17 13 17.896 13 19C13 20.104 12.104 21 11 21C9.896 21 9 20.104 9 19Z" fill="black"/>
<path d="M17 17C15.896 17 15 17.896 15 19C15 20.104 15.896 21 17 21C18.104 21 19 20.104 19 19C19 17.896 18.104 17 17 17Z" fill="black"/>
</svg>
