<svg width="24" height="24" viewBox="0 0 24 24" fill="none" xmlns="http://www.w3.org/2000/svg">
<path d="M6.15329 14.5321C5.85956 14.0644 6.00058 13.4471 6.46827 13.1534C6.9359 12.8597 7.55315 13.0008 7.84692 13.4684L7.84773 13.4696L7.85363 13.4789L7.88016 13.5201C7.90422 13.5573 7.94073 13.6129 7.9883 13.6837C8.08361 13.8255 8.2225 14.0265 8.39398 14.2591C8.74116 14.7301 9.20382 15.3059 9.69546 15.7817C10.11 16.1828 10.8275 16.7822 11.4671 17.3C11.6587 17.4552 11.8402 17.6005 11.9999 17.7275C12.1596 17.6004 12.3412 17.4551 12.5329 17.2999C13.1725 16.7821 13.89 16.1827 14.3046 15.7815C14.7962 15.3058 15.2589 14.73 15.6061 14.259C15.7776 14.0264 15.9165 13.8254 16.0118 13.6836C16.0593 13.6129 16.0959 13.5572 16.1199 13.5201L16.1464 13.4789L16.1523 13.4696L16.1532 13.4683C16.4469 13.0007 17.0642 12.8596 17.5318 13.1533C17.9995 13.447 18.1406 14.0643 17.8468 14.532L17.8453 14.5345L17.8424 14.539L17.8327 14.5543L17.7981 14.6081C17.7684 14.6538 17.7258 14.7188 17.6715 14.7996C17.563 14.9609 17.4074 15.186 17.2159 15.4458C16.8371 15.9596 16.2998 16.6338 15.6954 17.2187C15.209 17.6895 14.4266 18.3401 13.7914 18.8543C13.4685 19.1157 13.1745 19.3492 12.9612 19.5174C12.8545 19.6015 12.7678 19.6694 12.7076 19.7165L12.638 19.7708L12.6334 19.7744C12.3114 20.0383 11.8515 20.0763 11.4881 19.8594C11.4501 19.8368 11.4134 19.8116 11.3783 19.7837L11.362 19.771L11.2923 19.7167C11.2322 19.6696 11.1455 19.6017 11.0388 19.5176C10.8255 19.3494 10.5315 19.1159 10.2087 18.8545C9.57347 18.3402 8.79103 17.6896 8.30465 17.2189C7.70027 16.634 7.16295 15.9597 6.78416 15.4459C6.59266 15.1861 6.43707 14.961 6.32864 14.7997C6.27434 14.7189 6.23167 14.6539 6.20202 14.6081L6.16742 14.5544L6.15773 14.5391L6.15485 14.5346L6.15329 14.5321Z" fill="black"/>
<path d="M17.8468 9.46809C18.1406 9.9358 17.9995 10.5531 17.5319 10.8468C17.0642 11.1405 16.447 10.9994 16.1532 10.5318L16.1524 10.5305L16.1465 10.5213L16.12 10.48C16.0959 10.4429 16.0594 10.3872 16.0118 10.3165C15.9165 10.1747 15.7776 9.97372 15.6061 9.74108C15.259 9.2701 14.7963 8.69432 14.3047 8.21853C13.8901 7.81734 13.1726 7.21795 12.533 6.70016C12.3414 6.54499 12.1599 6.3997 12.0002 6.27269C11.8405 6.39974 11.659 6.54507 11.4672 6.7003C10.8277 7.21808 10.1101 7.81746 9.69555 8.21864C9.2039 8.69443 8.74123 9.27019 8.39404 9.74117C8.22256 9.9738 8.08366 10.1748 7.98836 10.3165C7.94078 10.3873 7.90427 10.443 7.8802 10.4801L7.85368 10.5213L7.84778 10.5306L7.84697 10.5319C7.55319 10.9995 6.93592 11.1406 6.46828 10.8469C6.00058 10.5531 5.85956 9.93588 6.15329 9.46818L6.15485 9.46571L6.15774 9.46114L6.16742 9.4459L6.20202 9.39213C6.23168 9.34639 6.27435 9.28134 6.32864 9.20059C6.43708 9.03932 6.59268 8.81421 6.78418 8.55443C7.16298 8.04057 7.70031 7.36634 8.30471 6.78143C8.7911 6.31073 9.57356 5.66011 10.2088 5.14586C10.5316 4.88447 10.8256 4.65094 11.0389 4.48279C11.1456 4.39865 11.2323 4.33073 11.2925 4.28371L11.3621 4.2294L11.3667 4.22582C11.6888 3.96193 12.1486 3.92389 12.512 4.14079C12.55 4.16337 12.5867 4.18862 12.6218 4.2165L12.6381 4.22922L12.7078 4.28353C12.768 4.33055 12.8546 4.39847 12.9613 4.4826C13.1746 4.65077 13.4686 4.8843 13.7915 5.14569C14.4267 5.65995 15.2091 6.31059 15.6955 6.78129C16.2999 7.36621 16.8372 8.04046 17.216 8.55432C17.4075 8.81411 17.5631 9.03922 17.6715 9.2005C17.7258 9.28125 17.7684 9.34629 17.7981 9.39203L17.8327 9.44581L17.8424 9.46105L17.8453 9.46562L17.8468 9.46809Z" fill="black"/>
</svg>
