<svg width="24" height="24" viewBox="0 0 24 24" fill="none" xmlns="http://www.w3.org/2000/svg">
<path d="M17.8861 9.46412C18.1422 8.9748 17.9531 8.37052 17.4638 8.11442C16.9745 7.85835 16.3703 8.0475 16.1141 8.53671L16.1129 8.53895L16.1066 8.55082L16.0793 8.60179C16.0547 8.64736 16.0176 8.71529 15.9693 8.80136C15.8728 8.97374 15.7323 9.21762 15.5591 9.49967C15.2085 10.0703 14.7404 10.7694 14.2423 11.3479C13.8245 11.8331 13.1044 12.5547 12.4654 13.1755C12.3003 13.3359 12.1427 13.4876 12.0001 13.624C11.8575 13.4875 11.6999 13.3359 11.5347 13.1754C10.8957 12.5546 10.1756 11.833 9.75783 11.3478C9.25971 10.7693 8.79165 10.0702 8.4411 9.49958C8.26784 9.21753 8.1274 8.97365 8.03081 8.80127C7.98258 8.7152 7.94547 8.64727 7.92085 8.6017L7.89351 8.55073L7.88723 8.53886L7.88596 8.53646C7.62982 8.04726 7.02562 7.85827 6.53635 8.11433C6.04704 8.37043 5.85797 8.97471 6.11407 9.46403L6.11544 9.46665L6.11601 9.46772L6.11814 9.47177L6.12744 9.48934L6.16123 9.55235C6.19033 9.60621 6.23239 9.68316 6.28604 9.7789C6.39319 9.97014 6.54724 10.2376 6.73697 10.5464C7.11242 11.1576 7.64436 11.9585 8.24229 12.6528C8.72542 13.2139 9.50534 13.9923 10.1411 14.6099C10.4637 14.9234 10.7576 15.2034 10.9707 15.4051C11.0774 15.506 11.164 15.5874 11.2241 15.6438L11.2937 15.7089L11.3098 15.7239C11.3792 15.7903 11.4561 15.8448 11.5377 15.8873C11.8966 16.0747 12.3428 16.028 12.6559 15.7553C12.6647 15.7477 12.6734 15.7399 12.682 15.7319L12.7065 15.709L12.776 15.6439C12.8362 15.5875 12.9228 15.5061 13.0294 15.4052C13.2426 15.2035 13.5364 14.9235 13.8591 14.61C14.4948 13.9924 15.2747 13.214 15.7579 12.6529C16.3558 11.9586 16.8877 11.1577 17.2632 10.5465C17.4529 10.2377 17.607 9.97023 17.7141 9.77899C17.7678 9.68325 17.8098 9.6063 17.8389 9.55244L17.8727 9.48943L17.882 9.47186L17.8847 9.46674L17.8861 9.46412Z" fill="black"/>
</svg>
