<svg width="24" height="24" viewBox="0 0 24 24" fill="none" xmlns="http://www.w3.org/2000/svg">
<path d="M9.464 6.11421C8.97468 5.85812 8.3704 6.04718 8.1143 6.5365C7.85823 7.02577 8.04738 7.63005 8.53659 7.8862L8.53883 7.88738L8.55069 7.89366L8.60167 7.921C8.64724 7.94562 8.71517 7.98273 8.80124 8.03096C8.97361 8.12755 9.2175 8.26799 9.49955 8.44125C10.0702 8.79179 10.7693 9.25986 11.3478 9.75797C11.833 10.1758 12.5546 10.8959 13.1754 11.5349C13.3358 11.7 13.4874 11.8576 13.6238 12.0002C13.4874 12.1428 13.3358 12.3004 13.1753 12.4656C12.5545 13.1046 11.8329 13.8247 11.3477 14.2425C10.7692 14.7406 10.0701 15.2087 9.49946 15.5592C9.21741 15.7325 8.97353 15.8729 8.80115 15.9695C8.71508 16.0177 8.64715 16.0548 8.60158 16.0795L8.55061 16.1068L8.53874 16.1131L8.53634 16.1143C8.04714 16.3705 7.85815 16.9747 8.11421 17.464C8.37031 17.9533 8.97459 18.1423 9.46391 17.8862L9.46653 17.8849L9.4676 17.8843L9.47165 17.8822L9.48922 17.8729L9.55223 17.8391C9.60609 17.81 9.68304 17.7679 9.77878 17.7143C9.97002 17.6071 10.2375 17.4531 10.5463 17.2633C11.1575 16.8879 11.9584 16.3559 12.6527 15.758C13.2138 15.2749 13.9922 14.495 14.6098 13.8592C14.9232 13.5366 15.2033 13.2427 15.405 13.0296C15.5059 12.9229 15.5873 12.8363 15.6437 12.7762L15.7088 12.7066L15.7238 12.6905C15.7902 12.6211 15.8447 12.5442 15.8872 12.4626C16.0745 12.1037 16.0279 11.6575 15.7552 11.3444C15.7476 11.3356 15.7398 11.3269 15.7318 11.3184L15.7089 11.2938L15.6438 11.2243C15.5874 11.1641 15.506 11.0775 15.4051 10.9709C15.2034 10.7577 14.9233 10.4639 14.6099 10.1412C13.9923 9.50549 13.2139 8.72557 12.6528 8.24244C11.9584 7.6445 11.1576 7.11257 10.5464 6.73712C10.2376 6.54739 9.97011 6.39334 9.77887 6.28618C9.68313 6.23254 9.60617 6.19047 9.55232 6.16138L9.48931 6.12759L9.47174 6.11829L9.46662 6.11559L9.464 6.11421Z" fill="black"/>
</svg>
