<svg width="24" height="24" viewBox="0 0 24 24" fill="none" xmlns="http://www.w3.org/2000/svg">
<path d="M15.8202 9.07274L15.8308 9.0567L15.8337 9.05218C16.1386 8.59173 16.0126 7.97122 15.5522 7.66628C15.0917 7.36132 14.4707 7.48811 14.1658 7.94857L14.1614 7.95522L14.1489 7.97425L14.1024 8.04529C14.0624 8.10665 14.005 8.19523 13.9344 8.30576C13.7932 8.52661 13.5983 8.83622 13.3829 9.19226C12.9583 9.89393 12.4303 10.8143 12.0852 11.5961C11.7686 12.3132 11.4724 13.216 11.2438 13.9816L9.73995 12.3273C9.36844 11.9187 8.73599 11.8886 8.32733 12.2601C7.91868 12.6316 7.88856 13.264 8.26007 13.6727L10.9873 16.6727C11.2361 16.9463 11.6155 17.0603 11.9738 16.9691C12.3322 16.878 12.611 16.5965 12.6987 16.2373L12.7001 16.2318L12.7049 16.2124L12.7244 16.1343C12.7417 16.0657 12.7674 15.9651 12.8004 15.8395C12.8663 15.5879 12.9611 15.2369 13.0759 14.8407C13.309 14.0359 13.6122 13.0894 13.9148 12.4039C14.2055 11.7455 14.6775 10.9159 15.094 10.2276C15.2991 9.8887 15.485 9.59334 15.6195 9.38296C15.6866 9.27788 15.7408 9.19428 15.7779 9.13737L15.8202 9.07274Z" fill="black"/>
<path fill-rule="evenodd" clip-rule="evenodd" d="M2 12C2 6.47715 6.47715 2 12 2C17.5228 2 22 6.47715 22 12C22 17.5228 17.5228 22 12 22C6.47715 22 2 17.5228 2 12ZM12 20C7.58172 20 4 16.4183 4 12C4 7.58172 7.58172 4 12 4C16.4183 4 20 7.58172 20 12C20 16.4183 16.4183 20 12 20Z" fill="black"/>
</svg>
