<svg width="24" height="24" viewBox="0 0 24 24" fill="none" xmlns="http://www.w3.org/2000/svg">
<path d="M9.17156 9.17158C9.56208 8.78106 10.1952 8.78106 10.5858 9.17158L12 10.5858L13.4142 9.17159C13.8047 8.78107 14.4379 8.78107 14.8284 9.17159C15.219 9.56211 15.219 10.1953 14.8284 10.5858L13.4142 12L14.8284 13.4142C15.2189 13.8047 15.2189 14.4379 14.8284 14.8284C14.4379 15.219 13.8047 15.219 13.4142 14.8284L12 13.4142L10.5858 14.8284C10.1953 15.219 9.56211 15.219 9.17158 14.8284C8.78106 14.4379 8.78106 13.8048 9.17158 13.4142L10.5858 12L9.17156 10.5858C8.78103 10.1953 8.78103 9.56211 9.17156 9.17158Z" fill="black"/>
<path fill-rule="evenodd" clip-rule="evenodd" d="M12 2C6.47715 2 2 6.47715 2 12C2 17.5228 6.47715 22 12 22C17.5228 22 22 17.5228 22 12C22 6.47715 17.5228 2 12 2ZM4 12C4 16.4183 7.58172 20 12 20C16.4183 20 20 16.4183 20 12C20 7.58172 16.4183 4 12 4C7.58172 4 4 7.58172 4 12Z" fill="black"/>
</svg>
