<svg width="24" height="24" viewBox="0 0 24 24" fill="none" xmlns="http://www.w3.org/2000/svg">
<path fill-rule="evenodd" clip-rule="evenodd" d="M7 4.19771C7 3.21851 7.70839 2.38306 8.6799 2.26055C9.69826 2.13213 10.9912 2 12 2C13.0088 2 14.3017 2.13213 15.3201 2.26055C16.2916 2.38306 17 3.21851 17 4.19771V4.24243C17.6552 4.30955 18.0959 4.40732 18.4814 4.62626C18.9959 4.91842 19.4406 5.39279 19.6989 5.92506C20 6.54542 20 7.30775 20 8.83241V17.1676C20 18.6923 20 19.4546 19.6989 20.075C19.4406 20.6073 18.9959 21.0816 18.4814 21.3738C17.8818 21.7143 17.1488 21.7617 15.6829 21.8566C14.4327 21.9374 13.1075 22 12 22C10.8925 22 9.56733 21.9374 8.3171 21.8566C6.85116 21.7617 6.11819 21.7143 5.51858 21.3738C5.0041 21.0816 4.55942 20.6073 4.30109 20.075C4 19.4546 4 18.6923 4 17.1676V8.83241C4 7.30775 4 6.54542 4.30109 5.92506C4.55942 5.39279 5.0041 4.91842 5.51858 4.62626C5.90412 4.40732 6.3448 4.30955 7 4.24243V4.19771ZM12 4C12.8561 4 14.0105 4.11276 15 4.23607V5.76393C14.0105 5.88724 12.8561 6 12 6C11.1439 6 9.98948 5.88724 9 5.76393V4.23607C9.98948 4.11276 11.1439 4 12 4ZM7.02484 6.11769C7.03187 6.16192 7.04036 6.2057 7.05027 6.24897C6.99383 6.25581 6.9406 6.26297 6.88991 6.27058C6.5934 6.3151 6.51953 6.35771 6.50704 6.36492C6.34449 6.45722 6.18198 6.63016 6.10036 6.79834C6.09745 6.804 6.05728 6.88212 6.03094 7.20317C6.00156 7.56126 6 8.03752 6 8.83241V17.1676C6 17.9625 6.00156 18.4388 6.03094 18.7969C6.05728 19.1179 6.09731 19.1958 6.10022 19.2014C6.18184 19.3696 6.34364 19.5423 6.50619 19.6346C6.51869 19.6418 6.59341 19.6849 6.88991 19.7295C7.22849 19.7803 7.68011 19.8112 8.44622 19.8607C9.68015 19.9406 10.9559 20 12 20C13.0441 20 14.3198 19.9406 15.5538 19.8607C16.3199 19.8112 16.7715 19.7803 17.1101 19.7295C17.4066 19.6849 17.4805 19.6423 17.493 19.6351C17.6555 19.5428 17.818 19.3699 17.8996 19.2017C17.9026 19.196 17.9427 19.1179 17.9691 18.7969C17.9984 18.4388 18 17.9625 18 17.1676V8.83241C18 8.03752 17.9984 7.56126 17.9691 7.20317C17.9427 6.88213 17.9027 6.80429 17.8998 6.79861C17.8182 6.63044 17.6564 6.45771 17.4938 6.3654C17.4813 6.3582 17.4066 6.3151 17.1101 6.27058C17.0594 6.26297 17.0062 6.25581 16.9497 6.24897C16.772 7.02536 16.1397 7.6361 15.3201 7.73945C14.3017 7.86787 13.0088 8 12 8C10.9912 8 9.69826 7.86787 8.6799 7.73945C7.81465 7.63034 7.15811 6.95572 7.02484 6.11769Z" fill="black"/>
</svg>
