<svg width="24" height="24" viewBox="0 0 24 24" fill="none" xmlns="http://www.w3.org/2000/svg">
<path d="M13 10C13 9.44772 12.5523 9 12 9C11.4477 9 11 9.44772 11 10V12.5858L10.2071 11.7929C9.81658 11.4024 9.18342 11.4024 8.79289 11.7929C8.40237 12.1834 8.40237 12.8166 8.79289 13.2071L11.2929 15.7071C11.6834 16.0976 12.3166 16.0976 12.7071 15.7071L15.2071 13.2071C15.5976 12.8166 15.5976 12.1834 15.2071 11.7929C14.8166 11.4024 14.1834 11.4024 13.7929 11.7929L13 12.5858V10Z" fill="black"/>
<path fill-rule="evenodd" clip-rule="evenodd" d="M3.35153 18.3777C2.48616 17.4794 2 16.4802 2 15.2098C2.00004 14.2016 2.30638 13.2191 2.87545 12.402C3.27558 11.8275 3.79127 11.3555 4.3828 11.016C4.81364 10.7687 5.09184 10.2964 5.07374 9.79996C5.03192 8.65319 5.33125 7.513 5.94173 6.53955C6.70488 5.32264 7.89433 4.46186 9.2582 4.13949C10.6221 3.81711 12.0533 4.05846 13.2487 4.81242C14.1433 5.37661 14.8532 6.1947 15.3018 7.15956C15.5479 7.68878 16.1454 8.00196 16.7286 8.02448C16.9371 8.03254 17.1452 8.06262 17.3496 8.11487C17.9067 8.25723 18.4143 8.55845 18.8151 8.9845C19.2159 9.41054 19.494 9.94444 19.6179 10.5259C19.6751 10.7946 19.6984 11.0685 19.6882 11.3408C19.668 11.8741 19.9178 12.4187 20.3505 12.7311C20.8221 13.0717 21.2176 13.5201 21.5038 14.0467C21.9461 14.8606 22.0993 15.8097 21.9368 16.7288C21.7743 17.6479 21.3064 18.4787 20.6145 19.0764C19.9309 19.667 18.4907 19.7791 17.5881 19.7807C17.5662 19.7807 17.5461 19.7813 17.5242 19.7827C17.1781 19.8047 14.0489 20 12 20C9.9498 20 6.81782 19.8045 6.47517 19.7827C6.45364 19.7813 6.43352 19.7808 6.41195 19.7806C5.20284 19.7717 4.20924 19.2681 3.35153 18.3777ZM4.79193 16.9902C4.21925 16.3957 4.00002 15.8744 4 15.2099C4.00004 14.6049 4.18428 14.0222 4.5166 13.5451C4.74976 13.2103 5.04594 12.9414 5.37837 12.7506C6.41364 12.1564 7.11919 11.0099 7.07241 9.72708C7.04493 8.97361 7.24227 8.23014 7.63611 7.60213C8.12774 6.81818 8.88007 6.28397 9.71826 6.08585C10.5546 5.88817 11.4362 6.03381 12.1818 6.50407C12.7417 6.85724 13.1971 7.3765 13.4882 8.00272C14.1257 9.37398 15.5152 9.97911 16.6514 10.023C16.7191 10.0256 16.7871 10.0354 16.8544 10.0526C17.0369 10.0992 17.2129 10.2003 17.3584 10.3549C17.5044 10.5102 17.6128 10.7127 17.6618 10.9428C17.6844 11.0487 17.6937 11.1572 17.6896 11.2653C17.6457 12.4262 18.1723 13.6252 19.1796 14.3526C19.4059 14.516 19.602 14.7358 19.7465 15.0017C19.9708 15.4144 20.0517 15.9037 19.9674 16.3806C19.8856 16.8431 19.6568 17.2485 19.3361 17.5373C19.3233 17.5437 19.301 17.5539 19.2671 17.5668C19.1676 17.6048 19.0204 17.6461 18.8238 17.682C18.426 17.7547 17.97 17.78 17.5845 17.7807C17.5259 17.7808 17.4644 17.7825 17.3973 17.7868C17.0406 17.8094 13.9748 18 12 18C10.0239 18 6.95543 17.8092 6.60209 17.7867C6.53398 17.7824 6.47511 17.781 6.42661 17.7807C5.84988 17.7764 5.34692 17.5663 4.79193 16.9902Z" fill="black"/>
</svg>
