<svg width="24" height="24" viewBox="0 0 24 24" fill="none" xmlns="http://www.w3.org/2000/svg">
<path d="M8 9C7.44772 9 7 9.44772 7 10V11C7 11.5523 7.44772 12 8 12C8.55228 12 9 11.5523 9 11V10C9 9.44772 8.55228 9 8 9Z" fill="black"/>
<path d="M12 9C11.4477 9 11 9.44772 11 10V11C11 11.5523 11.4477 12 12 12C12.5523 12 13 11.5523 13 11V10C13 9.44772 12.5523 9 12 9Z" fill="black"/>
<path d="M15 10C15 9.44772 15.4477 9 16 9C16.5523 9 17 9.44772 17 10V11C17 11.5523 16.5523 12 16 12C15.4477 12 15 11.5523 15 11V10Z" fill="black"/>
<path fill-rule="evenodd" clip-rule="evenodd" d="M12 18C11.9476 18 11.8948 17.9999 11.8415 17.9996L8.56833 20.764C8.27098 21.0152 7.85494 21.071 7.50193 20.907C7.14892 20.7431 6.9231 20.3893 6.9231 20V17.7244C4.64316 17.2735 3 15.2445 3 12.8897V8.11033C3 5.55291 4.93811 3.37971 7.52515 3.19509C8.9777 3.09143 10.6403 3 12 3C13.3597 3 15.0223 3.09143 16.4748 3.19509C19.0619 3.37971 21 5.55291 21 8.11033V12.8897C21 15.4471 19.0619 17.6203 16.4748 17.8049C15.0223 17.9086 13.3597 18 12 18ZM7.66751 5.19002C9.10661 5.08732 10.7127 5 12 5C13.2873 5 14.8934 5.08732 16.3325 5.19002C17.8369 5.29738 19 6.56584 19 8.11033V12.8897C19 14.4342 17.8369 15.7026 16.3325 15.81C14.8934 15.9127 13.2873 16 12 16C11.711 16 11.406 15.9956 11.0904 15.9876L8.9231 17.8465V15.8921C8.49852 15.8671 8.07628 15.8392 7.66751 15.81C6.16306 15.7026 5 14.4342 5 12.8897V8.11033C5 6.56584 6.16306 5.29738 7.66751 5.19002Z" fill="black"/>
</svg>
