<svg width="24" height="24" viewBox="0 0 24 24" fill="none" xmlns="http://www.w3.org/2000/svg">
<path d="M7 9C7 8.44772 7.44772 8 8 8H12.5C13.0523 8 13.5 8.44772 13.5 9C13.5 9.55228 13.0523 10 12.5 10H8C7.44772 10 7 9.55228 7 9Z" fill="black"/>
<path d="M7 12C7 11.4477 7.44772 11 8 11H15C15.5523 11 16 11.4477 16 12C16 12.5523 15.5523 13 15 13H8C7.44772 13 7 12.5523 7 12Z" fill="black"/>
<path fill-rule="evenodd" clip-rule="evenodd" d="M12 18C11.9476 18 11.8948 17.9999 11.8415 17.9996L8.56833 20.764C8.27098 21.0152 7.85494 21.071 7.50193 20.907C7.14892 20.7431 6.9231 20.3893 6.9231 20V17.7244C4.64316 17.2735 3 15.2445 3 12.8897V8.11033C3 5.55291 4.93811 3.37971 7.52515 3.19509C8.9777 3.09143 10.6403 3 12 3C13.3597 3 15.0223 3.09143 16.4748 3.19509C19.0619 3.37971 21 5.55291 21 8.11033V12.8897C21 15.4471 19.0619 17.6203 16.4748 17.8049C15.0223 17.9086 13.3597 18 12 18ZM7.66751 5.19002C9.10661 5.08732 10.7127 5 12 5C13.2873 5 14.8934 5.08732 16.3325 5.19002C17.8369 5.29738 19 6.56584 19 8.11033V12.8897C19 14.4342 17.8369 15.7026 16.3325 15.81C14.8934 15.9127 13.2873 16 12 16C11.711 16 11.406 15.9956 11.0904 15.9876L8.9231 17.8465V15.8921C8.49852 15.8671 8.07628 15.8392 7.66751 15.81C6.16306 15.7026 5 14.4342 5 12.8897V8.11033C5 6.56584 6.16306 5.29738 7.66751 5.19002Z" fill="black"/>
</svg>
