<svg width="24" height="24" viewBox="0 0 24 24" fill="none" xmlns="http://www.w3.org/2000/svg">
<path fill-rule="evenodd" clip-rule="evenodd" d="M5.30676 3.1821C5.83067 3.08707 6.45163 3 7 3C7.54837 3 8.16933 3.08707 8.69324 3.1821C10.1039 3.43798 11 4.69215 11 6.02293V7.97707C11 9.30785 10.1039 10.562 8.69324 10.8179C8.16933 10.9129 7.54837 11 7 11C6.45163 11 5.83067 10.9129 5.30676 10.8179C3.89607 10.562 3 9.30785 3 7.97707V6.02293C3 4.69215 3.89607 3.43798 5.30676 3.1821ZM7 5C6.63123 5 6.14884 5.06199 5.66371 5.14999C5.30387 5.21526 5 5.55428 5 6.02293V7.97707C5 8.44572 5.30387 8.78474 5.66371 8.85001C6.14884 8.93801 6.63123 9 7 9C7.36877 9 7.85116 8.93801 8.33629 8.85001C8.69613 8.78474 9 8.44572 9 7.97707V6.02293C9 5.55428 8.69613 5.21526 8.33629 5.14999C7.85116 5.06199 7.36877 5 7 5Z" fill="black"/>
<path d="M17 11C16.4477 11 16 10.5523 16 10V8H14C13.4477 8 13 7.55228 13 7C13 6.44772 13.4477 6 14 6H16C17.1046 6 18 6.89543 18 8V10C18 10.5523 17.5523 11 17 11Z" fill="black"/>
<path fill-rule="evenodd" clip-rule="evenodd" d="M17 13C16.4516 13 15.8307 13.0871 15.3068 13.1821C13.8961 13.438 13 14.6922 13 16.0229V17.9771C13 19.3078 13.8961 20.562 15.3068 20.8179C15.8307 20.9129 16.4516 21 17 21C17.5484 21 18.1693 20.9129 18.6932 20.8179C20.1039 20.562 21 19.3078 21 17.9771V16.0229C21 14.6922 20.1039 13.438 18.6932 13.1821C18.1693 13.0871 17.5484 13 17 13ZM15.6637 15.15C16.1488 15.062 16.6312 15 17 15C17.3688 15 17.8512 15.062 18.3363 15.15C18.6961 15.2153 19 15.5543 19 16.0229V17.9771C19 18.4457 18.6961 18.7847 18.3363 18.85C17.8512 18.938 17.3688 19 17 19C16.6312 19 16.1488 18.938 15.6637 18.85C15.3039 18.7847 15 18.4457 15 17.9771V16.0229C15 15.5543 15.3039 15.2153 15.6637 15.15Z" fill="black"/>
</svg>
