<svg width="24" height="24" viewBox="0 0 24 24" fill="none" xmlns="http://www.w3.org/2000/svg">
<path d="M8.32064 8.00012C8.87292 8.00012 9.32064 8.44784 9.32064 9.00012V10.0001H10.1603C10.7126 10.0001 11.1603 10.4478 11.1603 11.0001C11.1603 11.5524 10.7126 12.0001 10.1603 12.0001H9.32064V13.0001C9.32064 13.5524 8.87292 14.0001 8.32064 14.0001C7.76835 14.0001 7.32064 13.5524 7.32064 13.0001V12.0001H6.48096C5.92867 12.0001 5.48096 11.5524 5.48096 11.0001C5.48096 10.4478 5.92867 10.0001 6.48096 10.0001H7.32064V9.00012C7.32064 8.44784 7.76835 8.00012 8.32064 8.00012Z" fill="black"/>
<path d="M17.519 9.00012C16.9668 9.00012 16.519 9.44784 16.519 10.0001C16.519 10.5524 16.9668 11.0001 17.519 11.0001H17.5282C18.0805 11.0001 18.5282 10.5524 18.5282 10.0001C18.5282 9.44784 18.0805 9.00012 17.5282 9.00012H17.519Z" fill="black"/>
<path d="M14.7595 11.0001C14.2072 11.0001 13.7595 11.4478 13.7595 12.0001C13.7595 12.5524 14.2072 13.0001 14.7595 13.0001H14.7687C15.321 13.0001 15.7687 12.5524 15.7687 12.0001C15.7687 11.4478 15.321 11.0001 14.7687 11.0001H14.7595Z" fill="black"/>
<path fill-rule="evenodd" clip-rule="evenodd" d="M15.1016 3.77426C16.1942 3.73544 17.325 3.88029 18.5353 4.65545C19.5513 5.30613 20.2993 5.96483 20.869 7.04375C21.2079 7.68537 21.382 8.3897 21.4981 9.22262C21.6117 10.0374 21.6782 11.0495 21.762 12.3256L21.9909 15.8091C22.1339 17.9867 20.5364 20.0001 18.3161 20.0001C17.1901 20.0001 16.1483 19.4557 15.4607 18.5587C15.4641 18.5631 15.3401 18.4046 15.1882 18.2106L14.9903 17.9578C14.8379 17.7632 14.7248 17.6188 14.7357 17.6317C14.6918 17.5791 14.6526 17.5334 14.6204 17.4973C14.595 17.4688 14.5811 17.4545 14.5769 17.4502C14.3334 17.2248 14.0472 17.082 13.7515 17.0266C13.5321 16.9855 13.311 16.9747 13.0296 16.9781C12.9469 16.979 12.8295 16.9824 12.6966 16.9863C12.478 16.9926 12.2172 17.0001 12 17.0001C11.7827 17.0001 11.5221 16.9926 11.3034 16.9863C11.1706 16.9824 11.0531 16.979 10.9704 16.9781C10.689 16.9747 10.4679 16.9855 10.2484 17.0266C9.95297 17.082 9.66719 17.2242 9.42381 17.4493C9.42186 17.4514 9.40816 17.4653 9.37953 17.4973C9.3473 17.5334 9.30815 17.5791 9.26429 17.6317C9.27507 17.6188 9.16264 17.7624 9.0109 17.9562L8.80614 18.2178C8.65686 18.4085 8.53585 18.5631 8.53922 18.5587C7.85161 19.4557 6.80986 20.0001 5.68386 20.0001C3.4636 20.0001 1.866 17.9867 2.00908 15.8091L2.23796 12.3256C2.32179 11.0495 2.38828 10.0374 2.50183 9.22262C2.6179 8.3897 2.79208 7.68537 3.13091 7.04375C3.70066 5.96483 4.44866 5.30613 5.46464 4.65545C6.67499 3.88029 7.80578 3.73544 8.89835 3.77426C9.33982 3.78995 9.79171 3.83671 10.2212 3.88114C10.2985 3.88914 10.3751 3.89706 10.4507 3.90472C10.9617 3.95641 11.4652 4.00012 12 4.00012C12.5347 4.00012 13.0382 3.95641 13.5492 3.90472C13.6249 3.89707 13.7014 3.88915 13.7787 3.88115C14.2082 3.83672 14.6601 3.78995 15.1016 3.77426ZM13.7505 5.89456C13.2261 5.94761 12.64 6.00012 12 6.00012C11.3599 6.00012 10.7738 5.94761 10.2494 5.89456C10.1643 5.88596 10.0816 5.87742 10.0008 5.8691C9.56963 5.82466 9.1954 5.78608 8.82733 5.773C8.00396 5.74374 7.31156 5.84761 6.54328 6.33965C5.69801 6.881 5.25227 7.30958 4.89946 7.97768C4.71438 8.32816 4.58361 8.77444 4.48269 9.49865C4.3804 10.2327 4.31807 11.172 4.23109 12.4957L4.00478 15.9402C3.92593 17.1403 4.78914 18.0001 5.68386 18.0001C6.15081 18.0001 6.61974 17.7753 6.95191 17.3419L7.42333 16.7396C7.57242 16.5491 7.71708 16.3643 7.72797 16.3512C7.81973 16.2411 7.95056 16.0877 8.06449 15.9822C8.57446 15.5101 9.20059 15.1881 9.88015 15.0608C10.2838 14.9852 10.6524 14.9742 10.9941 14.9782C11.1734 14.9803 11.3115 14.9849 11.4452 14.9893C11.6129 14.9948 11.7737 15.0001 12 15.0001C12.2263 15.0001 12.387 14.9948 12.5547 14.9893C12.6884 14.9849 12.8266 14.9803 13.0059 14.9782C13.3476 14.9742 13.7162 14.9852 14.1198 15.0608C14.7994 15.1881 15.4255 15.5101 15.9355 15.9822C16.0494 16.0877 16.1802 16.2411 16.272 16.3512C16.2828 16.3643 16.427 16.5484 16.5757 16.7385L17.048 17.3419C17.3802 17.7753 17.8491 18.0001 18.3161 18.0001C19.2108 18.0001 20.074 17.1404 19.9952 15.9402L19.7689 12.4957C19.6819 11.172 19.6195 10.2327 19.5173 9.49865C19.4163 8.77444 19.2856 8.32816 19.1005 7.97768C18.7477 7.30958 18.3019 6.881 17.4567 6.33965C16.6884 5.84761 15.996 5.74374 15.1726 5.773C14.8045 5.78608 14.4303 5.82466 13.9992 5.8691C13.9185 5.87741 13.8354 5.88597 13.7505 5.89456Z" fill="black"/>
</svg>
