<svg width="24" height="24" viewBox="0 0 24 24" fill="none" xmlns="http://www.w3.org/2000/svg">
<path fill-rule="evenodd" clip-rule="evenodd" d="M14 3C13.0075 3 11.8108 3.07284 10.7532 3.15717L10.7161 3.16012C10.2661 3.19598 9.86886 3.22763 9.537 3.28233C9.17891 3.34136 8.83047 3.43638 8.49135 3.63368C7.98071 3.93077 7.55081 4.39632 7.29524 4.92895C7.12379 5.28626 7.05781 5.64824 7.02791 6.01496C7.00197 6.33321 7.00012 6.70991 7.00001 7.13785C6.91701 7.14418 6.83469 7.15061 6.75318 7.15711L6.71609 7.16007C6.26607 7.19593 5.86886 7.22758 5.537 7.28228C5.17891 7.3413 4.83047 7.43632 4.49135 7.63362C3.98071 7.93071 3.55081 8.39626 3.29524 8.92889C3.1238 9.28621 3.05781 9.64818 3.02791 10.0149C2.99997 10.3577 2.99998 10.7682 3 11.2376V16.7622C2.99998 17.2316 2.99997 17.6422 3.02791 17.985C3.05781 18.3517 3.1238 18.7137 3.29524 19.071C3.55081 19.6036 3.98071 20.0692 4.49135 20.3663C4.83047 20.5636 5.17891 20.6586 5.537 20.7176C5.86887 20.7723 6.2661 20.804 6.71615 20.8398L6.75318 20.8428C7.81084 20.9271 9.00746 20.9999 10 20.9999C10.9925 20.9999 12.1892 20.9271 13.2468 20.8428L13.2839 20.8398C13.7339 20.804 14.1311 20.7723 14.463 20.7176C14.8211 20.6586 15.1695 20.5636 15.5087 20.3663C16.0193 20.0692 16.4492 19.6036 16.7048 19.071C16.8762 18.7137 16.9422 18.3517 16.9721 17.985C16.998 17.6667 16.9999 17.29 17 16.8621C17.083 16.8558 17.1653 16.8493 17.2468 16.8428L17.2839 16.8399C17.7339 16.804 18.1311 16.7724 18.463 16.7177C18.8211 16.6586 19.1695 16.5636 19.5087 16.3663C20.0193 16.0692 20.4492 15.6037 20.7048 15.0711C20.8762 14.7137 20.9422 14.3518 20.9721 13.985C21 13.6423 21 13.2317 21 12.7623V7.2377C21 6.76832 21 6.35773 20.9721 6.01496C20.9422 5.64824 20.8762 5.28626 20.7048 4.92895C20.4492 4.39632 20.0193 3.93077 19.5087 3.63368C19.1695 3.43638 18.8211 3.34136 18.463 3.28233C18.1311 3.22763 17.7339 3.19598 17.2839 3.16012L17.2468 3.15717C16.1892 3.07284 14.9925 3 14 3ZM10.9121 5.15084C11.9535 5.06781 13.0876 5 14 5C14.9124 5 16.0465 5.06781 17.0879 5.15084C17.586 5.19056 17.8987 5.2163 18.1377 5.25571C18.3597 5.29229 18.4487 5.33088 18.5029 5.36238C18.6672 5.458 18.8193 5.62272 18.9016 5.79414C18.927 5.84704 18.9594 5.94066 18.9787 6.17748C18.9992 6.42926 19 6.75757 19 7.2747V12.7253C19 13.2424 18.9992 13.5707 18.9787 13.8225C18.9594 14.0593 18.927 14.153 18.9016 14.2059C18.8193 14.3773 18.6672 14.542 18.5029 14.6376C18.4487 14.6691 18.3597 14.7077 18.1377 14.7443C17.8987 14.7837 17.586 14.8094 17.0879 14.8492C16.0465 14.9322 14.9124 15 14 15C13.0876 15 11.9535 14.9322 10.9121 14.8492C10.414 14.8094 10.1014 14.7837 9.86227 14.7443C9.64032 14.7077 9.55127 14.6691 9.49712 14.6376C9.33277 14.542 9.18067 14.3773 9.09842 14.2059C9.07304 14.153 9.04061 14.0593 9.0213 13.8225C9.00077 13.5707 9 13.2424 9 12.7253V7.27471C9 6.75757 9.00077 6.42926 9.0213 6.17748C9.04061 5.94066 9.07304 5.84704 9.09842 5.79414C9.18067 5.62272 9.33277 5.458 9.49712 5.36238C9.55127 5.33088 9.64032 5.29229 9.86227 5.25571C10.1014 5.2163 10.414 5.19056 10.9121 5.15084ZM14.9998 16.9798C14.6532 16.9926 14.3163 17 14 17C13.0075 17 11.8108 16.9272 10.7532 16.8428L10.7161 16.8399C10.2661 16.804 9.86887 16.7724 9.537 16.7177C9.17891 16.6586 8.83047 16.5636 8.49135 16.3663C7.98071 16.0692 7.55081 15.6037 7.29524 15.0711C7.12379 14.7137 7.05781 14.3518 7.02791 13.985C6.99997 13.6423 6.99998 13.2317 7 12.7623V9.14383C6.97065 9.14614 6.94136 9.14846 6.91214 9.15078C6.41401 9.1905 6.10136 9.21624 5.86227 9.25565C5.64032 9.29224 5.55127 9.33082 5.49712 9.36233C5.33277 9.45795 5.18067 9.62266 5.09842 9.79409C5.07304 9.84698 5.04061 9.9406 5.0213 10.1774C5.00077 10.4292 5 10.7575 5 11.2747V16.7252C5 17.2424 5.00077 17.5707 5.0213 17.8225C5.04061 18.0593 5.07304 18.1529 5.09842 18.2058C5.18067 18.3772 5.33277 18.5419 5.49712 18.6376C5.55127 18.6691 5.64032 18.7077 5.86227 18.7442C6.10136 18.7836 6.41401 18.8094 6.91214 18.8491C7.95348 18.9321 9.08761 18.9999 10 18.9999C10.9124 18.9999 12.0465 18.9321 13.0879 18.8491C13.586 18.8094 13.8987 18.7836 14.1377 18.7442C14.3597 18.7077 14.4487 18.6691 14.5029 18.6376C14.6672 18.5419 14.8193 18.3772 14.9016 18.2058C14.927 18.1529 14.9594 18.0593 14.9787 17.8225C14.9956 17.6147 14.9991 17.3549 14.9998 16.9798Z" fill="black"/>
</svg>
