<svg width="24" height="24" viewBox="0 0 24 24" fill="none" xmlns="http://www.w3.org/2000/svg">
<path d="M7 13C6.44772 13 6 13.4477 6 14C6 14.5523 6.44772 15 7 15H11C11.5523 15 12 14.5523 12 14C12 13.4477 11.5523 13 11 13H7Z" fill="black"/>
<path fill-rule="evenodd" clip-rule="evenodd" d="M4.74086 4.35257C6.65183 4.20526 9.71836 4 12 4C14.2816 4 17.3482 4.20526 19.2591 4.35257C20.8194 4.47285 22 5.77754 22 7.32582V16.6742C22 18.2225 20.8194 19.5272 19.2591 19.6474C17.3482 19.7947 14.2816 20 12 20C9.71836 20 6.65183 19.7947 4.74086 19.6474C3.18056 19.5272 2 18.2225 2 16.6742V7.32582C2 5.77754 3.18056 4.47285 4.74086 4.35257ZM12 6C9.80272 6 6.80402 6.19947 4.89457 6.34665C4.39268 6.38534 4 6.8058 4 7.32582V8H20V7.32582C20 6.8058 19.6073 6.38534 19.1054 6.34665C17.196 6.19947 14.1973 6 12 6ZM4 16.6742V10H20V16.6742C20 17.1942 19.6073 17.6147 19.1054 17.6533C17.196 17.8005 14.1973 18 12 18C9.80272 18 6.80402 17.8005 4.89457 17.6533C4.39268 17.6147 4 17.1942 4 16.6742Z" fill="black"/>
</svg>
