<svg width="24" height="24" viewBox="0 0 24 24" fill="none" xmlns="http://www.w3.org/2000/svg">
<path fill-rule="evenodd" clip-rule="evenodd" d="M9.17152 7.75725C8.781 7.36672 8.14783 7.36672 7.75731 7.75725C7.36679 8.14777 7.36679 8.78094 7.75731 9.17146L10.5858 12L7.75731 14.8285C7.36679 15.2191 7.36679 15.8522 7.75731 16.2428C8.14783 16.6333 8.781 16.6333 9.17152 16.2428L12.0001 13.4142L14.8284 16.2425C15.2189 16.6331 15.8521 16.6331 16.2426 16.2425C16.6331 15.852 16.6331 15.2188 16.2426 14.8283L13.4143 12L16.2426 9.17168C16.6331 8.78116 16.6331 8.14799 16.2426 7.75747C15.8521 7.36695 15.2189 7.36695 14.8284 7.75747L12.0001 10.5858L9.17152 7.75725Z" fill="black"/>
</svg>
