<svg width="24" height="24" viewBox="0 0 24 24" fill="none" xmlns="http://www.w3.org/2000/svg">
<path d="M9 14C9 13.4477 9.44772 13 10 13H11V12C11 11.4477 11.4477 11 12 11C12.5523 11 13 11.4477 13 12V13H14C14.5523 13 15 13.4477 15 14C15 14.5523 14.5523 15 14 15H13V16C13 16.5523 12.5523 17 12 17C11.4477 17 11 16.5523 11 16V15H10C9.44772 15 9 14.5523 9 14Z" fill="black"/>
<path fill-rule="evenodd" clip-rule="evenodd" d="M12 2H11.9913L11.9825 2.00015C10.3176 2.02925 8.17714 2.19748 6.69788 2.3306C5.15494 2.46945 4 3.76709 4 5.29713V18.721C4 20.2391 5.13883 21.5335 6.6731 21.6805C8.16255 21.8231 10.3381 22 12 22C13.6619 22 15.8375 21.8231 17.3269 21.6805C18.8591 21.5337 20 20.2445 20 18.7243V8.02209C20.0004 8.00682 20.0003 7.9916 20 7.97643V7.5C20 6.78349 19.7566 6.07237 19.4379 5.4633C19.1143 4.84484 18.6777 4.26352 18.2071 3.79289C17.8408 3.42663 17.2771 3.17145 16.793 2.98975C16.2653 2.79171 15.6535 2.61821 15.0553 2.47542C13.8861 2.19632 12.6202 2 12 2ZM17.8121 6.70203C17.7706 6.60185 17.722 6.49777 17.6659 6.39051C17.4407 5.96025 17.1273 5.54156 16.7929 5.20711C16.7929 5.20711 16.7807 5.19568 16.7489 5.17379C16.7149 5.15032 16.667 5.12093 16.6028 5.08669C16.473 5.01743 16.3015 4.94152 16.0902 4.86221C15.6674 4.70352 15.1421 4.55234 14.5909 4.42076L14.5047 4.40038C14.6078 4.63279 14.7123 4.89251 14.8092 5.19417C14.9406 5.60314 15.0536 6.09993 15.1364 6.50564C15.1393 6.52008 15.1478 6.5358 15.1648 6.54913C15.1818 6.56245 15.1988 6.56674 15.2132 6.56616C15.7265 6.54539 16.4 6.53457 16.9533 6.58799C17.2845 6.61997 17.5578 6.65735 17.8121 6.70203ZM12.1233 4.00388C12.0799 4.00149 12.0412 4.00019 12.0077 4.00002C10.4214 4.02826 8.34781 4.1902 6.87714 4.32255C6.38414 4.36692 6 4.78301 6 5.29713V18.721C6 19.2317 6.37852 19.6431 6.86375 19.6896C8.348 19.8317 10.4414 20 12 20C13.5586 20 15.652 19.8317 17.1363 19.6896C17.6235 19.6429 18 19.2329 18 18.7243V8.78361C17.5831 8.68544 17.2659 8.62747 16.7611 8.57873C16.3502 8.53907 15.7896 8.54448 15.2941 8.56452C14.2794 8.60558 13.3798 7.89977 13.1768 6.90572C13.0978 6.51856 13.0022 6.10806 12.9051 5.80588C12.796 5.46629 12.6729 5.19476 12.5313 4.89877L12.4738 4.77921C12.3649 4.55327 12.241 4.29624 12.1233 4.00388Z" fill="black"/>
</svg>
