<svg width="24" height="24" viewBox="0 0 24 24" fill="none" xmlns="http://www.w3.org/2000/svg">
<path d="M13 10C13 9.44772 12.5523 9 12 9C11.4477 9 11 9.44772 11 10V12.5858L10.2071 11.7929C9.81658 11.4024 9.18342 11.4024 8.79289 11.7929C8.40237 12.1834 8.40237 12.8166 8.79289 13.2071L11.2929 15.7071C11.6834 16.0976 12.3166 16.0976 12.7071 15.7071L15.2071 13.2071C15.5976 12.8166 15.5976 12.1834 15.2071 11.7929C14.8166 11.4024 14.1834 11.4024 13.7929 11.7929L13 12.5858V10Z" fill="black"/>
<path fill-rule="evenodd" clip-rule="evenodd" d="M11.9913 2H12C12.6202 2 13.8861 2.19632 15.0553 2.47542C15.6535 2.61821 16.2653 2.79171 16.793 2.98975C17.2771 3.17145 17.8408 3.42663 18.2071 3.79289C18.6777 4.26352 19.1143 4.84484 19.4379 5.4633C19.7566 6.07237 20 6.78349 20 7.5V7.97643C20.0003 7.9916 20.0004 8.00682 20 8.02209V18.7243C20 20.2445 18.8591 21.5337 17.3269 21.6805C15.8375 21.8231 13.6619 22 12 22C10.3381 22 8.16255 21.8231 6.6731 21.6805C5.13883 21.5335 4 20.2391 4 18.721V5.29713C4 3.76709 5.15494 2.46945 6.69788 2.3306C8.17714 2.19748 10.3176 2.02925 11.9825 2.00015L11.9913 2ZM17.6659 6.39051C17.722 6.49777 17.7706 6.60185 17.8121 6.70203C17.5578 6.65735 17.2845 6.61997 16.9533 6.58799C16.4 6.53457 15.7265 6.54539 15.2132 6.56616C15.1988 6.56674 15.1818 6.56245 15.1648 6.54913C15.1478 6.5358 15.1393 6.52008 15.1364 6.50564C15.0536 6.09993 14.9406 5.60314 14.8092 5.19417C14.7123 4.89251 14.6078 4.63279 14.5047 4.40038L14.5909 4.42076C15.1421 4.55234 15.6674 4.70352 16.0902 4.86221C16.3015 4.94152 16.473 5.01743 16.6028 5.08669C16.667 5.12093 16.7149 5.15032 16.7489 5.17379C16.7807 5.19568 16.7929 5.20711 16.7929 5.20711C17.1273 5.54156 17.4407 5.96025 17.6659 6.39051ZM12.0077 4.00002C12.0412 4.00019 12.0799 4.00149 12.1233 4.00388C12.241 4.29624 12.3649 4.55327 12.4738 4.77921L12.5313 4.89877C12.6729 5.19476 12.796 5.46629 12.9051 5.80588C13.0022 6.10806 13.0978 6.51856 13.1768 6.90572C13.3798 7.89977 14.2794 8.60558 15.2941 8.56452C15.7896 8.54448 16.3502 8.53907 16.7611 8.57873C17.2659 8.62747 17.5831 8.68544 18 8.78361V18.7243C18 19.2329 17.6235 19.6429 17.1363 19.6896C15.652 19.8317 13.5586 20 12 20C10.4414 20 8.348 19.8317 6.86375 19.6896C6.37852 19.6431 6 19.2317 6 18.721V5.29713C6 4.78301 6.38414 4.36692 6.87714 4.32255C8.34781 4.1902 10.4214 4.02826 12.0077 4.00002Z" fill="black"/>
</svg>
