<svg width="24" height="24" viewBox="0 0 24 24" fill="none" xmlns="http://www.w3.org/2000/svg">
<path d="M14 7C14.5523 7 15 7.33579 15 7.75V9H16.25C16.6642 9 17 9.44772 17 10C17 10.5523 16.6642 11 16.25 11H15V12.25C15 12.6642 14.5523 13 14 13C13.4477 13 13 12.6642 13 12.25V11H11.75C11.3358 11 11 10.5523 11 10C11 9.44772 11.3358 9 11.75 9H13V7.75C13 7.33579 13.4477 7 14 7Z" fill="black"/>
<path fill-rule="evenodd" clip-rule="evenodd" d="M10.7532 3.15717C11.8108 3.07284 13.0075 3 14 3C14.9925 3 16.1892 3.07284 17.2468 3.15717L17.2839 3.16012C17.7339 3.19598 18.1311 3.22763 18.463 3.28233C18.8211 3.34136 19.1695 3.43638 19.5087 3.63368C20.0193 3.93077 20.4492 4.39632 20.7048 4.92895C20.8762 5.28626 20.9422 5.64824 20.9721 6.01496C21 6.35773 21 6.76832 21 7.2377V12.7623C21 13.2317 21 13.6423 20.9721 13.985C20.9422 14.3518 20.8762 14.7137 20.7048 15.0711C20.4492 15.6037 20.0193 16.0692 19.5087 16.3663C19.1695 16.5636 18.8211 16.6586 18.463 16.7177C18.1311 16.7724 17.7339 16.804 17.2839 16.8399L17.2468 16.8428C17.1653 16.8493 17.083 16.8558 17 16.8621C16.9999 17.29 16.998 17.6667 16.9721 17.985C16.9422 18.3517 16.8762 18.7137 16.7048 19.071C16.4492 19.6036 16.0193 20.0692 15.5087 20.3663C15.1695 20.5636 14.8211 20.6586 14.463 20.7176C14.1311 20.7723 13.7339 20.804 13.2839 20.8398L13.2468 20.8428C12.1892 20.9271 10.9925 20.9999 10 20.9999C9.00746 20.9999 7.81084 20.9271 6.75319 20.8428L6.71615 20.8398C6.2661 20.804 5.86888 20.7723 5.537 20.7176C5.17891 20.6586 4.83047 20.5636 4.49135 20.3663C3.98072 20.0692 3.55081 19.6036 3.29524 19.071C3.1238 18.7137 3.05781 18.3517 3.02791 17.985C2.99997 17.6422 2.99998 17.2316 3 16.7623V11.2376C2.99998 10.7682 2.99997 10.3577 3.02791 10.0149C3.05781 9.64818 3.1238 9.28621 3.29524 8.92889C3.55081 8.39626 3.98072 7.93071 4.49135 7.63362C4.83047 7.43632 5.17891 7.3413 5.537 7.28228C5.86886 7.22758 6.26607 7.19593 6.71609 7.16007L6.75319 7.15711C6.83469 7.15061 6.91701 7.14418 7.00001 7.13785C7.00012 6.70991 7.00197 6.33321 7.02791 6.01496C7.05781 5.64824 7.1238 5.28626 7.29524 4.92895C7.55081 4.39632 7.98071 3.93077 8.49135 3.63368C8.83047 3.43638 9.17891 3.34136 9.537 3.28233C9.86886 3.22763 10.2661 3.19598 10.7161 3.16012L10.7532 3.15717ZM14 5C13.0876 5 11.9535 5.06781 10.9121 5.15084C10.414 5.19056 10.1014 5.2163 9.86227 5.25571C9.64032 5.29229 9.55127 5.33088 9.49712 5.36238C9.33277 5.458 9.18067 5.62272 9.09842 5.79414C9.07304 5.84704 9.04061 5.94066 9.0213 6.17748C9.00077 6.42926 9 6.75757 9 7.27471V12.7253C9 13.2424 9.00077 13.5707 9.0213 13.8225C9.04061 14.0593 9.07304 14.153 9.09842 14.2059C9.18067 14.3773 9.33277 14.542 9.49712 14.6376C9.55127 14.6691 9.64032 14.7077 9.86227 14.7443C10.1014 14.7837 10.414 14.8094 10.9121 14.8492C11.9535 14.9322 13.0876 15 14 15C14.9124 15 16.0465 14.9322 17.0879 14.8492C17.586 14.8094 17.8987 14.7837 18.1377 14.7443C18.3597 14.7077 18.4487 14.6691 18.5029 14.6376C18.6672 14.542 18.8193 14.3773 18.9016 14.2059C18.927 14.153 18.9594 14.0593 18.9787 13.8225C18.9992 13.5707 19 13.2424 19 12.7253V7.2747C19 6.75757 18.9992 6.42926 18.9787 6.17748C18.9594 5.94066 18.927 5.84704 18.9016 5.79414C18.8193 5.62272 18.6672 5.458 18.5029 5.36238C18.4487 5.33088 18.3597 5.29229 18.1377 5.25571C17.8987 5.2163 17.586 5.19056 17.0879 5.15084C16.0465 5.06781 14.9124 5 14 5ZM14 17C14.3163 17 14.6532 16.9926 14.9998 16.9798C14.9991 17.3549 14.9956 17.6147 14.9787 17.8225C14.9594 18.0593 14.927 18.1529 14.9016 18.2058C14.8193 18.3772 14.6672 18.5419 14.5029 18.6376C14.4487 18.6691 14.3597 18.7077 14.1377 18.7442C13.8987 18.7836 13.586 18.8094 13.0879 18.8491C12.0465 18.9321 10.9124 18.9999 10 18.9999C9.08761 18.9999 7.95348 18.9321 6.91214 18.8491C6.41401 18.8094 6.10136 18.7836 5.86227 18.7442C5.64032 18.7077 5.55127 18.6691 5.49712 18.6376C5.33278 18.5419 5.18067 18.3772 5.09842 18.2058C5.07304 18.1529 5.04061 18.0593 5.0213 17.8225C5.00077 17.5707 5 17.2424 5 16.7252V11.2747C5 10.7575 5.00077 10.4292 5.0213 10.1774C5.04061 9.9406 5.07304 9.84698 5.09842 9.79409C5.18067 9.62266 5.33278 9.45795 5.49712 9.36233C5.55127 9.33082 5.64032 9.29224 5.86227 9.25565C6.10136 9.21624 6.41401 9.1905 6.91214 9.15078L7 9.14383V12.7623C6.99998 13.2317 6.99997 13.6423 7.02791 13.985C7.05781 14.3518 7.1238 14.7137 7.29524 15.0711C7.55081 15.6037 7.98071 16.0692 8.49135 16.3663C8.83047 16.5636 9.17891 16.6586 9.537 16.7177C9.86887 16.7724 10.2661 16.804 10.7161 16.8399L10.7532 16.8428C11.8108 16.9272 13.0075 17 14 17Z" fill="black"/>
</svg>
