<svg width="24" height="24" viewBox="0 0 24 24" fill="none" xmlns="http://www.w3.org/2000/svg">
<path d="M11.0077 8.12403C11.0762 8.67205 11.576 9.06078 12.124 8.99228C12.6721 8.92378 13.0608 8.42399 12.9923 7.87597L12.7113 5.6279C12.5236 4.12661 11.2474 3 9.73444 3H6.30516C4.77014 3 3.47 4.16204 3.3377 5.71085C3.19204 7.41601 3 10.0313 3 12C3 13.9687 3.19204 16.584 3.3377 18.2891C3.47 19.838 4.77014 21 6.30516 21H9.73443C11.2474 21 12.5236 19.8734 12.7113 18.3721L12.9923 16.124C13.0608 15.576 12.6721 15.0762 12.124 15.0077C11.576 14.9392 11.0762 15.3279 11.0077 15.876L10.7267 18.124C10.6642 18.6245 10.2388 19 9.73443 19H6.30516C5.78923 19 5.3727 18.6136 5.33044 18.1189C5.18504 16.4168 5 13.8758 5 12C5 10.1242 5.18504 7.58322 5.33044 5.88108C5.3727 5.38639 5.78923 5 6.30516 5H9.73444C10.2388 5 10.6642 5.37554 10.7267 5.87597L11.0077 8.12403Z" fill="black"/>
<path d="M16.7071 7.29289C16.3166 6.90237 15.6834 6.90237 15.2929 7.29289C14.9024 7.68342 14.9024 8.31658 15.2929 8.70711L17.5858 11H7.99998C7.4477 11 6.99998 11.4477 6.99998 12C6.99998 12.5523 7.4477 13 7.99998 13H17.5858L15.2929 15.2929C14.9024 15.6834 14.9024 16.3166 15.2929 16.7071C15.6834 17.0976 16.3166 17.0976 16.7071 16.7071L20.7065 12.7077C20.7553 12.6589 20.7986 12.6057 20.8352 12.5502C21.0915 12.1621 21.0488 11.6346 20.7071 11.2929L16.7071 7.29289Z" fill="black"/>
</svg>
