<svg width="24" height="24" viewBox="0 0 24 24" fill="none" xmlns="http://www.w3.org/2000/svg">
<path fill-rule="evenodd" clip-rule="evenodd" d="M10.9128 3.64535C11.8586 2.60502 13.1628 2 14.5455 2H17C17.5523 2 18 2.44772 18 3V6.6C18 7.15228 17.5523 7.6 17 7.6H14.7273V9.2H17C17.3042 9.2 17.5918 9.33843 17.7815 9.57615C17.9713 9.81387 18.0425 10.125 17.9751 10.4216L17.157 14.0216C17.0535 14.4769 16.6487 14.8 16.1818 14.8H14.7273V21C14.7273 21.5523 14.2796 22 13.7273 22H10.4545C9.90226 22 9.45455 21.5523 9.45455 21V14.8H8C7.44772 14.8 7 14.3523 7 13.8V10.2C7 9.64772 7.44772 9.2 8 9.2H9.45455V7.5C9.45455 6.07044 9.96993 4.68251 10.9128 3.64535ZM14.5455 4C13.7581 4 12.9813 4.34319 12.3927 4.99069C11.8012 5.64136 11.4545 6.54261 11.4545 7.5V10.2C11.4545 10.7523 11.0068 11.2 10.4545 11.2H9V12.8H10.4545C11.0068 12.8 11.4545 13.2477 11.4545 13.8V20H12.7273V13.8C12.7273 13.2477 13.175 12.8 13.7273 12.8H15.3836L15.7472 11.2H13.7273C13.175 11.2 12.7273 10.7523 12.7273 10.2V7.5C12.7273 7.02522 12.8979 6.55296 13.227 6.19093C13.559 5.82573 14.0308 5.6 14.5455 5.6H16V4H14.5455Z" fill="black"/>
</svg>
