<svg width="24" height="24" viewBox="0 0 24 24" fill="none" xmlns="http://www.w3.org/2000/svg">
<path fill-rule="evenodd" clip-rule="evenodd" d="M6.35424 15C6.29176 15.0551 6.23083 15.1123 6.17157 15.1716C5.42143 15.9217 5 16.9391 5 18C5 19.0609 5.42143 20.0783 6.17157 20.8284C6.92172 21.5786 7.93913 22 9 22C10.0609 22 11.0783 21.5786 11.8284 20.8284C12.5786 20.0783 13 19.0609 13 18V15.4641C13.1509 15.5512 13.3076 15.6286 13.4693 15.6955C13.9546 15.8965 14.4747 16 15 16C15.5253 16 16.0454 15.8965 16.5307 15.6955C17.016 15.4945 17.457 15.1999 17.8284 14.8284C18.1999 14.457 18.4945 14.016 18.6955 13.5307C18.8965 13.0454 19 12.5253 19 12C19 11.4747 18.8965 10.9546 18.6955 10.4693C18.4945 9.98397 18.1999 9.54301 17.8284 9.17157C17.7693 9.11241 17.7083 9.0552 17.6457 9C17.7083 8.9448 17.7693 8.88759 17.8284 8.82843C18.1999 8.45699 18.4945 8.01604 18.6955 7.53073C18.8965 7.04543 19 6.52529 19 6C19 5.47471 18.8965 4.95457 18.6955 4.46927C18.4945 3.98397 18.1999 3.54301 17.8284 3.17157C17.457 2.80014 17.016 2.5055 16.5307 2.30448C16.0454 2.10346 15.5253 2 15 2H9C7.93913 2 6.92172 2.42143 6.17157 3.17157C5.42143 3.92172 5 4.93913 5 6C5 7.06087 5.42143 8.07828 6.17157 8.82843C6.23083 8.88768 6.29176 8.94489 6.35424 9C6.29176 9.05511 6.23083 9.11232 6.17157 9.17157C5.42143 9.92172 5 10.9391 5 12C5 13.0609 5.42143 14.0783 6.17157 14.8284C6.23083 14.8877 6.29176 14.9449 6.35424 15ZM9 4C8.46957 4 7.96086 4.21071 7.58579 4.58579C7.21071 4.96086 7 5.46957 7 6C7 6.53043 7.21071 7.03914 7.58579 7.41421C7.96086 7.78929 8.46957 8 9 8H11V4H9ZM11 16H9C8.46957 16 7.96086 16.2107 7.58579 16.5858C7.21071 16.9609 7 17.4696 7 18C7 18.5304 7.21071 19.0391 7.58579 19.4142C7.96086 19.7893 8.46957 20 9 20C9.53043 20 10.0391 19.7893 10.4142 19.4142C10.7893 19.0391 11 18.5304 11 18V16ZM9 10C8.46957 10 7.96086 10.2107 7.58579 10.5858C7.21071 10.9609 7 11.4696 7 12C7 12.5304 7.21071 13.0391 7.58579 13.4142C7.96086 13.7893 8.46957 14 9 14H11V10H9ZM13 12C13 12.2626 13.0517 12.5227 13.1522 12.7654C13.2528 13.008 13.4001 13.2285 13.5858 13.4142C13.7715 13.5999 13.992 13.7472 14.2346 13.8478C14.4773 13.9483 14.7374 14 15 14C15.2626 14 15.5227 13.9483 15.7654 13.8478C16.008 13.7472 16.2285 13.5999 16.4142 13.4142C16.5999 13.2285 16.7472 13.008 16.8478 12.7654C16.9483 12.5227 17 12.2626 17 12C17 11.7374 16.9483 11.4773 16.8478 11.2346C16.7472 10.992 16.5999 10.7715 16.4142 10.5858C16.2285 10.4001 16.008 10.2528 15.7654 10.1522C15.5227 10.0517 15.2626 10 15 10C14.7374 10 14.4773 10.0517 14.2346 10.1522C13.992 10.2528 13.7715 10.4001 13.5858 10.5858C13.4001 10.7715 13.2528 10.992 13.1522 11.2346C13.0517 11.4773 13 11.7374 13 12ZM15 8C15.2626 8 15.5227 7.94827 15.7654 7.84776C16.008 7.74725 16.2285 7.59993 16.4142 7.41421C16.5999 7.2285 16.7472 7.00802 16.8478 6.76537C16.9483 6.52272 17 6.26264 17 6C17 5.73736 16.9483 5.47728 16.8478 5.23463C16.7472 4.99198 16.5999 4.7715 16.4142 4.58579C16.2285 4.40007 16.008 4.25275 15.7654 4.15224C15.5227 4.05173 15.2626 4 15 4H13V8H15Z" fill="black"/>
</svg>
