<svg width="24" height="24" viewBox="0 0 24 24" fill="none" xmlns="http://www.w3.org/2000/svg">
<path fill-rule="evenodd" clip-rule="evenodd" d="M19.9998 9.25838V8.818C19.9998 7.40195 18.8451 6.182 17.3848 6.182H13.5228C13.5084 6.182 13.4888 6.17584 13.4714 6.15839L11.9509 4.61794C11.564 4.22533 11.0343 4 10.4768 4H6.61482C5.1541 4 3.99982 5.22135 3.99982 6.636V9.25818C2.74645 9.6974 1.81368 10.9587 2.03073 12.4172L2.03327 12.4334L2.79209 17.0172C3.01779 18.5014 4.31255 19.4669 5.68195 19.4992C9.92888 20.0463 14.0718 20.0463 18.3177 19.4992C19.6876 19.4669 20.9818 18.5011 21.2085 17.0175L21.9664 12.4331L21.9688 12.418C22.1874 10.9573 21.253 9.69745 19.9998 9.25838ZM6.61482 6C6.29753 6 5.99982 6.28665 5.99982 6.636V9.11304H17.9998V8.818C17.9998 8.46805 17.7025 8.182 17.3848 8.182H13.5228C12.9653 8.182 12.4368 7.956 12.0502 7.56561L10.5271 6.02248C10.5121 6.00722 10.4932 6 10.4768 6H6.61482ZM4.00803 12.1165C3.948 11.6874 4.26704 11.2197 4.77519 11.113H19.2236C19.7341 11.2199 20.0522 11.6877 19.9917 12.116L19.2342 16.6979L19.2319 16.7126C19.1671 17.1449 18.7626 17.5 18.2468 17.5C18.2037 17.5 18.1607 17.5028 18.1179 17.5084C14.0035 18.0433 9.99717 18.0433 5.88173 17.5084C5.83899 17.5028 5.79594 17.5 5.75284 17.5C5.23687 17.5 4.83318 17.1448 4.76892 16.7136L4.76642 16.6977L4.00803 12.1165Z" fill="black"/>
</svg>
