<svg width="24" height="24" viewBox="0 0 24 24" fill="none" xmlns="http://www.w3.org/2000/svg">
<path d="M5.49655 4.08238C5.54202 3.53197 5.13268 3.04892 4.58227 3.00345C4.03186 2.95798 3.54881 3.36732 3.50334 3.91773L4.50056 4.00011C3.50428 3.9178 3.50325 3.91874 3.50325 3.91874L3.48568 4.13538C3.47442 4.2755 3.45824 4.4789 3.43854 4.73267C3.39915 5.24012 3.3456 5.94935 3.28899 6.75683C3.17602 8.36814 3.04986 10.3842 3.00044 11.9689C2.95357 13.4716 2.95138 15.3659 2.96172 16.9329L2.96197 16.9714C2.96524 17.4698 2.96809 17.9041 3.00082 18.265C3.03575 18.6499 3.10978 19.0299 3.29961 19.4C3.58292 19.9524 4.04759 20.4171 4.60001 20.7004C4.97015 20.8902 5.35011 20.9643 5.73504 20.9992C6.09586 21.0319 6.53019 21.0348 7.02851 21.038L7.06713 21.0383C8.63407 21.0486 10.5284 21.0464 12.0311 20.9996C13.6159 20.9501 15.6319 20.824 17.2432 20.711C18.0507 20.6544 18.7599 20.6009 19.2673 20.5615C19.5211 20.5418 19.7245 20.5256 19.8646 20.5143L20.0822 20.4967C20.6326 20.4512 21.042 19.9681 20.9965 19.4177C20.9511 18.8673 20.4673 18.458 19.9169 18.5035L19.7044 18.5207C19.5659 18.5319 19.3643 18.5479 19.1125 18.5675C18.6088 18.6066 17.9047 18.6597 17.1033 18.7159C15.4968 18.8285 13.5128 18.9524 11.9688 19.0005C10.5053 19.0462 8.64178 19.0486 7.08033 19.0383C6.53228 19.0347 6.1828 19.0316 5.91575 19.0074C5.66352 18.9845 5.56607 18.9482 5.51269 18.9208C5.33288 18.8286 5.17144 18.6671 5.07922 18.4873C5.05184 18.4339 5.01553 18.3365 4.99264 18.0843C4.96841 17.8172 4.96529 17.4677 4.96167 16.9197C4.95137 15.3582 4.95382 13.4947 4.99947 12.0312C5.04762 10.4872 5.17146 8.5032 5.28409 6.8967C5.34028 6.09528 5.39344 5.39115 5.43254 4.88748C5.45209 4.63568 5.46812 4.43407 5.47925 4.29557L5.49655 4.08238Z" fill="black"/>
<path d="M16.5714 7C16.0192 7 15.5714 7.44772 15.5714 8C15.5714 8.55228 16.0192 9 16.5714 9H17.8258L14.8572 12.4634L12.1878 9.34921C11.9979 9.12756 11.7205 9 11.4286 9C11.1367 9 10.8593 9.12756 10.6693 9.34921L7.24076 13.3492C6.88134 13.7685 6.9299 14.3998 7.34923 14.7593C7.76855 15.1187 8.39985 15.0701 8.75927 14.6508L11.4286 11.5366L14.0979 14.6508C14.2879 14.8724 14.5652 15 14.8572 15C15.1491 15 15.4264 14.8724 15.6164 14.6508L19 10.7033V12C19 12.5523 19.4477 13 20 13C20.5523 13 21 12.5523 21 12V8C21 7.44772 20.5523 7 20 7H16.5714Z" fill="black"/>
</svg>
