<svg width="24" height="24" viewBox="0 0 24 24" fill="none" xmlns="http://www.w3.org/2000/svg">
<path d="M9.30004 7.84998C8.49922 7.84998 7.85004 8.49916 7.85004 9.29997C7.85004 10.1008 8.49922 10.75 9.30004 10.75C10.1008 10.75 10.75 10.1008 10.75 9.29997C10.75 8.49916 10.1008 7.84998 9.30004 7.84998Z" fill="black"/>
<path d="M7.80002 13C8.24036 12.6697 8.86444 12.7576 9.19667 13.1955L9.19978 13.1995C9.20457 13.2056 9.21415 13.2175 9.2284 13.2345C9.25696 13.2685 9.30385 13.3223 9.3681 13.3893C9.49743 13.5243 9.69221 13.7078 9.94444 13.8912C10.4528 14.2609 11.1506 14.6 12 14.6C12.8495 14.6 13.5473 14.2609 14.0556 13.8912C14.3078 13.7078 14.5026 13.5243 14.6319 13.3893C14.6962 13.3223 14.7431 13.2685 14.7716 13.2345C14.7859 13.2175 14.7955 13.2056 14.8003 13.1995L14.8034 13.1955C15.1356 12.7576 15.7597 12.6697 16.2 13C16.6418 13.3314 16.7314 13.9582 16.4 14.4L16.399 14.4013L16.3979 14.4028L16.3952 14.4063L16.3883 14.4153L16.3684 14.4409C16.3523 14.4612 16.3307 14.488 16.3036 14.5202C16.2495 14.5846 16.1734 14.6714 16.0759 14.7731C15.8818 14.9757 15.5985 15.2422 15.2319 15.5087C14.5028 16.039 13.4006 16.6 12 16.6C10.5995 16.6 9.49729 16.039 8.7681 15.5087C8.40158 15.2422 8.11824 14.9757 7.92413 14.7731C7.82666 14.6714 7.7505 14.5846 7.69645 14.5202C7.66939 14.488 7.64777 14.4612 7.63169 14.4409L7.6117 14.4153L7.60482 14.4063L7.60216 14.4028L7.60103 14.4013L7.60002 14.4C7.26865 13.9582 7.35819 13.3314 7.80002 13Z" fill="black"/>
<path d="M13.25 9.29997C13.25 8.49916 13.8992 7.84998 14.7 7.84998C15.5008 7.84998 16.15 8.49916 16.15 9.29997C16.15 10.1008 15.5008 10.75 14.7 10.75C13.8992 10.75 13.25 10.1008 13.25 9.29997Z" fill="black"/>
<path fill-rule="evenodd" clip-rule="evenodd" d="M12 2C6.47715 2 2 6.47715 2 12C2 17.5228 6.47715 22 12 22C17.5228 22 22 17.5228 22 12C22 6.47715 17.5228 2 12 2ZM4 12C4 7.58172 7.58172 4 12 4C16.4183 4 20 7.58172 20 12C20 16.4183 16.4183 20 12 20C7.58172 20 4 16.4183 4 12Z" fill="black"/>
</svg>
