<svg width="24" height="24" viewBox="0 0 24 24" fill="none" xmlns="http://www.w3.org/2000/svg">
<path fill-rule="evenodd" clip-rule="evenodd" d="M6.69479 7.06916C6.00828 7.95205 5.59412 9.16821 5.59412 10.7979C5.59412 11.5235 5.69428 12.4116 5.86544 13.0904C6.26259 13.0184 6.71625 12.9707 7.16549 13.0206C7.68137 13.0779 8.25266 13.2725 8.69742 13.7613C9.06724 14.1678 9.32534 14.726 9.5062 15.2546C9.69432 15.8043 9.83131 16.4193 9.91247 17.0166C9.99335 17.6117 10.0233 18.2221 9.98062 18.7617C9.94256 19.2432 9.83379 19.879 9.46383 20.334C9.03063 20.8667 8.39796 20.9935 7.92609 20.9997C7.43643 21.0062 6.92193 20.891 6.45546 20.731C5.53611 20.4157 4.53426 19.831 3.92317 19.1593C3.19671 18.3609 3.06332 17.2487 3.03043 16.4694C3.01509 16.106 3.02101 15.7489 3.02586 15.4564L3.02776 15.3377C3.03306 14.9858 3.0288 14.8052 3.01389 14.7167C2.96588 14.4316 3.04361 14.1396 3.22704 13.9162C3.39967 13.7058 3.65004 13.5755 3.91983 13.5538C3.70232 12.6789 3.59412 11.6351 3.59412 10.7979C3.59412 8.27675 4.42517 6.27762 5.9851 4.9249C7.52249 3.59173 9.63711 3 12.0001 3C14.3832 3 16.5189 3.65251 18.0717 5.03443C19.6412 6.43122 20.5 8.47142 20.5 11C20.5 11.8873 20.3794 12.7473 20.1537 13.5625C20.3951 13.6 20.6161 13.7251 20.773 13.9162C20.9564 14.1396 21.0341 14.4316 20.9861 14.7167C20.9712 14.8052 20.9669 14.9858 20.9722 15.3377L20.9741 15.4564C20.979 15.7489 20.9849 16.106 20.9696 16.4694C20.9367 17.2487 20.8033 18.3609 20.0768 19.1593C19.4657 19.831 18.4639 20.4157 17.5445 20.731C17.0781 20.891 16.5636 21.0062 16.0739 20.9997C15.602 20.9935 14.9694 20.8667 14.5362 20.334C14.1662 19.879 14.0574 19.2432 14.0194 18.7617C13.9767 18.2221 14.0067 17.6117 14.0875 17.0166C14.1687 16.4193 14.3057 15.8043 14.4938 15.2546C14.6747 14.726 14.9328 14.1678 15.3026 13.7613C15.7473 13.2725 16.3186 13.0779 16.8345 13.0206C17.3106 12.9677 17.7916 13.0244 18.2051 13.1036C18.3967 12.4387 18.5 11.7328 18.5 11C18.5 9.31289 18.04 8.02674 17.2796 7.09049C16.9341 7.37828 16.5988 7.60071 16.2519 7.75324C15.7415 7.97762 15.2735 8.02159 14.8189 7.99158C14.5346 7.97281 14.2074 7.91794 13.9023 7.8668C13.7897 7.84792 13.6798 7.82949 13.5766 7.81364C13.1509 7.74827 12.6494 7.68962 12.0024 7.68962C11.3553 7.68962 10.8535 7.74807 10.4273 7.81321C10.3239 7.829 10.2144 7.84727 10.1018 7.86603C9.79616 7.917 9.46844 7.97165 9.18347 7.99028C8.72892 8.01999 8.26098 7.97612 7.75065 7.75267C7.39433 7.59666 7.05018 7.36723 6.69479 7.06916ZM15.6743 5.7971C14.6878 5.28258 13.4509 5 12.0001 5C10.5095 5 9.26454 5.2713 8.2882 5.77135C8.39289 5.84162 8.47964 5.88855 8.55283 5.9206C8.70673 5.98798 8.84126 6.00838 9.053 5.99454C9.2339 5.98271 9.40788 5.95357 9.65665 5.91191C9.78796 5.88991 9.94016 5.86442 10.1252 5.83615C10.6184 5.76079 11.2255 5.68962 12.0024 5.68962C12.7797 5.68962 13.3869 5.76108 13.8801 5.8368C14.0661 5.86536 14.2187 5.89107 14.3502 5.91322C14.5977 5.95491 14.7706 5.98403 14.9506 5.99592C15.1611 6.00981 15.2942 5.98953 15.4469 5.92238C15.5111 5.89415 15.5859 5.85433 15.6743 5.7971ZM5.02769 15.3579L5.02556 15.4928C5.02075 15.7897 5.01597 16.0846 5.02865 16.3851C5.05963 17.1192 5.19137 17.5813 5.4025 17.8134C5.729 18.1722 6.41022 18.6011 7.1043 18.8391C7.44453 18.9558 7.71933 19.0023 7.89967 18.9999C7.90908 18.9997 7.91785 18.9995 7.92602 18.9992C7.94534 18.9258 7.97134 18.8001 7.98684 18.6041C8.01555 18.2407 7.99753 17.7778 7.93068 17.2859C7.86412 16.7961 7.75359 16.3102 7.61393 15.9021C7.46701 15.4727 7.31706 15.2161 7.21809 15.1073C7.19405 15.0809 7.13517 15.0295 6.94475 15.0083C6.7406 14.9857 6.46582 15.0086 6.12062 15.0778C5.82017 15.138 5.52225 15.2207 5.2159 15.3058L5.02769 15.3579ZM8.02052 18.9869C8.02058 18.987 8.02026 18.9872 8.01952 18.9875C8.01893 18.9877 8.01808 18.988 8.01694 18.9883C8.01888 18.9876 8.02042 18.9869 8.02052 18.9869ZM18.9723 15.3579L18.7841 15.3058C18.4777 15.2207 18.1798 15.138 17.8794 15.0778C17.5342 15.0086 17.2594 14.9857 17.0553 15.0083C16.8648 15.0295 16.806 15.0809 16.7819 15.1073C16.6829 15.2161 16.533 15.4727 16.3861 15.9021C16.2464 16.3102 16.1359 16.7961 16.0693 17.2859C16.0025 17.7778 15.9844 18.2407 16.0132 18.6041C16.0287 18.8001 16.0547 18.9258 16.074 18.9992C16.0784 18.9994 16.083 18.9995 16.0878 18.9996C16.0918 18.9997 16.096 18.9998 16.1003 18.9999C16.2807 19.0023 16.5555 18.9558 16.8957 18.8391C17.5898 18.6011 18.271 18.1722 18.5975 17.8134C18.8086 17.5813 18.9404 17.1192 18.9714 16.3851C18.984 16.0846 18.9793 15.7897 18.9744 15.4928L18.9723 15.3579Z" fill="black"/>
</svg>
