<svg width="24" height="24" viewBox="0 0 24 24" fill="none" xmlns="http://www.w3.org/2000/svg">
<path fill-rule="evenodd" clip-rule="evenodd" d="M11.9941 6.55358C11.2493 5.84264 10.3581 5.18092 9.40109 4.77528C8.06303 4.2081 6.4623 4.10414 5.08126 5.26202C3.9239 6.23236 3.19327 7.44604 3.03301 8.77971C2.87211 10.1186 3.30159 11.4518 4.22742 12.6208C4.31156 12.727 4.40761 12.8498 4.51427 12.9861C5.15048 13.799 6.16426 15.0944 7.28049 16.2508C8.34466 17.3533 9.59647 18.4061 10.3956 19.0782C10.6064 19.2555 10.7857 19.4062 10.9217 19.5245C10.926 19.5282 10.9305 19.5321 10.9351 19.5361C10.9951 19.5883 11.0774 19.6599 11.1573 19.719C11.2554 19.7915 11.402 19.8857 11.5992 19.9434C11.8566 20.0188 12.1324 20.0188 12.3898 19.9434C12.587 19.8857 12.7336 19.7915 12.8317 19.719C12.9116 19.6599 12.9939 19.5883 13.0539 19.5361C13.0585 19.5321 13.063 19.5282 13.0673 19.5245C13.2027 19.4068 13.3803 19.2572 13.5887 19.0816C14.3874 18.4088 15.6392 17.3542 16.7071 16.2522C17.8715 15.0507 18.9301 13.7054 19.5664 12.8967C19.6456 12.796 19.7184 12.7036 19.7839 12.6208C20.7092 11.4524 21.1426 10.1145 20.98 8.77212C20.8177 7.43287 20.0779 6.21627 18.8973 5.25337C17.5043 4.11728 15.9129 4.21526 14.5753 4.78179C13.6212 5.18587 12.7356 5.84476 11.9941 6.55358ZM8.62056 6.61668C7.72412 6.2367 6.98922 6.2723 6.36622 6.79463C5.51954 7.50449 5.10708 8.28303 5.01872 9.01833C4.93098 9.74842 5.14733 10.5609 5.79529 11.3791C5.88745 11.4955 5.98969 11.626 6.10093 11.7681C6.7422 12.5868 7.68284 13.7879 8.71948 14.8618C9.70078 15.8784 10.8284 16.8275 11.6318 17.5038C11.7618 17.6132 11.8834 17.7155 11.9944 17.8098C12.103 17.7175 12.2217 17.6175 12.3485 17.5105C13.1516 16.8335 14.2838 15.879 15.2709 14.8604C16.3577 13.7389 17.3504 12.4781 17.9916 11.6637C18.0721 11.5614 18.1471 11.4662 18.2161 11.3791C18.8645 10.5603 19.083 9.74362 18.9945 9.01266C18.9055 8.27853 18.4911 7.50291 17.6332 6.80327C16.9878 6.27683 16.2435 6.24722 15.3552 6.62342C14.4331 7.014 13.4926 7.80317 12.7483 8.65706C12.5584 8.87492 12.2835 8.99996 11.9945 8.99996C11.7055 8.99996 11.4306 8.87492 11.2407 8.65706C10.4974 7.8044 9.54826 7.00991 8.62056 6.61668Z" fill="black"/>
</svg>
