<svg width="24" height="24" viewBox="0 0 24 24" fill="none" xmlns="http://www.w3.org/2000/svg">
<path fill-rule="evenodd" clip-rule="evenodd" d="M20.5904 18.5769C20.9412 17.8626 20.9916 17.0058 20.9988 15.4826C21.0003 15.4523 21.0004 15.4221 20.9992 15.3918C21 15.1624 21 14.9182 21 14.6574V9.34263C21 9.16397 21 8.99307 20.9997 8.82939C20.687 8.93988 20.3505 9 20 9H18.9999L19 13.1396L18.2936 12.4836C18.0263 12.2354 17.713 12.0421 17.3732 11.9114C17.0334 11.7808 16.6716 11.7143 16.3077 11.7143C15.9438 11.7143 15.5819 11.7808 15.2422 11.9114C14.9024 12.0421 14.5891 12.2354 14.3218 12.4836L13.8462 12.9253L11.5244 10.7693C11.2571 10.5211 10.9438 10.3279 10.604 10.1972C10.2642 10.0665 9.90236 10 9.53847 10C9.17457 10 8.81272 10.0665 8.47298 10.1972C8.13317 10.3279 7.81983 10.5212 7.55257 10.7693L5 13.1396V9.34263C5 8.28125 5.00159 7.60625 5.04438 7.08926C5.08469 6.60224 5.15242 6.41137 5.20479 6.30473C5.37499 5.95816 5.69345 5.62364 6.03125 5.43661C6.14364 5.37438 6.32678 5.30015 6.78054 5.23865C7.26979 5.17233 7.90847 5.13922 8.92626 5.08914C9.69752 5.05119 10.4616 5.02219 11.1677 5.00856C11.534 3.962 12.464 3.18025 13.5937 3.02728C13.0372 3.01004 12.4989 3 12 3C11.0384 3 9.93045 3.03731 8.82798 3.09156C6.85958 3.1884 5.87539 3.23682 5.06249 3.68689C4.36694 4.07199 3.76004 4.7095 3.40958 5.42313C3 6.25716 3 7.28565 3 9.34263V14.6574C3 14.9182 3 15.1625 3.00084 15.392C2.99961 15.4221 2.99973 15.4523 3.00121 15.4824C3.00845 17.0057 3.05882 17.8626 3.40958 18.5769C3.76004 19.2905 4.36694 19.928 5.06249 20.3131C5.87538 20.7632 6.85958 20.8116 8.82796 20.9084C9.93044 20.9627 11.0384 21 12 21C12.9616 21 14.0695 20.9627 15.172 20.9084C17.1404 20.8116 18.1246 20.7632 18.9375 20.3131C19.6331 19.928 20.24 19.2905 20.5904 18.5769ZM16.9327 13.9492L18.9956 15.8647C18.9904 16.2881 18.9794 16.6238 18.9556 16.9107C18.9153 17.3978 18.8476 17.5886 18.7952 17.6953C18.625 18.0418 18.3065 18.3764 17.9688 18.5634C17.8564 18.6256 17.6732 18.6999 17.2195 18.7614C16.7302 18.8277 16.0915 18.8608 15.0737 18.9109C13.9876 18.9643 12.9158 19 12 19C11.0842 19 10.0124 18.9643 8.92626 18.9109C7.90847 18.8608 7.26979 18.8277 6.78054 18.7614C6.32678 18.6999 6.14364 18.6256 6.03125 18.5634C5.69345 18.3764 5.37499 18.0418 5.20479 17.6953C5.15242 17.5886 5.08469 17.3978 5.04438 16.9107C5.02063 16.6238 5.00957 16.2881 5.00443 15.8647L8.91349 12.2349C8.98909 12.1647 9.08279 12.1054 9.19096 12.0638C9.29919 12.0222 9.41748 12 9.53847 12C9.65945 12 9.77774 12.0222 9.88597 12.0638C9.99414 12.1054 10.0878 12.1647 10.1635 12.2349L14.3965 16.1656C14.8012 16.5414 15.4339 16.5179 15.8097 16.1132C16.1855 15.7085 16.1621 15.0758 15.7574 14.7L15.3158 14.2899L15.6827 13.9492C15.7583 13.879 15.852 13.8197 15.9602 13.7781C16.0684 13.7365 16.1867 13.7143 16.3077 13.7143C16.4287 13.7143 16.547 13.7365 16.6552 13.7781C16.7634 13.8197 16.8571 13.879 16.9327 13.9492Z" fill="black"/>
<path d="M20.401 5.08365C20.2782 5.02985 20.1426 5 20 5H14C13.9113 5 13.8253 5.01154 13.7435 5.03321C13.3155 5.14647 13 5.5364 13 6C13 6.55228 13.4477 7 14 7H20C20.3911 7 20.7298 6.77545 20.8941 6.44825C20.9619 6.31342 21 6.16117 21 6C21 5.59032 20.7536 5.23819 20.401 5.08365Z" fill="black"/>
</svg>
