<svg width="24" height="24" viewBox="0 0 24 24" fill="none" xmlns="http://www.w3.org/2000/svg">
<path fill-rule="evenodd" clip-rule="evenodd" d="M12 3C12.665 3 13.3999 3.01784 14.1546 3.04679C14.0543 3.34625 14 3.66678 14 4C13.1111 4 12.3126 4.38657 11.7632 5.00076C10.9019 5.0062 9.92006 5.04025 8.92626 5.08914C7.90847 5.13922 7.26979 5.17233 6.78054 5.23865C6.32678 5.30015 6.14364 5.37438 6.03125 5.43661C5.69345 5.62364 5.37499 5.95816 5.20479 6.30473C5.15242 6.41137 5.08469 6.60224 5.04438 7.08926C5.00159 7.60625 5 8.28125 5 9.34263V13.1396L7.55257 10.7693C7.81983 10.5212 8.13317 10.3279 8.47298 10.1972C8.81272 10.0665 9.17457 10 9.53847 10C9.90236 10 10.2642 10.0665 10.604 10.1972C10.9438 10.3279 11.2571 10.5211 11.5244 10.7693L13.8462 12.9253L14.3218 12.4836C14.4834 12.3335 14.6619 12.2035 14.8529 12.0953C15.3977 12.6534 16.1584 13 17 13C17.5254 13 18.0192 12.8649 18.4487 12.6277L19 13.1396V12.2361C19.6137 11.6868 20 10.8885 20 10C20.3506 10 20.6872 9.93985 21 9.82929V14.6574C21 14.9182 21 15.1624 20.9992 15.3918C21.0004 15.4221 21.0003 15.4523 20.9988 15.4826C20.9916 17.0058 20.9412 17.8626 20.5904 18.5769C20.24 19.2905 19.6331 19.928 18.9375 20.3131C18.1246 20.7632 17.1404 20.8116 15.172 20.9084C14.0695 20.9627 12.9616 21 12 21C11.0384 21 9.93045 20.9627 8.82798 20.9084C6.85959 20.8116 5.87538 20.7632 5.06249 20.3131C4.36694 19.928 3.76004 19.2905 3.40958 18.5769C3.05882 17.8626 3.00845 17.0057 3.00121 15.4824C2.99973 15.4523 2.99961 15.4221 3.00084 15.392C3 15.1625 3 14.9182 3 14.6574V9.34263C3 7.28565 3 6.25716 3.40958 5.42313C3.76004 4.7095 4.36694 4.07199 5.06249 3.68689C5.87539 3.23682 6.85958 3.1884 8.82798 3.09156C9.93045 3.03731 11.0384 3 12 3ZM16.9327 13.9492L18.9956 15.8647C18.9904 16.2881 18.9794 16.6238 18.9556 16.9107C18.9153 17.3978 18.8476 17.5886 18.7952 17.6953C18.625 18.0418 18.3065 18.3764 17.9688 18.5634C17.8564 18.6256 17.6732 18.6999 17.2195 18.7614C16.7302 18.8277 16.0915 18.8608 15.0737 18.9109C13.9876 18.9643 12.9158 19 12 19C11.0842 19 10.0124 18.9643 8.92626 18.9109C7.90847 18.8608 7.26979 18.8277 6.78054 18.7614C6.32678 18.6999 6.14364 18.6256 6.03125 18.5634C5.69345 18.3764 5.37499 18.0418 5.20479 17.6953C5.15242 17.5886 5.08469 17.3978 5.04438 16.9107C5.02063 16.6238 5.00957 16.2881 5.00443 15.8647L8.91349 12.2349C8.98909 12.1647 9.08279 12.1054 9.19096 12.0638C9.29919 12.0222 9.41748 12 9.53847 12C9.65945 12 9.77774 12.0222 9.88597 12.0638C9.99414 12.1054 10.0878 12.1647 10.1635 12.2349L14.3965 16.1656C14.8012 16.5414 15.4339 16.5179 15.8097 16.1132C16.1855 15.7085 16.1621 15.0758 15.7574 14.7L15.3158 14.2899L15.6827 13.9492C15.7583 13.879 15.852 13.8197 15.9602 13.7781C16.0684 13.7365 16.1867 13.7143 16.3077 13.7143C16.4287 13.7143 16.547 13.7365 16.6552 13.7781C16.7634 13.8197 16.8571 13.879 16.9327 13.9492Z" fill="black"/>
<path d="M20.9702 7.24332C20.8615 7.67801 20.4684 8 20 8H18V10C18 10.5523 17.5523 11 17 11C16.4477 11 16 10.5523 16 10V8H14C13.4477 8 13 7.55228 13 7C13 6.44772 13.4477 6 14 6H16V4C16 3.64834 16.1815 3.33908 16.456 3.1608C16.6125 3.05908 16.7994 3 17 3C17.2741 3 17.5225 3.11031 17.7031 3.28896C17.8864 3.47022 18 3.72185 18 4V6H20C20.4082 6 20.7593 6.24462 20.9147 6.59527C20.9695 6.719 21 6.85595 21 7C21 7.08392 20.9897 7.16543 20.9702 7.24332Z" fill="black"/>
</svg>
