<svg width="24" height="24" viewBox="0 0 24 24" fill="none" xmlns="http://www.w3.org/2000/svg">
<path fill-rule="evenodd" clip-rule="evenodd" d="M11.9666 5.9994L11.9614 5.99924L11.9388 5.99859C11.9183 5.99803 11.8875 5.99724 11.8476 5.99637C11.7675 5.99462 11.6509 5.99254 11.507 5.99131C11.2186 5.98884 10.8243 5.98979 10.3983 6.0033C9.97026 6.01688 9.52213 6.04277 9.12291 6.08833C8.70537 6.13598 8.4113 6.1979 8.25371 6.25735C8.06647 6.32799 7.88816 6.44618 7.73497 6.61029C7.58541 6.77051 7.46379 7.00648 7.04814 7.91571L7.0403 7.93247L5.56882 11H7.10559C8.08154 11 8.91734 11.6014 9.30949 12.4592C9.40763 12.6739 9.57407 12.75 9.69445 12.75H14.3056C14.426 12.75 14.5924 12.6739 14.6905 12.4592C15.0827 11.6014 15.9185 11 16.8944 11H18.4312L16.9597 7.93247L16.9519 7.91572C16.5362 7.00649 16.4146 6.77051 16.2651 6.61029C16.1119 6.44618 15.9336 6.32799 15.7463 6.25735C15.5887 6.1979 15.2947 6.13598 14.8771 6.08833C14.4779 6.04277 14.0298 6.01688 13.6017 6.0033C13.1757 5.98979 12.7814 5.98884 12.493 5.99131C12.3492 5.99254 12.2325 5.99462 12.1525 5.99637C12.1125 5.99724 12.0817 5.99803 12.0613 5.99859L12.0386 5.99924L12.0334 5.9994L12.0324 5.99943C12.0109 6.00013 11.9892 6.00013 11.9677 5.99943L11.9666 5.9994ZM20.9132 11.8053C20.9101 11.7896 20.9067 11.774 20.9029 11.7586C20.882 11.6677 20.8579 11.5776 20.8305 11.4885C20.7576 11.2516 20.6562 11.0298 20.5256 10.7445C20.5185 10.729 20.5114 10.7133 20.5041 10.6974L20.4962 10.6806L18.767 7.07579C18.7481 7.03447 18.7295 6.99364 18.7111 6.95329C18.3854 6.23928 18.1281 5.67512 17.7271 5.24553C17.372 4.86512 16.9377 4.5692 16.4523 4.38609C16.0549 4.23617 15.559 4.15317 15.1039 4.10123C14.6304 4.0472 14.1231 4.01883 13.6651 4.00431C13.205 3.98972 12.7827 3.98875 12.4759 3.99138C12.3221 3.9927 12.1966 3.99493 12.1088 3.99684C12.0649 3.9978 12.0304 3.99869 12.0064 3.99934L12 3.99953L11.9936 3.99934C11.9697 3.99869 11.9352 3.9978 11.8913 3.99684C11.8035 3.99493 11.6779 3.9927 11.5242 3.99138C11.2174 3.98875 10.795 3.98972 10.3349 4.00431C9.87691 4.01883 9.36959 4.0472 8.89614 4.10123C8.441 4.15317 7.94516 4.23617 7.54775 4.38609C7.06239 4.5692 6.62808 4.86512 6.27298 5.24553C5.87195 5.67512 5.61462 6.23929 5.28894 6.95331C5.27053 6.99366 5.25191 7.03449 5.23303 7.0758L3.50379 10.6806L3.49594 10.6974C3.48867 10.7133 3.48149 10.729 3.47439 10.7445C3.34387 11.0298 3.24241 11.2516 3.16951 11.4885C3.14212 11.5776 3.118 11.6677 3.0972 11.7585C3.09336 11.774 3.08989 11.7896 3.08678 11.8053C3.0637 11.9122 3.04519 12.0201 3.03129 12.1287C2.99985 12.3743 2.99992 12.6198 3.00001 12.9394C3.00001 12.9565 3.00002 12.9739 3.00002 12.9914L3.00002 14.8406C3.00001 15.5407 2.99999 16.1081 3.03572 16.5681C3.07343 17.0538 3.15482 17.4922 3.35514 17.9222C3.66903 18.596 4.17787 19.1607 4.82364 19.5206C5.04171 19.6422 5.30047 19.6927 5.44098 19.7183C5.62527 19.7519 5.84333 19.7797 6.07774 19.8034C6.5491 19.851 7.14745 19.8882 7.79956 19.9169C9.10713 19.9745 10.6819 20 12 20C13.3181 20 14.8929 19.9745 16.2005 19.9169C16.8526 19.8882 17.4509 19.851 17.9223 19.8034C18.1567 19.7797 18.3748 19.7519 18.5591 19.7183C18.6996 19.6927 18.9583 19.6422 19.1764 19.5206C19.8222 19.1607 20.331 18.596 20.6449 17.9222C20.8452 17.4922 20.9266 17.0538 20.9643 16.5681C21 16.1081 21 15.5407 21 14.8406V12.9914C21 12.9738 21 12.9565 21 12.9393C21.0001 12.6198 21.0002 12.3743 20.9687 12.1287C20.9548 12.0201 20.9363 11.9122 20.9132 11.8053ZM19 13V14.8C19 15.5512 18.9993 16.0401 18.9703 16.4133C18.9426 16.7697 18.8932 16.9462 18.832 17.0777C18.697 17.3673 18.4948 17.5927 18.2622 17.7385C18.2469 17.7418 18.2266 17.746 18.2005 17.7507C18.0901 17.7709 17.9307 17.7923 17.7211 17.8135C17.3046 17.8556 16.7493 17.8908 16.1125 17.9189C14.8422 17.9748 13.298 18 12 18C10.702 18 9.15784 17.9748 7.88753 17.9189C7.25071 17.8908 6.6954 17.8556 6.27889 17.8135C6.06937 17.7923 5.90993 17.7709 5.7995 17.7507C5.77344 17.746 5.75312 17.7418 5.73785 17.7385C5.50528 17.5927 5.303 17.3673 5.16807 17.0777C5.10681 16.9462 5.0574 16.7697 5.02971 16.4133C5.00073 16.0401 5.00002 15.5512 5.00002 14.8V13H7.10559C7.22597 13 7.39241 13.076 7.49054 13.2907C7.8827 14.1486 8.7185 14.75 9.69445 14.75H14.3056C15.2815 14.75 16.1173 14.1486 16.5095 13.2907C16.6076 13.076 16.7741 13 16.8944 13H19Z" fill="black"/>
</svg>
