<svg width="24" height="24" viewBox="0 0 24 24" fill="none" xmlns="http://www.w3.org/2000/svg">
<path fill-rule="evenodd" clip-rule="evenodd" d="M10.1577 8.44951C10.9045 8.06201 11.7545 7.91986 12.5867 8.04327C13.4357 8.16915 14.2216 8.56473 14.8284 9.17158C15.4353 9.77842 15.8308 10.5643 15.9567 11.4133C16.0801 12.2455 15.938 13.0955 15.5505 13.8423C15.163 14.5891 14.5499 15.1947 13.7984 15.5729C13.0468 15.9512 12.1952 16.0829 11.3645 15.9492C10.5339 15.8155 9.7665 15.4233 9.17158 14.8284C8.57666 14.2335 8.18447 13.4661 8.05081 12.6355C7.91714 11.8048 8.0488 10.9532 8.42706 10.2016C8.80533 9.45012 9.41092 8.83701 10.1577 8.44951ZM12.2934 10.0216C11.8772 9.95993 11.4523 10.031 11.0789 10.2248C10.7055 10.4185 10.4027 10.7251 10.2135 11.1008C10.0244 11.4766 9.95857 11.9024 10.0254 12.3177C10.0922 12.7331 10.2883 13.1168 10.5858 13.4142C10.8833 13.7117 11.2669 13.9078 11.6823 13.9746C12.0976 14.0414 12.5234 13.9756 12.8992 13.7865C13.2749 13.5973 13.5815 13.2945 13.7752 12.9211C13.969 12.5477 14.0401 12.1228 13.9784 11.7066C13.9154 11.2822 13.7176 10.8892 13.4142 10.5858C13.1108 10.2824 12.7178 10.0846 12.2934 10.0216Z" fill="black"/>
<path d="M16.5 6.5C15.9477 6.5 15.5 6.94772 15.5 7.5C15.5 8.05228 15.9477 8.5 16.5 8.5H16.51C17.0623 8.5 17.51 8.05228 17.51 7.5C17.51 6.94772 17.0623 6.5 16.51 6.5H16.5Z" fill="black"/>
<path fill-rule="evenodd" clip-rule="evenodd" d="M3 8C3 5.23858 5.23858 3 8 3H16C18.7614 3 21 5.23858 21 8V16C21 18.7614 18.7614 21 16 21H8C5.23858 21 3 18.7614 3 16V8ZM8 5C6.34315 5 5 6.34315 5 8V16C5 17.6569 6.34315 19 8 19H16C17.6569 19 19 17.6569 19 16V8C19 6.34315 17.6569 5 16 5H8Z" fill="black"/>
</svg>
