<svg width="24" height="24" viewBox="0 0 24 24" fill="none" xmlns="http://www.w3.org/2000/svg">
<path d="M8 13C7.44772 13 7 13.4477 7 14C7 14.5523 7.44772 15 8 15H15C15.5523 15 16 14.5523 16 14C16 13.4477 15.5523 13 15 13H8Z" fill="black"/>
<path d="M6 11C6 10.4477 6.44772 10 7 10C7.55228 10 8 10.4477 8 11C8 11.5523 7.55228 12 7 12C6.44772 12 6 11.5523 6 11Z" fill="black"/>
<path d="M10 10C9.44771 10 9 10.4477 9 11C9 11.5523 9.44771 12 10 12C10.5523 12 11 11.5523 11 11C11 10.4477 10.5523 10 10 10Z" fill="black"/>
<path d="M12 11C12 10.4477 12.4477 10 13 10C13.5523 10 14 10.4477 14 11C14 11.5523 13.5523 12 13 12C12.4477 12 12 11.5523 12 11Z" fill="black"/>
<path d="M16 10C15.4477 10 15 10.4477 15 11C15 11.5523 15.4477 12 16 12C16.5523 12 17 11.5523 17 11C17 10.4477 16.5523 10 16 10Z" fill="black"/>
<path fill-rule="evenodd" clip-rule="evenodd" d="M11.5 6C9.37801 6 6.21093 6.28389 5.70185 6.33071L5.67386 6.33325L5.67275 6.3333L5.64408 6.33334C5.20663 6.3334 4.81895 6.33386 4.4954 6.36157C4.16075 6.39023 3.8168 6.45282 3.48134 6.6204C2.97495 6.87335 2.55955 7.27889 2.29797 7.78219C2.11895 8.12665 2.05506 8.48094 2.02662 8.82229C1.99996 9.14217 1.99998 9.52789 2 9.96241V15.0376C1.99998 15.4721 1.99996 15.8578 2.02662 16.1777C2.05506 16.5191 2.11895 16.8733 2.29797 17.2178C2.55955 17.7211 2.97495 18.1266 3.48134 18.3796C3.8168 18.5472 4.16076 18.6098 4.4954 18.6384C4.81895 18.6661 5.20663 18.6666 5.64409 18.6667L5.67275 18.6667L5.67386 18.6667L5.70186 18.6693C6.21093 18.7161 9.37801 19 11.5 19C13.622 19 16.7891 18.7161 17.2981 18.6693L17.3261 18.6667L17.3273 18.6667L17.3559 18.6667C17.7934 18.6666 18.1811 18.6661 18.5046 18.6384C18.8392 18.6098 19.1832 18.5472 19.5187 18.3796C20.0251 18.1266 20.4405 17.7211 20.702 17.2178C20.8811 16.8733 20.9449 16.5191 20.9734 16.1777C21 15.8578 21 15.4721 21 15.0376V9.96242C21 9.52789 21 9.14217 20.9734 8.82229C20.9449 8.48094 20.8811 8.12666 20.702 7.78219C20.4405 7.27889 20.0251 6.87335 19.5187 6.6204C19.1832 6.45282 18.8392 6.39023 18.5046 6.36157C18.1811 6.33386 17.7934 6.3334 17.3559 6.33334L17.3273 6.3333L17.3261 6.33325L17.2981 6.33071C16.7891 6.28389 13.622 6 11.5 6ZM5.88503 8.32231C6.40817 8.27419 9.48467 8 11.5 8C13.5153 8 16.5918 8.27419 17.115 8.32231L17.1208 8.32285C17.1427 8.32486 17.1703 8.32741 17.1982 8.32921C17.223 8.3308 17.2466 8.33189 17.2714 8.33257C17.2995 8.33335 17.3273 8.33334 17.3496 8.33334L17.3556 8.33334C17.82 8.3334 18.1134 8.33538 18.3339 8.35427C18.5434 8.37221 18.6065 8.40038 18.6249 8.40958C18.7583 8.4762 18.863 8.5806 18.9274 8.7045C18.9337 8.71656 18.9624 8.77389 18.9803 8.98838C18.9992 9.21515 19 9.51646 19 10V15C19 15.4835 18.9992 15.7849 18.9803 16.0116C18.9624 16.2261 18.9337 16.2834 18.9274 16.2955C18.863 16.4194 18.7583 16.5238 18.6249 16.5904C18.6065 16.5996 18.5434 16.6278 18.3339 16.6457C18.1134 16.6646 17.82 16.6666 17.3556 16.6667H17.3496C17.3274 16.6667 17.2994 16.6667 17.2714 16.6674C17.2466 16.6681 17.223 16.6692 17.1982 16.6708C17.1703 16.6726 17.1429 16.6751 17.121 16.6771L17.115 16.6777C16.5918 16.7258 13.5153 17 11.5 17C9.48467 17 6.40818 16.7258 5.88504 16.6777L5.87922 16.6772C5.85734 16.6751 5.82972 16.6726 5.80176 16.6708C5.77701 16.6692 5.75337 16.6681 5.72858 16.6674C5.70064 16.6667 5.67293 16.6667 5.65072 16.6667H5.64437C5.17999 16.6666 4.88661 16.6646 4.66608 16.6457C4.45664 16.6278 4.39351 16.5996 4.3751 16.5904C4.24174 16.5238 4.137 16.4194 4.07261 16.2955C4.06634 16.2834 4.03758 16.2261 4.01971 16.0116C4.00081 15.7849 4 15.4835 4 15V10C4 9.51646 4.00081 9.21515 4.01971 8.98839C4.03758 8.77389 4.06634 8.71656 4.07261 8.7045C4.13701 8.5806 4.24174 8.4762 4.3751 8.40958C4.39351 8.40038 4.45664 8.37221 4.66608 8.35427C4.88661 8.33538 5.17999 8.3334 5.64437 8.33334L5.65039 8.33334C5.67266 8.33334 5.7005 8.33335 5.72858 8.33257C5.75337 8.33189 5.77701 8.3308 5.80176 8.32921C5.82978 8.3274 5.85725 8.32487 5.87916 8.32285L5.88503 8.32231Z" fill="black"/>
</svg>
