<svg width="24" height="24" viewBox="0 0 24 24" fill="none" xmlns="http://www.w3.org/2000/svg">
<path fill-rule="evenodd" clip-rule="evenodd" d="M8.62939 3.07848C9.66882 3.0395 10.9732 3 12 3C13.0268 3 14.3312 3.0395 15.3706 3.07848C15.8921 3.09803 16.3502 3.11758 16.678 3.13225C16.8419 3.13958 16.9733 3.1457 17.0639 3.14999L17.1806 3.15558C18.2525 3.15798 19.3035 3.3163 20.0478 4.03427C20.8064 4.76603 21 5.83701 21 7V13.6C21 14.763 20.8064 15.834 20.0478 16.5657C19.2977 17.2893 18.2361 17.4444 17.1556 17.4444H13V18.9563C13.5258 18.9115 14.0011 18.838 14.3883 18.7638C14.6974 18.7046 14.9464 18.6457 15.1155 18.6025C15.1999 18.5809 15.2642 18.5632 15.3056 18.5515C15.3264 18.5456 15.3414 18.5412 15.3504 18.5386L15.359 18.536C15.8868 18.374 16.4464 18.6702 16.6087 19.198C16.771 19.7259 16.4746 20.2854 15.9467 20.4477L15.9451 20.4482L15.943 20.4489L15.9368 20.4508L15.9172 20.4566C15.901 20.4614 15.8786 20.4679 15.8502 20.4759C15.7935 20.492 15.713 20.514 15.6112 20.5401C15.4079 20.5921 15.1187 20.6603 14.7646 20.7281C14.0593 20.8632 13.0807 21 12 21C10.9191 21 9.9768 20.8652 9.30389 20.7306C8.96644 20.6631 8.69399 20.5951 8.50251 20.5429C8.4067 20.5168 8.33093 20.4945 8.2772 20.4782C8.25033 20.47 8.22894 20.4633 8.2133 20.4583L8.19415 20.4521L8.18786 20.4501L8.18459 20.449C7.66064 20.2743 7.37667 19.7077 7.55132 19.1838C7.72577 18.6605 8.29098 18.3773 8.81441 18.5507L8.82138 18.553C8.82868 18.5553 8.84148 18.5593 8.85952 18.5648C8.89564 18.5758 8.95269 18.5926 9.02875 18.6134C9.18102 18.6549 9.40857 18.7119 9.69612 18.7694C10.0523 18.8407 10.4962 18.9118 11 18.9558V17.4444H6.84444C5.76388 17.4444 4.70229 17.2893 3.9522 16.5657C3.1936 15.834 3 14.763 3 13.6V7C3 5.83701 3.19361 4.76603 3.95221 4.03427C4.69651 3.31631 5.74753 3.15798 6.81944 3.15558L6.93606 3.14999C7.02667 3.1457 7.15811 3.13958 7.32205 3.13225C7.64984 3.11758 8.10792 3.09803 8.62939 3.07848ZM6.89391 5.15433C6.87743 5.15515 6.86094 5.15556 6.84444 5.15556C5.85633 5.15556 5.4957 5.32423 5.34073 5.47372C5.19428 5.61499 5 5.96624 5 7V13.6C5 14.6338 5.19428 14.985 5.34072 15.1263C5.49569 15.2758 5.85632 15.4444 6.84444 15.4444H17.1556C18.1437 15.4444 18.5043 15.2758 18.6593 15.1263C18.8057 14.985 19 14.6338 19 13.6V7C19 5.96623 18.8057 5.61499 18.6593 5.47372C18.5043 5.32423 18.1437 5.15556 17.1556 5.15556C17.1391 5.15556 17.1226 5.15515 17.1061 5.15433L16.9693 5.14775C16.8803 5.14354 16.7506 5.1375 16.5886 5.13025C16.2644 5.11575 15.8113 5.09641 15.2957 5.07708C14.2609 5.03827 12.9875 5 12 5C11.0125 5 9.73911 5.03827 8.70434 5.07708C8.18871 5.09641 7.73558 5.11575 7.41144 5.13025C7.2494 5.1375 7.1197 5.14354 7.03065 5.14775L6.89391 5.15433Z" fill="black"/>
</svg>
