<svg width="24" height="24" viewBox="0 0 24 24" fill="none" xmlns="http://www.w3.org/2000/svg">
<path d="M12.9475 7.12305C12.9475 6.57076 12.4998 6.12305 11.9475 6.12305C11.3952 6.12305 10.9475 6.57076 10.9475 7.12305V9.12305C10.9475 9.67533 11.3952 10.123 11.9475 10.123C12.4998 10.123 12.9475 9.67533 12.9475 9.12305V7.12305Z" fill="black"/>
<path fill-rule="evenodd" clip-rule="evenodd" d="M11.9475 2.12305C8.29494 2.12305 4.87479 5.07634 5.13669 9.00359L5.61669 16.2006C5.67043 17.0066 5.88644 17.8059 6.22779 18.5262C8.98161 24.338 17.8556 22.5261 18.2773 16.2006L18.7573 9.00359C19.0191 5.07655 15.6002 2.12305 11.9475 2.12305ZM7.61226 16.0675L7.13226 8.87051C6.96016 6.28976 9.25001 4.12305 11.9475 4.12305C14.6447 4.12305 16.9338 6.28954 16.7617 8.87051L16.2817 16.0675C15.9933 20.394 9.88132 21.5661 8.03515 17.6698C7.7965 17.1662 7.64852 16.6115 7.61226 16.0675Z" fill="black"/>
</svg>
