<svg width="24" height="24" viewBox="0 0 24 24" fill="none" xmlns="http://www.w3.org/2000/svg">
<path fill-rule="evenodd" clip-rule="evenodd" d="M19 20C18.4477 20 18 19.5523 18 19L18 5C18 4.44771 18.4477 4 19 4C19.5523 4 20 4.44771 20 5V19C20 19.5523 19.5523 20 19 20ZM6.00216 19.9194C5.39308 19.92 4.8169 19.6431 4.43692 19.1671C4.13465 18.7884 4.06214 18.3329 4.03141 17.9946C3.99995 17.6482 3.99997 17.2102 4 16.7155L4 7.28453C3.99997 6.78985 3.99995 6.35179 4.03141 6.00542C4.06214 5.66715 4.13465 5.2116 4.43692 4.83292C4.81689 4.3569 5.39308 4.07997 6.00216 4.08063C6.48669 4.08115 6.88771 4.30911 7.17105 4.49643C7.46117 4.68824 7.80322 4.96191 8.18948 5.27096L14.0914 9.99251C14.3337 10.1863 14.5638 10.3703 14.7416 10.5402C14.9323 10.7223 15.1469 10.9642 15.2721 11.2984C15.4416 11.7508 15.4416 12.2492 15.2721 12.7016C15.1469 13.0358 14.9323 13.2777 14.7416 13.4598C14.5638 13.6297 14.3338 13.8137 14.0915 14.0075C14.082 14.015 14.0725 14.0226 14.063 14.0303L8.18948 18.729C7.80322 19.0381 7.46117 19.3118 7.17105 19.5036C6.88771 19.6909 6.48669 19.9189 6.00216 19.9194ZM6.06805 17.8352C6.2729 17.6998 6.54316 17.4848 6.97482 17.1395L12.8136 12.4685C13.0947 12.2436 13.2539 12.1151 13.3602 12.0136C13.3652 12.0088 13.3699 12.0043 13.3742 12C13.3699 11.9957 13.3652 11.9912 13.3602 11.9864C13.2539 11.8849 13.0947 11.7564 12.8136 11.5315L6.97482 6.86048C6.54316 6.51515 6.2729 6.30021 6.06805 6.16479C6.05371 6.1553 6.04037 6.14669 6.02801 6.13889C6.02638 6.15342 6.02477 6.16921 6.02321 6.18634C6.001 6.4309 6 6.77621 6 7.329L6 16.671C6 17.2238 6.001 17.5691 6.02321 17.8137C6.02477 17.8308 6.02638 17.8466 6.02801 17.8611C6.04037 17.8533 6.05371 17.8447 6.06805 17.8352Z" fill="black"/>
</svg>
