<svg width="24" height="24" viewBox="0 0 24 24" fill="none" xmlns="http://www.w3.org/2000/svg">
<path fill-rule="evenodd" clip-rule="evenodd" d="M7.45247 4C7.46457 4 7.47671 4 7.48889 4H7.95556C7.96774 4 7.97988 4 7.99198 4C8.39636 3.99998 8.75811 3.99996 9.05868 4.02452C9.37991 4.05076 9.71825 4.10997 10.0491 4.27854C10.5299 4.52355 10.9209 4.9145 11.1659 5.39536C11.3345 5.7262 11.3937 6.06454 11.4199 6.38577C11.4445 6.68634 11.4445 7.04809 11.4444 7.45247V16.5475C11.4445 16.9519 11.4445 17.3137 11.4199 17.6142C11.3937 17.9355 11.3345 18.2738 11.1659 18.6046C10.9209 19.0855 10.5299 19.4765 10.0491 19.7215C9.71825 19.89 9.37991 19.9492 9.05868 19.9755C8.75812 20 8.39637 20 7.992 20H7.45245C7.04808 20 6.68633 20 6.38577 19.9755C6.06454 19.9492 5.7262 19.89 5.39536 19.7215C4.9145 19.4765 4.52355 19.0855 4.27854 18.6046C4.10997 18.2738 4.05076 17.9355 4.02452 17.6142C3.99996 17.3137 3.99998 16.9519 4 16.5475L4 7.48889C4 7.47671 4 7.46457 4 7.45247C3.99998 7.04809 3.99996 6.68634 4.02452 6.38577C4.05076 6.06454 4.10997 5.7262 4.27854 5.39536C4.52355 4.9145 4.9145 4.52355 5.39536 4.27854C5.7262 4.10997 6.06454 4.05076 6.38577 4.02452C6.68634 3.99996 7.04809 3.99998 7.45247 4ZM6.30334 6.06055C6.19881 6.11382 6.11382 6.19881 6.06055 6.30334C6.05877 6.30675 6.03373 6.35453 6.01787 6.54864C6.00078 6.75786 6 7.03679 6 7.48889V16.5111C6 16.9632 6.00078 17.2421 6.01787 17.4514C6.03373 17.6455 6.05869 17.6931 6.06048 17.6965C6.11374 17.8011 6.19881 17.8862 6.30334 17.9395C6.30676 17.9412 6.35454 17.9663 6.54864 17.9821C6.75786 17.9992 7.03679 18 7.48889 18H7.95556C8.40766 18 8.68659 17.9992 8.89581 17.9821C9.08991 17.9663 9.13755 17.9413 9.14097 17.9395C9.2455 17.8863 9.33063 17.8012 9.38389 17.6967C9.38568 17.6933 9.41071 17.6455 9.42657 17.4514C9.44367 17.2421 9.44445 16.9632 9.44445 16.5111V7.48889C9.44445 7.03679 9.44367 6.75786 9.42657 6.54864C9.41072 6.35453 9.38576 6.30689 9.38397 6.30348C9.33071 6.19895 9.24564 6.11382 9.14111 6.06055C9.1377 6.05877 9.08992 6.03373 8.89581 6.01787C8.68659 6.00078 8.40766 6 7.95556 6H7.48889C7.03679 6 6.75786 6.00078 6.54864 6.01787C6.35453 6.03373 6.30675 6.05877 6.30334 6.06055ZM16.008 4H16.5475C16.9519 3.99998 17.3137 3.99996 17.6142 4.02452C17.9355 4.05076 18.2738 4.10997 18.6046 4.27854C19.0855 4.52355 19.4765 4.9145 19.7215 5.39536C19.89 5.7262 19.9492 6.06454 19.9755 6.38577C20 6.68633 20 7.04808 20 7.45245V16.5476C20 16.9519 20 17.3137 19.9755 17.6142C19.9492 17.9355 19.89 18.2738 19.7215 18.6046C19.4765 19.0855 19.0855 19.4765 18.6046 19.7215C18.2738 19.89 17.9355 19.9492 17.6142 19.9755C17.3137 20 16.9519 20 16.5476 20H16.008C15.6036 20 15.2419 20 14.9413 19.9755C14.6201 19.9492 14.2818 19.89 13.9509 19.7215C13.4701 19.4765 13.0791 19.0855 12.8341 18.6046C12.6655 18.2738 12.6063 17.9355 12.5801 17.6142C12.5555 17.3137 12.5555 16.9519 12.5556 16.5475V7.45247C12.5555 7.04809 12.5555 6.68634 12.5801 6.38577C12.6063 6.06454 12.6655 5.7262 12.8341 5.39536C13.0791 4.9145 13.4701 4.52355 13.9509 4.27854C14.2818 4.10997 14.6201 4.05076 14.9413 4.02452C15.2419 3.99996 15.6036 3.99998 16.008 4ZM14.8589 6.06055C14.7544 6.11382 14.6694 6.19881 14.6161 6.30334C14.6143 6.30675 14.5893 6.35452 14.5734 6.54864C14.5563 6.75786 14.5556 7.03679 14.5556 7.48889V16.5111C14.5556 16.9632 14.5563 17.2421 14.5734 17.4514C14.5893 17.6455 14.6142 17.6931 14.616 17.6965C14.6693 17.8011 14.7544 17.8862 14.8589 17.9395C14.8623 17.9412 14.9101 17.9663 15.1042 17.9821C15.3134 17.9992 15.5924 18 16.0444 18H16.5111C16.9632 18 17.2421 17.9992 17.4514 17.9821C17.6455 17.9663 17.6931 17.9413 17.6965 17.9395C17.8011 17.8863 17.8862 17.8012 17.9395 17.6967C17.9404 17.6948 17.966 17.6489 17.9821 17.4514C17.9992 17.2421 18 16.9632 18 16.5111V7.48889C18 7.03679 17.9992 6.75786 17.9821 6.54864C17.9663 6.35454 17.9413 6.3069 17.9395 6.30348C17.8863 6.19895 17.8012 6.11382 17.6967 6.06055C17.6933 6.05877 17.6455 6.03373 17.4514 6.01787C17.2421 6.00078 16.9632 6 16.5111 6H16.0444C15.5924 6 15.3134 6.00078 15.1042 6.01787C14.9101 6.03373 14.8623 6.05877 14.8589 6.06055Z" fill="black"/>
</svg>
