<svg width="24" height="24" viewBox="0 0 24 24" fill="none" xmlns="http://www.w3.org/2000/svg">
<path fill-rule="evenodd" clip-rule="evenodd" d="M6 7C6 4.79086 7.79086 3 10 3C12.2091 3 14 4.79086 14 7C14 9.20914 12.2091 11 10 11C7.79086 11 6 9.20914 6 7ZM10 5C8.89543 5 8 5.89543 8 7C8 8.10457 8.89543 9 10 9C11.1046 9 12 8.10457 12 7C12 5.89543 11.1046 5 10 5Z" fill="black"/>
<path fill-rule="evenodd" clip-rule="evenodd" d="M8.09013 13H11.9099C12.4035 13 12.8277 13 13.1801 13.0263C13.5531 13.0541 13.9163 13.1149 14.2745 13.273C15.6274 13.8699 16.5187 15.3056 16.8497 16.8928C17.2895 19.0014 15.478 20.5964 13.7041 20.7732C12.5434 20.8889 11.1386 21 9.99999 21C8.86136 21 7.45652 20.8889 6.29585 20.7732C4.52195 20.5964 2.71048 19.0014 3.15023 16.8928C3.48124 15.3056 4.37254 13.8699 5.72545 13.273C6.08368 13.1149 6.44685 13.0541 6.81987 13.0263C7.17228 13 7.59652 13 8.09013 13ZM6.96863 15.0207C6.71185 15.0399 6.60044 15.073 6.53282 15.1028C5.96812 15.352 5.3588 16.099 5.10811 17.3011C4.98362 17.898 5.51801 18.6858 6.49424 18.7831C7.63967 18.8973 8.96414 19 9.99999 19C11.0358 19 12.3603 18.8973 13.5057 18.7831C14.482 18.6858 15.0164 17.898 14.8919 17.3011C14.6412 16.099 14.0319 15.352 13.4672 15.1028C13.3995 15.073 13.2881 15.0399 13.0313 15.0207C12.7622 15.0006 12.4131 15 11.875 15H8.12499C7.58684 15 7.23776 15.0006 6.96863 15.0207Z" fill="black"/>
<path d="M14.5 11C14.0687 11 13.6555 10.922 13.2739 10.7792C13.8338 10.2938 14.2847 9.6861 14.585 8.99763C15.3739 8.95357 16 8.2999 16 7.5C16 6.81417 15.5398 6.23584 14.9113 6.05707C14.7686 5.30971 14.4596 4.62137 14.0243 4.03206C14.1799 4.01092 14.3387 4 14.5 4C16.433 4 18 5.567 18 7.5C18 9.433 16.433 11 14.5 11Z" fill="black"/>
<path d="M17.5748 20H17.0949C17.5142 19.4247 17.8123 18.7317 17.8945 17.9649C18.1809 17.9022 18.4445 17.7596 18.6355 17.5708C18.8856 17.3237 18.9688 17.0504 18.9135 16.7849C18.7112 15.8153 18.227 15.2501 17.8221 15.0715C17.7899 15.0573 17.7181 15.032 17.5138 15.0168C17.4396 15.0113 17.3576 15.0076 17.2638 15.0051C16.8955 14.2358 16.3843 13.5348 15.7249 13H16.5961C17.0035 13 17.3626 13 17.6625 13.0223C17.9831 13.0463 18.3067 13.0993 18.6294 13.2417C19.8225 13.7681 20.5888 15.0219 20.8713 16.3766C21.0894 17.4223 20.6835 18.3587 20.0413 18.9934C19.4096 19.6177 18.5099 20 17.5748 20Z" fill="black"/>
</svg>
