<svg width="24" height="24" viewBox="0 0 24 24" fill="none" xmlns="http://www.w3.org/2000/svg">
<path d="M12 3C9.25831 3 7.0625 5.25348 7.0625 8C7.0625 10.7465 9.25831 13 12 13C14.0332 13 15.7662 11.7607 16.5261 10H14.1897C13.6494 10.6156 12.8649 11 12 11C10.3925 11 9.0625 9.67176 9.0625 8C9.0625 6.4141 10.2593 5.13734 11.7546 5.01038C12.3042 4.39061 13.1065 4 14 4H14.9636C14.14 3.37282 13.1152 3 12 3Z" fill="black"/>
<path d="M14 8C13.4477 8 13 7.55228 13 7C13 6.44772 13.4477 6 14 6H20C20.5523 6 21 6.44772 21 7C21 7.55228 20.5523 8 20 8H14Z" fill="black"/>
<path fill-rule="evenodd" clip-rule="evenodd" d="M12 14C10.6671 14 9.00518 14.1037 7.63753 14.211C5.55541 14.3743 4 16.1248 4 18.1818C4 19.4653 4.96881 20.5554 6.26549 20.6729C7.74733 20.8072 10.1842 21 12 21C13.8158 21 16.2527 20.8072 17.7345 20.6729C19.0312 20.5554 20 19.4653 20 18.1818C20 16.1247 18.4446 14.3743 16.3625 14.211C14.9948 14.1037 13.3329 14 12 14ZM7.79392 16.2048C9.15006 16.0985 10.7483 16 12 16C13.2517 16 14.8499 16.0985 16.2061 16.2048C17.2163 16.2841 18 17.1371 18 18.1818C18 18.4492 17.8019 18.6586 17.554 18.6811C16.0734 18.8153 13.7165 19 12 19C10.2835 19 7.92658 18.8153 6.44601 18.6811C6.19812 18.6586 6 18.4492 6 18.1818C6 17.1371 6.78373 16.2841 7.79392 16.2048Z" fill="black"/>
</svg>
