<svg width="24" height="24" viewBox="0 0 24 24" fill="none" xmlns="http://www.w3.org/2000/svg">
<path fill-rule="evenodd" clip-rule="evenodd" d="M12 3C9.25831 3 7.0625 5.25348 7.0625 8C7.0625 10.7465 9.25831 13 12 13C14.7417 13 16.9375 10.7465 16.9375 8C16.9375 5.25348 14.7417 3 12 3ZM9.0625 8C9.0625 6.32824 10.3925 5 12 5C13.6075 5 14.9375 6.32824 14.9375 8C14.9375 9.67176 13.6075 11 12 11C10.3925 11 9.0625 9.67176 9.0625 8Z" fill="black"/>
<path fill-rule="evenodd" clip-rule="evenodd" d="M12 14C10.6671 14 9.00518 14.1037 7.63753 14.211C5.55541 14.3743 4 16.1248 4 18.1818C4 19.4653 4.96881 20.5554 6.26549 20.6729C7.74733 20.8072 10.1842 21 12 21C13.8158 21 16.2527 20.8072 17.7345 20.6729C19.0312 20.5554 20 19.4653 20 18.1818C20 16.1247 18.4446 14.3743 16.3625 14.211C14.9948 14.1037 13.3329 14 12 14ZM7.79392 16.2048C9.15006 16.0985 10.7483 16 12 16C13.2517 16 14.8499 16.0985 16.2061 16.2048C17.2163 16.2841 18 17.1371 18 18.1818C18 18.4492 17.8019 18.6586 17.554 18.6811C16.0734 18.8153 13.7165 19 12 19C10.2835 19 7.92658 18.8153 6.44601 18.6811C6.19812 18.6586 6 18.4492 6 18.1818C6 17.1371 6.78373 16.2841 7.79392 16.2048Z" fill="black"/>
</svg>
