<svg width="24" height="24" viewBox="0 0 24 24" fill="none" xmlns="http://www.w3.org/2000/svg">
<path d="M12 3C12.733 3 13.427 3.16107 14.0504 3.44957C14.0173 3.628 14 3.81198 14 4C13.1065 4 12.3042 4.39061 11.7546 5.01038C10.2593 5.13734 9.0625 6.4141 9.0625 8C9.0625 9.67176 10.3925 11 12 11C12.7713 11 13.4787 10.6942 14.006 10.1914C14.0523 10.9267 14.3635 11.5901 14.8452 12.0874C14.0428 12.6616 13.0624 13 12 13C9.25831 13 7.0625 10.7465 7.0625 8C7.0625 5.25348 9.25831 3 12 3Z" fill="black"/>
<path d="M16 4C16 3.44772 16.4477 3 17 3C17.5523 3 18 3.44772 18 4V6H20C20.5523 6 21 6.44772 21 7C21 7.55228 20.5523 8 20 8H18V10C18 10.5523 17.5523 11 17 11C16.6787 11 16.3928 10.8485 16.2099 10.613C16.0783 10.4437 16 10.231 16 10V8H14C13.4477 8 13 7.55228 13 7C13 6.44772 13.4477 6 14 6H16V4Z" fill="black"/>
<path fill-rule="evenodd" clip-rule="evenodd" d="M12 14C10.6671 14 9.00518 14.1037 7.63753 14.211C5.55541 14.3743 4 16.1248 4 18.1818C4 19.4653 4.96881 20.5554 6.26549 20.6729C7.74733 20.8072 10.1842 21 12 21C13.8158 21 16.2527 20.8072 17.7345 20.6729C19.0312 20.5554 20 19.4653 20 18.1818C20 16.1247 18.4446 14.3743 16.3625 14.211C14.9948 14.1037 13.3329 14 12 14ZM7.79392 16.2048C9.15006 16.0985 10.7483 16 12 16C13.2517 16 14.8499 16.0985 16.2061 16.2048C17.2163 16.2841 18 17.1371 18 18.1818C18 18.4492 17.8019 18.6586 17.554 18.6811C16.0734 18.8153 13.7165 19 12 19C10.2835 19 7.92658 18.8153 6.44601 18.6811C6.19812 18.6586 6 18.4492 6 18.1818C6 17.1371 6.78373 16.2841 7.79392 16.2048Z" fill="black"/>
</svg>
