<svg width="24" height="24" viewBox="0 0 24 24" fill="none" xmlns="http://www.w3.org/2000/svg">
<path fill-rule="evenodd" clip-rule="evenodd" d="M13.1081 2.06092C11.8934 1.92686 11 2.92879 11 4.00014V11.0001C11 12.1047 11.8954 13.0001 13 13.0001H20C21.0713 13.0001 22.0733 12.1068 21.9392 10.892C21.4273 6.2537 17.7464 2.57283 13.1081 2.06092ZM13 11.0001V4.06193C16.618 4.51257 19.4876 7.38216 19.9382 11.0001H13Z" fill="black"/>
<path d="M8.33201 4.88841C8.82262 4.63479 9.01474 4.03148 8.76112 3.54087C8.5075 3.05026 7.90419 2.85814 7.41358 3.11176C4.20013 4.77294 2 8.12874 2 12.0001C2 17.5229 6.47715 22.0001 12 22.0001C15.9278 22.0001 19.3249 19.7354 20.96 16.4451C21.2058 15.9505 21.0041 15.3504 20.5095 15.1046C20.0149 14.8588 19.4148 15.0605 19.169 15.5551C17.8587 18.1916 15.1396 20.0001 12 20.0001C7.58172 20.0001 4 16.4184 4 12.0001C4 8.90557 5.75676 6.21968 8.33201 4.88841Z" fill="black"/>
</svg>
