<svg width="24" height="24" viewBox="0 0 24 24" fill="none" xmlns="http://www.w3.org/2000/svg">
<path fill-rule="evenodd" clip-rule="evenodd" d="M9.22564 7.63387L10.0477 6.81182L10.4962 5.45515C10.5141 5.40096 10.5344 5.34756 10.5568 5.2951L10.5772 5.24762C10.6773 5.01362 10.7991 4.7292 10.927 4.49237C11.0664 4.23446 11.3374 3.7867 11.8469 3.45252C12.4556 3.05329 13.1973 2.91045 13.9107 3.05508C14.4475 3.16389 14.8345 3.4277 15.065 3.60925C15.2758 3.77527 15.4788 3.97418 15.6364 4.13072C16.0382 4.38977 17.2516 5.18899 18.0313 5.96871C18.811 6.74844 19.6102 7.96185 19.8693 8.36362C20.0258 8.5212 20.2248 8.72421 20.3908 8.935C20.5723 9.1655 20.8361 9.55255 20.9449 10.0893C21.0896 10.8028 20.9467 11.5444 20.5475 12.1531C20.2133 12.6626 19.7656 12.9336 19.5077 13.073C19.2708 13.201 18.9864 13.3227 18.7524 13.4228L18.7049 13.4432C18.6525 13.4657 18.5991 13.4859 18.5449 13.5038L17.1882 13.9523L16.3662 14.7744L16.2907 16.5126L16.2903 16.5217C16.2889 16.5556 16.286 16.6253 16.2794 16.6978C16.2739 16.7594 16.2664 16.821 16.2571 16.8821C16.2461 16.9541 16.2323 17.0221 16.2256 17.0552L16.223 17.0681C16.1639 17.3628 16.093 17.716 15.9983 18.0185C15.9067 18.3114 15.7074 18.8585 15.2055 19.3039C14.6014 19.8399 13.7929 20.0847 12.9928 19.9738C12.3314 19.8821 11.864 19.5405 11.6248 19.3479C11.3862 19.1556 11.1408 18.9123 10.9339 18.7058L8.46342 16.9508L4.70749 20.7067C4.31697 21.0972 3.68341 21.0976 3.29289 20.7071C2.90237 20.3166 2.90237 19.6834 3.2929 19.2929L7.0492 15.5366L5.29424 13.0662C5.08775 12.8592 4.84441 12.6138 4.65216 12.3752C4.45952 12.1361 4.11788 11.6686 4.02619 11.0072C3.91527 10.2072 4.16007 9.39866 4.69613 8.79452C5.14149 8.2926 5.68859 8.09336 5.98151 8.00171C6.284 7.90706 6.63721 7.83615 6.93192 7.77699L6.94482 7.77439C6.97791 7.7677 7.04592 7.75395 7.11787 7.74295C7.17897 7.73361 7.24063 7.72613 7.30219 7.72059C7.37471 7.71406 7.44437 7.71113 7.47828 7.7097L9.22564 7.63387ZM16.294 12.1415L17.9171 11.6049C18.4718 11.3672 18.7491 11.2483 18.8751 11.0562C18.9853 10.8882 19.0247 10.6836 18.9848 10.4867C18.9441 10.2859 18.7699 10.0944 18.4299 9.75254C18.3795 9.70182 18.3543 9.67647 18.3334 9.65266C18.3132 9.62956 18.2988 9.61164 18.2806 9.58692C18.2618 9.56144 18.2413 9.5296 18.2003 9.46592C17.9446 9.06843 17.2372 8.00307 16.6171 7.38293C15.997 6.76279 14.9316 6.05544 14.5341 5.79969C14.4704 5.75872 14.4386 5.73823 14.4131 5.71946C14.3884 5.70124 14.3705 5.68684 14.3474 5.6666C14.3236 5.64576 14.2982 5.62049 14.2475 5.57009C13.9056 5.23008 13.7141 5.05592 13.5133 5.01521C13.3165 4.9753 13.1118 5.01471 12.9438 5.12489C12.7517 5.25087 12.6329 5.52823 12.3951 6.08293L11.8585 7.70606C11.824 7.78671 11.8067 7.82704 11.7851 7.86486C11.7659 7.89845 11.7441 7.93054 11.7201 7.96084C11.693 7.99494 11.662 8.02597 11.5999 8.08802L10.4101 9.27786C10.313 9.37491 10.2645 9.42344 10.2092 9.46199C10.1601 9.49622 10.1072 9.52455 10.0515 9.5464C10.0111 9.56225 9.96877 9.57348 9.90783 9.58665C9.87141 9.59452 9.8532 9.59846 9.82811 9.60256C9.80784 9.60588 9.78132 9.60929 9.76087 9.61122C9.73556 9.61362 9.71151 9.61466 9.66352 9.61674L7.57414 9.70743C7.52782 9.70944 7.50467 9.71045 7.48154 9.71253C7.46109 9.71437 7.44041 9.71688 7.42011 9.71998C7.39716 9.72349 7.37464 9.72801 7.3296 9.73705C6.68393 9.86667 6.3522 9.94152 6.19212 10.1219C6.04419 10.2886 5.97663 10.5118 6.00724 10.7325C6.04018 10.9701 6.2723 11.215 6.73251 11.676C6.76847 11.7121 6.78646 11.7301 6.80323 11.7487C6.81822 11.7653 6.83243 11.7821 6.84628 11.7997C6.86178 11.8193 6.87608 11.8394 6.90466 11.8797L9.07092 14.9291L12.1203 17.0954C12.1606 17.1239 12.1807 17.1382 12.2004 17.1537C12.2179 17.1676 12.2348 17.1818 12.2514 17.1968C12.2699 17.2135 12.288 17.2315 12.3239 17.2675C12.7849 17.7277 13.0299 17.9598 13.2675 17.9928C13.4883 18.0234 13.7114 17.9558 13.8781 17.8079C14.0585 17.6478 14.1333 17.3161 14.263 16.6704C14.272 16.6254 14.2765 16.6029 14.28 16.5799C14.2831 16.5596 14.2856 16.5389 14.2875 16.5185C14.2896 16.4954 14.2906 16.4722 14.2926 16.4259L14.3833 14.3365C14.3854 14.2885 14.3864 14.2645 14.3888 14.2391C14.3907 14.2187 14.3941 14.1922 14.3975 14.1719C14.4016 14.1468 14.4055 14.1286 14.4134 14.0922C14.4265 14.0312 14.4378 13.9889 14.4536 13.9485C14.4755 13.8928 14.5038 13.8399 14.538 13.7908C14.5766 13.7355 14.6251 13.687 14.7222 13.5899L15.912 12.4001C15.974 12.3381 16.0051 12.307 16.0392 12.2799C16.0695 12.2559 16.1016 12.2341 16.1352 12.215C16.173 12.1934 16.2133 12.1761 16.294 12.1415Z" fill="black"/>
</svg>
