<svg width="24" height="24" viewBox="0 0 24 24" fill="none" xmlns="http://www.w3.org/2000/svg">
<path fill-rule="evenodd" clip-rule="evenodd" d="M12 7C10.3431 7 9 8.34315 9 10C9 11.6569 10.3431 13 12 13C13.6569 13 15 11.6569 15 10C15 8.34315 13.6569 7 12 7ZM11 10C11 9.44772 11.4477 9 12 9C12.5523 9 13 9.44772 13 10C13 10.5523 12.5523 11 12 11C11.4477 11 11 10.5523 11 10Z" fill="black"/>
<path fill-rule="evenodd" clip-rule="evenodd" d="M12 2C7.63292 2 4 5.36825 4 9.63453C4 12.4361 5.28721 15.0673 6.71144 17.1373C8.14651 19.223 9.79781 20.8499 10.69 21.6644C11.4426 22.3513 12.5835 22.3303 13.3119 21.6231C14.1905 20.7702 15.8391 19.0615 17.2748 16.9541C18.6927 14.8728 20 12.2633 20 9.63453C20 5.36825 16.3671 2 12 2ZM6 9.63453C6 6.57251 8.63509 4 12 4C15.3649 4 18 6.57251 18 9.63453C18 11.6537 16.9691 13.8505 15.6219 15.8281C14.3229 17.7347 12.8196 19.3085 11.9773 20.1312C11.1324 19.3544 9.64333 17.8701 8.35911 16.0036C7.03245 14.0755 6 11.8484 6 9.63453Z" fill="black"/>
</svg>
