<svg width="24" height="24" viewBox="0 0 24 24" fill="none" xmlns="http://www.w3.org/2000/svg">
<path fill-rule="evenodd" clip-rule="evenodd" d="M9.30662 4.77177C9.31753 4.77969 9.32847 4.78762 9.33941 4.79557L16.7462 10.17C16.7559 10.177 16.7655 10.1841 16.7752 10.1911C16.985 10.3433 17.1945 10.4952 17.3579 10.6386C17.5343 10.7934 17.7547 11.0195 17.8807 11.3503C18.0398 11.7676 18.0398 12.2324 17.8807 12.6497C17.7547 12.9805 17.5343 13.2065 17.3579 13.3614C17.1945 13.5048 16.9851 13.6567 16.7752 13.8089C16.7656 13.8159 16.7559 13.823 16.7462 13.83L9.30663 19.2282C9.0506 19.414 8.80381 19.5932 8.59037 19.7191C8.38089 19.8426 8.02979 20.0252 7.59754 19.9971C7.06857 19.9627 6.60822 19.6797 6.32149 19.2672C6.09341 18.939 6.04241 18.5717 6.02136 18.3216C5.99995 18.0672 5.99997 17.7518 6 17.4122L6 6.62556C6 6.61293 6 6.60034 6 6.58778C5.99997 6.24815 5.99995 5.93277 6.02136 5.67842C6.04241 5.42831 6.09341 5.06098 6.32149 4.73283C6.60822 4.32029 7.06857 4.03727 7.59754 4.0029C8.02979 3.9748 8.3809 4.15736 8.59037 4.28092C8.8038 4.40681 9.05059 4.58594 9.30662 4.77177ZM8.00066 6.29546C8.00009 6.3908 8 6.49981 8 6.62556V17.3744C8 17.5002 8.00009 17.6092 8.00066 17.7045C8.05059 17.6685 8.10509 17.629 8.16483 17.5857L15.5716 12.2112C15.6876 12.1271 15.7805 12.0596 15.8599 12C15.7805 11.9404 15.6876 11.8729 15.5716 11.7888L8.16483 6.41432C8.10509 6.37097 8.05059 6.33148 8.00066 6.29546Z" fill="black"/>
</svg>
