<svg width="24" height="24" viewBox="0 0 24 24" fill="none" xmlns="http://www.w3.org/2000/svg">
<path fill-rule="evenodd" clip-rule="evenodd" d="M10.7622 5.017C10.7177 5.00631 10.6588 4.99988 10.215 4.99988L6.59144 4.99988C6.1214 4.99988 5.82901 5.00066 5.60909 5.01863C5.40086 5.03564 5.3471 5.06296 5.33834 5.06742C5.22175 5.12683 5.12695 5.22162 5.06754 5.33822C5.06308 5.34698 5.03576 5.40073 5.01875 5.60897C5.00078 5.82888 5 6.12128 5 6.59132L5 10.2149C5 10.6586 5.00643 10.7175 5.01713 10.7621C5.0323 10.8253 5.05734 10.8857 5.09132 10.9412C5.11525 10.9803 5.15235 11.0264 5.46613 11.3402L11.6764 17.5505C12.1691 18.0432 12.4967 18.3697 12.7682 18.6001C13.0307 18.823 13.1744 18.8968 13.2762 18.9299C13.5633 19.0232 13.8725 19.0232 14.1596 18.9299C14.2614 18.8968 14.4051 18.823 14.6676 18.6001C14.9391 18.3697 15.2667 18.0432 15.7594 17.5505L17.5506 15.7593C18.0433 15.2666 18.3698 14.939 18.6003 14.6675C18.8232 14.405 18.897 14.2613 18.93 14.1595C19.0233 13.8724 19.0233 13.5632 18.93 13.276C18.897 13.1742 18.8232 13.0306 18.6003 12.768C18.3698 12.4965 18.0433 12.169 17.5506 11.6763L11.3403 5.466C11.0266 5.15223 10.9804 5.11513 10.9413 5.09119C10.8859 5.05722 10.8254 5.03218 10.7622 5.017ZM10.2883 2.99982C10.6109 2.9994 10.9239 2.99899 11.2291 3.07226C11.4964 3.13644 11.7519 3.24228 11.9863 3.38591C12.2539 3.54991 12.4749 3.7715 12.7028 3.9999C12.72 4.01717 12.7372 4.03447 12.7545 4.05179L18.993 10.2903C19.4501 10.7473 19.8353 11.1325 20.1249 11.4737C20.4281 11.8309 20.685 12.2051 20.8322 12.658C21.056 13.3468 21.056 14.0888 20.8322 14.7775C20.685 15.2305 20.4282 15.6047 20.1249 15.9619C19.8353 16.3031 19.4501 16.6883 18.9931 17.1453L17.1454 18.9929C16.6884 19.4499 16.3032 19.8351 15.962 20.1248C15.6048 20.428 15.2306 20.6849 14.7777 20.832C14.0889 21.0558 13.3469 21.0558 12.6581 20.832C12.2052 20.6849 11.831 20.428 11.4738 20.1248C11.1326 19.8351 10.7474 19.4499 10.2904 18.9929L4.05191 12.7544C4.03459 12.7371 4.01729 12.7199 4.00003 12.7026C3.77162 12.4748 3.55003 12.2538 3.38604 11.9862C3.2424 11.7518 3.13656 11.4963 3.07239 11.229C2.99912 10.9238 2.99952 10.6108 2.99994 10.2882C2.99997 10.2638 3 10.2394 3 10.2149L3 6.59132C3 6.57902 3 6.56676 3 6.55454C2.99998 6.1325 2.99996 5.75734 3.02539 5.44611C3.05251 5.11419 3.11346 4.76794 3.28553 4.43024C3.53668 3.93732 3.93744 3.53656 4.43036 3.28541C4.76806 3.11334 5.11431 3.05239 5.44623 3.02527C5.75746 2.99984 6.13262 2.99986 6.55466 2.99988C6.56688 2.99988 6.57914 2.99988 6.59144 2.99988L10.215 2.99988C10.2395 2.99988 10.2639 2.99985 10.2883 2.99982ZM7.45404 8.85883C7.45404 8.08292 8.08304 7.45392 8.85896 7.45392C9.63487 7.45392 10.2639 8.08292 10.2639 8.85883C10.2639 9.63474 9.63487 10.2637 8.85896 10.2637C8.08304 10.2637 7.45404 9.63474 7.45404 8.85883Z" fill="black"/>
</svg>
