<svg width="24" height="24" viewBox="0 0 24 24" fill="none" xmlns="http://www.w3.org/2000/svg">
<path fill-rule="evenodd" clip-rule="evenodd" d="M11.3139 4.493C11.588 4.15278 12.0057 3.95667 12.4466 3.96773C12.8408 3.97762 13.1322 4.17691 13.2635 4.27141C13.4059 4.37389 13.5659 4.51269 13.7165 4.64327C13.7249 4.65055 13.7332 4.6578 13.7415 4.66502C13.75 4.67232 13.7583 4.67975 13.7664 4.68733L20.3053 10.7498C20.3069 10.7512 20.3085 10.7526 20.3102 10.754C20.3946 10.8272 20.5 10.9184 20.5859 11.0069C20.6847 11.1088 20.8305 11.2781 20.9181 11.5246C21.0273 11.832 21.0273 12.1679 20.9181 12.4753C20.8305 12.7218 20.6847 12.8911 20.5859 12.993C20.5 13.0815 20.3947 13.1727 20.3102 13.2458C20.3078 13.2479 20.3053 13.25 20.3029 13.2521L13.7619 19.2428C13.7552 19.2489 13.7484 19.255 13.7415 19.2609C13.7332 19.2682 13.7248 19.2754 13.7164 19.2827C13.5659 19.4133 13.4059 19.5521 13.2635 19.6545C13.1322 19.749 12.8408 19.9483 12.4466 19.9582C12.0057 19.9693 11.588 19.7732 11.3139 19.433C11.0695 19.1297 11.03 18.783 11.0155 18.6213C10.9999 18.4463 10.9999 18.2339 11 18.033C11 18.0219 11 18.0109 11 17.9999V15.6457C10.1446 15.7965 9.24531 16.0511 8.59645 16.3659C7.50838 16.8938 6.54506 17.6537 5.77296 18.5944C5.50497 18.9209 5.06076 19.0438 4.66307 18.9015C4.26538 18.7591 4 18.3823 4 17.9599V17.4507C4.00114 15.2321 4.80981 13.0893 6.27446 11.4324C7.46265 10.0882 9.29427 9.15044 11 8.69822V5.92604C11 5.91506 11 5.90404 11 5.89299C10.9999 5.69202 10.9999 5.47968 11.0155 5.30466C11.03 5.14294 11.0695 4.79622 11.3139 4.493ZM13 6.70408L18.7105 11.9985L13 17.2285V14.5135C13 14.2364 12.885 13.9717 12.6825 13.7826C12.4799 13.5935 12.208 13.4969 11.9316 13.5159C10.6525 13.6036 8.9409 13.9759 7.72346 14.5665C7.22702 14.8074 6.7518 15.087 6.30185 15.4023C6.59433 14.43 7.0934 13.5257 7.77295 12.757C8.77893 11.6189 10.575 10.7676 12.1742 10.4846C12.6519 10.4001 13 9.98501 13 9.49993V6.70408Z" fill="black"/>
</svg>
