<svg width="24" height="24" viewBox="0 0 24 24" fill="none" xmlns="http://www.w3.org/2000/svg">
<path d="M3.69007 11.1517C3.15825 11.0028 2.84785 10.451 2.99678 9.91913C3.37851 8.556 4.12745 7.3182 5.16293 6.32796C6.1981 5.338 7.48339 4.62985 8.8877 4.26997C10.2919 3.91011 11.7697 3.91001 13.1739 4.26966C14.5783 4.62934 15.8637 5.33731 16.899 6.32712L17.9751 7.35682C17.9229 7.08277 17.8504 6.78039 17.7771 6.50287C17.7236 6.3003 17.6729 6.12253 17.6356 5.9957C17.617 5.93243 17.6018 5.8822 17.5915 5.84832L17.5798 5.81029L17.577 5.8013L17.5764 5.79934C17.4111 5.27244 17.7042 4.71124 18.2311 4.54584C18.758 4.38043 19.3195 4.67418 19.4849 5.20111C19.6503 5.72805 19.4864 5.20598 19.4864 5.20598L19.4904 5.21881L19.5046 5.2651C19.5167 5.3047 19.5337 5.36133 19.5544 5.4316C19.5956 5.57186 19.6516 5.76792 19.7108 5.99229C19.8258 6.42772 19.9665 7.01914 20.0233 7.51992C20.0783 8.00401 20.0762 8.59167 20.0643 9.02683C20.0582 9.25106 20.049 9.4479 20.0413 9.58898C20.0375 9.65966 20.034 9.71672 20.0315 9.75664L20.0284 9.80334L20.0283 9.80529L20.0271 9.82345C20.0116 10.0363 19.9282 10.2455 19.7761 10.4158C19.7683 10.4245 19.7604 10.4331 19.7523 10.4416C19.5686 10.6336 19.3267 10.7364 19.0807 10.7489L19.0676 10.7495L19.0511 10.75L19.0467 10.7501L19.0004 10.7516C18.9604 10.7528 18.9027 10.7545 18.8309 10.7563C18.6875 10.76 18.4872 10.7644 18.2592 10.7674C17.8093 10.7732 17.228 10.7737 16.7613 10.7487C16.2771 10.7228 15.6777 10.6566 15.2144 10.5995C14.9795 10.5706 14.7735 10.5432 14.626 10.5231C14.5522 10.513 14.4929 10.5047 14.4518 10.4988L14.4041 10.492L14.3864 10.4895C13.8399 10.4099 13.4614 9.90233 13.541 9.35581C13.6206 8.80931 14.1287 8.43088 14.6752 8.51045L14.6886 8.51238L14.7321 8.51859C14.7704 8.52401 14.8266 8.53187 14.8969 8.54149C15.0377 8.56074 15.2347 8.58691 15.4589 8.61453C15.792 8.65556 16.1723 8.69816 16.5138 8.72669L15.5169 7.77275C14.7347 7.02494 13.7562 6.48334 12.6777 6.20712C11.5991 5.93088 10.4627 5.93096 9.3842 6.20736C8.30578 6.48372 7.3273 7.02547 6.54522 7.77338C5.76345 8.52101 5.20571 9.44784 4.92269 10.4585C4.77376 10.9903 4.2219 11.3007 3.69007 11.1517Z" fill="black"/>
<path d="M19.3406 12.8482C19.8724 12.9971 20.1828 13.549 20.0339 14.0808C19.6521 15.4439 18.9032 16.6817 17.8677 17.672C16.8325 18.6619 15.5472 19.3701 14.1429 19.73C12.7388 20.0898 11.261 20.0899 9.85671 19.7303C8.45235 19.3706 7.16695 18.6626 6.13162 17.6728L5.05557 16.6431C5.1077 16.9171 5.18026 17.2195 5.25354 17.4971C5.30703 17.6996 5.35777 17.8774 5.39505 18.0042C5.41365 18.0675 5.4288 18.1177 5.43913 18.1516L5.4508 18.1896L5.45359 18.1986L5.4542 18.2006C5.61955 18.7275 5.32649 19.2887 4.79959 19.4541C4.27265 19.6195 3.71118 19.3257 3.54577 18.7988C3.38036 18.2719 3.54425 18.7939 3.54425 18.7939L3.54026 18.7811L3.52605 18.7348C3.51398 18.6952 3.49691 18.6386 3.47625 18.5683C3.43502 18.4281 3.37906 18.232 3.31981 18.0076C3.20484 17.5722 3.06414 16.9808 3.00731 16.48C2.95238 15.9959 2.95445 15.4083 2.96634 14.9731C2.97247 14.7489 2.98164 14.552 2.98929 14.4109C2.99312 14.3403 2.99659 14.2832 2.99915 14.2433L3.00222 14.1966L3.00236 14.1946L3.00351 14.1765C3.01903 13.9636 3.10245 13.7544 3.25454 13.5841C3.2623 13.5754 3.27024 13.5668 3.27836 13.5583C3.46209 13.3664 3.70396 13.2635 3.94994 13.251L3.96306 13.2504L3.97957 13.2499L3.98391 13.2498L4.03027 13.2484C4.07029 13.2471 4.12798 13.2455 4.19975 13.2436C4.34316 13.2399 4.54342 13.2355 4.77149 13.2325C5.22135 13.2267 5.8026 13.2262 6.2693 13.2512C6.75352 13.2772 7.35294 13.3433 7.81624 13.4004C8.05111 13.4293 8.25714 13.4567 8.40462 13.4769C8.47842 13.487 8.53774 13.4953 8.57887 13.5011L8.62651 13.5079L8.6442 13.5104C9.19072 13.59 9.56924 14.0976 9.48964 14.6441C9.41005 15.1906 8.90191 15.569 8.3554 15.4895L8.34203 15.4875L8.2985 15.4813C8.26021 15.4759 8.20407 15.468 8.13374 15.4584C7.99292 15.4392 7.7959 15.413 7.57172 15.3854C7.2386 15.3444 6.85832 15.3018 6.51683 15.2732L7.5137 16.2272C8.2959 16.975 9.27447 17.5166 10.3529 17.7928C11.4315 18.069 12.5679 18.069 13.6464 17.7926C14.7249 17.5162 15.7033 16.9745 16.4854 16.2265C17.2672 15.4789 17.8249 14.5521 18.1079 13.5415C18.2569 13.0096 18.8087 12.6992 19.3406 12.8482Z" fill="black"/>
</svg>
