<svg width="24" height="24" viewBox="0 0 24 24" fill="none" xmlns="http://www.w3.org/2000/svg">
<path fill-rule="evenodd" clip-rule="evenodd" d="M13.6861 4.493C13.412 4.15278 12.9943 3.95667 12.5534 3.96773C12.1592 3.97762 11.8678 4.17691 11.7365 4.27141C11.5941 4.37389 11.4341 4.51269 11.2835 4.64327C11.2751 4.65055 11.2668 4.6578 11.2585 4.66502C11.25 4.67232 11.2417 4.67975 11.2336 4.68733L4.69475 10.7498C4.69311 10.7512 4.69147 10.7526 4.68982 10.754C4.60535 10.8272 4.50001 10.9184 4.41414 11.0069C4.31526 11.1088 4.16946 11.2781 4.0819 11.5246C3.9727 11.832 3.9727 12.1679 4.0819 12.4753C4.16946 12.7218 4.31526 12.8911 4.41414 12.993C4.50001 13.0815 4.60535 13.1727 4.68982 13.2458C4.69225 13.2479 4.69466 13.25 4.69706 13.2521L11.2381 19.2428C11.2448 19.2489 11.2516 19.255 11.2585 19.2609C11.2668 19.2682 11.2752 19.2754 11.2836 19.2827C11.4341 19.4133 11.5941 19.5521 11.7365 19.6545C11.8678 19.749 12.1592 19.9483 12.5534 19.9582C12.9943 19.9693 13.412 19.7732 13.6861 19.433C13.9305 19.1297 13.97 18.783 13.9845 18.6213C14.0001 18.4463 14.0001 18.2339 14 18.033C14 18.0219 14 18.0109 14 17.9999V15.6457C14.8554 15.7965 15.7547 16.0511 16.4035 16.3659C17.4916 16.8938 18.4549 17.6537 19.227 18.5944C19.495 18.9209 19.9392 19.0438 20.3369 18.9015C20.7346 18.7591 21 18.3823 21 17.9599V17.4507C20.9989 15.2321 20.1902 13.0893 18.7255 11.4324C17.5373 10.0882 15.7057 9.15044 14 8.69822V5.92604C14 5.91506 14 5.90404 14 5.89299C14.0001 5.69202 14.0001 5.47968 13.9845 5.30466C13.97 5.14294 13.9305 4.79622 13.6861 4.493ZM12 6.70408L6.28953 11.9985L12 17.2285V14.5135C12 14.2364 12.115 13.9717 12.3175 13.7826C12.5201 13.5935 12.792 13.4969 13.0684 13.5159C14.3475 13.6036 16.0591 13.9759 17.2765 14.5665C17.773 14.8074 18.2482 15.087 18.6982 15.4023C18.4057 14.43 17.9066 13.5257 17.227 12.757C16.2211 11.6189 14.425 10.7676 12.8258 10.4846C12.3481 10.4001 12 9.98501 12 9.49993V6.70408Z" fill="black"/>
</svg>
