<svg width="24" height="24" viewBox="0 0 24 24" fill="none" xmlns="http://www.w3.org/2000/svg">
<path d="M9.30004 7.84998C8.49922 7.84998 7.85004 8.49916 7.85004 9.29997C7.85004 10.1008 8.49922 10.75 9.30004 10.75C10.1008 10.75 10.75 10.1008 10.75 9.29997C10.75 8.49916 10.1008 7.84998 9.30004 7.84998Z" fill="black"/>
<path d="M14.7 7.84998C13.8992 7.84998 13.25 8.49916 13.25 9.29997C13.25 10.1008 13.8992 10.75 14.7 10.75C15.5008 10.75 16.15 10.1008 16.15 9.29997C16.15 8.49916 15.5008 7.84998 14.7 7.84998Z" fill="black"/>
<path d="M16.2 16.3999C15.7597 16.7302 15.1356 16.6423 14.8034 16.2044L14.8003 16.2004C14.7955 16.1944 14.7859 16.1824 14.7717 16.1654C14.7431 16.1314 14.6962 16.0776 14.632 16.0106C14.5026 15.8756 14.3078 15.6921 14.0556 15.5087C13.5473 15.139 12.8495 14.7999 12 14.7999C11.1506 14.7999 10.4528 15.139 9.94446 15.5087C9.69223 15.6921 9.49745 15.8756 9.36812 16.0106C9.30387 16.0776 9.25698 16.1314 9.22842 16.1654C9.21417 16.1824 9.20459 16.1944 9.1998 16.2004L9.19669 16.2044C8.86446 16.6423 8.24038 16.7302 7.80004 16.3999C7.35821 16.0685 7.26867 15.4417 7.60004 14.9999C7.61171 14.9846 7.60104 14.9986 7.60104 14.9986L7.60218 14.9971L7.60483 14.9936L7.61171 14.9846L7.6317 14.959C7.64779 14.9387 7.66941 14.9119 7.69647 14.8797C7.75052 14.8153 7.82668 14.7285 7.92414 14.6268C8.11825 14.4242 8.4016 14.1577 8.76812 13.8912C9.49731 13.3609 10.5995 12.7999 12 12.7999C13.4006 12.7999 14.5028 13.3609 15.232 13.8912C15.5985 14.1577 15.8818 14.4242 16.0759 14.6268C16.1734 14.7285 16.2496 14.8153 16.3036 14.8797C16.3307 14.9119 16.3523 14.9387 16.3684 14.959L16.3884 14.9846L16.3952 14.9936L16.3979 14.9971L16.399 14.9986L16.4 14.9999C16.7314 15.4417 16.6419 16.0685 16.2 16.3999Z" fill="black"/>
<path fill-rule="evenodd" clip-rule="evenodd" d="M2 12C2 6.47715 6.47715 2 12 2C17.5228 2 22 6.47715 22 12C22 17.5228 17.5228 22 12 22C6.47715 22 2 17.5228 2 12ZM12 4C7.58172 4 4 7.58172 4 12C4 16.4183 7.58172 20 12 20C16.4183 20 20 16.4183 20 12C20 7.58172 16.4183 4 12 4Z" fill="black"/>
</svg>
