<svg width="24" height="24" viewBox="0 0 24 24" fill="none" xmlns="http://www.w3.org/2000/svg">
<path d="M12.9686 11.7502C13.5837 11.4091 14 10.7532 14 9.99997C14 8.8954 13.1046 7.99997 12 7.99997C10.8954 7.99997 10 8.8954 10 9.99997C10 10.7532 10.4163 11.4091 11.0314 11.7502C11.0109 11.8301 11 11.9137 11 12V15C11 15.5523 11.4477 16 12 16C12.5523 16 13 15.5523 13 15V12C13 11.9137 12.9891 11.8301 12.9686 11.7502Z" fill="black"/>
<path fill-rule="evenodd" clip-rule="evenodd" d="M11.775 3.02565C11.8489 3.00857 11.9244 3.00002 11.9998 3C12.0752 3.00002 12.1511 3.00857 12.225 3.02565L12.2326 3.0274L12.2524 3.03201L12.3264 3.04945C12.3903 3.0646 12.4825 3.08666 12.597 3.11464C12.8259 3.17055 13.145 3.25035 13.5068 3.34615C14.2214 3.53533 15.1365 3.7957 15.8511 4.06366C16.6122 4.34904 17.5265 4.78575 18.2301 5.1389C18.5865 5.31774 18.8973 5.47947 19.1192 5.5966C19.2303 5.65522 19.3193 5.7028 19.381 5.73592L19.4523 5.77437L19.4713 5.78468L19.4779 5.78826C19.7993 5.96346 20 6.30062 20 6.66667V12C20 15.5508 17.982 17.8196 16.0726 19.1532C15.1191 19.8191 14.1722 20.2692 13.4668 20.5528C13.1127 20.6952 12.8155 20.7973 12.6034 20.8646C12.4972 20.8983 12.4121 20.9234 12.3515 20.9406C12.3211 20.9492 12.2969 20.9558 12.2792 20.9606L12.2576 20.9663L12.2506 20.9681L12.247 20.969C12.1663 20.9895 12.0831 20.9998 12 20.9998C11.9169 20.9998 11.8337 20.9895 11.753 20.969L11.7494 20.9681L11.7424 20.9663L11.7208 20.9606C11.7031 20.9558 11.6789 20.9492 11.6485 20.9406C11.5879 20.9234 11.5028 20.8983 11.3966 20.8646C11.1845 20.7973 10.8873 20.6952 10.5332 20.5528C9.82782 20.2692 8.88095 19.8191 7.92741 19.1532C6.01795 17.8196 4 15.5508 4 12V6.66667C4 6.30062 4.2 5.96383 4.52139 5.78864L4.52866 5.78468L4.54769 5.77437L4.61901 5.73592C4.68066 5.7028 4.76972 5.65522 4.88079 5.5966C5.10274 5.47947 5.41355 5.31774 5.76986 5.1389C6.47351 4.78575 7.38783 4.34904 8.1489 4.06366C8.86354 3.7957 9.77864 3.53533 10.4932 3.34615C10.855 3.25035 11.1741 3.17055 11.403 3.11464C11.5175 3.08666 11.6097 3.0646 11.6736 3.04945L11.7476 3.03201L11.7674 3.0274L11.775 3.02565ZM18 7.26792C17.8123 7.16994 17.5843 7.05254 17.333 6.9264C16.641 6.5791 15.8053 6.18248 15.1489 5.93634C14.5325 5.70521 13.6976 5.46558 12.9949 5.27953C12.6481 5.18772 12.3418 5.1111 12.1224 5.0575L12 5.02779L11.8776 5.0575C11.6582 5.1111 11.3519 5.18772 11.0051 5.27953C10.3024 5.46558 9.4675 5.70521 8.8511 5.93634C8.19465 6.18248 7.35897 6.5791 6.667 6.9264C6.41568 7.05254 6.1877 7.16994 6 7.26792V12C6 14.6714 7.48205 16.4026 9.07259 17.5135C9.86905 18.0697 10.6722 18.4531 11.2793 18.6972C11.5804 18.8183 11.8293 18.9035 12 18.9578C12.1707 18.9035 12.4196 18.8183 12.7207 18.6972C13.3278 18.4531 14.1309 18.0697 14.9274 17.5135C16.518 16.4026 18 14.6714 18 12V7.26792Z" fill="black"/>
</svg>
