<svg width="24" height="24" viewBox="0 0 24 24" fill="none" xmlns="http://www.w3.org/2000/svg">
<path fill-rule="evenodd" clip-rule="evenodd" d="M3.0001 9.98598C3.00519 9.62368 3.20585 9.29248 3.52463 9.12024C8.84453 6.24574 13.8849 4.089 20.007 3.1674C20.3209 3.12016 20.6385 3.2247 20.863 3.44912C21.0874 3.67353 21.192 3.99116 21.1448 4.30501C20.2248 10.421 18.2582 15.1467 15.3798 20.4753C15.2113 20.7873 14.8901 20.9867 14.5357 20.9994C14.1813 21.012 13.8467 20.836 13.6563 20.5368L9.82623 14.5174L3.50012 10.8661C3.1863 10.685 2.99501 10.3483 3.0001 9.98598ZM11.8127 13.9137L14.42 18.0115C16.579 13.8279 18.0911 9.98986 18.9388 5.37544C14.3135 6.24008 10.2785 7.86608 6.06712 10.0385L10.3738 12.5242L14.4894 8.40853C14.8799 8.018 15.5131 8.018 15.9036 8.40853C16.2941 8.79905 16.2941 9.43222 15.9036 9.82274L11.8127 13.9137Z" fill="black"/>
</svg>
