<svg width="24" height="24" viewBox="0 0 24 24" fill="none" xmlns="http://www.w3.org/2000/svg">
<path fill-rule="evenodd" clip-rule="evenodd" d="M12 9C11.2044 9 10.4413 9.31607 9.87868 9.87868C9.31607 10.4413 9 11.2044 9 12C9 12.7956 9.31607 13.5587 9.87868 14.1213C10.4413 14.6839 11.2044 15 12 15C12.7956 15 13.5587 14.6839 14.1213 14.1213C14.6839 13.5587 15 12.7956 15 12C15 11.2044 14.6839 10.4413 14.1213 9.87868C13.5587 9.31607 12.7956 9 12 9ZM11.2929 11.2929C11.4804 11.1054 11.7348 11 12 11C12.2652 11 12.5196 11.1054 12.7071 11.2929C12.8946 11.4804 13 11.7348 13 12C13 12.2652 12.8946 12.5196 12.7071 12.7071C12.5196 12.8946 12.2652 13 12 13C11.7348 13 11.4804 12.8946 11.2929 12.7071C11.1054 12.5196 11 12.2652 11 12C11 11.7348 11.1054 11.4804 11.2929 11.2929Z" fill="black"/>
<path fill-rule="evenodd" clip-rule="evenodd" d="M3 11.5746C3 10.4319 3.67234 9.42342 4.67072 8.96317C4.52693 8.57281 4.46848 8.15294 4.50329 7.73226C4.55943 7.0539 4.85494 6.41698 5.33629 5.93573L5.93701 5.33501C6.41825 4.85366 7.05468 4.55866 7.73304 4.50252C8.15382 4.46769 8.5738 4.52618 8.96426 4.67005C9.42465 3.67204 10.4329 3 11.5753 3H12.4254C13.5679 3 14.5761 3.67204 15.0365 4.67006C15.427 4.52618 15.847 4.46769 16.2677 4.50252C16.9463 4.55868 17.5834 4.85428 18.0647 5.33592L18.6632 5.93519L18.6649 5.93691C19.4759 6.74715 19.7098 7.93499 19.3303 8.96427C20.3288 9.42478 21 10.4333 21 11.5746V12.4254C21 13.5666 20.3295 14.5757 19.3305 15.0364C19.711 16.0681 19.4718 17.2548 18.6668 18.062L18.6641 18.0647L18.0621 18.6659C17.581 19.1465 16.9451 19.441 16.2674 19.4971C15.8468 19.532 15.4269 19.4736 15.0366 19.3298C14.5762 20.3279 13.5679 21 12.4254 21H11.5746C10.4295 21 9.42398 20.3262 8.96404 19.3303C7.93229 19.711 6.74528 19.472 5.93805 18.6668L5.93531 18.6641L5.33551 18.0635C4.85433 17.5827 4.55862 16.9449 4.50252 16.267C4.46769 15.8462 4.52618 15.4262 4.67006 15.0357C3.67257 14.5756 3 13.568 3 12.4254V11.5746ZM7.14978 9.98867C7.02144 10.2974 6.75622 10.5409 6.42644 10.5953L5.73111 10.7112C5.30956 10.7812 5 11.1468 5 11.5746V12.4254C5 12.8524 5.30956 13.218 5.73111 13.288L6.42644 13.4047C6.757 13.4591 7.02144 13.7026 7.14978 14.0113C7.27811 14.3209 7.26022 14.6756 7.06578 14.9478L6.65589 15.521C6.53538 15.6896 6.47861 15.8955 6.4957 16.102C6.51279 16.3085 6.60263 16.5023 6.74922 16.6488L7.35044 17.2508C7.65378 17.5533 8.13056 17.593 8.47822 17.3441L9.05222 16.9342C9.32444 16.7398 9.67911 16.7227 9.98867 16.8502C10.2974 16.9793 10.5409 17.2438 10.5961 17.5736L10.7112 18.2689C10.782 18.6904 11.1468 19 11.5746 19H12.4254C12.8532 19 13.2188 18.6904 13.2888 18.2689L13.4047 17.5736C13.4599 17.2438 13.7033 16.9793 14.0121 16.851C14.3209 16.7227 14.6756 16.7398 14.9478 16.9342L15.5218 17.3441C15.6903 17.4644 15.896 17.5211 16.1024 17.504C16.3087 17.4869 16.5023 17.3972 16.6488 17.2508L17.2508 16.6496C17.5533 16.3462 17.593 15.8694 17.3441 15.5218L16.9342 14.9478C16.7398 14.6756 16.7227 14.3209 16.851 14.0113C16.9793 13.7026 17.2438 13.4591 17.5743 13.4047L18.2689 13.2888C18.6912 13.2188 19 12.8532 19 12.4254V11.5746C19 11.1476 18.6912 10.782 18.2689 10.712L17.5743 10.5953C17.2438 10.5409 16.9793 10.2974 16.851 9.98867C16.7227 9.67911 16.7398 9.32444 16.9342 9.05222L17.3441 8.479C17.593 8.13056 17.5541 7.65378 17.2508 7.35122L16.6496 6.74922C16.5031 6.60263 16.3093 6.51279 16.1028 6.4957C15.8963 6.47861 15.6904 6.53538 15.5218 6.65589L14.9486 7.06578C14.6763 7.26022 14.3209 7.27733 14.0113 7.14978C13.7033 7.02067 13.4591 6.75622 13.4047 6.42644L13.2888 5.73111C13.2188 5.30956 12.8532 5 12.4254 5H11.5753C11.1476 5 10.782 5.30956 10.712 5.73111L10.5953 6.42644C10.5409 6.75622 10.2974 7.02067 9.98867 7.149C9.67989 7.27733 9.32444 7.26022 9.05222 7.06578L8.479 6.65589C8.31041 6.53538 8.10452 6.47861 7.89799 6.4957C7.69146 6.51279 7.49771 6.60263 7.35122 6.74922L6.75 7.35044C6.60341 7.49693 6.51357 7.69069 6.49648 7.89721C6.47939 8.10374 6.53615 8.30963 6.65667 8.47822L7.06656 9.05222C7.261 9.32444 7.27811 9.67911 7.14978 9.98867Z" fill="black"/>
</svg>
