<svg width="24" height="24" viewBox="0 0 24 24" fill="none" xmlns="http://www.w3.org/2000/svg">
<path d="M8.12403 12.9923C8.67205 12.9238 9.06078 12.424 8.99228 11.876C8.92377 11.3279 8.42398 10.9392 7.87596 11.0077L5.6279 11.2887C4.12661 11.4764 3 12.7526 3 14.2656L3 17.6948C3 19.2299 4.16204 20.53 5.71085 20.6623C7.41601 20.808 10.0313 21 12 21C13.9687 21 16.584 20.808 18.2891 20.6623C19.838 20.53 21 19.2299 21 17.6948L21 14.2656C21 12.7526 19.8734 11.4764 18.3721 11.2887L16.124 11.0077C15.576 10.9392 15.0762 11.3279 15.0077 11.876C14.9392 12.424 15.3279 12.9238 15.876 12.9923L18.124 13.2733C18.6245 13.3358 19 13.7612 19 14.2656L19 17.6948C19 18.2108 18.6136 18.6273 18.1189 18.6696C16.4168 18.815 13.8758 19 12 19C10.1242 19 7.58322 18.815 5.88108 18.6696C5.38639 18.6273 5 18.2108 5 17.6948L5 14.2656C5 13.7612 5.37554 13.3358 5.87597 13.2733L8.12403 12.9923Z" fill="black"/>
<path d="M7.29289 7.29291C6.90237 7.68343 6.90237 8.3166 7.29289 8.70712C7.68342 9.09765 8.31658 9.09765 8.70711 8.70712L11 6.41423L11 16C11 16.5523 11.4477 17 12 17C12.5523 17 13 16.5523 13 16L13 6.41423L15.2929 8.70712C15.6834 9.09765 16.3166 9.09765 16.7071 8.70712C17.0976 8.3166 17.0976 7.68343 16.7071 7.29291L12.7077 3.2935C12.6589 3.24468 12.6057 3.20138 12.5502 3.16477C12.1621 2.90849 11.6346 2.9512 11.2929 3.29291L7.29289 7.29291Z" fill="black"/>
</svg>
