<svg width="24" height="24" viewBox="0 0 24 24" fill="none" xmlns="http://www.w3.org/2000/svg">
<path fill-rule="evenodd" clip-rule="evenodd" d="M7.25045 7.25636C7.36794 6.69983 7.53747 6.14796 7.77987 5.63515C8.11771 4.92044 8.61206 4.2491 9.33181 3.75924C10.0578 3.26512 10.9484 3 12 3C13.2554 3 14.2481 3.44126 14.9937 4.13512C15.7168 4.80791 16.1631 5.67498 16.4445 6.48398C16.5335 6.73967 16.6081 6.99631 16.6709 7.2482C17.3483 7.31643 17.9168 7.42284 18.4394 7.69164C19.0617 8.0117 19.621 8.52417 19.9941 9.11621C20.4287 9.80603 20.5643 10.6387 20.7436 11.7401L21.1616 14.2954C21.2996 15.1382 21.4135 15.8346 21.4566 16.4094C21.5014 17.0077 21.4786 17.5663 21.2839 18.1148C20.9866 18.9522 20.3878 19.6977 19.6342 20.1686C19.1439 20.475 18.6129 20.6183 18.0286 20.7036C17.4704 20.7851 16.7849 20.8229 15.9594 20.8685L15.9146 20.871C14.5854 20.9444 13.1889 21 12 21C10.8112 21 9.41461 20.9444 8.08539 20.871L8.04068 20.8685C7.21514 20.8229 6.52968 20.7851 5.97139 20.7036C5.38716 20.6183 4.85612 20.475 4.36583 20.1686C3.61226 19.6977 3.01339 18.9522 2.71609 18.1148C2.52139 17.5663 2.49866 17.0077 2.54345 16.4094C2.58649 15.8346 2.70045 15.1382 2.83839 14.2953L3.25642 11.7401C3.43574 10.6387 3.5713 9.80603 4.00598 9.11621C4.37906 8.52417 4.9383 8.0117 5.5606 7.69164C6.06284 7.43331 6.60749 7.32497 7.25045 7.25636ZM9.35467 7.09624C9.42073 6.88351 9.498 6.68033 9.58804 6.48985C9.81152 6.01706 10.0978 5.65715 10.4571 5.41264C10.8101 5.17238 11.2969 5 12 5C12.7446 5 13.2519 5.24624 13.6313 5.59926C14.0223 5.9631 14.3202 6.48313 14.5374 7.08961C13.6624 7.03661 12.7777 7 12 7C11.1904 7 10.2646 7.03969 9.35467 7.09624ZM7.01277 9.30605C7.00354 9.54703 7 9.77953 7 10C7 10.5523 7.44772 11 8 11C8.55229 11 9 10.5523 9 10C9 9.71076 9.00708 9.41622 9.02405 9.12212C10.056 9.05146 11.1139 9 12 9C12.8813 9 13.9326 9.0509 14.9592 9.12097C14.9993 9.56577 15 9.89468 15 10C15 10.5523 15.4477 11 16 11C16.5523 11 17 10.5523 17 10V9.99515C17 9.90115 17 9.65321 16.9788 9.30462C17.2261 9.34634 17.3812 9.39636 17.5247 9.47018C17.8288 9.62661 18.1196 9.8931 18.302 10.1825C18.4924 10.4847 18.5758 10.8779 18.7993 12.2438L19.1807 14.5746C19.3276 15.4721 19.4265 16.0817 19.4622 16.5588C19.4969 17.0223 19.4626 17.2671 19.3992 17.4456C19.253 17.8574 18.9449 18.241 18.5743 18.4726C18.4105 18.575 18.1827 18.6599 17.7398 18.7245C17.2811 18.7915 16.6859 18.8253 15.8043 18.874C14.4903 18.9466 13.1354 19 12 19C10.8646 19 9.50973 18.9466 8.1957 18.874C7.31414 18.8253 6.71896 18.7915 6.26022 18.7245C5.81737 18.6599 5.58956 18.575 5.4257 18.4726C5.05516 18.241 4.74702 17.8574 4.60084 17.4456C4.53746 17.2671 4.50317 17.0223 4.53787 16.5588C4.57358 16.0817 4.67242 15.4721 4.8193 14.5746L5.20069 12.2438C5.42421 10.8779 5.50763 10.4847 5.69806 10.1825C5.8804 9.8931 6.17121 9.62661 6.47536 9.47018C6.61724 9.3972 6.77037 9.34749 7.01277 9.30605Z" fill="black"/>
</svg>
