<svg width="24" height="24" viewBox="0 0 24 24" fill="none" xmlns="http://www.w3.org/2000/svg">
<path d="M16.2929 5.29289C16.6834 4.90237 17.3166 4.90237 17.7071 5.29289L19.7018 7.28754L19.7071 7.29285C19.8986 7.48431 19.9962 7.73408 19.9999 7.98498C20.0002 8.00513 19.9999 8.02527 19.999 8.0454C20.0014 8.09813 19.9995 8.15175 19.9931 8.20589C19.9519 8.55159 19.7335 8.83434 19.4377 8.97645L17.7071 10.7071C17.3166 11.0976 16.6834 11.0976 16.2929 10.7071C15.9024 10.3165 15.9024 9.68338 16.2929 9.29285L16.579 9.00671C15.6602 9.10028 14.847 9.38108 14.158 9.96919C13.4057 10.6111 12.8241 11.4824 12.1505 12.4916C11.974 12.756 11.7912 13.0299 11.5974 13.3115C10.7245 14.58 9.6333 15.9782 7.92884 16.6399C6.84292 17.0611 6.12973 17.0191 5.29637 16.9698C5.18368 16.9631 5.06864 16.9563 4.95032 16.9505C4.39872 16.9235 3.97381 16.4614 4.00126 15.9183C4.02871 15.3753 4.49812 14.9569 5.04971 14.984C5.18687 14.9907 5.31144 14.9976 5.4259 15.0039C6.22653 15.0481 6.5329 15.065 7.19515 14.8082C8.28252 14.3859 9.08205 13.4562 9.94159 12.2072C10.0909 11.9902 10.2437 11.7602 10.4013 11.5229C10.6832 11.0985 10.9807 10.6506 11.3017 10.2121L12.848 8.48135C13.9946 7.50274 15.314 7.12396 16.6127 7.02696L16.2929 6.70711C15.9024 6.31658 15.9024 5.68342 16.2929 5.29289Z" fill="black"/>
<path d="M12.848 8.48135C12.2687 8.97569 11.761 9.5845 11.3017 10.2121L12.848 8.48135Z" fill="black"/>
<path d="M6.6966 9.2265C6.31929 8.94387 5.93839 8.90991 5.12813 9.01238C4.5804 9.08165 4.07906 8.70286 4.00834 8.16632C3.93763 7.62978 4.32432 7.13868 4.87204 7.0694C5.76536 6.95643 6.85987 6.8833 7.91012 7.66926C8.1782 7.86874 8.43371 8.08043 8.67677 8.2993C9.08335 8.66543 9.10996 9.2851 8.73619 9.68337C8.36243 10.0816 7.72984 10.1077 7.32326 9.74158C7.12074 9.55921 6.91272 9.38726 6.6993 9.22852L6.6966 9.2265Z" fill="black"/>
<path d="M17.7071 13.2929C17.3166 12.9024 16.6834 12.9024 16.2929 13.2929C15.9024 13.6834 15.9024 14.3166 16.2929 14.7071L16.7646 15.1788C16.639 15.1808 16.5171 15.1789 16.4023 15.1722C16.1227 15.1558 15.9692 15.1148 15.9138 15.0896C15.753 15.0165 15.4987 14.7927 15.2309 14.4759C15.1116 14.3348 15.0112 14.2013 14.9407 14.1031C14.9058 14.0544 14.879 14.0155 14.8617 13.9899L14.8433 13.9624L14.8402 13.9578C14.5409 13.4939 13.9223 13.3604 13.4583 13.6595C12.994 13.9587 12.8603 14.5775 13.1595 15.0417L13.1614 15.0447L13.1644 15.0494L13.1738 15.0638C13.1815 15.0754 13.1921 15.0913 13.2053 15.1109C13.2318 15.1499 13.2691 15.2041 13.3159 15.2692C13.4089 15.3988 13.542 15.5759 13.7034 15.767C13.9972 16.1145 14.4928 16.6407 15.0862 16.9104C15.4752 17.0872 15.9189 17.1472 16.2852 17.1687C16.327 17.1712 16.369 17.1732 16.411 17.1748L16.2929 17.2929C15.9024 17.6834 15.9024 18.3166 16.2929 18.7071C16.6834 19.0976 17.3166 19.0976 17.7071 18.7071L19.7071 16.7071C20.0976 16.3166 20.0976 15.6834 19.7071 15.2929L17.7071 13.2929Z" fill="black"/>
</svg>
