<svg width="24" height="24" viewBox="0 0 24 24" fill="none" xmlns="http://www.w3.org/2000/svg">
<path fill-rule="evenodd" clip-rule="evenodd" d="M21 14C21 15.3063 20.1652 16.4175 19 16.8293L19 20C19 20.5523 18.5523 21 18 21C17.4477 21 17 20.5523 17 20L17 16.8293C15.8348 16.4175 15 15.3063 15 14C15 12.3431 16.343 11 18 11C19.657 11 21 12.3431 21 14ZM19 14C19 13.4476 18.5524 13 18 13C17.4476 13 17 13.4476 17 14C17 14.5524 17.4476 15 18 15C18.5524 15 19 14.5524 19 14Z" fill="black"/>
<path d="M11.9985 14C12.5508 13.9992 12.9992 14.4463 13 14.9986L13.007 19.9986C13.0078 20.5509 12.5607 20.9992 12.0084 21C11.4562 21.0008 11.0078 20.5537 11.007 20.0014L11 15.0014C10.9992 14.4492 11.4463 14.0008 11.9985 14Z" fill="black"/>
<path fill-rule="evenodd" clip-rule="evenodd" d="M13.0071 4.00001C13.0071 3.44773 12.5594 3.00001 12.0071 3.00001C11.4548 3.00001 11.0071 3.44773 11.0071 4.00001L11.0071 6.00001C11.0071 6.05571 11.0116 6.11035 11.0204 6.16357C9.84451 6.56956 9 7.6861 9 9.00001C9 10.657 10.343 12 12 12C13.657 12 15 10.657 15 9.00001C15 7.69109 14.1619 6.57805 12.993 6.16823C13.0023 6.11354 13.0071 6.05734 13.0071 6.00001L13.0071 4.00001ZM12 8.00001C12.5524 8.00001 13 8.44763 13 9.00001C13 9.5524 12.5524 10 12 10C11.4476 10 11 9.5524 11 9.00001C11 8.44763 11.4476 8.00001 12 8.00001Z" fill="black"/>
<path d="M18 3.00001C18.5523 3.00001 19 3.44773 19 4.00001L19 8.00001C19 8.5523 18.5523 9.00001 18 9.00001C17.4477 9.00001 17 8.5523 17 8.00001L17 4.00001C17 3.44773 17.4477 3.00001 18 3.00001Z" fill="black"/>
<path d="M7.00713 4.00142C7.00791 3.44913 6.56083 3.00078 6.00855 3C5.45626 2.99922 5.00791 3.4463 5.00713 3.99858L5.00005 8.99858C4.99927 9.55087 5.44635 9.99922 5.99863 10C6.55092 10.0008 6.99927 9.5537 7.00005 9.00142L7.00713 4.00142Z" fill="black"/>
<path fill-rule="evenodd" clip-rule="evenodd" d="M6.99299 17.8318C7.00245 17.8876 7.00728 17.945 7.00707 18.0036L6.99999 20.0036C6.99804 20.5558 6.54874 21.002 5.99646 21C5.44418 20.9981 4.99805 20.5488 5 19.9965L5.00709 17.9965C5.00728 17.942 5.01182 17.8885 5.02039 17.8365C3.84451 17.4305 3 16.3139 3 15C3 13.3431 4.34305 12 6 12C7.65695 12 9 13.3431 9 15C9 16.3089 8.16189 17.422 6.99299 17.8318ZM6 14C6.55238 14 7 14.4476 7 15C7 15.5524 6.55238 16 6 16C5.44762 16 5 15.5524 5 15C5 14.4476 5.44762 14 6 14Z" fill="black"/>
</svg>
