<svg width="24" height="24" viewBox="0 0 24 24" fill="none" xmlns="http://www.w3.org/2000/svg">
<path d="M10.8607 8.02236C10.4338 8.00452 10.2057 7.99767 9.79004 7.99992C9.59818 8.00096 9.34462 8.00858 9.13219 8.01634C9.02743 8.02017 8.93531 8.02393 8.86945 8.02674L8.79237 8.03009L8.76572 8.0313L8.75855 8.03164L8.73847 8.03243L8.68073 8.03486C8.63136 8.03698 8.56232 8.04004 8.48384 8.04381C8.32442 8.05146 8.13518 8.06158 7.99283 8.07216C7.59317 8.10185 7.37495 8.1269 6.96273 8.17853C6.505 8.23586 6.18703 8.28488 5.80149 8.35312C5.26155 8.4487 4.72433 8.57751 4.18846 8.73288C3.65803 8.88668 3.10334 8.58135 2.94955 8.05091C2.79575 7.52047 3.10107 6.96579 3.63151 6.81199C4.22652 6.63948 4.83367 6.49335 5.45288 6.38374C5.87128 6.30968 6.22262 6.2556 6.71417 6.19404C7.1436 6.14025 7.39841 6.11081 7.84465 6.07766C8.01439 6.06505 8.22528 6.05391 8.38796 6.04611C8.47053 6.04214 8.54302 6.03893 8.59494 6.0367L8.65633 6.03411L8.67314 6.03343L8.67481 6.03337L8.70303 6.03209L8.78443 6.02854C8.85333 6.02561 8.94955 6.02168 9.05916 6.01768C9.27546 6.00978 9.55472 6.00117 9.7792 5.99995C10.2369 5.99747 10.4986 6.00548 10.9442 6.0241C11.4102 6.04357 11.6755 6.06226 12.132 6.09932C12.5124 6.13021 12.7367 6.14939 13.1283 6.19522C13.6316 6.25412 13.9203 6.29618 14.4181 6.38117L14.4661 6.38938C15.1687 6.5093 15.6198 6.58629 16.3674 6.79444C17.758 7.18161 18.8956 7.77501 19.8182 8.25631C20.0396 8.3718 20.2486 8.48084 20.4458 8.57902C20.9401 8.8252 21.1414 9.42555 20.8952 9.91993C20.649 10.4143 20.0486 10.6155 19.5543 10.3693C19.3057 10.2456 19.062 10.1189 18.8182 9.99207C17.9099 9.51981 16.9995 9.0465 15.831 8.72116C15.1825 8.54062 14.8169 8.4782 14.1121 8.35787L14.0814 8.35264C13.6165 8.27325 13.3626 8.23629 12.8959 8.18167C12.5386 8.13986 12.3413 8.12289 11.9702 8.09276C11.5307 8.05708 11.2929 8.04042 10.8607 8.02236Z" fill="black"/>
<path d="M9.70381 12.3338C8.99244 12.3294 8.606 12.349 7.89298 12.4187C7.75012 12.4327 7.56084 12.4552 7.40149 12.4751C7.32306 12.4849 7.25409 12.4937 7.2048 12.5001L7.14715 12.5076L7.14046 12.5085L7.13079 12.5101L7.06499 12.5209C7.00873 12.5301 6.93005 12.5433 6.84068 12.5586C6.65894 12.5897 6.44411 12.628 6.28353 12.6609C5.7221 12.7759 5.33342 12.8789 4.85678 13.0189C4.32686 13.1745 3.77114 12.871 3.61554 12.3411C3.45994 11.8112 3.76337 11.2555 4.29328 11.0999C4.81017 10.9481 5.25419 10.8302 5.88227 10.7016C6.07611 10.6619 6.31734 10.6191 6.50305 10.5873C6.5974 10.5711 6.68029 10.5573 6.73967 10.5475L6.80991 10.536L6.8358 10.5318L6.84963 10.5296L6.88596 10.5248L6.94727 10.5168C6.99913 10.51 7.07156 10.5007 7.15411 10.4904C7.31673 10.4702 7.52776 10.4449 7.69829 10.4282C8.47506 10.3522 8.93082 10.329 9.71631 10.3339C10.1036 10.3363 10.326 10.3453 10.7031 10.3656C11.2018 10.3925 11.4936 10.4143 11.9988 10.4726C13.6501 10.6631 14.6082 10.8793 16.1813 11.4181C17.292 11.7985 17.9232 12.0698 18.9635 12.6139C19.4529 12.8699 19.6421 13.4741 19.3861 13.9635C19.1302 14.4529 18.5259 14.6421 18.0365 14.3862C17.086 13.889 16.548 13.6578 15.5332 13.3102C14.0964 12.8181 13.2787 12.6336 11.7695 12.4594C11.3133 12.4067 11.0632 12.3879 10.5955 12.3627C10.2397 12.3435 10.0505 12.336 9.70381 12.3338Z" fill="black"/>
<path d="M8.86519 16.4981C9.05064 16.4819 9.28947 16.4731 9.49384 16.4687C9.59347 16.4665 9.68026 16.4655 9.7419 16.465L9.81333 16.4646L9.83043 16.4646L9.84818 16.4649L9.91999 16.4662C9.98145 16.4674 10.0674 16.4693 10.1651 16.472C10.3642 16.4774 10.5984 16.4858 10.7731 16.4974C12.476 16.6108 13.3962 16.7671 14.9259 17.38C15.6114 17.6546 16.0652 17.8824 16.5987 18.2007C17.073 18.4837 17.6869 18.3286 17.9699 17.8543C18.2528 17.38 18.0978 16.7661 17.6235 16.4832C16.9968 16.1093 16.4488 15.8356 15.6698 15.5234C13.8941 14.812 12.7558 14.625 10.9059 14.5018C10.6902 14.4875 10.4237 14.4783 10.2197 14.4727C10.1159 14.4699 10.0248 14.4679 9.95947 14.4666L9.88221 14.4652L9.85298 14.4647L9.83873 14.4646L9.83054 14.4646L9.80783 14.4646L9.72625 14.4651C9.6575 14.4656 9.56131 14.4668 9.45062 14.4691C9.23435 14.4738 8.94316 14.4837 8.69111 14.5057C8.55644 14.5175 8.43384 14.5271 8.31336 14.5365C8.07559 14.5551 7.84606 14.573 7.5485 14.6058C7.14213 14.6505 6.90729 14.6804 6.49954 14.7428C6.06794 14.8088 5.71085 14.8804 5.37643 14.9474C5.24141 14.9745 5.11009 15.0008 4.97906 15.0257C4.4365 15.1289 4.08032 15.6524 4.1835 16.1949C4.28669 16.7375 4.81017 17.0937 5.35273 16.9905C5.52024 16.9586 5.67018 16.9286 5.8144 16.8996C6.12946 16.8364 6.41759 16.7785 6.80186 16.7198C7.17831 16.6622 7.38503 16.6358 7.76721 16.5938C8.03626 16.5642 8.21462 16.5503 8.42985 16.5336C8.55438 16.5239 8.69127 16.5133 8.86519 16.4981Z" fill="black"/>
</svg>
