<svg width="24" height="24" viewBox="0 0 24 24" fill="none" xmlns="http://www.w3.org/2000/svg">
<path fill-rule="evenodd" clip-rule="evenodd" d="M11.3929 3.1352C11.7774 2.95493 12.2227 2.95493 12.6072 3.1352C12.9477 3.29484 13.1332 3.57157 13.2211 3.7127C13.3115 3.8579 13.4032 4.04075 13.488 4.20979C13.4929 4.21952 13.4978 4.22919 13.5026 4.23881L15.282 7.78358L19.3011 8.36124C19.4912 8.38852 19.6947 8.41772 19.8614 8.45713C20.0204 8.49474 20.3432 8.58138 20.6039 8.8519C20.9018 9.16109 21.0452 9.59042 20.9875 10.0205C20.9368 10.398 20.7222 10.6599 20.6153 10.7829C20.503 10.9119 20.3549 11.0537 20.2175 11.1852C20.2097 11.1927 20.2018 11.2002 20.1941 11.2076L17.3204 13.9599L17.9977 17.8431C17.9996 17.8538 18.0015 17.8645 18.0033 17.8752C18.0358 18.0608 18.071 18.2622 18.0847 18.4326C18.0979 18.5968 18.1142 18.9345 17.9298 19.2683C17.7215 19.6454 17.3552 19.9037 16.9382 19.9797C16.5715 20.0465 16.261 19.9315 16.1078 19.869C15.9492 19.8042 15.7668 19.7099 15.5967 19.6218L12 17.7619L8.40338 19.6218C8.23324 19.7099 8.05086 19.8042 7.89221 19.869C7.73905 19.9315 7.42856 20.0465 7.06179 19.9797C6.64488 19.9037 6.27856 19.6454 6.07023 19.2683C5.88585 18.9345 5.90215 18.5968 5.91538 18.4326C5.92909 18.2622 5.96428 18.0608 5.99671 17.8752C5.99859 17.8645 6.00046 17.8538 6.00232 17.8431L6.67961 13.9599L3.80597 11.2076C3.79819 11.2002 3.79037 11.1927 3.78251 11.1852C3.64511 11.0536 3.497 10.9119 3.38479 10.7829C3.27781 10.6599 3.06328 10.398 3.01257 10.0205C2.95482 9.59042 3.09829 9.16109 3.39618 8.8519C3.65681 8.58138 3.9796 8.49474 4.13866 8.45713C4.30531 8.41772 4.5088 8.38852 4.69898 8.36124C4.70969 8.3597 4.72034 8.35817 4.73095 8.35665L8.71807 7.78358L10.4974 4.23881C10.5023 4.2292 10.5071 4.21952 10.512 4.20981C10.5968 4.04076 10.6885 3.85791 10.7789 3.7127C10.8668 3.57157 11.0524 3.29484 11.3929 3.1352ZM12 5.70356L10.429 8.83329C10.4262 8.83885 10.4228 8.84575 10.4189 8.85381C10.3799 8.93358 10.2848 9.12831 10.1333 9.28869C10.007 9.42234 9.85642 9.52974 9.69034 9.60568C9.49235 9.69622 9.27968 9.72454 9.19023 9.73645C9.18112 9.73766 9.17328 9.7387 9.16687 9.73963L5.68693 10.2398L8.19221 12.6393C8.19671 12.6436 8.20234 12.6489 8.20893 12.655C8.27387 12.7159 8.43263 12.8646 8.54131 13.0566C8.63248 13.2176 8.69138 13.3952 8.71412 13.5797C8.74135 13.8005 8.70127 14.0157 8.68516 14.1023C8.68353 14.111 8.68215 14.1185 8.6811 14.1245L8.0864 17.5341L11.2246 15.9113C11.2304 15.9083 11.2374 15.9046 11.2455 15.9003C11.3253 15.858 11.5148 15.7575 11.729 15.7162C11.908 15.6816 12.092 15.6816 12.271 15.7162C12.4853 15.7575 12.6748 15.858 12.7546 15.9003C12.7627 15.9046 12.7696 15.9083 12.7754 15.9113L15.9136 17.5341L15.3189 14.1245C15.3179 14.1185 15.3165 14.111 15.3149 14.1023C15.2988 14.0157 15.2587 13.8005 15.2859 13.5797C15.3087 13.3952 15.3676 13.2176 15.4587 13.0566C15.5674 12.8646 15.7262 12.7159 15.7911 12.655C15.7977 12.6489 15.8033 12.6436 15.8078 12.6393L18.3131 10.2398L14.8332 9.73963C14.8268 9.7387 14.8189 9.73766 14.8098 9.73645C14.7204 9.72454 14.5077 9.69622 14.3097 9.60568C14.1436 9.52974 13.993 9.42234 13.8667 9.28869C13.7152 9.12831 13.6201 8.93357 13.5812 8.85381C13.5772 8.84574 13.5739 8.83885 13.5711 8.83329L12 5.70356ZM7.90818 18.6052L7.90823 18.6035L7.90818 18.6052Z" fill="black"/>
</svg>
