<svg width="24" height="24" viewBox="0 0 24 24" fill="none" xmlns="http://www.w3.org/2000/svg">
<path d="M9 14C9 13.4477 8.55229 13 8 13C7.44772 13 7 13.4477 7 14V16C7 16.5523 7.44772 17 8 17C8.55229 17 9 16.5523 9 16V14Z" fill="black"/>
<path d="M12 7C12.5523 7 13 7.44772 13 8V16C13 16.5523 12.5523 17 12 17C11.4477 17 11 16.5523 11 16V8C11 7.44772 11.4477 7 12 7Z" fill="black"/>
<path d="M17 11C17 10.4477 16.5523 10 16 10C15.4477 10 15 10.4477 15 11V16C15 16.5523 15.4477 17 16 17C16.5523 17 17 16.5523 17 16V11Z" fill="black"/>
<path fill-rule="evenodd" clip-rule="evenodd" d="M12 3C10.8608 3 9.51093 3.06414 8.25254 3.14556L8.21199 3.14818C7.51352 3.19335 6.92804 3.23122 6.4445 3.30381C5.93443 3.38039 5.46965 3.50403 5.02477 3.75667C4.33432 4.14875 3.74814 4.77408 3.40145 5.4884C3.17625 5.9524 3.08397 6.43393 3.04099 6.95783C2.99998 7.45767 2.99999 8.06404 3 8.79216V15.2078C2.99999 15.936 2.99998 16.5423 3.04099 17.0422C3.08397 17.5661 3.17625 18.0476 3.40145 18.5116C3.74814 19.2259 4.33432 19.8512 5.02477 20.2433C5.46965 20.496 5.93443 20.6196 6.4445 20.6962C6.92802 20.7688 7.51347 20.8066 8.2119 20.8518L8.25254 20.8544C9.51093 20.9359 10.8608 21 12 21C13.1392 21 14.4891 20.9359 15.7475 20.8544L15.7881 20.8518C16.4865 20.8067 17.072 20.7688 17.5555 20.6962C18.0656 20.6196 18.5303 20.496 18.9752 20.2433C19.6657 19.8512 20.2519 19.2259 20.5986 18.5116C20.8238 18.0476 20.916 17.5661 20.959 17.0422C21 16.5423 21 15.936 21 15.2079V8.79219C21 8.06408 21 7.45766 20.959 6.95783C20.916 6.43393 20.8238 5.9524 20.5986 5.4884C20.2519 4.77408 19.6657 4.14875 18.9752 3.75667C18.5303 3.50403 18.0656 3.38039 17.5555 3.30381C17.072 3.23122 16.4865 3.19335 15.788 3.14818L15.7475 3.14556C14.4891 3.06414 13.1392 3 12 3ZM8.38166 5.14138C9.62375 5.06103 10.9242 5 12 5C13.0758 5 14.3763 5.06103 15.6183 5.14138C16.3679 5.18988 16.8686 5.22309 17.2586 5.28165C17.6314 5.33761 17.8329 5.40794 17.9876 5.49581C18.3261 5.68805 18.6293 6.01146 18.7993 6.36168C18.8752 6.51803 18.9334 6.72785 18.9657 7.12137C18.9992 7.52977 19 8.05378 19 8.83239V15.1676C19 15.9462 18.9992 16.4702 18.9657 16.8786C18.9334 17.2722 18.8752 17.482 18.7993 17.6383C18.6293 17.9885 18.3261 18.312 17.9876 18.5042C17.8329 18.5921 17.6314 18.6624 17.2586 18.7184C16.8686 18.7769 16.3679 18.8101 15.6183 18.8586C14.3763 18.939 13.0758 19 12 19C10.9242 19 9.62375 18.939 8.38166 18.8586C7.63212 18.8101 7.13145 18.7769 6.74144 18.7184C6.36864 18.6624 6.16713 18.5921 6.01239 18.5042C5.67387 18.312 5.37071 17.9885 5.20073 17.6383C5.12484 17.482 5.06658 17.2722 5.03429 16.8786C5.00078 16.4702 5 15.9462 5 15.1676V8.83239C5 8.05378 5.00078 7.52977 5.03429 7.12137C5.06658 6.72785 5.12484 6.51803 5.20073 6.36168C5.37071 6.01146 5.67387 5.68805 6.01239 5.49581C6.16713 5.40794 6.36864 5.33761 6.74144 5.28165C7.13145 5.22309 7.63212 5.18988 8.38166 5.14138Z" fill="black"/>
</svg>
