<svg width="24" height="24" viewBox="0 0 24 24" fill="none" xmlns="http://www.w3.org/2000/svg">
<path fill-rule="evenodd" clip-rule="evenodd" d="M12 2C12.5523 2 13 2.44772 13 3V5.25C13 5.80228 12.5523 6.25 12 6.25C11.4477 6.25 11 5.80228 11 5.25V3C11 2.44772 11.4477 2 12 2ZM4.92889 4.92889C5.31942 4.53837 5.95258 4.53837 6.34311 4.92889L7.93411 6.51989C8.32463 6.91042 8.32463 7.54358 7.93411 7.93411C7.54358 8.32463 6.91042 8.32463 6.51989 7.93411L4.92889 6.34311C4.53837 5.95258 4.53837 5.31942 4.92889 4.92889ZM19.0711 4.92889C19.4616 5.31942 19.4616 5.95258 19.0711 6.34311L17.4801 7.93411C17.0896 8.32463 16.4564 8.32463 16.0659 7.93411C15.6754 7.54358 15.6754 6.91042 16.0659 6.51989L17.6569 4.92889C18.0474 4.53837 18.6806 4.53837 19.0711 4.92889ZM12 9.25C11.2707 9.25 10.5712 9.53973 10.0555 10.0555C9.53973 10.5712 9.25 11.2707 9.25 12C9.25 12.7293 9.53973 13.4288 10.0555 13.9445C10.5712 14.4603 11.2707 14.75 12 14.75C12.7293 14.75 13.4288 14.4603 13.9445 13.9445C14.4603 13.4288 14.75 12.7293 14.75 12C14.75 11.2707 14.4603 10.5712 13.9445 10.0555C13.4288 9.53973 12.7293 9.25 12 9.25ZM8.64124 8.64124C9.53204 7.75044 10.7402 7.25 12 7.25C13.2598 7.25 14.468 7.75044 15.3588 8.64124C16.2496 9.53204 16.75 10.7402 16.75 12C16.75 13.2598 16.2496 14.468 15.3588 15.3588C14.468 16.2496 13.2598 16.75 12 16.75C10.7402 16.75 9.53204 16.2496 8.64124 15.3588C7.75044 14.468 7.25 13.2598 7.25 12C7.25 10.7402 7.75044 9.53204 8.64124 8.64124ZM2 12C2 11.4477 2.44772 11 3 11H5.25C5.80228 11 6.25 11.4477 6.25 12C6.25 12.5523 5.80228 13 5.25 13H3C2.44772 13 2 12.5523 2 12ZM17.75 12C17.75 11.4477 18.1977 11 18.75 11H21C21.5523 11 22 11.4477 22 12C22 12.5523 21.5523 13 21 13H18.75C18.1977 13 17.75 12.5523 17.75 12ZM7.93411 16.0659C8.32463 16.4564 8.32463 17.0896 7.93411 17.4801L6.34311 19.0711C5.95258 19.4616 5.31942 19.4616 4.92889 19.0711C4.53837 18.6806 4.53837 18.0474 4.92889 17.6569L6.51989 16.0659C6.91042 15.6754 7.54358 15.6754 7.93411 16.0659ZM16.0659 16.0659C16.4564 15.6754 17.0896 15.6754 17.4801 16.0659L19.0711 17.6569C19.4616 18.0474 19.4616 18.6806 19.0711 19.0711C18.6806 19.4616 18.0474 19.4616 17.6569 19.0711L16.0659 17.4801C15.6754 17.0896 15.6754 16.4564 16.0659 16.0659ZM12 17.75C12.5523 17.75 13 18.1977 13 18.75V21C13 21.5523 12.5523 22 12 22C11.4477 22 11 21.5523 11 21V18.75C11 18.1977 11.4477 17.75 12 17.75Z" fill="black"/>
</svg>
