<svg width="24" height="24" viewBox="0 0 24 24" fill="none" xmlns="http://www.w3.org/2000/svg">
<path d="M10.75 17.25C10.3358 17.25 10 17.5858 10 18C10 18.4142 10.3358 18.75 10.75 18.75H13.25C13.6642 18.75 14 18.4142 14 18C14 17.5858 13.6642 17.25 13.25 17.25H10.75Z" fill="black"/>
<path fill-rule="evenodd" clip-rule="evenodd" d="M12 2C11.135 2 10.0328 2.01804 9.15143 2.03592C8.70976 2.04488 8.32175 2.05384 8.0441 2.06056L7.71729 2.06869L7.61092 2.07145C6.73739 2.07415 5.86044 2.32813 5.17677 2.83041C4.48434 3.33914 4 4.10633 4 5V19C4 19.8937 4.48433 20.6609 5.17677 21.1696C5.86044 21.6719 6.73741 21.9259 7.61094 21.9286L7.71729 21.9313L8.0441 21.9394C8.32175 21.9462 8.70976 21.9551 9.15143 21.9641C10.0328 21.982 11.135 22 12 22C12.865 22 13.9672 21.982 14.8486 21.9641C15.2902 21.9551 15.6783 21.9462 15.9559 21.9394L16.2827 21.9313L16.3891 21.9286C17.2626 21.9259 18.1396 21.6719 18.8232 21.1696C19.5157 20.6609 20 19.8937 20 19V5C20 4.10633 19.5157 3.33914 18.8232 2.83041C18.1396 2.32813 17.2626 2.07415 16.3891 2.07145L16.2827 2.06869L15.9559 2.06056C15.6783 2.05384 15.2902 2.04488 14.8486 2.03592C13.9672 2.01804 12.865 2 12 2ZM7.625 4.07143C7.63393 4.07143 7.64286 4.07131 7.65178 4.07107L7.76851 4.06803L8.0925 4.05998C8.36816 4.0533 8.7535 4.0444 9.192 4.03551C10.0709 4.01768 11.1563 4 12 4C12.8437 4 13.9291 4.01768 14.808 4.03551C15.2465 4.0444 15.6318 4.0533 15.9075 4.05998L16.2315 4.06803L16.3482 4.07107C16.3571 4.07131 16.3661 4.07143 16.375 4.07143C16.8892 4.07143 17.3419 4.22381 17.6391 4.44218C17.9312 4.6568 18 4.87069 18 5V19C18 19.1293 17.9312 19.3432 17.6391 19.5578C17.3419 19.7762 16.8892 19.9286 16.375 19.9286C16.3661 19.9286 16.3567 19.9287 16.3478 19.9289L16.2315 19.932L15.9075 19.94C15.6318 19.9467 15.2465 19.9556 14.808 19.9645C13.9291 19.9823 12.8437 20 12 20C11.1563 20 10.0709 19.9823 9.192 19.9645C8.7535 19.9556 8.36816 19.9467 8.09249 19.94L7.76851 19.932L7.65178 19.9289C7.64286 19.9287 7.63393 19.9286 7.625 19.9286C7.1108 19.9286 6.65815 19.7762 6.36092 19.5578C6.06879 19.3432 6 19.1293 6 19V5C6 4.87069 6.06879 4.6568 6.36092 4.44218C6.65815 4.22381 7.1108 4.07143 7.625 4.07143Z" fill="black"/>
</svg>
