<svg width="24" height="24" viewBox="0 0 24 24" fill="none" xmlns="http://www.w3.org/2000/svg">
<path fill-rule="evenodd" clip-rule="evenodd" d="M12 5.00001C10.5074 5.00001 9.66927 5.00934 8.62139 5.42849C8.00751 5.67404 7.59368 5.88805 7.33136 6.12811C7.1173 6.324 7 6.53718 7 6.8998V18.7341L12 14.9249L17 18.7341V6.8998C17 6.53718 16.8827 6.324 16.6686 6.12811C16.4063 5.88805 15.9925 5.67404 15.3786 5.42849C14.3307 5.00934 13.4926 5.00001 12 5.00001ZM11.9318 3C11.9544 3.00001 11.9772 3.00001 12 3.00001C12.0228 3.00001 12.0456 3.00001 12.0682 3C13.4999 2.99986 14.6919 2.99974 16.1214 3.57153C16.7575 3.82598 17.4687 4.14918 18.0189 4.65268C18.6173 5.20033 19 5.93705 19 6.8998V19.1987C19 20.5491 17.4622 21.6005 16.2081 20.6451L12 17.4392L7.79194 20.6451C6.53776 21.6005 5 20.5491 5 19.1987V6.8998C5 5.93705 5.3827 5.20033 5.98114 4.65268C6.53132 4.14918 7.24249 3.82598 7.87861 3.57153C9.30808 2.99974 10.5001 2.99986 11.9318 3Z" fill="black"/>
</svg>
