<svg width="24" height="24" viewBox="0 0 24 24" fill="none" xmlns="http://www.w3.org/2000/svg">
<path d="M13.1104 3.00608C12.5614 2.9451 12.067 3.34065 12.0061 3.88955C11.9451 4.43846 12.3406 4.93287 12.8895 4.99385C14.4508 5.1673 15.9068 5.86648 17.0183 6.97658C18.1298 8.08669 18.8308 9.54174 19.0062 11.1028C19.0679 11.6517 19.5628 12.0466 20.1116 11.9849C20.6604 11.9232 21.0554 11.4283 20.9937 10.8795C20.7676 8.86752 19.8641 6.99221 18.4316 5.56148C16.9991 4.13074 15.1226 3.22963 13.1104 3.00608Z" fill="black"/>
<path d="M13.1914 6.54049C12.6494 6.43473 12.1242 6.78842 12.0184 7.33048C11.9127 7.87255 12.2664 8.39771 12.8084 8.50347C13.4731 8.63315 14.084 8.95822 14.5628 9.43708C15.0417 9.91593 15.3668 10.5268 15.4964 11.1915C15.6022 11.7335 16.1274 12.0872 16.6694 11.9815C17.2115 11.8757 17.5652 11.3505 17.4594 10.8085C17.2535 9.75311 16.7374 8.78319 15.977 8.02287C15.2167 7.26254 14.2468 6.74639 13.1914 6.54049Z" fill="black"/>
<path fill-rule="evenodd" clip-rule="evenodd" d="M4.62785 4.3005L4.4294 4.4989C4.03529 4.89249 3.71579 5.21157 3.47375 5.64244C3.19689 6.13529 3.01444 6.83686 3.01612 7.40215C3.01759 7.8952 3.12053 8.25723 3.24605 8.69871L3.26114 8.75183C4.04444 11.5116 5.52264 14.1155 7.69302 16.2858C9.8634 18.4562 12.4673 19.9344 15.227 20.7177L15.2801 20.7328C15.7216 20.8583 16.0836 20.9613 16.5767 20.9627C17.142 20.9644 17.8436 20.782 18.3364 20.5051C18.7673 20.2631 19.0864 19.9436 19.4799 19.5495L19.6783 19.351L19.7656 19.2639C20.1326 18.8981 20.4721 18.5597 20.6705 18.1674C21.0601 17.3972 21.0601 16.4875 20.6705 15.7173C20.4721 15.325 20.1326 14.9866 19.7656 14.6208L19.6783 14.5337L19.454 14.3092C19.2129 14.0677 18.9908 13.8451 18.7492 13.688C17.8496 13.1031 16.6898 13.1031 15.7902 13.688C15.5486 13.8451 15.3265 14.0676 15.0855 14.3092L15.0025 14.3922L14.997 14.3896C13.8549 13.8412 12.7835 13.0933 11.8345 12.1444C10.8855 11.1954 10.1376 10.124 9.58926 8.98184L9.58661 8.97632L9.66963 8.89337C9.9112 8.65233 10.1337 8.43027 10.2909 8.18862C10.8758 7.28902 10.8758 6.12927 10.2909 5.22966C10.1337 4.98802 9.9112 4.76596 9.66963 4.52491L9.44514 4.3005L9.35807 4.21325C8.99222 3.8462 8.65387 3.50674 8.26154 3.3083C7.4913 2.91872 6.58169 2.91872 5.81146 3.3083C5.41912 3.50674 5.08077 3.8462 4.71492 4.21325L4.62785 4.3005ZM6.71415 5.093C6.91682 4.99048 7.15617 4.99049 7.35884 5.093C7.42478 5.12635 7.51985 5.20364 8.03092 5.71471L8.19795 5.88174C8.5337 6.21749 8.58769 6.27923 8.6141 6.31985C8.768 6.55656 8.768 6.86173 8.6141 7.09844C8.58769 7.13905 8.5337 7.2008 8.19795 7.53655L8.17748 7.55696C8.10128 7.6328 7.99511 7.7385 7.90403 7.8657C7.79229 8.02174 7.70665 8.19675 7.64874 8.381C7.53853 8.73169 7.52883 9.11588 7.63106 9.46659C7.67461 9.61598 7.73407 9.73922 7.77619 9.8265L7.7863 9.84748C8.43101 11.1903 9.30951 12.4478 10.4203 13.5586C11.531 14.6693 12.7886 15.5478 14.1314 16.1925L14.1523 16.2027C14.2396 16.2448 14.3629 16.3042 14.5123 16.3478C15.0472 16.5037 15.6601 16.3992 16.1132 16.0748C16.2403 15.9837 16.346 15.8776 16.4219 15.8014L16.4423 15.7809C16.778 15.4452 16.8398 15.3912 16.8804 15.3647C17.1171 15.2108 17.4223 15.2108 17.659 15.3647C17.6996 15.3912 17.7614 15.4452 18.0971 15.7809L18.2641 15.9479C18.7752 16.459 18.8525 16.5541 18.8859 16.62C18.9884 16.8227 18.9884 17.062 18.8859 17.2647C18.8525 17.3306 18.7752 17.4257 18.2641 17.9368L18.129 18.0719C17.6445 18.5564 17.5203 18.6696 17.3569 18.7614C17.1649 18.8692 16.8028 18.9634 16.5827 18.9627C16.3875 18.9621 16.2747 18.9361 15.7731 18.7937C13.333 18.1011 11.0303 16.7947 9.10723 14.8716C7.18416 12.9485 5.87771 10.6458 5.18514 8.20574C5.04278 7.70415 5.0167 7.59139 5.01612 7.3962C5.01546 7.17601 5.10962 6.81394 5.21746 6.62197C5.30927 6.45853 5.42243 6.33435 5.90696 5.84982L6.04207 5.71472C6.55314 5.20364 6.64821 5.12635 6.71415 5.093Z" fill="black"/>
</svg>
