<svg width="24" height="24" viewBox="0 0 24 24" fill="none" xmlns="http://www.w3.org/2000/svg">
<path fill-rule="evenodd" clip-rule="evenodd" d="M12.1786 21C12.8262 21 13.4296 20.6278 13.7047 20.0242C13.7046 20.0245 13.7054 20.0232 13.7072 20.02L13.7088 20.0172C13.7227 19.9926 13.774 19.9021 13.888 19.7087L13.9635 19.5808C14.0705 19.3996 14.2005 19.1795 14.3393 18.9396C14.6834 18.3449 15.1037 17.5911 15.4109 16.9125C15.7089 16.2545 15.9844 15.4815 16.1958 14.8594C16.2682 14.6463 16.3356 14.4434 16.3938 14.2683C16.4204 14.188 16.4453 14.1131 16.4677 14.0463C16.4937 13.9684 16.5165 13.9011 16.5361 13.8443C16.558 13.8303 16.5794 13.8156 16.6001 13.8H18.3593C19.7939 13.8 21 12.6595 21 11.2L21 6.1C21 4.64052 19.7939 3.5 18.3593 3.5C18.074 3.5 17.5765 3.43543 16.8765 3.34458C16.6691 3.31767 16.4432 3.28834 16.2006 3.25782C15.2016 3.13214 13.9987 3 12.8522 3C11.7025 3 10.5742 3.13284 9.61451 3.25846C9.47177 3.27714 9.33431 3.29539 9.20202 3.31296C8.40364 3.41897 7.79343 3.5 7.34503 3.5C5.65939 3.5 4.19373 4.70044 3.92608 6.37122L3.04381 11.4644L3.04135 11.4792C2.71169 13.5689 4.36843 15.4 6.46158 15.4H9.15576V18.0273C9.15576 19.6926 10.533 21 12.1786 21ZM17 11.8H18.3593C18.737 11.8 19 11.5078 19 11.2L19 6.1C19 5.79216 18.737 5.5 18.3593 5.5C18.0286 5.5 17.5416 5.44621 17 5.37768V11.8ZM15 5.13109C14.2861 5.05579 13.5491 5 12.8522 5C11.8423 5 10.8244 5.11716 9.87408 5.24154C9.74512 5.25842 9.61563 5.27574 9.4864 5.29302C8.70813 5.39708 7.9384 5.5 7.34503 5.5C6.60396 5.5 6.00555 6.02426 5.90038 6.6909L5.89792 6.70575L5.01593 11.7973C4.89128 12.613 5.54045 13.4 6.46158 13.4H9.33541C10.3169 13.4 11.1558 14.1824 11.1558 15.2L11.1558 18.0273C11.1558 18.486 11.502 18.9012 11.9953 18.9847C12.045 18.8968 12.1015 18.8009 12.1536 18.7125L12.2433 18.5605C12.3501 18.3797 12.4743 18.1693 12.6082 17.938C12.9468 17.3528 13.325 16.6705 13.589 16.0875C13.8444 15.5237 14.0939 14.8286 14.3021 14.2159C14.3725 14.0089 14.4357 13.8186 14.4928 13.6466C14.5202 13.5641 14.5462 13.4858 14.571 13.4118C14.6364 13.2163 14.7115 12.9925 14.7718 12.8604C14.8335 12.725 14.9105 12.6002 15 12.4875V5.13109Z" fill="black"/>
</svg>
