<svg width="24" height="24" viewBox="0 0 24 24" fill="none" xmlns="http://www.w3.org/2000/svg">
<path fill-rule="evenodd" clip-rule="evenodd" d="M11.8214 3C11.1738 3 10.5703 3.37218 10.2953 3.97579C10.2954 3.97541 10.2942 3.97764 10.2912 3.98285C10.2773 4.00737 10.2261 4.09779 10.112 4.29131L10.0365 4.41918C9.92946 4.60044 9.7995 4.82049 9.6607 5.06039C9.31659 5.65513 8.89633 6.40891 8.58905 7.08748C8.29106 7.74554 8.01562 8.51845 7.80421 9.14055C7.73172 9.35384 7.66427 9.55694 7.60608 9.73213C7.57942 9.81238 7.55467 9.88691 7.53232 9.95374C7.50626 10.0316 7.48354 10.0989 7.46391 10.1557C7.44198 10.1696 7.42063 10.1844 7.3999 10.2H5.64071C4.20612 10.2 3 11.3405 3 12.8V17.9C3 19.3595 4.20612 20.5 5.64071 20.5C5.92596 20.5 6.42352 20.5646 7.1235 20.6554C7.33088 20.6823 7.55679 20.7117 7.79943 20.7422C8.79841 20.8679 10.0013 21 11.1478 21C12.2975 21 13.4258 20.8672 14.3855 20.7415C14.5282 20.7229 14.6657 20.7046 14.798 20.687C15.5963 20.581 16.2066 20.5 16.655 20.5C18.3406 20.5 19.8063 19.2996 20.0739 17.6288L20.9562 12.5356L20.9586 12.5208C21.2883 10.4311 19.6316 8.6 17.5384 8.6H14.8442V5.97267C14.8442 4.30738 13.467 3 11.8214 3ZM7 12.2H5.64071C5.26302 12.2 5 12.4922 5 12.8V17.9C5 18.2078 5.26302 18.5 5.64071 18.5C5.97142 18.5 6.45835 18.5538 7 18.6223L7 12.2ZM9 18.8689C9.71387 18.9442 10.4509 19 11.1478 19C12.1577 19 13.1756 18.8828 14.1259 18.7585C14.2549 18.7416 14.3844 18.7243 14.5136 18.707C15.2919 18.6029 16.0616 18.5 16.655 18.5C17.396 18.5 17.9944 17.9757 18.0996 17.3091L18.1021 17.2943L18.9841 12.2027C19.1087 11.387 18.4595 10.6 17.5384 10.6H14.6646C13.6831 10.6 12.8442 9.81765 12.8442 8.8V5.97267C12.8442 5.51396 12.498 5.09883 12.0047 5.01526C11.955 5.10324 11.8985 5.19909 11.8464 5.28754L11.7567 5.43949C11.6499 5.62032 11.5257 5.83067 11.3918 6.06199C11.0532 6.64724 10.675 7.32947 10.411 7.91252C10.1556 8.47632 9.90605 9.17141 9.69785 9.78407C9.6275 9.99109 9.5643 10.1814 9.50717 10.3534C9.47976 10.4359 9.45375 10.5142 9.42902 10.5882C9.36363 10.7837 9.28847 11.0075 9.22824 11.1396C9.16652 11.275 9.08953 11.3998 9 11.5125L9 18.8689Z" fill="black"/>
</svg>
