<svg width="24" height="24" viewBox="0 0 24 24" fill="none" xmlns="http://www.w3.org/2000/svg">
<path d="M10 17C9.44772 17 9 16.5523 9 16V11C9 10.4477 9.44772 10 10 10C10.5523 10 11 10.4477 11 11V16C11 16.5523 10.5523 17 10 17Z" fill="black"/>
<path d="M14 17C13.4477 17 13 16.5523 13 16V11C13 10.4477 13.4477 10 14 10C14.5523 10 15 10.4477 15 11V16C15 16.5523 14.5523 17 14 17Z" fill="black"/>
<path fill-rule="evenodd" clip-rule="evenodd" d="M18 5.3133V5.19771C18 3.73538 16.937 2.45652 15.4452 2.26841C14.42 2.13912 13.075 2 12 2C10.925 2 9.58003 2.13912 8.55479 2.26841C7.06299 2.45652 6 3.73538 6 5.19771V5.31331C5.41538 5.36202 4.91404 5.40753 4.54792 5.44199C4.34428 5.46115 4.18235 5.4769 4.07106 5.48789L3.94318 5.50063L3.89788 5.50523C3.34848 5.56164 2.94884 6.05274 3.00525 6.60214C3.06066 7.14184 3.53602 7.53698 4.0736 7.49728L5.03688 18.9931C5.15347 20.3845 6.2211 21.5307 7.63675 21.6913C8.8722 21.8315 10.6337 22 12 22C13.3662 22 15.1278 21.8315 16.3632 21.6913C17.7789 21.5307 18.8465 20.3845 18.9631 18.9931L19.9264 7.49729C20.4642 7.53729 20.9394 7.14202 20.9948 6.60214C21.0512 6.05274 20.6507 5.56155 20.1013 5.50514L20.0606 5.50102L19.9434 5.48932C19.8413 5.47922 19.6926 5.46471 19.505 5.44698C19.135 5.41199 18.6133 5.3644 18 5.3133ZM12 4C11.0575 4 9.8165 4.12514 8.80501 4.25269C8.41571 4.30178 8.09892 4.60037 8.01932 5H15.9807C15.9011 4.60037 15.5843 4.30178 15.195 4.25269C14.1835 4.12514 12.9425 4 12 4ZM12 7C10.6833 7 8.97542 7.13966 7.57419 7.28325C7.00099 7.34199 6.48507 7.40076 6.07661 7.44954L7.02989 18.8261C7.06921 19.2953 7.42262 19.6542 7.86223 19.7041C9.09001 19.8434 10.7553 20 12 20C13.2447 20 14.91 19.8434 16.1377 19.7041C16.5774 19.6542 16.9308 19.2953 16.9701 18.8261L17.9234 7.44954C17.5149 7.40076 16.999 7.34199 16.4258 7.28325C15.0246 7.13966 13.3167 7 12 7Z" fill="black"/>
</svg>
