<svg width="24" height="24" viewBox="0 0 24 24" fill="none" xmlns="http://www.w3.org/2000/svg">
<path fill-rule="evenodd" clip-rule="evenodd" d="M14.2885 6.31641C13.3187 6.81152 12.6774 7.8329 12.9769 9.20291C13.0405 9.49372 12.9713 9.79775 12.788 10.0323C12.6047 10.2669 12.3264 10.4075 12.0288 10.4161C9.20009 10.4977 6.37302 9.48264 4.2484 7.64682C3.33361 10.8688 5.23113 14.4981 8.68207 15.5126C9.03384 15.616 9.30081 15.9037 9.37776 16.2622C9.45471 16.6207 9.32929 16.9925 9.05095 17.2312C8.29948 17.8755 7.42776 18.3682 6.49346 18.7049C12.8242 20.3326 19.3317 15.0174 18.2131 8.16658C18.1607 7.84547 18.2677 7.51893 18.5001 7.2912C18.5845 7.20855 18.6663 7.12024 18.7453 7.02773C18.5985 7.05113 18.4488 7.06518 18.3 7.06518C18.0502 7.06518 17.8095 6.97168 17.6251 6.80309C16.6047 5.86978 15.2826 5.80886 14.2885 6.31641ZM21 5.00686C21.9468 5.3289 21.9466 5.32927 21.9466 5.32927L21.9462 5.33064L21.9453 5.33306L21.943 5.33993L21.9354 5.36157C21.929 5.37943 21.9202 5.40406 21.9088 5.43483C21.8862 5.49634 21.8533 5.58263 21.8106 5.68857C21.7252 5.89989 21.599 6.1924 21.4329 6.52411C21.1658 7.05712 20.7751 7.73314 20.2571 8.33708C21.403 17.7874 10.7523 24.4633 2.45534 19.0745C2.077 18.8288 1.91004 18.3602 2.04777 17.9306C2.18551 17.501 2.59383 17.2168 3.04452 17.2369C4.17475 17.2872 5.29155 17.0767 6.27087 16.6399C2.45015 14.4295 0.783918 9.44555 3.02552 5.40378C3.18402 5.11799 3.47218 4.92767 3.79726 4.89409C4.12234 4.8605 4.44332 4.98788 4.65691 5.23524C6.20658 7.02991 8.5077 8.17292 10.9041 8.3849C10.9599 6.63237 11.987 5.24585 13.3791 4.53514C14.9408 3.73781 16.9755 3.77956 18.6025 5.01629C18.6681 4.99957 18.7423 4.97796 18.8251 4.95054C19.0707 4.86921 19.3358 4.75582 19.5886 4.63448C19.8391 4.51423 20.0636 4.39292 20.2258 4.30137C20.3065 4.25583 20.3707 4.21827 20.4137 4.19269C20.4352 4.17992 20.4514 4.17018 20.4616 4.16397L20.4724 4.1574L20.4738 4.15654C20.8327 3.93452 21.2925 3.9616 21.6228 4.22443C21.953 4.4873 22.0826 4.92963 21.9466 5.32927L21 5.00686Z" fill="black"/>
</svg>
