<svg width="24" height="24" viewBox="0 0 24 24" fill="none" xmlns="http://www.w3.org/2000/svg">
<path fill-rule="evenodd" clip-rule="evenodd" d="M11.9188 4.58835C11.6582 4.22226 11.2056 3.95581 10.6746 4.00595C10.2136 4.04948 9.90973 4.35479 9.80531 4.45971L9.8027 4.46233C9.66669 4.59894 9.51335 4.783 9.36235 4.96424L6.80674 8.03046C6.77668 8.06652 6.75256 8.09546 6.73144 8.12048L5.46772 8.12051C5.27221 8.12046 5.06031 8.1204 4.877 8.13837C4.66525 8.15913 4.39959 8.21032 4.13522 8.37194C3.90123 8.51499 3.73349 8.72881 3.67086 8.80949C3.62225 8.8721 3.57669 8.93262 3.51059 9.04828C3.45736 9.14143 3.39067 9.2887 3.35577 9.39015C3.30961 9.52439 3.29008 9.62607 3.27437 9.70787L3.27214 9.71947C3.1852 10.1707 3 11.2104 3 12C3 12.8595 3.2203 14.0229 3.29603 14.4025C3.30779 14.4615 3.31954 14.5167 3.34944 14.6121C3.37119 14.6816 3.42215 14.8111 3.45352 14.8767L3.46262 14.8959L3.4675 14.9067C3.47356 14.9199 3.48201 14.9376 3.49285 14.9581C3.50348 14.9782 3.51275 14.994 3.51839 15.0034L3.52413 15.0129L3.52573 15.0155C3.67401 15.256 3.87834 15.4711 4.13522 15.6281C4.39959 15.7897 4.66525 15.8409 4.877 15.8617C5.06032 15.8797 5.27221 15.8796 5.46772 15.8796L6.73143 15.8796C6.75255 15.9046 6.77668 15.9335 6.80674 15.9696L9.36234 19.0358C9.51334 19.2171 9.66669 19.4011 9.8027 19.5377L9.80532 19.5404C9.90974 19.6453 10.2136 19.9506 10.6746 19.9941C11.2056 20.0443 11.6582 19.7778 11.9188 19.4117C12.1329 19.111 12.1683 18.7717 12.1824 18.6058C12.1989 18.4122 12.1998 18.1764 12.2 17.9345C12.3286 17.3462 13 14.1865 13 12C13 9.8136 12.3286 6.65386 12.2 6.06563C12.1998 5.8237 12.1989 5.58783 12.1824 5.39427C12.1683 5.2284 12.1329 4.88903 11.9188 4.58835ZM11 12C11 10.3539 10.5532 7.97511 10.3363 6.91946L8.34307 9.31096L8.31345 9.34668C8.20956 9.47226 8.06291 9.64953 7.87899 9.78475C7.71664 9.90412 7.53249 9.99723 7.33218 10.0549C7.09667 10.1228 6.85728 10.1215 6.7108 10.1207L6.66981 10.1205H5.5C5.38992 10.1205 5.30467 10.1206 5.23142 10.1218C5.14215 10.5887 5 11.435 5 12C5 12.5719 5.14471 13.4241 5.23144 13.8783C5.30469 13.8795 5.38994 13.8795 5.5 13.8795H6.66981L6.7108 13.8794C6.85729 13.8786 7.09667 13.8773 7.33218 13.9451C7.5325 14.0028 7.71664 14.096 7.87899 14.2153C8.06291 14.3505 8.20956 14.5278 8.31346 14.6534L8.34307 14.6891L10.3363 17.0806C10.5532 16.025 11 13.6462 11 12ZM5.29261 14.089C5.29309 14.0901 5.29419 14.0926 5.29493 14.0944L5.29261 14.089Z" fill="black"/>
<path d="M16.46 8.22C16.3054 7.68981 15.7502 7.38537 15.22 7.54002C14.6898 7.69467 14.3854 8.24984 14.54 8.78003C14.9001 10.0145 15 10.7141 15 12C15 13.286 14.9001 13.9855 14.54 15.22C14.3854 15.7502 14.6898 16.3054 15.22 16.46C15.7502 16.6147 16.3054 16.3102 16.46 15.78C16.8732 14.3636 17 13.4755 17 12C17 10.5245 16.8732 9.63645 16.46 8.22Z" fill="black"/>
</svg>
