<svg width="24" height="24" viewBox="0 0 24 24" fill="none" xmlns="http://www.w3.org/2000/svg">
<path d="M13 10C13 9.44772 12.5523 9 12 9C11.4477 9 11 9.44772 11 10V12C11 12.2652 11.1054 12.5196 11.2929 12.7071L12.2929 13.7071C12.6834 14.0976 13.3166 14.0976 13.7071 13.7071C14.0976 13.3166 14.0976 12.6834 13.7071 12.2929L13 11.5858V10Z" fill="black"/>
<path fill-rule="evenodd" clip-rule="evenodd" d="M10.6971 2.00032H13.2738C13.9355 1.99078 14.5902 2.1922 15.1243 2.58476C15.6572 2.97656 16.0428 3.54034 16.1893 4.19077L16.9065 7.00733C18.1986 8.27733 19 10.0451 19 12C19 13.9546 18.1989 15.7221 16.9071 16.9921L16.1954 19.8076C16.0503 20.4564 15.6681 21.0204 15.1376 21.4132C14.6061 21.8068 13.9535 22.0092 13.2934 21.9997H10.697C10.0369 22.0092 9.38431 21.8068 8.85276 21.4132C8.32183 21.0201 7.93949 20.4555 7.79466 19.806L7.09189 16.991C5.80069 15.7212 5 13.9541 5 12C5 10.0467 5.80008 8.28019 7.0904 7.01042L7.78051 4.19562C7.92623 3.54314 8.31235 2.97753 8.84667 2.58476C9.38071 2.1922 10.0354 1.99078 10.6971 2.00032ZM9.54425 18.5571L9.73852 19.3353C9.7411 19.3456 9.74352 19.356 9.74577 19.3664C9.77958 19.523 9.87624 19.6824 10.0429 19.8058C10.211 19.9303 10.4335 20.004 10.6714 19.9998L10.6891 19.9997H13.3013L13.3189 19.9998C13.5569 20.004 13.7794 19.9303 13.9475 19.8058C14.1141 19.6824 14.2108 19.523 14.2446 19.3664C14.2471 19.355 14.2497 19.3437 14.2526 19.3324L14.4478 18.5601C13.6859 18.8445 12.8611 19 12 19C11.1359 19 10.3084 18.8434 9.54425 18.5571ZM14.2473 4.66923L14.4431 5.43816C13.6825 5.15485 12.8593 5 12 5C11.1316 5 10.3002 5.15812 9.53291 5.44714L9.72574 4.66061C9.72783 4.65211 9.7298 4.64359 9.73166 4.63504C9.76534 4.4802 9.86206 4.32058 10.0312 4.19623C10.202 4.07069 10.4287 3.99592 10.6717 4.00017L10.6892 4.00032H13.2817L13.2992 4.00017C13.5422 3.99592 13.7689 4.07069 13.9397 4.19623C14.1089 4.32058 14.2056 4.4802 14.2393 4.63504C14.2418 4.64648 14.2444 4.65788 14.2473 4.66923ZM7 12C7 9.23858 9.23858 7 12 7C14.7614 7 17 9.23858 17 12C17 14.7614 14.7614 17 12 17C9.23858 17 7 14.7614 7 12Z" fill="black"/>
</svg>
