<svg width="24" height="24" viewBox="0 0 24 24" fill="none" xmlns="http://www.w3.org/2000/svg">
<path d="M7 10C7 9.44772 7.44772 9 8 9H9V8C9 7.44772 9.44772 7 10 7C10.5523 7 11 7.44772 11 8V9H12C12.5523 9 13 9.44772 13 10C13 10.5523 12.5523 11 12 11H11V12C11 12.5523 10.5523 13 10 13C9.44772 13 9 12.5523 9 12V11H8C7.44772 11 7 10.5523 7 10Z" fill="black"/>
<path fill-rule="evenodd" clip-rule="evenodd" d="M10 3C6.13401 3 3 6.13401 3 10C3 13.866 6.13401 17 10 17C11.5736 17 13.0259 16.4808 14.1949 15.6043C14.2127 15.6253 14.2315 15.6457 14.2513 15.6655L19.2929 20.7071C19.6834 21.0976 20.3166 21.0976 20.7071 20.7071C21.0976 20.3166 21.0976 19.6834 20.7071 19.2929L15.6655 14.2513C15.6457 14.2315 15.6253 14.2127 15.6043 14.1949C16.4808 13.0259 17 11.5736 17 10C17 6.13401 13.866 3 10 3ZM5 10C5 7.23858 7.23858 5 10 5C12.7614 5 15 7.23858 15 10C15 12.7614 12.7614 15 10 15C7.23858 15 5 12.7614 5 10Z" fill="black"/>
</svg>
