<svg width="24" height="24" viewBox="0 0 24 24" fill="none" xmlns="http://www.w3.org/2000/svg">
<path opacity="0.15" d="M18.3939 15.7578L18.8139 11.7675C18.8784 11.1554 18.9106 10.8493 18.8111 10.6126C18.7237 10.4047 18.5686 10.2324 18.371 10.1237C18.146 10 17.8382 10 17.2227 10H6.77726C6.16176 10 5.85401 10 5.62899 10.1237C5.43136 10.2324 5.27626 10.4047 5.18888 10.6126C5.0894 10.8493 5.12162 11.1554 5.18605 11.7675L5.60608 15.7578C5.74635 17.0903 5.81648 17.7566 6.13263 18.3066C6.39927 18.7705 6.84152 19.2004 7.31275 19.4538C7.8715 19.7543 8.49475 19.8021 9.74125 19.8977C10.5228 19.9577 11.3163 20 12 20C12.6837 20 13.4772 19.9577 14.2587 19.8977C15.5052 19.8021 16.1285 19.7543 16.6872 19.4538C17.1585 19.2004 17.6007 18.7705 17.8674 18.3066C18.1835 17.7566 18.2537 17.0903 18.3939 15.7578Z" fill="black"/>
<path fill-rule="evenodd" clip-rule="evenodd" d="M5.32798 3.37094C7.00772 3.22281 9.88002 3 12 3C14.12 3 16.9923 3.22281 18.672 3.37094L18.7007 3.37346C18.9158 3.3924 19.1298 3.41125 19.3124 3.44171C19.5166 3.47579 19.7507 3.53418 19.9861 3.66764C20.3513 3.8746 20.6458 4.1962 20.8199 4.57815C20.9327 4.82575 20.97 5.06587 20.9858 5.27251C21.0001 5.45824 21 5.67514 21 5.89436V5.95382C21 6.19635 21.0001 6.43262 20.9843 6.63289C20.9671 6.85261 20.9264 7.11219 20.7983 7.37537C20.6025 7.77754 20.2775 8.10248 19.8754 8.29826C19.6124 8.42626 19.3532 8.46701 19.1335 8.48431C18.9334 8.50006 18.6976 8.50003 18.4557 8.5H5.54435C5.30241 8.50003 5.06656 8.50006 4.86651 8.48431C4.64683 8.46701 4.38759 8.42626 4.12464 8.29826C3.72246 8.10248 3.39752 7.77754 3.20175 7.37537C3.07364 7.11219 3.03295 6.85261 3.01569 6.63289C2.99995 6.43261 2.99997 6.19638 3 5.95384V5.89436C2.99997 5.67513 2.99995 5.45824 3.01419 5.27251C3.03003 5.06587 3.06727 4.82575 3.18012 4.57815C3.35421 4.1962 3.6487 3.8746 4.01387 3.66764C4.24936 3.53418 4.48344 3.47579 4.68763 3.44171C4.87018 3.41125 5.08418 3.3924 5.29926 3.37347L5.32798 3.37094ZM12 5C9.97715 5 7.18326 5.21509 5.50367 5.3632C5.24838 5.38572 5.11338 5.39832 5.01683 5.41443L5.00912 5.41575L5.00834 5.42541C5.00069 5.52517 5 5.6637 5 5.9232C5 6.20813 5.00072 6.36402 5.00954 6.47621L5.01064 6.4894L5.02349 6.49048C5.13528 6.49928 5.29064 6.5 5.57498 6.5H18.425C18.7094 6.5 18.8647 6.49928 18.9765 6.49048L18.9894 6.4894L18.9905 6.47621C18.9993 6.36402 19 6.20813 19 5.9232C19 5.6637 18.9993 5.52517 18.9917 5.42541L18.9909 5.41575L18.9832 5.41443C18.8866 5.39832 18.7516 5.38572 18.4963 5.3632C16.8167 5.21509 14.0229 5 12 5Z" fill="black"/>
<path d="M4.88384 10.0067C5.43238 9.94259 5.92908 10.3353 5.99323 10.8838L6.55524 15.689C6.72191 17.114 6.79024 17.5238 6.97878 17.844C7.1563 18.1455 7.46121 18.4362 7.77084 18.5992C8.1016 18.7733 8.48048 18.8188 9.82146 18.9111C10.5884 18.9639 11.352 19 12 19C12.648 19 13.4116 18.9639 14.1785 18.9111C15.5195 18.8188 15.8984 18.7733 16.2292 18.5992C16.5388 18.4362 16.8437 18.1455 17.0212 17.844C17.2098 17.5238 17.2781 17.114 17.4448 15.689L18.0068 10.8838C18.0709 10.3353 18.5676 9.94259 19.1162 10.0067C19.6647 10.0709 20.0574 10.5676 19.9932 11.1161L19.4093 16.1095C19.2759 17.2585 19.175 18.128 18.7447 18.8587C18.3785 19.4807 17.7993 20.0329 17.1606 20.3691C16.4104 20.7638 15.5783 20.8205 14.4874 20.8947L14.3159 20.9064C13.5272 20.9607 12.7128 21 12 21C11.2872 21 10.4728 20.9607 9.68408 20.9064L9.51262 20.8947C8.42171 20.8205 7.58959 20.7638 6.83943 20.3691C6.2007 20.0329 5.62151 19.4807 5.25531 18.8587C4.82505 18.128 4.7241 17.2585 4.59069 16.1095L4.00677 11.1161C3.94262 10.5676 4.33529 10.0709 4.88384 10.0067Z" fill="black"/>
<path d="M10 11C9.44772 11 9 11.4477 9 12C9 12.5523 9.44772 13 10 13H14C14.5523 13 15 12.5523 15 12C15 11.4477 14.5523 11 14 11H10Z" fill="black"/>
</svg>
