<svg width="24" height="24" viewBox="0 0 24 24" fill="none" xmlns="http://www.w3.org/2000/svg">
<path d="M14.0437 15.7056C14.1449 16.2485 13.7869 16.7707 13.244 16.872L13.2247 16.8756L13.1729 16.885C13.1283 16.8931 13.0639 16.9047 12.9839 16.9188C12.824 16.9469 12.6005 16.9851 12.3456 17.0257C11.8436 17.1057 11.191 17.1997 10.661 17.2397C10.0613 17.2849 9.31543 17.284 8.74024 17.2735C8.44824 17.2682 8.19179 17.2602 8.00813 17.2535C7.91621 17.2502 7.84228 17.2472 7.79096 17.245L7.73146 17.2424L7.71566 17.2417C7.61441 17.2376 7.51675 17.2183 7.42503 17.1859C7.28814 17.1378 7.15963 17.0591 7.05018 16.9496C6.95033 16.8498 6.87602 16.734 6.82722 16.6106C6.81281 16.5742 6.80047 16.5367 6.79035 16.4982C6.77184 16.4283 6.76077 16.3555 6.75799 16.2807L6.75742 16.2683L6.7548 16.2088C6.7526 16.1575 6.7496 16.0836 6.74626 15.9916C6.7396 15.808 6.73162 15.5515 6.72629 15.2595C6.71579 14.6844 6.71487 13.9385 6.76013 13.3388C6.80014 12.8087 6.89408 12.1562 6.97409 11.6542C7.0147 11.3993 7.05293 11.1758 7.08103 11.0159C7.09509 10.9358 7.10666 10.8715 7.11477 10.8269L7.12423 10.7751L7.12771 10.7563C7.22899 10.2134 7.75132 9.85484 8.29424 9.95613C8.83714 10.0574 9.19515 10.5796 9.0939 11.1225L9.09114 11.1374L9.08257 11.1843C9.07508 11.2255 9.06419 11.2861 9.05085 11.362C9.02414 11.514 8.98775 11.7268 8.94917 11.9689C8.87076 12.4609 8.78793 13.0458 8.75446 13.4893C8.74591 13.6026 8.73925 13.7243 8.73417 13.8514L15.5355 7.05011C15.926 6.65959 16.5592 6.65959 16.9497 7.05011C17.3402 7.44064 17.3402 8.0738 16.9497 8.46432L10.1484 15.2656C10.2755 15.2606 10.3972 15.2539 10.5105 15.2453C10.954 15.2119 11.5389 15.129 12.0309 15.0506C12.273 15.0121 12.4858 14.9757 12.6378 14.949C12.7137 14.9356 12.7742 14.9247 12.8155 14.9172L12.8624 14.9087L12.8767 14.906C13.4196 14.8048 13.9424 15.1627 14.0437 15.7056Z" fill="black"/>
</svg>
