<svg width="24" height="24" viewBox="0 0 24 24" fill="none" xmlns="http://www.w3.org/2000/svg">
<path d="M16.0654 13.1751C16.5209 13.4874 16.637 14.1098 16.3247 14.5653L16.3136 14.5815L16.2837 14.6248C16.2578 14.6621 16.2205 14.7158 16.1739 14.7823C16.0806 14.9153 15.9497 15.1003 15.7982 15.3093C15.4997 15.7208 15.1047 16.2487 14.7582 16.6518C14.3662 17.1078 13.8381 17.6346 13.424 18.0339C13.2137 18.2366 13.0268 18.4123 12.8922 18.5374C12.8248 18.6001 12.7704 18.6502 12.7326 18.6849L12.6887 18.7252L12.677 18.7358C12.6025 18.8045 12.5198 18.8599 12.4321 18.9019C12.3012 18.9647 12.1547 18.9999 11.9999 18.9999C11.8587 18.9999 11.7243 18.9706 11.6025 18.9178C11.5666 18.9022 11.5313 18.8845 11.497 18.8644C11.4344 18.8281 11.3751 18.7844 11.3203 18.7335L11.3111 18.7251L11.2672 18.6849C11.2294 18.6502 11.175 18.6 11.1076 18.5374C10.973 18.4122 10.7861 18.2366 10.5758 18.0338C10.1617 17.6345 9.6336 17.1078 9.24156 16.6517C8.89505 16.2487 8.50007 15.7208 8.20163 15.3092C8.05012 15.1003 7.91915 14.9152 7.82593 14.7823C7.77928 14.7158 7.74197 14.6621 7.71613 14.6248L7.68622 14.5815L7.6754 14.5657C7.36311 14.1102 7.47892 13.4873 7.93444 13.1751C8.38994 12.8628 9.01234 12.9789 9.32464 13.4344L9.33323 13.4469L9.36031 13.4861C9.38419 13.5205 9.41931 13.5711 9.46356 13.6342C9.55216 13.7605 9.67685 13.9367 9.82078 14.1352C10.1132 14.5385 10.4683 15.0107 10.7582 15.348C10.8322 15.4341 10.9136 15.5249 10.9999 15.6184L10.9999 5.99988C10.9999 5.44759 11.4476 4.99988 11.9999 4.99988C12.5522 4.99988 12.9999 5.44759 12.9999 5.99988L12.9999 15.6184C13.0862 15.5249 13.1676 15.4341 13.2416 15.348C13.5315 15.0107 13.8866 14.5385 14.179 14.1352C14.3229 13.9367 14.4476 13.7606 14.5362 13.6342C14.5805 13.5711 14.6156 13.5206 14.6395 13.4861L14.6666 13.4469L14.6748 13.4349C14.9871 12.9794 15.6099 12.8628 16.0654 13.1751Z" fill="black"/>
</svg>
