<svg width="24" height="24" viewBox="0 0 24 24" fill="none" xmlns="http://www.w3.org/2000/svg">
<path opacity="0.15" fill-rule="evenodd" clip-rule="evenodd" d="M16.2415 14.778C16.6385 15.0506 17.1116 15.1995 17.6 15.1995C18.2365 15.1995 18.847 14.9466 19.2971 14.4966C19.7471 14.0465 20 13.436 20 12.7995V11.9995C19.9999 10.1939 19.389 8.44148 18.2666 7.02713C17.1443 5.61277 15.5764 4.61968 13.8181 4.20934C12.0598 3.799 10.2144 3.99554 8.58188 4.767C6.94942 5.53846 5.62592 6.83947 4.82661 8.45848C4.0273 10.0775 3.79918 11.9193 4.17934 13.6844C4.5595 15.4495 5.52559 17.0341 6.92051 18.1805C8.31543 19.3269 10.0572 19.9678 11.8625 19.9988C13.6678 20.0299 15.4305 19.4493 16.864 18.3515L16.2415 14.778ZM15 12C15 13.6569 13.6569 15 12 15C10.3431 15 9 13.6569 9 12C9 10.3431 10.3431 9 12 9C13.6569 9 15 10.3431 15 12Z" fill="black"/>
<path fill-rule="evenodd" clip-rule="evenodd" d="M14.0454 3.23551C12.0673 2.77387 9.99115 2.99498 8.15462 3.86287C6.31809 4.73076 4.82917 6.1944 3.92994 8.01579C3.03071 9.83718 2.77408 11.9092 3.20176 13.8949C3.62944 15.8807 4.71629 17.6633 6.28557 18.9531C7.85486 20.2428 9.81429 20.9637 11.8453 20.9987C13.8762 21.0336 15.8593 20.3804 17.472 19.1454C17.9105 18.8096 17.9937 18.182 17.6579 17.7435C17.3222 17.305 16.6945 17.2218 16.256 17.5576C15.0017 18.5181 13.4593 19.0261 11.8797 18.999C10.3 18.9718 8.776 18.4111 7.55545 17.4079C6.33489 16.4048 5.48957 15.0183 5.15693 13.4738C4.82429 11.9294 5.02389 10.3178 5.72329 8.90117C6.42269 7.48453 7.58074 6.34615 9.00915 5.67112C10.4376 4.9961 12.0523 4.82413 13.5909 5.18318C15.1294 5.54222 16.5012 6.41118 17.4833 7.64874C18.4653 8.88628 18.9999 10.4197 19 11.9996V12.7995C19 13.1708 18.8525 13.5269 18.59 13.7894C18.3274 14.052 17.9713 14.1995 17.6 14.1995C17.2287 14.1995 16.8726 14.052 16.6101 13.7894C16.3475 13.5269 16.2 13.1708 16.2 12.7995V8.7995C16.2 8.24722 15.7523 7.7995 15.2 7.7995C14.6934 7.7995 14.2748 8.1762 14.209 8.66477C13.576 8.2447 12.8166 8 12 8C9.79086 8 8 9.79086 8 12C8 14.2091 9.79086 16 12 16C13.1173 16 14.1275 15.5419 14.8533 14.8034C14.9563 14.9446 15.0707 15.0785 15.1958 15.2037C15.8335 15.8413 16.6983 16.1995 17.6 16.1995C18.5017 16.1995 19.3665 15.8413 20.0042 15.2037C20.6418 14.566 21 13.7012 21 12.7995V11.9994C20.9999 9.96816 20.3126 7.99667 19.0499 6.40552C17.7873 4.81437 16.0235 3.69714 14.0454 3.23551ZM10 12C10 10.8954 10.8954 10 12 10C13.1046 10 14 10.8954 14 12C14 13.1046 13.1046 14 12 14C10.8954 14 10 13.1046 10 12Z" fill="black"/>
</svg>
