<svg width="24" height="24" viewBox="0 0 24 24" fill="none" xmlns="http://www.w3.org/2000/svg">
<path fill-rule="evenodd" clip-rule="evenodd" d="M17.1102 5.58955C16.2793 4.80348 14.9104 4.80348 14.0795 5.58955L6.05575 13.1804C4.64808 14.5122 4.64808 16.6471 6.05575 17.9789C7.49488 19.3404 9.84992 19.3404 11.289 17.9789L19.3128 10.388C19.714 10.0085 20.3469 10.026 20.7264 10.4272C21.106 10.8284 21.0884 11.4613 20.6872 11.8409L12.6635 19.4317C10.4533 21.5228 6.89152 21.5228 4.68127 19.4317C2.43958 17.311 2.43958 13.8483 4.68127 11.7276L12.705 4.1367C14.307 2.6211 16.8826 2.6211 18.4847 4.1367C20.1181 5.68205 20.1181 8.21174 18.4847 9.75709L10.7756 17.0503C9.7818 17.9905 8.19231 17.9905 7.19852 17.0503C6.17328 16.0804 6.17328 14.4836 7.19852 13.5137L13.9636 7.11351C14.3648 6.73396 14.9977 6.7515 15.3773 7.1527C15.7568 7.55389 15.7393 8.18682 15.3381 8.56637L8.573 14.9665C8.38178 15.1474 8.38178 15.4165 8.573 15.5974C8.79567 15.8081 9.17844 15.8081 9.40111 15.5974L17.1102 8.30424C17.9096 7.54792 17.9096 6.34587 17.1102 5.58955Z" fill="black"/>
</svg>
