<svg width="24" height="24" viewBox="0 0 24 24" fill="none" xmlns="http://www.w3.org/2000/svg">
<path opacity="0.15" d="M4 8.83239C4 7.30773 4 6.54539 4.30109 5.92504C4.55942 5.39277 5.0041 4.9184 5.51858 4.62624C6.1182 4.28573 6.85116 4.23831 8.3171 4.14347C9.56734 4.06258 10.8925 4 12 4C13.1075 4 14.4327 4.06258 15.6829 4.14347C17.1488 4.23831 17.8818 4.28573 18.4814 4.62624C18.9959 4.9184 19.4406 5.39277 19.6989 5.92504C20 6.54539 20 7.30773 20 8.83239V15.1676C20 16.6923 20 17.4546 19.6989 18.075C19.4406 18.6072 18.9959 19.0816 18.4814 19.3738C17.8818 19.7143 17.1488 19.7617 15.6829 19.8565C14.4327 19.9374 13.1075 20 12 20C10.8925 20 9.56733 19.9374 8.3171 19.8565C6.85116 19.7617 6.1182 19.7143 5.51858 19.3738C5.0041 19.0816 4.55942 18.6072 4.30109 18.075C4 17.4546 4 16.6923 4 15.1676V8.83239Z" fill="black"/>
<path d="M15 11.5901V13C15 13.5523 15.4477 14 16 14C16.5523 14 17 13.5523 17 13V9C17 8.44772 16.5523 8 16 8H12.5714C12.0191 8 11.5714 8.44772 11.5714 9C11.5714 9.55228 12.0191 10 12.5714 10H13.7338L11.7421 12.2761L9.92288 11.4272C9.42444 11.1946 8.83172 11.4082 8.59626 11.9053L7.09628 15.0719C6.85986 15.5711 7.07282 16.1673 7.57194 16.4038C8.07106 16.6402 8.66734 16.4272 8.90376 15.9281L9.97811 13.66L11.5771 14.4062C11.9804 14.5944 12.4595 14.4934 12.7526 14.1585L15 11.5901Z" fill="black"/>
<path fill-rule="evenodd" clip-rule="evenodd" d="M8.25254 3.14556C9.51093 3.06414 10.8608 3 12 3C13.1392 3 14.4891 3.06414 15.7475 3.14556L15.788 3.14818C16.4865 3.19335 17.072 3.23122 17.5555 3.30381C18.0656 3.38039 18.5303 3.50403 18.9752 3.75667C19.6657 4.14875 20.2519 4.77408 20.5986 5.4884C20.8238 5.9524 20.916 6.43393 20.959 6.95783C21 7.45766 21 8.06403 21 8.79215V15.2078C21 15.9359 21 16.5423 20.959 17.0422C20.916 17.5661 20.8238 18.0476 20.5986 18.5116C20.2519 19.2259 19.6657 19.8512 18.9752 20.2433C18.5303 20.496 18.0656 20.6196 17.5555 20.6962C17.072 20.7688 16.4865 20.8066 15.7881 20.8518L15.7475 20.8544C14.4891 20.9359 13.1392 21 12 21C10.8608 21 9.51093 20.9359 8.25254 20.8544L8.21195 20.8518C7.51351 20.8067 6.92802 20.7688 6.4445 20.6962C5.93443 20.6196 5.46965 20.496 5.02477 20.2433C4.33432 19.8512 3.74814 19.2259 3.40145 18.5116C3.17625 18.0476 3.08397 17.5661 3.04099 17.0422C2.99998 16.5423 2.99999 15.936 3 15.2078V8.79217C2.99999 8.06405 2.99998 7.45767 3.04099 6.95783C3.08397 6.43393 3.17625 5.9524 3.40145 5.4884C3.74814 4.77408 4.33432 4.14875 5.02477 3.75667C5.46965 3.50403 5.93443 3.38039 6.4445 3.30381C6.92804 3.23122 7.51351 3.19335 8.21198 3.14818L8.25254 3.14556ZM12 5C10.9242 5 9.62375 5.06103 8.38166 5.14138C7.63212 5.18988 7.13145 5.22309 6.74144 5.28165C6.36864 5.33761 6.16713 5.40794 6.01239 5.49581C5.67387 5.68805 5.37071 6.01146 5.20073 6.36168C5.12484 6.51803 5.06658 6.72785 5.03429 7.12137C5.00078 7.52977 5 8.05378 5 8.83239V15.1676C5 15.9462 5.00078 16.4702 5.03429 16.8786C5.06658 17.2722 5.12484 17.482 5.20073 17.6383C5.37071 17.9885 5.67387 18.312 6.01239 18.5042C6.16713 18.5921 6.36864 18.6624 6.74144 18.7184C7.13145 18.7769 7.63212 18.8101 8.38166 18.8586C9.62375 18.939 10.9242 19 12 19C13.0758 19 14.3763 18.939 15.6183 18.8586C16.3679 18.8101 16.8686 18.7769 17.2586 18.7184C17.6314 18.6624 17.8329 18.5921 17.9876 18.5042C18.3261 18.312 18.6293 17.9885 18.7993 17.6383C18.8752 17.482 18.9334 17.2722 18.9657 16.8786C18.9992 16.4702 19 15.9462 19 15.1676V8.83239C19 8.05378 18.9992 7.52977 18.9657 7.12137C18.9334 6.72785 18.8752 6.51803 18.7993 6.36168C18.6293 6.01146 18.3261 5.68805 17.9876 5.49581C17.8329 5.40794 17.6314 5.33761 17.2586 5.28165C16.8686 5.22309 16.3679 5.18988 15.6183 5.14138C14.3763 5.06103 13.0758 5 12 5Z" fill="black"/>
</svg>
