<svg width="24" height="24" viewBox="0 0 24 24" fill="none" xmlns="http://www.w3.org/2000/svg">
<path opacity="0.15" d="M4 9H20V16.7923C20 18.3305 18.8376 19.6191 17.3041 19.7398C15.6742 19.8681 13.6077 20 12 20C10.3923 20 8.32582 19.8681 6.69586 19.7398C5.16239 19.6191 4 18.3305 4 16.7923V9Z" fill="black"/>
<path d="M7 13C7 12.4477 7.44772 12 8 12C8.55228 12 9 12.4477 9 13C9 13.5523 8.55228 14 8 14C7.44772 14 7 13.5523 7 13Z" fill="black"/>
<path d="M7 16C7 15.4477 7.44772 15 8 15C8.55228 15 9 15.4477 9 16C9 16.5523 8.55228 17 8 17C7.44772 17 7 16.5523 7 16Z" fill="black"/>
<path d="M12 15C11.4477 15 11 15.4477 11 16C11 16.5523 11.4477 17 12 17C12.5523 17 13 16.5523 13 16C13 15.4477 12.5523 15 12 15Z" fill="black"/>
<path d="M11 13C11 12.4477 11.4477 12 12 12C12.5523 12 13 12.4477 13 13C13 13.5523 12.5523 14 12 14C11.4477 14 11 13.5523 11 13Z" fill="black"/>
<path d="M16 12C15.4477 12 15 12.4477 15 13C15 13.5523 15.4477 14 16 14C16.5523 14 17 13.5523 17 13C17 12.4477 16.5523 12 16 12Z" fill="black"/>
<path d="M15 16C15 15.4477 15.4477 15 16 15C16.5523 15 17 15.4477 17 16C17 16.5523 16.5523 17 16 17C15.4477 17 15 16.5523 15 16Z" fill="black"/>
<path fill-rule="evenodd" clip-rule="evenodd" d="M9 3C9 2.44772 8.55228 2 8 2C7.44772 2 7 2.44772 7 3V4.23372C6.87002 4.24357 6.74234 4.25344 6.61738 4.26327C4.62068 4.42044 3.10608 6.0449 3.00534 8H3V16.7923C3 18.8389 4.55036 20.574 6.61738 20.7367C8.25175 20.8654 10.3509 21 12 21C13.6491 21 15.7482 20.8654 17.3826 20.7367C19.4496 20.574 21 18.8389 21 16.7923V8H20.9947C20.8939 6.0449 19.3793 4.42044 17.3826 4.26327C17.2577 4.25344 17.13 4.24357 17 4.23372V3C17 2.44772 16.5523 2 16 2C15.4477 2 15 2.44772 15 3V4.10007C13.9656 4.04133 12.9137 4 12 4C11.0863 4 10.0344 4.04133 9 4.10007V3ZM5 16.7923V10H19V16.7923C19 17.8221 18.2256 18.6642 17.2257 18.7429C15.6001 18.8708 13.5663 19 12 19C10.4337 19 8.39989 18.8708 6.77433 18.7429C5.77441 18.6642 5 17.8221 5 16.7923ZM5.01062 8C5.1066 7.06669 5.84255 6.33045 6.77433 6.25711C8.39989 6.12915 10.4337 6 12 6C13.5663 6 15.6001 6.12915 17.2257 6.25711C18.1574 6.33045 18.8934 7.06669 18.9894 8H5.01062Z" fill="black"/>
</svg>
