<svg width="24" height="24" viewBox="0 0 24 24" fill="none" xmlns="http://www.w3.org/2000/svg">
<path opacity="0.15" d="M4 9H20V16.7923C20 18.3305 18.8376 19.6191 17.3041 19.7398C15.6742 19.8681 13.6077 20 12 20C10.3923 20 8.32582 19.8681 6.69586 19.7398C5.16239 19.6191 4 18.3305 4 16.7923V9Z" fill="black"/>
<path fill-rule="evenodd" clip-rule="evenodd" d="M8 2C8.55228 2 9 2.44772 9 3V4.10007C10.0344 4.04133 11.0863 4 12 4C12.9137 4 13.9656 4.04133 15 4.10007V3C15 2.44772 15.4477 2 16 2C16.5523 2 17 2.44772 17 3V4.23372C17.13 4.24357 17.2577 4.25344 17.3826 4.26327C19.3793 4.42044 20.8939 6.0449 20.9947 8H21V16.7923C21 18.8389 19.4496 20.574 17.3826 20.7367C15.7482 20.8654 13.6491 21 12 21C10.3509 21 8.25175 20.8654 6.61738 20.7367C4.55036 20.574 3 18.8389 3 16.7923V8H3.00534C3.10608 6.0449 4.62068 4.42044 6.61738 4.26327C6.74234 4.25344 6.87002 4.24357 7 4.23372V3C7 2.44772 7.44772 2 8 2ZM5 10V16.7923C5 17.8221 5.77441 18.6642 6.77433 18.7429C8.39989 18.8708 10.4337 19 12 19C13.5663 19 15.6001 18.8708 17.2257 18.7429C18.2256 18.6642 19 17.8221 19 16.7923V10H5ZM6.77433 6.25711C5.84255 6.33045 5.1066 7.06669 5.01062 8H18.9894C18.8934 7.06669 18.1574 6.33045 17.2257 6.25711C15.6001 6.12915 13.5663 6 12 6C10.4337 6 8.39989 6.12915 6.77433 6.25711Z" fill="black"/>
</svg>
