<svg width="24" height="24" viewBox="0 0 24 24" fill="none" xmlns="http://www.w3.org/2000/svg">
<path opacity="0.15" fill-rule="evenodd" clip-rule="evenodd" d="M18.75 7.10003H16.1514L15 5.50003C14.8609 5.3053 14.6267 5.18833 14.376 5.18833C14.376 5.18833 12.9307 4.99135 12 5.00003C11.1673 5.00781 9.87596 5.18833 9.87596 5.18833C9.6252 5.18833 9.39102 5.3053 9.25192 5.50003L7.84861 7.10003H5.25C4.00736 7.10003 3 8.04024 3 9.20003V16.5C3 17.6598 4.00736 18.6 5.25 18.6C5.25 18.6 9.35934 19 12 19C14.6407 19 18.75 18.6 18.75 18.6C19.9926 18.6 21 17.6598 21 16.5V9.20003C21 8.04024 19.9926 7.10003 18.75 7.10003ZM15 13C15 14.6569 13.6569 16 12 16C10.3431 16 9 14.6569 9 13C9 11.3431 10.3431 10 12 10C13.6569 10 15 11.3431 15 13Z" fill="black"/>
<path fill-rule="evenodd" clip-rule="evenodd" d="M8 13C8 10.7909 9.79086 9 12 9C14.2091 9 16 10.7909 16 13C16 15.2091 14.2091 17 12 17C9.79086 17 8 15.2091 8 13ZM12 11C10.8954 11 10 11.8954 10 13C10 14.1046 10.8954 15 12 15C13.1046 15 14 14.1046 14 13C14 11.8954 13.1046 11 12 11Z" fill="black"/>
<path fill-rule="evenodd" clip-rule="evenodd" d="M12 9C9.79086 9 8 10.7909 8 13C8 15.2091 9.79086 17 12 17C14.2091 17 16 15.2091 16 13C16 10.7909 14.2091 9 12 9ZM10 13C10 11.8954 10.8954 11 12 11C13.1046 11 14 11.8954 14 13C14 14.1046 13.1046 15 12 15C10.8954 15 10 14.1046 10 13Z" fill="black"/>
<path fill-rule="evenodd" clip-rule="evenodd" d="M14.4409 4.18821L14.455 4.19007C14.982 4.21332 15.4912 4.46847 15.8124 4.91694L15.8137 4.91879L16.6638 6.10003H18.75C20.4788 6.10003 22 7.42409 22 9.20003V16.5C22 18.2581 20.5093 19.5734 18.8021 19.5996L18.7981 19.6L18.6609 19.6129C18.5419 19.624 18.3694 19.6398 18.1542 19.6587C17.7242 19.6965 17.1231 19.7469 16.4387 19.7973C15.0768 19.8977 13.3589 20 12 20C10.6411 20 8.92323 19.8977 7.56128 19.7973C6.87685 19.7469 6.27584 19.6965 5.84576 19.6587C5.63065 19.6398 5.45811 19.624 5.33906 19.6129L5.20193 19.6L5.19793 19.5996C3.49075 19.5734 2 18.2581 2 16.5V9.20003C2 7.42409 3.52118 6.10003 5.25 6.10003H7.39555L8.47428 4.87011C8.79629 4.45134 9.28708 4.2132 9.79467 4.19017L9.80022 4.18942C9.83917 4.18419 9.89513 4.17681 9.96463 4.16798C10.1034 4.15033 10.2973 4.12674 10.5184 4.10287C10.9513 4.05612 11.5227 4.00444 11.9907 4.00008C12.5137 3.99519 13.153 4.04713 13.6373 4.09596C13.8847 4.1209 14.1016 4.14608 14.2569 4.16506C14.3346 4.17456 14.3973 4.18254 14.4409 4.18821ZM12.0093 5.99999C12.417 5.99618 12.9657 6.03839 13.4367 6.08587C13.667 6.1091 13.8696 6.13261 14.0143 6.1503C14.0866 6.15913 14.1442 6.16647 14.1832 6.17154L14.2274 6.17735L14.2382 6.17879L14.241 6.17918L14.2584 6.18155L15.639 8.10003H18.75C19.5065 8.10003 20 8.65638 20 9.20003V16.5C20 17.0437 19.5065 17.6 18.75 17.6H18.7014L18.6526 17.6048L18.6083 17.609L18.4756 17.6215C18.3596 17.6323 18.1905 17.6478 17.9791 17.6664C17.5561 17.7036 16.9648 17.7532 16.2918 17.8027C14.9389 17.9024 13.2817 18 12 18C10.7183 18 9.0611 17.9024 7.70822 17.8027C7.03524 17.7532 6.44387 17.7036 6.02093 17.6664C5.80953 17.6478 5.6404 17.6323 5.5244 17.6215L5.39166 17.609L5.34687 17.6047L5.29855 17.6H5.25C4.49354 17.6 4 17.0437 4 16.5V9.20003C4 8.65638 4.49354 8.10003 5.25 8.10003H8.30167L9.98297 6.18309L10.0147 6.17865L10.0168 6.17836L10.0264 6.17703L10.0659 6.17168C10.1009 6.167 10.1523 6.16022 10.2169 6.15201C10.3462 6.13557 10.5272 6.11354 10.7331 6.09131C11.154 6.04586 11.6445 6.00339 12.0093 5.99999Z" fill="black"/>
</svg>
