<svg width="24" height="24" viewBox="0 0 24 24" fill="none" xmlns="http://www.w3.org/2000/svg">
<path opacity="0.15" d="M9.33407 6.01339C9.90577 6.00259 10.5363 5.99669 11.17 6.00195C11.0599 6.31418 11 6.65009 11 7C11 8.65685 12.3431 10 14 10C14 11.6569 15.3431 13 17 13C17.1579 13 17.313 12.9878 17.4643 12.9643L17.5 13C17.9258 12.929 18.5511 12.8097 19.1596 12.6652L18.9714 13.4605C18.7579 14.3628 17.9529 15 17.0257 15H10.4825C9.53524 15 8.71863 14.3354 8.52534 13.4081L7.47661 8.3765C7.22618 7.17498 8.10695 6.03658 9.33407 6.01339Z" fill="black"/>
<path d="M11.755 5.00998C10.9154 4.99339 10.0602 4.9995 9.31518 5.01358C9.10105 5.01763 8.89418 5.04389 8.69626 5.08992C8.4944 4.4636 8.22255 3.97391 7.84732 3.62128C7.19494 3.00821 6.43245 3 6 3H4C3.44772 3 3 3.44772 3 4C3 4.55228 3.44772 5 4 5H6C6.39417 5 6.43704 5.04041 6.47571 5.07686L6.47768 5.07872C6.56259 5.15851 6.76683 5.43775 6.94566 6.29919C6.51171 6.94039 6.32541 7.7542 6.49765 8.58056L7.54638 13.6121C7.83622 15.0027 9.06114 16 10.4825 16H17.0257C18.4168 16 19.6244 15.0438 19.9445 13.6908L20.2594 12.36C19.6359 12.5701 18.766 12.764 18.0773 12.8961L17.9983 13.2303C17.8914 13.6817 17.4889 14 17.0257 14H10.4825C10.0093 14 9.60104 13.6682 9.5043 13.2041L8.45557 8.17247C8.32892 7.56484 8.7722 7.0242 9.35296 7.01323C9.8721 7.00342 10.4347 6.997 11 7C11 6.23645 11.2853 5.53953 11.755 5.00998Z" fill="black"/>
<path d="M13.0016 7.05774C13.0015 7.05541 13.0014 7.05307 13.0013 7.05073C13.0004 7.03393 13 7.01701 13 7C13 6.44772 13.4477 6 14 6H16V4C16 3.44772 16.4477 3 17 3C17.5523 3 18 3.44772 18 4V6H20C20.5523 6 21 6.44772 21 7C21 7.19572 20.9438 7.3783 20.8466 7.53248C20.6695 7.81338 20.3566 8 20 8H18V10C18 10.5523 17.5523 11 17 11C16.4477 11 16 10.5523 16 10V8H14C13.4671 8 13.0316 7.58316 13.0016 7.05774Z" fill="black"/>
<path d="M9 19C9 17.896 9.896 17 11 17C12.104 17 13 17.896 13 19C13 20.104 12.104 21 11 21C9.896 21 9 20.104 9 19Z" fill="black"/>
<path d="M15 19C15 17.896 15.896 17 17 17C18.104 17 19 17.896 19 19C19 20.104 18.104 21 17 21C15.896 21 15 20.104 15 19Z" fill="black"/>
</svg>
