<svg width="24" height="24" viewBox="0 0 24 24" fill="none" xmlns="http://www.w3.org/2000/svg">
<path d="M14.5362 17.8863C15.0255 18.1424 15.6298 17.9533 15.8859 17.464C16.142 16.9747 15.9528 16.3704 15.4636 16.1143L15.4614 16.1131L15.4495 16.1068L15.3985 16.0795C15.353 16.0549 15.285 16.0178 15.199 15.9695C15.0266 15.8729 14.7827 15.7325 14.5007 15.5592C13.93 15.2087 13.2309 14.7406 12.6524 14.2425C12.1672 13.8247 11.4456 13.1046 10.8248 12.4656C10.6644 12.3005 10.5128 12.1429 10.3764 12.0003C10.5128 11.8577 10.6644 11.7001 10.8249 11.5349C11.4457 10.8959 12.1673 10.1758 12.6525 9.75801C13.231 9.25989 13.9301 8.79183 14.5008 8.44129C14.7828 8.26802 15.0267 8.12758 15.1991 8.031C15.2851 7.98277 15.3531 7.94565 15.3986 7.92103L15.4496 7.89369L15.4615 7.88741L15.4639 7.88614C15.9531 7.63 16.1421 7.0258 15.886 6.53654C15.6299 6.04722 15.0256 5.85815 14.5363 6.11425L14.5337 6.11562L14.5326 6.11619L14.5286 6.11832L14.511 6.12762L14.448 6.16141C14.3941 6.19051 14.3172 6.23258 14.2214 6.28622C14.0302 6.39338 13.7627 6.54743 13.4539 6.73716C12.8427 7.1126 12.0419 7.64454 11.3475 8.24247C10.7864 8.7256 10.008 9.50553 9.39041 10.1413C9.07697 10.4639 8.79692 10.7578 8.59524 10.9709C8.49434 11.0775 8.41289 11.1642 8.35651 11.2243L8.2914 11.2939L8.27639 11.31C8.21002 11.3794 8.15554 11.4563 8.11301 11.5379C7.92568 11.8968 7.97231 12.343 8.24502 12.6561C8.25264 12.6649 8.26045 12.6736 8.26843 12.6821L8.29131 12.7067L8.35642 12.7762C8.4128 12.8364 8.49425 12.923 8.59515 13.0296C8.79683 13.2428 9.07688 13.5366 9.39032 13.8592C10.008 14.495 10.7863 15.2749 11.3474 15.7581C12.0418 16.356 12.8426 16.8879 13.4538 17.2634C13.7626 17.4531 14.0301 17.6071 14.2213 17.7143C14.3171 17.7679 14.394 17.81 14.4479 17.8391L14.5109 17.8729L14.5285 17.8822L14.5336 17.8849L14.5362 17.8863Z" fill="black"/>
</svg>
