<svg width="24" height="24" viewBox="0 0 24 24" fill="none" xmlns="http://www.w3.org/2000/svg">
<path d="M6.11409 14.5364C5.858 15.0257 6.04706 15.63 6.53638 15.8861C7.02565 16.1421 7.62993 15.953 7.88607 15.4638L7.88725 15.4615L7.89354 15.4497L7.92087 15.3987C7.94549 15.3531 7.98261 15.2852 8.03084 15.1991C8.12742 15.0268 8.26787 14.7829 8.44113 14.5008C8.79167 13.9302 9.25973 13.2311 9.75785 12.6526C10.1757 12.1674 10.8957 11.4458 11.5347 10.825C11.6999 10.6645 11.8575 10.5129 12.0001 10.3765C12.1427 10.5129 12.3003 10.6646 12.4655 10.8251C13.1045 11.4459 13.8245 12.1675 14.2424 12.6527C14.7405 13.2311 15.2085 13.9303 15.5591 14.5009C15.7323 14.783 15.8728 15.0268 15.9694 15.1992C16.0176 15.2853 16.0547 15.3532 16.0793 15.3988L16.1067 15.4498L16.113 15.4616L16.1142 15.464C16.3704 15.9532 16.9746 16.1422 17.4638 15.8862C17.9531 15.6301 18.1422 15.0258 17.8861 14.5365L17.8847 14.5338L17.8842 14.5328L17.882 14.5287L17.8727 14.5111L17.839 14.4481C17.8099 14.3943 17.7678 14.3173 17.7141 14.2216C17.607 14.0303 17.4529 13.7629 17.2632 13.454C16.8878 12.8429 16.3558 12.042 15.7579 11.3476C15.2748 10.7866 14.4948 10.0082 13.8591 9.39056C13.5365 9.07712 13.2426 8.79707 13.0295 8.59539C12.9228 8.49449 12.8362 8.41304 12.7761 8.35666L12.7065 8.29156L12.6904 8.27654C12.621 8.21018 12.5441 8.15569 12.4624 8.11317C12.1035 7.92583 11.6574 7.97246 11.3443 8.24517C11.3355 8.2528 11.3268 8.2606 11.3182 8.26858L11.2937 8.29147L11.2241 8.35658C11.164 8.41296 11.0774 8.4944 10.9707 8.5953C10.7576 8.79698 10.4638 9.07704 10.1411 9.39047C9.50537 10.0081 8.72544 10.7865 8.24231 11.3475C7.64438 12.0419 7.11244 12.8428 6.737 13.454C6.54727 13.7628 6.39322 14.0303 6.28606 14.2215C6.23242 14.3172 6.19035 14.3942 6.16125 14.448L6.12747 14.5111L6.11816 14.5286L6.11547 14.5337L6.11409 14.5364Z" fill="black"/>
</svg>
