<svg width="24" height="24" viewBox="0 0 24 24" fill="none" xmlns="http://www.w3.org/2000/svg">
<path opacity="0.15" d="M12 21C7.02944 21 3 16.9706 3 12C3 7.02944 7.02944 3 12 3C16.9706 3 21 7.02944 21 12C21 16.9706 16.9706 21 12 21Z" fill="black"/>
<path d="M11 8C11 7.44771 11.4477 7 12 7C12.5523 7 13 7.44771 13 8C13 8.55228 12.5523 9 12 9C11.4477 9 11 8.55228 11 8Z" fill="black"/>
<path d="M11.2814 12.2497L10.676 14.675C10.5948 14.9995 10.6082 15.3412 10.7149 15.6583C10.8217 15.9755 11.0172 16.2555 11.2783 16.465C11.5394 16.6746 11.8551 16.8048 12.1879 16.8403C12.5208 16.8758 12.8569 16.8151 13.1563 16.6653L13.1649 16.661L13.2059 16.64C13.6974 16.3882 13.8918 15.7856 13.64 15.2941C13.458 14.9387 13.0927 14.7387 12.7186 14.7502L13.3242 12.3242C13.405 11.9996 13.3912 11.6579 13.2842 11.341C13.1772 11.0241 12.9816 10.7445 12.7207 10.5354C12.4597 10.3262 12.1442 10.1962 11.8116 10.1607C11.481 10.1255 11.1471 10.1852 10.8492 10.3328L10.8116 10.3512C10.3152 10.5933 10.1091 11.192 10.3512 11.6884C10.5293 12.0534 10.9002 12.2615 11.2814 12.2497Z" fill="black"/>
<path fill-rule="evenodd" clip-rule="evenodd" d="M12 22C6.47716 22 2 17.5228 2 12C2 6.47715 6.47715 2 12 2C17.5228 2 22 6.47715 22 12C22 17.5228 17.5228 22 12 22ZM20 12C20 16.4183 16.4183 20 12 20C7.58172 20 4 16.4183 4 12C4 7.58172 7.58172 4 12 4C16.4183 4 20 7.58172 20 12Z" fill="black"/>
</svg>
