<svg width="24" height="24" viewBox="0 0 24 24" fill="none" xmlns="http://www.w3.org/2000/svg">
<path opacity="0.15" d="M3 12C3 7.02944 7.02944 3 12 3C16.9706 3 21 7.02944 21 12C21 16.9706 16.9706 21 12 21C7.02944 21 3 16.9706 3 12Z" fill="black"/>
<path d="M11.7071 8.29289C11.3166 7.90237 10.6834 7.90237 10.2929 8.29289C9.90237 8.68342 9.90237 9.31658 10.2929 9.70711L12.5858 12L10.2929 14.2929C9.90237 14.6834 9.90237 15.3166 10.2929 15.7071C10.6834 16.0976 11.3166 16.0976 11.7071 15.7071L14.7071 12.7071C15.0976 12.3166 15.0976 11.6834 14.7071 11.2929L11.7071 8.29289Z" fill="black"/>
<path fill-rule="evenodd" clip-rule="evenodd" d="M2 12C2 6.47715 6.47715 2 12 2C17.5228 2 22 6.47715 22 12C22 17.5228 17.5228 22 12 22C6.47715 22 2 17.5228 2 12ZM12 20C7.58172 20 4 16.4183 4 12C4 7.58172 7.58172 4 12 4C16.4183 4 20 7.58172 20 12C20 16.4183 16.4183 20 12 20Z" fill="black"/>
</svg>
