<svg width="24" height="24" viewBox="0 0 24 24" fill="none" xmlns="http://www.w3.org/2000/svg">
<path opacity="0.15" d="M3 12C3 7.02944 7.02944 3 12 3C16.9706 3 21 7.02944 21 12C21 16.9706 16.9706 21 12 21C7.02944 21 3 16.9706 3 12Z" fill="black"/>
<path d="M15.8308 9.05658L15.8202 9.07261L15.7779 9.13725C15.7408 9.19416 15.6866 9.27776 15.6195 9.38284C15.485 9.59322 15.2991 9.88858 15.094 10.2275C14.6775 10.9158 14.2055 11.7454 13.9148 12.4038C13.6122 13.0893 13.309 14.0358 13.0759 14.8405C12.9611 15.2368 12.8663 15.5878 12.8004 15.8394C12.7674 15.965 12.7417 16.0656 12.7244 16.1342L12.7049 16.2122L12.7001 16.2317L12.6987 16.2372C12.611 16.5964 12.3322 16.8778 11.9738 16.969C11.6155 17.0602 11.2361 16.9462 10.9873 16.6726L8.26007 13.6726C7.88856 13.2639 7.91868 12.6315 8.32733 12.2599C8.73599 11.8884 9.36844 11.9186 9.73995 12.3272L11.2438 13.9815C11.4724 13.2159 11.7686 12.3131 12.0852 11.596C12.4303 10.8142 12.9583 9.8938 13.3829 9.19213C13.5983 8.8361 13.7932 8.52648 13.9344 8.30564C14.005 8.19511 14.0624 8.10653 14.1024 8.04517L14.1489 7.97413L14.1614 7.9551L14.1658 7.94844C14.4707 7.48799 15.0917 7.3612 15.5522 7.66615C16.0126 7.97109 16.1386 8.5916 15.8337 9.05205L15.8308 9.05658Z" fill="black"/>
<path fill-rule="evenodd" clip-rule="evenodd" d="M2 12C2 6.47715 6.47715 2 12 2C17.5228 2 22 6.47715 22 12C22 17.5228 17.5228 22 12 22C6.47715 22 2 17.5228 2 12ZM12 20C7.58172 20 4 16.4183 4 12C4 7.58172 7.58172 4 12 4C16.4183 4 20 7.58172 20 12C20 16.4183 16.4183 20 12 20Z" fill="black"/>
</svg>
