<svg width="24" height="24" viewBox="0 0 24 24" fill="none" xmlns="http://www.w3.org/2000/svg">
<path opacity="0.15" d="M12 21C16.9706 21 21 16.9706 21 12C21 7.02944 16.9706 3 12 3C7.02944 3 3 7.02944 3 12C3 16.9706 7.02944 21 12 21Z" fill="black"/>
<path fill-rule="evenodd" clip-rule="evenodd" d="M12 4C7.58172 4 4 7.58172 4 12C4 16.4183 7.58172 20 12 20C16.4183 20 20 16.4183 20 12C20 7.58172 16.4183 4 12 4ZM2 12C2 6.47715 6.47715 2 12 2C17.5228 2 22 6.47715 22 12C22 17.5228 17.5228 22 12 22C6.47715 22 2 17.5228 2 12ZM12.2154 8.52045C11.8197 8.45257 11.4128 8.52693 11.0666 8.73035C10.7205 8.93377 10.4576 9.25312 10.3243 9.63184C10.1411 10.1528 9.57015 10.4266 9.04916 10.2433C8.52817 10.0601 8.25439 9.48915 8.43767 8.96816C8.72763 8.14388 9.29995 7.44882 10.0533 7.00609C10.8066 6.56335 11.6923 6.40151 12.5535 6.54923C13.4147 6.69696 14.1959 7.1447 14.7586 7.81317C15.3212 8.4815 15.6292 9.32734 15.628 10.2009C15.6275 11.5419 14.5766 12.4724 13.8984 12.9552C13.5186 13.2256 13.1451 13.4333 12.87 13.5726C12.8478 13.5839 12.8262 13.5947 12.8052 13.6052C12.6225 13.8451 12.3338 14 12.009 14C11.4567 14 11.009 13.5523 11.009 13V12.871C11.009 12.4639 11.2557 12.0976 11.6328 11.9445L11.6341 11.9439L11.6478 11.9382C11.6613 11.9324 11.6834 11.9229 11.7128 11.9097C11.7719 11.8833 11.8596 11.8425 11.9664 11.7884C12.1824 11.679 12.4637 11.5216 12.7386 11.3259C13.3697 10.8766 13.628 10.4719 13.628 10.2L13.628 10.1985C13.6286 9.79704 13.4871 9.40831 13.2285 9.10118C12.97 8.79404 12.6111 8.58832 12.2154 8.52045ZM11 16.5C11 15.9477 11.4477 15.5 12 15.5H12.009C12.5613 15.5 13.009 15.9477 13.009 16.5C13.009 17.0523 12.5613 17.5 12.009 17.5H12C11.4477 17.5 11 17.0523 11 16.5Z" fill="black"/>
</svg>
