<svg width="24" height="24" viewBox="0 0 24 24" fill="none" xmlns="http://www.w3.org/2000/svg">
<path opacity="0.15" d="M3 14.8086C3 15.9202 3.43754 16.7944 4.21638 17.5805C4.99522 18.3665 5.89856 18.8081 7 18.8081C7 18.8081 10.0459 19 12 19C13.9541 19 17 18.8081 17 18.8081C17.8101 18.809 19.1303 18.7149 19.753 18.1919C20.3757 17.6688 20.7969 16.9419 20.9431 16.1377C21.0894 15.3335 20.9515 14.503 20.5534 13.7909C20.1553 13.0788 19.5224 12.5302 18.7647 12.2406C18.936 11.7491 18.9676 11.2189 18.8561 10.7102C18.7446 10.2014 18.4943 9.73423 18.1336 9.36143C17.7728 8.98864 17.316 8.72508 16.8147 8.60051C16.3134 8.47594 15.7875 8.49533 15.2965 8.65649C14.979 7.42703 14.1997 6.37058 13.1238 5.71087C12.0479 5.05115 10.7599 4.83997 9.53238 5.12205C8.30489 5.40413 7.23439 6.15731 6.54755 7.22211C5.86072 8.2869 5.61149 9.5797 5.85264 10.8267C5.02258 11.1032 4.30006 11.6369 3.7879 12.3518C3.27575 13.0667 3.00003 13.9264 3 14.8086Z" fill="black"/>
<path fill-rule="evenodd" clip-rule="evenodd" d="M4 15.2099C4.00002 15.8744 4.21925 16.3957 4.79193 16.9902C5.34692 17.5663 5.84988 17.7764 6.42661 17.7807C6.47511 17.781 6.53398 17.7824 6.60209 17.7867C6.95543 17.8092 10.0239 18 12 18C13.9748 18 17.0406 17.8094 17.3973 17.7868C17.4644 17.7825 17.5259 17.7808 17.5845 17.7807C17.97 17.78 18.426 17.7547 18.8238 17.682C19.0204 17.6461 19.1676 17.6048 19.2671 17.5668C19.301 17.5539 19.3233 17.5437 19.3361 17.5373C19.6568 17.2485 19.8856 16.8431 19.9674 16.3806C20.0517 15.9037 19.9708 15.4144 19.7465 15.0017C19.602 14.7358 19.4059 14.516 19.1796 14.3526C18.1723 13.6252 17.6457 12.4262 17.6896 11.2653C17.6937 11.1572 17.6844 11.0487 17.6618 10.9428C17.6128 10.7127 17.5044 10.5102 17.3584 10.3549C17.2129 10.2003 17.0369 10.0992 16.8544 10.0526C16.7871 10.0354 16.7191 10.0256 16.6514 10.023C15.5152 9.97911 14.1257 9.37398 13.4882 8.00272C13.1971 7.3765 12.7417 6.85724 12.1818 6.50407C11.4362 6.03381 10.5546 5.88817 9.71826 6.08585C8.88007 6.28397 8.12774 6.81818 7.63611 7.60213C7.24227 8.23014 7.04493 8.97361 7.07241 9.72708C7.11919 11.0099 6.41364 12.1564 5.37837 12.7506C5.04594 12.9414 4.74976 13.2103 4.5166 13.5451C4.18428 14.0222 4.00004 14.6049 4 15.2099ZM2 15.2098C2 16.4802 2.48616 17.4794 3.35153 18.3777C4.20924 19.2681 5.20284 19.7717 6.41195 19.7806C6.43352 19.7808 6.45364 19.7813 6.47517 19.7827C6.81782 19.8045 9.9498 20 12 20C14.0489 20 17.1781 19.8047 17.5242 19.7827C17.5461 19.7813 17.5662 19.7807 17.5881 19.7807C18.4907 19.7791 19.9309 19.667 20.6145 19.0764C21.3064 18.4787 21.7743 17.6479 21.9368 16.7288C22.0993 15.8097 21.9461 14.8606 21.5038 14.0467C21.2176 13.5201 20.8221 13.0717 20.3505 12.7311C19.9178 12.4187 19.668 11.8741 19.6882 11.3408C19.6984 11.0685 19.6751 10.7946 19.6179 10.5259C19.494 9.94444 19.2159 9.41054 18.8151 8.9845C18.4143 8.55845 17.9067 8.25723 17.3496 8.11487C17.1452 8.06262 16.9371 8.03254 16.7286 8.02448C16.1454 8.00196 15.5479 7.68878 15.3018 7.15956C14.8532 6.1947 14.1433 5.37661 13.2487 4.81242C12.0533 4.05846 10.6221 3.81711 9.2582 4.13949C7.89433 4.46186 6.70488 5.32264 5.94173 6.53955C5.33125 7.513 5.03192 8.65319 5.07374 9.79996C5.09184 10.2964 4.81364 10.7687 4.3828 11.016C3.79127 11.3555 3.27558 11.8275 2.87545 12.402C2.30638 13.2191 2.00004 14.2016 2 15.2098Z" fill="black"/>
</svg>
