<svg width="24" height="24" viewBox="0 0 24 24" fill="none" xmlns="http://www.w3.org/2000/svg">
<path opacity="0.15" d="M4 13.2539C4 14.771 4.92144 16.0927 6.22113 16.3136C7.11303 16.4653 8.01395 16.5819 8.92308 16.6635V20L12.3561 17.1006C12.5261 16.9049 12.7546 16.7922 12.9945 16.7858C14.5958 16.7403 16.1932 16.5826 17.7781 16.3136C19.0786 16.0927 20 14.7719 20 13.253V7.54702C20 6.02809 19.0786 4.70732 17.7789 4.4864C15.8654 4.16186 13.934 3.9993 12 4C10.0373 4 8.10749 4.16593 6.22113 4.4864C4.92144 4.70732 4 6.02904 4 7.54702V13.2539Z" fill="black"/>
<path d="M7 9C7 8.44772 7.44772 8 8 8H12.5C13.0523 8 13.5 8.44772 13.5 9C13.5 9.55228 13.0523 10 12.5 10H8C7.44772 10 7 9.55228 7 9Z" fill="black"/>
<path d="M8 11C7.44772 11 7 11.4477 7 12C7 12.5523 7.44772 13 8 13H15C15.5523 13 16 12.5523 16 12C16 11.4477 15.5523 11 15 11H8Z" fill="black"/>
<path fill-rule="evenodd" clip-rule="evenodd" d="M11.8415 17.9996C11.8948 17.9999 11.9476 18 12 18C13.3597 18 15.0223 17.9086 16.4748 17.8049C19.0619 17.6203 21 15.4471 21 12.8897V8.11033C21 5.55291 19.0619 3.37971 16.4748 3.19509C15.0223 3.09143 13.3597 3 12 3C10.6403 3 8.9777 3.09143 7.52515 3.19509C4.93811 3.37971 3 5.55291 3 8.11033V12.8897C3 15.2445 4.64316 17.2735 6.9231 17.7244V20C6.9231 20.3893 7.14892 20.7431 7.50193 20.907C7.85494 21.071 8.27098 21.0152 8.56833 20.764L11.8415 17.9996ZM12 5C10.7127 5 9.10661 5.08732 7.66751 5.19002C6.16306 5.29738 5 6.56584 5 8.11033V12.8897C5 14.4342 6.16306 15.7026 7.66751 15.81C8.07628 15.8392 8.49852 15.8671 8.9231 15.8921V17.8465L11.0904 15.9876C11.406 15.9956 11.711 16 12 16C13.2873 16 14.8934 15.9127 16.3325 15.81C17.8369 15.7026 19 14.4342 19 12.8897V8.11033C19 6.56584 17.8369 5.29738 16.3325 5.19002C14.8934 5.08732 13.2873 5 12 5Z" fill="black"/>
</svg>
