<svg width="24" height="24" viewBox="0 0 24 24" fill="none" xmlns="http://www.w3.org/2000/svg">
<g opacity="0.15">
<path d="M18.5148 19.834C19.4 19.6734 20 18.8768 20 17.9771L20 16.0229C20 15.1232 19.4 14.3266 18.5148 14.166C18.0102 14.0745 17.4586 14 17 14C16.5414 14 15.9898 14.0745 15.4852 14.166C14.6 14.3266 14 15.1232 14 16.0229L14 17.9771C14 18.8768 14.6 19.6734 15.4852 19.834C15.9898 19.9255 16.5414 20 17 20C17.4586 20 18.0102 19.9255 18.5148 19.834Z" fill="black"/>
<path d="M8.51476 9.83395C9.40003 9.67338 10 8.87679 10 7.97707L10 6.02293C10 5.12322 9.40003 4.32662 8.51476 4.16605C8.01024 4.07453 7.45857 4 7 4C6.54143 4 5.98976 4.07453 5.48524 4.16605C4.59997 4.32662 4 5.12322 4 6.02293L4 7.97707C4 8.87678 4.59997 9.67338 5.48524 9.83396C5.98976 9.92547 6.54143 10 7 10C7.45857 10 8.01024 9.92547 8.51476 9.83395Z" fill="black"/>
</g>
<path fill-rule="evenodd" clip-rule="evenodd" d="M18.6932 20.8179C18.1693 20.9129 17.5484 21 17 21C16.4516 21 15.8307 20.9129 15.3068 20.8179C13.8961 20.562 13 19.3078 13 17.9771L13 16.0229C13 14.6922 13.8961 13.438 15.3068 13.1821C15.8307 13.0871 16.4516 13 17 13C17.5484 13 18.1693 13.0871 18.6932 13.1821C20.1039 13.438 21 14.6922 21 16.0229L21 17.9771C21 19.3078 20.1039 20.562 18.6932 20.8179ZM17 19C17.3688 19 17.8512 18.938 18.3363 18.85C18.6961 18.7847 19 18.4457 19 17.9771L19 16.0229C19 15.5543 18.6961 15.2153 18.3363 15.15C17.8512 15.062 17.3688 15 17 15C16.6312 15 16.1488 15.062 15.6637 15.15C15.3039 15.2153 15 15.5543 15 16.0229L15 17.9771C15 18.4457 15.3039 18.7847 15.6637 18.85C16.1488 18.938 16.6312 19 17 19Z" fill="black"/>
<path fill-rule="evenodd" clip-rule="evenodd" d="M8.69324 10.8179C8.16933 10.9129 7.54837 11 7 11C6.45163 11 5.83067 10.9129 5.30676 10.8179C3.89607 10.562 3 9.30785 3 7.97707L3 6.02293C3 4.69215 3.89607 3.43798 5.30676 3.1821C5.83067 3.08707 6.45163 3 7 3C7.54837 3 8.16933 3.08707 8.69323 3.1821C10.1039 3.43798 11 4.69215 11 6.02293L11 7.97707C11 9.30785 10.1039 10.562 8.69324 10.8179ZM7 9C7.36877 9 7.85115 8.93801 8.33629 8.85001C8.69613 8.78474 9 8.44572 9 7.97707L9 6.02293C9 5.55428 8.69613 5.21526 8.33629 5.14999C7.85115 5.062 7.36877 5 7 5C6.63123 5 6.14884 5.062 5.66371 5.14999C5.30387 5.21526 5 5.55428 5 6.02293L5 7.97707C5 8.44572 5.30387 8.78474 5.66371 8.85001C6.14884 8.93801 6.63123 9 7 9Z" fill="black"/>
<path d="M16 10C16 10.5523 16.4477 11 17 11C17.5523 11 18 10.5523 18 10L18 8C18 6.89543 17.1046 6 16 6L14 6C13.4477 6 13 6.44772 13 7C13 7.55228 13.4477 8 14 8L16 8L16 10Z" fill="black"/>
</svg>
