<svg width="24" height="24" viewBox="0 0 24 24" fill="none" xmlns="http://www.w3.org/2000/svg">
<path opacity="0.15" d="M12 4.99991C9.65037 4.99991 7.98262 4.23014 6.00399 5.49734C5.07336 6.09336 4.47649 6.637 4.01521 7.5105C3.49131 8.50261 3.40529 9.81172 3.23327 12.4299L3.00696 15.8744C2.89599 17.5633 4.12639 18.9999 5.68388 18.9999C6.48036 18.9999 7.2357 18.6153 7.74559 17.9501C7.74559 17.9501 8.49616 16.9913 8.49616 16.9913C8.59238 16.8758 8.68427 16.771 8.74387 16.7159C9.12061 16.3671 9.57668 16.1349 10.0643 16.0435C10.6873 15.9268 11.2439 15.9999 12 15.9999C12.7561 15.9999 13.3127 15.9268 13.9357 16.0435C14.4233 16.1349 14.8794 16.3671 15.2561 16.7159C15.3157 16.771 15.4076 16.8758 15.5038 16.9913C15.5038 16.9913 16.2544 17.9501 16.2544 17.9501C16.7643 18.6153 17.5196 18.9999 18.3161 18.9999C19.8736 18.9999 21.104 17.5633 20.993 15.8744L20.7667 12.4299C20.5947 9.81172 20.5087 8.50261 19.9848 7.5105C19.5235 6.637 18.9266 6.09336 17.996 5.49734C16.0174 4.23014 14.3496 4.99991 12 4.99991Z" fill="black"/>
<path d="M8.32064 8.00012C8.87292 8.00012 9.32064 8.44784 9.32064 9.00012V10.0001H10.1603C10.7126 10.0001 11.1603 10.4478 11.1603 11.0001C11.1603 11.5524 10.7126 12.0001 10.1603 12.0001H9.32064V13.0001C9.32064 13.5524 8.87292 14.0001 8.32064 14.0001C7.76835 14.0001 7.32064 13.5524 7.32064 13.0001V12.0001H6.48096C5.92867 12.0001 5.48096 11.5524 5.48096 11.0001C5.48096 10.4478 5.92867 10.0001 6.48096 10.0001H7.32064V9.00012C7.32064 8.44784 7.76835 8.00012 8.32064 8.00012Z" fill="black"/>
<path d="M16.519 10.0001C16.519 9.44784 16.9668 9.00012 17.519 9.00012H17.5282C18.0805 9.00012 18.5282 9.44784 18.5282 10.0001C18.5282 10.5524 18.0805 11.0001 17.5282 11.0001H17.519C16.9668 11.0001 16.519 10.5524 16.519 10.0001Z" fill="black"/>
<path d="M13.7595 12.0001C13.7595 11.4478 14.2072 11.0001 14.7595 11.0001H14.7687C15.321 11.0001 15.7687 11.4478 15.7687 12.0001C15.7687 12.5524 15.321 13.0001 14.7687 13.0001H14.7595C14.2072 13.0001 13.7595 12.5524 13.7595 12.0001Z" fill="black"/>
<path fill-rule="evenodd" clip-rule="evenodd" d="M18.5353 4.65545C17.325 3.88029 16.1942 3.73544 15.1016 3.77426C14.6602 3.78995 14.2083 3.83671 13.7788 3.88114C13.7015 3.88914 13.6249 3.89707 13.5492 3.90472C13.0383 3.95641 12.5348 4.00012 12 4.00012C11.4652 4.00012 10.9617 3.95641 10.4508 3.90472C10.3751 3.89706 10.2985 3.88914 10.2212 3.88114C9.79174 3.83671 9.33985 3.78995 8.89838 3.77426C7.80581 3.73544 6.67502 3.88029 5.46467 4.65545C4.44869 5.30613 3.70069 5.96483 3.13094 7.04375C2.79211 7.68537 2.61793 8.3897 2.50186 9.22262C2.38831 10.0374 2.32182 11.0495 2.23799 12.3256L2.00911 15.8091C1.86603 17.9867 3.46363 20.0001 5.68389 20.0001C6.80989 20.0001 7.85164 19.4557 8.53925 18.5587C8.53588 18.5631 8.65689 18.4085 8.80617 18.2178L9.01039 17.9569C9.1624 17.7627 9.27511 17.6188 9.26432 17.6317C9.30818 17.5791 9.34733 17.5334 9.37956 17.4973C9.40819 17.4653 9.42189 17.4514 9.42384 17.4493C9.66722 17.2242 9.953 17.082 10.2485 17.0266C10.4679 16.9855 10.689 16.9747 10.9704 16.9781C11.0531 16.979 11.1705 16.9824 11.3034 16.9863C11.522 16.9926 11.7827 17.0001 12 17.0001C12.2173 17.0001 12.4779 16.9926 12.6966 16.9863C12.8294 16.9824 12.9469 16.979 13.0296 16.9781C13.311 16.9747 13.5321 16.9855 13.7515 17.0266C14.0473 17.082 14.3334 17.2248 14.5769 17.4502C14.5811 17.4545 14.595 17.4688 14.6204 17.4973C14.6527 17.5334 14.6918 17.5791 14.7357 17.6317C14.7249 17.6188 14.8379 17.7632 14.9903 17.9578L15.1883 18.2106C15.3401 18.4046 15.4642 18.5631 15.4608 18.5587C16.1484 19.4557 17.1901 20.0001 18.3161 20.0001C20.5364 20.0001 22.134 17.9867 21.9909 15.8091L21.762 12.3256C21.6782 11.0495 21.6117 10.0374 21.4981 9.22262C21.3821 8.3897 21.2079 7.68537 20.8691 7.04375C20.2993 5.96483 19.5513 5.30613 18.5353 4.65545ZM12 6.00012C12.6401 6.00012 13.2261 5.94761 13.7505 5.89456C13.8355 5.88597 13.9181 5.87745 13.9987 5.86914C14.4299 5.8247 14.8046 5.78608 15.1726 5.773C15.996 5.74374 16.6884 5.84761 17.4567 6.33965C18.302 6.881 18.7477 7.30958 19.1005 7.97768C19.2856 8.32816 19.4164 8.77444 19.5173 9.49865C19.6196 10.2327 19.6819 11.172 19.7689 12.4957L19.9952 15.9402C20.0741 17.1404 19.2108 18.0001 18.3161 18.0001C17.8492 18.0001 17.3802 17.7753 17.0481 17.3419L16.577 16.7401C16.4278 16.5495 16.2829 16.3643 16.272 16.3512C16.1802 16.2411 16.0494 16.0877 15.9355 15.9822C15.4255 15.5101 14.7994 15.1881 14.1198 15.0608C13.7162 14.9852 13.3476 14.9742 13.0059 14.9782C12.8266 14.9803 12.6885 14.9849 12.5548 14.9893C12.3871 14.9948 12.2263 15.0001 12 15.0001C11.7737 15.0001 11.613 14.9948 11.4453 14.9893C11.3116 14.9849 11.1734 14.9803 10.9941 14.9782C10.6524 14.9742 10.2838 14.9852 9.88018 15.0608C9.20062 15.1881 8.57449 15.5101 8.06452 15.9822C7.95059 16.0877 7.81976 16.2411 7.728 16.3512C7.71711 16.3643 7.57245 16.5491 7.42336 16.7396L6.95194 17.3419C6.61977 17.7753 6.15085 18.0001 5.68389 18.0001C4.78917 18.0001 3.92596 17.1403 4.00481 15.9402L4.23112 12.4957C4.3181 11.172 4.38043 10.2327 4.48272 9.49865C4.58364 8.77444 4.71441 8.32816 4.89949 7.97768C5.2523 7.30958 5.69804 6.881 6.54331 6.33965C7.31159 5.84761 8.00399 5.74374 8.82736 5.773C9.19543 5.78608 9.56966 5.82466 10.0008 5.8691C10.0816 5.87742 10.1644 5.88596 10.2495 5.89456C10.7739 5.94761 11.3599 6.00012 12 6.00012Z" fill="black"/>
</svg>
