<svg width="24" height="24" viewBox="0 0 24 24" fill="none" xmlns="http://www.w3.org/2000/svg">
<path opacity="0.15" d="M12 8.8C15.866 8.8 19 7.72548 19 6.4C19 5.07452 15.866 4 12 4C8.13401 4 5 5.07452 5 6.4C5 7.72548 8.13401 8.8 12 8.8Z" fill="black"/>
<path fill-rule="evenodd" clip-rule="evenodd" d="M12 3C9.98703 3 8.12237 3.27822 6.72593 3.757C6.03259 3.99472 5.39981 4.30036 4.92039 4.68898C4.44927 5.07087 4 5.64299 4 6.4C4 7.15701 4.44927 7.72913 4.92039 8.11102C5.39981 8.49964 6.03259 8.80528 6.72593 9.043C8.12237 9.52178 9.98703 9.8 12 9.8C14.013 9.8 15.8776 9.52178 17.2741 9.043C17.9674 8.80528 18.6002 8.49964 19.0796 8.11102C19.5507 7.72913 20 7.15701 20 6.4C20 5.64299 19.5507 5.07087 19.0796 4.68898C18.6002 4.30036 17.9674 3.99472 17.2741 3.757C15.8776 3.27822 14.013 3 12 3ZM6.1798 6.24265C6.0924 6.31349 6.04499 6.36628 6.01997 6.4C6.04499 6.43372 6.0924 6.48651 6.1798 6.55735C6.40882 6.743 6.80117 6.95451 7.37458 7.15111C8.51163 7.54096 10.147 7.8 12 7.8C13.853 7.8 15.4884 7.54096 16.6254 7.15111C17.1988 6.95451 17.5912 6.743 17.8202 6.55735C17.9076 6.48651 17.955 6.43371 17.98 6.4C17.955 6.36628 17.9076 6.31349 17.8202 6.24265C17.5912 6.057 17.1988 5.84549 16.6254 5.64889C15.4884 5.25904 13.853 5 12 5C10.147 5 8.51163 5.25904 7.37458 5.64889C6.80117 5.84549 6.40882 6.057 6.1798 6.24265ZM18.0055 6.44274L18.0061 6.44402C18.0063 6.44401 18.0058 6.44225 18.0042 6.43876L18.0055 6.44274Z" fill="black"/>
<path d="M5 9C5.51853 9 5.94488 9.39466 5.99506 9.89999C6.02382 9.93381 6.09273 10.0025 6.24226 10.1023C6.56082 10.3148 7.06399 10.5391 7.71477 10.7426C9.00778 11.147 10.6572 11.4 12 11.4C13.3428 11.4 14.9922 11.147 16.2852 10.7426C16.936 10.5391 17.4392 10.3148 17.7577 10.1023C17.9073 10.0025 17.9762 9.93381 18.0049 9.89999C18.0551 9.39466 18.4815 9 19 9C19.5523 9 20 9.44772 20 10C20 10.866 19.3526 11.4426 18.8675 11.7661C18.3251 12.1279 17.6202 12.4207 16.8822 12.6515C15.3977 13.1157 13.5471 13.4 12 13.4C10.4529 13.4 8.60234 13.1157 7.11782 12.6515C6.37984 12.4207 5.67486 12.1279 5.13246 11.7661C4.64745 11.4426 4 10.866 4 10C4 9.44772 4.44772 9 5 9Z" fill="black"/>
<path fill-rule="evenodd" clip-rule="evenodd" d="M5.99952 13.9687C5.98298 13.4309 5.54181 13 5 13C4.44772 13 4 13.4477 4 14C4 14.757 4.44927 15.3291 4.92039 15.711C5.39981 16.0996 6.03259 16.4053 6.72593 16.643C8.12237 17.1218 9.98703 17.4 12 17.4C14.013 17.4 15.8776 17.1218 17.2741 16.643C17.9674 16.4053 18.6002 16.0996 19.0796 15.711C19.5507 15.3291 20 14.757 20 14C20 13.4477 19.5523 13 19 13C18.4582 13 18.017 13.4309 18.0005 13.9687C17.9866 13.9942 17.9427 14.0581 17.8202 14.1574C17.5912 14.343 17.1988 14.5545 16.6254 14.7511C15.4884 15.141 13.853 15.4 12 15.4C10.147 15.4 8.51163 15.141 7.37458 14.7511C6.80117 14.5545 6.40882 14.343 6.1798 14.1574C6.05732 14.0581 6.01337 13.9942 5.99952 13.9687Z" fill="black"/>
<path fill-rule="evenodd" clip-rule="evenodd" d="M5 17C5.54181 17 5.98298 17.4309 5.99952 17.9687C6.01337 17.9942 6.05732 18.0581 6.1798 18.1574C6.40882 18.343 6.80117 18.5545 7.37458 18.7511C8.51163 19.141 10.147 19.4 12 19.4C13.853 19.4 15.4884 19.141 16.6254 18.7511C17.1988 18.5545 17.5912 18.343 17.8202 18.1574C17.9427 18.0581 17.9866 17.9942 18.0005 17.9687C18.017 17.4309 18.4582 17 19 17C19.5523 17 20 17.4477 20 18C20 18.757 19.5507 19.3291 19.0796 19.711C18.6002 20.0996 17.9674 20.4053 17.2741 20.643C15.8776 21.1218 14.013 21.4 12 21.4C9.98703 21.4 8.12237 21.1218 6.72593 20.643C6.03259 20.4053 5.39981 20.0996 4.92039 19.711C4.44927 19.3291 4 18.757 4 18C4 17.4477 4.44772 17 5 17Z" fill="black"/>
</svg>
