<svg width="24" height="24" viewBox="0 0 24 24" fill="none" xmlns="http://www.w3.org/2000/svg">
<path opacity="0.15" d="M3.91667 15L21 15V11C21 11 19.1176 8.70219 18 7.99997C16.667 7.16244 14 7.49997 14 7.49997V7C14 5.99545 13.1796 5.18182 12.1667 5.18182C12.1667 5.18182 9.93368 5 8.5 5C7.06632 5 4.83333 5.18182 4.83333 5.18182C3.82042 5.18182 3 5.99545 3 7V14.0909C3 14.5927 3.41067 15 3.91667 15Z" fill="black"/>
<path fill-rule="evenodd" clip-rule="evenodd" d="M14.9435 6.43625C14.6833 5.15874 13.5563 4.20261 12.2107 4.18215L12.1455 4.17702C12.0804 4.17195 11.9861 4.16474 11.8687 4.1561C11.634 4.13884 11.306 4.11583 10.9325 4.0928C10.1912 4.04711 9.24913 4 8.5 4C7.75087 4 6.80878 4.04711 6.06752 4.0928C5.69399 4.11583 5.36602 4.13884 5.13128 4.1561C5.01385 4.16474 4.9196 4.17195 4.85446 4.17702L4.78928 4.18215C3.25198 4.20553 2 5.45014 2 7V14.0909C2 14.905 2.50915 15.593 3.22011 15.8697C3.07819 16.2185 3 16.6001 3 17C3 18.6573 4.34272 20 6 20C7.65728 20 9 18.6573 9 17C9 16.6493 8.93989 16.3128 8.8294 16H14C14.0026 16 14.0053 16 14.0079 16H14.1706C14.0601 16.3127 14 16.6493 14 17C14 18.6573 15.3427 20 17 20C18.6573 20 20 18.6573 20 17C20 16.6493 19.9399 16.3127 19.8294 16H21C21.5523 16 22 15.5523 22 15V11C22 10.7689 21.92 10.545 21.7736 10.3662L21.7667 10.3579L21.7492 10.3367C21.7341 10.3184 21.7122 10.2921 21.6843 10.2586C21.6283 10.1916 21.5478 10.096 21.4479 9.97939C21.2484 9.74656 20.9699 9.42792 20.6545 9.08561C20.0535 8.43349 19.2198 7.58539 18.532 7.15323C17.6188 6.57946 16.3779 6.45699 15.5245 6.43619C15.319 6.43118 15.1233 6.432 14.9435 6.43625ZM4.91449 6.17852C4.88749 6.18072 4.86042 6.18182 4.83333 6.18182C4.36486 6.18182 4 6.55555 4 7V14H13V7C13 6.55555 12.6351 6.18182 12.1667 6.18182C12.1396 6.18182 12.1125 6.18072 12.0855 6.17852L12.0618 6.17661L11.9903 6.17099C11.9277 6.16612 11.8363 6.15912 11.722 6.15071C11.4933 6.13389 11.1734 6.11145 10.8094 6.08902C10.0758 6.0438 9.18455 6 8.5 6C7.81545 6 6.92421 6.0438 6.19056 6.08902C5.82663 6.11145 5.50675 6.13389 5.27799 6.15071C5.16368 6.15912 5.07228 6.16612 5.0097 6.17099L4.93823 6.17661L4.91449 6.17852ZM15 8.43547V14H20V11.3637L19.929 11.2805C19.7406 11.0606 19.4786 10.7609 19.1838 10.441C18.5641 9.76866 17.8978 9.11677 17.468 8.8467C17.0482 8.58294 16.2891 8.45542 15.4758 8.4356C15.3086 8.43152 15.1483 8.4321 15 8.43547ZM5 17C5 16.4473 5.44728 16 6 16C6.55272 16 7 16.4473 7 17C7 17.5527 6.55272 18 6 18C5.44728 18 5 17.5527 5 17ZM17 16C16.4473 16 16 16.4473 16 17C16 17.5527 16.4473 18 17 18C17.5527 18 18 17.5527 18 17C18 16.4473 17.5527 16 17 16Z" fill="black"/>
</svg>
