<svg width="24" height="24" viewBox="0 0 24 24" fill="none" xmlns="http://www.w3.org/2000/svg">
<path opacity="0.15" d="M8.83239 20C7.30773 20 6.54539 20 5.92504 19.6989C5.39277 19.4406 4.9184 18.9959 4.62624 18.4814C4.28573 17.8818 4.23831 17.1488 4.14347 15.6829C4.06258 14.4327 4 13.1075 4 12C4 10.8925 4.06258 9.56734 4.14347 8.3171C4.23831 6.85116 4.28573 6.1182 4.62624 5.51858C4.9184 5.0041 5.39277 4.55942 5.92504 4.30109C6.54539 4 7.30773 4 8.83239 4L15.1676 4C16.6923 4 17.4546 4 18.075 4.30109C18.6072 4.55942 19.0816 5.00409 19.3738 5.51858C19.7143 6.1182 19.7617 6.85116 19.8565 8.3171C19.9374 9.56733 20 10.8925 20 12C20 13.1075 19.9374 14.4327 19.8565 15.6829C19.7617 17.1488 19.7143 17.8818 19.3738 18.4814C19.0816 18.9959 18.6072 19.4406 18.075 19.6989C17.4546 20 16.6923 20 15.1676 20L8.83239 20Z" fill="black"/>
<path d="M7 16C7 16.5523 7.44772 17 8 17C8.55228 17 9 16.5523 9 16L9 8C9 7.44771 8.55228 7 8 7C7.44771 7 7 7.44771 7 8L7 16Z" fill="black"/>
<path fill-rule="evenodd" clip-rule="evenodd" d="M3 12C3 13.1392 3.06414 14.4891 3.14556 15.7475L3.14818 15.788C3.19335 16.4865 3.23122 17.072 3.30381 17.5555C3.38039 18.0656 3.50403 18.5303 3.75667 18.9752C4.14875 19.6657 4.77408 20.2519 5.4884 20.5985C5.9524 20.8238 6.43393 20.916 6.95783 20.959C7.45767 21 8.06404 21 8.79216 21L15.2078 21C15.936 21 16.5423 21 17.0422 20.959C17.5661 20.916 18.0476 20.8237 18.5116 20.5985C19.2259 20.2519 19.8512 19.6657 20.2433 18.9752C20.496 18.5303 20.6196 18.0656 20.6962 17.5555C20.7688 17.072 20.8066 16.4865 20.8518 15.7881L20.8544 15.7475C20.9359 14.4891 21 13.1392 21 12C21 10.8608 20.9359 9.51092 20.8544 8.25254L20.8518 8.21194C20.8067 7.51351 20.7688 6.92801 20.6962 6.4445C20.6196 5.93443 20.496 5.46965 20.2433 5.02477C19.8512 4.33432 19.2259 3.74814 18.5116 3.40145C18.0476 3.17625 17.5661 3.08397 17.0422 3.04098C16.5423 2.99997 15.936 2.99998 15.2078 3L8.79219 3C8.06406 2.99998 7.45767 2.99997 6.95783 3.04098C6.43393 3.08397 5.9524 3.17625 5.4884 3.40145C4.77408 3.74814 4.14875 4.33432 3.75667 5.02477C3.50403 5.46965 3.38039 5.93443 3.30381 6.4445C3.23122 6.92804 3.19335 7.51351 3.14818 8.21199L3.14556 8.25254C3.06414 9.51092 3 10.8608 3 12ZM5.14138 15.6183C5.06103 14.3763 5 13.0758 5 12C5 10.9242 5.06103 9.62374 5.14138 8.38166C5.18987 7.63212 5.22309 7.13144 5.28164 6.74144C5.33761 6.36864 5.40794 6.16712 5.49581 6.01238C5.68804 5.67387 6.01145 5.3707 6.36168 5.20072C6.51803 5.12484 6.72784 5.06657 7.12137 5.03429C7.52977 5.00078 8.05378 5 8.83239 5L15.1676 5C15.9462 5 16.4702 5.00078 16.8786 5.03428C17.2722 5.06657 17.482 5.12484 17.6383 5.20072C17.9885 5.3707 18.312 5.67387 18.5042 6.01238C18.5921 6.16712 18.6624 6.36864 18.7184 6.74144C18.7769 7.13144 18.8101 7.63212 18.8586 8.38166C18.939 9.62374 19 10.9242 19 12C19 13.0758 18.939 14.3763 18.8586 15.6183C18.8101 16.3679 18.7769 16.8686 18.7184 17.2586C18.6624 17.6314 18.5921 17.8329 18.5042 17.9876C18.312 18.3261 17.9885 18.6293 17.6383 18.7993C17.482 18.8752 17.2722 18.9334 16.8786 18.9657C16.4702 18.9992 15.9462 19 15.1676 19L8.83239 19C8.05378 19 7.52977 18.9992 7.12137 18.9657C6.72785 18.9334 6.51803 18.8752 6.36168 18.7993C6.01146 18.6293 5.68804 18.3261 5.49581 17.9876C5.40794 17.8329 5.33761 17.6314 5.28164 17.2586C5.22309 16.8686 5.18987 16.3679 5.14138 15.6183Z" fill="black"/>
</svg>
