<svg width="24" height="24" viewBox="0 0 24 24" fill="none" xmlns="http://www.w3.org/2000/svg">
<path opacity="0.15" d="M20 15.1676C20 16.6923 20 17.4546 19.6989 18.075C19.4406 18.6072 18.9959 19.0816 18.4814 19.3738C17.8818 19.7143 17.1488 19.7617 15.6829 19.8565C14.4327 19.9374 13.1075 20 12 20C10.8925 20 9.56734 19.9374 8.3171 19.8565C6.85116 19.7617 6.1182 19.7143 5.51858 19.3738C5.00409 19.0816 4.55942 18.6072 4.30109 18.075C4 17.4546 4 16.6923 4 15.1676L4 8.83239C4 7.30773 4 6.5454 4.30109 5.92504C4.55942 5.39277 5.00409 4.9184 5.51858 4.62624C6.1182 4.28573 6.85116 4.23831 8.3171 4.14347C9.56733 4.06259 10.8925 4 12 4C13.1075 4 14.4327 4.06259 15.6829 4.14347C17.1488 4.23831 17.8818 4.28573 18.4814 4.62624C18.9959 4.9184 19.4406 5.39277 19.6989 5.92504C20 6.54539 20 7.30773 20 8.83239L20 15.1676Z" fill="black"/>
<path d="M16 17C16.5523 17 17 16.5523 17 16C17 15.4477 16.5523 15 16 15L8 15C7.44771 15 7 15.4477 7 16C7 16.5523 7.44771 17 8 17L16 17Z" fill="black"/>
<path fill-rule="evenodd" clip-rule="evenodd" d="M12 21C13.1392 21 14.4891 20.9359 15.7475 20.8544L15.788 20.8518C16.4865 20.8066 17.072 20.7688 17.5555 20.6962C18.0656 20.6196 18.5303 20.496 18.9752 20.2433C19.6657 19.8512 20.2519 19.2259 20.5985 18.5116C20.8237 18.0476 20.916 17.5661 20.959 17.0422C21 16.5423 21 15.936 21 15.2078L21 8.79217C21 8.06405 21 7.45767 20.959 6.95783C20.916 6.43393 20.8237 5.9524 20.5985 5.4884C20.2519 4.77408 19.6657 4.14875 18.9752 3.75667C18.5303 3.50403 18.0656 3.38039 17.5555 3.30381C17.072 3.23122 16.4865 3.19335 15.7881 3.14819L15.7475 3.14556C14.4891 3.06414 13.1392 3 12 3C10.8608 3 9.51092 3.06415 8.25253 3.14556L8.21194 3.14818C7.51351 3.19335 6.92801 3.23122 6.4445 3.30381C5.93443 3.38039 5.46965 3.50403 5.02477 3.75667C4.33432 4.14876 3.74814 4.77408 3.40145 5.4884C3.17625 5.9524 3.08397 6.43393 3.04098 6.95783C2.99997 7.45767 2.99998 8.06405 3 8.79217L3 15.2078C2.99998 15.9359 2.99997 16.5423 3.04098 17.0422C3.08397 17.5661 3.17625 18.0476 3.40145 18.5116C3.74814 19.2259 4.33432 19.8512 5.02477 20.2433C5.46965 20.496 5.93443 20.6196 6.4445 20.6962C6.92804 20.7688 7.51351 20.8066 8.21199 20.8518L8.25254 20.8544C9.51092 20.9359 10.8608 21 12 21ZM15.6183 18.8586C14.3763 18.939 13.0758 19 12 19C10.9242 19 9.62374 18.939 8.38166 18.8586C7.63212 18.8101 7.13144 18.7769 6.74144 18.7184C6.36864 18.6624 6.16712 18.5921 6.01238 18.5042C5.67387 18.312 5.3707 17.9885 5.20072 17.6383C5.12484 17.482 5.06657 17.2722 5.03429 16.8786C5.00078 16.4702 5 15.9462 5 15.1676L5 8.83239C5 8.05378 5.00078 7.52978 5.03428 7.12137C5.06657 6.72785 5.12484 6.51803 5.20072 6.36168C5.3707 6.01146 5.67386 5.68805 6.01238 5.49581C6.16712 5.40794 6.36863 5.33762 6.74144 5.28165C7.13144 5.22309 7.63212 5.18988 8.38166 5.14138C9.62374 5.06103 10.9242 5 12 5C13.0758 5 14.3763 5.06103 15.6183 5.14138C16.3679 5.18988 16.8686 5.22309 17.2586 5.28165C17.6314 5.33761 17.8329 5.40794 17.9876 5.49581C18.3261 5.68805 18.6293 6.01146 18.7993 6.36168C18.8752 6.51803 18.9334 6.72785 18.9657 7.12137C18.9992 7.52977 19 8.05378 19 8.83239L19 15.1676C19 15.9462 18.9992 16.4702 18.9657 16.8786C18.9334 17.2722 18.8752 17.482 18.7993 17.6383C18.6293 17.9885 18.3261 18.312 17.9876 18.5042C17.8329 18.5921 17.6314 18.6624 17.2586 18.7184C16.8686 18.7769 16.3679 18.8101 15.6183 18.8586Z" fill="black"/>
</svg>
