<svg width="24" height="24" viewBox="0 0 24 24" fill="none" xmlns="http://www.w3.org/2000/svg">
<path opacity="0.15" d="M20 17.6948V14.3052C20 13.2797 19.2258 12.4214 18.204 12.3341C16.5004 12.1885 13.9222 12 12 12C10.0778 12 7.49962 12.1885 5.79597 12.3341C4.77421 12.4214 4 13.2797 4 14.3052L4 17.6948C4 18.7203 4.77421 19.5786 5.79597 19.6659C7.49962 19.8115 10.0778 20 12 20C13.9222 20 16.5004 19.8115 18.204 19.6659C19.2258 19.5786 20 18.7203 20 17.6948Z" fill="black"/>
<path d="M12 3C12.5523 3 13 3.44772 13 4V13.5858L15.2929 11.2929C15.6834 10.9024 16.3166 10.9024 16.7071 11.2929C17.0976 11.6834 17.0976 12.3166 16.7071 12.7071L12.7071 16.7071C12.3166 17.0976 11.6834 17.0976 11.2929 16.7071L7.29289 12.7071C6.90237 12.3166 6.90237 11.6834 7.29289 11.2929C7.68342 10.9024 8.31658 10.9024 8.70711 11.2929L11 13.5858V4C11 3.44772 11.4477 3 12 3Z" fill="black"/>
<path d="M5 13C5 12.4477 4.55228 12 4 12C3.44772 12 3 12.4477 3 13V17.6948C3 19.2299 4.16204 20.53 5.71086 20.6623C7.41601 20.808 10.0313 21 12 21C13.9687 21 16.584 20.808 18.2891 20.6623C19.838 20.53 21 19.2299 21 17.6948V13C21 12.4477 20.5523 12 20 12C19.4477 12 19 12.4477 19 13V17.6948C19 18.2108 18.6136 18.6273 18.1189 18.6696C16.4168 18.815 13.8758 19 12 19C10.1242 19 7.58322 18.815 5.88108 18.6696C5.38639 18.6273 5 18.2108 5 17.6948V13Z" fill="black"/>
</svg>
