<svg width="24" height="24" viewBox="0 0 24 24" fill="none" xmlns="http://www.w3.org/2000/svg">
<path opacity="0.15" d="M3 9.88197C3 8.34104 3 7.57057 3.30247 6.94904C3.5634 6.41288 4.00577 5.94261 4.52501 5.64944C5.12692 5.30959 5.87426 5.26388 7.36894 5.17246C8.91267 5.07804 10.6093 5 12 5C13.3907 5 15.0873 5.07804 16.6311 5.17246C18.1257 5.26388 18.8731 5.30959 19.475 5.64944C19.9942 5.94261 20.4366 6.41288 20.6975 6.94904C21 7.57057 21 8.34104 21 9.88197V14.118C21 15.659 21 16.4294 20.6975 17.051C20.4366 17.5871 19.9942 18.0574 19.475 18.3506C18.8731 18.6904 18.1257 18.7361 16.6311 18.8275C15.0873 18.922 13.3907 19 12 19C10.6093 19 8.91267 18.922 7.36894 18.8275C5.87426 18.7361 5.12692 18.6904 4.52501 18.3506C4.00577 18.0574 3.5634 17.5871 3.30247 17.051C3 16.4294 3 15.659 3 14.118V9.88197Z" fill="black"/>
<path fill-rule="evenodd" clip-rule="evenodd" d="M12 4C10.5787 4 8.85816 4.07951 7.30789 4.17433L7.26742 4.1768C6.5545 4.22039 5.9587 4.25682 5.46816 4.32822C4.95218 4.40332 4.48155 4.52559 4.03334 4.77866C3.33748 5.17156 2.75298 5.7929 2.4033 6.51145C2.17667 6.97715 2.0842 7.46196 2.04113 7.98933C1.99998 8.49319 1.99999 9.10548 2 9.84174V14.1583C1.99999 14.8945 1.99998 15.5068 2.04113 16.0107C2.0842 16.538 2.17667 17.0229 2.4033 17.4885C2.75298 18.2071 3.33748 18.8284 4.03334 19.2213C4.48155 19.4744 4.95218 19.5967 5.46816 19.6718C5.95868 19.7432 6.55446 19.7796 7.26734 19.8232L7.3079 19.8257C8.85816 19.9205 10.5787 20 12 20C13.4213 20 15.1418 19.9205 16.6921 19.8257L16.7325 19.8232C17.4454 19.7796 18.0413 19.7432 18.5318 19.6718C19.0478 19.5967 19.5184 19.4744 19.9667 19.2213C20.6625 18.8284 21.247 18.2071 21.5967 17.4885C21.8233 17.0229 21.9158 16.538 21.9589 16.0107C22 15.5068 22 14.8945 22 14.1583V9.84174C22 9.10551 22 8.49318 21.9589 7.98933C21.9158 7.46196 21.8233 6.97715 21.5967 6.51145C21.247 5.7929 20.6625 5.17156 19.9667 4.77866C19.5184 4.52559 19.0478 4.40332 18.5318 4.32822C18.0413 4.25682 17.4455 4.22039 16.7326 4.1768L16.6921 4.17433C15.1418 4.07951 13.4213 4 12 4ZM7.42999 6.1706C8.96718 6.07658 10.6399 6 12 6C13.3601 6 15.0328 6.07658 16.57 6.1706C17.3338 6.21731 17.8458 6.24944 18.2438 6.30737C18.6256 6.36294 18.8296 6.43345 18.9833 6.52023C19.0828 6.5764 19.1787 6.64317 19.269 6.71831L13.3414 11.5998C12.9774 11.8996 12.7453 12.0899 12.5565 12.2235C12.378 12.3498 12.2939 12.384 12.2444 12.3984C12.0706 12.4492 11.8862 12.4517 11.711 12.4059C11.6611 12.3928 11.5761 12.361 11.3941 12.2397C11.2017 12.1114 10.9644 11.9277 10.5922 11.6382L4.5228 6.91753C4.66729 6.75907 4.8361 6.62218 5.01667 6.52023C5.17037 6.43345 5.37437 6.36294 5.75621 6.30737C6.15423 6.24944 6.66618 6.21731 7.42999 6.1706ZM4.00248 9.04657C4.00013 9.28944 4 9.56488 4 9.88197V14.118C4 14.4923 4.00018 14.8086 4.00399 15.0818L7.39815 11.6876L4.00248 9.04657ZM5.01667 17.4798C4.89749 17.4125 4.78344 17.33 4.67812 17.2361L8.98914 12.9251L9.39065 13.2374C9.72891 13.5005 10.0242 13.7302 10.2851 13.904C10.5631 14.0893 10.8571 14.2497 11.2045 14.3407C11.7301 14.4783 12.2831 14.4706 12.8047 14.3184C13.1494 14.2178 13.4388 14.0492 13.7116 13.8562C13.9675 13.6752 14.2563 13.4373 14.5871 13.1649L14.696 13.0752L19.297 17.2579C19.1987 17.3428 19.0932 17.4177 18.9833 17.4798C18.8296 17.5666 18.6256 17.6371 18.2438 17.6926C17.8458 17.7506 17.3338 17.7827 16.57 17.8294C15.0328 17.9234 13.3601 18 12 18C10.6399 18 8.96718 17.9234 7.42999 17.8294C6.66618 17.7827 6.15423 17.7506 5.75621 17.6926C5.37437 17.6371 5.17037 17.5666 5.01667 17.4798ZM19.9943 15.1888C19.9998 14.8919 20 14.5423 20 14.118V9.88197C20 9.41033 19.9997 9.03085 19.9922 8.71359L16.2561 11.7904L19.9943 15.1888Z" fill="black"/>
</svg>
