<svg width="24" height="24" viewBox="0 0 24 24" fill="none" xmlns="http://www.w3.org/2000/svg">
<path opacity="0.15" fill-rule="evenodd" clip-rule="evenodd" d="M12 5C9.39223 5 7.17264 6.26789 5.36744 8.19343C4.74636 8.85591 4.20961 9.56038 3.75618 10.2625C3.4856 10.6814 3.29003 11.0265 3.17595 11.2546C2.94135 11.7239 2.94135 12.2761 3.17595 12.7454C3.29003 12.9735 3.4856 13.3186 3.75618 13.7375C4.20961 14.4396 4.74636 15.1441 5.36744 15.8066C7.17264 17.7321 9.39223 19 12 19C14.6078 19 16.8274 17.7321 18.6326 15.8066C19.2536 15.1441 19.7904 14.4396 20.2438 13.7375C20.5144 13.3186 20.71 12.9735 20.824 12.7454C21.0587 12.2761 21.0587 11.7239 20.824 11.2546C20.71 11.0265 20.5144 10.6814 20.2438 10.2625C19.7904 9.56038 19.2536 8.85591 18.6326 8.19343C16.8274 6.26788 14.6078 5 12 5ZM12 14C13.1046 14 14 13.1046 14 12C14 10.8954 13.1046 10 12 10C10.8954 10 10 10.8954 10 12C10 13.1046 10.8954 14 12 14Z" fill="black"/>
<path fill-rule="evenodd" clip-rule="evenodd" d="M12 9C10.3431 9 9 10.3431 9 12C9 13.6569 10.3431 15 12 15C13.6569 15 15 13.6569 15 12C15 10.3431 13.6569 9 12 9ZM11 12C11 11.4477 11.4477 11 12 11C12.5523 11 13 11.4477 13 12C13 12.5523 12.5523 13 12 13C11.4477 13 11 12.5523 11 12Z" fill="black"/>
<path fill-rule="evenodd" clip-rule="evenodd" d="M12 4C9.03723 4 6.57068 5.44786 4.6379 7.50949C3.97197 8.21981 3.39888 8.97247 2.91615 9.71993C2.63121 10.1611 2.41597 10.5386 2.28153 10.8074C1.90616 11.5582 1.90616 12.4418 2.28153 13.1926C2.41597 13.4614 2.63121 13.8389 2.91615 14.2801C3.39888 15.0275 3.97197 15.7802 4.6379 16.4905C6.57068 18.5521 9.03723 20 12 20C14.9628 20 17.4293 18.5521 19.3621 16.4905C20.028 15.7802 20.6011 15.0275 21.0839 14.2801C21.3688 13.8389 21.584 13.4614 21.7185 13.1926C22.0938 12.4418 22.0938 11.5582 21.7185 10.8074C21.584 10.5386 21.3688 10.1611 21.0839 9.71993C20.6011 8.97247 20.028 8.21981 19.3621 7.50949C17.4293 5.44786 14.9628 4 12 4ZM6.09698 8.87737C7.7746 7.08791 9.74724 6 12 6C14.2528 6 16.2254 7.08791 17.903 8.87737C18.4792 9.49201 18.9797 10.1483 19.4038 10.805C19.66 11.2017 19.8359 11.5144 19.9296 11.7019C20.0235 11.8895 20.0235 12.1105 19.9296 12.2981C19.8359 12.4856 19.66 12.7983 19.4038 13.195C18.9797 13.8517 18.4792 14.508 17.903 15.1226C16.2254 16.9121 14.2528 18 12 18C9.74724 18 7.7746 16.9121 6.09698 15.1226C5.52075 14.508 5.02033 13.8517 4.59622 13.195C4.33998 12.7983 4.1641 12.4856 4.07038 12.2981C3.97654 12.1105 3.97654 11.8895 4.07038 11.7019C4.1641 11.5144 4.33998 11.2017 4.59622 10.805C5.02033 10.1483 5.52075 9.49201 6.09698 8.87737Z" fill="black"/>
</svg>
