<svg width="24" height="24" viewBox="0 0 24 24" fill="none" xmlns="http://www.w3.org/2000/svg">
<path opacity="0.15" fill-rule="evenodd" clip-rule="evenodd" d="M19.202 5.92394V5.83394C19.202 5.09694 18.614 4.49994 17.889 4.49994C17.889 4.49994 14.4379 3.83936 12.202 3.83936C9.96618 3.83936 6.51503 4.49994 6.51503 4.49994C5.79003 4.49994 5.20203 5.09694 5.20203 5.83394C5.20203 6.12094 5.29403 6.40094 5.46303 6.63194L10.202 12.4044V18.3144C10.202 19.5044 11.486 20.2344 12.485 19.6134L14.485 18.3694C14.931 18.0934 15.202 17.6014 15.202 17.0714V12.4044L19.015 6.60994C19.137 6.40194 19.202 6.16494 19.202 5.92394Z" fill="black"/>
<path fill-rule="evenodd" clip-rule="evenodd" d="M8.377 3.17994C9.52787 3.01355 11.0086 2.83936 12.202 2.83936C13.3954 2.83936 14.8762 3.01355 16.0271 3.17994C16.6092 3.26411 17.1198 3.34821 17.4851 3.41132C17.6679 3.4429 17.8147 3.46928 17.9163 3.48788C17.9465 3.4934 17.9727 3.49823 17.9947 3.50231C19.2362 3.55819 20.202 4.59441 20.202 5.83394V5.92394C20.202 6.34459 20.0887 6.756 19.8776 7.11587C19.8689 7.13069 19.8598 7.14529 19.8504 7.15964L16.202 12.7039V17.0714C16.202 17.9412 15.7573 18.7575 15.0123 19.2191L15.0112 19.2197L13.0132 20.4625C11.3251 21.5118 9.20203 20.2615 9.20203 18.3144V12.7623L4.69013 7.26647C4.67833 7.2521 4.66693 7.2374 4.65596 7.22239C4.36213 6.82077 4.20203 6.33415 4.20203 5.83394C4.20203 4.59441 5.16782 3.55819 6.4094 3.50231C6.43138 3.49823 6.45757 3.4934 6.48773 3.48788C6.58937 3.46928 6.73617 3.4429 6.91897 3.41132C7.28428 3.34821 7.79482 3.26411 8.377 3.17994ZM6.70295 5.48212C6.64101 5.49397 6.57809 5.49994 6.51503 5.49994C6.35702 5.49994 6.20203 5.6344 6.20203 5.83394C6.20203 5.90153 6.22208 5.96877 6.25939 6.02599L10.9749 11.7698C11.1218 11.9487 11.202 12.1729 11.202 12.4044V18.3144C11.202 18.7471 11.6469 18.9566 11.9569 18.7642L13.9569 17.5202L13.9588 17.519C14.1051 17.4285 14.202 17.2611 14.202 17.0714V12.4044C14.202 12.209 14.2593 12.0179 14.3667 11.8546L18.161 6.08862C18.1883 6.03656 18.202 5.97974 18.202 5.92394V5.83394C18.202 5.6344 18.047 5.49994 17.889 5.49994M17.701 5.48211L17.6929 5.48057L17.6656 5.47542L17.5564 5.45523C17.4606 5.4377 17.3203 5.41248 17.1446 5.38213C16.793 5.32138 16.301 5.24033 15.7409 5.15936C14.6072 4.99546 13.2445 4.83936 12.202 4.83936C11.1596 4.83936 9.79684 4.99546 8.66317 5.15936C8.10308 5.24033 7.61109 5.32138 7.25944 5.38213C7.08375 5.41248 6.94347 5.4377 6.84764 5.45523L6.73849 5.47542L6.71111 5.48057L6.70295 5.48212" fill="black"/>
</svg>
