<svg width="24" height="24" viewBox="0 0 24 24" fill="none" xmlns="http://www.w3.org/2000/svg">
<path opacity="0.15" d="M4.54073 10.65C4.1945 11.008 4 11.4936 4 11.9999V16.5908C4 17.0971 4.1945 17.5827 4.54073 17.9408C4.88695 18.2988 5.35652 18.4999 5.84615 18.4999C5.84615 18.4999 9.58885 18.9999 12 18.9999C14.4111 18.9999 18.1538 18.4999 18.1538 18.4999C18.6435 18.4999 19.1131 18.2988 19.4593 17.9408C19.8055 17.5827 20 17.0971 20 16.5908V12.6363V11.9999C20 11.4936 19.8055 11.008 19.4593 10.65C19.1131 10.292 18.6435 10.0908 18.1538 10.0908H5.84615C5.35652 10.0908 4.88695 10.292 4.54073 10.65Z" fill="black"/>
<path fill-rule="evenodd" clip-rule="evenodd" d="M5.846 4C4.21102 4 3 5.39475 3 6.909V16.591C3 17.7227 3.67646 18.7877 4.7008 19.2535C5.02671 19.4031 5.38784 19.4914 5.7736 19.5013L5.7811 19.5023C6.47862 19.5948 7.2047 19.6911 7.93803 19.7511L8.06803 19.7618C9.95587 19.9166 10.9688 19.9996 11.988 20C13.0254 20.0004 14.0633 19.9152 16.0321 19.7536L16.0619 19.7511C16.7952 19.6911 17.5214 19.5948 18.2189 19.5023L18.2264 19.5013C18.6121 19.4914 18.9733 19.4031 19.2992 19.2536C20.3235 18.7877 21 17.7227 21 16.591V9.455C21 7.94144 19.7896 6.545 18.154 6.545H13.74C13.6892 6.545 13.6343 6.5241 13.5905 6.47859L11.8492 4.67819C11.4389 4.25346 10.8699 4 10.26 4H5.846ZM18.9346 9.11192C18.801 8.7756 18.4818 8.545 18.154 8.545H13.74C13.1394 8.545 12.5668 8.29839 12.1507 7.86667L12.1495 7.86541L10.4112 6.06822C10.3655 6.02095 10.3101 6 10.26 6H5.846C5.41498 6 5 6.39725 5 6.909V9.13214C5.26479 9.04663 5.54837 9 5.846 9H18.154C18.4273 9 18.6887 9.03931 18.9346 9.11192ZM5 11.935V16.5672C5 17.0835 5.41498 17.4843 5.846 17.4843C5.88957 17.4843 5.93308 17.4872 5.97628 17.4929L6.02228 17.499C6.73414 17.5934 7.41691 17.6839 8.09989 17.7398L8.13237 17.7425C10.1142 17.9049 11.051 17.9817 11.9888 17.9821C12.9313 17.9825 13.8812 17.9056 15.8999 17.7399C16.5829 17.6839 17.2658 17.5934 17.9776 17.499L18.0237 17.4929C18.0669 17.4872 18.1104 17.4843 18.154 17.4843C18.585 17.4843 19 17.0835 19 16.5672V11.935C19 11.4187 18.585 11.0179 18.154 11.0179H5.846C5.41498 11.0179 5 11.4187 5 11.935Z" fill="black"/>
</svg>
