<svg width="24" height="24" viewBox="0 0 24 24" fill="none" xmlns="http://www.w3.org/2000/svg">
<path opacity="0.15" d="M4.68873 10.1129C4.78798 10.0985 4.88989 10.0908 4.99357 10.0908H11.9996H19.0055C19.1092 10.0908 19.2111 10.0985 19.3104 10.1129M4.68873 10.1129C4.17011 10.1898 3.70408 10.4594 3.3917 10.8631C3.07932 11.2669 2.9458 11.7723 3.02009 12.2697L3.77953 16.8606C3.84735 17.3155 4.08427 17.7318 4.44679 18.0329C4.8093 18.334 5.27309 18.4998 5.75301 18.4999C5.75301 18.4999 9.5526 18.9999 12 18.9999C14.4474 18.9999 18.247 18.4999 18.247 18.4999C18.7269 18.4998 19.1907 18.334 19.5532 18.0329C19.9157 17.7318 20.1526 17.3155 20.2205 16.8606L20.9799 12.2697C21.0542 11.7723 20.9207 11.2669 20.6083 10.8631C20.2959 10.4594 19.829 10.1898 19.3104 10.1129" fill="black"/>
<path fill-rule="evenodd" clip-rule="evenodd" d="M20.0005 9.25838V8.818C20.0005 7.40195 18.8459 6.182 17.3855 6.182H13.5235C13.5091 6.182 13.4895 6.17584 13.4721 6.15839L11.9517 4.61794C11.5647 4.22533 11.035 4 10.4775 4H6.61555C5.15484 4 4.00055 5.22135 4.00055 6.636V9.25818C2.74718 9.6974 1.81441 10.9587 2.03147 12.4172L2.034 12.4334L2.79282 17.0172C3.01852 18.5014 4.31328 19.4669 5.68268 19.4992C9.92961 20.0463 14.0725 20.0463 18.3185 19.4992C19.6883 19.4669 20.9825 18.5011 21.2093 17.0175L21.9672 12.4331L21.9696 12.418C22.1881 10.9573 21.2537 9.69745 20.0005 9.25838ZM6.61555 6C6.29826 6 6.00055 6.28665 6.00055 6.636V9.11304H18.0005V8.818C18.0005 8.46805 17.7032 8.182 17.3855 8.182H13.5235C12.966 8.182 12.4375 7.956 12.051 7.56561L10.5278 6.02248C10.5128 6.00722 10.494 6 10.4775 6H6.61555ZM4.00876 12.1165C3.94873 11.6874 4.26777 11.2197 4.77592 11.113H19.2244C19.7348 11.2199 20.0529 11.6877 19.9925 12.116L19.235 16.6979L19.2326 16.7126C19.1678 17.1449 18.7633 17.5 18.2476 17.5C18.2045 17.5 18.1614 17.5028 18.1187 17.5084C14.0043 18.0433 9.99791 18.0433 5.88246 17.5084C5.83972 17.5028 5.79667 17.5 5.75357 17.5C5.23761 17.5 4.83391 17.1448 4.76965 16.7136L4.76715 16.6977L4.00876 12.1165Z" fill="black"/>
</svg>
