<svg width="24" height="24" viewBox="0 0 24 24" fill="none" xmlns="http://www.w3.org/2000/svg">
<path opacity="0.15" d="M14.6214 21V17.4C14.743 16.2726 14.4291 15.1411 13.7477 14.25C16.3689 14.25 18.9902 12.45 18.9902 9.3C19.0601 8.175 18.7543 7.068 18.1165 6.15C18.3611 5.115 18.3611 4.035 18.1165 3C18.1165 3 17.2427 3 15.4952 4.35C13.1884 3.9 10.8118 3.9 8.5051 4.35C6.75758 3 5.88382 3 5.88382 3C5.62169 4.035 5.62169 5.115 5.88382 6.15C5.24761 7.0643 4.93882 8.17751 5.01006 9.3C5.01006 12.45 7.63134 14.25 10.2526 14.25C9.91185 14.691 9.65846 15.195 9.50992 15.735C9.36138 16.275 9.31769 16.842 9.37886 17.4V21" fill="black"/>
<path d="M5.88382 2.00003C5.42609 2.00003 5.0268 2.31081 4.91442 2.75452C4.64796 3.80664 4.61588 4.89948 4.81818 5.9614C4.22391 6.97407 3.94138 8.14893 4.01013 9.33153C4.02462 12.4861 6.21498 14.4666 8.67637 15.0609C8.6274 15.1951 8.58379 15.3315 8.54573 15.4698C8.43171 15.8843 8.36821 16.3107 8.35479 16.7384C7.64648 16.9909 7.14851 17.0275 6.79198 16.9847C6.40081 16.9377 6.0915 16.7849 5.7829 16.5596C5.62219 16.4422 5.46763 16.3098 5.29439 16.1568L5.21914 16.0902C5.07296 15.9605 4.90489 15.8115 4.73598 15.6784C4.33024 15.3587 3.76263 15 3 15C2.44772 15 2 15.4477 2 16C2 16.5523 2.44772 17 3 17C3.09451 17 3.22226 17.032 3.49822 17.2494C3.61758 17.3434 3.73536 17.4477 3.88283 17.5783L3.97062 17.656C4.14992 17.8143 4.36299 17.9992 4.60353 18.1749C5.09743 18.5355 5.72508 18.8709 6.55347 18.9704C7.10876 19.0371 7.71197 18.9928 8.37885 18.8216V21C8.37885 21.5523 8.82657 22 9.37885 22C9.93114 22 10.3789 21.5523 10.3789 21V17.4C10.3789 17.3636 10.3769 17.3273 10.3729 17.2911C10.3253 16.8565 10.3596 16.4166 10.4741 16.0003C10.5877 15.5873 10.7818 15.2006 11.0439 14.8615C11.2771 14.5597 11.3183 14.1516 11.1502 13.8093C10.9821 13.4669 10.634 13.25 10.2526 13.25C8.03487 13.25 6.01006 11.7599 6.01006 9.30003C6.01006 9.2789 6.00939 9.25778 6.00805 9.2367C5.95097 8.33725 6.19883 7.44812 6.70465 6.7212C6.87015 6.48336 6.92435 6.18541 6.85321 5.90452C6.72333 5.39169 6.66967 4.86599 6.69223 4.34252C7.00662 4.5125 7.40718 4.76551 7.89375 5.1414C8.12152 5.31736 8.41407 5.38664 8.69657 5.33153C10.8768 4.9062 13.1234 4.9062 15.3037 5.33153C15.5862 5.38664 15.8787 5.31736 16.1065 5.1414C16.5867 4.77045 16.9831 4.51918 17.2956 4.34927C17.3159 4.87578 17.2651 5.40448 17.1433 5.91999C17.0779 6.19634 17.1332 6.48744 17.2952 6.72064C17.8027 7.45105 18.0483 8.33456 17.9921 9.23802C17.9909 9.25866 17.9902 9.27935 17.9902 9.30003C17.9902 11.7599 15.9654 13.25 13.7477 13.25C13.3672 13.25 13.0197 13.4659 12.8511 13.807C12.6826 14.1481 12.7222 14.5553 12.9533 14.8575C13.4771 15.5424 13.7216 16.4174 13.6272 17.2928C13.6233 17.3284 13.6214 17.3642 13.6214 17.4V21C13.6214 21.5523 14.0691 22 14.6214 22C15.1737 22 15.6214 21.5523 15.6214 21V17.4511C15.7008 16.6357 15.5947 15.8188 15.3189 15.0621C17.7825 14.4692 19.9759 12.488 19.9901 9.3309C20.0578 8.14397 19.7761 6.97077 19.1779 5.95442C19.3661 4.89989 19.3367 3.81505 19.0896 2.76999C18.983 2.31876 18.5801 2.00003 18.1165 2.00003L18.1103 2C18.1165 2.00005 18.1149 2.00003 18.1149 2.00003L18.1134 2.00004L18.1103 2L18.1037 2.00011L18.0898 2.00037C18.08 2.0006 18.0694 2.00097 18.058 2.00153C18.0351 2.00263 18.0089 2.00445 17.9794 2.0073C17.9203 2.01301 17.8481 2.02283 17.763 2.03927C17.5926 2.07218 17.3717 2.13132 17.1008 2.23595C16.6313 2.41732 16.0132 2.73465 15.2462 3.28793C13.0988 2.92074 10.9015 2.92074 8.75408 3.28793C7.98703 2.73465 7.36899 2.41732 6.89945 2.23595C6.62857 2.13132 6.40769 2.07218 6.23727 2.03927C6.15215 2.02283 6.07999 2.01301 6.02089 2.0073C5.99136 2.00445 5.96515 2.00263 5.94228 2.00153C5.93085 2.00097 5.92026 2.0006 5.91051 2.00037L5.89653 2.00011L5.89001 2.00005L5.88687 2.00004L5.88534 2.00003H5.88382Z" fill="black"/>
</svg>
