<svg width="24" height="24" viewBox="0 0 24 24" fill="none" xmlns="http://www.w3.org/2000/svg">
<circle opacity="0.15" cx="12" cy="12" r="9" fill="black"/>
<path fill-rule="evenodd" clip-rule="evenodd" d="M21.379 15.4768C21.4292 15.3843 21.465 15.2838 21.4841 15.179C21.8187 14.1803 22 13.1113 22 12C22 6.59998 17.7198 2.19966 12.3669 2.00661C12.329 2.00224 12.2904 2 12.2513 2C12.2311 2 12.211 2.0006 12.191 2.00179C12.1275 2.0006 12.0638 2 12 2C6.47715 2 2 6.47715 2 12C2 17.5228 6.47715 22 12 22C16.3003 22 19.9665 19.2857 21.379 15.4768ZM14.1324 4.28733L14.2635 4.39668C15.0667 5.06807 15.2356 6.23508 14.6571 7.10653L14.1812 7.82213C13.7996 8.39471 13.2382 8.82393 12.5855 9.04175L12.5842 9.04216L12.4524 9.08648C12.448 9.08793 12.444 9.0904 12.4406 9.0938C12.4371 9.09719 12.4345 9.10142 12.4328 9.10618C12.4312 9.11095 12.4307 9.11608 12.4313 9.12112C12.432 9.12617 12.4338 9.13093 12.4365 9.13503L12.4373 9.13614C13.1125 10.1529 12.7472 11.5326 11.6543 12.0797L10.029 12.8933L10.0833 13.0293C10.2518 13.4545 10.2605 13.9265 10.1078 14.3577C9.95509 14.7889 9.65125 15.1504 9.25232 15.3747C8.85335 15.5991 8.38651 15.6711 7.93844 15.5771C7.4904 15.4831 7.09186 15.2297 6.8166 14.8642L6.81488 14.8619L6.18303 14.0178C6.17807 14.0113 6.17155 14.0061 6.16429 14.0028C6.157 13.9996 6.14907 13.9983 6.14123 13.999C6.13338 13.9997 6.12576 14.0024 6.11909 14.007C6.11241 14.0115 6.10688 14.0178 6.10314 14.0253L5.46446 15.3042C5.35555 15.5222 5.17161 15.6915 4.94903 15.7827C6.2987 18.2932 8.95003 20 12 20C12.6592 20 13.2998 19.9203 13.9127 19.7699C13.6687 19.3864 13.3474 19.2425 13.132 19.2425C11.9317 19.2425 11.2263 18.1806 11.1029 17.2327L11.0247 16.6236C10.8858 15.541 11.3628 14.2312 12.5249 13.8009L13.5831 13.41C13.6479 13.3858 13.7294 13.3364 13.8146 13.2446C13.9003 13.1522 13.9834 13.0231 14.0472 12.8581L14.0864 12.7549C14.2434 12.3474 14.4818 11.9704 14.7991 11.6679C15.1178 11.364 15.5118 11.1405 15.9556 11.0473C16.4022 10.9535 16.8577 11.0008 17.2747 11.1757C17.6878 11.349 18.0349 11.635 18.3015 11.9813L18.3475 12.0409H18.5271C19.0491 12.0408 19.5459 12.1827 19.9884 12.4343C19.9961 12.2905 20 12.1457 20 12C20 8.32016 17.5155 5.22061 14.1324 4.28733ZM19.4524 14.9149C19.4478 14.8943 19.4434 14.8744 19.4392 14.8554L19.4259 14.7953C19.3975 14.6682 19.3788 14.5927 19.3595 14.5329C19.3337 14.4529 19.3152 14.4194 19.2519 14.3603C19.0052 14.1298 18.7504 14.0408 18.5278 14.0409H17.8558C17.5457 14.0409 17.2532 13.8971 17.0638 13.6515L16.7173 13.2021C16.6359 13.0963 16.5565 13.0433 16.501 13.02C16.4491 12.9982 16.4065 12.9962 16.3667 13.0046C16.3242 13.0135 16.2575 13.0407 16.1792 13.1153C16.0999 13.191 16.0166 13.309 15.9534 13.4722L15.9143 13.575C15.7681 13.9546 15.5562 14.308 15.2807 14.6049C15.0046 14.9024 14.6663 15.1411 14.2792 15.2849L14.2774 15.2856L13.2193 15.6765C13.2184 15.6769 13.1521 15.7054 13.0852 15.8429C13.0199 15.9769 12.9822 16.1648 13.0084 16.3687L13.0862 16.9747C13.105 17.1182 13.157 17.206 13.1893 17.2431C14.3658 17.2674 15.2867 18.0373 15.7917 19.0461C17.4514 18.1511 18.7587 16.6869 19.4524 14.9149ZM4.13753 13.4848L4.31391 13.1316C4.46987 12.8194 4.70306 12.5521 4.99136 12.3552C5.27966 12.1584 5.61352 12.0385 5.96127 12.0071C6.30901 11.9757 6.65897 12.0338 6.9779 12.1758C7.29683 12.3178 7.57407 12.5391 7.7834 12.8183L7.9171 12.9969L7.83093 12.781C7.6384 12.2984 7.8475 11.7488 8.3121 11.5162L10.759 10.2913C10.7658 10.2879 10.7683 10.2851 10.7698 10.2833C10.7719 10.2807 10.7744 10.2763 10.7759 10.2705C10.7775 10.2646 10.7775 10.2595 10.7769 10.2558C10.7765 10.2532 10.7756 10.2492 10.7712 10.2426L10.7719 10.2437C10.5989 9.98386 10.488 9.68769 10.4479 9.37818C10.4078 9.06866 10.4395 8.75405 10.5405 8.45874C10.6416 8.16342 10.8093 7.89529 11.0307 7.67522C11.2521 7.45524 11.5211 7.2892 11.8171 7.19005L11.9495 7.14554L11.9519 7.14474C12.1827 7.06785 12.3815 6.9161 12.5168 6.71321L12.9908 6.00043C13.0062 5.97704 13.0013 5.94839 12.9816 5.93185L11.9881 5.10298C11.6517 4.82245 11.4178 4.44519 11.3131 4.02907C7.21641 4.37743 4 7.8131 4 12C4 12.5074 4.04723 13.0037 4.13753 13.4848Z" fill="black"/>
</svg>
