<svg width="24" height="24" viewBox="0 0 24 24" fill="none" xmlns="http://www.w3.org/2000/svg">
<path opacity="0.15" d="M4 8.83239C4 7.30773 4 6.54539 4.30109 5.92504C4.55942 5.39277 5.0041 4.9184 5.51858 4.62624C6.1182 4.28573 6.85116 4.23831 8.3171 4.14347C9.56734 4.06258 10.8925 4 12 4C13.1075 4 14.4327 4.06258 15.6829 4.14347C17.1488 4.23831 17.8818 4.28573 18.4814 4.62624C18.9959 4.9184 19.4406 5.39277 19.6989 5.92504C20 6.54539 20 7.30773 20 8.83239V15.1676C20 16.6923 20 17.4546 19.6989 18.075C19.4406 18.6072 18.9959 19.0816 18.4814 19.3738C17.8818 19.7143 17.1488 19.7617 15.6829 19.8565C14.4327 19.9374 13.1075 20 12 20C10.8925 20 9.56733 19.9374 8.3171 19.8565C6.85116 19.7617 6.1182 19.7143 5.51858 19.3738C5.0041 19.0816 4.55942 18.6072 4.30109 18.075C4 17.4546 4 16.6923 4 15.1676V8.83239Z" fill="black"/>
<path fill-rule="evenodd" clip-rule="evenodd" d="M5.49659 4.08238C5.54206 3.53197 5.13273 3.04892 4.58232 3.00345C4.03191 2.95798 3.54885 3.36732 3.50338 3.91773L4.50059 4.0001C3.50432 3.9178 3.5033 3.91869 3.5033 3.91874L3.48572 4.13538C3.47446 4.2755 3.45829 4.4789 3.43859 4.73267C3.39919 5.24012 3.34565 5.94935 3.28904 6.75683C3.17607 8.36814 3.04991 10.3842 3.00048 11.9689C2.95362 13.4716 2.95143 15.3659 2.96176 16.9329L2.96202 16.9714C2.96528 17.4698 2.96813 17.9041 3.00087 18.265C3.03579 18.6499 3.10983 19.0299 3.29966 19.4C3.58296 19.9524 4.04764 20.4171 4.60005 20.7004C4.97019 20.8902 5.35015 20.9643 5.73509 20.9992C6.09591 21.0319 6.53024 21.0348 7.02856 21.038L7.06718 21.0383C8.63411 21.0486 10.5285 21.0464 12.0312 20.9996C13.6159 20.9501 15.6319 20.824 17.2432 20.711C18.0507 20.6544 18.7599 20.6009 19.2674 20.5615C19.5211 20.5418 19.7246 20.5256 19.8647 20.5143L20.0822 20.4967C20.6326 20.4512 21.0421 19.9681 20.9966 19.4177C20.9511 18.8673 20.4673 18.458 19.9169 18.5035L19.7045 18.5207C19.566 18.5319 19.3644 18.5479 19.1126 18.5675C18.6089 18.6066 17.9048 18.6597 17.1033 18.7159C15.4968 18.8285 13.5129 18.9524 11.9688 19.0005C10.5053 19.0462 8.64183 19.0486 7.08037 19.0383C6.53232 19.0347 6.18285 19.0316 5.91579 19.0074C5.66356 18.9845 5.56612 18.9482 5.51273 18.9208C5.33293 18.8286 5.17148 18.6671 5.07927 18.4873C5.05189 18.4339 5.01557 18.3365 4.99269 18.0843C4.96846 17.8172 4.96534 17.4677 4.96172 16.9197C4.95142 15.3582 4.95387 13.4947 4.99951 12.0312C5.04767 10.4872 5.17151 8.5032 5.28414 6.8967C5.34033 6.09528 5.39348 5.39115 5.43259 4.88748C5.45214 4.63568 5.46817 4.43407 5.4793 4.29557L5.49659 4.08238ZM4.50059 4.0001C5.49625 4.08236 5.4966 4.08236 5.49659 4.08238L4.50059 4.0001ZM20 19.5001C20.0823 20.4967 20.0823 20.4967 20.0822 20.4967L20 19.5001ZM19.9169 18.5035C19.9169 18.5035 19.9177 18.5035 20 19.5001L19.9169 18.5035Z" fill="black"/>
<path d="M16.5714 7C16.0191 7 15.5714 7.44772 15.5714 8C15.5714 8.55228 16.0191 9 16.5714 9H17.8258L14.8571 12.4634L12.1878 9.34921C11.9978 9.12756 11.7205 9 11.4286 9C11.1366 9 10.8593 9.12756 10.6693 9.34921L7.24075 13.3492C6.88132 13.7685 6.92989 14.3998 7.34921 14.7593C7.76854 15.1187 8.39984 15.0701 8.75926 14.6508L11.4286 11.5366L14.0979 14.6508C14.2879 14.8724 14.5652 15 14.8571 15C15.1491 15 15.4264 14.8724 15.6164 14.6508L19 10.7033V12C19 12.5523 19.4477 13 20 13C20.5523 13 21 12.5523 21 12V8C21 7.44772 20.5523 7 20 7H16.5714Z" fill="black"/>
</svg>
