<svg width="24" height="24" viewBox="0 0 24 24" fill="none" xmlns="http://www.w3.org/2000/svg">
<g opacity="0.15">
<path d="M5.48524 4.16605C4.59997 4.32662 4 5.12322 4 6.02293V7.97707C4 8.87678 4.59997 9.67338 5.48524 9.83395C5.98976 9.92547 6.54143 10 7 10C7.45857 10 8.01024 9.92547 8.51476 9.83395C9.40003 9.67338 10 8.87678 10 7.97707V6.02293C10 5.12322 9.40003 4.32662 8.51476 4.16605C8.01024 4.07453 7.45857 4 7 4C6.54143 4 5.98976 4.07453 5.48524 4.16605Z" fill="black"/>
<path d="M15.4852 4.16605C14.6 4.32662 14 5.12322 14 6.02293V7.97707C14 8.87678 14.6 9.67338 15.4852 9.83395C15.9898 9.92547 16.5414 10 17 10C17.4586 10 18.0102 9.92547 18.5148 9.83395C19.4 9.67338 20 8.87678 20 7.97707V6.02293C20 5.12322 19.4 4.32662 18.5148 4.16605C18.0102 4.07453 17.4586 4 17 4C16.5414 4 15.9898 4.07453 15.4852 4.16605Z" fill="black"/>
<path d="M14 16.0229C14 15.1232 14.6 14.3266 15.4852 14.166C15.9898 14.0745 16.5414 14 17 14C17.4586 14 18.0102 14.0745 18.5148 14.166C19.4 14.3266 20 15.1232 20 16.0229V17.9771C20 18.8768 19.4 19.6734 18.5148 19.834C18.0102 19.9255 17.4586 20 17 20C16.5414 20 15.9898 19.9255 15.4852 19.834C14.6 19.6734 14 18.8768 14 17.9771V16.0229Z" fill="black"/>
<path d="M5.48524 14.166C4.59997 14.3266 4 15.1232 4 16.0229V17.9771C4 18.8768 4.59997 19.6734 5.48524 19.834C5.98976 19.9255 6.54143 20 7 20C7.45857 20 8.01024 19.9255 8.51476 19.834C9.40003 19.6734 10 18.8768 10 17.9771V16.0229C10 15.1232 9.40003 14.3266 8.51476 14.166C8.01024 14.0745 7.45857 14 7 14C6.54143 14 5.98976 14.0745 5.48524 14.166Z" fill="black"/>
</g>
<path fill-rule="evenodd" clip-rule="evenodd" d="M7 3C6.45163 3 5.83067 3.08707 5.30676 3.1821C3.89607 3.43798 3 4.69215 3 6.02293V7.97707C3 9.30785 3.89607 10.562 5.30676 10.8179C5.83067 10.9129 6.45163 11 7 11C7.54837 11 8.16933 10.9129 8.69324 10.8179C10.1039 10.562 11 9.30785 11 7.97707V6.02293C11 4.69215 10.1039 3.43798 8.69324 3.1821C8.16933 3.08707 7.54837 3 7 3ZM5.66371 5.14999C6.14884 5.06199 6.63123 5 7 5C7.36877 5 7.85116 5.06199 8.33629 5.14999C8.69613 5.21526 9 5.55428 9 6.02293V7.97707C9 8.44572 8.69613 8.78474 8.33629 8.85001C7.85116 8.93801 7.36877 9 7 9C6.63123 9 6.14884 8.93801 5.66371 8.85001C5.30387 8.78474 5 8.44572 5 7.97707V6.02293C5 5.55428 5.30387 5.21526 5.66371 5.14999Z" fill="black"/>
<path fill-rule="evenodd" clip-rule="evenodd" d="M17 3C16.4516 3 15.8307 3.08707 15.3068 3.1821C13.8961 3.43798 13 4.69215 13 6.02293V7.97707C13 9.30785 13.8961 10.562 15.3068 10.8179C15.8307 10.9129 16.4516 11 17 11C17.5484 11 18.1693 10.9129 18.6932 10.8179C20.1039 10.562 21 9.30785 21 7.97707V6.02293C21 4.69215 20.1039 3.43798 18.6932 3.1821C18.1693 3.08707 17.5484 3 17 3ZM15.6637 5.14999C16.1488 5.06199 16.6312 5 17 5C17.3688 5 17.8512 5.06199 18.3363 5.14999C18.6961 5.21526 19 5.55428 19 6.02293V7.97707C19 8.44572 18.6961 8.78474 18.3363 8.85001C17.8512 8.93801 17.3688 9 17 9C16.6312 9 16.1488 8.93801 15.6637 8.85001C15.3039 8.78474 15 8.44572 15 7.97707V6.02293C15 5.55428 15.3039 5.21526 15.6637 5.14999Z" fill="black"/>
<path fill-rule="evenodd" clip-rule="evenodd" d="M15.3068 13.1821C15.8307 13.0871 16.4516 13 17 13C17.5484 13 18.1693 13.0871 18.6932 13.1821C20.1039 13.438 21 14.6922 21 16.0229V17.9771C21 19.3078 20.1039 20.562 18.6932 20.8179C18.1693 20.9129 17.5484 21 17 21C16.4516 21 15.8307 20.9129 15.3068 20.8179C13.8961 20.562 13 19.3078 13 17.9771V16.0229C13 14.6922 13.8961 13.438 15.3068 13.1821ZM17 15C16.6312 15 16.1488 15.062 15.6637 15.15C15.3039 15.2153 15 15.5543 15 16.0229V17.9771C15 18.4457 15.3039 18.7847 15.6637 18.85C16.1488 18.938 16.6312 19 17 19C17.3688 19 17.8512 18.938 18.3363 18.85C18.6961 18.7847 19 18.4457 19 17.9771V16.0229C19 15.5543 18.6961 15.2153 18.3363 15.15C17.8512 15.062 17.3688 15 17 15Z" fill="black"/>
<path fill-rule="evenodd" clip-rule="evenodd" d="M7 13C6.45163 13 5.83067 13.0871 5.30676 13.1821C3.89607 13.438 3 14.6922 3 16.0229V17.9771C3 19.3078 3.89607 20.562 5.30676 20.8179C5.83067 20.9129 6.45163 21 7 21C7.54837 21 8.16933 20.9129 8.69324 20.8179C10.1039 20.562 11 19.3078 11 17.9771V16.0229C11 14.6922 10.1039 13.438 8.69324 13.1821C8.16933 13.0871 7.54837 13 7 13ZM5.66371 15.15C6.14884 15.062 6.63123 15 7 15C7.36877 15 7.85116 15.062 8.33629 15.15C8.69613 15.2153 9 15.5543 9 16.0229V17.9771C9 18.4457 8.69613 18.7847 8.33629 18.85C7.85116 18.938 7.36877 19 7 19C6.63123 19 6.14884 18.938 5.66371 18.85C5.30387 18.7847 5 18.4457 5 17.9771V16.0229C5 15.5543 5.30387 15.2153 5.66371 15.15Z" fill="black"/>
</svg>
