<svg width="24" height="24" viewBox="0 0 24 24" fill="none" xmlns="http://www.w3.org/2000/svg">
<path opacity="0.15" d="M12 21C16.9706 21 21 16.9706 21 12C21 7.02944 16.9706 3 12 3C7.02944 3 3 7.02944 3 12C3 16.9706 7.02944 21 12 21Z" fill="black"/>
<path d="M7.79999 13C8.24033 12.6697 8.86441 12.7576 9.19664 13.1955L9.19975 13.1995C9.20454 13.2056 9.21412 13.2175 9.22837 13.2345C9.25693 13.2685 9.30382 13.3223 9.36807 13.3893C9.4974 13.5243 9.69218 13.7078 9.94441 13.8912C10.4527 14.2609 11.1505 14.6 12 14.6C12.8495 14.6 13.5473 14.2609 14.0556 13.8912C14.3078 13.7078 14.5026 13.5243 14.6319 13.3893C14.6962 13.3223 14.7431 13.2685 14.7716 13.2345C14.7859 13.2175 14.7954 13.2056 14.8002 13.1995L14.8033 13.1955C15.1356 12.7576 15.7596 12.6697 16.2 13C16.6418 13.3314 16.7314 13.9582 16.4 14.4L15.6 13.8C16.4 14.4 16.399 14.4013 16.399 14.4013L16.3979 14.4028L16.3952 14.4063L16.3883 14.4153L16.3683 14.4409C16.3522 14.4612 16.3306 14.488 16.3036 14.5202C16.2495 14.5846 16.1734 14.6714 16.0759 14.7731C15.8818 14.9757 15.5984 15.2422 15.2319 15.5087C14.5027 16.039 13.4005 16.6 12 16.6C10.5995 16.6 9.49726 16.039 8.76807 15.5087C8.40155 15.2422 8.1182 14.9757 7.9241 14.7731C7.82663 14.6714 7.75047 14.5846 7.69642 14.5202C7.66936 14.488 7.64774 14.4612 7.63166 14.4409L7.61167 14.4153L7.60479 14.4063L7.60213 14.4028L7.60099 14.4013L7.59999 14.4C7.26862 13.9582 7.35816 13.3314 7.79999 13Z" fill="black"/>
<path d="M7.85004 9.29997C7.85004 8.49916 8.49922 7.84998 9.30004 7.84998C10.1008 7.84998 10.75 8.49916 10.75 9.29997C10.75 10.1008 10.1008 10.75 9.30004 10.75C8.49922 10.75 7.85004 10.1008 7.85004 9.29997Z" fill="black"/>
<path d="M14.7 7.84998C13.8992 7.84998 13.25 8.49916 13.25 9.29997C13.25 10.1008 13.8992 10.75 14.7 10.75C15.5008 10.75 16.15 10.1008 16.15 9.29997C16.15 8.49916 15.5008 7.84998 14.7 7.84998Z" fill="black"/>
<path fill-rule="evenodd" clip-rule="evenodd" d="M12 2C6.47715 2 2 6.47715 2 12C2 17.5228 6.47715 22 12 22C17.5228 22 22 17.5228 22 12C22 6.47715 17.5228 2 12 2ZM4 12C4 7.58172 7.58172 4 12 4C16.4183 4 20 7.58172 20 12C20 16.4183 16.4183 20 12 20C7.58172 20 4 16.4183 4 12Z" fill="black"/>
</svg>
