<svg width="24" height="24" viewBox="0 0 24 24" fill="none" xmlns="http://www.w3.org/2000/svg">
<path opacity="0.15" fill-rule="evenodd" clip-rule="evenodd" d="M11.9945 8.00003C10.395 6.16514 7.72779 4.34818 5.72375 6.02839C3.71971 7.7086 3.43758 10.0128 5.01136 12C5.61609 12.7636 6.74008 14.2511 7.99999 15.5564C9.30424 16.9076 10.8796 18.1631 11.5777 18.7697C11.7229 18.8959 11.7955 18.959 11.8802 18.9838C11.9541 19.0054 12.035 19.0054 12.1089 18.9838C12.1935 18.959 12.2662 18.8959 12.4114 18.7697C13.1094 18.1631 14.6821 16.905 15.989 15.5564C17.2554 14.2496 18.3953 12.7636 19 12C20.5738 10.0128 20.3038 7.69092 18.2653 6.02839C16.2268 4.36585 13.594 6.16514 11.9945 8.00003Z" fill="black"/>
<path fill-rule="evenodd" clip-rule="evenodd" d="M11.9942 6.55358C11.2493 5.84264 10.3581 5.18092 9.40112 4.77528C8.06306 4.2081 6.46233 4.10414 5.08129 5.26202C3.92393 6.23236 3.1933 7.44604 3.03304 8.77971C2.87214 10.1186 3.30163 11.4518 4.22745 12.6208C4.31159 12.727 4.40764 12.8498 4.5143 12.9861C5.15051 13.799 6.16429 15.0944 7.28052 16.2508C8.34469 17.3533 9.5965 18.4061 10.3956 19.0782C10.6064 19.2555 10.7857 19.4062 10.9218 19.5245C10.9261 19.5282 10.9305 19.5321 10.9351 19.5361C10.9952 19.5883 11.0774 19.6599 11.1574 19.719C11.2555 19.7915 11.402 19.8857 11.5992 19.9434C11.8566 20.0188 12.1325 20.0188 12.3898 19.9434C12.5871 19.8857 12.7336 19.7915 12.8317 19.719C12.9117 19.6599 12.9939 19.5883 13.054 19.5361C13.0585 19.5321 13.063 19.5282 13.0673 19.5245C13.2027 19.4068 13.3803 19.2572 13.5888 19.0816C14.3874 18.4088 15.6393 17.3542 16.7072 16.2522C17.8716 15.0507 18.9301 13.7054 19.5664 12.8967C19.6457 12.796 19.7184 12.7036 19.7839 12.6208C20.7092 11.4524 21.1426 10.1145 20.98 8.77212C20.8178 7.43287 20.078 6.21627 18.8973 5.25337C17.5043 4.11728 15.9129 4.21526 14.5753 4.78179C13.6212 5.18587 12.7357 5.84476 11.9942 6.55358ZM8.62059 6.61668C7.72415 6.2367 6.98925 6.2723 6.36625 6.79463C5.51957 7.50449 5.10711 8.28303 5.01875 9.01833C4.93102 9.74842 5.14736 10.5609 5.79532 11.3791C5.88748 11.4955 5.98972 11.626 6.10096 11.7681C6.74223 12.5868 7.68287 13.7879 8.71951 14.8618C9.70081 15.8784 10.8284 16.8275 11.6318 17.5038C11.7619 17.6132 11.8834 17.7155 11.9945 17.8098C12.103 17.7175 12.2217 17.6175 12.3486 17.5105C13.1516 16.8335 14.2838 15.879 15.2709 14.8604C16.3578 13.7389 17.3504 12.4781 17.9916 11.6637C18.0721 11.5614 18.1471 11.4662 18.2161 11.3791C18.8646 10.5603 19.0831 9.74362 18.9945 9.01266C18.9056 8.27853 18.4911 7.50291 17.6333 6.80327C16.9878 6.27683 16.2435 6.24722 15.3553 6.62342C14.4331 7.014 13.4927 7.80317 12.7483 8.65706C12.5584 8.87492 12.2835 8.99996 11.9945 8.99996C11.7055 8.99996 11.4306 8.87492 11.2407 8.65706C10.4975 7.8044 9.54829 7.00991 8.62059 6.61668Z" fill="black"/>
</svg>
