<svg width="24" height="24" viewBox="0 0 24 24" fill="none" xmlns="http://www.w3.org/2000/svg">
<g opacity="0.15">
<path d="M5 11.0875C5 10.597 5 10.3517 5.05758 10.1258C5.10858 9.9257 5.1924 9.73751 5.30491 9.57046C5.43193 9.38187 5.60824 9.23128 5.96086 8.93011L11.236 4.42462C11.5092 4.19123 11.6459 4.07454 11.7967 4.02968C11.9298 3.99011 12.0702 3.99011 12.2033 4.02968C12.3541 4.07454 12.4908 4.19123 12.764 4.42462L18.0391 8.93011C18.3918 9.23129 18.5681 9.38187 18.6951 9.57046C18.8076 9.73751 18.8914 9.9257 18.9424 10.1258C19 10.3517 19 10.597 19 11.0875V17.2669C19 18.2236 19 18.7019 18.8305 19.0673C18.6813 19.3887 18.4433 19.65 18.1507 19.8138C17.8179 20 17.3823 20 16.5111 20H7.48889C6.6177 20 6.1821 20 5.84935 19.8138C5.55665 19.65 5.31868 19.3887 5.16955 19.0673C5 18.7019 5 18.2236 5 17.2669V11.0875Z" fill="black"/>
<path d="M9.66667 20V13.6796C9.66667 13.2013 9.66667 12.9621 9.75144 12.7794C9.82601 12.6187 9.94499 12.4881 10.0913 12.4062C10.2577 12.3131 10.4755 12.3131 10.9111 12.3131H13.0889C13.5245 12.3131 13.7423 12.3131 13.9087 12.4062C14.055 12.4881 14.174 12.6187 14.2486 12.7794C14.3333 12.9621 14.3333 13.2013 14.3333 13.6796V20" fill="black"/>
</g>
<path fill-rule="evenodd" clip-rule="evenodd" d="M3.99999 11.5001L3.99999 17.3015C3.99998 17.7503 3.99996 18.1407 4.02394 18.463C4.04922 18.8028 4.10532 19.1496 4.26243 19.4882C4.49484 19.9891 4.87396 20.414 5.36105 20.6865C5.69975 20.876 6.04867 20.9432 6.37783 20.9727C6.68242 21.0001 7.04774 21 7.44983 21H16.5501C16.9522 21 17.3176 21.0001 17.6222 20.9727C17.9513 20.9432 18.3002 20.876 18.6389 20.6865C19.126 20.414 19.5052 19.9891 19.7376 19.4882C19.8947 19.1496 19.9508 18.8028 19.976 18.463C20 18.1407 20 17.7503 20 17.3015V11.5001C20.2863 11.4999 20.5706 11.3774 20.7682 11.1402C21.1218 10.7159 21.0644 10.0854 20.6402 9.7318L15.5963 5.52855L13.3945 3.648C13.2745 3.54552 13.147 3.43652 13.0293 3.35017C12.8961 3.25247 12.7183 3.13954 12.4883 3.07116C12.1692 2.97628 11.8308 2.97628 11.5117 3.07116C11.2817 3.13954 11.1039 3.25247 10.9707 3.35017C10.853 3.43653 10.7254 3.54553 10.6055 3.64802L8.40418 5.52817L3.35981 9.7318C2.93553 10.0854 2.87821 10.7159 3.23177 11.1402C3.42943 11.3774 3.71364 11.4999 3.99999 11.5001ZM12 5.08747C11.9666 5.11571 11.9291 5.14769 11.8854 5.18502L10.7718 6.1362C10.7328 6.18338 10.6889 6.22764 10.6402 6.26825L9.69388 7.05683L6.61031 9.69051C6.21667 10.0267 6.16755 10.0798 6.13432 10.1291C6.08748 10.1986 6.04999 10.281 6.02659 10.3728C6.00729 10.4485 5.99999 10.5449 5.99999 11.0875V17.2669C5.99999 17.7603 6.00064 18.0755 6.01843 18.3146C6.03554 18.5445 6.06421 18.6196 6.07665 18.6464C6.14252 18.7884 6.23933 18.8861 6.33763 18.9411C6.33822 18.9415 6.3401 18.9425 6.34454 18.9442C6.34919 18.9461 6.35834 18.9493 6.37376 18.9533C6.40631 18.9617 6.46198 18.9722 6.55656 18.9807C6.76092 18.9991 7.03519 19 7.48888 19H8.66666L8.66666 13.6513C8.66663 13.4368 8.66661 13.2247 8.68001 13.0445C8.6947 12.8471 8.7296 12.6058 8.84432 12.3585C9.00216 12.0184 9.2623 11.7241 9.60305 11.5335C9.85856 11.3905 10.1114 11.3466 10.3109 11.3287C10.4863 11.313 10.6896 11.313 10.8806 11.3131H13.1193C13.3103 11.313 13.5137 11.313 13.6891 11.3287C13.8886 11.3466 14.1414 11.3905 14.3969 11.5335C14.7377 11.7242 14.9978 12.0184 15.1557 12.3585C15.2704 12.6058 15.3053 12.8471 15.32 13.0445C15.3334 13.2247 15.3334 13.4367 15.3333 13.6513L15.3333 19H16.5111C16.9648 19 17.2391 18.9991 17.4434 18.9807C17.538 18.9722 17.5937 18.9617 17.6262 18.9533C17.6417 18.9493 17.6508 18.9461 17.6555 18.9442C17.6572 18.9436 17.6585 18.943 17.6595 18.9425C17.6611 18.9418 17.662 18.9413 17.6624 18.9411C17.7607 18.8861 17.8575 18.7884 17.9233 18.6464C17.9358 18.6196 17.9645 18.5445 17.9816 18.3146C17.9993 18.0755 18 17.7603 18 17.2669V11.0875C18 10.5449 17.9927 10.4485 17.9734 10.3728C17.95 10.281 17.9125 10.1986 17.8657 10.1291C17.8324 10.0798 17.7833 10.0267 17.3897 9.69051L14.3066 7.05721L13.3598 6.26825C13.3111 6.22763 13.2672 6.18336 13.2282 6.13616L12.1146 5.18502C12.0708 5.14769 12.0334 5.11571 12 5.08747ZM13.3333 19V13.6796C13.3333 13.5155 13.3331 13.4007 13.3309 13.314C13.2637 13.3131 13.186 13.3131 13.0889 13.3131H10.9111C10.814 13.3131 10.7363 13.3131 10.6691 13.314C10.6669 13.4007 10.6667 13.5155 10.6667 13.6796V19H13.3333Z" fill="black"/>
</svg>
