<svg width="24" height="24" viewBox="0 0 24 24" fill="none" xmlns="http://www.w3.org/2000/svg">
<path fill-rule="evenodd" clip-rule="evenodd" d="M14.1546 3.04679C13.3999 3.01784 12.665 3 12 3C11.0384 3 9.93045 3.03731 8.82798 3.09156C6.85958 3.1884 5.87539 3.23682 5.06249 3.68689C4.36694 4.07199 3.76004 4.7095 3.40958 5.42313C3 6.25716 3 7.28565 3 9.34263V14.6574C3 14.9182 3 15.1625 3.00084 15.392C2.99961 15.4221 2.99973 15.4523 3.00121 15.4824C3.00845 17.0057 3.05882 17.8626 3.40958 18.5769C3.76004 19.2905 4.36694 19.928 5.06249 20.3131C5.87538 20.7632 6.85958 20.8116 8.82796 20.9084C9.93044 20.9627 11.0384 21 12 21C12.9616 21 14.0695 20.9627 15.172 20.9084C17.1404 20.8116 18.1246 20.7632 18.9375 20.3131C19.6331 19.928 20.24 19.2905 20.5904 18.5769C20.9412 17.8626 20.9916 17.0058 20.9988 15.4826C21.0003 15.4523 21.0004 15.4221 20.9992 15.3918C21 15.1624 21 14.9182 21 14.6574V9.82929C20.6872 9.93985 20.3506 10 20 10C20 10.8885 19.6137 11.6868 19 12.2361V13.1396L18.4487 12.6277C18.0192 12.8649 17.5254 13 17 13C16.1584 13 15.3977 12.6534 14.8529 12.0953C14.6619 12.2035 14.4834 12.3335 14.3218 12.4836L13.8462 12.9253L11.5244 10.7693C11.2571 10.5211 10.9438 10.3279 10.604 10.1972C10.2642 10.0665 9.90236 10 9.53847 10C9.17457 10 8.81272 10.0665 8.47298 10.1972C8.13317 10.3279 7.81983 10.5212 7.55257 10.7693L5 13.1396V9.34263C5 8.28125 5.00159 7.60625 5.04438 7.08926C5.08469 6.60224 5.15242 6.41137 5.20479 6.30473C5.37499 5.95816 5.69345 5.62364 6.03125 5.43661C6.14364 5.37438 6.32678 5.30015 6.78054 5.23865C7.26979 5.17233 7.90847 5.13922 8.92626 5.08914C9.92006 5.04025 10.9019 5.0062 11.7632 5.00076C12.3126 4.38657 13.1111 4 14 4C14 3.66678 14.0543 3.34625 14.1546 3.04679ZM18.9956 15.8647L16.9327 13.9492C16.8571 13.879 16.7634 13.8197 16.6552 13.7781C16.547 13.7365 16.4287 13.7143 16.3077 13.7143C16.1867 13.7143 16.0684 13.7365 15.9602 13.7781C15.852 13.8197 15.7583 13.879 15.6827 13.9492L15.3158 14.2899L15.7574 14.7C16.1621 15.0758 16.1855 15.7085 15.8097 16.1132C15.4339 16.5179 14.8012 16.5414 14.3965 16.1656L10.1635 12.2349C10.0878 12.1647 9.99414 12.1054 9.88597 12.0638C9.77774 12.0222 9.65945 12 9.53847 12C9.41748 12 9.29919 12.0222 9.19096 12.0638C9.08279 12.1054 8.98909 12.1647 8.91349 12.2349L5.00443 15.8647C5.00957 16.2881 5.02063 16.6238 5.04438 16.9107C5.08469 17.3978 5.15242 17.5886 5.20479 17.6953C5.37499 18.0418 5.69345 18.3764 6.03125 18.5634C6.14364 18.6256 6.32678 18.6999 6.78054 18.7614C7.26979 18.8277 7.90847 18.8608 8.92626 18.9109C10.0124 18.9643 11.0842 19 12 19C12.9158 19 13.9876 18.9643 15.0737 18.9109C16.0915 18.8608 16.7302 18.8277 17.2195 18.7614C17.6732 18.6999 17.8564 18.6256 17.9688 18.5634C18.3065 18.3764 18.625 18.0418 18.7952 17.6953C18.8476 17.5886 18.9153 17.3978 18.9556 16.9107C18.9794 16.6238 18.9904 16.2881 18.9956 15.8647Z" fill="black"/>
<path opacity="0.15" d="M13.5779 4.02946C12.1209 4.23461 11 5.4864 11 7C11 8.65685 12.3431 10 14 10C14 11.6569 15.3431 13 17 13C18.6569 13 20 11.6569 20 10V14.3621C20 16.1905 20 17.1047 19.6359 17.8461C19.3244 18.4804 18.7849 19.0471 18.1667 19.3894C17.4441 19.7895 16.5693 19.8325 14.8196 19.9186C13.8396 19.9668 12.8548 20 12 20C11.1452 20 10.1604 19.9668 9.18042 19.9186C7.43074 19.8325 6.5559 19.7895 5.83333 19.3894C5.21506 19.0471 4.67559 18.4804 4.36407 17.8461C4 17.1047 4 16.1905 4 14.3621V9.63789C4 7.80947 4 6.89525 4.36407 6.15389C4.67559 5.51955 5.21506 4.95288 5.83333 4.61057C6.5559 4.21051 7.43074 4.16747 9.18042 4.08138C10.1604 4.03317 11.1452 4 12 4C12.4915 4 13.0261 4.01097 13.5779 4.02946Z" fill="black"/>
<path fill-rule="evenodd" clip-rule="evenodd" d="M18 4C18 3.44772 17.5523 3 17 3C16.4477 3 16 3.44772 16 4V6H14C13.4477 6 13 6.44772 13 7C13 7.55228 13.4477 8 14 8H16V10C16 10.5523 16.4477 11 17 11C17.5523 11 18 10.5523 18 10V8H20C20.5523 8 21 7.55228 21 7C21 6.44772 20.5523 6 20 6H18V4Z" fill="black"/>
</svg>
