<svg width="24" height="24" viewBox="0 0 24 24" fill="none" xmlns="http://www.w3.org/2000/svg">
<path opacity="0.15" d="M4 9.63789C4 7.80947 4 6.89525 4.36407 6.15389C4.67559 5.51955 5.21506 4.95288 5.83333 4.61057C6.5559 4.21051 7.43074 4.16747 9.18042 4.08138C10.1604 4.03317 11.1452 4 12 4C12.8548 4 13.8396 4.03317 14.8196 4.08138C16.5693 4.16747 17.4441 4.21051 18.1667 4.61057C18.7849 4.95288 19.3244 5.51955 19.6359 6.15389C20 6.89525 20 7.80947 20 9.63789V14.3621C20 16.1905 20 17.1047 19.6359 17.8461C19.3244 18.4804 18.7849 19.0471 18.1667 19.3894C17.4441 19.7895 16.5693 19.8325 14.8196 19.9186C13.8396 19.9668 12.8548 20 12 20C11.1452 20 10.1604 19.9668 9.18042 19.9186C7.43074 19.8325 6.5559 19.7895 5.83333 19.3894C5.21506 19.0471 4.67559 18.4804 4.36407 17.8461C4 17.1047 4 16.1905 4 14.3621L4 9.63789Z" fill="black"/>
<path d="M15 7C14.4477 7 14 7.44772 14 8C14 8.55228 14.4477 9 15 9C15.5523 9 16 8.55228 16 8C16 7.44772 15.5523 7 15 7Z" fill="black"/>
<path fill-rule="evenodd" clip-rule="evenodd" d="M20.5904 18.5769C20.9412 17.8626 20.9916 17.0058 20.9988 15.4826C21.0003 15.4523 21.0004 15.4221 20.9992 15.3918C21 15.1624 21 14.9182 21 14.6574V9.34263C21 7.28565 21 6.25716 20.5904 5.42313C20.24 4.7095 19.6331 4.07199 18.9375 3.68689C18.1246 3.23682 17.1404 3.1884 15.172 3.09156C14.0695 3.03731 12.9616 3 12 3C11.0384 3 9.93045 3.03731 8.82798 3.09156C6.85958 3.1884 5.87539 3.23682 5.06249 3.68689C4.36694 4.07199 3.76004 4.7095 3.40958 5.42313C3 6.25716 3 7.28565 3 9.34263V14.6574C3 14.9182 3 15.1625 3.00084 15.392C2.99961 15.4221 2.99973 15.4523 3.00121 15.4824C3.00845 17.0057 3.05882 17.8626 3.40958 18.5769C3.76004 19.2905 4.36694 19.928 5.06249 20.3131C5.87538 20.7632 6.85958 20.8116 8.82796 20.9084C9.93044 20.9627 11.0384 21 12 21C12.9616 21 14.0695 20.9627 15.172 20.9084C17.1404 20.8116 18.1246 20.7632 18.9375 20.3131C19.6331 19.928 20.24 19.2905 20.5904 18.5769ZM16.9327 13.9492L18.9956 15.8647C18.9904 16.2881 18.9794 16.6238 18.9556 16.9107C18.9153 17.3978 18.8476 17.5886 18.7952 17.6953C18.625 18.0418 18.3065 18.3764 17.9688 18.5634C17.8564 18.6256 17.6732 18.6999 17.2195 18.7614C16.7302 18.8277 16.0915 18.8608 15.0737 18.9109C13.9876 18.9643 12.9158 19 12 19C11.0842 19 10.0124 18.9643 8.92626 18.9109C7.90847 18.8608 7.26979 18.8277 6.78054 18.7614C6.32678 18.6999 6.14364 18.6256 6.03125 18.5634C5.69345 18.3764 5.37499 18.0418 5.20479 17.6953C5.15242 17.5886 5.08469 17.3978 5.04438 16.9107C5.02063 16.6238 5.00957 16.2881 5.00443 15.8647L8.91349 12.2349C8.98909 12.1647 9.08279 12.1054 9.19096 12.0638C9.29919 12.0222 9.41748 12 9.53847 12C9.65945 12 9.77774 12.0222 9.88597 12.0638C9.99414 12.1054 10.0878 12.1647 10.1635 12.2349L14.3965 16.1656C14.8012 16.5414 15.4339 16.5179 15.8097 16.1132C16.1855 15.7085 16.1621 15.0758 15.7574 14.7L15.3158 14.2899L15.6827 13.9492C15.7583 13.879 15.852 13.8197 15.9602 13.7781C16.0684 13.7365 16.1867 13.7143 16.3077 13.7143C16.4287 13.7143 16.547 13.7365 16.6552 13.7781C16.7634 13.8197 16.8571 13.879 16.9327 13.9492ZM19 9.34263V13.1396L18.2936 12.4836C18.0263 12.2354 17.713 12.0421 17.3732 11.9114C17.0334 11.7808 16.6716 11.7143 16.3077 11.7143C15.9438 11.7143 15.5819 11.7808 15.2422 11.9114C14.9024 12.0421 14.5891 12.2354 14.3218 12.4836L13.8462 12.9253L11.5244 10.7693C11.2571 10.5211 10.9438 10.3279 10.604 10.1972C10.2642 10.0665 9.90236 10 9.53847 10C9.17457 10 8.81272 10.0665 8.47298 10.1972C8.13317 10.3279 7.81983 10.5212 7.55257 10.7693L5 13.1396V9.34263C5 8.28125 5.00159 7.60625 5.04438 7.08926C5.08469 6.60224 5.15242 6.41137 5.20479 6.30473C5.37499 5.95816 5.69345 5.62364 6.03125 5.43661C6.14364 5.37438 6.32678 5.30015 6.78054 5.23865C7.26979 5.17233 7.90847 5.13922 8.92626 5.08914C10.0124 5.0357 11.0842 5 12 5C12.9158 5 13.9876 5.0357 15.0737 5.08914C16.0915 5.13922 16.7302 5.17233 17.2195 5.23865C17.6732 5.30015 17.8564 5.37438 17.9688 5.43661C18.3065 5.62364 18.625 5.95816 18.7952 6.30473C18.8476 6.41137 18.9153 6.60224 18.9556 7.08926C18.9984 7.60625 19 8.28125 19 9.34263Z" fill="black"/>
</svg>
