<svg width="24" height="24" viewBox="0 0 24 24" fill="none" xmlns="http://www.w3.org/2000/svg">
<path opacity="0.15" d="M11.7632 4.00085C11.2886 4.53151 11 5.23208 11 6.00004C11 7.6569 12.3431 9.00004 14 9.00004H19.9993C20 9.19962 20 9.41179 20 9.63794V14.3621C20 16.1906 20 17.1048 19.6359 17.8461C19.3244 18.4805 18.7849 19.0472 18.1667 19.3895C17.4441 19.7895 16.5693 19.8326 14.8196 19.9187C13.8396 19.9669 12.8548 20 12 20C11.1452 20 10.1604 19.9669 9.18042 19.9187C7.43075 19.8326 6.5559 19.7895 5.83333 19.3895C5.21506 19.0472 4.67559 18.4805 4.36407 17.8461C4 17.1048 4 16.1906 4 14.3621V9.63794C4 7.80951 4 6.89529 4.36407 6.15393C4.67559 5.51959 5.21506 4.95293 5.83333 4.61062C6.5559 4.21055 7.43074 4.16751 9.18042 4.08143C10.0711 4.0376 10.9658 4.00621 11.7632 4.00085Z" fill="black"/>
<path fill-rule="evenodd" clip-rule="evenodd" d="M20.9988 15.4826C20.9916 17.0058 20.9412 17.8626 20.5904 18.5769C20.24 19.2905 19.6331 19.928 18.9375 20.3131C18.1246 20.7632 17.1404 20.8116 15.172 20.9084C14.0695 20.9627 12.9616 21 12 21C11.0384 21 9.93044 20.9627 8.82796 20.9084C6.85958 20.8116 5.87538 20.7632 5.06249 20.3131C4.36694 19.928 3.76004 19.2905 3.40958 18.5769C3.05882 17.8626 3.00845 17.0057 3.00121 15.4824C2.99973 15.4523 2.99961 15.4221 3.00084 15.392C3 15.1625 3 14.9182 3 14.6574V9.34263C3 7.28565 3 6.25716 3.40958 5.42313C3.76004 4.7095 4.36694 4.07199 5.06249 3.68689C5.87539 3.23682 6.85958 3.1884 8.82798 3.09156C9.93045 3.03731 11.0384 3 12 3C12.4989 3 13.0372 3.01004 13.5937 3.02728C12.464 3.18025 11.534 3.962 11.1677 5.00856C10.4616 5.02219 9.69752 5.05119 8.92626 5.08914C7.90847 5.13922 7.26979 5.17233 6.78054 5.23865C6.32678 5.30015 6.14364 5.37438 6.03125 5.43661C5.69345 5.62364 5.37499 5.95816 5.20479 6.30473C5.15242 6.41137 5.08469 6.60224 5.04438 7.08926C5.00159 7.60625 5 8.28125 5 9.34263V13.1396L7.55257 10.7693C7.81983 10.5212 8.13317 10.3279 8.47298 10.1972C8.81272 10.0665 9.17457 10 9.53847 10C9.90236 10 10.2642 10.0665 10.604 10.1972C10.9438 10.3279 11.2571 10.5211 11.5244 10.7693L13.8462 12.9253L14.3218 12.4836C14.5891 12.2354 14.9024 12.0421 15.2422 11.9114C15.5819 11.7808 15.9438 11.7143 16.3077 11.7143C16.6716 11.7143 17.0334 11.7808 17.3732 11.9114C17.713 12.0421 18.0263 12.2354 18.2936 12.4836L19 13.1396V9.34263C19 9.22367 19 9.10957 18.9999 9H20C20.3505 9 20.687 8.93988 20.9997 8.82939C21 8.99307 21 9.16397 21 9.34263V14.6574C21 14.9182 21 15.1624 20.9992 15.3918C21.0004 15.4221 21.0003 15.4523 20.9988 15.4826ZM18.9956 15.8647L16.9327 13.9492C16.8571 13.879 16.7634 13.8197 16.6552 13.7781C16.547 13.7365 16.4287 13.7143 16.3077 13.7143C16.1867 13.7143 16.0684 13.7365 15.9602 13.7781C15.852 13.8197 15.7583 13.879 15.6827 13.9492L15.3158 14.2899L15.7574 14.7C16.1621 15.0758 16.1855 15.7085 15.8097 16.1132C15.4339 16.5179 14.8012 16.5414 14.3965 16.1656L10.1635 12.2349C10.0878 12.1647 9.99414 12.1054 9.88597 12.0638C9.77774 12.0222 9.65945 12 9.53847 12C9.41748 12 9.29919 12.0222 9.19096 12.0638C9.08279 12.1054 8.98909 12.1647 8.91349 12.2349L5.00443 15.8647C5.00957 16.2881 5.02063 16.6238 5.04438 16.9107C5.08469 17.3978 5.15242 17.5886 5.20479 17.6953C5.37499 18.0418 5.69345 18.3764 6.03125 18.5634C6.14364 18.6256 6.32678 18.6999 6.78054 18.7614C7.26979 18.8277 7.90847 18.8608 8.92626 18.9109C10.0124 18.9643 11.0842 19 12 19C12.9158 19 13.9876 18.9643 15.0737 18.9109C16.0915 18.8608 16.7302 18.8277 17.2195 18.7614C17.6732 18.6999 17.8564 18.6256 17.9688 18.5634C18.3065 18.3764 18.625 18.0418 18.7952 17.6953C18.8476 17.5886 18.9153 17.3978 18.9556 16.9107C18.9794 16.6238 18.9904 16.2881 18.9956 15.8647Z" fill="black"/>
<path fill-rule="evenodd" clip-rule="evenodd" d="M13 6C13 5.44772 13.4477 5 14 5H20C20.5523 5 21 5.44772 21 6C21 6.55228 20.5523 7 20 7H14C13.4477 7 13 6.55228 13 6Z" fill="black"/>
</svg>
