<svg width="24" height="24" viewBox="0 0 24 24" fill="none" xmlns="http://www.w3.org/2000/svg">
<path opacity="0.15" d="M12 4.99995C12 4.99995 9.0107 4.90297 7.90071 5.32172C7.56441 5.44859 7.2581 5.65565 7.00396 5.92791C6.71656 6.23578 6.52392 6.65717 6.13865 7.49995L4.4054 11.1131C4.25421 11.4439 4.17861 11.6092 4.1253 11.7826C4.07795 11.9365 4.04376 12.0949 4.02318 12.2557C4 12.4368 4 12.6217 4 12.9914V14.8C4 16.2701 4 16.9384 4.26158 17.5C4.49168 17.9939 4.85883 18.3955 5.31042 18.6471C5.76201 18.8988 9.38393 19 12 19C14.6161 19 18.238 18.8988 18.6896 18.6471C19.1412 18.3955 19.5083 17.9939 19.7384 17.5C20 16.9384 20 16.2701 20 14.8V12.9914C20 12.6217 20 12.4368 19.9768 12.2557C19.9562 12.0949 19.9221 11.9365 19.8747 11.7826C19.8214 11.6092 19.7458 11.4439 19.5946 11.1131L17.8614 7.49996C17.4761 6.65718 17.2834 6.23577 16.996 5.92791C16.7419 5.65565 16.4356 5.44859 16.0993 5.32172C14.9893 4.90297 12 4.99995 12 4.99995Z" fill="black"/>
<path fill-rule="evenodd" clip-rule="evenodd" d="M11.9666 5.9994L11.9614 5.99924L11.9387 5.99859C11.9183 5.99803 11.8875 5.99724 11.8475 5.99637C11.7675 5.99462 11.6508 5.99254 11.507 5.99131C11.2186 5.98884 10.8243 5.98979 10.3983 6.0033C9.97023 6.01688 9.5221 6.04277 9.12287 6.08833C8.70534 6.13598 8.41127 6.1979 8.25367 6.25735C8.06644 6.32799 7.88813 6.44618 7.73494 6.61029C7.58538 6.77051 7.46376 7.00648 7.04811 7.91571L7.04027 7.93247L5.56879 11H7.10556C8.08151 11 8.91731 11.6014 9.30946 12.4592C9.4076 12.6739 9.57403 12.75 9.69442 12.75H14.3056C14.4259 12.75 14.5924 12.6739 14.6905 12.4592C15.0827 11.6014 15.9185 11 16.8944 11H18.4312L16.9597 7.93247L16.9519 7.91572C16.5362 7.00649 16.4146 6.77051 16.265 6.61029C16.1118 6.44618 15.9335 6.32799 15.7463 6.25735C15.5887 6.1979 15.2946 6.13598 14.8771 6.08833C14.4779 6.04277 14.0297 6.01688 13.6017 6.0033C13.1757 5.98979 12.7814 5.98884 12.493 5.99131C12.3491 5.99254 12.2325 5.99462 12.1525 5.99637C12.1125 5.99724 12.0817 5.99803 12.0613 5.99859L12.0386 5.99924L12.0334 5.9994L12.0324 5.99943C12.0108 6.00013 11.9892 6.00013 11.9677 5.99943L11.9666 5.9994ZM20.9132 11.8053C20.9101 11.7896 20.9066 11.774 20.9028 11.7586C20.882 11.6677 20.8579 11.5776 20.8305 11.4885C20.7576 11.2516 20.6561 11.0298 20.5256 10.7445C20.5185 10.729 20.5113 10.7133 20.5041 10.6974L20.4962 10.6806L18.767 7.07579C18.7481 7.03447 18.7295 6.99364 18.7111 6.95329C18.3854 6.23928 18.1281 5.67512 17.727 5.24553C17.3719 4.86512 16.9376 4.5692 16.4523 4.38609C16.0549 4.23617 15.559 4.15317 15.1039 4.10123C14.6304 4.0472 14.1231 4.01883 13.6651 4.00431C13.205 3.98972 12.7826 3.98875 12.4758 3.99138C12.3221 3.9927 12.1965 3.99493 12.1087 3.99684C12.0648 3.9978 12.0303 3.99869 12.0064 3.99934L12 3.99953L11.9936 3.99934C11.9697 3.99869 11.9351 3.9978 11.8912 3.99684C11.8034 3.99493 11.6779 3.9927 11.5241 3.99138C11.2173 3.98875 10.795 3.98972 10.3349 4.00431C9.87688 4.01883 9.36956 4.0472 8.89611 4.10123C8.44097 4.15317 7.94513 4.23617 7.54772 4.38609C7.06236 4.5692 6.62805 4.86512 6.27295 5.24553C5.87192 5.67512 5.61459 6.23929 5.28891 6.95331C5.2705 6.99366 5.25188 7.03449 5.233 7.0758L3.50376 10.6806L3.49591 10.6974C3.48864 10.7133 3.48146 10.729 3.47436 10.7445C3.34384 11.0298 3.24238 11.2516 3.16948 11.4885C3.14209 11.5776 3.11797 11.6677 3.09716 11.7585C3.09333 11.774 3.08986 11.7896 3.08675 11.8053C3.06367 11.9122 3.04516 12.0201 3.03126 12.1287C2.99982 12.3743 2.99989 12.6198 2.99998 12.9394C2.99998 12.9565 2.99999 12.9739 2.99999 12.9914L2.99999 14.8406C2.99997 15.5407 2.99996 16.1081 3.03569 16.5681C3.0734 17.0538 3.15479 17.4922 3.35511 17.9222C3.669 18.596 4.17784 19.1607 4.82361 19.5206C5.04168 19.6422 5.30044 19.6927 5.44095 19.7183C5.62524 19.7519 5.8433 19.7797 6.07771 19.8034C6.54907 19.851 7.14742 19.8882 7.79953 19.9169C9.1071 19.9745 10.6819 20 12 20C13.3181 20 14.8929 19.9745 16.2004 19.9169C16.8526 19.8882 17.4509 19.851 17.9223 19.8034C18.1567 19.7797 18.3747 19.7519 18.559 19.7183C18.6995 19.6927 18.9583 19.6422 19.1764 19.5206C19.8221 19.1607 20.331 18.596 20.6449 17.9222C20.8452 17.4922 20.9266 17.0538 20.9643 16.5681C21 16.1081 21 15.5407 21 14.8406V12.9914C21 12.9738 21 12.9565 21 12.9393C21.0001 12.6198 21.0002 12.3743 20.9687 12.1287C20.9548 12.0201 20.9363 11.9122 20.9132 11.8053ZM19 13V14.8C19 15.5512 18.9993 16.0401 18.9703 16.4133C18.9426 16.7697 18.8932 16.9462 18.8319 17.0777C18.697 17.3673 18.4947 17.5927 18.2622 17.7385C18.2469 17.7418 18.2266 17.746 18.2005 17.7507C18.0901 17.7709 17.9306 17.7923 17.7211 17.8135C17.3046 17.8556 16.7493 17.8908 16.1125 17.9189C14.8422 17.9748 13.298 18 12 18C10.702 18 9.15781 17.9748 7.8875 17.9189C7.25068 17.8908 6.69537 17.8556 6.27886 17.8135C6.06934 17.7923 5.9099 17.7709 5.79947 17.7507C5.77341 17.746 5.75309 17.7418 5.73782 17.7385C5.50525 17.5927 5.30297 17.3673 5.16804 17.0777C5.10677 16.9462 5.05736 16.7697 5.02968 16.4133C5.0007 16.0401 4.99999 15.5512 4.99999 14.8V13H7.10556C7.22594 13 7.39238 13.076 7.49051 13.2907C7.88267 14.1486 8.71847 14.75 9.69442 14.75H14.3056C15.2815 14.75 16.1173 14.1486 16.5095 13.2907C16.6076 13.076 16.774 13 16.8944 13H19Z" fill="black"/>
</svg>
