<svg width="24" height="24" viewBox="0 0 24 24" fill="none" xmlns="http://www.w3.org/2000/svg">
<path opacity="0.15" fill-rule="evenodd" clip-rule="evenodd" d="M4.30109 5.92504C4 6.54539 4 7.30773 4 8.83239V15.1676C4 16.6923 4 17.4546 4.30109 18.075C4.55942 18.6072 5.0041 19.0816 5.51858 19.3738C6.11819 19.7143 6.85116 19.7617 8.31708 19.8565C9.56731 19.9374 10.8925 20 12 20C13.1075 20 14.4327 19.9374 15.6829 19.8565C17.1488 19.7617 17.8818 19.7143 18.4814 19.3738C18.9959 19.0816 19.4406 18.6072 19.6989 18.075C20 17.4546 20 16.6923 20 15.1676V8.83239C20 7.30773 20 6.54539 19.6989 5.92504C19.4406 5.39277 18.9959 4.9184 18.4814 4.62624C17.8818 4.28573 17.1488 4.23831 15.6829 4.14347C14.4327 4.06258 13.1075 4 12 4C10.8925 4 9.56734 4.06258 8.3171 4.14347C6.85116 4.23831 6.1182 4.28573 5.51858 4.62624C5.0041 4.9184 4.55942 5.39277 4.30109 5.92504ZM14.6629 13.3817C14.9535 12.8216 15.0601 12.1841 14.9675 11.5599C14.8731 10.9233 14.5765 10.3338 14.1213 9.87868C13.6662 9.42355 13.0767 9.12687 12.4401 9.03245C11.8159 8.93989 11.1784 9.04651 10.6183 9.33713C10.0582 9.62776 9.60399 10.0876 9.3203 10.6512C9.0366 11.2149 8.93786 11.8536 9.0381 12.4766C9.13835 13.0996 9.43249 13.6751 9.87868 14.1213C10.3249 14.5675 10.9004 14.8616 11.5234 14.9619C12.1464 15.0621 12.7851 14.9634 13.3488 14.6797C13.9124 14.396 14.3722 13.9418 14.6629 13.3817Z" fill="black"/>
<path fill-rule="evenodd" clip-rule="evenodd" d="M10.1577 8.44951C10.9045 8.06201 11.7545 7.91986 12.5867 8.04327C13.4357 8.16915 14.2216 8.56473 14.8284 9.17158C15.4353 9.77842 15.8308 10.5643 15.9567 11.4133C16.0801 12.2455 15.938 13.0955 15.5505 13.8423C15.163 14.5891 14.5499 15.1947 13.7984 15.5729C13.0468 15.9512 12.1952 16.0829 11.3645 15.9492C10.5339 15.8155 9.7665 15.4233 9.17158 14.8284C8.57666 14.2335 8.18447 13.4661 8.05081 12.6355C7.91714 11.8048 8.0488 10.9532 8.42706 10.2016C8.80533 9.45012 9.41092 8.83701 10.1577 8.44951ZM12.2934 10.0216C11.8772 9.95993 11.4523 10.031 11.0789 10.2248C10.7055 10.4185 10.4027 10.7251 10.2135 11.1008C10.0244 11.4766 9.95857 11.9024 10.0254 12.3177C10.0922 12.7331 10.2883 13.1168 10.5858 13.4142C10.8833 13.7117 11.2669 13.9078 11.6823 13.9746C12.0976 14.0414 12.5234 13.9756 12.8992 13.7865C13.2749 13.5973 13.5815 13.2945 13.7752 12.9211C13.969 12.5477 14.0401 12.1228 13.9784 11.7066C13.9154 11.2822 13.7176 10.8892 13.4142 10.5858C13.1108 10.2824 12.7178 10.0846 12.2934 10.0216Z" fill="black"/>
<path d="M16.5 6.5C15.9477 6.5 15.5 6.94772 15.5 7.5C15.5 8.05228 15.9477 8.5 16.5 8.5H16.51C17.0623 8.5 17.51 8.05228 17.51 7.5C17.51 6.94772 17.0623 6.5 16.51 6.5H16.5Z" fill="black"/>
<path fill-rule="evenodd" clip-rule="evenodd" d="M8.25254 3.14556C9.51093 3.06414 10.8608 3 12 3C13.1392 3 14.4891 3.06414 15.7475 3.14556L15.788 3.14818C16.4865 3.19335 17.072 3.23122 17.5555 3.30381C18.0656 3.38039 18.5303 3.50403 18.9752 3.75667C19.6657 4.14875 20.2519 4.77408 20.5986 5.4884C20.8238 5.9524 20.916 6.43393 20.959 6.95783C21 7.45766 21 8.06403 21 8.79215V15.2078C21 15.9359 21 16.5423 20.959 17.0422C20.916 17.5661 20.8238 18.0476 20.5986 18.5116C20.2519 19.2259 19.6657 19.8512 18.9752 20.2433C18.5303 20.496 18.0656 20.6196 17.5555 20.6962C17.072 20.7688 16.4865 20.8066 15.7881 20.8518L15.7475 20.8544C14.4891 20.9359 13.1392 21 12 21C10.8608 21 9.51093 20.9359 8.25254 20.8544L8.21195 20.8518C7.51351 20.8067 6.92802 20.7688 6.4445 20.6962C5.93443 20.6196 5.46965 20.496 5.02477 20.2433C4.33432 19.8512 3.74814 19.2259 3.40145 18.5116C3.17625 18.0476 3.08397 17.5661 3.04099 17.0422C2.99998 16.5423 2.99999 15.936 3 15.2078V8.79217C2.99999 8.06405 2.99998 7.45767 3.04099 6.95783C3.08397 6.43393 3.17625 5.9524 3.40145 5.4884C3.74814 4.77408 4.33432 4.14875 5.02477 3.75667C5.46965 3.50403 5.93443 3.38039 6.4445 3.30381C6.92804 3.23122 7.51351 3.19335 8.21198 3.14818L8.25254 3.14556ZM12 5C10.9242 5 9.62375 5.06103 8.38166 5.14138C7.63212 5.18988 7.13145 5.22309 6.74144 5.28165C6.36864 5.33761 6.16713 5.40794 6.01239 5.49581C5.67387 5.68805 5.37071 6.01146 5.20073 6.36168C5.12484 6.51803 5.06658 6.72785 5.03429 7.12137C5.00078 7.52977 5 8.05378 5 8.83239V15.1676C5 15.9462 5.00078 16.4702 5.03429 16.8786C5.06658 17.2722 5.12484 17.482 5.20073 17.6383C5.37071 17.9885 5.67387 18.312 6.01239 18.5042C6.16713 18.5921 6.36864 18.6624 6.74144 18.7184C7.13145 18.7769 7.63212 18.8101 8.38166 18.8586C9.62375 18.939 10.9242 19 12 19C13.0758 19 14.3763 18.939 15.6183 18.8586C16.3679 18.8101 16.8686 18.7769 17.2586 18.7184C17.6314 18.6624 17.8329 18.5921 17.9876 18.5042C18.3261 18.312 18.6293 17.9885 18.7993 17.6383C18.8752 17.482 18.9334 17.2722 18.9657 16.8786C18.9992 16.4702 19 15.9462 19 15.1676V8.83239C19 8.05378 18.9992 7.52977 18.9657 7.12137C18.9334 6.72785 18.8752 6.51803 18.7993 6.36168C18.6293 6.01146 18.3261 5.68805 17.9876 5.49581C17.8329 5.40794 17.6314 5.33761 17.2586 5.28165C16.8686 5.22309 16.3679 5.18988 15.6183 5.14138C14.3763 5.06103 13.0758 5 12 5Z" fill="black"/>
</svg>
