<svg width="24" height="24" viewBox="0 0 24 24" fill="none" xmlns="http://www.w3.org/2000/svg">
<path opacity="0.15" fill-rule="evenodd" clip-rule="evenodd" d="M15 16.3264C17.3649 15.2029 19 12.7924 19 10C19 6.13401 15.866 3 12 3C8.13401 3 5 6.13401 5 10C5 12.7924 6.63505 15.2029 9 16.3264V18H15V16.3264Z" fill="black"/>
<path d="M5.94116 10.0588C5.94116 6.71263 8.65379 4 12 4C15.3462 4 18.0588 6.71263 18.0588 10.0588C18.0588 11.5655 17.5093 12.9439 16.5981 14.0046C16.1524 13.9603 15.7168 14.2217 15.5587 14.6624L14.8125 16.7427C14.8002 16.777 14.7829 16.816 14.7619 16.8537C14.7518 16.8718 14.742 16.8874 14.7331 16.9005C14.2741 17.0271 13.958 17.4682 14.0045 17.9587C14.0565 18.5085 14.5444 18.912 15.0942 18.86C15.6342 18.8089 16.0096 18.4879 16.2239 18.2386C16.4476 17.9784 16.6019 17.6777 16.6951 17.4179L17.0951 16.3028C18.9024 14.8263 20.0588 12.5777 20.0588 10.0588C20.0588 5.60806 16.4507 2 12 2C7.54922 2 3.94116 5.60806 3.94116 10.0588C3.94116 12.5777 5.09757 14.8263 6.90497 16.3029L7.30491 17.4179C7.39808 17.6777 7.55244 17.9784 7.77611 18.2386C7.99047 18.4879 8.36589 18.8089 8.90581 18.86C9.45564 18.912 9.94355 18.5085 9.99558 17.9587C10.042 17.4682 9.72593 17.027 9.2669 16.9005C9.258 16.8874 9.24826 16.8718 9.23814 16.8537C9.21714 16.816 9.19977 16.777 9.18748 16.7427L8.44131 14.6624C8.28322 14.2217 7.84759 13.9603 7.40185 14.0046C6.49062 12.9439 5.94116 11.5655 5.94116 10.0588Z" fill="black"/>
<path d="M11 12C10.4477 12 10 12.4477 10 13C10 13.5523 10.4477 14 11 14V18C11 18.5523 11.4477 19 12 19C12.5523 19 13 18.5523 13 18V14C13.5523 14 14 13.5523 14 13C14 12.4477 13.5523 12 13 12H11Z" fill="black"/>
<path d="M10.3858 20.0774C9.87653 19.8648 9.2906 20.1048 9.07752 20.614C8.86433 21.1235 9.10453 21.7093 9.61401 21.9225L9.61663 21.9236L9.621 21.9254L9.63487 21.9311L9.68216 21.9502C9.72195 21.9661 9.77803 21.9881 9.8472 22.0141C9.98494 22.0659 10.1777 22.135 10.3994 22.2044C10.8145 22.3343 11.4367 22.5 12 22.5C12.5634 22.5 13.1855 22.3343 13.6006 22.2044C13.8223 22.135 14.0151 22.0659 14.1528 22.0141C14.222 21.9881 14.2781 21.9661 14.3179 21.9502L14.3652 21.9311L14.379 21.9254L14.3834 21.9236L14.3849 21.923C14.3849 21.923 14.386 21.9225 14 21L14.386 21.9225C14.8955 21.7093 15.1357 21.1235 14.9225 20.614C14.7094 20.1046 14.1236 19.8644 13.6142 20.0774L13.6076 20.0801L13.5763 20.0928C13.5476 20.1042 13.5041 20.1213 13.4486 20.1422C13.3372 20.1841 13.1809 20.2401 13.0032 20.2957C12.6196 20.4157 12.2417 20.5 12 20.5C11.7583 20.5 11.3804 20.4157 10.9968 20.2957C10.8192 20.2401 10.6629 20.1841 10.5514 20.1422C10.496 20.1213 10.4524 20.1042 10.4237 20.0928L10.3924 20.0801L10.3858 20.0774Z" fill="black"/>
</svg>
