<svg width="24" height="24" viewBox="0 0 24 24" fill="none" xmlns="http://www.w3.org/2000/svg">
<path fill-rule="evenodd" clip-rule="evenodd" d="M12.4876 4.41142C13.4348 3.49564 14.7037 2.98873 16.0209 3.00019C17.3382 3.01165 18.5981 3.54055 19.5292 4.47266C20.4604 5.40474 20.9884 6.6654 20.9998 7.98308C21.0112 9.30076 20.5052 10.5704 19.5904 11.5185L19.5782 11.5309L17.1647 13.9469C16.6556 14.4566 16.0428 14.851 15.3679 15.103C14.693 15.355 13.9718 15.4588 13.2533 15.4073C12.5347 15.3558 11.8357 15.1502 11.2036 14.8045C10.5715 14.4588 10.0212 13.9812 9.58986 13.4039C9.25927 12.9615 9.34992 12.3349 9.79233 12.0043C10.2347 11.6737 10.8614 11.7643 11.192 12.2068C11.4517 12.5543 11.7829 12.8418 12.1633 13.0498C12.5436 13.2578 12.9641 13.3815 13.3963 13.4124C13.8285 13.4434 14.2623 13.381 14.6683 13.2294C15.0743 13.0778 15.4431 12.8405 15.7496 12.5336L18.1568 10.124C18.7039 9.55385 19.0068 8.79167 18.9999 8.00044C18.993 7.20652 18.6749 6.44727 18.1143 5.88616C17.5538 5.32508 16.7958 5.00701 16.0036 5.00011C15.2136 4.99324 14.4522 5.29635 13.8826 5.84464L12.5043 7.21632C12.1128 7.6059 11.4796 7.60437 11.0901 7.21291C10.7005 6.82144 10.702 6.18828 11.0935 5.7987L12.4773 4.42155L12.4876 4.41142ZM8.63208 8.89696C9.30698 8.64495 10.0282 8.54117 10.7467 8.59268C11.4653 8.64419 12.1643 8.84979 12.7964 9.19548C13.4285 9.54117 13.9788 10.0188 14.4101 10.5961C14.7407 11.0385 14.6501 11.6651 14.2077 11.9957C13.7653 12.3263 13.1386 12.2357 12.808 11.7932C12.5483 11.4457 12.2171 11.1582 11.8367 10.9502C11.4564 10.7422 11.0359 10.6185 10.6037 10.5876C10.1715 10.5566 9.73771 10.619 9.3317 10.7706C8.92569 10.9222 8.55692 11.1595 8.25043 11.4664L5.84327 13.876C5.29607 14.4461 4.99325 15.2083 5.00011 15.9996C5.00701 16.7935 5.32514 17.5527 5.88569 18.1138C6.4462 18.6749 7.20422 18.993 7.99645 18.9999C8.78598 19.0068 9.54691 18.704 10.1164 18.1563L11.4856 16.7857C11.876 16.395 12.5091 16.3947 12.8998 16.785C13.2906 17.1754 13.2909 17.8085 12.9006 18.1992L11.5248 19.5764L11.5124 19.5886C10.5652 20.5044 9.29631 21.0113 7.97905 20.9998C6.6618 20.9884 5.40193 20.4595 4.47076 19.5273C3.53962 18.5953 3.01163 17.3346 3.00019 16.0169C2.98875 14.6992 3.49478 13.4296 4.40958 12.4815L4.42176 12.4691L6.83525 10.0531C7.34437 9.54336 7.95723 9.14895 8.63208 8.89696Z" fill="black"/>
</svg>
