<svg width="24" height="24" viewBox="0 0 24 24" fill="none" xmlns="http://www.w3.org/2000/svg">
<path opacity="0.15" fill-rule="evenodd" clip-rule="evenodd" d="M3.40958 5.42313C3 6.25716 3 7.28565 3 9.34263V14.6574C3 16.7144 3 17.7428 3.40958 18.5769C3.76004 19.2905 4.36694 19.928 5.06249 20.3131C5.87539 20.7632 6.85958 20.8116 8.82798 20.9084C9.93045 20.9627 11.0384 21 12 21C12.9616 21 14.0695 20.9627 15.172 20.9084C17.1404 20.8116 18.1246 20.7632 18.9375 20.3131C19.6331 19.928 20.24 19.2905 20.5904 18.5769C21 17.7428 21 16.7144 21 14.6574V9.34263C21 7.28565 21 6.25716 20.5904 5.42313C20.24 4.7095 19.6331 4.07199 18.9375 3.68689C18.1246 3.23682 17.1404 3.1884 15.172 3.09156C14.0695 3.03731 12.9616 3 12 3C11.0384 3 9.93045 3.03731 8.82798 3.09156C6.85958 3.1884 5.87539 3.23682 5.06249 3.68689C4.36694 4.07199 3.76004 4.7095 3.40958 5.42313ZM7 9C7 7.89543 7.89543 7 9 7C10.1046 7 11 7.89543 11 9C11 10.1046 10.1046 11 9 11C7.89543 11 7 10.1046 7 9ZM7 15C7 13.8954 7.89543 13 9 13C10.1046 13 11 13.8954 11 15C11 16.1046 10.1046 17 9 17C7.89543 17 7 16.1046 7 15Z" fill="black"/>
<path fill-rule="evenodd" clip-rule="evenodd" d="M9 7C7.89543 7 7 7.89543 7 9C7 10.1046 7.89543 11 9 11C10.1046 11 11 10.1046 11 9C11 7.89543 10.1046 7 9 7ZM8 9C8 9.55228 8.44772 10 9 10C9.55228 10 10 9.55228 10 9C10 8.44772 9.55228 8 9 8C8.44772 8 8 8.44772 8 9Z" fill="black"/>
<path d="M14 8C13.4477 8 13 8.44771 13 9C13 9.55228 13.4477 10 14 10H16C16.5523 10 17 9.55228 17 9C17 8.44771 16.5523 8 16 8H14Z" fill="black"/>
<path d="M13 15C13 14.4477 13.4477 14 14 14H16C16.5523 14 17 14.4477 17 15C17 15.5523 16.5523 16 16 16H14C13.4477 16 13 15.5523 13 15Z" fill="black"/>
<path fill-rule="evenodd" clip-rule="evenodd" d="M7 15C7 13.8954 7.89543 13 9 13C10.1046 13 11 13.8954 11 15C11 16.1046 10.1046 17 9 17C7.89543 17 7 16.1046 7 15ZM9 16C8.44772 16 8 15.5523 8 15C8 14.4477 8.44772 14 9 14C9.55228 14 10 14.4477 10 15C10 15.5523 9.55228 16 9 16Z" fill="black"/>
<path fill-rule="evenodd" clip-rule="evenodd" d="M3.40958 5.42313C3 6.25716 3 7.28565 3 9.34263V14.6574C3 16.7144 3 17.7428 3.40958 18.5769C3.76004 19.2905 4.36694 19.928 5.06249 20.3131C5.87538 20.7632 6.85958 20.8116 8.82796 20.9084C9.93044 20.9627 11.0384 21 12 21C12.9616 21 14.0695 20.9627 15.172 20.9084C17.1404 20.8116 18.1246 20.7632 18.9375 20.3131C19.6331 19.928 20.24 19.2905 20.5904 18.5769C21 17.7428 21 16.7144 21 14.6574V9.34263C21 7.28565 21 6.25716 20.5904 5.42313C20.24 4.7095 19.6331 4.07199 18.9375 3.68689C18.1246 3.23682 17.1404 3.1884 15.172 3.09156C14.0695 3.03731 12.9616 3 12 3C11.0384 3 9.93045 3.03731 8.82798 3.09156C6.85958 3.1884 5.87539 3.23682 5.06249 3.68689C4.36694 4.07199 3.76004 4.7095 3.40958 5.42313ZM19 14.6574V9.34263C19 8.28125 18.9984 7.60625 18.9556 7.08926C18.9153 6.60224 18.8476 6.41137 18.7952 6.30473C18.625 5.95816 18.3065 5.62364 17.9688 5.43661C17.8564 5.37438 17.6732 5.30015 17.2195 5.23865C16.7302 5.17233 16.0915 5.13922 15.0737 5.08914C13.9876 5.0357 12.9158 5 12 5C11.0842 5 10.0124 5.0357 8.92626 5.08914C7.90847 5.13922 7.26979 5.17233 6.78054 5.23865C6.32678 5.30015 6.14364 5.37438 6.03125 5.43661C5.69345 5.62364 5.37499 5.95816 5.20479 6.30473C5.15242 6.41137 5.08469 6.60224 5.04438 7.08926C5.00159 7.60625 5 8.28125 5 9.34263V14.6574C5 15.7187 5.00159 16.3937 5.04438 16.9107C5.08469 17.3978 5.15242 17.5886 5.20479 17.6953C5.37499 18.0418 5.69345 18.3764 6.03125 18.5634C6.14364 18.6256 6.32678 18.6999 6.78054 18.7614C7.26979 18.8277 7.90847 18.8608 8.92626 18.9109C10.0124 18.9643 11.0842 19 12 19C12.9158 19 13.9876 18.9643 15.0737 18.9109C16.0915 18.8608 16.7302 18.8277 17.2195 18.7614C17.6732 18.6999 17.8564 18.6256 17.9688 18.5634C18.3065 18.3764 18.625 18.0418 18.7952 17.6953C18.8476 17.5886 18.9153 17.3978 18.9556 16.9107C18.9984 16.3937 19 15.7187 19 14.6574Z" fill="black"/>
</svg>
