<svg width="24" height="24" viewBox="0 0 24 24" fill="none" xmlns="http://www.w3.org/2000/svg">
<path opacity="0.15" d="M5 14.7695C5 13.2651 5 12.5129 5.30001 11.8934C5.55531 11.3663 6.00479 10.8855 6.51355 10.5953C7.11138 10.2543 7.82464 10.2061 9.25116 10.1099C10.1997 10.0459 11.1696 10 12 10C12.8304 10 13.8003 10.0459 14.7488 10.1099C16.1754 10.2061 16.8886 10.2543 17.4865 10.5953C17.9952 10.8855 18.4447 11.3663 18.7 11.8934C19 12.5129 19 13.2651 19 14.7695V15.2305C19 16.7349 19 17.4871 18.7 18.1066C18.4447 18.6337 17.9952 19.1145 17.4865 19.4047C16.8886 19.7457 16.1754 19.7939 14.7488 19.8901C13.8003 19.9541 12.8304 20 12 20C11.1696 20 10.1997 19.9541 9.25116 19.8901C7.82464 19.7939 7.11138 19.7457 6.51355 19.4047C6.00479 19.1145 5.55531 18.6337 5.30001 18.1066C5 17.4871 5 16.7349 5 15.2305V14.7695Z" fill="black"/>
<path d="M12 13C11.4477 13 11 13.4477 11 14V15C10.4477 15 10 15.4477 10 16C10 16.5523 10.4477 17 11 17H13C13.5523 17 14 16.5523 14 16C14 15.4477 13.5523 15 13 15V14C13 13.4477 12.5523 13 12 13Z" fill="black"/>
<path fill-rule="evenodd" clip-rule="evenodd" d="M7.77987 5.63515C7.22611 6.80665 7.05267 8.18203 7.01111 9.35093C6.65417 9.43349 6.32623 9.55087 6.01807 9.72666C5.33386 10.1169 4.74336 10.7486 4.40001 11.4576C4.17617 11.9197 4.08389 12.3974 4.0409 12.9172C3.99998 13.4122 3.99999 14.0113 4 14.7292V15.2708C3.99999 15.9887 3.99998 16.5878 4.0409 17.0828C4.08389 17.6026 4.17617 18.0803 4.40001 18.5424C4.74336 19.2514 5.33386 19.8831 6.01807 20.2733C6.8193 20.7304 7.75434 20.7926 8.98484 20.8745L9.18385 20.8878C10.1426 20.9525 11.1375 21 12 21C12.8625 21 13.8574 20.9525 14.8162 20.8878L15.0151 20.8745C16.2456 20.7926 17.1807 20.7304 17.9819 20.2733C18.6661 19.8831 19.2566 19.2514 19.6 18.5424C19.8238 18.0803 19.9161 17.6026 19.9591 17.0828C20 16.5878 20 15.9887 20 15.2708V14.7292C20 14.0113 20 13.4122 19.9591 12.9172C19.9161 12.3974 19.8238 11.9197 19.6 11.4576C19.2566 10.7486 18.6661 10.1169 17.9819 9.72666C17.6716 9.54965 17.3413 9.43186 16.9814 9.34922C16.9424 8.66594 16.821 7.56642 16.4445 6.48398C16.1631 5.67498 15.7168 4.80791 14.9938 4.13512C14.2481 3.44126 13.2554 3 12 3C10.9484 3 10.0578 3.26512 9.33181 3.75924C8.61206 4.2491 8.11771 4.92044 7.77987 5.63515ZM9.58804 6.48985C9.23534 7.236 9.07854 8.1772 9.02401 9.12285L9.18385 9.11217C10.1426 9.04749 11.1375 9 12 9C12.8625 9 13.8574 9.04749 14.8162 9.11217L14.9593 9.12174C14.9096 8.57111 14.7996 7.84269 14.5555 7.14102C14.3369 6.51252 14.0333 5.97334 13.6313 5.59926C13.2519 5.24624 12.7446 5 12 5C11.2969 5 10.8101 5.17238 10.4571 5.41264C10.0978 5.65715 9.81152 6.01706 9.58804 6.48985ZM9.31847 11.1076C10.2569 11.0443 11.2016 11 12 11C12.7984 11 13.7432 11.0443 14.6815 11.1076C16.205 11.2104 16.6392 11.2632 16.991 11.4639C17.3243 11.654 17.6327 11.984 17.8 12.3293C17.8762 12.4866 17.9339 12.6948 17.9659 13.082C17.9992 13.4849 18 14.0009 18 14.7695V15.2305C18 15.9991 17.9992 16.5151 17.9659 16.918C17.9339 17.3052 17.8762 17.5134 17.8 17.6707C17.6327 18.016 17.3243 18.346 16.991 18.5361C16.6392 18.7368 16.205 18.7896 14.6815 18.8924C13.7432 18.9557 12.7984 19 12 19C11.2016 19 10.2569 18.9557 9.31847 18.8924C7.79503 18.7896 7.36081 18.7368 7.00903 18.5361C6.67572 18.346 6.36727 18.016 6.2 17.6707C6.12384 17.5134 6.06612 17.3052 6.0341 16.918C6.00079 16.5151 6 15.9991 6 15.2305V14.7695C6 14.0009 6.00079 13.4849 6.0341 13.082C6.06612 12.6948 6.12384 12.4866 6.2 12.3293C6.36727 11.984 6.67572 11.654 7.00903 11.4639C7.36081 11.2632 7.79503 11.2104 9.31847 11.1076Z" fill="black"/>
</svg>
