<svg width="24" height="24" viewBox="0 0 24 24" fill="none" xmlns="http://www.w3.org/2000/svg">
<path d="M3.96221 2.99596L3.96757 2.99573L3.98227 2.99513L4.0361 2.99308C4.08234 2.9914 4.14869 2.98916 4.23104 2.98686C4.39549 2.98226 4.62499 2.97735 4.88627 2.97612C5.39736 2.97373 6.07263 2.98497 6.62078 3.04922C7.1798 3.11474 7.85214 3.26417 8.35838 3.3883C8.61719 3.45176 8.8436 3.51137 9.00557 3.55519C9.08668 3.57713 9.15194 3.59519 9.19738 3.6079L9.25027 3.62279L9.2647 3.6269L9.27063 3.6286C9.80143 3.78112 10.1081 4.33508 9.95555 4.86588C9.80303 5.39666 9.24874 5.7032 8.71796 5.55072L8.71552 5.55002L8.70442 5.54686L8.65864 5.53398C8.61813 5.52264 8.55838 5.5061 8.4833 5.48579C8.33289 5.4451 8.12219 5.38963 7.88209 5.33075C7.41698 5.21671 6.87926 5.09937 6.4586 5.04439L10.7071 9.29289C11.0976 9.68342 11.0976 10.3166 10.7071 10.7071C10.3166 11.0976 9.68342 11.0976 9.29289 10.7071L4.99599 6.41021C5.03882 6.84007 5.15146 7.41108 5.26199 7.90189C5.31631 8.14306 5.36778 8.35477 5.40561 8.50592C5.42449 8.58138 5.4399 8.64143 5.45046 8.68215L5.46248 8.72816L5.46543 8.73932L5.46608 8.74178C5.60847 9.27535 5.29149 9.82373 4.75791 9.96617C4.22431 10.1086 3.67627 9.79152 3.53383 9.25792L3.53224 9.25196L3.52841 9.23746L3.51453 9.18429C3.50268 9.13862 3.48585 9.07303 3.46545 8.99152C3.42472 8.82875 3.3694 8.60125 3.31086 8.34129C3.19634 7.83278 3.05968 7.15773 3.00477 6.59757C2.95092 6.0483 2.95247 5.37294 2.96455 4.86199C2.97073 4.60078 2.97998 4.37141 2.9877 4.20708C2.99157 4.12479 2.99506 4.05849 2.99762 4.01229L3.00069 3.9585L3.00156 3.94383L3.00165 3.94235C3.01522 3.70597 3.1123 3.47349 3.29289 3.29289C3.47726 3.10852 3.71572 3.01119 3.95719 3.00091L3.96221 2.99596Z" fill="black"/>
<path d="M20.0378 21.004L20.0324 21.0043L20.0177 21.0049L19.9639 21.0069C19.9177 21.0086 19.8513 21.0108 19.769 21.0131C19.6045 21.0177 19.375 21.0226 19.1137 21.0239C18.6026 21.0263 17.9274 21.015 17.3792 20.9508C16.8202 20.8853 16.1479 20.7358 15.6416 20.6117C15.3828 20.5482 15.1564 20.4886 14.9944 20.4448C14.9133 20.4229 14.8481 20.4048 14.8026 20.3921L14.7497 20.3772L14.7353 20.3731L14.7294 20.3714C14.1986 20.2189 13.8919 19.6649 14.0444 19.1341C14.197 18.6033 14.7513 18.2968 15.282 18.4493L15.2845 18.45L15.2956 18.4531L15.3414 18.466C15.3819 18.4774 15.4416 18.4939 15.5167 18.5142C15.6671 18.5549 15.8778 18.6104 16.1179 18.6692C16.583 18.7833 17.1207 18.9006 17.5414 18.9556L13.2929 14.7071C12.9024 14.3166 12.9024 13.6834 13.2929 13.2929C13.6834 12.9024 14.3166 12.9024 14.7071 13.2929L19.004 17.5898C18.9612 17.1599 18.8485 16.5889 18.738 16.0981C18.6837 15.8569 18.6322 15.6452 18.5944 15.4941C18.5755 15.4186 18.5601 15.3586 18.5495 15.3179L18.5375 15.2718L18.5346 15.2607L18.5339 15.2582C18.3915 14.7246 18.7085 14.1763 19.2421 14.0338C19.7757 13.8914 20.3237 14.2085 20.4662 14.7421L20.4678 14.748L20.4716 14.7625L20.4855 14.8157C20.4973 14.8614 20.5141 14.927 20.5345 15.0085C20.5753 15.1713 20.6306 15.3987 20.6891 15.6587C20.8037 16.1672 20.9403 16.8423 20.9952 17.4024C21.0491 17.9517 21.0475 18.6271 21.0354 19.138C21.0293 19.3992 21.02 19.6286 21.0123 19.7929C21.0084 19.8752 21.0049 19.9415 21.0024 19.9877L20.9993 20.0415L20.9983 20.0576C20.9848 20.294 20.8877 20.5265 20.7071 20.7071C20.5227 20.8915 20.2843 20.9888 20.0428 20.9991L20.0378 21.004Z" fill="black"/>
</svg>
