<svg width="24" height="24" viewBox="0 0 24 24" fill="none" xmlns="http://www.w3.org/2000/svg">
<path d="M9.99543 10.9799L9.99007 10.9801L9.97538 10.9807L9.92154 10.9827C9.8753 10.9844 9.80895 10.9867 9.7266 10.989C9.56215 10.9936 9.33265 10.9985 9.07137 10.9997C8.56028 11.0021 7.88501 10.9909 7.33686 10.9266C6.77784 10.8611 6.1055 10.7117 5.59926 10.5875C5.34045 10.5241 5.11404 10.4645 4.95207 10.4206C4.87097 10.3987 4.80571 10.3806 4.76026 10.3679L4.70737 10.353L4.69294 10.3489L4.68702 10.3472C4.15621 10.1947 3.84956 9.64075 4.00209 9.10995C4.15461 8.57917 4.7089 8.27263 5.23968 8.42511L5.24212 8.42581L5.25322 8.42897L5.299 8.44185C5.33951 8.45319 5.39926 8.46973 5.47434 8.49004C5.62475 8.53073 5.83545 8.5862 6.07555 8.64508C6.54066 8.75912 7.07839 8.87646 7.49904 8.93144L3.25053 4.68294C2.86001 4.29241 2.86001 3.65925 3.25053 3.26872C3.64106 2.8782 4.27422 2.8782 4.66475 3.26872L8.96165 7.56562C8.91883 7.13576 8.80618 6.56475 8.69565 6.07394C8.64134 5.83277 8.58986 5.62106 8.55203 5.46991C8.53315 5.39445 8.51774 5.3344 8.50718 5.29368L8.49516 5.24767L8.49221 5.23651L8.49156 5.23405C8.34917 4.70048 8.66616 4.1521 9.19973 4.00966C9.73333 3.86722 10.2814 4.18431 10.4238 4.71791L10.4254 4.72387L10.4292 4.73837L10.4431 4.79154C10.455 4.83721 10.4718 4.9028 10.4922 4.98431C10.5329 5.14708 10.5882 5.37458 10.6468 5.63454C10.7613 6.14305 10.898 6.8181 10.9529 7.37826C11.0067 7.92753 11.0052 8.60289 10.9931 9.11384C10.9869 9.37505 10.9777 9.60442 10.9699 9.76875C10.9661 9.85104 10.9626 9.91734 10.96 9.96354L10.957 10.0173L10.9561 10.032L10.956 10.0335C10.9424 10.2699 10.8453 10.5023 10.6647 10.6829C10.4804 10.8673 10.2419 10.9646 10.0005 10.9749L9.99543 10.9799Z" fill="black"/>
<path d="M14.0046 13.0201L14.0099 13.0199L14.0246 13.0193L14.0785 13.0173C14.1247 13.0156 14.191 13.0133 14.2734 13.011C14.4378 13.0064 14.6673 13.0015 14.9286 13.0003C15.4397 12.9979 16.115 13.0091 16.6631 13.0734C17.2222 13.1389 17.8945 13.2883 18.4007 13.4125C18.6595 13.4759 18.886 13.5355 19.0479 13.5794C19.129 13.6013 19.1943 13.6194 19.2397 13.6321L19.2926 13.647L19.3071 13.6511L19.313 13.6528C19.8438 13.8053 20.1504 14.3592 19.9979 14.89C19.8454 15.4208 19.2911 15.7274 18.7603 15.5749L18.7579 15.5742L18.7468 15.571L18.701 15.5581C18.6605 15.5468 18.6007 15.5303 18.5257 15.51C18.3752 15.4693 18.1646 15.4138 17.9245 15.3549C17.4593 15.2409 16.9216 15.1235 16.501 15.0686L20.7495 19.3171C21.14 19.7076 21.14 20.3408 20.7495 20.7313C20.3589 21.1218 19.7258 21.1218 19.3353 20.7313L15.0384 16.4344C15.0812 16.8642 15.1938 17.4353 15.3044 17.9261C15.3587 18.1672 15.4101 18.3789 15.448 18.5301C15.4669 18.6055 15.4823 18.6656 15.4928 18.7063L15.5048 18.7523L15.5078 18.7635L15.5084 18.7659C15.6508 19.2995 15.3338 19.8479 14.8003 19.9903C14.2667 20.1328 13.7186 19.8157 13.5762 19.2821L13.5746 19.2761L13.5708 19.2616L13.5569 19.2085C13.545 19.1628 13.5282 19.0972 13.5078 19.0157C13.4671 18.8529 13.4118 18.6254 13.3532 18.3655C13.2387 17.857 13.102 17.1819 13.0471 16.6217C12.9933 16.0725 12.9948 15.3971 13.0069 14.8862C13.0131 14.6249 13.0223 14.3956 13.0301 14.2312C13.0339 14.149 13.0374 14.0827 13.04 14.0365L13.043 13.9827L13.0439 13.968L13.044 13.9665C13.0576 13.7301 13.1547 13.4977 13.3353 13.3171C13.5196 13.1327 13.7581 13.0354 13.9995 13.0251L14.0046 13.0201Z" fill="black"/>
</svg>
