<svg width="24" height="24" viewBox="0 0 24 24" fill="none" xmlns="http://www.w3.org/2000/svg">
<path opacity="0.15" d="M10.5 3H8.25C7.65326 3 7.08097 3.20319 6.65901 3.56487C6.23705 3.92654 6 4.41708 6 4.92857L6 19.0714C6 19.5829 6.23705 20.0735 6.65901 20.4351C7.08097 20.7968 7.65326 21 8.25 21C8.25 21 10.5355 21 12 21C13.4645 21 15.75 21 15.75 21C16.3467 21 16.919 20.7968 17.341 20.4351C17.7629 20.0735 18 19.5829 18 19.0714V4.92857C18 4.41708 17.7629 3.92654 17.341 3.56487C16.919 3.20319 16.3467 3 15.75 3H13.5" fill="black"/>
<path d="M10.75 17.25C10.3358 17.25 10 17.5858 10 18C10 18.4142 10.3358 18.75 10.75 18.75H13.25C13.6642 18.75 14 18.4142 14 18C14 17.5858 13.6642 17.25 13.25 17.25H10.75Z" fill="black"/>
<path fill-rule="evenodd" clip-rule="evenodd" d="M8.25 2C7.43359 2 6.62537 2.27663 6.00822 2.80561C5.38631 3.33868 5 4.09775 5 4.92857V19.0714C5 19.9023 5.38631 20.6613 6.00822 21.1944C6.62537 21.7234 7.43382 22 8.25023 22H15.75C16.5664 22 17.3746 21.7234 17.9918 21.1944C18.6137 20.6613 19 19.9023 19 19.0714V4.92857C19 4.09775 18.6137 3.33868 17.9918 2.80561C17.3746 2.27663 16.5664 2 15.75 2H8.25ZM7.3098 4.32412C7.53657 4.12975 7.87294 4 8.25 4H9.5V4.28571C9.5 4.838 9.94772 5.28571 10.5 5.28571H13.5C14.0523 5.28571 14.5 4.838 14.5 4.28571V4H15.75C16.1271 4 16.4634 4.12975 16.6902 4.32412C16.9122 4.51441 17 4.73642 17 4.92857V19.0714C17 19.2636 16.9122 19.4856 16.6902 19.6759C16.4634 19.8703 16.1268 20 15.7498 20H8.25C7.87294 20 7.53657 19.8703 7.3098 19.6759C7.0878 19.4856 7 19.2636 7 19.0714V4.92857C7 4.73642 7.0878 4.51441 7.3098 4.32412Z" fill="black"/>
</svg>
