<svg width="24" height="24" viewBox="0 0 24 24" fill="none" xmlns="http://www.w3.org/2000/svg">
<path opacity="0.15" d="M19.9963 12.7224C19.6066 16.9399 16.0026 20.1262 11.769 19.9962C7.53549 19.8661 4.13393 16.4645 4.00384 12.231C3.87376 7.99741 7.06007 4.39342 11.2776 4.00366C11.9671 3.93995 12.4075 4.72143 11.996 5.2782C10.581 7.19253 10.7794 9.85401 12.4627 11.5373C14.146 13.2206 16.8075 13.419 18.7218 12.004C19.2786 11.5925 20.0601 12.0329 19.9963 12.7224Z" fill="black"/>
<path fill-rule="evenodd" clip-rule="evenodd" d="M10.9405 5.05223C7.46444 5.58828 4.89398 8.63988 5.00338 12.2002C5.11723 15.9056 8.09441 18.8827 11.7998 18.9966C15.3601 19.106 18.4117 16.5355 18.9477 13.0595C16.672 14.4876 13.683 14.1717 11.7556 12.2444C9.82824 10.317 9.51242 7.32792 10.9405 5.05223ZM11.1856 3.00786C12.7352 2.86466 13.7251 4.62115 12.8001 5.87257C11.6794 7.38883 11.8366 9.49689 13.1698 10.8301C14.5031 12.1634 16.6111 12.3206 18.1274 11.1998C19.3788 10.2748 21.1353 11.2648 20.9921 12.8143C20.5537 17.5581 16.5001 21.142 11.7383 20.9956C6.9766 20.8493 3.15064 17.0234 3.00432 12.2616C2.85801 7.49989 6.44186 3.44625 11.1856 3.00786Z" fill="black"/>
</svg>
