<svg width="24" height="24" viewBox="0 0 24 24" fill="none" xmlns="http://www.w3.org/2000/svg">
<path opacity="0.15" d="M17.3323 16.0111L17.8121 8.81381C17.8191 8.70864 17.8226 8.65605 17.8249 8.60643C17.9006 6.98713 17.1865 5.43164 15.9092 4.43342C15.8701 4.40283 15.8279 4.37121 15.7436 4.30797C15.6065 4.20511 15.5379 4.15368 15.475 4.10896C13.394 2.63035 10.6053 2.63035 8.52435 4.10896C8.46142 4.15368 8.39285 4.20511 8.2557 4.30797C8.17138 4.37121 8.12921 4.40283 8.09007 4.43342C6.8128 5.43164 6.09874 6.98713 6.17441 8.60643C6.17673 8.65605 6.18023 8.70864 6.18724 8.81381L6.66706 16.0111C6.85422 18.8185 9.18601 21 11.9997 21C14.8133 21 17.1451 18.8185 17.3323 16.0111Z" fill="black"/>
<path d="M12.9475 7.12305C12.9475 6.57076 12.4998 6.12305 11.9475 6.12305C11.3952 6.12305 10.9475 6.57076 10.9475 7.12305V9.12305C10.9475 9.67533 11.3952 10.123 11.9475 10.123C12.4998 10.123 12.9475 9.67533 12.9475 9.12305V7.12305Z" fill="black"/>
<path fill-rule="evenodd" clip-rule="evenodd" d="M11.9475 2.12305C8.29494 2.12305 4.87479 5.07634 5.13669 9.00359L5.61669 16.2006C5.67043 17.0066 5.88644 17.8059 6.22779 18.5262C8.98161 24.338 17.8556 22.5261 18.2773 16.2006L18.7573 9.00359C19.0191 5.07655 15.6002 2.12305 11.9475 2.12305ZM7.61226 16.0675L7.13226 8.87051C6.96016 6.28976 9.25001 4.12305 11.9475 4.12305C14.6447 4.12305 16.9338 6.28954 16.7617 8.87051L16.2817 16.0675C15.9933 20.394 9.88132 21.5661 8.03515 17.6698C7.7965 17.1662 7.64852 16.6115 7.61226 16.0675Z" fill="black"/>
</svg>
