<svg width="24" height="24" viewBox="0 0 24 24" fill="none" xmlns="http://www.w3.org/2000/svg">
<path opacity="0.15" fill-rule="evenodd" clip-rule="evenodd" d="M9.02857 7.65299C8.2567 8.03752 7.62129 8.62531 7.44418 9.5C7.25083 10.4549 7.20519 11.191 7.1662 11.8197C7.10312 12.8369 7.05746 13.0729 6.43176 14C6.20982 14.3288 5.98788 14.6336 5.78728 14.9091L5.78726 14.9092C5.07278 15.8904 4.62889 16.5 5.41935 16.5C5.41935 16.5 9.4227 17 12 17C13.9512 17 16.7198 16.7134 17.9498 16.5742L9.02857 7.65299ZM16.9324 12.7284C16.8797 12.485 16.858 12.2098 16.8338 11.8197V11.8196C16.7949 11.191 16.7492 10.4549 16.5559 9.5C16.1509 7.5 13.3499 7 12 7C11.7817 7 11.5254 7.01308 11.2475 7.04347L16.9324 12.7284Z" fill="black"/>
<path fill-rule="evenodd" clip-rule="evenodd" d="M4.70711 3.29289C4.31658 2.90237 3.68342 2.90237 3.29289 3.29289C2.90237 3.68342 2.90237 4.31658 3.29289 4.70711L6.85943 8.27364C6.67984 8.57462 6.54217 8.91566 6.46403 9.30155C6.25697 10.3242 6.20785 11.1163 6.16859 11.7495L6.16808 11.7578C6.13551 12.2829 6.11124 12.4724 6.05828 12.6364C6.0074 12.7941 5.91026 12.9851 5.60285 13.4406C5.39232 13.7525 5.18052 14.0435 4.97882 14.3205L4.97012 14.3325C4.79824 14.5685 4.62603 14.805 4.48441 15.018C4.34828 15.2228 4.1944 15.4725 4.10072 15.7264C4.02593 15.9291 3.85237 16.5056 4.26405 17.0167C4.60041 17.4343 5.09042 17.4922 5.35114 17.4991L5.4778 17.5144C5.59424 17.5283 5.76286 17.5481 5.97302 17.5718C6.39315 17.6192 6.98028 17.6824 7.64909 17.7456C8.07386 17.7857 8.53492 17.8262 9.00939 17.8627C9.00315 17.9371 9 18.0129 9 18.09C9 19.7401 10.3871 21 12 21C13.6129 21 15 19.7401 15 18.09C15 18.0128 14.9968 17.937 14.9906 17.8627C15.4584 17.8267 15.9132 17.7868 16.333 17.7472L19.2929 20.7071C19.6834 21.0976 20.3166 21.0976 20.7071 20.7071C21.0976 20.3166 21.0976 19.6834 20.7071 19.2929L4.70711 3.29289ZM14.4807 15.895L8.40114 9.81535C8.24171 10.6415 8.20114 11.2865 8.16424 11.8816C8.13373 12.3736 8.10363 12.8108 7.96156 13.2509C7.81742 13.6973 7.57887 14.0879 7.26059 14.5594C7.0287 14.903 6.79807 15.2197 6.5994 15.4926L6.59935 15.4927L6.59933 15.4927L6.50752 15.6189C6.87827 15.6594 7.33428 15.7069 7.83721 15.7544C9.15445 15.8789 10.7608 16 12 16C12.7422 16 13.6161 15.9566 14.4807 15.895ZM15.5757 9.69845C15.7293 10.4569 15.7824 11.0639 15.8188 11.6148L19.8797 15.6757C19.7851 15.4394 19.6426 15.2091 19.5155 15.018C19.3739 14.805 19.2017 14.5685 19.0298 14.3325L19.0211 14.3205C18.8194 14.0435 18.6076 13.7525 18.3971 13.4406C18.0897 12.9851 17.9926 12.7941 17.9417 12.6364C17.8887 12.4724 17.8645 12.283 17.8319 11.7578L17.8314 11.7495C17.7921 11.1163 17.743 10.3242 17.5359 9.30155C17.2369 7.82464 16.0658 7.00462 15.0098 6.57403C14.9812 6.56235 14.9525 6.55089 14.9237 6.53964C14.9739 6.34262 15 6.13221 15 5.90996C15 4.25992 13.6129 3 12 3C10.7153 3 9.57383 3.79935 9.16251 4.9585L12.2084 8.0044C12.7835 8.02781 13.5712 8.14727 14.2546 8.42597C15.0379 8.74538 15.4698 9.17536 15.5757 9.69845ZM12 5C11.4038 5 11 5.45031 11 5.90996C11 5.98637 11.01 6.03463 11.0192 6.06329C11.3837 6.01849 11.7189 6 12 6C12.2811 6 12.6163 6.01849 12.9808 6.06329C12.9901 6.03425 13 5.986 13 5.90996C13 5.45031 12.5962 5 12 5ZM12.9914 17.9804C12.6479 17.9929 12.3144 18 12 18C11.6856 18 11.3521 17.9929 11.0086 17.9804C11.0037 18.0079 11 18.0438 11 18.09C11 18.5497 11.4038 19 12 19C12.5962 19 13 18.5497 13 18.09C13 18.0439 12.9964 18.008 12.9914 17.9804Z" fill="black"/>
</svg>
