<svg width="24" height="24" viewBox="0 0 24 24" fill="none" xmlns="http://www.w3.org/2000/svg">
<path opacity="0.15" d="M12 7C10.6501 7 7.84913 7.5 7.44417 9.5C7.25081 10.4549 7.20517 11.191 7.16619 11.8197C7.10311 12.8369 7.05745 13.0729 6.43174 14C6.2098 14.3288 5.98786 14.6336 5.78725 14.9092C5.07276 15.8904 4.62887 16.5 5.41934 16.5C5.41934 16.5 9.42269 17 12 17C14.5773 17 18.5806 16.5 18.5806 16.5C19.3711 16.5 18.9272 15.8904 18.2127 14.9092C18.0121 14.6336 17.7902 14.3288 17.5682 14C16.9425 13.0729 16.8969 12.8369 16.8338 11.8197C16.7948 11.191 16.7492 10.4549 16.5558 9.5C16.1509 7.5 13.3499 7 12 7Z" fill="black"/>
<path fill-rule="evenodd" clip-rule="evenodd" d="M9 5.90996C9 6.13145 9.02598 6.34196 9.07629 6.53962C9.0475 6.55088 9.01878 6.56235 8.99013 6.57403C7.93421 7.00462 6.76308 7.82464 6.46403 9.30155C6.25697 10.3242 6.20785 11.1163 6.16859 11.7495L6.16808 11.7578C6.13551 12.2829 6.11124 12.4724 6.05828 12.6364C6.0074 12.7941 5.91027 12.9851 5.60285 13.4406C5.39232 13.7525 5.18052 14.0435 4.97882 14.3205L4.97012 14.3325C4.79824 14.5685 4.62603 14.805 4.48441 15.018C4.34828 15.2228 4.1944 15.4725 4.10072 15.7264C4.02593 15.9291 3.85237 16.5056 4.26405 17.0167C4.60041 17.4343 5.09042 17.4922 5.35114 17.4991L5.4778 17.5144C5.59425 17.5283 5.76286 17.5481 5.97302 17.5718C6.39315 17.6192 6.98028 17.6824 7.64909 17.7456C8.07386 17.7857 8.53492 17.8262 9.00939 17.8627C9.00315 17.9371 9 18.0129 9 18.09C9 19.7401 10.3871 21 12 21C13.6129 21 15 19.7401 15 18.09C15 18.0128 14.9968 17.937 14.9906 17.8627C15.4651 17.8262 15.9261 17.7857 16.3509 17.7456C17.0197 17.6824 17.6068 17.6192 18.0269 17.5718C18.2371 17.5481 18.4057 17.5283 18.5221 17.5144L18.6488 17.4991C18.9095 17.4922 19.3995 17.4343 19.7359 17.0167C20.1476 16.5056 19.974 15.9291 19.8992 15.7264C19.8055 15.4725 19.6516 15.2228 19.5155 15.018C19.3739 14.805 19.2017 14.5685 19.0298 14.3325L19.0211 14.3205C18.8194 14.0435 18.6076 13.7525 18.3971 13.4406C18.0897 12.9851 17.9926 12.7941 17.9417 12.6364C17.8887 12.4724 17.8645 12.283 17.8319 11.7578L17.8314 11.7495C17.7921 11.1163 17.743 10.3242 17.5359 9.30155C17.2369 7.82464 16.0658 7.00462 15.0098 6.57403C14.9812 6.56235 14.9525 6.55089 14.9237 6.53964C14.9739 6.34262 15 6.13221 15 5.90996C15 4.25992 13.6129 3 12 3C10.3871 3 9 4.25992 9 5.90996ZM12 5C11.4038 5 11 5.45031 11 5.90996C11 5.98637 11.01 6.03463 11.0192 6.06329C11.3837 6.01849 11.7189 6 12 6C12.2811 6 12.6163 6.01849 12.9808 6.06329C12.9901 6.03425 13 5.986 13 5.90996C13 5.45031 12.5962 5 12 5ZM12.9914 17.9804C12.6479 17.9929 12.3144 18 12 18C11.6856 18 11.3521 17.9929 11.0086 17.9804C11.0037 18.0079 11 18.0438 11 18.09C11 18.5497 11.4038 19 12 19C12.5962 19 13 18.5497 13 18.09C13 18.0439 12.9964 18.008 12.9914 17.9804ZM9.74532 8.42597C8.96203 8.74538 8.53017 9.17536 8.42425 9.69845C8.24551 10.5812 8.20286 11.2587 8.16424 11.8816C8.13373 12.3736 8.10363 12.8108 7.96156 13.2509C7.81742 13.6973 7.57887 14.0879 7.26059 14.5594C7.02867 14.9031 6.79801 15.2198 6.59933 15.4927L6.50752 15.6189C6.87827 15.6594 7.33428 15.7069 7.83722 15.7544C9.15445 15.8789 10.7608 16 12 16C13.2392 16 14.8455 15.8789 16.1627 15.7544C16.6657 15.7069 17.1217 15.6594 17.4924 15.6189L17.4006 15.4927C17.202 15.2199 16.9712 14.9029 16.7393 14.5594C16.4211 14.0879 16.1825 13.6973 16.0384 13.2508C15.8963 12.8108 15.8662 12.3736 15.8357 11.8816C15.7971 11.2587 15.7545 10.5812 15.5757 9.69845C15.4698 9.17536 15.0379 8.74538 14.2546 8.42597C13.4843 8.11183 12.5815 8 12 8C11.4185 8 10.5157 8.11183 9.74532 8.42597Z" fill="black"/>
</svg>
