<svg width="24" height="24" viewBox="0 0 24 24" fill="none" xmlns="http://www.w3.org/2000/svg">
<path opacity="0.15" d="M3.91667 15L21 15V11C21 11 19.1176 8.70219 18 7.99997C16.667 7.16244 14 7.49997 14 7.49997V7C14 5.99545 13.1796 5.18182 12.1667 5.18182C12.1667 5.18182 9.93368 5 8.5 5C7.06632 5 4.83333 5.18182 4.83333 5.18182C3.82042 5.18182 3 5.99545 3 7V14.0909C3 14.5927 3.41067 15 3.91667 15Z" fill="black"/>
<path fill-rule="evenodd" clip-rule="evenodd" d="M3.83665 5.26297C3.79183 4.71251 4.20174 4.22994 4.7522 4.18512L4.77932 4.18294L4.85448 4.17702C4.91962 4.17195 5.01388 4.16474 5.1313 4.1561C5.36604 4.13884 5.69401 4.11583 6.06754 4.0928C6.8088 4.04711 7.75089 4 8.50002 4C9.24915 4 10.1912 4.04711 10.9325 4.0928C11.306 4.11583 11.634 4.13884 11.8687 4.1561C11.9862 4.16474 12.0804 4.17195 12.1456 4.17702L12.2107 4.18215C13.5563 4.20261 14.6834 5.15874 14.9435 6.43625C15.1233 6.432 15.319 6.43118 15.5245 6.43619C16.3779 6.45699 17.6188 6.57946 18.532 7.15323C19.2198 7.58539 20.0535 8.43349 20.6545 9.08561C20.9699 9.42792 21.2484 9.74656 21.4479 9.97939C21.5478 10.096 21.6283 10.1916 21.6843 10.2586C21.7122 10.2921 21.7341 10.3184 21.7492 10.3367L21.7667 10.3579L21.7736 10.3663C21.92 10.545 22 10.7689 22 11V15C22 15.5523 21.5523 16 21 16H19.8294C19.9399 16.3127 20 16.6493 20 17C20 18.6573 18.6573 20 17 20C15.3427 20 14 18.6573 14 17C14 16.6493 14.0601 16.3127 14.1706 16H14.0082L14 16H8.8294C8.93989 16.3128 9 16.6493 9 17C9 18.6573 7.65728 20 6 20C4.34272 20 3 18.6573 3 17C3 16.5579 3.09556 16.1382 3.26715 15.7604C3.05265 15.5769 2.91669 15.3043 2.91669 15C2.91669 14.4477 3.3644 14 3.91669 14H13V7.49997L13 7.49359V7C13 6.55555 12.6352 6.18182 12.1667 6.18182C12.1396 6.18182 12.1123 6.1807 12.0853 6.1785L12.0618 6.17661L11.9903 6.17099C11.9277 6.16612 11.8363 6.15912 11.722 6.15071C11.4933 6.13389 11.1734 6.11145 10.8095 6.08902C10.0758 6.0438 9.18457 6 8.50002 6C7.81547 6 6.92423 6.0438 6.19058 6.08902C5.82665 6.11145 5.50677 6.13389 5.27801 6.15071C5.1637 6.15912 5.0723 6.16612 5.00972 6.17099L4.93825 6.17661L4.91451 6.17852C4.36405 6.22334 3.88147 5.81344 3.83665 5.26297ZM6 16C5.44728 16 5 16.4473 5 17C5 17.5527 5.44728 18 6 18C6.55272 18 7 17.5527 7 17C7 16.4473 6.55272 16 6 16ZM15 14H20V11.3637L19.929 11.2805C19.7406 11.0606 19.4786 10.7609 19.1838 10.441C18.5641 9.76866 17.8978 9.11677 17.468 8.8467C17.0482 8.58294 16.2891 8.45542 15.4758 8.4356C15.3086 8.43152 15.1483 8.4321 15 8.43547V14ZM17 16C16.4473 16 16 16.4473 16 17C16 17.5527 16.4473 18 17 18C17.5527 18 18 17.5527 18 17C18 16.4473 17.5527 16 17 16Z" fill="black"/>
<path d="M3 8.5C3 7.94772 3.44772 7.5 4 7.5H7C7.55228 7.5 8 7.94772 8 8.5C8 9.05228 7.55228 9.5 7 9.5H4C3.44772 9.5 3 9.05228 3 8.5Z" fill="black"/>
<path d="M3 10.5C2.44772 10.5 2 10.9477 2 11.5C2 12.0523 2.44772 12.5 3 12.5H9C9.55228 12.5 10 12.0523 10 11.5C10 10.9477 9.55228 10.5 9 10.5H3Z" fill="black"/>
</svg>
