<svg width="24" height="24" viewBox="0 0 24 24" fill="none" xmlns="http://www.w3.org/2000/svg">
<path opacity="0.15" d="M5 9C5 6.79086 6.79086 5 9 5H15C17.2091 5 19 6.79086 19 9V15C19 17.2091 17.2091 19 15 19H9C6.79086 19 5 17.2091 5 15V9Z" fill="black"/>
<path d="M14.8001 3.38724C14.2841 3.4835 13.9439 3.97981 14.0401 4.49578C14.1364 5.01174 14.6333 5.35187 15.1492 5.25565L15.1628 5.25313L15.2074 5.24499C15.2466 5.23786 15.3041 5.22752 15.3763 5.21484C15.5207 5.18945 15.7229 5.15487 15.953 5.1182C16.4206 5.04369 16.9765 4.96497 17.398 4.93316C17.5056 4.92504 17.6213 4.9187 17.7421 4.91388L11.2784 11.3776C10.9072 11.7488 10.9072 12.3505 11.2784 12.7216C11.6495 13.0928 12.2512 13.0928 12.6224 12.7216L19.0861 6.25792C19.0813 6.37872 19.075 6.49442 19.0668 6.60205C19.035 7.02354 18.9563 7.57943 18.8818 8.04699C18.8451 8.27712 18.8105 8.47928 18.7852 8.62374C18.7725 8.69589 18.7621 8.75344 18.755 8.79266L18.7469 8.8372L18.7442 8.85137C18.648 9.36733 18.9883 9.86361 19.5042 9.95986C20.0202 10.0561 20.5166 9.71536 20.6129 9.19939L20.6162 9.18153L20.6251 9.13234C20.6329 9.08991 20.6438 9.02877 20.6572 8.9527C20.6839 8.80071 20.7202 8.58835 20.7589 8.34611C20.8349 7.86897 20.9242 7.24884 20.9622 6.7451C21.0052 6.17517 21.0043 5.46631 20.9943 4.91968C20.9893 4.64216 20.9817 4.39844 20.9754 4.2239C20.9722 4.13654 20.9693 4.06628 20.9673 4.01751L20.9648 3.96097L20.9642 3.94921C20.9616 3.87815 20.9511 3.80894 20.9335 3.74246C20.9238 3.70593 20.9121 3.67029 20.8984 3.63569C20.8521 3.51835 20.7814 3.40838 20.6865 3.31349C20.5825 3.20947 20.4604 3.13461 20.3303 3.0889C20.2431 3.05816 20.1503 3.03983 20.0541 3.03593L20.0391 3.03524L19.9825 3.03275C19.9337 3.03066 19.8635 3.0278 19.7761 3.02464C19.6016 3.01831 19.3579 3.01072 19.0803 3.00565C18.5337 2.99568 17.8249 2.9948 17.2549 3.03782C16.7512 3.07583 16.131 3.16512 15.6539 3.24115C15.4117 3.27975 15.1993 3.31608 15.0473 3.34279C14.9712 3.35615 14.9101 3.36715 14.8677 3.37485L14.8185 3.38384L14.8001 3.38724Z" fill="black"/>
<path d="M6 9C6 7.34315 7.34315 6 9 6H10C10.5523 6 11 5.55228 11 5C11 4.44772 10.5523 4 10 4H9C6.23858 4 4 6.23858 4 9V15C4 17.7614 6.23858 20 9 20H15C17.7614 20 20 17.7614 20 15V14C20 13.4477 19.5523 13 19 13C18.4477 13 18 13.4477 18 14V15C18 16.6569 16.6569 18 15 18H9C7.34315 18 6 16.6569 6 15V9Z" fill="black"/>
</svg>
