<svg width="24" height="24" viewBox="0 0 24 24" fill="none" xmlns="http://www.w3.org/2000/svg">
<g opacity="0.15">
<path d="M13 7C13 8.65685 11.6569 10 10 10C8.34315 10 7 8.65685 7 7C7 5.34315 8.34315 4 10 4C11.6569 4 13 5.34315 13 7Z" fill="black"/>
<path d="M8.12501 14H11.875C12.9217 14 13.445 14 13.8709 14.1879C14.8297 14.611 15.58 15.7023 15.8708 17.0969C16.1529 18.4497 14.98 19.6411 13.6049 19.7781C12.4519 19.8931 11.0872 20 10 20C8.91276 20 7.54811 19.8931 6.39506 19.7781C5.02 19.6411 3.84706 18.4497 4.12918 17.0969C4.42003 15.7023 5.17034 14.611 6.12915 14.1879C6.55499 14 7.07833 14 8.12501 14Z" fill="black"/>
</g>
<path fill-rule="evenodd" clip-rule="evenodd" d="M6 7C6 4.79086 7.79086 3 10 3C12.2091 3 14 4.79086 14 7C14 9.20914 12.2091 11 10 11C7.79086 11 6 9.20914 6 7ZM10 5C8.89543 5 8 5.89543 8 7C8 8.10457 8.89543 9 10 9C11.1046 9 12 8.10457 12 7C12 5.89543 11.1046 5 10 5Z" fill="black"/>
<path fill-rule="evenodd" clip-rule="evenodd" d="M8.09014 13H11.9099C12.4035 13 12.8277 13 13.1801 13.0263C13.5531 13.0541 13.9163 13.1149 14.2745 13.273C15.6274 13.8699 16.5187 15.3056 16.8498 16.8928C17.2895 19.0014 15.478 20.5964 13.7041 20.7732C12.5435 20.8889 11.1386 21 10 21C8.86137 21 7.45653 20.8889 6.29585 20.7732C4.52196 20.5964 2.71048 19.0014 3.15024 16.8928C3.48125 15.3056 4.37255 13.8699 5.72546 13.273C6.08368 13.1149 6.44686 13.0541 6.81988 13.0263C7.17229 13 7.59653 13 8.09014 13ZM6.96864 15.0207C6.71186 15.0399 6.60045 15.073 6.53282 15.1028C5.96813 15.352 5.35881 16.099 5.10811 17.3011C4.98363 17.898 5.51802 18.6858 6.49425 18.7831C7.63967 18.8973 8.96415 19 10 19C11.0358 19 12.3603 18.8973 13.5057 18.7831C14.482 18.6858 15.0164 17.898 14.8919 17.3011C14.6412 16.099 14.0319 15.352 13.4672 15.1028C13.3995 15.073 13.2881 15.0399 13.0314 15.0207C12.7622 15.0006 12.4131 15 11.875 15H8.125C7.58685 15 7.23776 15.0006 6.96864 15.0207Z" fill="black"/>
<path d="M14.5 11C14.0686 11 13.6555 10.922 13.2739 10.7792C13.8337 10.2938 14.2846 9.6861 14.585 8.99763C15.3739 8.95357 16 8.2999 16 7.5C16 6.81417 15.5397 6.23584 14.9112 6.05707C14.7686 5.30971 14.4596 4.62137 14.0243 4.03206C14.1798 4.01092 14.3386 4 14.5 4C16.433 4 18 5.567 18 7.5C18 9.433 16.433 11 14.5 11Z" fill="black"/>
<path d="M17.5747 20H17.0949C17.5142 19.4247 17.8122 18.7317 17.8944 17.9649C18.1808 17.9022 18.4445 17.7596 18.6355 17.5708C18.8856 17.3237 18.9688 17.0504 18.9134 16.7849C18.7112 15.8153 18.2269 15.2501 17.822 15.0715C17.7899 15.0573 17.718 15.032 17.5137 15.0168C17.4396 15.0113 17.3576 15.0076 17.2637 15.0051C16.8955 14.2358 16.3843 13.5348 15.7248 13H16.5961C17.0035 13 17.3625 13 17.6625 13.0223C17.983 13.0463 18.3067 13.0993 18.6294 13.2417C19.8225 13.7681 20.5887 15.0219 20.8713 16.3766C21.0894 17.4223 20.6835 18.3587 20.0413 18.9934C19.4096 19.6177 18.5099 20 17.5747 20Z" fill="black"/>
</svg>
