<svg width="24" height="24" viewBox="0 0 24 24" fill="none" xmlns="http://www.w3.org/2000/svg">
<path opacity="0.15" d="M3 10.263C3 9.25547 3.74861 8.40595 4.75098 8.30379C6.12527 8.16372 8.04318 8 9.5 8C10.9566 8 12.874 8.16366 14.2483 8.30371C15.251 8.4059 15.9997 9.25591 15.9993 10.2638C15.9983 13.5426 15.9986 15.4575 15.9995 18.7364C15.9998 19.7442 15.2511 20.5941 14.2485 20.6963C12.8742 20.8363 10.9566 21 9.5 21C8.04318 21 6.12527 20.8363 4.75098 20.6962C3.74861 20.594 3 19.7445 3 18.737V10.263Z" fill="black"/>
<path d="M11 11.9999C11 11.4477 11.4477 10.9999 12 10.9999C12.5523 10.9999 13 11.4477 13 11.9999C13 12.5522 12.5523 12.9999 12 12.9999C11.4477 12.9999 11 12.5522 11 11.9999Z" fill="black"/>
<path fill-rule="evenodd" clip-rule="evenodd" d="M16.9763 19.1102C17.9928 18.8514 18.8243 18.0552 19.1084 16.9936C19.9561 13.8263 20.4514 11.9767 21.301 8.81018C21.6917 7.35406 20.9406 5.81518 19.5065 5.26985C18.2122 4.7777 16.3617 4.10746 14.902 3.71632C13.442 3.32512 11.5039 2.98029 10.1369 2.75936C8.62272 2.51465 7.20311 3.47113 6.81301 4.92702L6.21364 7.16388C5.65199 7.21033 5.11716 7.26122 4.64958 7.30888C3.12368 7.4644 2 8.75571 2 10.263V18.7369C2 20.2442 3.12368 21.5355 4.64958 21.691C6.02721 21.8314 7.98851 21.9999 9.5 21.9999C11.0113 21.9999 12.9723 21.8314 14.3499 21.6911C15.7482 21.5485 16.8086 20.4523 16.9763 19.1102ZM14.3843 5.64818C13.03 5.28527 11.1782 4.9536 9.81779 4.73374C9.34265 4.65695 8.87631 4.9541 8.74486 5.44466L8.32074 7.0275C8.73074 7.0101 9.12893 6.99994 9.5 6.99994C11.0112 6.99994 12.9721 7.16841 14.3497 7.30881C15.8761 7.46437 16.9998 8.75642 16.9993 10.264C16.9985 12.8571 16.9985 14.597 16.999 16.8335C17.0789 16.7316 17.1403 16.6113 17.1764 16.4765C18.0242 13.309 18.5196 11.459 19.3693 8.2919C19.501 7.80114 19.2456 7.31038 18.7956 7.13927C17.5076 6.6495 15.7385 6.01101 14.3843 5.64818ZM4.85237 9.29857C6.22334 9.15884 8.09785 8.99994 9.5 8.99994C10.9019 8.99994 12.776 9.15879 14.1469 9.2985C14.6258 9.34731 14.9995 9.75526 14.9993 10.2634C14.9987 12.3342 14.9985 13.861 14.9988 15.5309L14.7786 15.3038C14.5479 15.0659 14.2724 14.8755 13.9669 14.745C13.6613 14.6145 13.3327 14.5469 13 14.5469C12.6673 14.5469 12.3387 14.6145 12.0331 14.745C11.7276 14.8755 11.4521 15.0659 11.2214 15.3038L11 15.5322L9.27858 13.7569C9.04789 13.519 8.77236 13.3286 8.46686 13.1981C8.16129 13.0676 7.83266 12.9999 7.5 12.9999C7.16734 12.9999 6.83871 13.0676 6.53314 13.1981C6.22765 13.3286 5.9521 13.519 5.72142 13.7569L4 15.5322V10.263C4 9.7551 4.37354 9.34738 4.85237 9.29857ZM4 18.4052L7.15725 15.1492C7.20514 15.0998 7.26032 15.0623 7.3188 15.0373C7.37721 15.0124 7.43869 14.9999 7.5 14.9999C7.56131 14.9999 7.62279 15.0124 7.6812 15.0373C7.73968 15.0623 7.79486 15.0998 7.84276 15.1492L11.2821 18.6961C11.6666 19.0926 12.2996 19.1023 12.6961 18.7178C13.0926 18.3334 13.1024 17.7003 12.7179 17.3038L12.3929 16.9687L12.6572 16.6961C12.7051 16.6467 12.7603 16.6092 12.8188 16.5842C12.8772 16.5593 12.9387 16.5469 13 16.5469C13.0613 16.5469 13.1228 16.5593 13.1812 16.5842C13.2397 16.6092 13.2949 16.6467 13.3428 16.6961L14.9994 18.4045L14.9995 18.7367C14.9996 19.2447 14.626 19.6525 14.1471 19.7014C12.7762 19.8411 10.902 19.9999 9.5 19.9999C8.09785 19.9999 6.22334 19.841 4.85237 19.7013C4.37354 19.6525 4 19.2448 4 18.7369V18.4052Z" fill="black"/>
</svg>
