<svg width="24" height="24" viewBox="0 0 24 24" fill="none" xmlns="http://www.w3.org/2000/svg">
<path opacity="0.15" d="M3.20087 9.43332C3 9.84701 3 10.3647 3 11.4001V14.5999C3 15.6353 3 16.153 3.20087 16.5667C3.37548 16.9263 3.66536 17.2354 4.01307 17.4326C4.41305 17.6596 4.92097 17.6921 5.93679 17.7573C6.14078 17.7704 6.3512 17.7835 6.5666 17.7966L7.02866 15.9997C7.13186 15.5983 7.47069 15.3025 7.88299 15.2611C8.85942 15.1631 10.6818 15 12 15C13.3182 15 15.1406 15.1631 16.117 15.2611C16.5293 15.3025 16.8682 15.5983 16.9713 15.9997L17.4334 17.7966C17.6488 17.7835 17.8592 17.7704 18.0632 17.7573C19.079 17.6921 19.5869 17.6596 19.9869 17.4326C20.3346 17.2354 20.6245 16.9263 20.7991 16.5667C21 16.153 21 15.6353 21 14.5999V11.4001C21 10.3647 21 9.84701 20.7991 9.43332C20.6245 9.0737 20.3346 8.76464 19.9869 8.56736C19.5869 8.34043 19.079 8.30785 18.0632 8.2427C16.2149 8.12416 13.8398 8 12 8C10.1602 8 7.78509 8.12416 5.93679 8.2427C4.92097 8.30785 4.41305 8.34043 4.01307 8.56736C3.66536 8.76464 3.37548 9.0737 3.20087 9.43332Z" fill="black"/>
<path d="M17 11C16.4477 11 16 11.4477 16 12C16 12.5523 16.4477 13 17 13C17.5523 13 18 12.5523 18 12C18 11.4477 17.5523 11 17 11Z" fill="black"/>
<path d="M13 12C13 11.4477 13.4477 11 14 11C14.5523 11 15 11.4477 15 12C15 12.5523 14.5523 13 14 13C13.4477 13 13 12.5523 13 12Z" fill="black"/>
<path fill-rule="evenodd" clip-rule="evenodd" d="M16.7476 3.14854C17.9345 3.01006 19 3.9325 19 5.14641V7.30813C19.1427 7.32149 19.2767 7.33667 19.4014 7.35498C19.7699 7.40913 20.1315 7.49967 20.4804 7.6976C21.0042 7.99477 21.4357 8.45481 21.6987 8.99653C21.8747 9.35905 21.9414 9.7292 21.9716 10.103C22 10.4542 22 10.877 22 11.3629V14.6371C22 15.123 22 15.5458 21.9716 15.897C21.9414 16.2708 21.8747 16.641 21.6987 17.0035C21.4357 17.5452 21.0042 18.0052 20.4804 18.3024C20.1315 18.5003 19.7699 18.5909 19.4014 18.645C19.1932 18.6756 18.9592 18.6974 18.7018 18.7166C18.9619 19.8539 18.1914 20.9933 17.0027 21.1323C15.7375 21.2803 13.5987 21.5 12 21.5C10.4013 21.5 8.26256 21.2803 6.99732 21.1323C5.80864 20.9933 5.03808 19.8539 5.29824 18.7166C5.04077 18.6974 4.80678 18.6756 4.59864 18.645C4.23007 18.5909 3.86847 18.5003 3.5196 18.3024C2.99583 18.0052 2.56434 17.5452 2.30131 17.0035C2.12529 16.641 2.05859 16.2708 2.02836 15.897C1.99997 15.5458 1.99998 15.1231 2 14.6372V11.3629C1.99998 10.877 1.99997 10.4542 2.02836 10.103C2.05859 9.72919 2.12529 9.35905 2.30131 8.99653C2.56434 8.45481 2.99583 7.99477 3.5196 7.6976C3.86847 7.49967 4.23007 7.40913 4.59864 7.35498C4.72332 7.33667 4.85728 7.32149 5 7.30813V5.14641C5 3.9325 6.06551 3.01006 7.25243 3.14854C8.51892 3.29631 10.5387 3.50003 12 3.50003C13.4613 3.50003 15.4811 3.29631 16.7476 3.14854ZM19.1107 16.6663C18.89 16.6987 18.6095 16.7197 18.196 16.7466L18.1304 16.4917C18.5665 16.4346 18.9282 16.0925 18.9907 15.6358C19.0657 15.0886 18.6829 14.5842 18.1358 14.5093L18.1239 14.5076L18.0914 14.5033L17.9685 14.487C17.862 14.473 17.7079 14.4532 17.516 14.4294C17.236 14.3948 16.8748 14.3517 16.4626 14.3064C16.3825 14.288 16.3005 14.2745 16.2169 14.2661C15.4431 14.1884 14.1078 14.0665 12.9029 14.0194C12.5904 14.007 12.2867 14 12 14C12 14 12 14 12 14C11.7244 14 11.4328 14.0065 11.1324 14.0181C9.9184 14.0641 8.56447 14.1877 7.78311 14.2661C7.69956 14.2745 7.61759 14.288 7.53749 14.3064C7.37273 14.3245 7.21664 14.3422 7.07123 14.3591C6.70965 14.401 6.40909 14.4384 6.19846 14.4654C6.09312 14.4789 6.01019 14.4897 5.9533 14.4973L5.88791 14.506L5.86423 14.5093C5.31706 14.5842 4.93428 15.0886 5.00926 15.6358C5.0718 16.0922 5.43375 16.4341 5.86967 16.4915L5.80406 16.7466C5.39054 16.7197 5.11005 16.6987 4.88934 16.6663C4.65001 16.6311 4.55766 16.5919 4.50654 16.5629C4.33491 16.4655 4.18663 16.3074 4.10044 16.1299C4.07559 16.0787 4.04186 15.9832 4.02186 15.7358C4.00076 15.4749 4 15.1337 4 14.5999V11.4001C4 10.8663 4.00076 10.5251 4.02186 10.2642C4.04186 10.0168 4.07559 9.92128 4.10044 9.87011C4.18663 9.69259 4.3349 9.53451 4.50654 9.43713C4.55766 9.40812 4.65001 9.36891 4.88934 9.33374C5.14338 9.29642 5.47664 9.27427 6.00079 9.24065C7.84572 9.12233 10.1941 9 12 9C13.8059 9 16.1543 9.12233 17.9992 9.24065C18.5234 9.27427 18.8566 9.29642 19.1107 9.33374C19.35 9.36891 19.4423 9.40812 19.4935 9.43713C19.6651 9.53451 19.8134 9.69259 19.8996 9.87011C19.9244 9.92128 19.9581 10.0168 19.9781 10.2642C19.9992 10.5251 20 10.8663 20 11.4001V14.5999C20 15.1337 19.9992 15.4749 19.9781 15.7358C19.9581 15.9832 19.9244 16.0787 19.8996 16.1299C19.8134 16.3074 19.6651 16.4655 19.4935 16.5629C19.4423 16.5919 19.35 16.6311 19.1107 16.6663ZM7.99199 16.2688L7.9745 16.3368L7.25152 19.1484C8.51748 19.2961 10.5381 19.5 12 19.5C13.4619 19.5 15.4825 19.2961 16.7485 19.1484L16.008 16.2688C15.9329 16.2608 15.8564 16.2527 15.7786 16.2447C14.8348 16.1469 13.7315 16.0515 12.7578 16.0153C12.4928 16.0056 12.2373 16 12 16C12 16 12 16 12 16M11.2027 16.0168C10.1532 16.0574 8.96291 16.1651 7.99199 16.2688L11.2027 16.0168ZM7 7.17606C8.63295 7.08201 10.4884 7 12 7C13.5116 7 15.3671 7.08201 17 7.17606V5.14641L16.9999 5.14471C16.9995 5.144 16.9984 5.14243 16.9962 5.14051C16.9931 5.13779 16.99 5.1362 16.9878 5.13549L16.9864 5.13513L16.985 5.13491C16.9842 5.13482 16.9824 5.13471 16.9793 5.13507C15.7118 5.28296 13.5892 5.50003 12 5.50003C10.4108 5.50003 8.28824 5.28296 7.02066 5.13507C7.01761 5.13471 7.01584 5.13482 7.015 5.13491C7.01408 5.135 7.01321 5.13518 7.01223 5.13549C7.01003 5.1362 7.00688 5.13779 7.0038 5.14051C7.00162 5.14243 7.00051 5.144 7.00006 5.14471L7 5.14641V7.17606Z" fill="black"/>
</svg>
