<svg width="24" height="24" viewBox="0 0 24 24" fill="none" xmlns="http://www.w3.org/2000/svg">
<path fill-rule="evenodd" clip-rule="evenodd" d="M15.1918 3.28301C15.5878 2.89802 16.2209 2.90694 16.6059 3.30292L19.717 6.50292C20.0943 6.89104 20.0943 7.50896 19.717 7.89708L16.6059 11.0971C16.2209 11.4931 15.5878 11.502 15.1918 11.117C14.7958 10.732 14.7869 10.0989 15.1719 9.70292L16.7485 8.08125C16.4787 8.05848 16.2047 8.03373 15.9284 8.00825C15.7524 7.99201 15.5752 7.97543 15.3969 7.95875C14.44 7.86925 13.4537 7.77699 12.4727 7.72005C11.3095 7.65254 10.1895 7.63726 9.18747 7.73116C8.17735 7.82582 7.35092 8.02621 6.73822 8.34732C6.48949 8.47767 6.28207 8.68851 6.1504 8.95432C6.10347 9.04906 6.0557 9.20232 6.02865 9.54287C6.00074 9.89429 6 10.3519 6 11.04V11.2C6 11.7523 5.55229 12.2 5 12.2C4.44772 12.2 4 11.7523 4 11.2L4 11.001C3.99999 10.3622 3.99997 9.82457 4.03493 9.3845C4.07146 8.92464 4.15086 8.48517 4.35824 8.06653C4.67398 7.42916 5.18047 6.90569 5.80983 6.57585C6.74665 6.08488 7.86289 5.84653 9.00086 5.73988C10.147 5.63247 11.3805 5.6533 12.5886 5.72341C13.6081 5.78259 14.635 5.87869 15.5912 5.96818C15.7674 5.98467 15.9412 6.00094 16.1121 6.01671C16.2393 6.02843 16.3646 6.03987 16.4881 6.05093L15.1719 4.69708C14.7869 4.30109 14.7958 3.66799 15.1918 3.28301ZM19 11.8C19.5523 11.8 20 12.2477 20 12.8V12.999C20 13.6378 20 14.1754 19.9651 14.6155C19.9285 15.0754 19.8491 15.5148 19.6418 15.9335C19.326 16.5708 18.8195 17.0943 18.1902 17.4241C17.2534 17.9151 16.1371 18.1535 14.9991 18.2601C13.853 18.3675 12.6195 18.3467 11.4114 18.2766C10.3919 18.2174 9.36499 18.1213 8.40882 18.0318C8.2326 18.0153 8.05879 17.9991 7.88786 17.9833C7.76075 17.9716 7.63539 17.9601 7.51187 17.9491L8.82811 19.3029C9.21309 19.6989 9.20418 20.332 8.80819 20.717C8.41221 21.102 7.7791 21.0931 7.39412 20.6971L4.28301 17.4971C3.90567 17.109 3.90567 16.491 4.28301 16.1029L7.39412 12.9029C7.7791 12.5069 8.41221 12.498 8.80819 12.883C9.20418 13.268 9.21309 13.9011 8.82811 14.2971L7.25148 15.9188C7.52126 15.9415 7.79534 15.9663 8.0716 15.9918C8.2476 16.008 8.42485 16.0246 8.60312 16.0412C9.55996 16.1308 10.5463 16.223 11.5273 16.2799C12.6905 16.3475 13.8105 16.3627 14.8125 16.2688C15.8227 16.1742 16.6491 15.9738 17.2618 15.6527C17.5105 15.5223 17.7179 15.3115 17.8496 15.0457C17.8965 14.9509 17.9443 14.7977 17.9714 14.4571C17.9993 14.1057 18 13.6481 18 12.96V12.8C18 12.2477 18.4477 11.8 19 11.8Z" fill="black"/>
</svg>
