<svg width="24" height="24" viewBox="0 0 24 24" fill="none" xmlns="http://www.w3.org/2000/svg">
<path opacity="0.15" d="M12 21C16.9706 21 21 16.9706 21 12C21 7.02944 16.9706 3 12 3C7.02944 3 3 7.02944 3 12C3 16.9706 7.02944 21 12 21Z" fill="black"/>
<path d="M7.80002 16.4C8.24036 16.7303 8.86444 16.6425 9.19667 16.2045L9.19978 16.2005C9.20457 16.1945 9.21415 16.1825 9.2284 16.1656C9.25696 16.1315 9.30385 16.0777 9.3681 16.0107C9.49743 15.8757 9.69221 15.6922 9.94444 15.5088C10.4528 15.1391 11.1506 14.8 12 14.8C12.8495 14.8 13.5473 15.1391 14.0556 15.5088C14.3078 15.6922 14.5026 15.8757 14.6319 16.0107C14.6962 16.0777 14.7431 16.1315 14.7716 16.1656C14.7859 16.1825 14.7955 16.1945 14.8003 16.2005L14.8034 16.2045C15.1356 16.6425 15.7597 16.7303 16.2 16.4C16.6418 16.0687 16.7314 15.4419 16.4 15L15.6 15.6C16.4 15 16.4003 15.0004 16.4 15L16.399 14.9987L16.3979 14.9972L16.3952 14.9937L16.3883 14.9847L16.3684 14.9591C16.3523 14.9388 16.3307 14.9121 16.3036 14.8798C16.2495 14.8154 16.1734 14.7286 16.0759 14.6269C15.8818 14.4243 15.5985 14.1579 15.2319 13.8913C14.5028 13.361 13.4006 12.8 12 12.8C10.5995 12.8 9.49729 13.361 8.7681 13.8913C8.40158 14.1579 8.11824 14.4243 7.92413 14.6269C7.82666 14.7286 7.7505 14.8154 7.69645 14.8798C7.66939 14.9121 7.64777 14.9388 7.63169 14.9591L7.6117 14.9847L7.60482 14.9937L7.60216 14.9972L7.60103 14.9987C7.60078 14.999 7.60002 15 8.40002 15.6L7.60002 15C7.26865 15.4419 7.35819 16.0687 7.80002 16.4Z" fill="black"/>
<path d="M7.85004 9.29997C7.85004 8.49916 8.49922 7.84998 9.30004 7.84998C10.1008 7.84998 10.75 8.49916 10.75 9.29997C10.75 10.1008 10.1008 10.75 9.30004 10.75C8.49922 10.75 7.85004 10.1008 7.85004 9.29997Z" fill="black"/>
<path d="M14.7 7.84998C13.8992 7.84998 13.25 8.49916 13.25 9.29997C13.25 10.1008 13.8992 10.75 14.7 10.75C15.5008 10.75 16.15 10.1008 16.15 9.29997C16.15 8.49916 15.5008 7.84998 14.7 7.84998Z" fill="black"/>
<path fill-rule="evenodd" clip-rule="evenodd" d="M12 2C6.47715 2 2 6.47715 2 12C2 17.5228 6.47715 22 12 22C17.5228 22 22 17.5228 22 12C22 6.47715 17.5228 2 12 2ZM4 12C4 7.58172 7.58172 4 12 4C16.4183 4 20 7.58172 20 12C20 16.4183 16.4183 20 12 20C7.58172 20 4 16.4183 4 12Z" fill="black"/>
</svg>
