<svg width="24" height="24" viewBox="0 0 24 24" fill="none" xmlns="http://www.w3.org/2000/svg">
<path opacity="0.15" d="M10.5384 13.7738L4.00002 10C9.26829 7.1534 14.1934 5.05381 20.1559 4.15624C19.259 10.1189 17.346 14.7314 14.5 20L10.5384 13.7738ZM10.5384 13.7738L15.1965 9.11561L10.5384 13.7738Z" fill="black"/>
<path fill-rule="evenodd" clip-rule="evenodd" d="M3.00011 9.98596C3.0052 9.62366 3.20587 9.29246 3.52464 9.12021C8.84455 6.24572 13.8849 4.08898 20.007 3.16738C20.3209 3.12014 20.6385 3.22468 20.863 3.4491C21.0874 3.67351 21.192 3.99114 21.1448 4.30499C20.2248 10.421 18.2582 15.1467 15.3799 20.4753C15.2113 20.7873 14.8901 20.9867 14.5357 20.9994C14.1813 21.012 13.8467 20.836 13.6563 20.5368L9.82625 14.5173L3.50013 10.8661C3.18632 10.685 2.99503 10.3483 3.00011 9.98596ZM11.8127 13.9137L14.4201 18.0115C16.5791 13.8279 18.0911 9.98984 18.9388 5.37542C14.3136 6.24006 10.2785 7.86605 6.06713 10.0385L10.3738 12.5241L14.4894 8.40851C14.8799 8.01798 15.5131 8.01798 15.9036 8.40851C16.2942 8.79903 16.2942 9.4322 15.9036 9.82272L11.8127 13.9137Z" fill="black"/>
</svg>
