<svg width="24" height="24" viewBox="0 0 24 24" fill="none" xmlns="http://www.w3.org/2000/svg">
<path opacity="0.15" fill-rule="evenodd" clip-rule="evenodd" d="M11.5147 4C11.0258 4 10.608 4.35378 10.528 4.83556L10.3947 5.63022C10.3324 6.00711 10.0542 6.30933 9.70133 6.456C9.34844 6.60267 8.94222 6.58311 8.63111 6.36089L7.976 5.89244C7.78333 5.75472 7.54802 5.68984 7.31199 5.70937C7.07596 5.72891 6.85452 5.83158 6.68711 5.99911L6 6.68622C5.83247 6.85363 5.7298 7.07507 5.71026 7.3111C5.69073 7.54713 5.7556 7.78244 5.89333 7.97511L6.36178 8.63111C6.584 8.94222 6.60356 9.34756 6.45689 9.70133C6.31022 10.0542 6.00711 10.3324 5.63022 10.3947L4.83556 10.5271C4.35378 10.6071 4 11.0249 4 11.5138V12.4862C4 12.9742 4.35378 13.392 4.83556 13.472L5.63022 13.6053C6.008 13.6676 6.31022 13.9458 6.45689 14.2987C6.60356 14.6524 6.58311 15.0578 6.36089 15.3689L5.89244 16.024C5.75471 16.2167 5.68984 16.452 5.70937 16.688C5.72891 16.924 5.83158 17.1455 5.99911 17.3129L6.68622 18.0009C7.03289 18.3467 7.57778 18.392 7.97511 18.1076L8.63111 17.6391C8.94222 17.4169 9.34756 17.3973 9.70133 17.5431C10.0542 17.6907 10.3324 17.9929 10.3956 18.3698L10.5271 19.1644C10.608 19.6462 11.0249 20 11.5138 20H12.4862C12.9751 20 13.3929 19.6462 13.4729 19.1644L13.6053 18.3698C13.6684 17.9929 13.9467 17.6907 14.2996 17.544C14.6524 17.3973 15.0578 17.4169 15.3689 17.6391L16.0249 18.1076C16.2175 18.245 16.4526 18.3098 16.6884 18.2902C16.9243 18.2707 17.1455 18.1682 17.3129 18.0009L18.0009 17.3138C18.3467 16.9671 18.392 16.4222 18.1076 16.0249L17.6391 15.3689C17.4169 15.0578 17.3973 14.6524 17.544 14.2987C17.6907 13.9458 17.9929 13.6676 18.3707 13.6053L19.1644 13.4729C19.6471 13.3929 20 12.9751 20 12.4862V11.5138C20 11.0258 19.6471 10.608 19.1644 10.528L18.3707 10.3947C17.9929 10.3324 17.6907 10.0542 17.544 9.70133C17.3973 9.34756 17.4169 8.94222 17.6391 8.63111L18.1076 7.976C18.392 7.57778 18.3476 7.03289 18.0009 6.68711L17.3138 5.99911C17.1464 5.83158 16.9249 5.72891 16.6889 5.70937C16.4529 5.68984 16.2176 5.75472 16.0249 5.89244L15.3698 6.36089C15.0587 6.58311 14.6524 6.60267 14.2987 6.45689C13.9467 6.30933 13.6676 6.00711 13.6053 5.63022L13.4729 4.83556C13.3929 4.35378 12.9751 4 12.4862 4H11.5147ZM13.4142 13.4142C13.7893 13.0391 14 12.5304 14 12C14 11.4696 13.7893 10.9609 13.4142 10.5858C13.0391 10.2107 12.5304 10 12 10C11.4696 10 10.9609 10.2107 10.5858 10.5858C10.2107 10.9609 10 11.4696 10 12C10 12.5304 10.2107 13.0391 10.5858 13.4142C10.9609 13.7893 11.4696 14 12 14C12.5304 14 13.0391 13.7893 13.4142 13.4142Z" fill="black"/>
<path fill-rule="evenodd" clip-rule="evenodd" d="M9.87868 9.87868C10.4413 9.31607 11.2044 9 12 9C12.7956 9 13.5587 9.31607 14.1213 9.87868C14.6839 10.4413 15 11.2044 15 12C15 12.7956 14.6839 13.5587 14.1213 14.1213C13.5587 14.6839 12.7956 15 12 15C11.2044 15 10.4413 14.6839 9.87868 14.1213C9.31607 13.5587 9 12.7956 9 12C9 11.2044 9.31607 10.4413 9.87868 9.87868ZM12 11C11.7348 11 11.4804 11.1054 11.2929 11.2929C11.1054 11.4804 11 11.7348 11 12C11 12.2652 11.1054 12.5196 11.2929 12.7071C11.4804 12.8946 11.7348 13 12 13C12.2652 13 12.5196 12.8946 12.7071 12.7071C12.8946 12.5196 13 12.2652 13 12C13 11.7348 12.8946 11.4804 12.7071 11.2929C12.5196 11.1054 12.2652 11 12 11Z" fill="black"/>
<path fill-rule="evenodd" clip-rule="evenodd" d="M4.67072 8.96317C3.67234 9.42342 3 10.4319 3 11.5746V12.4254C3 13.568 3.67257 14.5756 4.67006 15.0357C4.52618 15.4262 4.46769 15.8462 4.50252 16.267C4.55862 16.9449 4.85433 17.5827 5.33551 18.0635L5.93531 18.6641L5.93805 18.6668C6.74528 19.472 7.93229 19.711 8.96404 19.3303C9.42398 20.3262 10.4295 21 11.5746 21H12.4254C13.5679 21 14.5762 20.3279 15.0366 19.3298C15.4269 19.4736 15.8468 19.532 16.2674 19.4971C16.9451 19.441 17.581 19.1465 18.0621 18.6659L18.6641 18.0647L18.6668 18.062C19.4718 17.2548 19.711 16.0681 19.3305 15.0364C20.3295 14.5757 21 13.5666 21 12.4254V11.5746C21 10.4333 20.3288 9.42478 19.3303 8.96427C19.7098 7.93499 19.4759 6.74715 18.6649 5.93691L18.6632 5.93519L18.0647 5.33592C17.5834 4.85428 16.9463 4.55868 16.2677 4.50252C15.847 4.46769 15.427 4.52618 15.0365 4.67006C14.5761 3.67204 13.5679 3 12.4254 3H11.5753C10.4329 3 9.42465 3.67204 8.96426 4.67005C8.5738 4.52618 8.15382 4.46769 7.73304 4.50252C7.05468 4.55866 6.41825 4.85366 5.93701 5.33501L5.33629 5.93573C4.85494 6.41698 4.55943 7.0539 4.50329 7.73226C4.46848 8.15294 4.52693 8.57281 4.67072 8.96317ZM6.42644 10.5953C6.75622 10.5409 7.02144 10.2974 7.14978 9.98867C7.27811 9.67911 7.261 9.32444 7.06656 9.05222L6.65667 8.47822C6.53615 8.30963 6.47939 8.10374 6.49648 7.89721C6.51357 7.69069 6.60341 7.49693 6.75 7.35044L7.35122 6.74922C7.49771 6.60263 7.69146 6.51279 7.89799 6.4957C8.10452 6.47861 8.31041 6.53538 8.479 6.65589L9.05222 7.06578C9.32444 7.26022 9.67989 7.27733 9.98867 7.149C10.2974 7.02067 10.5409 6.75622 10.5953 6.42644L10.712 5.73111C10.782 5.30956 11.1476 5 11.5753 5H12.4254C12.8532 5 13.2188 5.30956 13.2888 5.73111L13.4047 6.42644C13.4591 6.75622 13.7033 7.02067 14.0113 7.14978C14.3209 7.27733 14.6763 7.26022 14.9486 7.06578L15.5218 6.65589C15.6904 6.53538 15.8963 6.47861 16.1028 6.4957C16.3093 6.51279 16.5031 6.60263 16.6496 6.74922L17.2508 7.35122C17.5541 7.65378 17.593 8.13056 17.3441 8.479L16.9342 9.05222C16.7398 9.32444 16.7227 9.67911 16.851 9.98867C16.9793 10.2974 17.2438 10.5409 17.5743 10.5953L18.2689 10.712C18.6912 10.782 19 11.1476 19 11.5746V12.4254C19 12.8532 18.6912 13.2188 18.2689 13.2888L17.5743 13.4047C17.2438 13.4591 16.9793 13.7026 16.851 14.0113C16.7227 14.3209 16.7398 14.6756 16.9342 14.9478L17.3441 15.5218C17.593 15.8694 17.5533 16.3462 17.2508 16.6496L16.6488 17.2508C16.5023 17.3972 16.3087 17.4869 16.1024 17.504C15.896 17.5211 15.6903 17.4644 15.5218 17.3441L14.9478 16.9342C14.6756 16.7398 14.3209 16.7227 14.0121 16.851C13.7033 16.9793 13.4599 17.2438 13.4047 17.5736L13.2888 18.2689C13.2188 18.6904 12.8532 19 12.4254 19H11.5746C11.1468 19 10.782 18.6904 10.7112 18.2689L10.5961 17.5736C10.5409 17.2438 10.2974 16.9793 9.98867 16.8502C9.67911 16.7227 9.32444 16.7398 9.05222 16.9342L8.47822 17.3441C8.13056 17.593 7.65378 17.5533 7.35044 17.2508L6.74922 16.6488C6.60263 16.5023 6.51279 16.3085 6.4957 16.102C6.47861 15.8955 6.53538 15.6896 6.65589 15.521L7.06578 14.9478C7.26022 14.6756 7.27811 14.3209 7.14978 14.0113C7.02144 13.7026 6.757 13.4591 6.42644 13.4047L5.73111 13.288C5.30956 13.218 5 12.8524 5 12.4254V11.5746C5 11.1468 5.30956 10.7812 5.73111 10.7112L6.42644 10.5953Z" fill="black"/>
</svg>
