<svg width="24" height="24" viewBox="0 0 24 24" fill="none" xmlns="http://www.w3.org/2000/svg">
<path opacity="0.15" d="M20 17.6948L20 14.3052C20 13.2797 19.2258 12.4214 18.204 12.3341C16.5004 12.1885 13.9222 12 12 12C10.0778 12 7.49961 12.1885 5.79596 12.3341C4.7742 12.4214 3.99999 13.2797 3.99999 14.3052L3.99999 17.6948C3.99999 18.7203 4.7742 19.5786 5.79596 19.6659C7.49961 19.8115 10.0778 20 12 20C13.9222 20 16.5004 19.8115 18.204 19.6659C19.2258 19.5786 20 18.7203 20 17.6948Z" fill="black"/>
<path d="M8.12403 12.9923C8.67205 12.9238 9.06077 12.424 8.99227 11.876C8.92377 11.3279 8.42398 10.9392 7.87596 11.0077L5.62789 11.2887C4.1266 11.4764 2.99999 12.7526 2.99999 14.2656L2.99999 17.6948C2.99999 19.2299 4.16203 20.53 5.71085 20.6623C7.41601 20.808 10.0313 21 12 21C13.9687 21 16.584 20.808 18.2891 20.6623C19.838 20.53 21 19.2299 21 17.6948L21 14.2656C21 12.7526 19.8734 11.4764 18.3721 11.2887L16.124 11.0077C15.576 10.9392 15.0762 11.3279 15.0077 11.876C14.9392 12.424 15.3279 12.9238 15.876 12.9923L18.124 13.2733C18.6245 13.3358 19 13.7612 19 14.2656L19 17.6948C19 18.2108 18.6136 18.6273 18.1189 18.6696C16.4168 18.815 13.8758 19 12 19C10.1242 19 7.58321 18.815 5.88107 18.6696C5.38638 18.6273 4.99999 18.2108 4.99999 17.6948L4.99999 14.2656C4.99999 13.7612 5.37553 13.3358 5.87596 13.2733L8.12403 12.9923Z" fill="black"/>
<path d="M7.29289 7.29291C6.90236 7.68343 6.90236 8.3166 7.29289 8.70712C7.68341 9.09765 8.31657 9.09765 8.7071 8.70712L11 6.41423L11 16C11 16.5523 11.4477 17 12 17C12.5523 17 13 16.5523 13 16L13 6.41423L15.2929 8.70712C15.6834 9.09765 16.3166 9.09765 16.7071 8.70712C17.0976 8.3166 17.0976 7.68343 16.7071 7.29291L12.7077 3.2935C12.6589 3.24468 12.6057 3.20138 12.5502 3.16477C12.1621 2.90849 11.6346 2.9512 11.2929 3.29291L7.29289 7.29291Z" fill="black"/>
</svg>
