<svg width="24" height="24" viewBox="0 0 24 24" fill="none" xmlns="http://www.w3.org/2000/svg">
<path opacity="0.15" d="M4.21381 12.0823C4.42309 10.8034 4.52773 10.164 4.85201 9.64934C5.12972 9.20864 5.55475 8.81916 6.01797 8.58091C6.55889 8.30269 7.17719 8.25626 8.41378 8.16339C9.61616 8.0731 10.9223 8 12 8C13.0777 8 14.3839 8.0731 15.5862 8.16339C16.8228 8.25626 17.4411 8.30269 17.982 8.58091C18.4453 8.81916 18.8703 9.20864 19.148 9.64934C19.4723 10.164 19.5769 10.8034 19.7862 12.0823L20.1676 14.4131C20.4556 16.1732 20.5996 17.0533 20.3416 17.7802C20.1198 18.4048 19.6663 18.9694 19.1043 19.3206C18.4501 19.7294 17.5866 19.7771 15.8595 19.8725C14.5379 19.9455 13.1621 20 12 20C10.8379 20 9.46216 19.9455 8.14054 19.8725C6.41345 19.7771 5.54991 19.7294 4.89576 19.3206C4.33371 18.9694 3.8802 18.4048 3.65846 17.7802C3.40038 17.0533 3.54439 16.1732 3.83242 14.4131L4.21381 12.0823Z" fill="black"/>
<path fill-rule="evenodd" clip-rule="evenodd" d="M7.25045 7.25635C7.36794 6.69983 7.53747 6.14796 7.77987 5.63515C8.11771 4.92044 8.61206 4.2491 9.33181 3.75924C10.0578 3.26512 10.9484 3 12 3C13.2554 3 14.2481 3.44126 14.9937 4.13512C15.7168 4.80791 16.1631 5.67498 16.4445 6.48398C16.5335 6.73967 16.6081 6.99632 16.6709 7.2482C17.3483 7.31644 17.9168 7.42285 18.4394 7.69164C19.0617 8.0117 19.6209 8.52417 19.994 9.11621C20.4287 9.80603 20.5643 10.6387 20.7436 11.7401L21.1616 14.2954C21.2996 15.1382 21.4135 15.8346 21.4566 16.4094C21.5013 17.0077 21.4786 17.5663 21.2839 18.1148C20.9866 18.9522 20.3877 19.6977 19.6342 20.1686C19.1439 20.475 18.6128 20.6183 18.0286 20.7036C17.4703 20.7851 16.7849 20.8229 15.9593 20.8685L15.9146 20.871C14.5854 20.9444 13.1888 21 12 21C10.8112 21 9.41458 20.9444 8.08536 20.871L8.04065 20.8685C7.21511 20.8229 6.52965 20.7851 5.97136 20.7036C5.38713 20.6183 4.85609 20.475 4.3658 20.1686C3.61223 19.6977 3.01336 18.9522 2.71606 18.1148C2.52136 17.5663 2.49863 17.0077 2.54342 16.4094C2.58645 15.8346 2.70042 15.1382 2.83836 14.2953L3.25638 11.7401C3.43571 10.6387 3.57127 9.80603 4.00595 9.11621C4.37903 8.52417 4.93827 8.0117 5.56057 7.69164C6.06282 7.43331 6.60748 7.32497 7.25045 7.25635ZM9.35467 7.09624C9.42073 6.88351 9.498 6.68033 9.58804 6.48985C9.81152 6.01706 10.0978 5.65715 10.4571 5.41264C10.8101 5.17238 11.2969 5 12 5C12.7446 5 13.2519 5.24624 13.6313 5.59926C14.0223 5.9631 14.3202 6.48313 14.5374 7.08961C13.6624 7.03661 12.7776 7 12 7C11.1904 7 10.2646 7.03969 9.35467 7.09624ZM7.01277 9.30605C7.00354 9.54703 7 9.77953 7 10C7 10.5523 7.44772 11 8 11C8.55229 11 9 10.5523 9 10C9 9.71076 9.00708 9.41622 9.02405 9.12212C10.056 9.05145 11.1139 9 12 9C12.8813 9 13.9326 9.0509 14.9592 9.12097C14.9993 9.56577 15 9.89468 15 10C15 10.5523 15.4477 11 16 11C16.5523 11 17 10.5523 17 10V9.99515C17 9.90115 17 9.65321 16.9788 9.30463C17.2261 9.34635 17.3811 9.39636 17.5246 9.47018C17.8288 9.62661 18.1196 9.8931 18.3019 10.1825C18.4924 10.4847 18.5758 10.8779 18.7993 12.2438L19.1807 14.5746C19.3276 15.4721 19.4264 16.0817 19.4621 16.5588C19.4968 17.0223 19.4625 17.2671 19.3992 17.4456C19.253 17.8574 18.9448 18.241 18.5743 18.4726C18.4104 18.575 18.1826 18.6599 17.7398 18.7245C17.281 18.7915 16.6859 18.8253 15.8043 18.874C14.4903 18.9466 13.1354 19 12 19C10.8646 19 9.5097 18.9466 8.19567 18.874C7.31411 18.8253 6.71893 18.7915 6.26019 18.7245C5.81734 18.6599 5.58953 18.575 5.42567 18.4726C5.05513 18.241 4.74699 17.8574 4.60081 17.4456C4.53743 17.2671 4.50313 17.0223 4.53784 16.5588C4.57355 16.0817 4.67239 15.4721 4.81927 14.5746L5.20066 12.2438C5.42418 10.8779 5.5076 10.4847 5.69803 10.1825C5.88037 9.8931 6.17118 9.62661 6.47533 9.47018C6.61721 9.3972 6.77036 9.34748 7.01277 9.30605Z" fill="black"/>
</svg>
