<svg width="24" height="24" viewBox="0 0 24 24" fill="none" xmlns="http://www.w3.org/2000/svg">
<path opacity="0.15" d="M12.45 7.05L5.29963 14.2004C5.18803 14.312 5.13224 14.3678 5.08638 14.4306C5.04567 14.4865 5.01085 14.5464 4.98249 14.6094C4.95055 14.6804 4.92968 14.7565 4.88795 14.9087L4.15 17.6L4.04337 18.0757C3.8627 18.8818 3.77237 19.2848 3.89029 19.5748C3.99197 19.8248 4.19874 20.0294 4.44983 20.1284C4.74105 20.2432 5.13606 20.1502 5.92608 19.9643C6.09161 19.9253 6.25143 19.8869 6.4 19.85C7.27372 19.6333 8.48849 19.2903 9.10587 19.1136C9.25082 19.0721 9.3233 19.0513 9.39248 19.0195C9.45336 18.9915 9.5128 18.9565 9.56681 18.9169C9.62818 18.8718 9.68217 18.8178 9.79015 18.7098L16.95 11.55L18.75 9.75C19.9926 8.50736 19.9926 6.49264 18.75 5.25C17.5074 4.00736 15.4926 4.00736 14.25 5.25L12.45 7.05Z" fill="black"/>
<path fill-rule="evenodd" clip-rule="evenodd" d="M13.5429 4.54275C15.1761 2.90958 17.824 2.90958 19.4571 4.54275C21.0903 6.17591 21.0903 8.82379 19.4571 10.457L10.4973 19.4168L10.475 19.4391C10.3906 19.5238 10.2841 19.6307 10.1587 19.7227C10.0502 19.8024 9.93238 19.8718 9.81007 19.928C9.66879 19.9929 9.52481 20.0339 9.41093 20.0663L9.38108 20.0748C8.76429 20.2514 7.53383 20.5989 6.64076 20.8204C6.48743 20.8585 6.32362 20.8979 6.15523 20.9375L6.11496 20.947L6.11475 20.947C5.75451 21.0319 5.41853 21.111 5.13704 21.1497C4.84045 21.1904 4.46553 21.2093 4.08305 21.0585C3.57762 20.8593 3.16865 20.4546 2.96398 19.9514C2.80813 19.5681 2.82489 19.1892 2.86297 18.8917C2.89941 18.6069 2.976 18.2654 3.05861 17.897L3.17938 17.3581L3.92356 14.6441L3.93219 14.6125C3.96456 14.4936 4.00534 14.3438 4.07063 14.1988C4.12735 14.0728 4.19698 13.953 4.27841 13.8413C4.37212 13.7128 4.48207 13.6032 4.56935 13.5162L4.59254 13.4931L13.5429 4.54275ZM18.0429 5.95696C17.1908 5.10484 15.8092 5.10484 14.9571 5.95696L14.1388 6.77531C14.7945 7.14013 15.6617 7.68573 16.2428 8.33037C16.6361 8.7667 16.9842 9.34397 17.2475 9.83812L18.0429 9.04275C18.895 8.19063 18.895 6.80908 18.0429 5.95696ZM6.00675 14.9073L12.6594 8.25466C12.8038 8.32741 12.9657 8.41197 13.1361 8.50622C13.7649 8.85395 14.4021 9.27544 14.7572 9.66944C15.0457 9.98947 15.3591 10.525 15.6189 11.0426C15.669 11.1424 15.7155 11.2383 15.7579 11.3278L9.08306 18.0026C9.02506 18.0606 8.99678 18.0887 8.97563 18.1086L8.97434 18.1098L8.97314 18.1102C8.94612 18.1189 8.90866 18.1297 8.83069 18.152C8.21273 18.3289 7.01363 18.6673 6.15927 18.8793C6.01546 18.9149 5.85963 18.9524 5.69697 18.9907C5.28248 19.0883 5.04061 19.1441 4.8648 19.1683L4.84372 19.171L4.84679 19.1456C4.86988 18.9651 4.92452 18.7166 5.01918 18.2943L5.12065 17.8416L5.85237 15.1729C5.87476 15.0913 5.88586 15.0512 5.89475 15.0223L5.89538 15.0203L5.89682 15.0187C5.91756 14.9967 5.94687 14.9672 6.00675 14.9073ZM14 18.9999C13.4477 18.9999 13 19.4476 13 19.9999C13 20.5522 13.4477 20.9999 14 20.9999H20C20.5523 20.9999 21 20.5522 21 19.9999C21 19.4476 20.5523 18.9999 20 18.9999H14Z" fill="black"/>
</svg>
