<svg width="24" height="24" viewBox="0 0 24 24" fill="none" xmlns="http://www.w3.org/2000/svg">
<path opacity="0.15" fill-rule="evenodd" clip-rule="evenodd" d="M14 8C12.8953 8 12 7.10467 12 6C12 4.89533 12.8953 4 14 4C15.1047 4 16 4.89533 16 6C16 7.10467 15.1047 8 14 8ZM9 14C7.89533 14 7 13.1047 7 12C7 10.8953 7.89533 10 9 10C10.1047 10 11 10.8953 11 12C11 13.1047 10.1047 14 9 14ZM17 18C17 16.8953 16.1047 16 15 16C13.8953 16 13 16.8953 13 18C13 19.1047 13.8953 20 15 20C16.1047 20 17 19.1047 17 18Z" fill="black"/>
<path fill-rule="evenodd" clip-rule="evenodd" d="M14 5C13.4476 5 13 5.44762 13 6C13 6.55238 13.4476 7 14 7C14.5524 7 15 6.55238 15 6C15 5.44762 14.5524 5 14 5ZM14 3C15.3063 3 16.4175 3.83477 16.8293 5L20 5C20.5523 5 21 5.44772 21 6C21 6.55229 20.5523 7 20 7L16.8293 7C16.4175 8.16523 15.3063 9 14 9C12.3431 9 11 7.65695 11 6C11 4.34305 12.3431 3 14 3ZM14 12.0015C13.9992 11.4492 14.4463 11.0008 14.9986 11L19.9986 10.993C20.5509 10.9922 20.9992 11.4393 21 11.9916C21.0008 12.5438 20.5537 12.9922 20.0014 12.993L15.0014 13C14.4492 13.0008 14.0008 12.5537 14 12.0015ZM4.00001 10.9929C3.44773 10.9929 3.00001 11.4406 3.00001 11.9929C3.00001 12.5452 3.44773 12.9929 4.00001 12.9929H6.00001C6.05571 12.9929 6.11035 12.9884 6.16357 12.9796C6.56956 14.1555 7.6861 15 9.00001 15C10.657 15 12 13.657 12 12C12 10.343 10.657 9 9.00001 9C7.69109 9 6.57805 9.83811 6.16823 11.007C6.11354 10.9977 6.05734 10.9929 6.00001 10.9929H4.00001ZM3.00001 6C3.00001 5.44772 3.44773 5 4.00001 5H8.00001C8.5523 5 9.00001 5.44772 9.00001 6C9.00001 6.55228 8.5523 7 8.00001 7H4.00001C3.44773 7 3.00001 6.55228 3.00001 6ZM8.00001 12C8.00001 11.4476 8.44763 11 9.00001 11C9.5524 11 10 11.4476 10 12C10 12.5524 9.5524 13 9.00001 13C8.44763 13 8.00001 12.5524 8.00001 12ZM4.00142 16.9929C3.44913 16.9921 3.00078 17.4392 3 17.9915C2.99922 18.5437 3.4463 18.9921 3.99858 18.9929L8.99859 18.9999C9.55087 19.0007 9.99922 18.5537 10 18.0014C10.0008 17.4491 9.5537 17.0007 9.00142 17L4.00142 16.9929ZM17.8318 17.007C17.8876 16.9975 17.945 16.9927 18.0036 16.9929L20.0036 17C20.5558 17.002 21.002 17.4513 21 18.0035C20.9981 18.5558 20.5488 19.0019 19.9965 19L17.9965 18.9929C17.942 18.9927 17.8885 18.9882 17.8365 18.9796C17.4305 20.1555 16.3139 21 15 21C13.3431 21 12 19.657 12 18C12 16.343 13.3431 15 15 15C16.3089 15 17.422 15.8381 17.8318 17.007ZM14 18C14 17.4476 14.4476 17 15 17C15.5524 17 16 17.4476 16 18C16 18.5524 15.5524 19 15 19C14.4476 19 14 18.5524 14 18Z" fill="black"/>
</svg>
