<svg width="24" height="24" viewBox="0 0 24 24" fill="none" xmlns="http://www.w3.org/2000/svg">
<path opacity="0.15" d="M3 12C3 7.02944 7.02944 3 12 3C16.9706 3 21 7.02944 21 12C21 16.9706 16.9706 21 12 21C7.02944 21 3 16.9706 3 12Z" fill="black"/>
<path d="M10.5569 8L11.3307 8.01589C11.5957 8.02717 11.8583 8.04505 12.1148 8.0644C12.3304 8.08069 12.5559 8.09954 12.7836 8.12739C13.0653 8.16196 13.3478 8.20134 13.6297 8.24662C14.0497 8.31403 14.4202 8.3773 14.9269 8.51516C15.8493 8.76611 16.6039 9.15074 17.2159 9.46271L17.3777 9.54502C17.4657 9.58959 17.5505 9.63211 17.6322 9.67188C17.9601 9.83145 18.0936 10.2206 17.9303 10.541C17.767 10.8615 17.3688 10.9919 17.0408 10.8323C16.876 10.7521 16.7143 10.67 16.5525 10.5878C15.95 10.2817 15.3462 9.97489 14.5711 9.76402C14.1344 9.6452 13.82 9.5909 13.4146 9.52582C13.1511 9.48349 12.8854 9.44642 12.6186 9.41367C12.4228 9.38974 12.2225 9.37277 12.0126 9.35689L11.9562 9.35263C11.7596 9.33774 11.5893 9.32484 11.3716 9.31509L10.7731 9.29997C10.708 9.29908 10.6388 9.29808 10.5638 9.29671L10.4024 9.30117C10.2392 9.30562 10.0594 9.31051 9.87822 9.31712C9.69915 9.32363 9.53689 9.32979 9.37829 9.34284C9.14393 9.36208 8.91535 9.38368 8.69097 9.41199C8.42925 9.44495 8.17167 9.48162 7.91819 9.52546C7.56004 9.58741 7.20368 9.6709 6.84823 9.77161C6.49637 9.8713 6.12843 9.67339 6.02641 9.32958C5.92439 8.98576 6.12693 8.62623 6.47878 8.52654C6.87347 8.41472 7.27621 8.32 7.68695 8.24895C7.96671 8.20057 8.24571 8.16099 8.52112 8.1263L9.26712 8.05105L9.82881 8.02167L10.3715 8.00516L10.5408 8.00046L10.5569 8Z" fill="black"/>
<path d="M10.5306 10.8095L10.5165 10.8091L10.5023 10.8093C10.036 10.8152 9.60576 10.8255 9.17045 10.871L9.11051 10.8772C8.9549 10.8934 8.78261 10.9113 8.6112 10.9365C8.41038 10.9661 8.21126 10.9995 7.95704 11.0507C7.54736 11.1332 7.26939 11.2049 6.91775 11.3058C6.56625 11.4066 6.36497 11.7668 6.46819 12.1103C6.5714 12.4538 6.94003 12.6505 7.29154 12.5496C7.59892 12.4614 7.91573 12.3897 8.25268 12.3145C8.42459 12.2761 8.60465 12.2485 8.80885 12.2184C8.94976 12.1977 9.09192 12.1829 9.2508 12.1663L9.31164 12.16L10.5056 12.1057C10.5585 12.1072 10.6122 12.1083 10.6668 12.1094C10.8029 12.1123 10.9446 12.1152 11.0938 12.1241C11.3627 12.14 11.6228 12.1586 11.8776 12.187C12.7325 12.2826 13.564 12.4616 14.3694 12.737C14.9927 12.9501 15.4508 13.1425 16.038 13.4378C16.3637 13.6016 16.7637 13.4764 16.9313 13.1581C17.099 12.8398 16.9708 12.449 16.6451 12.2852C16.0034 11.9624 15.4888 11.7463 14.8075 11.5134C13.9018 11.2037 12.9732 11.0047 12.0283 10.8991C11.739 10.8668 11.4519 10.8465 11.174 10.8301C10.9971 10.8196 10.8107 10.8157 10.6669 10.8127C10.6152 10.8116 10.5689 10.8107 10.5306 10.8095Z" fill="black"/>
<path d="M10.596 13.4863L10.6182 13.4871C10.6791 13.4891 10.7439 13.4908 10.8112 13.4926C10.9679 13.4967 11.1376 13.5011 11.2992 13.5105C12.3765 13.5728 13.4365 13.7755 14.4616 14.172C14.91 14.3455 15.3435 14.5522 15.7601 14.7951C16.0747 14.9785 16.1776 15.3764 15.9899 15.6838C15.8022 15.9912 15.395 16.0918 15.0804 15.9084C14.7274 15.7026 14.3581 15.5263 13.9732 15.3773C13.0976 15.0386 12.1788 14.86 11.2208 14.8046C11.0807 14.7965 10.9475 14.793 10.8023 14.7892L10.799 14.7891C10.7342 14.7874 10.667 14.7857 10.5957 14.7834L10.3838 14.7892L10.2973 14.7915C10.1738 14.7948 10.056 14.7986 9.93372 14.806C9.69901 14.8202 9.46185 14.8417 9.22017 14.867C8.99936 14.8901 8.79237 14.9138 8.5918 14.9469C8.35208 14.9863 8.11563 15.0309 7.8705 15.0771C7.78853 15.0925 7.70492 15.1082 7.62053 15.1239C7.26063 15.1908 6.91339 14.9599 6.84494 14.6083C6.7765 14.2566 7.01276 13.9173 7.37266 13.8504C7.44987 13.8361 7.60777 13.8063 7.60777 13.8063C7.60777 13.8063 8.07175 13.7144 8.37123 13.6686C8.64671 13.6264 8.80199 13.6078 9.07908 13.578C9.38018 13.5456 9.54938 13.5292 9.85172 13.5121C10.049 13.5009 10.198 13.4971 10.3583 13.493L10.3768 13.4925C10.4456 13.4908 10.5118 13.4891 10.5738 13.4871L10.596 13.4863Z" fill="black"/>
<path fill-rule="evenodd" clip-rule="evenodd" d="M12 2C6.47715 2 2 6.47715 2 12C2 17.5228 6.47715 22 12 22C17.5228 22 22 17.5228 22 12C22 6.47715 17.5228 2 12 2ZM4 12C4 7.58172 7.58172 4 12 4C16.4183 4 20 7.58172 20 12C20 16.4183 16.4183 20 12 20C7.58172 20 4 16.4183 4 12Z" fill="black"/>
<path fill-rule="evenodd" clip-rule="evenodd" d="M12.5943 9.6122C12.859 9.64468 13.1221 9.68141 13.3829 9.72329C13.7862 9.78803 14.0922 9.84102 14.5186 9.95701C15.2715 10.1619 15.8586 10.4596 16.4619 10.7661C16.6232 10.848 16.7869 10.9312 16.9533 11.0122C17.377 11.2183 17.8945 11.0517 18.1085 10.6318C18.3238 10.2093 18.1458 9.69939 17.7197 9.49205C17.5909 9.42937 17.454 9.35959 17.3067 9.28453L17.3023 9.28228C16.6915 8.97094 15.9218 8.57856 14.9794 8.32218C14.4623 8.18151 14.0835 8.11692 13.6614 8.04915C13.3767 8.00344 13.0918 7.96372 12.808 7.92889C12.5756 7.90046 12.3462 7.88133 12.1299 7.86497C11.8726 7.84556 11.6074 7.82749 11.3392 7.81608L11.3348 7.81594L10.561 7.80005L10.5354 7.80054L10.3659 7.80524L9.82272 7.82177L9.25666 7.85133L8.50104 7.92732L8.49612 7.92788C8.21869 7.96282 7.9365 8.00283 7.65286 8.05189C7.23435 8.12428 6.82475 8.22065 6.42426 8.33412C5.96882 8.46315 5.69989 8.93226 5.83467 9.38648C5.96886 9.83871 6.44903 10.0926 6.90274 9.96405C7.25238 9.86498 7.60188 9.78315 7.95227 9.72254C8.20186 9.67937 8.45626 9.64313 8.71595 9.61043C8.9363 9.58263 9.16172 9.5613 9.39465 9.54218C9.54797 9.52956 9.70578 9.52353 9.88548 9.517C10.0656 9.51042 10.2445 9.50555 10.4079 9.50111L10.5648 9.49677C10.6558 9.49841 10.7382 9.49953 10.8147 9.50056L10.8166 9.50058C10.9829 9.50283 11.0907 9.50428 11.2652 9.51088C11.5286 9.52083 11.716 9.53502 11.9414 9.55209M11.9975 9.55633C12.2066 9.57214 12.4033 9.58885 12.5943 9.6122L11.9975 9.55633ZM9.31163 12.16L9.25079 12.1663C9.21693 12.1699 9.18383 12.1733 9.15133 12.1768C9.03137 12.1895 8.91972 12.2021 8.80885 12.2184C8.60464 12.2485 8.42458 12.2761 8.25268 12.3145C7.91573 12.3897 7.59891 12.4614 7.29153 12.5496C6.94002 12.6505 6.5714 12.4538 6.46818 12.1103C6.36496 11.7669 6.56624 11.4066 6.91775 11.3058C7.26939 11.2049 7.54735 11.1332 7.95703 11.0507C8.21125 10.9995 8.41037 10.9661 8.61119 10.9365C8.74682 10.9166 8.88301 10.9012 9.01105 10.8877C9.04482 10.8841 9.07802 10.8806 9.1105 10.8773L9.17044 10.871C9.20364 10.8675 9.23681 10.8643 9.26996 10.8612C9.67158 10.824 10.0715 10.8147 10.5023 10.8093L10.5165 10.8091L10.5306 10.8095C10.5689 10.8107 10.6152 10.8116 10.6669 10.8127C10.8107 10.8157 10.9971 10.8196 11.174 10.8301C11.4519 10.8465 11.739 10.8668 12.0283 10.8991C12.9732 11.0047 13.9018 11.2037 14.8075 11.5134C15.4888 11.7463 16.0034 11.9624 16.6451 12.2852C16.9708 12.449 17.099 12.8398 16.9313 13.1581C16.7637 13.4764 16.3637 13.6017 16.038 13.4378C15.4508 13.1425 14.9927 12.9501 14.3694 12.737C13.5952 12.4723 12.7969 12.2966 11.977 12.1985C11.9439 12.1946 11.9108 12.1908 11.8776 12.1871C11.6228 12.1586 11.3626 12.14 11.0938 12.1241C11.0601 12.1221 11.0269 12.1204 10.994 12.1189C10.8809 12.1139 10.7723 12.1117 10.6668 12.1095C10.6122 12.1083 10.5585 12.1072 10.5055 12.1057L9.31163 12.16ZM10.5073 12.3059L9.32656 12.3595L9.27154 12.3653C9.11186 12.3819 8.97398 12.3963 8.83802 12.4163C8.63323 12.4465 8.46005 12.4731 8.29628 12.5097C7.95875 12.585 7.64751 12.6556 7.34669 12.7419C6.89342 12.8719 6.4124 12.6196 6.27664 12.1679C6.14028 11.7141 6.40757 11.2441 6.86259 11.1135C7.21831 11.0115 7.50158 10.9384 7.91753 10.8546C8.17552 10.8027 8.3781 10.7687 8.58202 10.7387C8.75764 10.7128 8.9335 10.6946 9.0881 10.6785L9.08979 10.6783L9.14966 10.6721C9.59477 10.6256 10.0329 10.6152 10.4998 10.6093L10.5223 10.609L10.5364 10.6096C10.5738 10.6107 10.6191 10.6117 10.671 10.6128L10.6725 10.6128C10.8156 10.6158 11.0051 10.6197 11.1858 10.6304C11.465 10.6469 11.7562 10.6675 12.0505 10.7003C13.0086 10.8074 13.9516 11.0094 14.8722 11.3242C15.5621 11.56 16.0851 11.7797 16.7349 12.1065C17.1583 12.3195 17.3293 12.8317 17.1083 13.2513C16.8887 13.6682 16.369 13.8282 15.9481 13.6165C15.3691 13.3253 14.9194 13.1364 14.3047 12.9263C13.5141 12.656 12.697 12.4799 11.8554 12.3858C11.6057 12.3579 11.3495 12.3395 11.082 12.3237M10.5073 12.3059C10.5586 12.3072 10.6104 12.3083 10.6622 12.3094C10.7988 12.3122 10.9371 12.3151 11.082 12.3237M10.6738 13.4888C10.6549 13.4882 10.6364 13.4877 10.6182 13.4871L10.596 13.4863L10.5738 13.4871C10.5118 13.4891 10.4456 13.4908 10.3768 13.4925L10.3583 13.493C10.3309 13.4937 10.3039 13.4944 10.2769 13.4951C10.1457 13.4986 10.0153 13.5029 9.85171 13.5121C9.54937 13.5292 9.38017 13.5456 9.07907 13.578C8.80198 13.6078 8.6467 13.6264 8.37122 13.6686C8.07174 13.7144 7.60776 13.8063 7.60776 13.8063C7.60776 13.8063 7.44986 13.8361 7.37265 13.8504C7.01276 13.9173 6.77649 14.2566 6.84494 14.6083C6.91338 14.9599 7.26062 15.1908 7.62052 15.1239C7.70493 15.1082 7.7879 15.0926 7.8699 15.0772C8.11502 15.031 8.35207 14.9863 8.59179 14.9469C8.79237 14.9138 8.99936 14.8901 9.22017 14.867C9.46184 14.8417 9.699 14.8202 9.93371 14.806C10.0842 14.7969 10.2278 14.7932 10.3838 14.7892L10.5957 14.7834C10.6681 14.7857 10.7363 14.7875 10.8021 14.7892C10.9473 14.793 11.0807 14.7965 11.2208 14.8046C12.1788 14.86 13.0976 15.0386 13.9732 15.3773C14.3581 15.5263 14.7274 15.7026 15.0804 15.9084C15.395 16.0918 15.8022 15.9913 15.9899 15.6838C16.1776 15.3764 16.0747 14.9785 15.7601 14.7951C15.3435 14.5522 14.91 14.3455 14.4616 14.172C13.4365 13.7755 12.3765 13.5728 11.2992 13.5105C11.1376 13.5012 10.9679 13.4967 10.8112 13.4926C10.7641 13.4913 10.718 13.4901 10.6738 13.4888ZM11.3108 13.3109C11.146 13.3013 10.9737 13.2968 10.818 13.2927L10.8165 13.2926C10.7491 13.2909 10.6849 13.2892 10.6248 13.2872L10.6026 13.2864L10.5673 13.2872C10.5062 13.2892 10.4406 13.2908 10.3717 13.2926L10.3526 13.2931C10.1925 13.2972 10.0408 13.3011 9.84041 13.3124C9.53343 13.3298 9.36058 13.3466 9.0577 13.3791C8.77866 13.4091 8.62027 13.4281 8.34097 13.4709C8.1878 13.4943 7.99424 13.5293 7.8404 13.558C7.76318 13.5725 7.69539 13.5855 7.64689 13.5949L7.58979 13.606L7.57435 13.609L7.57062 13.6098L7.56927 13.6101L7.33611 13.6538C6.87102 13.7402 6.55816 14.1817 6.64862 14.6465C6.7388 15.1098 7.19318 15.4068 7.65706 15.3206C7.74165 15.3048 7.82476 15.2892 7.90663 15.2738C8.15213 15.2275 8.38721 15.1833 8.62428 15.1442C8.81872 15.1122 9.02085 15.0889 9.24095 15.0659C9.481 15.0408 9.71503 15.0196 9.94579 15.0056C10.0923 14.9968 10.2324 14.9932 10.3889 14.9892L10.5953 14.9835C10.666 14.9857 10.7327 14.9875 10.7965 14.9891C10.9421 14.9929 11.0728 14.9964 11.2092 15.0043C12.1497 15.0586 13.0477 15.2338 13.9011 15.5639C14.2765 15.7092 14.6362 15.8809 14.9796 16.0811C15.3866 16.3184 15.9151 16.1901 16.1606 15.7881C16.4078 15.3832 16.2704 14.8611 15.8608 14.6223C15.4347 14.3739 14.9916 14.1626 14.5338 13.9855C13.4865 13.5804 12.4056 13.3742 11.3108 13.3109Z" fill="black"/>
</svg>
