<svg width="24" height="24" viewBox="0 0 24 24" fill="none" xmlns="http://www.w3.org/2000/svg">
<path opacity="0.15" d="M11.3911 4.68744C11.5868 4.29773 11.6846 4.10288 11.8174 4.04062C11.9329 3.98646 12.0671 3.98646 12.1826 4.04062C12.3154 4.10288 12.4132 4.29773 12.6089 4.68744L14.4648 8.38467C14.5225 8.49972 14.5514 8.55725 14.5936 8.60191C14.631 8.64145 14.6758 8.6735 14.7255 8.69626C14.7818 8.72196 14.8463 8.73124 14.9754 8.7498L19.1268 9.34648C19.564 9.40931 19.7825 9.44073 19.8837 9.54572C19.9717 9.63707 20.0131 9.7626 19.9963 9.88735C19.9771 10.0307 19.8188 10.1823 19.5024 10.4854L16.4995 13.3615C16.4059 13.4511 16.3591 13.496 16.3289 13.5493C16.3022 13.5965 16.285 13.6484 16.2784 13.7021C16.2709 13.7627 16.282 13.826 16.304 13.9526L17.0126 18.0149C17.0873 18.4434 17.1247 18.6576 17.0545 18.7848C16.9934 18.8954 16.8848 18.9729 16.7589 18.9959C16.6142 19.0223 16.4186 18.9211 16.0273 18.7187L12.316 16.7995C12.2004 16.7397 12.1426 16.7098 12.0817 16.6981C12.0277 16.6877 11.9723 16.6877 11.9183 16.6981C11.8574 16.7098 11.7996 16.7397 11.684 16.7995L7.97268 18.7187C7.5814 18.9211 7.38577 19.0223 7.24111 18.9959C7.11525 18.9729 7.00665 18.8954 6.94555 18.7848C6.87533 18.6576 6.91269 18.4434 6.98742 18.0149L7.69596 13.9526C7.71805 13.826 7.72909 13.7627 7.72162 13.7021C7.715 13.6484 7.69785 13.5965 7.67111 13.5493C7.6409 13.496 7.5941 13.4511 7.50049 13.3615L4.49765 10.4854C4.18116 10.1823 4.02291 10.0307 4.00366 9.88735C3.9869 9.7626 4.02829 9.63707 4.1163 9.54572C4.21746 9.44073 4.43604 9.40931 4.8732 9.34648L9.02459 8.7498C9.15369 8.73124 9.21824 8.72196 9.27446 8.69626C9.32423 8.6735 9.36905 8.64145 9.40641 8.60191C9.44861 8.55725 9.47749 8.49972 9.53524 8.38467L11.3911 4.68744Z" fill="black"/>
<path fill-rule="evenodd" clip-rule="evenodd" d="M11.3929 3.1352C11.7773 2.95493 12.2227 2.95493 12.6072 3.1352C12.9476 3.29484 13.1332 3.57157 13.2211 3.7127C13.3115 3.8579 13.4032 4.04075 13.488 4.20979C13.4929 4.21952 13.4978 4.22919 13.5026 4.23881L15.282 7.78358L19.301 8.36124C19.4912 8.38852 19.6947 8.41772 19.8614 8.45713C20.0204 8.49474 20.3432 8.58138 20.6038 8.8519C20.9017 9.16109 21.0452 9.59042 20.9875 10.0205C20.9367 10.398 20.7222 10.6599 20.6152 10.7829C20.503 10.9119 20.3549 11.0537 20.2175 11.1852C20.2096 11.1927 20.2018 11.2002 20.1941 11.2076L17.3204 13.9599L17.9977 17.8431C17.9996 17.8538 18.0014 17.8645 18.0033 17.8752C18.0357 18.0608 18.0709 18.2622 18.0847 18.4326C18.0979 18.5968 18.1142 18.9345 17.9298 19.2683C17.7215 19.6454 17.3552 19.9037 16.9382 19.9797C16.5715 20.0465 16.261 19.9315 16.1078 19.869C15.9492 19.8042 15.7668 19.7099 15.5966 19.6218L12 17.7619L8.40336 19.6218C8.23323 19.7099 8.05085 19.8042 7.89219 19.869C7.73903 19.9315 7.42855 20.0465 7.06178 19.9797C6.64486 19.9037 6.27855 19.6454 6.07021 19.2683C5.88584 18.9345 5.90213 18.5968 5.91536 18.4326C5.92908 18.2622 5.96427 18.0608 5.99669 17.8752C5.99857 17.8645 6.00044 17.8538 6.0023 17.8431L6.6796 13.9599L3.80596 11.2076C3.79818 11.2002 3.79036 11.1927 3.7825 11.1852C3.6451 11.0536 3.49699 10.9119 3.38478 10.7829C3.2778 10.6599 3.06327 10.398 3.01256 10.0205C2.95481 9.59042 3.09827 9.16109 3.39616 8.8519C3.65679 8.58138 3.97958 8.49474 4.13864 8.45713C4.30529 8.41772 4.50879 8.38852 4.69897 8.36124C4.70967 8.3597 4.72033 8.35817 4.73094 8.35665L8.71806 7.78358L10.4974 4.23881C10.5023 4.2292 10.5071 4.21952 10.512 4.20981C10.5968 4.04076 10.6885 3.85791 10.7789 3.7127C10.8668 3.57157 11.0524 3.29484 11.3929 3.1352ZM12 5.70356L10.429 8.83329C10.4262 8.83885 10.4228 8.84575 10.4189 8.85381C10.3799 8.93358 10.2848 9.12831 10.1333 9.28869C10.007 9.42234 9.85641 9.52974 9.69033 9.60568C9.49233 9.69622 9.27966 9.72454 9.19021 9.73645C9.1811 9.73766 9.17327 9.7387 9.16686 9.73963L5.68692 10.2398L8.19219 12.6393C8.1967 12.6436 8.20232 12.6489 8.20891 12.655C8.27385 12.7159 8.43261 12.8646 8.5413 13.0566C8.63246 13.2176 8.69136 13.3952 8.7141 13.5797C8.74133 13.8005 8.70126 14.0157 8.68514 14.1023C8.68352 14.111 8.68213 14.1185 8.68109 14.1245L8.08638 17.5341L11.2246 15.9113C11.2304 15.9083 11.2374 15.9046 11.2455 15.9003C11.3252 15.858 11.5147 15.7575 11.729 15.7162C11.908 15.6816 12.092 15.6816 12.271 15.7162C12.4853 15.7575 12.6748 15.858 12.7545 15.9003C12.7627 15.9046 12.7696 15.9083 12.7754 15.9113L15.9136 17.5341L15.3189 14.1245C15.3179 14.1185 15.3165 14.111 15.3149 14.1023C15.2987 14.0157 15.2587 13.8005 15.2859 13.5797C15.3086 13.3952 15.3675 13.2176 15.4587 13.0566C15.5674 12.8646 15.7262 12.7159 15.7911 12.655C15.7977 12.6489 15.8033 12.6436 15.8078 12.6393L18.3131 10.2398L14.8332 9.73963C14.8267 9.7387 14.8189 9.73766 14.8098 9.73645C14.7203 9.72454 14.5077 9.69622 14.3097 9.60568C14.1436 9.52974 13.993 9.42234 13.8667 9.28869C13.7152 9.12831 13.6201 8.93357 13.5811 8.85381C13.5772 8.84574 13.5738 8.83885 13.571 8.83329L12 5.70356Z" fill="black"/>
</svg>
