<svg width="24" height="24" viewBox="0 0 24 24" fill="none" xmlns="http://www.w3.org/2000/svg">
<path opacity="0.15" d="M12 16.182L7.18592 19.8496C6.68952 20.2278 5.99999 19.8493 5.99999 19.1987L5.99999 6.89979C5.99999 5.57442 6.99999 5 8.24999 4.5C9.49999 4 10.5226 4 12 4C13.4774 4 14.5 4 15.75 4.5C17 5 18 5.57442 18 6.89979V19.1987C18 19.8493 17.3105 20.2278 16.8141 19.8496L12 16.182Z" fill="black"/>
<path fill-rule="evenodd" clip-rule="evenodd" d="M12 5.00001C10.5074 5.00001 9.66926 5.00934 8.62138 5.42849C8.0075 5.67404 7.59367 5.88805 7.33136 6.12811C7.11729 6.324 6.99999 6.53718 6.99999 6.8998V18.7341L12 14.9249L17 18.7341V6.8998C17 6.53718 16.8827 6.324 16.6686 6.12811C16.4063 5.88805 15.9925 5.67404 15.3786 5.42849C14.3307 5.00934 13.4926 5.00001 12 5.00001ZM11.9318 3C11.9544 3.00001 11.9772 3.00001 12 3.00001C12.0228 3.00001 12.0455 3.00001 12.0682 3C13.4999 2.99986 14.6919 2.99974 16.1214 3.57153C16.7575 3.82598 17.4687 4.14918 18.0189 4.65268C18.6173 5.20033 19 5.93705 19 6.8998V19.1987C19 20.5491 17.4622 21.6005 16.2081 20.6451L12 17.4392L7.79193 20.6451C6.53775 21.6005 4.99999 20.5491 4.99999 19.1987V6.8998C4.99999 5.93705 5.38269 5.20033 5.98113 4.65268C6.53132 4.14918 7.24249 3.82598 7.8786 3.57153C9.30808 2.99974 10.5001 2.99986 11.9318 3Z" fill="black"/>
</svg>
