<svg width="24" height="24" viewBox="0 0 24 24" fill="none" xmlns="http://www.w3.org/2000/svg">
<path opacity="0.15" d="M8.68777 9.41466C9.2843 10.6571 10.0975 11.8216 11.1274 12.8515C12.1572 13.8813 13.3217 14.6945 14.5642 15.2911C14.671 15.3424 14.7245 15.368 14.7921 15.3877C15.0324 15.4578 15.3274 15.4075 15.5309 15.2618C15.5882 15.2208 15.6372 15.1718 15.7352 15.0738C16.0348 14.7741 16.1846 14.6243 16.3353 14.5264C16.9035 14.157 17.6359 14.157 18.2041 14.5264C18.3547 14.6243 18.5046 14.7741 18.8042 15.0738L18.9712 15.2408C19.4267 15.6963 19.6545 15.9241 19.7782 16.1687C20.0242 16.6551 20.0242 17.2296 19.7782 17.716C19.6545 17.9606 19.4267 18.1884 18.9712 18.6439L18.8361 18.779C18.3822 19.2329 18.1552 19.4599 17.8466 19.6332C17.5042 19.8256 16.9724 19.9639 16.5797 19.9627C16.2257 19.9617 15.9838 19.893 15.5001 19.7557C12.9001 19.0178 10.4468 17.6254 8.40011 15.5787C6.35339 13.532 4.96106 11.0787 4.22313 8.47878C4.08582 7.995 4.01716 7.75311 4.01611 7.39917C4.01494 7.00644 4.15324 6.47462 4.34559 6.1322C4.51894 5.82362 4.7459 5.59665 5.19984 5.14272L5.33495 5.00761C5.79044 4.55211 6.01819 4.32436 6.26279 4.20065C6.74924 3.9546 7.32372 3.9546 7.81018 4.20065C8.05477 4.32436 8.28252 4.55211 8.73802 5.00761L8.90504 5.17463C9.20469 5.47428 9.35451 5.6241 9.45246 5.77476C9.82186 6.34291 9.82186 7.07537 9.45246 7.64353C9.35451 7.79419 9.20469 7.94401 8.90504 8.24366C8.80706 8.34163 8.75808 8.39062 8.71707 8.44788C8.57136 8.65138 8.52104 8.94645 8.59109 9.18674C8.6108 9.25435 8.63645 9.30779 8.68777 9.41466Z" fill="black"/>
<path fill-rule="evenodd" clip-rule="evenodd" d="M7.35884 5.093C7.15617 4.99049 6.91682 4.99048 6.71415 5.093C6.64821 5.12635 6.55314 5.20364 6.04207 5.71472L5.90696 5.84982C5.42243 6.33435 5.30927 6.45853 5.21746 6.62197C5.10962 6.81394 5.01546 7.17601 5.01612 7.3962C5.0167 7.59139 5.04278 7.70415 5.18514 8.20574C5.87771 10.6458 7.18416 12.9485 9.10723 14.8716C11.0303 16.7947 13.333 18.1011 15.7731 18.7937C16.2747 18.9361 16.3875 18.9621 16.5827 18.9627C16.8028 18.9634 17.1649 18.8692 17.3569 18.7614C17.5203 18.6696 17.6445 18.5564 18.129 18.0719L18.2641 17.9368C18.7752 17.4257 18.8525 17.3306 18.8859 17.2647C18.9884 17.062 18.9884 16.8227 18.8859 16.62C18.8525 16.5541 18.7752 16.459 18.2641 15.9479L18.0971 15.7809C17.7614 15.4452 17.6996 15.3912 17.659 15.3647C17.4223 15.2108 17.1171 15.2108 16.8804 15.3647C16.8398 15.3912 16.778 15.4452 16.4423 15.7809C16.4358 15.7874 16.429 15.7943 16.4219 15.8014C16.346 15.8776 16.2403 15.9837 16.1132 16.0748C15.6601 16.3992 15.0472 16.5037 14.5123 16.3478C14.3629 16.3042 14.2396 16.2448 14.1523 16.2027C14.1451 16.1992 14.1381 16.1958 14.1314 16.1925C12.7886 15.5478 11.531 14.6693 10.4203 13.5586C9.30951 12.4478 8.43101 11.1903 7.7863 9.84748L7.77619 9.8265M7.77619 9.8265L7.7863 9.84748C7.78306 9.84074 7.77969 9.83374 7.77619 9.8265C7.73407 9.73922 7.67461 9.61598 7.63106 9.46659C7.47511 8.93162 7.57962 8.31875 7.90403 7.8657C7.99511 7.7385 8.10128 7.6328 8.17748 7.55696C8.18457 7.54989 8.19141 7.54309 8.19795 7.53655C8.5337 7.2008 8.58769 7.13906 8.6141 7.09844C8.768 6.86173 8.768 6.55656 8.6141 6.31985C8.58769 6.27923 8.5337 6.21749 8.19795 5.88174L8.03092 5.71471C7.51985 5.20364 7.42478 5.12635 7.35884 5.093M4.49275 4.43561L4.62785 4.3005C4.65707 4.27128 4.68608 4.24218 4.71492 4.21325C5.08077 3.8462 5.41912 3.50674 5.81146 3.3083C6.58169 2.91872 7.4913 2.91872 8.26154 3.3083C8.65387 3.50674 8.99222 3.8462 9.35807 4.21325C9.38691 4.24218 9.41592 4.27128 9.44514 4.3005L9.61216 4.46752C9.63142 4.48678 9.65059 4.50591 9.66963 4.52491C9.9112 4.76596 10.1337 4.98802 10.2909 5.22966C10.8758 6.12927 10.8758 7.28902 10.2909 8.18862C10.1337 8.43027 9.9112 8.65233 9.66963 8.89337C9.65059 8.91238 9.63142 8.9315 9.61216 8.95076C9.60285 8.96008 9.59439 8.96853 9.58661 8.97632C9.58661 8.97632 9.58836 8.97996 9.58926 8.98184C10.1376 10.124 10.8855 11.1954 11.8345 12.1444C12.7835 13.0933 13.8549 13.8412 14.997 14.3896C14.9989 14.3905 15.0025 14.3922 15.0025 14.3922C15.0103 14.3845 15.0188 14.376 15.0281 14.3667C15.0473 14.3474 15.0665 14.3283 15.0855 14.3092C15.3265 14.0676 15.5486 13.8451 15.7902 13.688C16.6898 13.1031 17.8496 13.1031 18.7492 13.688C18.9908 13.8451 19.2129 14.0677 19.454 14.3092C19.473 14.3283 19.4921 14.3474 19.5113 14.3667L19.6783 14.5337C19.7076 14.5629 19.7367 14.5919 19.7656 14.6208C20.1326 14.9866 20.4721 15.325 20.6705 15.7173C21.0601 16.4875 21.0601 17.3972 20.6705 18.1674C20.4721 18.5597 20.1326 18.8981 19.7656 19.2639C19.7367 19.2928 19.7076 19.3218 19.6783 19.351L19.5432 19.4861C19.5219 19.5074 19.5008 19.5285 19.4799 19.5494C19.0864 19.9436 18.7673 20.2631 18.3364 20.5051C17.8436 20.782 17.142 20.9644 16.5767 20.9627C16.0836 20.9613 15.7216 20.8583 15.2801 20.7328C15.2626 20.7278 15.2449 20.7228 15.227 20.7177C12.4673 19.9344 9.8634 18.4562 7.69302 16.2858C5.52264 14.1155 4.04444 11.5116 3.26114 8.75183C3.25608 8.73399 3.25105 8.71629 3.24605 8.69871C3.12053 8.25723 3.01759 7.8952 3.01612 7.40215C3.01444 6.83686 3.19689 6.13529 3.47375 5.64244C3.71579 5.21157 4.03529 4.89249 4.4294 4.4989C4.45031 4.47802 4.47142 4.45693 4.49275 4.43561Z" fill="black"/>
</svg>
