<svg width="24" height="24" viewBox="0 0 24 24" fill="none" xmlns="http://www.w3.org/2000/svg">
<path opacity="0.15" d="M4 10.2717C4 8.92341 4 8.24925 4.26886 7.70541C4.5008 7.23627 4.89402 6.82479 5.35556 6.56826C5.89059 6.27089 6.5549 6.2309 7.8835 6.1509C9.2557 6.06829 10.7638 6 12 6C13.2362 6 14.7443 6.06829 16.1165 6.1509C17.4451 6.2309 18.1094 6.27089 18.6444 6.56826C19.106 6.82479 19.4992 7.23627 19.7311 7.70541C20 8.24925 20 8.92341 20 10.2717V15.7283C20 17.0766 20 17.7507 19.7311 18.2946C19.4992 18.7637 19.106 19.1752 18.6444 19.4317C18.1094 19.7291 17.4451 19.7691 16.1165 19.8491C14.7443 19.9317 13.2362 20 12 20C10.7638 20 9.25571 19.9317 7.88351 19.8491C6.5549 19.7691 5.89059 19.7291 5.35556 19.4317C4.89402 19.1752 4.5008 18.7637 4.26886 18.2946C4 17.7507 4 17.0766 4 15.7283V10.2717Z" fill="black"/>
<path d="M7 12C7 11.4477 7.44772 11 8 11C8.55228 11 9 11.4477 9 12C9 12.5523 8.55228 13 8 13C7.44772 13 7 12.5523 7 12Z" fill="black"/>
<path d="M8 15C7.44772 15 7 15.4477 7 16C7 16.5523 7.44772 17 8 17C8.55228 17 9 16.5523 9 16C9 15.4477 8.55228 15 8 15Z" fill="black"/>
<path d="M11 16C11 15.4477 11.4477 15 12 15C12.5523 15 13 15.4477 13 16C13 16.5523 12.5523 17 12 17C11.4477 17 11 16.5523 11 16Z" fill="black"/>
<path d="M12 11C11.4477 11 11 11.4477 11 12C11 12.5523 11.4477 13 12 13C12.5523 13 13 12.5523 13 12C13 11.4477 12.5523 11 12 11Z" fill="black"/>
<path d="M15 12C15 11.4477 15.4477 11 16 11C16.5523 11 17 11.4477 17 12C17 12.5523 16.5523 13 16 13C15.4477 13 15 12.5523 15 12Z" fill="black"/>
<path d="M16 15C15.4477 15 15 15.4477 15 16C15 16.5523 15.4477 17 16 17C16.5523 17 17 16.5523 17 16C17 15.4477 16.5523 15 16 15Z" fill="black"/>
<path fill-rule="evenodd" clip-rule="evenodd" d="M8 3C7.44772 3 7 3.44772 7 4V5.19522C5.74696 5.2739 5.07522 5.33878 4.52501 5.64944C4.00577 5.94261 3.5634 6.41288 3.30247 6.94904C3 7.57057 3 8.34104 3 9.88197V16.118C3 17.659 3 18.4294 3.30247 19.051C3.5634 19.5871 4.00577 20.0574 4.52501 20.3506C5.12692 20.6904 5.87426 20.7361 7.36894 20.8275C8.91267 20.922 10.6093 21 12 21C13.3907 21 15.0873 20.922 16.6311 20.8275C18.1257 20.7361 18.8731 20.6904 19.475 20.3506C19.9942 20.0574 20.4366 19.5871 20.6975 19.051C21 18.4294 21 17.659 21 16.118V9.88197C21 8.34104 21 7.57057 20.6975 6.94904C20.4366 6.41288 19.9942 5.94261 19.475 5.64944C18.9248 5.33878 18.253 5.2739 17 5.19522V4C17 3.44772 16.5523 3 16 3C15.4477 3 15 3.44772 15 4V5.08323C14.3206 5.05093 13.6421 5.02545 13 5.01158V4C13 3.44772 12.5523 3 12 3C11.4477 3 11 3.44772 11 4V5.01158C10.3579 5.02545 9.67943 5.05093 9 5.08323V4C9 3.44772 8.55228 3 8 3ZM11 7.01205C10.3623 7.02633 9.68339 7.05241 9 7.08554V8C9 8.55228 8.55228 9 8 9C7.44772 9 7 8.55228 7 8V7.19934C6.50353 7.23134 6.16744 7.25805 5.90024 7.29694C5.59365 7.34156 5.51861 7.38506 5.50897 7.39065C5.34299 7.48436 5.18423 7.65282 5.10082 7.82421C5.09908 7.82749 5.05801 7.90489 5.03117 8.23354C5.00154 8.59628 5 9.07901 5 9.88197V16.118C5 16.921 5.00154 17.4037 5.03117 17.7665C5.05801 18.0951 5.09903 18.1724 5.10077 18.1757C5.18418 18.3471 5.34236 18.5153 5.50834 18.609C5.51798 18.6146 5.59365 18.6584 5.90024 18.7031C6.24737 18.7536 6.71076 18.7835 7.49104 18.8313C9.0217 18.9249 10.6705 19 12 19C13.3295 19 14.9783 18.9249 16.509 18.8313C17.2892 18.7835 17.7526 18.7536 18.0998 18.7031C18.4063 18.6584 18.4814 18.6149 18.491 18.6094C18.657 18.5156 18.8158 18.3472 18.8992 18.1758C18.9009 18.1725 18.942 18.0951 18.9688 17.7665C18.9985 17.4037 19 16.921 19 16.118V9.88197C19 9.07901 18.9985 8.59628 18.9688 8.23354C18.942 7.9049 18.901 7.8276 18.8992 7.82431C18.8158 7.65293 18.6576 7.48473 18.4917 7.39101C18.482 7.38542 18.4063 7.34156 18.0998 7.29694C17.8326 7.25805 17.4965 7.23134 17 7.19934V8C17 8.55228 16.5523 9 16 9C15.4477 9 15 8.55228 15 8V7.08554C14.3166 7.05241 13.6377 7.02633 13 7.01205V8C13 8.55228 12.5523 9 12 9C11.4477 9 11 8.55228 11 8V7.01205Z" fill="black"/>
</svg>
