<svg width="24" height="24" viewBox="0 0 24 24" fill="none" xmlns="http://www.w3.org/2000/svg">
<path opacity="0.15" d="M19 4H5V16.8H8.88889V20L12 16.8H15.8889L19 13.6V4Z" fill="black"/>
<path fill-rule="evenodd" clip-rule="evenodd" d="M4 4C4 3.44772 4.44772 3 5 3H19C19.5523 3 20 3.44772 20 4V13.6C20 13.8603 19.8985 14.1104 19.717 14.2971L16.6059 17.4971C16.4176 17.6907 16.159 17.8 15.8889 17.8H12.4225L9.60588 20.6971C9.32215 20.9889 8.88985 21.0797 8.51272 20.9266C8.13559 20.7734 7.88889 20.407 7.88889 20V17.8H5C4.44772 17.8 4 17.3523 4 16.8V4ZM6 5V15.8H8.88889C9.44117 15.8 9.88889 16.2477 9.88889 16.8V17.5369L11.283 16.1029C11.4713 15.9093 11.7299 15.8 12 15.8H15.4664L18 13.194V5H6ZM11 7C11.5523 7 12 7.44772 12 8V11.2C12 11.7523 11.5523 12.2 11 12.2C10.4477 12.2 10 11.7523 10 11.2V8C10 7.44772 10.4477 7 11 7ZM15 7C15.5523 7 16 7.44772 16 8V11.2C16 11.7523 15.5523 12.2 15 12.2C14.4477 12.2 14 11.7523 14 11.2V8C14 7.44772 14.4477 7 15 7Z" fill="black"/>
</svg>
