<svg width="24" height="24" viewBox="0 0 24 24" fill="none" xmlns="http://www.w3.org/2000/svg">
<path opacity="0.15" d="M21 5.00691C21 5.00691 20.37 6.85898 19.2 8.00549C20.64 16.8249 10.74 23.263 3 18.236C4.98 18.3242 6.96 17.7068 8.4 16.4721C3.9 15.1492 1.65 9.94576 3.9 5.88885C5.88 8.18188 8.94 9.50479 12 9.41659C11.19 5.71246 15.6 3.59581 18.3 6.06523C19.29 6.06523 21 5.00691 21 5.00691Z" fill="black"/>
<path fill-rule="evenodd" clip-rule="evenodd" d="M14.2885 6.31641C13.3187 6.81152 12.6773 7.8329 12.9769 9.20291C13.0405 9.49372 12.9712 9.79775 12.7879 10.0323C12.6046 10.2669 12.3264 10.4075 12.0288 10.4161C9.20006 10.4977 6.37298 9.48264 4.24837 7.64682C3.33358 10.8688 5.2311 14.4981 8.68204 15.5126C9.03381 15.616 9.30078 15.9037 9.37773 16.2622C9.45467 16.6207 9.32926 16.9925 9.05092 17.2312C8.29945 17.8755 7.42773 18.3682 6.49343 18.7049C12.8242 20.3326 19.3316 15.0174 18.2131 8.16658C18.1606 7.84547 18.2677 7.51893 18.5001 7.2912C18.5844 7.20855 18.6662 7.12024 18.7453 7.02773C18.5985 7.05113 18.4488 7.06518 18.3 7.06518C18.0502 7.06518 17.8094 6.97168 17.6251 6.80309C16.6046 5.86978 15.2826 5.80886 14.2885 6.31641ZM21 5.00686C21.9467 5.3289 21.9467 5.32908 21.9466 5.32927L21.9461 5.33064L21.9453 5.33306L21.9429 5.33993L21.9353 5.36157C21.929 5.37943 21.9202 5.40406 21.9088 5.43483C21.8861 5.49634 21.8533 5.58263 21.8105 5.68857C21.7252 5.89989 21.599 6.1924 21.4328 6.52411C21.1658 7.05712 20.7751 7.73314 20.257 8.33708C21.403 17.7874 10.7523 24.4633 2.45531 19.0745C2.07697 18.8288 1.91001 18.3602 2.04774 17.9306C2.18548 17.501 2.5938 17.2168 3.04449 17.2369C4.17471 17.2872 5.29152 17.0767 6.27084 16.6399C2.45012 14.4295 0.783888 9.44555 3.02549 5.40378C3.18399 5.11799 3.47215 4.92767 3.79723 4.89409C4.12231 4.8605 4.44329 4.98788 4.65688 5.23524C6.20654 7.02991 8.50767 8.17292 10.9041 8.3849C10.9598 6.63237 11.987 5.24585 13.379 4.53514C14.9407 3.73781 16.9754 3.77956 18.6025 5.01629C18.6681 4.99957 18.7423 4.97796 18.8251 4.95054C19.0706 4.86921 19.3357 4.75582 19.5885 4.63448C19.8391 4.51423 20.0636 4.39292 20.2258 4.30137C20.3065 4.25583 20.3706 4.21827 20.4137 4.19269C20.4352 4.17992 20.4513 4.17018 20.4615 4.16397L20.4723 4.1574L20.4737 4.15654C20.8326 3.93452 21.2925 3.9616 21.6227 4.22443C21.953 4.4873 22.0825 4.92963 21.9466 5.32927L21 5.00686Z" fill="black"/>
</svg>
