<svg width="24" height="24" viewBox="0 0 24 24" fill="none" xmlns="http://www.w3.org/2000/svg">
<path opacity="0.15" d="M4.25408 9.9086C4.27033 9.82427 4.27845 9.7821 4.30141 9.71535C4.31591 9.67318 4.35669 9.58313 4.37882 9.54441C4.41384 9.48313 4.42948 9.46297 4.46077 9.42267C4.52255 9.34308 4.59392 9.26355 4.65681 9.2251C4.82794 9.12049 5.05196 9.12049 5.5 9.12049H6.66981C6.86548 9.12049 6.96332 9.12049 7.05539 9.09397C7.13701 9.07045 7.21505 9.03167 7.28663 8.97904C7.36736 8.91969 7.43654 8.83668 7.5749 8.67068L10.1075 5.63213C10.4502 5.22096 10.6215 5.01537 10.7686 5.00148C10.8963 4.98943 11.021 5.05142 11.1042 5.16824C11.1949 5.29576 11.1997 5.56334 11.2 6.08537C11.2 6.11933 11.2 6.13631 11.2011 6.15244C11.202 6.16727 11.2035 6.18058 11.2057 6.19528C11.2082 6.21126 11.2119 6.22824 11.2193 6.26221C11.3414 6.81849 12 9.91665 12 12C12 14.0834 11.3414 17.1815 11.2193 17.7378C11.2119 17.7718 11.2082 17.7887 11.2057 17.8047C11.2035 17.8194 11.202 17.8327 11.2011 17.8476C11.2 17.8637 11.2 17.8807 11.2 17.9146C11.1997 18.4367 11.1949 18.7042 11.1042 18.8318C11.021 18.9486 10.8963 19.0106 10.7686 18.9985C10.6215 18.9846 10.4502 18.779 10.1075 18.3679L7.5749 15.3293C7.43654 15.1633 7.36736 15.0803 7.28663 15.021C7.21505 14.9683 7.13701 14.9295 7.05539 14.906C6.96332 14.8795 6.86548 14.8795 6.66981 14.8795H5.5C5.05196 14.8795 4.82794 14.8795 4.65681 14.7749C4.54588 14.7071 4.45024 14.6095 4.37689 14.4906C4.37564 14.4885 4.37878 14.4936 4.35575 14.4455C4.34484 14.4226 4.31127 14.3373 4.30371 14.3131C4.28774 14.2622 4.28407 14.2438 4.27672 14.2069C4.19908 13.8177 4 12.7468 4 12C4 11.3177 4.16617 10.3649 4.25408 9.9086Z" fill="black"/>
<path fill-rule="evenodd" clip-rule="evenodd" d="M11.9188 4.58823C11.6582 4.22214 11.2056 3.95568 10.6746 4.00582C10.2136 4.04936 9.90973 4.35467 9.80531 4.45958L9.8027 4.46221C9.66669 4.59882 9.51335 4.78288 9.36235 4.96412L6.80674 8.03034C6.77668 8.0664 6.75256 8.09534 6.73144 8.12036L5.46771 8.12039C5.2722 8.12034 5.06031 8.12028 4.877 8.13825C4.66525 8.159 4.39959 8.2102 4.13522 8.37182C3.90123 8.51486 3.73349 8.72869 3.67086 8.80937C3.62225 8.87198 3.57669 8.9325 3.51059 9.04816C3.45736 9.1413 3.39067 9.28858 3.35577 9.39003C3.30961 9.52427 3.29008 9.62594 3.27437 9.70775L3.27214 9.71935C3.1852 10.1706 3 11.2103 3 11.9999C3 12.8594 3.2203 14.0227 3.29603 14.4024C3.30779 14.4613 3.31954 14.5166 3.34944 14.612C3.37119 14.6814 3.42215 14.811 3.45352 14.8766L3.46262 14.8958L3.4675 14.9066C3.47356 14.9198 3.48201 14.9375 3.49285 14.958C3.50348 14.978 3.51275 14.9939 3.51839 15.0033L3.52413 15.0128L3.52573 15.0154C3.67401 15.2558 3.87834 15.471 4.13522 15.628C4.39959 15.7896 4.66525 15.8408 4.877 15.8616C5.06032 15.8795 5.27221 15.8795 5.46772 15.8794L6.73143 15.8795C6.75255 15.9045 6.77668 15.9334 6.80674 15.9695L9.36234 19.0357C9.51334 19.2169 9.66669 19.401 9.8027 19.5376L9.80532 19.5402C9.90974 19.6452 10.2136 19.9505 10.6746 19.994C11.2056 20.0441 11.6582 19.7777 11.9188 19.4116C12.1329 19.1109 12.1683 18.7716 12.1824 18.6057C12.1989 18.4121 12.1998 18.1763 12.2 17.9343C12.3286 17.3461 13 14.1863 13 11.9999C13 9.81348 12.3286 6.65374 12.2 6.0655C12.1998 5.82358 12.1989 5.58771 12.1824 5.39415C12.1683 5.22828 12.1329 4.88891 11.9188 4.58823ZM11 11.9999C11 10.3538 10.5532 7.97499 10.3363 6.91934L8.34307 9.31084L8.31345 9.34656C8.20956 9.47214 8.06291 9.64941 7.87899 9.78463C7.71664 9.904 7.53249 9.99711 7.33218 10.0548C7.09667 10.1226 6.85728 10.1213 6.7108 10.1206L6.66981 10.1204H5.5C5.38992 10.1204 5.30467 10.1204 5.23142 10.1217C5.14215 10.5886 5 11.4348 5 11.9999C5 12.5718 5.14471 13.424 5.23144 13.8781C5.30469 13.8794 5.38994 13.8794 5.5 13.8794H6.66981L6.7108 13.8793C6.85729 13.8785 7.09667 13.8772 7.33218 13.945C7.5325 14.0027 7.71664 14.0958 7.87899 14.2152C8.06291 14.3504 8.20956 14.5277 8.31346 14.6533L8.34307 14.689L10.3363 17.0805C10.5532 16.0248 11 13.6461 11 11.9999Z" fill="black"/>
<path d="M15.2929 14.7071C14.9024 14.3166 14.9024 13.6834 15.2929 13.2929L16.5858 12L15.2929 10.7071C14.9024 10.3166 14.9024 9.68345 15.2929 9.29292C15.6834 8.9024 16.3166 8.9024 16.7071 9.29292L18 10.5858L19.2929 9.29289C19.6834 8.90237 20.3166 8.90237 20.7071 9.29289C21.0976 9.68342 21.0976 10.3166 20.7071 10.7071L19.4142 12L20.7071 13.2929C21.0976 13.6834 21.0976 14.3166 20.7071 14.7071C20.3166 15.0977 19.6834 15.0977 19.2929 14.7071L18 13.4142L16.7071 14.7071C16.3166 15.0976 15.6834 15.0976 15.2929 14.7071Z" fill="black"/>
</svg>
