<svg width="24" height="24" viewBox="0 0 24 24" fill="none" xmlns="http://www.w3.org/2000/svg">
<path opacity="0.15" d="M4.25408 9.9086C4.27033 9.82427 4.27845 9.7821 4.30141 9.71535C4.31591 9.67318 4.35669 9.58313 4.37882 9.54441C4.41384 9.48313 4.42948 9.46297 4.46077 9.42267C4.52255 9.34308 4.59392 9.26355 4.65681 9.2251C4.82794 9.12049 5.05196 9.12049 5.5 9.12049H6.66981C6.86548 9.12049 6.96332 9.12049 7.05539 9.09397C7.13701 9.07045 7.21505 9.03167 7.28663 8.97904C7.36736 8.91969 7.43654 8.83668 7.5749 8.67068L10.1075 5.63213C10.4502 5.22096 10.6215 5.01537 10.7686 5.00148C10.8963 4.98943 11.021 5.05142 11.1042 5.16824C11.1949 5.29576 11.1997 5.56334 11.2 6.08537C11.2 6.11933 11.2 6.13631 11.2011 6.15244C11.202 6.16727 11.2035 6.18058 11.2057 6.19528C11.2082 6.21126 11.2119 6.22824 11.2193 6.26221C11.3414 6.81849 12 9.91665 12 12C12 14.0834 11.3414 17.1815 11.2193 17.7378C11.2119 17.7718 11.2082 17.7887 11.2057 17.8047C11.2035 17.8194 11.202 17.8327 11.2011 17.8476C11.2 17.8637 11.2 17.8807 11.2 17.9146C11.1997 18.4367 11.1949 18.7042 11.1042 18.8318C11.021 18.9486 10.8963 19.0106 10.7686 18.9985C10.6215 18.9846 10.4502 18.779 10.1075 18.3679L7.5749 15.3293C7.43654 15.1633 7.36736 15.0803 7.28663 15.021C7.21505 14.9683 7.13701 14.9295 7.05539 14.906C6.96332 14.8795 6.86548 14.8795 6.66981 14.8795H5.5C5.05196 14.8795 4.82794 14.8795 4.65681 14.7749C4.54588 14.7071 4.45024 14.6095 4.37689 14.4906C4.37564 14.4885 4.37878 14.4936 4.35575 14.4455C4.34484 14.4226 4.31127 14.3373 4.30371 14.3131C4.28774 14.2622 4.28407 14.2438 4.27672 14.2069C4.19908 13.8177 4 12.7468 4 12C4 11.3177 4.16617 10.3649 4.25408 9.9086Z" fill="black"/>
<path fill-rule="evenodd" clip-rule="evenodd" d="M10.6746 4.00582C11.2056 3.95568 11.6582 4.22214 11.9188 4.58823C12.1329 4.88891 12.1683 5.22828 12.1824 5.39415C12.1989 5.58771 12.1998 5.82358 12.2 6.0655C12.3286 6.65374 13 9.81348 13 11.9999C13 14.1863 12.3286 17.3461 12.2 17.9343C12.1998 18.1763 12.1989 18.4121 12.1824 18.6057C12.1683 18.7716 12.1329 19.1109 11.9188 19.4116C11.6582 19.7777 11.2056 20.0441 10.6746 19.994C10.2136 19.9505 9.90974 19.6452 9.80532 19.5402L9.8027 19.5376C9.66669 19.401 9.51334 19.2169 9.36234 19.0357L6.80674 15.9695C6.77668 15.9334 6.75255 15.9045 6.73143 15.8795L5.46772 15.8794C5.27221 15.8795 5.06032 15.8795 4.877 15.8616C4.66525 15.8408 4.39959 15.7896 4.13522 15.628C3.87834 15.471 3.67401 15.2558 3.52573 15.0154L3.52413 15.0128L3.51839 15.0033C3.51275 14.9939 3.50348 14.978 3.49285 14.958C3.48201 14.9375 3.47356 14.9198 3.4675 14.9066L3.46262 14.8958L3.45352 14.8766C3.42215 14.811 3.37119 14.6814 3.34944 14.612C3.31954 14.5166 3.30779 14.4613 3.29603 14.4024C3.2203 14.0227 3 12.8594 3 11.9999C3 11.2103 3.1852 10.1706 3.27214 9.71935L3.27437 9.70775C3.29008 9.62594 3.30961 9.52427 3.35577 9.39003C3.39067 9.28858 3.45736 9.1413 3.51059 9.04816C3.57669 8.9325 3.62225 8.87198 3.67086 8.80937C3.73349 8.72869 3.90123 8.51486 4.13522 8.37182C4.39959 8.2102 4.66525 8.159 4.877 8.13825C5.06031 8.12028 5.2722 8.12034 5.46771 8.12039L6.73144 8.12036C6.75256 8.09534 6.77668 8.0664 6.80674 8.03034L9.36235 4.96412C9.51335 4.78288 9.66669 4.59882 9.8027 4.46221L9.80531 4.45958C9.90973 4.35467 10.2136 4.04936 10.6746 4.00582ZM10.3363 6.91934C10.5532 7.97499 11 10.3538 11 11.9999C11 13.6461 10.5532 16.0248 10.3363 17.0805L8.34307 14.689L8.31346 14.6533C8.20956 14.5277 8.06291 14.3504 7.87899 14.2152C7.71664 14.0958 7.5325 14.0027 7.33218 13.945C7.09667 13.8772 6.85729 13.8785 6.7108 13.8793L6.66981 13.8794H5.5C5.38994 13.8794 5.30469 13.8794 5.23144 13.8781C5.14471 13.424 5 12.5718 5 11.9999C5 11.4348 5.14215 10.5886 5.23142 10.1217C5.30467 10.1204 5.38992 10.1204 5.5 10.1204H6.66981L6.7108 10.1206C6.85728 10.1213 7.09667 10.1226 7.33218 10.0548C7.53249 9.99711 7.71664 9.904 7.87899 9.78463C8.06291 9.64941 8.20956 9.47214 8.31345 9.34656L8.34307 9.31084L10.3363 6.91934Z" fill="black"/>
<path d="M15.22 7.5399C15.7502 7.38525 16.3053 7.68969 16.46 8.21988C16.8731 9.63633 17 10.5244 17 11.9999C17 13.4754 16.8731 14.3635 16.46 15.7799C16.3053 16.3101 15.7502 16.6145 15.22 16.4599C14.6898 16.3052 14.3853 15.7501 14.54 15.2199C14.9001 13.9854 15 13.2858 15 11.9999C15 10.7139 14.9001 10.0144 14.54 8.77991C14.3853 8.24972 14.6898 7.69455 15.22 7.5399Z" fill="black"/>
</svg>
