<svg width="24" height="24" viewBox="0 0 24 24" fill="none" xmlns="http://www.w3.org/2000/svg">
<path opacity="0.15" fill-rule="evenodd" clip-rule="evenodd" d="M3.30561 6.90871C3 7.53291 3 8.31176 3 9.86946V14.1305C3 15.6882 3 16.4671 3.30561 17.0913C3.56985 17.631 4.01468 18.1001 4.53958 18.3926C5.14666 18.731 5.90501 18.7713 7.4217 18.8519C8.95101 18.9333 10.6247 19 12 19C13.3753 19 15.049 18.9333 16.5783 18.8519C18.095 18.7713 18.8533 18.731 19.4604 18.3926C19.9853 18.1001 20.4302 17.631 20.6944 17.0913C21 16.4671 21 15.6882 21 14.1305V9.86946C21 8.31176 21 7.53291 20.6944 6.90871C20.4302 6.36902 19.9853 5.8999 19.4604 5.60738C18.8533 5.26905 18.095 5.22872 16.5783 5.14806C15.049 5.06672 13.3753 5 12 5C10.6247 5 8.95101 5.06672 7.4217 5.14806C5.90501 5.22872 5.14666 5.26905 4.53958 5.60738C4.01468 5.8999 3.56985 6.36902 3.30561 6.90871ZM10.086 9.16728C10 9.27881 10 9.47859 10 9.87814V14.1219C10 14.5214 10 14.7212 10.086 14.8327C10.161 14.9299 10.2757 14.9907 10.4005 14.9994C10.5437 15.0093 10.7168 14.9013 11.063 14.6852L14.4634 12.5633C14.7639 12.3759 14.9141 12.2821 14.966 12.1629C15.0113 12.0588 15.0113 11.9412 14.966 11.8371C14.9141 11.7179 14.7639 11.6241 14.4634 11.4367L11.063 9.31479C10.7168 9.09874 10.5437 8.9907 10.4005 9.00063C10.2757 9.00928 10.161 9.07009 10.086 9.16728Z" fill="black"/>
<path fill-rule="evenodd" clip-rule="evenodd" d="M11.5663 8.45005C11.4165 8.35656 11.2524 8.25406 11.1066 8.1804C10.9588 8.10576 10.6795 7.97887 10.3313 8.00301C9.92763 8.031 9.54744 8.2282 9.29419 8.55654C9.07365 8.84248 9.03077 9.15584 9.0152 9.32064C8.99988 9.48277 8.99995 9.67513 9.00001 9.84686V14.1531C8.99995 14.3248 8.99988 14.5172 9.0152 14.6793C9.03077 14.8441 9.07365 15.1575 9.29419 15.4434C9.54743 15.7718 9.92763 15.969 10.3313 15.997C10.6795 16.0211 10.9588 15.8942 11.1066 15.8196C11.2523 15.7459 11.4165 15.6434 11.5662 15.55L15.017 13.3967C15.1455 13.3165 15.2929 13.2246 15.4115 13.1348C15.5364 13.0403 15.7533 12.8599 15.8829 12.562C16.0391 12.2033 16.0391 11.7966 15.8829 11.4379C15.7533 11.1401 15.5364 10.9597 15.4115 10.8652C15.2929 10.7753 15.1455 10.6834 15.017 10.6033L11.5663 8.45005ZM11 13.5458V10.4542L13.4773 12L11 13.5458Z" fill="black"/>
<path fill-rule="evenodd" clip-rule="evenodd" d="M12 4C10.5982 4 8.90373 4.06783 7.3686 4.14947L7.32798 4.15163C6.60418 4.19011 6.00021 4.22221 5.50356 4.29038C4.98193 4.36197 4.50567 4.48147 4.05277 4.73387C3.34975 5.12567 2.76139 5.74614 2.40748 6.46898C2.17824 6.93719 2.08497 7.42592 2.04153 7.95757C1.99998 8.46598 1.99999 9.08456 2 9.82906V14.1709C1.99999 14.9154 1.99998 15.534 2.04153 16.0424C2.08497 16.5741 2.17824 17.0628 2.40748 17.531C2.76139 18.2539 3.34975 18.8743 4.05277 19.2661C4.50567 19.5185 4.98193 19.638 5.50356 19.7096C6.0002 19.7778 6.60415 19.8099 7.32793 19.8484L7.3686 19.8505C8.90373 19.9322 10.5982 20 12 20C13.4018 20 15.0963 19.9322 16.6314 19.8505L16.6721 19.8484C17.3959 19.8099 17.9998 19.7778 18.4964 19.7096C19.0181 19.638 19.4943 19.5185 19.9472 19.2661C20.6503 18.8743 21.2386 18.2539 21.5925 17.531C21.8218 17.0628 21.915 16.5741 21.9585 16.0424C22 15.534 22 14.9155 22 14.171V9.82906C22 9.08456 22 8.46598 21.9585 7.95757C21.915 7.42592 21.8218 6.93719 21.5925 6.46898C21.2386 5.74614 20.6503 5.12567 19.9472 4.73387C19.4943 4.48147 19.0181 4.36197 18.4964 4.29038C17.9998 4.22221 17.3958 4.19011 16.672 4.15163L16.6314 4.14947C15.0963 4.06783 13.4018 4 12 4ZM7.47481 6.14665C8.99831 6.06562 10.6513 6 12 6C13.3487 6 15.0017 6.06562 16.5252 6.14665C17.3 6.18785 17.8203 6.21633 18.2245 6.2718C18.613 6.32512 18.8194 6.39496 18.9736 6.48089C19.3204 6.67414 19.6217 6.9919 19.7963 7.34844C19.8726 7.50443 19.9322 7.71723 19.9651 8.12047C19.9992 8.5378 20 9.07432 20 9.86946V14.1305C20 14.9257 19.9992 15.4622 19.9651 15.8795C19.9322 16.2828 19.8726 16.4956 19.7963 16.6516C19.6217 17.0081 19.3204 17.3259 18.9736 17.5191C18.8194 17.605 18.613 17.6749 18.2245 17.7282C17.8203 17.7837 17.3 17.8121 16.5252 17.8534C15.0017 17.9344 13.3487 18 12 18C10.6513 18 8.99831 17.9344 7.47481 17.8534C6.69998 17.8121 6.17972 17.7837 5.77551 17.7282C5.38703 17.6749 5.18057 17.605 5.02639 17.5191C4.67962 17.3259 4.37831 17.0081 4.20374 16.6516C4.12737 16.4956 4.06783 16.2828 4.03488 15.8795C4.00078 15.4622 4 14.9257 4 14.1305V9.86946C4 9.07432 4.00078 8.5378 4.03488 8.12047C4.06783 7.71723 4.12737 7.50443 4.20374 7.34844C4.37831 6.9919 4.67962 6.67414 5.02639 6.48089C5.18057 6.39496 5.38703 6.32512 5.77551 6.2718C6.17972 6.21633 6.69998 6.18785 7.47481 6.14665Z" fill="black"/>
</svg>
