<svg width="24" height="24" viewBox="0 0 24 24" fill="none" xmlns="http://www.w3.org/2000/svg">
<path opacity="0.15" d="M16 10C16 13.3137 13.3137 16 10 16C6.68629 16 4 13.3137 4 10C4 6.68629 6.68629 4 10 4C13.3137 4 16 6.68629 16 10Z" fill="black"/>
<path d="M7 10C7 9.44772 7.44772 9 8 9H12C12.5523 9 13 9.44772 13 10C13 10.5523 12.5523 11 12 11H8C7.44772 11 7 10.5523 7 10Z" fill="black"/>
<path fill-rule="evenodd" clip-rule="evenodd" d="M3 10C3 6.13401 6.13401 3 10 3C13.866 3 17 6.13401 17 10C17 11.5736 16.4808 13.0259 15.6043 14.195C15.6253 14.2127 15.6457 14.2315 15.6655 14.2513L20.7071 19.2929C21.0976 19.6834 21.0976 20.3166 20.7071 20.7071C20.3166 21.0977 19.6834 21.0977 19.2929 20.7071L14.2513 15.6655C14.2315 15.6457 14.2127 15.6253 14.1949 15.6043C13.0259 16.4808 11.5736 17 10 17C6.13401 17 3 13.866 3 10ZM10 5C7.23858 5 5 7.23858 5 10C5 12.7614 7.23858 15 10 15C12.7614 15 15 12.7614 15 10C15 7.23858 12.7614 5 10 5Z" fill="black"/>
</svg>
