<svg width="24" height="24" viewBox="0 0 24 24" fill="none" xmlns="http://www.w3.org/2000/svg">
<path d="M15 2.33793C15 3.1827 14.653 3.97147 13.9613 4.70154C13.1266 5.56946 12.1169 6.07098 11.022 5.99184C11.0081 5.89049 11 5.78383 11 5.67174C11 4.86076 11.397 3.99285 12.1019 3.28321C12.4539 2.92391 12.9015 2.62515 13.4443 2.38683C13.9859 2.15206 14.4982 2.02223 14.9801 2C14.9941 2.11293 15 2.22588 15 2.33793Z" fill="black"/>
<path d="M19.9483 16.4185C19.8431 16.7326 19.7313 17.0361 19.6114 17.3296L19.6075 17.3389C19.3138 18.0379 18.9637 18.6871 18.5548 19.2875C18.0477 20.0323 17.583 20.6253 17.1725 20.9957C16.5398 21.5914 15.7888 21.9583 14.9338 21.9789L14.9098 21.9792C14.3214 21.9792 13.694 21.8102 13.0569 21.5405C12.576 21.3385 12.1845 21.2601 11.8693 21.2601C11.5244 21.2601 11.1158 21.3416 10.6329 21.5422C10.0151 21.7998 9.42013 21.9781 8.8872 21.9977C7.98997 22.0355 7.20335 21.6185 6.54647 20.9931C6.11459 20.6019 5.63439 19.9962 5.11317 19.2373C4.50035 18.3488 4.00661 17.3333 3.62492 16.1978L3.62411 16.1953C3.21288 14.9614 3 13.746 3 12.5526C3 11.1836 3.28772 9.94388 3.9075 8.87584C4.39356 8.02275 5.05013 7.33533 5.87463 6.83117C6.70336 6.32442 7.60801 6.06359 8.57191 6.04707L8.58904 6.04692C9.20324 6.04692 9.904 6.23583 10.6437 6.52009L10.6457 6.52084C10.9846 6.6519 11.2459 6.74396 11.4365 6.80183C11.5096 6.82401 11.5661 6.83927 11.6081 6.84933C11.6568 6.83603 11.7225 6.81646 11.8079 6.78899C12.0335 6.71643 12.3517 6.60314 12.7683 6.44568L12.7743 6.44343C13.6458 6.12037 14.4775 5.94815 15.2343 6.01384C16.9852 6.15988 18.4048 6.89484 19.3476 8.27533C19.5012 8.50024 19.5565 8.77808 19.5005 9.04464C19.4446 9.31119 19.2824 9.54341 19.0513 9.68762C17.9892 10.3505 17.5224 11.2064 17.5322 12.3404C17.5419 13.2543 17.8519 13.9665 18.4572 14.5444L18.4658 14.5526C18.7487 14.8293 19.0571 15.0364 19.3965 15.183C19.8734 15.389 20.1132 15.9259 19.9483 16.4185Z" fill="black"/>
</svg>
