<svg width="24" height="24" viewBox="0 0 24 24" fill="none" xmlns="http://www.w3.org/2000/svg">
<path d="M5.32798 3.37094C7.00772 3.22281 9.88002 3 12 3C14.12 3 16.9923 3.22281 18.672 3.37094L18.7007 3.37346C18.9158 3.3924 19.1298 3.41125 19.3124 3.44171C19.5166 3.47579 19.7507 3.53418 19.9861 3.66764C20.3513 3.8746 20.6458 4.1962 20.8199 4.57815C20.9327 4.82575 20.97 5.06587 20.9858 5.27251C21.0001 5.45824 21 5.67514 21 5.89436V5.95382C21 6.19635 21.0001 6.43262 20.9843 6.63289C20.9671 6.85261 20.9264 7.11219 20.7983 7.37537C20.6025 7.77754 20.2775 8.10248 19.8754 8.29826C19.6124 8.42626 19.3532 8.46701 19.1335 8.48431C18.9335 8.50006 18.6976 8.50003 18.4557 8.5H5.54435C5.30242 8.50003 5.06656 8.50006 4.86651 8.48431C4.64683 8.46701 4.38759 8.42626 4.12464 8.29826C3.72246 8.10248 3.39752 7.77754 3.20175 7.37537C3.07364 7.11219 3.03295 6.85261 3.01569 6.63289C2.99995 6.43261 2.99997 6.19637 3 5.95383V5.89436C2.99997 5.67513 2.99995 5.45824 3.01419 5.27251C3.03003 5.06587 3.06727 4.82575 3.18012 4.57815C3.35421 4.1962 3.6487 3.8746 4.01387 3.66764C4.24936 3.53418 4.48344 3.47579 4.68763 3.44171C4.87018 3.41125 5.0842 3.3924 5.29928 3.37346L5.32798 3.37094Z" fill="black"/>
<path fill-rule="evenodd" clip-rule="evenodd" d="M6.76372 10H17.2363C17.5175 9.99997 17.788 9.99994 18.0149 10.0193C18.2613 10.0403 18.5559 10.09 18.8459 10.2508C19.2432 10.471 19.5537 10.8199 19.7262 11.2401C19.8522 11.5468 19.8674 11.8452 19.8596 12.0924C19.8525 12.32 19.8211 12.5886 19.7883 12.868L19.4093 16.1095C19.2759 17.2585 19.175 18.128 18.7447 18.8588C18.3785 19.4808 17.7993 20.033 17.1606 20.3691C16.4104 20.7639 15.5783 20.8205 14.4874 20.8947L14.3159 20.9064C13.5272 20.9607 12.7128 21 12 21C11.2976 21 10.4965 20.9618 9.71855 20.9088L9.51262 20.8947C8.42171 20.8205 7.58959 20.7639 6.83943 20.3691C6.2007 20.033 5.6215 19.4808 5.25531 18.8588C4.82505 18.128 4.72409 17.2585 4.59069 16.1095L4.21166 12.8679C4.17895 12.5886 4.14751 12.32 4.14037 12.0924C4.13262 11.8452 4.14779 11.5468 4.27376 11.2401C4.44635 10.8199 4.75683 10.471 5.15412 10.2508C5.4441 10.09 5.73874 10.0403 5.98511 10.0193C6.21204 9.99994 6.48248 9.99997 6.76372 10ZM10 11C9.44772 11 9 11.4477 9 12C9 12.5523 9.44772 13 10 13H14C14.5523 13 15 12.5523 15 12C15 11.4477 14.5523 11 14 11H10Z" fill="black"/>
</svg>
