<svg width="24" height="24" viewBox="0 0 24 24" fill="none" xmlns="http://www.w3.org/2000/svg">
<path d="M15.7056 9.95625C16.2486 9.85497 16.7708 10.213 16.8721 10.7559L16.8756 10.7752L16.8851 10.827C16.8932 10.8716 16.9048 10.936 16.9188 11.016C16.9469 11.1759 16.9852 11.3994 17.0258 11.6543C17.1058 12.1563 17.1997 12.8089 17.2397 13.3389C17.285 13.9386 17.2841 14.6845 17.2736 15.2597C17.2683 15.5517 17.2603 15.8081 17.2536 15.9918C17.2503 16.0837 17.2473 16.1576 17.2451 16.2089L17.2425 16.2684L17.2417 16.2843C17.2376 16.3855 17.2183 16.4832 17.186 16.5749C17.1379 16.7118 17.0591 16.8403 16.9497 16.9497C16.8498 17.0496 16.7341 17.1239 16.6106 17.1727C16.5742 17.1871 16.5367 17.1994 16.4983 17.2096C16.4283 17.2281 16.3555 17.2391 16.2807 17.2419L16.2684 17.2425L16.2089 17.2451C16.1576 17.2473 16.0836 17.2503 15.9917 17.2536C15.8081 17.2603 15.5516 17.2683 15.2596 17.2736C14.6844 17.2841 13.9385 17.285 13.3388 17.2398C12.8088 17.1998 12.1563 17.1058 11.6542 17.0258C11.3993 16.9852 11.1759 16.947 11.016 16.9189C10.9359 16.9048 10.8716 16.8932 10.8269 16.8851L10.7752 16.8757L10.7564 16.8722C10.2135 16.7709 9.8549 16.2486 9.95619 15.7057C10.0575 15.1628 10.5797 14.8048 11.1226 14.906L11.1375 14.9088L11.1843 14.9173C11.2256 14.9248 11.2862 14.9357 11.3621 14.9491C11.5141 14.9758 11.7268 15.0122 11.969 15.0507C12.4609 15.1291 13.0459 15.212 13.4894 15.2454C13.6026 15.254 13.7244 15.2607 13.8515 15.2657L7.05017 8.46444C6.65965 8.07392 6.65965 7.44076 7.05017 7.05023C7.4407 6.65971 8.07386 6.65971 8.46439 7.05023L15.2657 13.8515C15.2606 13.7244 15.254 13.6027 15.2454 13.4894C15.2119 13.0459 15.1291 12.461 15.0507 11.969C15.0121 11.7269 14.9757 11.5142 14.949 11.3622C14.9357 11.2862 14.9248 11.2257 14.9173 11.1844L14.9087 11.1375L14.9061 11.1232C14.8048 10.5803 15.1627 10.0575 15.7056 9.95625Z" fill="black"/>
</svg>
