<svg width="24" height="24" viewBox="0 0 24 24" fill="none" xmlns="http://www.w3.org/2000/svg">
<path d="M12 18.9196C11.4007 19.2678 10.6309 19.3284 9.97811 19.0166C9.7594 18.9122 9.55832 18.8267 9.38954 18.7687C8.29122 18.3916 6.57087 18.477 5.32829 18.6291C4.14672 18.7737 3 17.8741 3 16.6007V7.46276C3 6.5092 3.67665 5.67458 4.63569 5.50566C5.48385 5.35627 6.87183 5.13013 7.92736 5.05326C8.29991 5.02612 8.71132 5.01161 9.12056 5.00492C10.2836 4.9859 11.2997 5.48606 12 6.27416C12.7003 5.48606 13.7164 4.9859 14.8794 5.00492C15.2887 5.01161 15.7001 5.02612 16.0726 5.05326C17.1282 5.13013 18.5162 5.35627 19.3643 5.50566C20.3233 5.67458 21 6.5092 21 7.46276V16.6007C21 17.8741 19.8533 18.7737 18.6717 18.6291C17.4291 18.477 15.7088 18.3916 14.6105 18.7687C14.4417 18.8267 14.2406 18.9122 14.0219 19.0166C13.3691 19.3284 12.5993 19.2678 12 18.9196Z" fill="black"/>
</svg>
