<svg width="24" height="24" viewBox="0 0 24 24" fill="none" xmlns="http://www.w3.org/2000/svg">
<path fill-rule="evenodd" clip-rule="evenodd" d="M8.25254 3.14556C9.51093 3.06414 10.8608 3 12 3C13.1392 3 14.4891 3.06414 15.7475 3.14556L15.788 3.14818C16.4865 3.19335 17.072 3.23122 17.5555 3.30381C18.0656 3.38039 18.5304 3.50403 18.9752 3.75667C19.6657 4.14875 20.2519 4.77408 20.5986 5.4884C20.8238 5.9524 20.916 6.43393 20.959 6.95783C21 7.45766 21 8.06403 21 8.79215V15.2078C21 15.9359 21 16.5423 20.959 17.0422C20.916 17.5661 20.8238 18.0476 20.5986 18.5116C20.2519 19.2259 19.6657 19.8512 18.9752 20.2433C18.5304 20.496 18.0656 20.6196 17.5555 20.6962C17.072 20.7688 16.4865 20.8066 15.7881 20.8518L15.7475 20.8544C14.4891 20.9359 13.1392 21 12 21C10.8608 21 9.51093 20.9359 8.25254 20.8544L8.21195 20.8518C7.51351 20.8067 6.92802 20.7688 6.4445 20.6962C5.93443 20.6196 5.46965 20.496 5.02477 20.2433C4.33432 19.8512 3.74814 19.2259 3.40145 18.5116C3.17625 18.0476 3.08397 17.5661 3.04099 17.0422C2.99998 16.5423 2.99999 15.936 3 15.2079V8.79217C2.99999 8.06406 2.99998 7.45766 3.04099 6.95783C3.08397 6.43393 3.17625 5.9524 3.40145 5.4884C3.74814 4.77408 4.33432 4.14875 5.02477 3.75667C5.46965 3.50403 5.93443 3.38039 6.4445 3.30381C6.92804 3.23122 7.51351 3.19335 8.21198 3.14818L8.25254 3.14556ZM11.5714 9C11.5714 8.44772 12.0191 8 12.5714 8H16C16.5523 8 17 8.44772 17 9V13C17 13.5523 16.5523 14 16 14C15.4477 14 15 13.5523 15 13V11.5901L12.7526 14.1585C12.4595 14.4934 11.9804 14.5944 11.5771 14.4062L9.97811 13.66L8.90376 15.9281C8.66734 16.4272 8.07106 16.6402 7.57194 16.4038C7.07282 16.1673 6.85986 15.5711 7.09628 15.0719L8.59626 11.9053C8.83172 11.4082 9.42444 11.1946 9.92288 11.4272L11.7421 12.2761L13.7338 10H12.5714C12.0191 10 11.5714 9.55228 11.5714 9Z" fill="black"/>
</svg>
