<svg width="24" height="24" viewBox="0 0 24 24" fill="none" xmlns="http://www.w3.org/2000/svg">
<path fill-rule="evenodd" clip-rule="evenodd" d="M6 3C4.34315 3 3 4.34315 3 6V18C3 19.6569 4.34315 21 6 21H7.36957C8.47414 21 9.36957 20.1046 9.36957 19H10.5C10.5 20.1046 11.3954 21 12.5 21H18C19.6569 21 21 19.6569 21 18V12.8284C21 12.0328 20.6839 11.2697 20.1213 10.7071L19.7071 10.2929C19.3166 9.90237 18.6834 9.90237 18.2929 10.2929C17.9024 10.6834 17.9024 11.3166 18.2929 11.7071L18.7071 12.1213C18.8946 12.3089 19 12.5632 19 12.8284V18C19 18.5523 18.5523 19 18 19H16.8293C16.9398 18.6872 17 18.3506 17 18V6C17 4.34315 15.6569 3 14 3H6ZM7 8C7 7.44772 7.44772 7 8 7C8.55228 7 9 7.44772 9 8C9 8.55228 8.55228 9 8 9C7.44772 9 7 8.55228 7 8ZM7 12C7 11.4477 7.44772 11 8 11C8.55228 11 9 11.4477 9 12C9 12.5523 8.55228 13 8 13C7.44772 13 7 12.5523 7 12ZM12 7C11.4477 7 11 7.44772 11 8C11 8.55228 11.4477 9 12 9C12.5523 9 13 8.55228 13 8C13 7.44772 12.5523 7 12 7ZM11 12C11 11.4477 11.4477 11 12 11C12.5523 11 13 11.4477 13 12C13 12.5523 12.5523 13 12 13C11.4477 13 11 12.5523 11 12Z" fill="black"/>
</svg>
