<svg width="24" height="24" viewBox="0 0 24 24" fill="none" xmlns="http://www.w3.org/2000/svg">
<path d="M9 3C9 2.44772 8.55228 2 8 2C7.44772 2 7 2.44772 7 3V4.17583C6.84961 4.18439 6.7023 4.19297 6.5587 4.20152C4.54187 4.32149 3 5.9995 3 8H21C21 5.9995 19.4581 4.32149 17.4413 4.20152C17.2977 4.19297 17.1504 4.18439 17 4.17583V3C17 2.44772 16.5523 2 16 2C15.4477 2 15 2.44772 15 3V4.07536C13.9644 4.03112 12.9121 4 12 4C11.0879 4 10.0356 4.03112 9 4.07536V3Z" fill="black"/>
<path d="M21 10H3V16.8324C3 18.908 4.59256 20.6544 6.68643 20.7886C8.31153 20.8927 10.3765 21 12 21C13.6235 21 15.6885 20.8927 17.3136 20.7886C19.4074 20.6544 21 18.908 21 16.8324V10Z" fill="black"/>
</svg>
