<svg width="24" height="24" viewBox="0 0 24 24" fill="none" xmlns="http://www.w3.org/2000/svg">
<path d="M8 2C8.55228 2 9 2.44772 9 3V4.07536C10.0356 4.03112 11.0879 4 12 4C12.9121 4 13.9644 4.03112 15 4.07536V3C15 2.44772 15.4477 2 16 2C16.5523 2 17 2.44772 17 3V4.17583C17.1504 4.18439 17.2977 4.19297 17.4413 4.20152C19.4581 4.32149 21 5.9995 21 8H3C3 5.9995 4.54187 4.32149 6.5587 4.20152C6.7023 4.19297 6.84961 4.18439 7 4.17583V3C7 2.44772 7.44772 2 8 2Z" fill="black"/>
<path fill-rule="evenodd" clip-rule="evenodd" d="M3 16.8324V10H21V16.8324C21 18.908 19.4074 20.6544 17.3136 20.7886C15.6885 20.8927 13.6235 21 12 21C10.3765 21 8.31153 20.8927 6.68643 20.7886C4.59256 20.6544 3 18.908 3 16.8324ZM7 13C7 12.4477 7.44772 12 8 12C8.55228 12 9 12.4477 9 13C9 13.5523 8.55228 14 8 14C7.44772 14 7 13.5523 7 13ZM7 16C7 15.4477 7.44772 15 8 15C8.55228 15 9 15.4477 9 16C9 16.5523 8.55228 17 8 17C7.44772 17 7 16.5523 7 16ZM12 15C11.4477 15 11 15.4477 11 16C11 16.5523 11.4477 17 12 17C12.5523 17 13 16.5523 13 16C13 15.4477 12.5523 15 12 15ZM11 13C11 12.4477 11.4477 12 12 12C12.5523 12 13 12.4477 13 13C13 13.5523 12.5523 14 12 14C11.4477 14 11 13.5523 11 13ZM16 12C15.4477 12 15 12.4477 15 13C15 13.5523 15.4477 14 16 14C16.5523 14 17 13.5523 17 13C17 12.4477 16.5523 12 16 12ZM15 16C15 15.4477 15.4477 15 16 15C16.5523 15 17 15.4477 17 16C17 16.5523 16.5523 17 16 17C15.4477 17 15 16.5523 15 16Z" fill="black"/>
</svg>
