<svg width="24" height="24" viewBox="0 0 24 24" fill="none" xmlns="http://www.w3.org/2000/svg">
<path d="M8 2C8.55228 2 9 2.44772 9 3V4.07536C10.0356 4.03112 11.0879 4 12 4C12.9121 4 13.9644 4.03112 15 4.07536V3C15 2.44772 15.4477 2 16 2C16.5523 2 17 2.44772 17 3V4.17583C17.1504 4.18439 17.2977 4.19297 17.4413 4.20152C19.4581 4.32149 21 5.9995 21 8H3C3 5.9995 4.54187 4.32149 6.5587 4.20152C6.7023 4.19297 6.84961 4.18439 7 4.17583V3C7 2.44772 7.44772 2 8 2Z" fill="black"/>
<path fill-rule="evenodd" clip-rule="evenodd" d="M3 16.8324V10H21V16.8324C21 18.908 19.4074 20.6544 17.3136 20.7886C15.6885 20.8927 13.6235 21 12 21C10.3765 21 8.31153 20.8927 6.68643 20.7886C4.59256 20.6544 3 18.908 3 16.8324ZM13.4499 12.1867C13.4149 12.0805 13.3627 11.9822 13.2964 11.8952C13.2044 11.7738 13.0893 11.6789 12.9614 11.6126C12.8467 11.5528 12.719 11.5146 12.5836 11.5034C12.4543 11.4925 12.3223 11.5066 12.1955 11.5472C12.1016 11.5772 12.0137 11.6207 11.9342 11.6753L10.4453 12.6679C9.98579 12.9743 9.86161 13.5952 10.168 14.0547C10.4623 14.4962 11.047 14.6281 11.5 14.3661V16.5C11.5 17.0523 11.9477 17.5 12.5 17.5C13.0523 17.5 13.5 17.0523 13.5 16.5V12.5146C13.5017 12.4047 13.4853 12.2938 13.4499 12.1867Z" fill="black"/>
</svg>
