<svg width="24" height="24" viewBox="0 0 24 24" fill="none" xmlns="http://www.w3.org/2000/svg">
<path d="M21.056 9.67605C21.058 9.14728 20.631 8.72028 20.1023 8.72233L16.7349 8.73537L20.7455 4.72474C21.136 4.33422 21.136 3.70105 20.7455 3.31053C20.355 2.92 19.7218 2.92 19.3313 3.31053L15.3207 7.32113L15.3337 3.95373C15.3357 3.42495 14.9088 2.99796 14.38 3.00001C13.8512 3.00205 13.4209 3.43237 13.4189 3.96114L13.3966 9.69975L13.3966 9.7057C13.3945 10.2345 13.8215 10.6615 14.3503 10.6594L20.0949 10.6372C20.6236 10.6351 21.0539 10.2048 21.056 9.67605Z" fill="black"/>
<path d="M4.4294 4.4989L4.62785 4.3005L4.71492 4.21325C5.08077 3.8462 5.41912 3.50674 5.81146 3.3083C6.58169 2.91872 7.4913 2.91872 8.26154 3.3083C8.65387 3.50674 8.99222 3.8462 9.35807 4.21325L9.44514 4.3005L9.66963 4.52491C9.9112 4.76596 10.1337 4.98802 10.2909 5.22967C10.8758 6.12927 10.8758 7.28902 10.2909 8.18862C10.1337 8.43027 9.9112 8.65233 9.66963 8.89337L9.58661 8.97632L9.58926 8.98184C10.1376 10.124 10.8855 11.1954 11.8345 12.1444C12.7835 13.0933 13.8549 13.8412 14.997 14.3896L15.0025 14.3922L15.0855 14.3092C15.3265 14.0676 15.5486 13.8451 15.7902 13.688C16.6898 13.1031 17.8496 13.1031 18.7492 13.688C18.9908 13.8451 19.2129 14.0677 19.454 14.3092L19.6783 14.5337L19.7656 14.6208C20.1326 14.9866 20.4721 15.325 20.6705 15.7173C21.0601 16.4875 21.0601 17.3972 20.6705 18.1674C20.4721 18.5597 20.1326 18.8981 19.7656 19.2639L19.6783 19.351L19.4799 19.5494C19.0864 19.9436 18.7673 20.2631 18.3364 20.5051C17.8436 20.782 17.142 20.9644 16.5767 20.9627C16.0836 20.9613 15.7216 20.8583 15.2801 20.7328L15.227 20.7177C12.4673 19.9344 9.8634 18.4562 7.69302 16.2858C5.52264 14.1155 4.04444 11.5116 3.26114 8.75183L3.24605 8.69871C3.12053 8.25723 3.01759 7.8952 3.01612 7.40215C3.01444 6.83686 3.19689 6.13529 3.47375 5.64244C3.71579 5.21157 4.03529 4.89249 4.4294 4.4989Z" fill="black"/>
</svg>
