<svg width="24" height="24" viewBox="0 0 24 24" fill="none" xmlns="http://www.w3.org/2000/svg">
<path d="M13.3966 3.98338C13.3946 4.51215 13.8216 4.93915 14.3503 4.9371L17.7178 4.92406L13.7071 8.93469C13.3166 9.32521 13.3166 9.95837 13.7071 10.3489C14.0977 10.7394 14.7308 10.7394 15.1213 10.3489L19.1319 6.3383L19.1189 9.7057C19.1169 10.2345 19.5439 10.6615 20.0726 10.6594C20.6014 10.6574 21.0317 10.2271 21.0338 9.69829L21.056 3.95968L21.056 3.95372C21.0581 3.42495 20.6311 2.99796 20.1023 3.00001L14.3577 3.02225C13.829 3.0243 13.3987 3.45461 13.3966 3.98338Z" fill="black"/>
<path d="M4.4294 4.4989L4.62785 4.30051L4.71492 4.21325C5.08077 3.8462 5.41912 3.50674 5.81146 3.3083C6.58169 2.91872 7.4913 2.91872 8.26154 3.3083C8.65387 3.50674 8.99222 3.8462 9.35807 4.21325L9.44514 4.30051L9.66963 4.52492C9.9112 4.76596 10.1337 4.98802 10.2909 5.22967C10.8758 6.12927 10.8758 7.28902 10.2909 8.18863C10.1337 8.43027 9.9112 8.65233 9.66963 8.89338L9.58661 8.97633L9.58926 8.98184C10.1376 10.124 10.8855 11.1954 11.8345 12.1444C12.7835 13.0933 13.8549 13.8412 14.997 14.3896L15.0025 14.3922L15.0855 14.3092C15.3265 14.0676 15.5486 13.8451 15.7902 13.688C16.6898 13.1031 17.8496 13.1031 18.7492 13.688C18.9908 13.8451 19.2129 14.0677 19.454 14.3092L19.6783 14.5337L19.7656 14.6208C20.1326 14.9866 20.4721 15.325 20.6705 15.7173C21.0601 16.4875 21.0601 17.3972 20.6705 18.1674C20.4721 18.5597 20.1326 18.8981 19.7656 19.2639L19.6783 19.351L19.4799 19.5494C19.0864 19.9436 18.7673 20.2631 18.3364 20.5051C17.8436 20.782 17.142 20.9644 16.5767 20.9627C16.0836 20.9613 15.7216 20.8583 15.2801 20.7328L15.227 20.7177C12.4673 19.9344 9.8634 18.4562 7.69302 16.2858C5.52264 14.1155 4.04444 11.5116 3.26114 8.75183L3.24605 8.69872C3.12053 8.25724 3.01759 7.8952 3.01612 7.40215C3.01444 6.83687 3.19689 6.1353 3.47375 5.64244C3.71579 5.21157 4.03529 4.89249 4.4294 4.4989Z" fill="black"/>
</svg>
