<svg width="24" height="24" viewBox="0 0 24 24" fill="none" xmlns="http://www.w3.org/2000/svg">
<path fill-rule="evenodd" clip-rule="evenodd" d="M14.455 4.19007L14.4409 4.18821C14.3973 4.18254 14.3346 4.17456 14.2569 4.16506C14.1016 4.14608 13.8847 4.1209 13.6373 4.09596C13.153 4.04713 12.5137 3.99519 11.9907 4.00008C11.5227 4.00444 10.9513 4.05612 10.5184 4.10287C10.2973 4.12674 10.1034 4.15033 9.96463 4.16798C9.89513 4.17681 9.83917 4.18419 9.80022 4.18942L9.79467 4.19017C9.28708 4.2132 8.79629 4.45134 8.47428 4.87011L7.39555 6.10003H5.25C3.52118 6.10003 2 7.42409 2 9.20003V16.5C2 18.2581 3.49075 19.5734 5.19793 19.5996L5.20193 19.6L5.33906 19.6129C5.45811 19.624 5.63065 19.6398 5.84576 19.6587C6.27584 19.6965 6.87685 19.7469 7.56128 19.7973C8.92323 19.8977 10.6411 20 12 20C13.3589 20 15.0768 19.8977 16.4387 19.7973C17.1231 19.7469 17.7242 19.6965 18.1542 19.6587C18.3694 19.6398 18.5419 19.624 18.6609 19.6129L18.7981 19.6L18.8021 19.5996C20.5093 19.5734 22 18.2581 22 16.5V9.20003C22 7.42409 20.4788 6.10003 18.75 6.10003H16.6638L15.8137 4.91879L15.8124 4.91694C15.4912 4.46847 14.982 4.21332 14.455 4.19007ZM8 13C8 10.7909 9.79086 9 12 9C14.2091 9 16 10.7909 16 13C16 15.2091 14.2091 17 12 17C9.79086 17 8 15.2091 8 13ZM14 13C14 14.1046 13.1046 15 12 15C10.8954 15 10 14.1046 10 13C10 11.8954 10.8954 11 12 11C13.1046 11 14 11.8954 14 13Z" fill="black"/>
</svg>
