<svg width="24" height="24" viewBox="0 0 24 24" fill="none" xmlns="http://www.w3.org/2000/svg">
<path fill-rule="evenodd" clip-rule="evenodd" d="M4.70711 3.29289C4.31658 2.90237 3.68342 2.90237 3.29289 3.29289C2.90237 3.68342 2.90237 4.31658 3.29289 4.70711L4.72658 6.14079C3.22544 6.37609 2 7.60604 2 9.20003V16.5C2 18.2581 3.49075 19.5734 5.19793 19.5996L5.20193 19.6L5.33906 19.6129C5.45811 19.624 5.63065 19.6398 5.84576 19.6587C6.27584 19.6965 6.87685 19.7469 7.56128 19.7973C8.92323 19.8977 10.6411 20 12 20C13.3589 20 15.0768 19.8977 16.4387 19.7973C17.1231 19.7469 17.7242 19.6965 18.1542 19.6587C18.1826 19.6562 18.2103 19.6538 18.2372 19.6514L19.2929 20.7071C19.6834 21.0976 20.3166 21.0976 20.7071 20.7071C21.0976 20.3166 21.0976 19.6834 20.7071 19.2929L4.70711 3.29289ZM14.6138 16.028L13.1919 14.6062C12.8591 14.8536 12.4466 15 12 15C10.8954 15 10 14.1046 10 13C10 12.5534 10.1464 12.1409 10.3938 11.8081L8.97201 10.3862C8.36633 11.0873 8 12.0009 8 13C8 15.2091 9.79086 17 12 17C12.9991 17 13.9127 16.6337 14.6138 16.028Z" fill="black"/>
<path d="M13.4912 9.28722C14.501 9.69315 15.3068 10.499 15.7128 11.5088L21.7954 17.5914C21.9272 17.2553 22 16.8885 22 16.5V9.20003C22 7.42409 20.4788 6.10003 18.75 6.10003H16.6638L15.8137 4.91879L15.8124 4.91694C15.4912 4.46847 14.982 4.21332 14.455 4.19007L14.4409 4.18821C14.3973 4.18254 14.3346 4.17456 14.2569 4.16506C14.1016 4.14608 13.8847 4.1209 13.6373 4.09596C13.153 4.04713 12.5137 3.99519 11.9907 4.00008C11.5227 4.00444 10.9513 4.05612 10.5184 4.10287C10.2973 4.12674 10.1034 4.15033 9.96463 4.16798C9.89513 4.17681 9.83917 4.18419 9.80022 4.18942L9.79467 4.19017C9.42556 4.20691 9.06532 4.33742 8.77242 4.56841L13.4912 9.28722Z" fill="black"/>
</svg>
