<svg width="24" height="24" viewBox="0 0 24 24" fill="none" xmlns="http://www.w3.org/2000/svg">
<path d="M4 3C3.44772 3 3 3.44772 3 4C3 4.55228 3.44772 5 4 5H6C6.39417 5 6.43704 5.04041 6.47571 5.07686L6.47768 5.07872C6.56259 5.15851 6.76683 5.43775 6.94566 6.29919C6.51171 6.94039 6.32541 7.7542 6.49765 8.58056L7.54638 13.6121C7.83622 15.0027 9.06114 16 10.4825 16H17.0257C18.4168 16 19.6244 15.0438 19.9445 13.6908L20.9769 9.32767C21.3779 7.63279 20.2544 5.94073 18.5121 5.69019C17.0184 5.47539 15.0184 5.20786 13.5796 5.09301C12.2729 4.98871 10.6241 4.98885 9.31518 5.01358C9.10105 5.01763 8.89418 5.04389 8.69626 5.08992C8.4944 4.4636 8.22255 3.97391 7.84732 3.62128C7.19494 3.00821 6.43245 3 6 3H4Z" fill="black"/>
<path d="M11 17C9.896 17 9 17.896 9 19C9 20.104 9.896 21 11 21C12.104 21 13 20.104 13 19C13 17.896 12.104 17 11 17Z" fill="black"/>
<path d="M17 17C15.896 17 15 17.896 15 19C15 20.104 15.896 21 17 21C18.104 21 19 20.104 19 19C19 17.896 18.104 17 17 17Z" fill="black"/>
</svg>
