<svg width="24" height="24" viewBox="0 0 24 24" fill="none" xmlns="http://www.w3.org/2000/svg">
<path d="M11.755 5.00998C10.9154 4.99339 10.0602 4.9995 9.31518 5.01358C9.10105 5.01763 8.89418 5.04389 8.69626 5.08992C8.4944 4.4636 8.22255 3.97391 7.84732 3.62128C7.19494 3.00821 6.43245 3 6 3H4C3.44772 3 3 3.44772 3 4C3 4.55228 3.44772 5 4 5H6C6.39417 5 6.43704 5.04041 6.47571 5.07686L6.47768 5.07872C6.56259 5.15851 6.76683 5.43775 6.94566 6.29919C6.51171 6.94039 6.32541 7.7542 6.49765 8.58056L7.54638 13.6121C7.83622 15.0027 9.06114 16 10.4825 16H17.0257C18.4168 16 19.6244 15.0438 19.9445 13.6908L20.2594 12.36C19.4418 12.6354 18.2008 12.8832 17.5 13L17.4643 12.9643C17.313 12.9878 17.1579 13 17 13C15.3431 13 14 11.6569 14 10C12.3431 10 11 8.65685 11 7C11 6.23645 11.2853 5.53953 11.755 5.00998Z" fill="black"/>
<path d="M20.8466 7.53248C20.6695 7.81338 20.3566 8 20 8H18V10C18 10.5523 17.5523 11 17 11C16.4477 11 16 10.5523 16 10V8H14C13.4477 8 13 7.55228 13 7C13 6.44772 13.4477 6 14 6H16V4C16 3.44772 16.4477 3 17 3C17.5523 3 18 3.44772 18 4V6H20C20.5523 6 21 6.44772 21 7C21 7.19572 20.9438 7.3783 20.8466 7.53248Z" fill="black"/>
<path d="M11 17C9.896 17 9 17.896 9 19C9 20.104 9.896 21 11 21C12.104 21 13 20.104 13 19C13 17.896 12.104 17 11 17Z" fill="black"/>
<path d="M15 19C15 17.896 15.896 17 17 17C18.104 17 19 17.896 19 19C19 20.104 18.104 21 17 21C15.896 21 15 20.104 15 19Z" fill="black"/>
</svg>
