<svg width="24" height="24" viewBox="0 0 24 24" fill="none" xmlns="http://www.w3.org/2000/svg">
<path d="M6.15326 14.5321C5.85953 14.0644 6.00055 13.4471 6.46824 13.1534C6.93587 12.8597 7.55312 13.0008 7.84689 13.4684L7.8477 13.4696L7.8536 13.4789L7.88012 13.5201C7.90419 13.5573 7.9407 13.6129 7.98827 13.6837C8.08358 13.8255 8.22247 14.0265 8.39395 14.2591C8.74113 14.7301 9.20379 15.3059 9.69543 15.7817C10.11 16.1828 10.8275 16.7822 11.467 17.3C11.6587 17.4552 11.8402 17.6005 11.9999 17.7275C12.1596 17.6004 12.3411 17.4551 12.5329 17.2999C13.1724 16.7821 13.89 16.1827 14.3045 15.7815C14.7962 15.3058 15.2589 14.73 15.606 14.259C15.7775 14.0264 15.9164 13.8254 16.0117 13.6836C16.0593 13.6129 16.0958 13.5572 16.1199 13.5201L16.1464 13.4789L16.1523 13.4696L16.1531 13.4683C16.4469 13.0007 17.0642 12.8596 17.5318 13.1533C17.9995 13.447 18.1405 14.0643 17.8468 14.532L17.8452 14.5345L17.8424 14.539L17.8327 14.5543L17.7981 14.6081C17.7684 14.6538 17.7257 14.7188 17.6714 14.7996C17.563 14.9609 17.4074 15.186 17.2159 15.4458C16.8371 15.9596 16.2998 16.6338 15.6954 17.2187C15.209 17.6895 14.4265 18.3401 13.7913 18.8543C13.4685 19.1157 13.1744 19.3492 12.9612 19.5174C12.8545 19.6015 12.7678 19.6694 12.7076 19.7165L12.638 19.7708L12.6334 19.7744C12.3113 20.0383 11.8515 20.0763 11.488 19.8594C11.4501 19.8368 11.4134 19.8116 11.3783 19.7837L11.3619 19.771L11.2923 19.7167C11.2321 19.6696 11.1455 19.6017 11.0388 19.5176C10.8255 19.3494 10.5315 19.1159 10.2086 18.8545C9.57344 18.3402 8.791 17.6896 8.30462 17.2189C7.70024 16.634 7.16292 15.9597 6.78413 15.4459C6.59263 15.1861 6.43704 14.961 6.32861 14.7997C6.27431 14.7189 6.23164 14.6539 6.20199 14.6081L6.16739 14.5544L6.1577 14.5391L6.15482 14.5346L6.15326 14.5321Z" fill="black"/>
<path d="M17.8468 9.46809C18.1405 9.9358 17.9995 10.5531 17.5318 10.8468C17.0642 11.1405 16.4469 10.9994 16.1532 10.5318L16.1524 10.5305L16.1465 10.5213L16.1199 10.48C16.0959 10.4429 16.0594 10.3872 16.0118 10.3165C15.9165 10.1747 15.7776 9.97372 15.6061 9.74108C15.2589 9.2701 14.7963 8.69432 14.3046 8.21853C13.8901 7.81734 13.1726 7.21795 12.533 6.70016C12.3414 6.54499 12.1599 6.3997 12.0002 6.27269C11.8405 6.39974 11.6589 6.54507 11.4672 6.7003C10.8276 7.21808 10.1101 7.81746 9.69552 8.21864C9.20387 8.69443 8.7412 9.27019 8.39401 9.74117C8.22252 9.9738 8.08363 10.1748 7.98833 10.3165C7.94075 10.3873 7.90424 10.443 7.88017 10.4801L7.85365 10.5213L7.84775 10.5306L7.84694 10.5319C7.55316 10.9995 6.93589 11.1406 6.46825 10.8469C6.00055 10.5531 5.85953 9.93588 6.15326 9.46818L6.15482 9.46571L6.15771 9.46114L6.16739 9.4459L6.20199 9.39213C6.23165 9.34639 6.27432 9.28134 6.32861 9.20059C6.43705 9.03932 6.59265 8.81421 6.78415 8.55443C7.16295 8.04057 7.70028 7.36634 8.30468 6.78143C8.79107 6.31073 9.57353 5.66011 10.2087 5.14586C10.5316 4.88447 10.8256 4.65094 11.0389 4.48279C11.1456 4.39865 11.2323 4.33073 11.2925 4.28371L11.3621 4.2294L11.3667 4.22582C11.6887 3.96193 12.1485 3.92389 12.512 4.14079C12.55 4.16337 12.5866 4.18862 12.6218 4.2165L12.6381 4.22922L12.7077 4.28353C12.7679 4.33055 12.8546 4.39847 12.9613 4.4826C13.1746 4.65077 13.4686 4.8843 13.7914 5.14569C14.4266 5.65995 15.2091 6.31059 15.6954 6.78129C16.2998 7.36621 16.8371 8.04046 17.2159 8.55432C17.4074 8.81411 17.563 9.03922 17.6715 9.2005C17.7257 9.28125 17.7684 9.34629 17.7981 9.39203L17.8327 9.44581L17.8424 9.46105L17.8452 9.46562L17.8468 9.46809Z" fill="black"/>
</svg>
