<svg width="24" height="24" viewBox="0 0 24 24" fill="none" xmlns="http://www.w3.org/2000/svg">
<path d="M9.46803 6.15329C9.93574 5.85956 10.553 6.00058 10.8467 6.46827C11.1405 6.9359 10.9993 7.55315 10.5318 7.84692L10.5305 7.84773L10.5212 7.85363L10.48 7.88016C10.4429 7.90422 10.3872 7.94073 10.3164 7.9883C10.1747 8.08361 9.97365 8.2225 9.74102 8.39398C9.27004 8.74116 8.69426 9.20382 8.21846 9.69546C7.81728 10.11 7.21789 10.8275 6.7001 11.4671C6.54493 11.6587 6.39964 11.8402 6.27263 11.9999C6.39968 12.1596 6.54501 12.3412 6.70024 12.5329C7.21802 13.1725 7.81739 13.89 8.21858 14.3046C8.69437 14.7962 9.27013 15.2589 9.74111 15.6061C9.97373 15.7776 10.1747 15.9165 10.3165 16.0118C10.3872 16.0593 10.4429 16.0959 10.4801 16.1199L10.5213 16.1464L10.5305 16.1523L10.5318 16.1532C10.9994 16.4469 11.1405 17.0642 10.8468 17.5318C10.5531 17.9995 9.93582 18.1406 9.46812 17.8468L9.46565 17.8453L9.46108 17.8424L9.44584 17.8327L9.39207 17.7981C9.34632 17.7684 9.28128 17.7258 9.20053 17.6715C9.03926 17.563 8.81415 17.4074 8.55436 17.2159C8.04051 16.8371 7.36628 16.2998 6.78137 15.6954C6.31067 15.209 5.66005 14.4266 5.1458 13.7914C4.88441 13.4685 4.65088 13.1745 4.48272 12.9612C4.39859 12.8545 4.33067 12.7678 4.28365 12.7076L4.22934 12.638L4.22576 12.6334C3.96187 12.3114 3.92382 11.8515 4.14073 11.4881C4.16331 11.4501 4.18856 11.4134 4.21644 11.3783L4.22915 11.362L4.28347 11.2923C4.33049 11.2322 4.39841 11.1455 4.48254 11.0388C4.6507 10.8255 4.88424 10.5315 5.14563 10.2087C5.65989 9.57347 6.31052 8.79103 6.78123 8.30465C7.36615 7.70027 8.0404 7.16295 8.55426 6.78416C8.81405 6.59266 9.03916 6.43707 9.20044 6.32864C9.28119 6.27434 9.34623 6.23167 9.39197 6.20202L9.44575 6.16742L9.46099 6.15773L9.46556 6.15485L9.46803 6.15329Z" fill="black"/>
<path d="M14.532 17.8468C14.0643 18.1406 13.4471 17.9995 13.1533 17.5319C12.8596 17.0642 13.0007 16.447 13.4683 16.1532L13.4696 16.1524L13.4789 16.1465L13.5201 16.12C13.5572 16.0959 13.6129 16.0594 13.6836 16.0118C13.8254 15.9165 14.0264 15.7776 14.259 15.6061C14.73 15.259 15.3058 14.7963 15.7816 14.3047C16.1828 13.8901 16.7822 13.1726 17.3 12.533C17.4551 12.3414 17.6004 12.1599 17.7274 12.0002C17.6004 11.8405 17.4551 11.659 17.2998 11.4672C16.782 10.8277 16.1827 10.1101 15.7815 9.69555C15.3057 9.2039 14.7299 8.74123 14.259 8.39404C14.0263 8.22256 13.8253 8.08366 13.6836 7.98836C13.6128 7.94078 13.5571 7.90427 13.52 7.8802L13.4788 7.85368L13.4695 7.84778L13.4682 7.84697C13.0007 7.55319 12.8595 6.93592 13.1532 6.46828C13.447 6.00058 14.0642 5.85956 14.5319 6.15329L14.5344 6.15485L14.539 6.15774L14.5542 6.16742L14.608 6.20202C14.6537 6.23168 14.7188 6.27435 14.7995 6.32864C14.9608 6.43708 15.1859 6.59268 15.4457 6.78418C15.9595 7.16298 16.6338 7.70031 17.2187 8.30471C17.6894 8.7911 18.34 9.57356 18.8543 10.2088C19.1157 10.5316 19.3492 10.8256 19.5173 11.0389C19.6015 11.1456 19.6694 11.2323 19.7164 11.2925L19.7707 11.3621L19.7743 11.3667C20.0382 11.6888 20.0762 12.1486 19.8593 12.5121C19.8368 12.55 19.8115 12.5867 19.7836 12.6218L19.7709 12.6381L19.7166 12.7078C19.6696 12.768 19.6017 12.8546 19.5175 12.9613C19.3494 13.1746 19.1158 13.4686 18.8544 13.7915C18.3402 14.4267 17.6895 15.2091 17.2188 15.6955C16.6339 16.2999 15.9597 16.8372 15.4458 17.216C15.186 17.4075 14.9609 17.5631 14.7996 17.6715C14.7189 17.7258 14.6538 17.7684 14.6081 17.7981L14.5543 17.8327L14.5391 17.8424L14.5345 17.8453L14.532 17.8468Z" fill="black"/>
</svg>
