<svg width="24" height="24" viewBox="0 0 24 24" fill="none" xmlns="http://www.w3.org/2000/svg">
<path fill-rule="evenodd" clip-rule="evenodd" d="M2 12C2 6.47715 6.47715 2 12 2C17.5228 2 22 6.47715 22 12C22 17.5228 17.5228 22 12 22C6.47715 22 2 17.5228 2 12ZM15.8308 9.0567L15.8202 9.07274L15.7779 9.13737C15.7408 9.19428 15.6866 9.27788 15.6195 9.38296C15.485 9.59334 15.2991 9.8887 15.094 10.2276C14.6775 10.9159 14.2055 11.7455 13.9148 12.4039C13.6122 13.0894 13.309 14.0359 13.0759 14.8407C12.9611 15.2369 12.8663 15.5879 12.8004 15.8395C12.7674 15.9651 12.7417 16.0657 12.7244 16.1343L12.7049 16.2124L12.7001 16.2318L12.6987 16.2373C12.611 16.5965 12.3322 16.878 11.9738 16.9691C11.6155 17.0603 11.2361 16.9463 10.9873 16.6727L8.26007 13.6727C7.88856 13.264 7.91868 12.6316 8.32733 12.2601C8.73599 11.8886 9.36844 11.9187 9.73995 12.3273L11.2438 13.9816C11.4724 13.216 11.7686 12.3132 12.0852 11.5961C12.4303 10.8143 12.9583 9.89393 13.3829 9.19226C13.5983 8.83622 13.7932 8.52661 13.9344 8.30576C14.005 8.19523 14.0624 8.10665 14.1024 8.04529L14.1489 7.97425L14.1614 7.95522L14.1658 7.94857C14.4707 7.48811 15.0917 7.36132 15.5522 7.66628C16.0126 7.97122 16.1386 8.59173 15.8337 9.05218L15.8308 9.0567Z" fill="black"/>
</svg>
