<svg width="24" height="24" viewBox="0 0 24 24" fill="none" xmlns="http://www.w3.org/2000/svg">
<path fill-rule="evenodd" clip-rule="evenodd" d="M2 12C2 6.47715 6.47715 2 12 2C17.5228 2 22 6.47715 22 12C22 17.5228 17.5228 22 12 22C6.47715 22 2 17.5228 2 12ZM11.0667 8.73035C11.4128 8.52694 11.8197 8.45258 12.2154 8.52045C12.6111 8.58832 12.97 8.79404 13.2286 9.10118C13.4871 9.40831 13.6286 9.79704 13.628 10.1985V10.2C13.628 10.4719 13.3697 10.8766 12.7386 11.3259C12.4637 11.5216 12.1824 11.679 11.9664 11.7884C11.8596 11.8425 11.7719 11.8833 11.7128 11.9097C11.6834 11.9229 11.6613 11.9324 11.6478 11.9382L11.6341 11.9439L11.6328 11.9445C11.2557 12.0976 11.009 12.4639 11.009 12.871V13C11.009 13.5523 11.4567 14 12.009 14C12.3339 14 12.6225 13.8451 12.8052 13.6052C12.8262 13.5947 12.8479 13.5839 12.8701 13.5726C13.1451 13.4333 13.5186 13.2256 13.8984 12.9552C14.5766 12.4724 15.6275 11.5419 15.628 10.2009C15.6292 9.32735 15.3212 8.48151 14.7586 7.81318C14.1959 7.14471 13.4147 6.69696 12.5535 6.54924C11.6923 6.40152 10.8066 6.56335 10.0533 7.00609C9.29996 7.44882 8.72764 8.14388 8.43768 8.96816C8.2544 9.48915 8.52818 10.0601 9.04917 10.2433C9.57016 10.4266 10.1411 10.1528 10.3243 9.63185C10.4576 9.25312 10.7205 8.93377 11.0667 8.73035ZM12 15.5C11.4477 15.5 11 15.9477 11 16.5C11 17.0523 11.4477 17.5 12 17.5H12.009C12.5613 17.5 13.009 17.0523 13.009 16.5C13.009 15.9477 12.5613 15.5 12.009 15.5H12Z" fill="black"/>
</svg>
