<svg width="24" height="24" viewBox="0 0 24 24" fill="none" xmlns="http://www.w3.org/2000/svg">
<path fill-rule="evenodd" clip-rule="evenodd" d="M2 12C2 17.5228 6.47716 22 12 22C17.5229 22 22 17.5228 22 12C22 6.47715 17.5228 2 12 2C6.47715 2 2 6.47715 2 12ZM12 7C11.4477 7 11 7.44771 11 8C11 8.55228 11.4477 9 12 9C12.5523 9 13 8.55228 13 8C13 7.44771 12.5523 7 12 7ZM10.6759 14.675L11.2814 12.2497C10.9002 12.2615 10.5293 12.0534 10.3512 11.6884C10.1091 11.192 10.3152 10.5933 10.8116 10.3512L10.8492 10.3328C11.1471 10.1852 11.4809 10.1255 11.8116 10.1607C12.1442 10.1962 12.4597 10.3262 12.7206 10.5354C12.9816 10.7445 13.1772 11.0241 13.2842 11.341C13.3912 11.6579 13.405 11.9996 13.3242 12.3242L12.7186 14.7502C13.0927 14.7387 13.458 14.9387 13.64 15.2941C13.8918 15.7856 13.6974 16.3882 13.2059 16.64L13.1649 16.661L13.1563 16.6653C12.8569 16.8151 12.5208 16.8758 12.1879 16.8403C11.8551 16.8048 11.5394 16.6746 11.2783 16.465C11.0172 16.2555 10.8217 15.9755 10.7149 15.6583C10.6082 15.3412 10.5948 14.9995 10.6759 14.675Z" fill="black"/>
</svg>
