<svg width="24" height="24" viewBox="0 0 24 24" fill="none" xmlns="http://www.w3.org/2000/svg">
<path fill-rule="evenodd" clip-rule="evenodd" d="M7 4.24243V4.19771C7 3.21851 7.70839 2.38306 8.6799 2.26055C9.69826 2.13213 10.9912 2 12 2C13.0088 2 14.3017 2.13213 15.3201 2.26055C16.2916 2.38306 17 3.21851 17 4.19771V4.24243C17.6552 4.30955 18.0959 4.40732 18.4814 4.62626C18.9959 4.91842 19.4406 5.39279 19.6989 5.92506C20 6.54541 20 7.30775 20 8.83241V17.1676C20 18.6923 20 19.4546 19.6989 20.075C19.4406 20.6073 18.9959 21.0816 18.4814 21.3738C17.8818 21.7143 17.1488 21.7617 15.6829 21.8566C14.4327 21.9374 13.1075 22 12 22C10.8925 22 9.56733 21.9374 8.3171 21.8566C6.85116 21.7617 6.11819 21.7143 5.51858 21.3738C5.0041 21.0816 4.55942 20.6073 4.30109 20.075C4 19.4546 4 18.6923 4 17.1676V8.83241C4 7.30775 4 6.54541 4.30109 5.92506C4.55942 5.39279 5.0041 4.91842 5.51858 4.62626C5.90412 4.40732 6.3448 4.30955 7 4.24243ZM12 4C12.8561 4 14.0105 4.11276 15 4.23607V5.76393C14.0105 5.88724 12.8561 6 12 6C11.1439 6 9.98948 5.88724 9 5.76393V4.23607C9.98948 4.11276 11.1439 4 12 4Z" fill="black"/>
</svg>
