<svg width="24" height="24" viewBox="0 0 24 24" fill="none" xmlns="http://www.w3.org/2000/svg">
<path fill-rule="evenodd" clip-rule="evenodd" d="M7 4.19771V4.24243C6.3448 4.30955 5.90412 4.40732 5.51858 4.62626C5.0041 4.91842 4.55942 5.39279 4.30109 5.92506C4 6.54541 4 7.30775 4 8.83241V17.1676C4 18.6923 4 19.4546 4.30109 20.075C4.55942 20.6073 5.0041 21.0816 5.51858 21.3738C6.11819 21.7143 6.85116 21.7617 8.3171 21.8566C9.56733 21.9374 10.8925 22 12 22C13.1075 22 14.4327 21.9374 15.6829 21.8566C17.1488 21.7617 17.8818 21.7143 18.4814 21.3738C18.9959 21.0816 19.4406 20.6073 19.6989 20.075C20 19.4546 20 18.6923 20 17.1676V8.83241C20 7.30775 20 6.54541 19.6989 5.92506C19.4406 5.39279 18.9959 4.91842 18.4814 4.62626C18.0959 4.40732 17.6552 4.30955 17 4.24243V4.19771C17 3.21851 16.2916 2.38306 15.3201 2.26055C14.3017 2.13213 13.0088 2 12 2C10.9912 2 9.69826 2.13213 8.6799 2.26055C7.70839 2.38306 7 3.21851 7 4.19771ZM15 4.23607C14.0105 4.11276 12.8561 4 12 4C11.1439 4 9.98948 4.11276 9 4.23607V5.76393C9.98948 5.88724 11.1439 6 12 6C12.8561 6 14.0105 5.88724 15 5.76393V4.23607ZM8 13C8 12.4477 8.44772 12 9 12H15C15.5523 12 16 12.4477 16 13C16 13.5523 15.5523 14 15 14H9C8.44772 14 8 13.5523 8 13ZM8 17C8 16.4477 8.44772 16 9 16H15C15.5523 16 16 16.4477 16 17C16 17.5523 15.5523 18 15 18H9C8.44772 18 8 17.5523 8 17Z" fill="black"/>
</svg>
