<svg width="24" height="24" viewBox="0 0 24 24" fill="none" xmlns="http://www.w3.org/2000/svg">
<path fill-rule="evenodd" clip-rule="evenodd" d="M3.35153 18.3777C2.48616 17.4794 2 16.4802 2 15.2098C2.00004 14.2016 2.30638 13.2191 2.87545 12.402C3.27558 11.8275 3.79127 11.3555 4.3828 11.016C4.81364 10.7687 5.09184 10.2964 5.07374 9.79996C5.03192 8.65319 5.33125 7.513 5.94173 6.53955C6.70488 5.32264 7.89433 4.46186 9.2582 4.13949C10.6221 3.81711 12.0533 4.05846 13.2487 4.81242C14.1433 5.37661 14.8532 6.1947 15.3018 7.15956C15.5479 7.68878 16.1454 8.00196 16.7286 8.02448C16.9371 8.03254 17.1452 8.06262 17.3496 8.11487C17.9067 8.25723 18.4143 8.55845 18.8151 8.9845C19.2159 9.41054 19.494 9.94444 19.6179 10.5259C19.6751 10.7946 19.6984 11.0685 19.6882 11.3408C19.668 11.8741 19.9178 12.4187 20.3505 12.7311C20.8221 13.0717 21.2176 13.5201 21.5038 14.0467C21.9461 14.8606 22.0993 15.8097 21.9368 16.7288C21.7743 17.6479 21.3064 18.4787 20.6145 19.0764C19.9309 19.667 18.4907 19.7791 17.5881 19.7807C17.5662 19.7807 17.5461 19.7813 17.5242 19.7827C17.1781 19.8047 14.0489 20 12 20C9.9498 20 6.81782 19.8045 6.47517 19.7827C6.45364 19.7813 6.43352 19.7808 6.41195 19.7806C5.20284 19.7717 4.20924 19.2681 3.35153 18.3777Z" fill="black"/>
</svg>
