<svg width="24" height="24" viewBox="0 0 24 24" fill="none" xmlns="http://www.w3.org/2000/svg">
<path fill-rule="evenodd" clip-rule="evenodd" d="M2 15.2098C2 16.4802 2.48616 17.4794 3.35153 18.3777C4.20924 19.2681 5.20284 19.7717 6.41195 19.7806C6.43352 19.7808 6.45364 19.7813 6.47517 19.7827C6.81782 19.8045 9.9498 20 12 20C14.0489 20 17.1781 19.8047 17.5242 19.7827C17.5461 19.7813 17.5662 19.7807 17.5881 19.7807C18.4907 19.7791 19.9309 19.667 20.6145 19.0764C21.3064 18.4787 21.7743 17.6479 21.9368 16.7288C22.0993 15.8097 21.9461 14.8606 21.5038 14.0467C21.2176 13.5201 20.8221 13.0717 20.3505 12.7311C19.9178 12.4187 19.668 11.8741 19.6882 11.3408C19.6984 11.0685 19.6751 10.7946 19.6179 10.5259C19.494 9.94444 19.2159 9.41054 18.8151 8.9845C18.4143 8.55845 17.9067 8.25723 17.3496 8.11487C17.1452 8.06262 16.9371 8.03254 16.7286 8.02448C16.1454 8.00196 15.5479 7.68878 15.3018 7.15956C14.8532 6.1947 14.1433 5.37661 13.2487 4.81242C12.0533 4.05846 10.6221 3.81711 9.2582 4.13949C7.89433 4.46186 6.70488 5.32264 5.94173 6.53955C5.33125 7.513 5.03192 8.65319 5.07374 9.79996C5.09184 10.2964 4.81364 10.7687 4.3828 11.016C3.79127 11.3555 3.27558 11.8275 2.87545 12.402C2.30638 13.2191 2.00004 14.2016 2 15.2098ZM12 9C12.5523 9 13 9.44772 13 10V12.5858L13.7929 11.7929C14.1834 11.4024 14.8166 11.4024 15.2071 11.7929C15.5976 12.1834 15.5976 12.8166 15.2071 13.2071L12.7071 15.7071C12.3166 16.0976 11.6834 16.0976 11.2929 15.7071L8.79289 13.2071C8.40237 12.8166 8.40237 12.1834 8.79289 11.7929C9.18342 11.4024 9.81658 11.4024 10.2071 11.7929L11 12.5858V10C11 9.44772 11.4477 9 12 9Z" fill="black"/>
</svg>
