<svg width="24" height="24" viewBox="0 0 24 24" fill="none" xmlns="http://www.w3.org/2000/svg">
<path d="M13.7095 4.02216C14.2495 4.13788 14.5935 4.66947 14.4778 5.20949L11.4778 19.2095C11.362 19.7495 10.8305 20.0935 10.2904 19.9778C9.75041 19.862 9.40644 19.3305 9.52216 18.7904L12.5222 4.79043C12.6379 4.25041 13.1695 3.90644 13.7095 4.02216Z" fill="black"/>
<path d="M2.26694 11.3198L2.27471 11.3113L2.31493 11.2673C2.34966 11.2295 2.39981 11.1751 2.46245 11.1077C2.58761 10.9732 2.7633 10.7862 2.96601 10.5759C3.36531 10.1618 3.89207 9.63373 4.34812 9.24169C4.75121 8.89518 5.27903 8.50021 5.69062 8.20177C5.89957 8.05026 6.08461 7.91928 6.21756 7.82607C6.2841 7.77941 6.33778 7.7421 6.37508 7.71626L6.41837 7.68636L6.43411 7.67553C6.88963 7.36324 7.51251 7.47905 7.8248 7.93457C8.13707 8.39007 8.02097 9.01247 7.56549 9.32477L7.55299 9.33336L7.51379 9.36045C7.47931 9.38432 7.42879 9.41944 7.36568 9.46369C7.23931 9.55229 7.06316 9.67698 6.86466 9.82091C6.46133 10.1134 5.98916 10.4684 5.65189 10.7583C5.27033 11.0863 4.79709 11.5583 4.40579 11.9641L4.37122 12L4.40579 12.0359C4.79709 12.4418 5.27033 12.9137 5.65189 13.2417C5.98916 13.5316 6.46133 13.8867 6.86466 14.1791C7.06316 14.3231 7.23931 14.4477 7.36568 14.5363C7.42879 14.5806 7.47931 14.6157 7.51379 14.6396L7.55299 14.6667L7.56549 14.6753C8.02097 14.9876 8.13707 15.61 7.8248 16.0655C7.51251 16.521 6.88963 16.6368 6.43411 16.3245C6.43411 16.3245 6.43457 16.3248 6.94941 15.5738L6.43411 16.3245L6.41837 16.3137L6.37508 16.2838C6.33778 16.2579 6.2841 16.2206 6.21756 16.174C6.08461 16.0808 5.89957 15.9498 5.69062 15.7983C5.27903 15.4998 4.75121 15.1049 4.34812 14.7583C3.89207 14.3663 3.36531 13.8382 2.96601 13.4241C2.7633 13.2139 2.58761 13.0269 2.46245 12.8923C2.39981 12.8249 2.34966 12.7705 2.31493 12.7327L2.27471 12.6888L2.26697 12.6803C2.20056 12.6089 2.14642 12.5299 2.10469 12.446C1.96594 12.1673 1.96428 11.8355 2.10469 11.554C2.14642 11.4702 2.20055 11.3912 2.26694 11.3198Z" fill="black"/>
<path d="M21.7404 11.3277C22.0939 11.717 22.0832 12.3089 21.7286 12.6851L21.7253 12.6888L21.6851 12.7327C21.6503 12.7705 21.6002 12.8249 21.5375 12.8923C21.4124 13.0269 21.2367 13.2139 21.034 13.4241C20.6347 13.8382 20.1079 14.3663 19.6519 14.7583C19.2488 15.1049 18.7209 15.4998 18.3094 15.7983C18.1004 15.9498 17.9154 16.0808 17.7824 16.174C17.7159 16.2206 17.6622 16.2579 17.6249 16.2838L17.5816 16.3137L17.5659 16.3245C17.1103 16.6368 16.4875 16.521 16.1752 16.0655C15.8629 15.61 15.979 14.9876 16.4345 14.6753L16.447 14.6667L16.4862 14.6396C16.5207 14.6157 16.5712 14.5806 16.6343 14.5363C16.7607 14.4477 16.9368 14.3231 17.1353 14.1791C17.5386 13.8867 18.0108 13.5316 18.3481 13.2417C18.7296 12.9137 19.2029 12.4418 19.5942 12.0359L19.6288 12L19.5943 11.9641C19.203 11.5583 18.7298 11.0863 18.3482 10.7583C18.0109 10.4684 17.5388 10.1134 17.1354 9.82091C16.9369 9.67698 16.7608 9.55229 16.6344 9.46369C16.5713 9.41944 16.5208 9.38432 16.4863 9.36045L16.4471 9.33336L16.4346 9.32477C15.9791 9.01247 15.863 8.39007 16.1753 7.93457C16.4876 7.47905 17.1105 7.36324 17.566 7.67553L17.5817 7.68636L17.625 7.71626C17.6623 7.7421 17.716 7.77941 17.7825 7.82607C17.9155 7.91928 18.1005 8.05026 18.3095 8.20177C18.7211 8.50021 19.2489 8.89518 19.652 9.24169C20.108 9.63373 20.6348 10.1618 21.0341 10.5759C21.2368 10.7862 21.4125 10.9732 21.5376 11.1077C21.6003 11.1751 21.6504 11.2295 21.6852 11.2673L21.7254 11.3113L21.7404 11.3277Z" fill="black"/>
</svg>
