<svg width="24" height="24" viewBox="0 0 24 24" fill="none" xmlns="http://www.w3.org/2000/svg">
<path fill-rule="evenodd" clip-rule="evenodd" d="M8.25254 3.14556C9.51093 3.06414 10.8608 3 12 3C13.1392 3 14.4891 3.06414 15.7475 3.14556L15.788 3.14818C16.4865 3.19335 17.072 3.23122 17.5555 3.30381C18.0656 3.38039 18.5304 3.50403 18.9752 3.75667C19.6657 4.14875 20.2519 4.77408 20.5986 5.4884C20.8238 5.9524 20.916 6.43393 20.959 6.95783C21 7.45766 21 8.06403 21 8.79215V15.2078C21 15.9359 21 16.5423 20.959 17.0422C20.916 17.5661 20.8238 18.0476 20.5986 18.5116C20.2519 19.2259 19.6657 19.8512 18.9752 20.2433C18.5304 20.496 18.0656 20.6196 17.5555 20.6962C17.072 20.7688 16.4865 20.8066 15.7881 20.8518L15.7475 20.8544C14.4891 20.9359 13.1392 21 12 21C10.8608 21 9.51093 20.9359 8.25254 20.8544L8.21195 20.8518C7.51351 20.8067 6.92802 20.7688 6.4445 20.6962C5.93443 20.6196 5.46965 20.496 5.02477 20.2433C4.33432 19.8512 3.74814 19.2259 3.40145 18.5116C3.17625 18.0476 3.08397 17.5661 3.04099 17.0422C2.99998 16.5423 2.99999 15.936 3 15.2079V8.79217C2.99999 8.06406 2.99998 7.45766 3.04099 6.95783C3.08397 6.43393 3.17625 5.9524 3.40145 5.4884C3.74814 4.77408 4.33432 4.14875 5.02477 3.75667C5.46965 3.50403 5.93443 3.38039 6.4445 3.30381C6.92804 3.23122 7.51351 3.19335 8.21198 3.14818L8.25254 3.14556ZM8.61674 7.21288C8.182 6.87226 7.55345 6.94856 7.21283 7.38331C6.87225 7.81801 6.94862 8.44658 7.38327 8.78722L7.38857 8.79138L7.40716 8.80606C7.4237 8.81916 7.44819 8.83861 7.47891 8.86322C7.54048 8.91256 7.62639 8.98206 7.72312 9.06221C7.92254 9.22748 8.14562 9.41966 8.29918 9.57052C8.41706 9.68634 8.55819 9.84086 8.6973 10C8.55819 10.1591 8.41706 10.3137 8.29918 10.4295C8.14562 10.5803 7.92254 10.7725 7.72312 10.9378C7.62639 11.0179 7.54048 11.0874 7.47891 11.1368C7.44819 11.1614 7.4237 11.1808 7.40716 11.1939L7.38857 11.2086L7.38327 11.2128C6.94862 11.5534 6.87225 12.182 7.21283 12.6167C7.55345 13.0514 8.182 13.1277 8.61674 12.7871L8.62576 12.78L8.64841 12.7621C8.66776 12.7468 8.69537 12.7249 8.72948 12.6976C8.79757 12.643 8.89225 12.5664 8.99925 12.4777C9.20728 12.3054 9.48421 12.069 9.70082 11.8561C9.94538 11.6159 10.2203 11.3002 10.4214 11.0619C10.5248 10.9393 10.6144 10.8303 10.6783 10.7519C10.7103 10.7126 10.7359 10.6807 10.7538 10.6584L10.7673 10.6417C10.9206 10.4587 10.9998 10.2302 11 10C11 9.86287 10.9721 9.72513 10.915 9.59601C10.8777 9.51141 10.8284 9.43126 10.7673 9.35833L10.7538 9.34157C10.7359 9.31928 10.7103 9.28745 10.6783 9.24815C10.6144 9.16969 10.5248 9.06073 10.4214 8.93809C10.2203 8.69977 9.94538 8.38411 9.70082 8.14385C9.48421 7.93103 9.20728 7.69464 8.99925 7.52225C8.89225 7.43358 8.79757 7.35699 8.72948 7.30243C8.69537 7.2751 8.66776 7.25316 8.64841 7.23785L8.62576 7.21997L8.61674 7.21288ZM13 11C12.4477 11 12 11.4477 12 12C12 12.5523 12.4477 13 13 13H15C15.5523 13 16 12.5523 16 12C16 11.4477 15.5523 11 15 11H13Z" fill="black"/>
</svg>
