<svg width="24" height="24" viewBox="0 0 24 24" fill="none" xmlns="http://www.w3.org/2000/svg">
<path fill-rule="evenodd" clip-rule="evenodd" d="M17.9461 3.50048C15.9776 3.16661 13.9902 2.9993 12 3C9.98096 3.00002 7.99485 3.17074 6.05364 3.50053C4.14364 3.82519 3 5.68578 3 7.54702V13.2539C3 15.1144 4.14367 16.9748 6.05345 17.2994C6.67269 17.4048 7.29599 17.4936 7.92308 17.5661V20C7.92308 20.3892 8.1489 20.7431 8.50191 20.907C8.85492 21.0709 9.27097 21.0151 9.56831 20.764L13.0013 17.8645C13.0313 17.8392 13.0598 17.8122 13.0866 17.7835C14.7133 17.7343 16.3358 17.5727 17.9454 17.2995C19.856 16.9749 21 15.1155 21 13.253V7.54702C21 5.68464 19.8559 3.82511 17.9461 3.50048Z" fill="black"/>
</svg>
