<svg width="24" height="24" viewBox="0 0 24 24" fill="none" xmlns="http://www.w3.org/2000/svg">
<path fill-rule="evenodd" clip-rule="evenodd" d="M12 3C13.9902 2.9993 15.9776 3.16661 17.9461 3.50048C19.8559 3.82511 21 5.68464 21 7.54702V13.253C21 15.1155 19.856 16.9749 17.9454 17.2995C16.3358 17.5727 14.7133 17.7343 13.0866 17.7835C13.0598 17.8122 13.0313 17.8392 13.0013 17.8645L9.56831 20.764C9.27097 21.0151 8.85492 21.0709 8.50191 20.907C8.1489 20.7431 7.92308 20.3892 7.92308 20V17.5661C7.29599 17.4936 6.67269 17.4048 6.05345 17.2994C4.14367 16.9748 3 15.1144 3 13.2539V7.54702C3 5.68578 4.14364 3.82519 6.05364 3.50053C7.99485 3.17074 9.98096 3.00002 12 3ZM7 9C7 8.44772 7.44772 8 8 8H12.5C13.0523 8 13.5 8.44772 13.5 9C13.5 9.55228 13.0523 10 12.5 10H8C7.44772 10 7 9.55228 7 9ZM7 12C7 11.4477 7.44772 11 8 11H15C15.5523 11 16 11.4477 16 12C16 12.5523 15.5523 13 15 13H8C7.44772 13 7 12.5523 7 12Z" fill="black"/>
</svg>
