<svg width="24" height="24" viewBox="0 0 24 24" fill="none" xmlns="http://www.w3.org/2000/svg">
<path d="M18.6932 20.8179C18.1693 20.9129 17.5484 21 17 21C16.4516 21 15.8307 20.9129 15.3068 20.8179C13.8961 20.562 13 19.3078 13 17.9771L13 16.0229C13 14.6922 13.8961 13.438 15.3068 13.1821C15.8307 13.0871 16.4516 13 17 13C17.5484 13 18.1693 13.0871 18.6932 13.1821C20.1039 13.438 21 14.6922 21 16.0229L21 17.9771C21 19.3078 20.1039 20.562 18.6932 20.8179Z" fill="black"/>
<path d="M8.69324 10.8179C8.16933 10.9129 7.54837 11 7 11C6.45163 11 5.83067 10.9129 5.30676 10.8179C3.89607 10.562 3 9.30785 3 7.97707L3 6.02293C3 4.69215 3.89607 3.43798 5.30676 3.1821C5.83067 3.08707 6.45163 3 7 3C7.54837 3 8.16933 3.08707 8.69323 3.1821C10.1039 3.43798 11 4.69215 11 6.02293L11 7.97707C11 9.30785 10.1039 10.562 8.69324 10.8179Z" fill="black"/>
<path d="M16 10C16 10.5523 16.4477 11 17 11C17.5523 11 18 10.5523 18 10L18 8C18 6.89543 17.1046 6 16 6L14 6C13.4477 6 13 6.44772 13 7C13 7.55228 13.4477 8 14 8L16 8L16 10Z" fill="black"/>
</svg>
