<svg width="24" height="24" viewBox="0 0 24 24" fill="none" xmlns="http://www.w3.org/2000/svg">
<path d="M8.69324 10.8179C8.16933 10.9129 7.54837 11 7 11C6.45163 11 5.83067 10.9129 5.30676 10.8179C3.89607 10.562 3 9.30785 3 7.97707V6.02293C3 4.69215 3.89607 3.43798 5.30676 3.1821C5.83067 3.08707 6.45163 3 7 3C7.54837 3 8.16933 3.08707 8.69324 3.1821C10.1039 3.43798 11 4.69215 11 6.02293V7.97707C11 9.30785 10.1039 10.562 8.69324 10.8179Z" fill="black"/>
<path d="M18.6932 20.8179C18.1693 20.9129 17.5484 21 17 21C16.4516 21 15.8307 20.9129 15.3068 20.8179C13.8961 20.562 13 19.3078 13 17.9771V16.0229C13 14.6922 13.8961 13.438 15.3068 13.1821C15.8307 13.0871 16.4516 13 17 13C17.5484 13 18.1693 13.0871 18.6932 13.1821C20.1039 13.438 21 14.6922 21 16.0229V17.9771C21 19.3078 20.1039 20.562 18.6932 20.8179Z" fill="black"/>
<path d="M17 11C16.4477 11 16 10.5523 16 10V8H14C13.4477 8 13 7.55228 13 7C13 6.44771 13.4477 6 14 6L16 6C17.1046 6 18 6.89543 18 8V10C18 10.5523 17.5523 11 17 11Z" fill="black"/>
<path d="M7 13C7.55229 13 8 13.4477 8 14V16H10C10.5523 16 11 16.4477 11 17C11 17.5523 10.5523 18 10 18H8C6.89543 18 6 17.1046 6 16V14C6 13.4477 6.44772 13 7 13Z" fill="black"/>
</svg>
