<svg width="24" height="24" viewBox="0 0 24 24" fill="none" xmlns="http://www.w3.org/2000/svg">
<path fill-rule="evenodd" clip-rule="evenodd" d="M15.1016 3.77426C16.1942 3.73544 17.325 3.88029 18.5353 4.65545C19.5513 5.30613 20.2993 5.96483 20.8691 7.04375C21.2079 7.68537 21.3821 8.3897 21.4981 9.22262C21.6117 10.0374 21.6782 11.0495 21.762 12.3256L21.9909 15.8091C22.134 17.9867 20.5364 20.0001 18.3161 20.0001C17.1901 20.0001 16.1484 19.4557 15.4608 18.5587C15.4642 18.5631 15.3401 18.4046 15.1883 18.2106L14.9903 17.9578C14.8379 17.7632 14.7249 17.6188 14.7357 17.6317C14.6918 17.5791 14.6527 17.5334 14.6204 17.4973C14.595 17.4688 14.5811 17.4545 14.5769 17.4502C14.3334 17.2248 14.0473 17.082 13.7515 17.0266C13.5321 16.9855 13.311 16.9747 13.0296 16.9781C12.9469 16.979 12.8295 16.9824 12.6966 16.9863C12.478 16.9926 12.2173 17.0001 12 17.0001C11.7827 17.0001 11.5221 16.9926 11.3035 16.9863C11.1706 16.9824 11.0531 16.979 10.9704 16.9781C10.689 16.9747 10.4679 16.9855 10.2485 17.0266C9.953 17.082 9.66722 17.2242 9.42384 17.4493C9.42189 17.4514 9.40819 17.4653 9.37956 17.4973C9.34733 17.5334 9.30818 17.5791 9.26432 17.6317C9.2751 17.6188 9.16267 17.7624 9.01093 17.9562L8.80617 18.2178C8.65689 18.4085 8.53588 18.5631 8.53925 18.5587C7.85164 19.4557 6.80989 20.0001 5.68389 20.0001C3.46363 20.0001 1.86603 17.9867 2.00911 15.8091L2.23799 12.3256C2.32182 11.0495 2.38831 10.0374 2.50186 9.22262C2.61793 8.3897 2.79211 7.68537 3.13094 7.04375C3.70069 5.96483 4.44869 5.30613 5.46467 4.65545C6.67502 3.88029 7.80581 3.73544 8.89838 3.77426C9.33985 3.78995 9.79174 3.83671 10.2212 3.88114C10.2985 3.88914 10.3751 3.89706 10.4508 3.90472C10.9617 3.95641 11.4652 4.00012 12 4.00012C12.5348 4.00012 13.0383 3.95641 13.5492 3.90472C13.6249 3.89707 13.7014 3.88915 13.7787 3.88115C14.2082 3.83672 14.6602 3.78995 15.1016 3.77426ZM8.32064 8.00012C8.87292 8.00012 9.32064 8.44784 9.32064 9.00012V10.0001H10.1603C10.7126 10.0001 11.1603 10.4478 11.1603 11.0001C11.1603 11.5524 10.7126 12.0001 10.1603 12.0001H9.32064V13.0001C9.32064 13.5524 8.87292 14.0001 8.32064 14.0001C7.76835 14.0001 7.32064 13.5524 7.32064 13.0001V12.0001H6.48096C5.92867 12.0001 5.48096 11.5524 5.48096 11.0001C5.48096 10.4478 5.92867 10.0001 6.48096 10.0001H7.32064V9.00012C7.32064 8.44784 7.76835 8.00012 8.32064 8.00012ZM16.519 10.0001C16.519 9.44784 16.9668 9.00012 17.519 9.00012H17.5282C18.0805 9.00012 18.5282 9.44784 18.5282 10.0001C18.5282 10.5524 18.0805 11.0001 17.5282 11.0001H17.519C16.9668 11.0001 16.519 10.5524 16.519 10.0001ZM13.7595 12.0001C13.7595 11.4478 14.2072 11.0001 14.7595 11.0001H14.7687C15.321 11.0001 15.7687 11.4478 15.7687 12.0001C15.7687 12.5524 15.321 13.0001 14.7687 13.0001H14.7595C14.2072 13.0001 13.7595 12.5524 13.7595 12.0001Z" fill="black"/>
</svg>
