<svg width="24" height="24" viewBox="0 0 24 24" fill="none" xmlns="http://www.w3.org/2000/svg">
<path fill-rule="evenodd" clip-rule="evenodd" d="M10.7532 3.15717C11.8108 3.07284 13.0075 3 14 3C14.9925 3 16.1892 3.07284 17.2468 3.15717L17.2839 3.16012C17.7339 3.19598 18.1311 3.22763 18.463 3.28233C18.8211 3.34136 19.1695 3.43638 19.5087 3.63368C20.0193 3.93077 20.4492 4.39632 20.7048 4.92895C20.8762 5.28626 20.9422 5.64824 20.9721 6.01496C21 6.35772 21 6.76828 21 7.23764V12.7623C21 13.2317 21 13.6423 20.9721 13.985C20.9422 14.3518 20.8762 14.7137 20.7048 15.0711C20.4492 15.6037 20.0193 16.0692 19.5087 16.3663C19.1695 16.5636 18.8211 16.6586 18.463 16.7177C18.1311 16.7724 17.7339 16.804 17.2839 16.8399L17.2468 16.8428C17.1653 16.8493 17.083 16.8558 17 16.8621C16.9999 17.2901 16.998 17.6668 16.9721 17.985C16.9422 18.3518 16.8762 18.7137 16.7048 19.0711C16.4492 19.6037 16.0193 20.0692 15.5087 20.3663C15.1695 20.5636 14.8211 20.6586 14.463 20.7177C14.1312 20.7724 13.734 20.804 13.284 20.8399L13.2468 20.8428C12.1892 20.9272 10.9925 21 10 21C9.00746 21 7.81084 20.9272 6.75318 20.8428L6.71615 20.8399C6.26615 20.804 5.86885 20.7724 5.537 20.7177C5.17891 20.6586 4.83047 20.5636 4.49135 20.3663C3.98071 20.0692 3.55081 19.6037 3.29524 19.0711C3.12379 18.7137 3.05781 18.3518 3.02791 17.985C2.99997 17.6423 2.99998 17.2317 3 16.7623V11.2377C2.99998 10.7684 2.99997 10.3577 3.02791 10.015C3.05781 9.64824 3.12379 9.28626 3.29524 8.92895C3.55081 8.39632 3.98071 7.93077 4.49135 7.63368C4.83047 7.43638 5.17891 7.34136 5.537 7.28233C5.86886 7.22763 6.26606 7.19598 6.71607 7.16012L6.75318 7.15717C6.83469 7.15067 6.91701 7.14424 7.00001 7.13791C7.00012 6.70994 7.00197 6.33322 7.02791 6.01496C7.05781 5.64824 7.12379 5.28626 7.29524 4.92895C7.55081 4.39632 7.98071 3.93077 8.49135 3.63368C8.83047 3.43638 9.17891 3.34136 9.537 3.28233C9.86886 3.22763 10.2661 3.19598 10.7161 3.16012L10.7532 3.15717ZM7 9.14389C6.97065 9.14619 6.94136 9.14851 6.91214 9.15084C6.41401 9.19056 6.10136 9.2163 5.86227 9.25571C5.64032 9.29229 5.55127 9.33088 5.49712 9.36238C5.33277 9.458 5.18067 9.62272 5.09842 9.79414C5.07304 9.84704 5.04061 9.94066 5.0213 10.1775C5.00077 10.4293 5 10.7576 5 11.2747V16.7253C5 17.2424 5.00077 17.5707 5.0213 17.8225C5.04061 18.0593 5.07304 18.153 5.09842 18.2059C5.18067 18.3773 5.33277 18.542 5.49712 18.6376C5.55127 18.6691 5.64032 18.7077 5.86227 18.7443C6.10136 18.7837 6.41401 18.8094 6.91214 18.8492C7.95347 18.9322 9.08761 19 10 19C10.9124 19 12.0465 18.9322 13.0879 18.8492C13.586 18.8094 13.8987 18.7837 14.1377 18.7443C14.3597 18.7077 14.4487 18.6691 14.5029 18.6376C14.6672 18.542 14.8193 18.3773 14.9016 18.2059C14.927 18.153 14.9594 18.0593 14.9787 17.8225C14.9956 17.6148 14.9991 17.3549 14.9998 16.9798C14.6532 16.9926 14.3163 17 14 17C13.0075 17 11.8108 16.9272 10.7532 16.8428L10.7161 16.8399C10.2661 16.804 9.86887 16.7724 9.537 16.7177C9.17891 16.6586 8.83047 16.5636 8.49135 16.3663C7.98071 16.0692 7.55081 15.6037 7.29524 15.0711C7.12379 14.7137 7.05781 14.3518 7.02791 13.985C6.99997 13.6423 6.99998 13.2317 7 12.7623V9.14389Z" fill="black"/>
</svg>
