<svg width="24" height="24" viewBox="0 0 24 24" fill="none" xmlns="http://www.w3.org/2000/svg">
<path d="M6.72593 3.757C8.12237 3.27822 9.98703 3 12 3C14.013 3 15.8776 3.27822 17.2741 3.757C17.9674 3.99472 18.6002 4.30036 19.0796 4.68898C19.5507 5.07087 20 5.64299 20 6.4V7C20 6.44772 19.5523 6 19 6C18.4815 6 18.0551 6.39466 18.0049 6.89999C17.9762 6.93381 17.9073 7.00253 17.7577 7.10227C17.4392 7.31475 16.936 7.53912 16.2852 7.74264C14.9922 8.14701 13.3428 8.4 12 8.4C10.6572 8.4 9.00778 8.14701 7.71477 7.74264C7.06399 7.53912 6.56082 7.31475 6.24226 7.10227C6.09273 7.00253 6.02382 6.93381 5.99506 6.89999C5.94488 6.39466 5.51853 6 5 6C4.44772 6 4 6.44772 4 7V6.4C4 5.64299 4.44927 5.07087 4.92039 4.68898C5.39981 4.30036 6.03259 3.99472 6.72593 3.757Z" fill="black"/>
<path d="M4 11V7C4 7.86596 4.64745 8.4426 5.13246 8.76611C5.67486 9.12789 6.37984 9.42068 7.11782 9.65147C8.60234 10.1157 10.4529 10.4 12 10.4C13.5471 10.4 15.3977 10.1157 16.8822 9.65147C17.6202 9.42068 18.3251 9.12789 18.8675 8.76611C19.3526 8.4426 20 7.86596 20 7V11C20 10.4477 19.5523 10 19 10C18.4815 10 18.0551 10.3947 18.0049 10.9C17.9762 10.9338 17.9073 11.0025 17.7577 11.1023C17.4392 11.3148 16.936 11.5391 16.2852 11.7426C14.9922 12.147 13.3428 12.4 12 12.4C10.6572 12.4 9.00778 12.147 7.71477 11.7426C7.06399 11.5391 6.56082 11.3148 6.24226 11.1023C6.09273 11.0025 6.02382 10.9338 5.99506 10.9C5.94488 10.3947 5.51853 10 5 10C4.44772 10 4 10.4477 4 11Z" fill="black"/>
<path d="M4 15V11C4 11.866 4.64745 12.4426 5.13246 12.7661C5.67486 13.1279 6.37984 13.4207 7.11782 13.6515C8.60234 14.1157 10.4529 14.4 12 14.4C13.5471 14.4 15.3977 14.1157 16.8822 13.6515C17.6202 13.4207 18.3251 13.1279 18.8675 12.7661C19.3526 12.4426 20 11.866 20 11V15C20 14.4477 19.5523 14 19 14C18.4582 14 18.017 14.4309 18.0005 14.9687C17.9866 14.9942 17.9427 15.0581 17.8202 15.1574C17.5912 15.343 17.1988 15.5545 16.6254 15.7511C15.4884 16.141 13.853 16.4 12 16.4C10.147 16.4 8.51163 16.141 7.37458 15.7511C6.80117 15.5545 6.40882 15.343 6.1798 15.1574C6.05732 15.0581 6.01337 14.9942 5.99952 14.9687C5.98298 14.4309 5.54181 14 5 14C4.44772 14 4 14.4477 4 15Z" fill="black"/>
<path d="M4 15C4 15.757 4.44927 16.3291 4.92039 16.711C5.39981 17.0996 6.03259 17.4053 6.72593 17.643C8.12237 18.1218 9.98703 18.4 12 18.4C14.013 18.4 15.8776 18.1218 17.2741 17.643C17.9674 17.4053 18.6002 17.0996 19.0796 16.711C19.5507 16.3291 20 15.757 20 15V17.6C20 18.3543 19.5559 18.9265 19.0849 19.3104C18.6068 19.7001 17.9755 20.006 17.2831 20.2438C15.8887 20.7226 14.0236 21 12 21C9.97641 21 8.11133 20.7226 6.7169 20.2438C6.02449 20.006 5.39317 19.7001 4.91509 19.3104C4.44413 18.9265 4 18.3543 4 17.6V15Z" fill="black"/>
<path d="M18.0061 14.956C18.0063 14.956 18.0058 14.9577 18.0042 14.9612L18.0054 14.9576C18.0057 14.9565 18.006 14.956 18.0061 14.956Z" fill="black"/>
</svg>
