<svg width="24" height="24" viewBox="0 0 24 24" fill="none" xmlns="http://www.w3.org/2000/svg">
<path fill-rule="evenodd" clip-rule="evenodd" d="M14 16L14.008 16H14.1706C14.0601 16.3127 14 16.6493 14 17C14 18.6573 15.3427 20 17 20C18.6573 20 20 18.6573 20 17C20 16.6493 19.9399 16.3127 19.8294 16H21C21.5523 16 22 15.5523 22 15V11C22 10.7689 21.92 10.545 21.7736 10.3662L21.7667 10.3579L21.7492 10.3367C21.7341 10.3184 21.7122 10.2921 21.6843 10.2586C21.6283 10.1916 21.5478 10.096 21.4479 9.97939C21.2484 9.74656 20.9699 9.42792 20.6545 9.08561C20.0535 8.43349 19.2198 7.58539 18.532 7.15323C17.6188 6.57946 16.3779 6.45699 15.5245 6.43619C15.319 6.43118 15.1233 6.432 14.9435 6.43625C14.6833 5.15874 13.5563 4.20261 12.2107 4.18215L12.1455 4.17702C12.0804 4.17195 11.9861 4.16474 11.8687 4.1561C11.634 4.13884 11.306 4.11583 10.9325 4.0928C10.1912 4.04711 9.24913 4 8.5 4C7.75087 4 6.80878 4.04711 6.06752 4.0928C5.69399 4.11583 5.36602 4.13884 5.13128 4.1561C5.01385 4.16474 4.9196 4.17195 4.85446 4.17702L4.78928 4.18215C3.25198 4.20553 2 5.45014 2 7V14.0909C2 14.905 2.50915 15.593 3.22011 15.8697C3.07819 16.2185 3 16.6001 3 17C3 18.6573 4.34272 20 6 20C7.65728 20 9 18.6573 9 17C9 16.6493 8.93989 16.3128 8.8294 16H14ZM6 16C5.44728 16 5 16.4473 5 17C5 17.5527 5.44728 18 6 18C6.55272 18 7 17.5527 7 17C7 16.4473 6.55272 16 6 16ZM20 14H15V8.43547C15.1483 8.4321 15.3086 8.43152 15.4758 8.4356C16.2891 8.45542 17.0482 8.58294 17.468 8.8467C17.8978 9.11677 18.5641 9.76866 19.1838 10.441C19.4786 10.7609 19.7406 11.0606 19.929 11.2805L20 11.3637V14ZM17 16C16.4473 16 16 16.4473 16 17C16 17.5527 16.4473 18 17 18C17.5527 18 18 17.5527 18 17C18 16.4473 17.5527 16 17 16Z" fill="black"/>
</svg>
