<svg width="24" height="24" viewBox="0 0 24 24" fill="none" xmlns="http://www.w3.org/2000/svg">
<path fill-rule="evenodd" clip-rule="evenodd" d="M15.7475 20.8544C14.4891 20.9359 13.1392 21 12 21C10.8608 21 9.51092 20.9359 8.25253 20.8544L8.21199 20.8518C7.51351 20.8066 6.92804 20.7688 6.4445 20.6962C5.93443 20.6196 5.46965 20.496 5.02477 20.2433C4.33432 19.8512 3.74814 19.2259 3.40145 18.5116C3.17625 18.0476 3.08397 17.5661 3.04098 17.0422C2.99997 16.5423 2.99998 15.936 3 15.2078L3 8.79219C2.99998 8.06407 2.99997 7.45767 3.04098 6.95783C3.08397 6.43393 3.17625 5.9524 3.40145 5.4884C3.74814 4.77408 4.33432 4.14876 5.02477 3.75667C5.46965 3.50403 5.93443 3.38039 6.4445 3.30381C6.92801 3.23122 7.51346 3.19335 8.21189 3.14819L8.25253 3.14556C9.51092 3.06415 10.8608 3 12 3C13.1392 3 14.4891 3.06414 15.7475 3.14556L15.788 3.14818C16.4865 3.19335 17.072 3.23122 17.5555 3.30381C18.0656 3.38039 18.5303 3.50403 18.9752 3.75667C19.6657 4.14875 20.2519 4.77408 20.5985 5.4884C20.8237 5.9524 20.916 6.43393 20.959 6.95783C21 7.45766 21 8.06402 21 8.79214L21 15.2078C21 15.9359 21 16.5423 20.959 17.0422C20.916 17.5661 20.8237 18.0476 20.5985 18.5116C20.2519 19.2259 19.6657 19.8512 18.9752 20.2433C18.5303 20.496 18.0656 20.6196 17.5555 20.6962C17.072 20.7688 16.4865 20.8066 15.788 20.8518L15.7475 20.8544ZM16 17C16.5523 17 17 16.5523 17 16C17 15.4477 16.5523 15 16 15L8 15C7.44771 15 7 15.4477 7 16C7 16.5523 7.44771 17 8 17L16 17Z" fill="black"/>
</svg>
