<svg width="24" height="24" viewBox="0 0 24 24" fill="none" xmlns="http://www.w3.org/2000/svg">
<path fill-rule="evenodd" clip-rule="evenodd" d="M3.14556 15.7475C3.06414 14.4891 3 13.1392 3 12C3 10.8608 3.06414 9.51092 3.14556 8.25253L3.14818 8.21199C3.19335 7.51351 3.23122 6.92804 3.30381 6.4445C3.38039 5.93443 3.50403 5.46965 3.75667 5.02477C4.14875 4.33432 4.77408 3.74814 5.4884 3.40145C5.9524 3.17625 6.43393 3.08397 6.95783 3.04098C7.45766 2.99997 8.06403 2.99998 8.79215 3L15.2078 3C15.9359 2.99998 16.5423 2.99997 17.0422 3.04098C17.5661 3.08397 18.0476 3.17625 18.5116 3.40145C19.2259 3.74814 19.8512 4.33432 20.2433 5.02477C20.496 5.46965 20.6196 5.93443 20.6962 6.4445C20.7688 6.92801 20.8066 7.51346 20.8518 8.21189L20.8544 8.25253C20.9359 9.51092 21 10.8608 21 12C21 13.1392 20.9359 14.4891 20.8544 15.7475L20.8518 15.7881C20.8067 16.4865 20.7688 17.072 20.6962 17.5555C20.6196 18.0656 20.496 18.5303 20.2433 18.9752C19.8512 19.6657 19.2259 20.2519 18.5116 20.5985C18.0476 20.8237 17.5661 20.916 17.0422 20.959C16.5423 21 15.936 21 15.2079 21L8.79217 21C8.06406 21 7.45766 21 6.95783 20.959C6.43393 20.916 5.9524 20.8237 5.4884 20.5985C4.77408 20.2519 4.14875 19.6657 3.75667 18.9752C3.50403 18.5303 3.38039 18.0656 3.30381 17.5555C3.23122 17.072 3.19335 16.4865 3.14818 15.788L3.14556 15.7475ZM7 16C7 16.5523 7.44772 17 8 17C8.55228 17 9 16.5523 9 16L9 8C9 7.44771 8.55228 7 8 7C7.44771 7 7 7.44771 7 8L7 16Z" fill="black"/>
</svg>
