<svg width="24" height="24" viewBox="0 0 24 24" fill="none" xmlns="http://www.w3.org/2000/svg">
<path d="M11.9913 2H12C12.6202 2 13.8861 2.19632 15.0553 2.47542C15.6535 2.61821 16.2653 2.79171 16.793 2.98975C17.2771 3.17145 17.8408 3.42663 18.2071 3.79289C18.6777 4.26352 19.1143 4.84484 19.4379 5.4633C19.7566 6.07237 20 6.78349 20 7.5V7.9778C19.9905 7.53751 19.6887 7.14053 19.2407 7.02943L19.0049 6.97067C18.2684 6.78675 17.7997 6.66971 16.9532 6.58799C16.4 6.53457 15.7264 6.54539 15.2132 6.56616C15.1988 6.56674 15.1817 6.56245 15.1647 6.54913C15.1477 6.5358 15.1393 6.52008 15.1364 6.50564C15.0535 6.09993 14.9406 5.60314 14.8092 5.19417C14.6584 4.72473 14.4892 4.35688 14.3353 4.03544L14.2718 3.90304C14.1438 3.63706 14.0365 3.41412 13.9354 3.14657C13.7402 2.62994 13.1632 2.36937 12.6465 2.56457C12.1299 2.75978 11.8693 3.33684 12.0645 3.85348C12.1989 4.20899 12.3465 4.51531 12.4738 4.77921L12.5313 4.89877C12.6729 5.19476 12.796 5.46629 12.9051 5.80588C13.0021 6.10806 13.0977 6.51856 13.1768 6.90572C13.3797 7.89977 14.2794 8.60558 15.2941 8.56452C15.7895 8.54448 16.3502 8.53907 16.761 8.57873C17.456 8.64583 17.7952 8.7304 18.5288 8.91326L18.7593 8.97062C19.2953 9.10357 19.8376 8.77679 19.9706 8.24075C19.9888 8.16717 19.9984 8.09346 20 8.02072V18.7243C20 20.2445 18.8591 21.5337 17.3269 21.6805C15.8375 21.8231 13.6619 22 12 22C10.3381 22 8.16255 21.8231 6.6731 21.6805C5.13883 21.5335 4 20.2391 4 18.721V5.29713C4 3.76709 5.15494 2.46945 6.69788 2.3306C8.17714 2.19748 10.3176 2.02925 11.9825 2.00015L11.9913 2Z" fill="black"/>
</svg>
