<svg width="24" height="24" viewBox="0 0 24 24" fill="none" xmlns="http://www.w3.org/2000/svg">
<path fill-rule="evenodd" clip-rule="evenodd" d="M12 2H11.9913L11.9825 2.00015C10.3176 2.02925 8.17714 2.19748 6.69788 2.3306C5.15494 2.46945 4 3.76709 4 5.29713V18.721C4 20.2391 5.13883 21.5335 6.6731 21.6805C8.16255 21.8231 10.3381 22 12 22C13.6619 22 15.8375 21.8231 17.3269 21.6805C18.8591 21.5337 20 20.2445 20 18.7243V8.02072C19.9984 8.09346 19.9888 8.16717 19.9706 8.24075C19.8376 8.77679 19.2953 9.10357 18.7593 8.97062L18.5288 8.91326C17.7952 8.7304 17.456 8.64583 16.761 8.57873C16.3502 8.53907 15.7895 8.54448 15.2941 8.56452C14.2794 8.60558 13.3797 7.89977 13.1768 6.90572C13.0977 6.51856 13.0021 6.10806 12.9051 5.80588C12.796 5.46629 12.6729 5.19476 12.5313 4.89877L12.4738 4.77921C12.3465 4.51531 12.1989 4.20899 12.0645 3.85348C11.8693 3.33684 12.1299 2.75978 12.6465 2.56457C13.1632 2.36937 13.7402 2.62994 13.9354 3.14657C14.0365 3.41412 14.1438 3.63706 14.2718 3.90304L14.3353 4.03544C14.4892 4.35688 14.6584 4.72473 14.8092 5.19417C14.9406 5.60314 15.0535 6.09993 15.1364 6.50564C15.1393 6.52008 15.1477 6.5358 15.1647 6.54913C15.1817 6.56245 15.1988 6.56674 15.2132 6.56616C15.7264 6.54539 16.4 6.53457 16.9532 6.58799C17.7997 6.66971 18.2684 6.78675 19.0049 6.97067L19.2407 7.02943C19.6887 7.14053 19.9905 7.53751 20 7.9778V7.5C20 6.78349 19.7566 6.07237 19.4379 5.4633C19.1143 4.84484 18.6777 4.26352 18.2071 3.79289C17.8408 3.42663 17.2771 3.17145 16.793 2.98975C16.2653 2.79171 15.6535 2.61821 15.0553 2.47542C13.8861 2.19632 12.6202 2 12 2ZM9 8C8.44772 8 8 8.44772 8 9C8 9.55228 8.44772 10 9 10H11C11.5523 10 12 9.55228 12 9C12 8.44772 11.5523 8 11 8H9ZM9 12C8.44772 12 8 12.4477 8 13C8 13.5523 8.44772 14 9 14H15C15.5523 14 16 13.5523 16 13C16 12.4477 15.5523 12 15 12H9ZM8 17C8 16.4477 8.44772 16 9 16H15C15.5523 16 16 16.4477 16 17C16 17.5523 15.5523 18 15 18H9C8.44772 18 8 17.5523 8 17Z" fill="black"/>
</svg>
