<svg width="24" height="24" viewBox="0 0 24 24" fill="none" xmlns="http://www.w3.org/2000/svg">
<path d="M19.4142 10.5858C19.7893 10.9609 20 11.4696 20 12C20 12.5304 19.7893 13.0391 19.4142 13.4142C19.0391 13.7893 18.5304 14 18 14C17.4696 14 16.9609 13.7893 16.5858 13.4142C16.2107 13.0391 16 12.5304 16 12C16 11.4696 16.2107 10.9609 16.5858 10.5858C16.9609 10.2107 17.4696 10 18 10C18.5304 10 19.0391 10.2107 19.4142 10.5858Z" fill="black"/>
<path d="M13.4142 10.5858C13.7893 10.9609 14 11.4696 14 12C14 12.5304 13.7893 13.0391 13.4142 13.4142C13.0391 13.7893 12.5304 14 12 14C11.4696 14 10.9609 13.7893 10.5858 13.4142C10.2107 13.0391 10 12.5304 10 12C10 11.4696 10.2107 10.9609 10.5858 10.5858C10.9609 10.2107 11.4696 10 12 10C12.5304 10 13.0391 10.2107 13.4142 10.5858Z" fill="black"/>
<path d="M8 12C8 11.4696 7.78928 10.9609 7.41421 10.5858C7.03914 10.2107 6.53043 10 6 10C5.46957 10 4.96086 10.2107 4.58579 10.5858C4.21072 10.9609 4 11.4696 4 12C4 12.5304 4.21072 13.0391 4.58579 13.4142C4.96086 13.7893 5.46957 14 6 14C6.53043 14 7.03914 13.7893 7.41421 13.4142C7.78928 13.0391 8 12.5304 8 12Z" fill="black"/>
</svg>
