<svg width="24" height="24" viewBox="0 0 24 24" fill="none" xmlns="http://www.w3.org/2000/svg">
<path d="M12 3C12.5523 3 13 3.41574 13 3.92857V13.5858L15.2929 11.2929C15.299 11.2868 15.3052 11.2808 15.3114 11.2749C15.3715 11.2178 15.4369 11.1695 15.506 11.1302C15.85 10.9346 16.2853 10.9594 16.6062 11.2045C16.6079 11.2058 16.6096 11.2072 16.6114 11.2085C16.6446 11.2343 16.6766 11.2624 16.7071 11.2929C16.7559 11.3417 16.7986 11.3943 16.8352 11.4498C17.0915 11.8379 17.0488 12.3654 16.7071 12.7071L12.7071 16.7071C12.3166 17.0976 11.6834 17.0976 11.2929 16.7071L7.29289 12.7071C7.24408 12.6583 7.20136 12.6057 7.16475 12.5502C6.90847 12.1621 6.95118 11.6346 7.29289 11.2929C7.29594 11.2898 7.29901 11.2868 7.30209 11.2838C7.33141 11.2552 7.36206 11.2288 7.39382 11.2045C7.71469 10.9594 8.14997 10.9346 8.49395 11.1302C8.4987 11.1329 8.50342 11.1357 8.50813 11.1384C8.57914 11.1804 8.64609 11.2319 8.70711 11.2929L11 13.5858V3.92857C11 3.41574 11.4477 3 12 3Z" fill="black"/>
<path d="M5.87868 14.1213C5.15794 13.4006 4.8806 12.4044 5.04663 11.4716C3.84144 11.8628 3 12.9989 3 14.3052V17.6948C3 19.2299 4.16204 20.53 5.71086 20.6623C7.41601 20.808 10.0313 21 12 21C13.9687 21 16.584 20.808 18.2891 20.6623C19.838 20.53 21 19.2299 21 17.6948V14.3052C21 12.9989 20.1586 11.8628 18.9534 11.4716C19.1194 12.4044 18.8421 13.4006 18.1213 14.1213L14.1213 18.1213C12.9497 19.2929 11.0503 19.2929 9.87868 18.1213L5.87868 14.1213Z" fill="black"/>
</svg>
