<svg width="24" height="24" viewBox="0 0 24 24" fill="none" xmlns="http://www.w3.org/2000/svg">
<path fill-rule="evenodd" clip-rule="evenodd" d="M14 3C13.0075 3 11.8108 3.07284 10.7532 3.15717L10.7161 3.16012C10.2661 3.19598 9.86886 3.22763 9.537 3.28233C9.17891 3.34136 8.83047 3.43638 8.49135 3.63368C7.98071 3.93077 7.55081 4.39632 7.29524 4.92895C7.1238 5.28626 7.05781 5.64824 7.02791 6.01496C7.00197 6.33322 7.00012 6.70994 7.00001 7.13791C6.91701 7.14424 6.83469 7.15067 6.75318 7.15717L6.71607 7.16012C6.26606 7.19598 5.86886 7.22763 5.537 7.28233C5.17891 7.34136 4.83047 7.43638 4.49135 7.63368C3.98071 7.93077 3.55081 8.39632 3.29524 8.92895C3.1238 9.28626 3.05781 9.64824 3.02791 10.015C2.99997 10.3577 2.99998 10.7683 3 11.2377V16.7623C2.99998 17.2317 2.99997 17.6423 3.02791 17.985C3.05781 18.3518 3.1238 18.7137 3.29524 19.0711C3.55081 19.6037 3.98071 20.0692 4.49135 20.3663C4.83047 20.5636 5.17891 20.6586 5.537 20.7177C5.86885 20.7724 6.26615 20.804 6.71615 20.8399L6.75318 20.8428C7.81084 20.9272 9.00746 21 10 21C10.9925 21 12.1892 20.9272 13.2468 20.8428L13.284 20.8399C13.734 20.804 14.1312 20.7724 14.463 20.7177C14.8211 20.6586 15.1695 20.5636 15.5087 20.3663C16.0193 20.0692 16.4492 19.6037 16.7048 19.0711C16.8762 18.7137 16.9422 18.3518 16.9721 17.985C16.998 17.6668 16.9999 17.2901 17 16.8621C17.083 16.8558 17.1653 16.8493 17.2468 16.8428L17.2839 16.8399C17.7339 16.804 18.1311 16.7724 18.463 16.7177C18.8211 16.6586 19.1695 16.5636 19.5087 16.3663C20.0193 16.0692 20.4492 15.6037 20.7048 15.0711C20.8762 14.7137 20.9422 14.3518 20.9721 13.985C21 13.6423 21 13.2317 21 12.7623V7.23764C21 6.76828 21 6.35772 20.9721 6.01496C20.9422 5.64824 20.8762 5.28626 20.7048 4.92895C20.4492 4.39632 20.0193 3.93077 19.5087 3.63368C19.1695 3.43638 18.8211 3.34136 18.463 3.28233C18.1311 3.22763 17.7339 3.19598 17.2839 3.16012L17.2468 3.15717C16.1892 3.07284 14.9925 3 14 3ZM6.91214 9.15084L7 9.14389V12.7623C6.99998 13.2317 6.99997 13.6423 7.02791 13.985C7.05781 14.3518 7.1238 14.7137 7.29524 15.0711C7.55081 15.6037 7.98071 16.0692 8.49135 16.3663C8.83047 16.5636 9.17891 16.6586 9.537 16.7177C9.86887 16.7724 10.2661 16.804 10.7161 16.8399L10.7532 16.8428C11.8108 16.9272 13.0075 17 14 17C14.3163 17 14.6532 16.9926 14.9998 16.9798C14.9991 17.3549 14.9956 17.6148 14.9787 17.8225C14.9594 18.0593 14.927 18.153 14.9016 18.2059C14.8193 18.3773 14.6672 18.542 14.5029 18.6376C14.4487 18.6691 14.3597 18.7077 14.1377 18.7443C13.8987 18.7837 13.586 18.8094 13.0879 18.8492C12.0465 18.9322 10.9124 19 10 19C9.08761 19 7.95348 18.9322 6.91214 18.8492C6.41401 18.8094 6.10136 18.7837 5.86227 18.7443C5.64032 18.7077 5.55127 18.6691 5.49712 18.6376C5.33277 18.542 5.18067 18.3773 5.09842 18.2059C5.07304 18.153 5.04061 18.0593 5.0213 17.8225C5.00077 17.5707 5 17.2424 5 16.7253V11.2747C5 10.7576 5.00077 10.4293 5.0213 10.1775C5.04061 9.94066 5.07304 9.84704 5.09842 9.79414C5.18067 9.62272 5.33277 9.458 5.49712 9.36238C5.55127 9.33088 5.64032 9.29229 5.86227 9.25571C6.10136 9.2163 6.41401 9.19056 6.91214 9.15084ZM14 7C14.5523 7 15 7.33579 15 7.75V9H16.25C16.6642 9 17 9.44772 17 10C17 10.5523 16.6642 11 16.25 11H15V12.25C15 12.6642 14.5523 13 14 13C13.4477 13 13 12.6642 13 12.25V11H11.75C11.3358 11 11 10.5523 11 10C11 9.44772 11.3358 9 11.75 9H13V7.75C13 7.33579 13.4477 7 14 7Z" fill="black"/>
</svg>
