<svg width="24" height="24" viewBox="0 0 24 24" fill="none" xmlns="http://www.w3.org/2000/svg">
<path d="M13.5429 4.54275C15.1761 2.90958 17.8239 2.90958 19.4571 4.54275C21.0903 6.17591 21.0903 8.82379 19.4571 10.457L17.6747 12.2394C17.936 11.9644 18.0286 11.552 17.8778 11.177L17.8774 11.1759L17.8746 11.1689L17.8673 11.1512C17.8612 11.1362 17.8525 11.1152 17.8414 11.0886C17.8192 11.0356 17.7871 10.9604 17.7465 10.8681C17.6654 10.684 17.5489 10.4293 17.4063 10.1454C17.133 9.60078 16.7213 8.86128 16.2428 8.3304C15.6514 7.6743 14.7636 7.1208 14.104 6.75605C13.7599 6.56577 13.4485 6.41111 13.2228 6.30381C13.1096 6.25001 13.0171 6.20772 12.9519 6.17841C12.9192 6.16375 12.8933 6.15231 12.875 6.14428L12.8532 6.1348L12.8468 6.13201L12.8433 6.13055C12.4629 5.96778 12.0375 6.05919 11.7568 6.32887L13.5429 4.54275Z" fill="black"/>
<path d="M11.7285 6.35715L4.59252 13.4931L4.56934 13.5162C4.48205 13.6032 4.3721 13.7128 4.27839 13.8413C4.19697 13.953 4.12733 14.0728 4.07061 14.1988C4.00533 14.3438 3.96455 14.4936 3.93217 14.6125L3.92355 14.6441L3.17937 17.3581L3.0586 17.897C2.97598 18.2654 2.89939 18.6069 2.86295 18.8917C2.82488 19.1892 2.80811 19.5681 2.96397 19.9514C3.16864 20.4546 3.5776 20.8593 4.08304 21.0585C4.46551 21.2093 4.84044 21.1904 5.13703 21.1497C5.41857 21.111 5.75463 21.0318 6.11495 20.947L6.15521 20.9375C6.3236 20.8979 6.48742 20.8585 6.64075 20.8204C7.53382 20.5989 8.76427 20.2513 9.38106 20.0748L9.41087 20.0663C9.52476 20.0339 9.66876 19.993 9.81007 19.928C9.93237 19.8718 10.0502 19.8024 10.1587 19.7227C10.2841 19.6307 10.3906 19.5238 10.475 19.4391L10.4973 19.4168L17.6388 12.2752C17.5499 12.3598 17.4438 12.4292 17.323 12.4778C16.8107 12.6837 16.2284 12.4354 16.0223 11.9232L16.0215 11.9212L16.017 11.9101L15.9969 11.8619C15.9788 11.8187 15.9515 11.7545 15.9161 11.6742C15.8452 11.5132 15.743 11.2899 15.6189 11.0427C15.3591 10.525 15.0457 9.98951 14.7572 9.66947C14.4021 9.27548 13.7649 8.85399 13.1361 8.50626C12.836 8.3403 12.5624 8.20435 12.3641 8.1101C12.2653 8.06313 12.1861 8.02691 12.1326 8.0029C12.1059 7.99091 12.0857 7.98199 12.0727 7.97633L12.0589 7.97031L12.0567 7.96933C11.549 7.75203 11.3134 7.1643 11.5306 6.6566C11.5795 6.5423 11.6472 6.4418 11.7285 6.35715Z" fill="black"/>
</svg>
