<svg width="24" height="24" viewBox="0 0 24 24" fill="none" xmlns="http://www.w3.org/2000/svg">
<path d="M7.3079 4.17433C8.85816 4.07951 10.5787 4 12 4C13.4213 4 15.1418 4.07951 16.6921 4.17433L16.7326 4.1768C17.4455 4.22039 18.0413 4.25682 18.5318 4.32822C19.0478 4.40332 19.5184 4.52559 19.9667 4.77866C20.6625 5.17156 21.247 5.7929 21.5967 6.51145C21.8233 6.97715 21.9158 7.46196 21.9589 7.98933C22 8.49319 22 9.10546 22 9.8417V14.1583C22 14.8945 22 15.5068 21.9589 16.0107C21.9158 16.538 21.8233 17.0229 21.5967 17.4885C21.247 18.2071 20.6625 18.8284 19.9667 19.2213C19.5184 19.4744 19.0478 19.5967 18.5318 19.6718C18.0413 19.7432 17.4455 19.7796 16.7326 19.8232L16.6921 19.8257C15.1418 19.9205 13.4213 20 12 20C10.5787 20 8.85816 19.9205 7.3079 19.8257L7.26741 19.8232C6.55453 19.7796 5.95868 19.7432 5.46816 19.6718C4.95218 19.5967 4.48155 19.4744 4.03334 19.2213C3.33748 18.8284 2.75298 18.2071 2.4033 17.4885C2.17667 17.0229 2.0842 16.538 2.04113 16.0107C1.99998 15.5068 1.99999 14.8945 2 14.1583V9.84175C1.99999 9.1055 1.99998 8.49319 2.04113 7.98933C2.05615 7.80543 2.07717 7.62671 2.1078 7.45217C2.17241 7.57987 2.26558 7.69564 2.38605 7.78934L7.39815 11.6876L2.79289 16.2929C2.40237 16.6834 2.40237 17.3166 2.79289 17.7071C3.18342 18.0976 3.81658 18.0976 4.20711 17.7071L8.98914 12.9251L9.39065 13.2374C9.7289 13.5005 10.0242 13.7302 10.2851 13.904C10.5631 14.0893 10.8571 14.2497 11.2045 14.3407C11.7301 14.4783 12.2831 14.4706 12.8047 14.3184C13.1494 14.2178 13.4388 14.0492 13.7116 13.8562C13.9675 13.6752 14.2563 13.4373 14.5871 13.1649L14.696 13.0752L19.8273 17.7399C20.236 18.1115 20.8684 18.0813 21.2399 17.6727C21.6114 17.264 21.5813 16.6316 21.1727 16.2601L16.2561 11.7904L21.1357 7.77192C21.562 7.42082 21.623 6.7906 21.2719 6.36428C20.9208 5.93795 20.2906 5.87696 19.8643 6.22805L13.3414 11.5998C12.9774 11.8996 12.7453 12.0899 12.5565 12.2235C12.378 12.3498 12.2939 12.384 12.2444 12.3984C12.0706 12.4492 11.8862 12.4517 11.711 12.4059C11.6611 12.3928 11.5761 12.361 11.3941 12.2397C11.2017 12.1114 10.9644 11.9277 10.5922 11.6382L3.61393 6.21063C3.33383 5.99278 2.97433 5.94732 2.66316 6.05828C3.01218 5.53373 3.48865 5.08621 4.03334 4.77866C4.48155 4.52559 4.95218 4.40332 5.46816 4.32822C5.9587 4.25682 6.5545 4.22039 7.26742 4.1768L7.3079 4.17433Z" fill="black"/>
</svg>
