<svg width="24" height="24" viewBox="0 0 24 24" fill="none" xmlns="http://www.w3.org/2000/svg">
<path d="M8 9H12.8999C12.8319 7.80193 12.7404 6.62546 12.6623 5.71086C12.53 4.16204 11.2299 3 9.69484 3H6.30516C4.77014 3 3.47 4.16204 3.3377 5.71086C3.19204 7.41601 3 10.0313 3 12C3 13.9687 3.19204 16.584 3.3377 18.2891C3.47 19.838 4.77014 21 6.30516 21H9.69484C11.2299 21 12.53 19.838 12.6623 18.2891C12.7404 17.3745 12.8319 16.1981 12.8999 15H8C6.34315 15 5 13.6569 5 12C5 10.3431 6.34315 9 8 9Z" fill="black"/>
<path d="M7.92857 13C7.41574 13 7 12.5523 7 12C7 11.9989 7 11.9978 7 11.9968C7.00162 11.446 7.41674 11 7.92857 11H17.5858L15.2929 8.70711C14.9024 8.31658 14.9024 7.68342 15.2929 7.29289C15.6834 6.90237 16.3166 6.90237 16.7071 7.29289L20.7071 11.2929C21.0488 11.6346 21.0915 12.1621 20.8352 12.5502C20.7986 12.6057 20.7559 12.6583 20.7071 12.7071L16.7071 16.7071C16.3166 17.0976 15.6834 17.0976 15.2929 16.7071C14.9024 16.3166 14.9024 15.6834 15.2929 15.2929L17.5858 13H7.92857Z" fill="black"/>
</svg>
