<svg width="24" height="24" viewBox="0 0 24 24" fill="none" xmlns="http://www.w3.org/2000/svg">
<path d="M11 12C11 11.4477 11.4477 11 12 11C12.5523 11 13 11.4477 13 12C13 12.5523 12.5523 13 12 13C11.4477 13 11 12.5523 11 12Z" fill="black"/>
<path fill-rule="evenodd" clip-rule="evenodd" d="M4.6379 7.50949C6.57068 5.44786 9.03723 4 12 4C14.9628 4 17.4293 5.44786 19.3621 7.50949C20.028 8.21981 20.6011 8.97247 21.0839 9.71993C21.3688 10.1611 21.584 10.5386 21.7185 10.8074C22.0938 11.5582 22.0938 12.4418 21.7185 13.1926C21.584 13.4614 21.3688 13.8389 21.0839 14.2801C20.6011 15.0275 20.028 15.7802 19.3621 16.4905C17.4293 18.5521 14.9628 20 12 20C9.03723 20 6.57068 18.5521 4.6379 16.4905C3.97197 15.7802 3.39888 15.0275 2.91615 14.2801C2.63121 13.8389 2.41597 13.4614 2.28153 13.1926C1.90616 12.4418 1.90616 11.5582 2.28153 10.8074C2.41597 10.5386 2.63121 10.1611 2.91615 9.71993C3.39888 8.97247 3.97197 8.21981 4.6379 7.50949ZM12 9C10.3431 9 9 10.3431 9 12C9 13.6569 10.3431 15 12 15C13.6569 15 15 13.6569 15 12C15 10.3431 13.6569 9 12 9Z" fill="black"/>
</svg>
