<svg width="24" height="24" viewBox="0 0 24 24" fill="none" xmlns="http://www.w3.org/2000/svg">
<path fill-rule="evenodd" clip-rule="evenodd" d="M4.70711 3.29289C4.31658 2.90237 3.68342 2.90237 3.29289 3.29289C2.90237 3.68342 2.90237 4.31658 3.29289 4.70711L5.36936 6.78358C5.11764 7.01539 4.87379 7.25787 4.6379 7.50949C3.97197 8.21981 3.39888 8.97247 2.91615 9.71993C2.63121 10.1611 2.41597 10.5386 2.28153 10.8074C1.90616 11.5582 1.90616 12.4418 2.28153 13.1926C2.41597 13.4614 2.63121 13.8389 2.91615 14.2801C3.39888 15.0275 3.97197 15.7802 4.6379 16.4905C6.57068 18.5521 9.03723 20 12 20C13.8849 20 15.569 19.414 17.0425 18.4567L19.2929 20.7071C19.6834 21.0976 20.3166 21.0976 20.7071 20.7071C21.0976 20.3166 21.0976 19.6834 20.7071 19.2929L4.70711 3.29289ZM13.2934 14.7076L9.29237 10.7066C9.10495 11.0982 9 11.5369 9 12C9 13.6569 10.3431 15 12 15C12.4631 15 12.9018 14.895 13.2934 14.7076Z" fill="black"/>
<path d="M13.8155 9.61153C14.0313 9.77581 14.2242 9.96867 14.3885 10.1845L19.9857 15.7817C20.3932 15.2885 20.759 14.7831 21.0839 14.2801C21.3688 13.8389 21.584 13.4614 21.7185 13.1926C22.0938 12.4418 22.0938 11.5582 21.7185 10.8074C21.584 10.5386 21.3688 10.1611 21.0839 9.71993C20.6011 8.97247 20.028 8.21981 19.3621 7.50949C17.4293 5.44786 14.9628 4 12 4C10.8592 4 9.79193 4.21467 8.80039 4.59638L13.8155 9.61153Z" fill="black"/>
</svg>
