<svg width="24" height="24" viewBox="0 0 24 24" fill="none" xmlns="http://www.w3.org/2000/svg">
<path d="M12.202 2.83936C11.0086 2.83936 9.52787 3.01355 8.377 3.17994C7.79482 3.26411 7.28428 3.34821 6.91897 3.41132C6.73617 3.4429 6.58937 3.46928 6.48773 3.48788L6.4094 3.50231C5.16782 3.55819 4.20203 4.59441 4.20203 5.83394C4.20203 6.33415 4.36213 6.82077 4.65596 7.22239C4.66693 7.2374 4.67833 7.2521 4.69013 7.26647L9.20203 12.7623V18.3144C9.20203 20.2615 11.3251 21.5118 13.0132 20.4625L15.0112 19.2197L15.0123 19.2191C15.7573 18.7575 16.202 17.9412 16.202 17.0714V12.7039L19.8504 7.15964C19.8598 7.14529 19.8689 7.13069 19.8776 7.11587C20.0887 6.756 20.202 6.34459 20.202 5.92394V5.83394C20.202 4.59441 19.2362 3.55819 17.9947 3.50231L17.9163 3.48788C17.8147 3.46928 17.6679 3.4429 17.4851 3.41132C17.1198 3.34821 16.6092 3.26411 16.0271 3.17994C14.8762 3.01355 13.3954 2.83936 12.202 2.83936Z" fill="black"/>
</svg>
