<svg width="24" height="24" viewBox="0 0 24 24" fill="none" xmlns="http://www.w3.org/2000/svg">
<path fill-rule="evenodd" clip-rule="evenodd" d="M3.82187 4.864C4.35284 4.31493 5.08028 4 5.84615 4H10.2597C10.5575 4.00007 10.8518 4.06087 11.125 4.17803C11.3979 4.29507 11.6437 4.46559 11.8491 4.67817L13.5886 6.47696C13.6341 6.52402 13.6902 6.54534 13.741 6.54545H18.1538C18.9197 6.54545 19.6472 6.86038 20.1781 7.40946C20.708 7.95739 21 8.69362 21 9.45455V16.5909C21 17.3518 20.708 18.0881 20.1781 18.636C19.6639 19.1677 18.9655 19.4799 18.2263 19.4991L18.115 19.5134C18.0059 19.5274 17.8479 19.5472 17.6511 19.5709C17.2577 19.6184 16.708 19.6816 16.0816 19.7449C14.8384 19.8706 13.2584 20 12 20C10.7416 20 9.16159 19.8706 7.91836 19.7449C7.29202 19.6816 6.74226 19.6184 6.34885 19.5709C6.15205 19.5472 5.99412 19.5274 5.88499 19.5134L5.77373 19.4991C5.03454 19.4799 4.33608 19.1677 3.82187 18.636C3.292 18.0881 3 17.3518 3 16.5909V6.90909C3 6.14817 3.292 5.41194 3.82187 4.864ZM5.25957 11.3453C5.42104 11.1783 5.63275 11.0909 5.84614 11.0909H18.1538C18.3672 11.0909 18.5789 11.1783 18.7404 11.3453C19.1243 11.7423 19.7574 11.7529 20.1544 11.369C20.5514 10.985 20.562 10.352 20.1781 9.95494C19.6471 9.40587 18.9197 9.09094 18.1538 9.09094H5.84614C5.08027 9.09094 4.35283 9.40587 3.82185 9.95494C3.43793 10.352 3.44854 10.985 3.84555 11.369C4.24257 11.7529 4.87564 11.7423 5.25957 11.3453Z" fill="black"/>
</svg>
