<svg width="24" height="24" viewBox="0 0 24 24" fill="none" xmlns="http://www.w3.org/2000/svg">
<path d="M4.76148 4.77675C5.25094 4.28094 5.91755 4 6.61538 4H10.4772C10.7519 4.00006 11.0238 4.05497 11.2768 4.16126C11.5296 4.26746 11.7585 4.4227 11.9506 4.61747L13.4727 6.15929C13.4876 6.17438 13.5066 6.18175 13.5235 6.18182H17.3846C18.0825 6.18182 18.7491 6.46275 19.2385 6.95857C19.7275 7.45395 20 8.12311 20 8.81818V9.25571C19.8243 9.19563 19.6426 9.15133 19.4571 9.12381L19.4542 9.1234C19.3083 9.10219 19.1583 9.09094 19.0056 9.09094H4.99358C4.84081 9.09094 4.69083 9.10219 4.54491 9.1234L4.54206 9.12382C3.77571 9.23745 3.07583 9.6373 2.60078 10.2513C2.26283 10.6882 2.34299 11.3162 2.77981 11.6542C3.21663 11.9921 3.8447 11.912 4.18264 11.4751C4.33208 11.282 4.56372 11.1428 4.83399 11.1024C4.88612 11.0949 4.93948 11.0909 4.99358 11.0909H19.0056C19.0597 11.0909 19.113 11.0949 19.1652 11.1024C19.436 11.1429 19.6683 11.2825 19.8174 11.4751C20.1553 11.912 20.7834 11.9921 21.2202 11.6542C21.6552 11.3176 21.7365 10.6934 21.4034 10.2568C21.8768 10.8717 22.0838 11.6483 21.9689 12.4176L21.9665 12.4331L21.2082 17.0169C21.1014 17.7181 20.7365 18.3501 20.1922 18.8022C19.6647 19.2404 19.0014 19.4835 18.3176 19.4992L18.2038 19.5137C18.093 19.5276 17.9328 19.5474 17.7331 19.5712C17.3338 19.6186 16.7759 19.6819 16.1403 19.7451C14.8784 19.8707 13.2758 20 12 20C10.7242 20 9.12156 19.8707 7.85967 19.7451C7.22407 19.6819 6.66615 19.6186 6.26692 19.5712C6.0672 19.5474 5.90694 19.5276 5.79622 19.5137L5.68235 19.4992C4.99856 19.4835 4.33528 19.2404 3.80781 18.8022C3.2635 18.3501 2.89855 17.7182 2.79177 17.017L2.03349 12.4331L2.03105 12.4176C1.91581 11.646 2.12442 10.8671 2.60078 10.2513C2.96095 9.78579 3.45036 9.44336 4 9.25544V6.63636C4 5.94129 4.27245 5.27213 4.76148 4.77675Z" fill="black"/>
</svg>
