<svg width="24" height="24" viewBox="0 0 24 24" fill="none" xmlns="http://www.w3.org/2000/svg">
<path d="M14.9959 18V22H9.00441V18.63C8.08272 18.9556 7.27737 19.0574 6.55347 18.9704C5.72508 18.8709 5.09743 18.5354 4.60353 18.1748C4.36299 17.9992 4.14992 17.8143 3.97062 17.656L3.88289 17.5784C3.73541 17.4478 3.61758 17.3434 3.49822 17.2494C3.22226 17.0319 3.09451 17 3 17C2.44772 17 2 16.5523 2 16C2 15.4477 2.44772 15 3 15C3.76263 15 4.33024 15.3587 4.73598 15.6784C4.90489 15.8115 5.07296 15.9605 5.21914 16.0901L5.29439 16.1568C5.46763 16.3097 5.62219 16.4422 5.7829 16.5596C6.0915 16.7849 6.40081 16.9377 6.79198 16.9847C7.19228 17.0328 7.77086 16.9807 8.62526 16.6354C8.76687 16.5781 8.9139 16.5556 9.0569 16.5639C9.08312 16.4247 9.11556 16.2866 9.15419 16.15C9.32395 15.55 9.61354 14.99 10.003 14.5C7.00724 14.5 4.0115 12.5 4.0115 9C3.93008 7.75279 4.28298 6.51588 5.01008 5.5C4.7105 4.35 4.7105 3.15 5.01008 2C5.01008 2 6.00866 2 8.00583 3.5C10.6421 3 13.3582 3 15.9945 3.5C17.9916 2 18.9902 2 18.9902 2C19.2698 3.15 19.2698 4.35 18.9902 5.5C19.7192 6.52 20.0687 7.75 19.9888 9C19.9888 12.5 16.9931 14.5 13.9973 14.5C14.7761 15.4901 15.1348 16.7473 14.9959 18Z" fill="black"/>
</svg>
