<svg width="24" height="24" viewBox="0 0 24 24" fill="none" xmlns="http://www.w3.org/2000/svg">
<path d="M12 2C6.47715 2 2 6.47715 2 12C2 17.5228 6.47715 22 12 22C16.3003 22 19.9665 19.2857 21.379 15.4768C21.2511 15.7125 21.0293 15.8964 20.7491 15.9685C20.2142 16.1061 19.6691 15.784 19.5315 15.2491C19.4937 15.102 19.4634 14.9649 19.4392 14.8554L19.4259 14.7953C19.3975 14.6682 19.3788 14.5927 19.3595 14.5329C19.3337 14.4529 19.3152 14.4194 19.2519 14.3603C19.0052 14.1298 18.7504 14.0408 18.5278 14.0409H17.8558C17.5457 14.0409 17.2532 13.8971 17.0638 13.6515L16.7173 13.2021C16.6359 13.0963 16.5565 13.0433 16.501 13.02C16.4491 12.9982 16.4065 12.9962 16.3667 13.0046C16.3242 13.0135 16.2575 13.0407 16.1792 13.1153C16.0999 13.191 16.0166 13.309 15.9534 13.4722L15.9143 13.575C15.7681 13.9546 15.5562 14.308 15.2807 14.6049C15.0046 14.9024 14.6663 15.1411 14.2792 15.2849L14.2774 15.2856L13.2193 15.6765C13.2184 15.6769 13.1521 15.7054 13.0852 15.8429C13.0199 15.9769 12.9822 16.1648 13.0084 16.3687L13.0862 16.9747C13.105 17.1182 13.157 17.206 13.1893 17.2431C14.6671 17.2736 15.7416 18.4805 16.0952 19.8598C16.2323 20.3948 15.9098 20.9396 15.3748 21.0768C14.8399 21.2139 14.295 20.8914 14.1578 20.3564C13.9449 19.5258 13.4342 19.2425 13.132 19.2425C11.9317 19.2425 11.2263 18.1806 11.1029 17.2327L11.0247 16.6236C10.8858 15.541 11.3628 14.2312 12.5249 13.8009L13.5831 13.41C13.6479 13.3858 13.7294 13.3364 13.8146 13.2446C13.9003 13.1522 13.9834 13.0231 14.0472 12.8581L14.0864 12.7549C14.2434 12.3474 14.4818 11.9704 14.7991 11.6679C15.1178 11.364 15.5118 11.1405 15.9556 11.0473C16.4022 10.9535 16.8577 11.0008 17.2747 11.1757C17.6878 11.349 18.0349 11.635 18.3015 11.9813L18.3475 12.0409H18.5271C19.3144 12.0407 20.0445 12.3637 20.6173 12.8989C21.1946 13.4383 21.3311 14.1001 21.4201 14.5318C21.437 14.614 21.4523 14.6879 21.4685 14.7509C21.5057 14.8956 21.5093 15.0411 21.4841 15.179C21.8187 14.1803 22 13.1113 22 12C22 6.59998 17.7198 2.19966 12.3669 2.00661C12.8647 2.0639 13.2513 2.4868 13.2513 3V3.52948C13.2513 3.54431 13.2575 3.55742 13.2688 3.56679L14.2635 4.39668C15.0667 5.06807 15.2356 6.23508 14.6571 7.10653L14.1812 7.82213C13.7996 8.39471 13.2382 8.82393 12.5855 9.04175L12.5842 9.04216L12.4524 9.08648C12.448 9.08793 12.444 9.0904 12.4406 9.0938C12.4371 9.09719 12.4345 9.10142 12.4328 9.10618C12.4312 9.11095 12.4307 9.11608 12.4313 9.12112C12.432 9.12617 12.4338 9.13093 12.4365 9.13503L12.4373 9.13614C13.1125 10.1529 12.7472 11.5326 11.6543 12.0797L10.029 12.8933L10.0833 13.0293C10.2518 13.4545 10.2605 13.9265 10.1078 14.3577C9.95509 14.7889 9.65125 15.1504 9.25232 15.3747C8.85335 15.5991 8.38651 15.6711 7.93844 15.5771C7.4904 15.4831 7.09186 15.2297 6.8166 14.8642L6.81488 14.8619L6.18303 14.0178C6.17807 14.0113 6.17155 14.0061 6.16429 14.0028C6.157 13.9996 6.14907 13.9983 6.14123 13.999C6.13338 13.9997 6.12576 14.0024 6.11909 14.007C6.11241 14.0115 6.10688 14.0178 6.10314 14.0253L5.46446 15.3042C5.334 15.5654 5.09588 15.7566 4.81262 15.8275L4.2428 15.9701C3.70704 16.1042 3.16401 15.7786 3.02992 15.2428C2.89582 14.707 3.22143 14.164 3.75719 14.0299L3.88073 13.999L4.31391 13.1316C4.46987 12.8194 4.70306 12.5521 4.99136 12.3552C5.27966 12.1584 5.61352 12.0385 5.96127 12.0071C6.30901 11.9757 6.65897 12.0338 6.9779 12.1758C7.29683 12.3178 7.57407 12.5391 7.7834 12.8183L7.9171 12.9969L7.83093 12.781C7.6384 12.2984 7.8475 11.7488 8.3121 11.5162L10.759 10.2913C10.7658 10.2879 10.7683 10.2851 10.7698 10.2833C10.7719 10.2807 10.7744 10.2763 10.7759 10.2705C10.7775 10.2646 10.7775 10.2595 10.7769 10.2558C10.7765 10.2532 10.7756 10.2492 10.7712 10.2426L10.7719 10.2437L11.6042 9.68935L10.7712 10.2426C10.5986 9.98301 10.488 9.68725 10.4479 9.37818C10.4078 9.06866 10.4395 8.75405 10.5405 8.45874C10.6416 8.16342 10.8093 7.89529 11.0307 7.67522C11.2521 7.45524 11.5211 7.2892 11.8171 7.19005L11.9495 7.14554L11.9519 7.14474C12.1827 7.06785 12.3815 6.9161 12.5168 6.71321L12.9908 6.00043C13.0062 5.97704 13.0013 5.94839 12.9816 5.93185L11.9881 5.10298C11.5209 4.71338 11.2513 4.13722 11.2513 3.52948V3C11.2513 2.46796 11.6668 2.03297 12.191 2.00179C12.1275 2.0006 12.0638 2 12 2Z" fill="black"/>
</svg>
