<svg width="24" height="24" viewBox="0 0 24 24" fill="none" xmlns="http://www.w3.org/2000/svg">
<path fill-rule="evenodd" clip-rule="evenodd" d="M5.49661 4.08238C5.54208 3.53197 5.13274 3.04892 4.58233 3.00345C4.03192 2.95798 3.54887 3.36732 3.5034 3.91773L4.5006 4.0001C3.50434 3.9178 3.50332 3.91869 3.50332 3.91874L3.48574 4.13538C3.47448 4.2755 3.45831 4.4789 3.4386 4.73267C3.39921 5.24012 3.34566 5.94935 3.28905 6.75683C3.17608 8.36814 3.04992 10.3842 3.0005 11.9689C2.95363 13.4716 2.95144 15.3659 2.96178 16.9329L2.96203 16.9714C2.9653 17.4698 2.96815 17.9041 3.00088 18.265C3.03581 18.6499 3.10984 19.0299 3.29967 19.4C3.58298 19.9524 4.04765 20.4171 4.60007 20.7004C4.97021 20.8902 5.35017 20.9643 5.7351 20.9992C6.09592 21.0319 6.53025 21.0348 7.02857 21.038L7.0672 21.0383C8.63413 21.0486 10.5285 21.0464 12.0312 20.9996C13.6159 20.9501 15.6319 20.824 17.2432 20.711C18.0507 20.6544 18.7599 20.6009 19.2674 20.5615C19.5212 20.5418 19.7246 20.5256 19.8647 20.5143L20.0822 20.4967C20.6327 20.4512 21.0421 19.9681 20.9966 19.4177C20.9511 18.8673 20.4673 18.458 19.9169 18.5035L19.7045 18.5207C19.566 18.5319 19.3644 18.5479 19.1126 18.5675C18.6089 18.6066 17.9048 18.6597 17.1034 18.7159C15.4969 18.8285 13.5129 18.9524 11.9688 19.0005C10.5053 19.0462 8.64184 19.0486 7.08039 19.0383C6.53234 19.0347 6.18287 19.0316 5.91581 19.0074C5.66358 18.9845 5.56613 18.9482 5.51275 18.9208C5.33294 18.8286 5.1715 18.6671 5.07928 18.4873C5.0519 18.4339 5.01559 18.3365 4.9927 18.0843C4.96847 17.8172 4.96535 17.4677 4.96174 16.9197C4.95144 15.3582 4.95388 13.4947 4.99953 12.0312C5.04768 10.4872 5.17152 8.5032 5.28415 6.8967C5.34034 6.09528 5.3935 5.39115 5.4326 4.88748C5.45215 4.63568 5.46818 4.43407 5.47931 4.29557L5.49661 4.08238ZM4.5006 4.0001C5.49627 4.08236 5.49661 4.08236 5.49661 4.08238L4.5006 4.0001ZM20 19.5001C20.0823 20.4967 20.0823 20.4967 20.0822 20.4967L20 19.5001ZM19.9169 18.5035C19.9169 18.5035 19.9177 18.5035 20 19.5001L19.9169 18.5035Z" fill="black"/>
<path d="M16.5714 7C16.0192 7 15.5714 7.44772 15.5714 8C15.5714 8.55228 16.0192 9 16.5714 9H17.8258L14.8572 12.4634L12.1878 9.34921C11.9979 9.12756 11.7205 9 11.4286 9C11.1367 9 10.8593 9.12756 10.6693 9.34921L7.24076 13.3492C6.88134 13.7685 6.9299 14.3998 7.34923 14.7593C7.76855 15.1187 8.39985 15.0701 8.75927 14.6508L11.4286 11.5366L14.0979 14.6508C14.2879 14.8724 14.5652 15 14.8572 15C15.1491 15 15.4264 14.8724 15.6164 14.6508L19 10.7033V12C19 12.5523 19.4477 13 20 13C20.5523 13 21 12.5523 21 12V8C21 7.44772 20.5523 7 20 7H16.5714Z" fill="black"/>
</svg>
