<svg width="24" height="24" viewBox="0 0 24 24" fill="none" xmlns="http://www.w3.org/2000/svg">
<path d="M7 3C6.45163 3 5.83067 3.08707 5.30676 3.1821C3.89607 3.43798 3 4.69215 3 6.02293V7.97707C3 9.30785 3.89607 10.562 5.30676 10.8179C5.83067 10.9129 6.45163 11 7 11C7.54837 11 8.16933 10.9129 8.69324 10.8179C10.1039 10.562 11 9.30785 11 7.97707V6.02293C11 4.69215 10.1039 3.43798 8.69324 3.1821C8.16933 3.08707 7.54837 3 7 3Z" fill="black"/>
<path d="M17 3C16.4516 3 15.8307 3.08707 15.3068 3.1821C13.8961 3.43798 13 4.69215 13 6.02293V7.97707C13 9.30785 13.8961 10.562 15.3068 10.8179C15.8307 10.9129 16.4516 11 17 11C17.5484 11 18.1693 10.9129 18.6932 10.8179C20.1039 10.562 21 9.30785 21 7.97707V6.02293C21 4.69215 20.1039 3.43798 18.6932 3.1821C18.1693 3.08707 17.5484 3 17 3Z" fill="black"/>
<path d="M17 13C16.4516 13 15.8307 13.0871 15.3068 13.1821C13.8961 13.438 13 14.6922 13 16.0229V17.9771C13 19.3078 13.8961 20.562 15.3068 20.8179C15.8307 20.9129 16.4516 21 17 21C17.5484 21 18.1693 20.9129 18.6932 20.8179C20.1039 20.562 21 19.3078 21 17.9771V16.0229C21 14.6922 20.1039 13.438 18.6932 13.1821C18.1693 13.0871 17.5484 13 17 13Z" fill="black"/>
<path d="M7 13C6.45163 13 5.83067 13.0871 5.30676 13.1821C3.89607 13.438 3 14.6922 3 16.0229V17.9771C3 19.3078 3.89607 20.562 5.30676 20.8179C5.83067 20.9129 6.45163 21 7 21C7.54837 21 8.16933 20.9129 8.69324 20.8179C10.1039 20.562 11 19.3078 11 17.9771V16.0229C11 14.6922 10.1039 13.438 8.69324 13.1821C8.16933 13.0871 7.54837 13 7 13Z" fill="black"/>
</svg>
