<svg width="24" height="24" viewBox="0 0 24 24" fill="none" xmlns="http://www.w3.org/2000/svg">
<path d="M5.30676 3.1821C5.83067 3.08707 6.45163 3 7 3C7.54837 3 8.16933 3.08707 8.69324 3.1821C10.1039 3.43798 11 4.69215 11 6.02293V7.97707C11 9.30785 10.1039 10.562 8.69324 10.8179C8.16933 10.9129 7.54837 11 7 11C6.45163 11 5.83067 10.9129 5.30676 10.8179C3.89607 10.562 3 9.30785 3 7.97707V6.02293C3 4.69215 3.89607 3.43798 5.30676 3.1821Z" fill="black"/>
<path d="M15.3068 3.1821C15.8307 3.08707 16.4516 3 17 3C17.5484 3 18.1693 3.08707 18.6932 3.1821C20.1039 3.43798 21 4.69215 21 6.02293V7.97707C21 9.30785 20.1039 10.562 18.6932 10.8179C18.1693 10.9129 17.5484 11 17 11C16.4516 11 15.8307 10.9129 15.3068 10.8179C13.8961 10.562 13 9.30785 13 7.97707V6.02293C13 4.69215 13.8961 3.43798 15.3068 3.1821Z" fill="black"/>
<path d="M5.30676 13.1821C5.83067 13.0871 6.45163 13 7 13C7.54837 13 8.16933 13.0871 8.69324 13.1821C10.1039 13.438 11 14.6922 11 16.0229V17.9771C11 19.3078 10.1039 20.562 8.69324 20.8179C8.16933 20.9129 7.54837 21 7 21C6.45163 21 5.83067 20.9129 5.30676 20.8179C3.89607 20.562 3 19.3078 3 17.9771V16.0229C3 14.6922 3.89607 13.438 5.30676 13.1821Z" fill="black"/>
<path d="M18 14C18 13.4477 17.5523 13 17 13C16.4477 13 16 13.4477 16 14V16H14C13.4477 16 13 16.4477 13 17C13 17.5523 13.4477 18 14 18H16V20C16 20.5523 16.4477 21 17 21C17.5523 21 18 20.5523 18 20V18H20C20.5523 18 21 17.5523 21 17C21 16.4477 20.5523 16 20 16H18V14Z" fill="black"/>
</svg>
