<svg width="24" height="24" viewBox="0 0 24 24" fill="none" xmlns="http://www.w3.org/2000/svg">
<path d="M9.40112 4.77528C10.3581 5.18092 11.2493 5.84264 11.9942 6.55358C12.7357 5.84476 13.6212 5.18587 14.5753 4.78179C15.9129 4.21526 17.5043 4.11728 18.8973 5.25337C20.078 6.21627 20.8178 7.43287 20.98 8.77212C21.1426 10.1145 20.7092 11.4524 19.7839 12.6208C19.7184 12.7036 19.6457 12.796 19.5664 12.8967C18.9301 13.7054 17.8716 15.0507 16.7072 16.2522C15.6393 17.3542 14.3874 18.4088 13.5888 19.0816C13.3803 19.2572 13.2027 19.4068 13.0673 19.5245L13.054 19.5361C12.9939 19.5883 12.9117 19.6599 12.8317 19.719C12.7336 19.7915 12.5871 19.8857 12.3898 19.9434C12.1325 20.0188 11.8566 20.0188 11.5992 19.9434C11.402 19.8857 11.2555 19.7915 11.1574 19.719C11.0774 19.6599 10.9952 19.5883 10.9351 19.5361L10.9218 19.5245C10.7857 19.4062 10.6064 19.2555 10.3956 19.0782C9.5965 18.4061 8.34469 17.3533 7.28052 16.2508C6.16429 15.0944 5.15051 13.799 4.5143 12.9861C4.40767 12.8498 4.31157 12.727 4.22745 12.6208C3.30163 11.4518 2.87214 10.1186 3.03304 8.77971C3.1933 7.44604 3.92393 6.23236 5.08129 5.26202C6.46233 4.10414 8.06306 4.2081 9.40112 4.77528Z" fill="black"/>
</svg>
