<svg width="24" height="24" viewBox="0 0 24 24" fill="none" xmlns="http://www.w3.org/2000/svg">
<path d="M11.5117 3.07116C11.8308 2.97628 12.1692 2.97628 12.4883 3.07116C12.7183 3.13954 12.8961 3.25247 13.0293 3.35017C13.147 3.43652 13.2745 3.54552 13.3945 3.648L15.5963 5.52855L20.6402 9.7318C21.0644 10.0854 21.1218 10.7159 20.7682 11.1402C20.5706 11.3774 20.2863 11.4999 20 11.5001V17.3015C20 17.7503 20 18.1407 19.976 18.463C19.9508 18.8028 19.8947 19.1496 19.7376 19.4882C19.5052 19.9891 19.126 20.414 18.6389 20.6865C18.3002 20.876 17.9513 20.9432 17.6222 20.9727C17.3176 21.0001 16.9523 21 16.5502 21H15.3333L15.3333 13.6513C15.3333 13.4368 15.3334 13.2247 15.32 13.0445C15.3053 12.8472 15.2704 12.6058 15.1557 12.3586C14.9978 12.0184 14.7377 11.7242 14.3969 11.5335C14.1414 11.3906 13.8885 11.3467 13.6891 11.3288C13.5137 11.313 13.3103 11.3131 13.1193 11.3131H10.8807C10.6896 11.3131 10.4863 11.313 10.3109 11.3288C10.1114 11.3467 9.85854 11.3906 9.60303 11.5335C9.26229 11.7242 9.00215 12.0184 8.84431 12.3586C8.72959 12.6058 8.69468 12.8472 8.68 13.0445C8.66659 13.2247 8.66662 13.4368 8.66665 13.6513L8.6666 13.6797L8.74118 21H7.44989C7.04783 21 6.68241 21.0001 6.37783 20.9727C6.04867 20.9432 5.69975 20.876 5.36105 20.6865C4.87396 20.414 4.49484 19.9891 4.26243 19.4882C4.10532 19.1496 4.04922 18.8028 4.02394 18.463C3.99996 18.1407 3.99998 17.7503 3.99999 17.3015L3.99999 11.5001C3.71364 11.4999 3.42943 11.3774 3.23177 11.1402C2.87821 10.7159 2.93553 10.0854 3.35981 9.7318L8.40418 5.52817L10.6055 3.64802C10.7254 3.54553 10.853 3.43653 10.9707 3.35017C11.1039 3.25247 11.2817 3.13954 11.5117 3.07116Z" fill="black"/>
<path d="M10.7413 21H13.3333V13.6797C13.3333 13.5156 13.333 13.4008 13.3309 13.314C13.2637 13.3131 13.1859 13.3131 13.0889 13.3131H10.9111C10.814 13.3131 10.7363 13.3131 10.669 13.314C10.6669 13.3999 10.6667 13.5132 10.6666 13.6746L10.7413 21Z" fill="black"/>
</svg>
