<svg width="24" height="24" viewBox="0 0 24 24" fill="none" xmlns="http://www.w3.org/2000/svg">
<path d="M12 3C12.665 3 13.3999 3.01784 14.1546 3.04679C14.0543 3.34625 14 3.66678 14 4C12.3431 4 11 5.34315 11 7C11 8.65685 12.3431 10 14 10C14 10.8153 14.3252 11.5546 14.8529 12.0953C14.6619 12.2035 14.4834 12.3335 14.3218 12.4836L13.8462 12.9253L11.5244 10.7693C11.2571 10.5211 10.9438 10.3279 10.604 10.1972C10.2642 10.0665 9.90236 10 9.53847 10C9.17457 10 8.81272 10.0665 8.47298 10.1972C8.13317 10.3279 7.81984 10.5211 7.55257 10.7693L3.31955 14.7C3.11819 14.887 3.01121 15.1376 3.00084 15.392C3 15.1625 3 14.9182 3 14.6574V9.34263C3 7.28565 3 6.25716 3.40958 5.42313C3.76004 4.7095 4.36694 4.07199 5.06249 3.68689C5.87539 3.23682 6.85958 3.1884 8.82798 3.09156C9.93045 3.03731 11.0384 3 12 3Z" fill="black"/>
<path d="M20 10C20 11.1315 19.3736 12.1166 18.4487 12.6277L20.6805 14.7C20.8818 14.8869 20.9887 15.1374 20.9992 15.3918C21 15.1624 21 14.9182 21 14.6574V9.82929C20.6872 9.93985 20.3506 10 20 10Z" fill="black"/>
<path d="M20.9988 15.4826C20.9876 15.7094 20.8995 15.9338 20.7328 16.1132C20.357 16.5179 19.7243 16.5414 19.3196 16.1656L16.9327 13.9492C16.8571 13.879 16.7634 13.8197 16.6552 13.7781C16.547 13.7365 16.4287 13.7143 16.3077 13.7143C16.1867 13.7143 16.0684 13.7365 15.9602 13.7781C15.852 13.8197 15.7583 13.879 15.6827 13.9492L15.3158 14.2899L15.7574 14.7C16.1621 15.0758 16.1855 15.7085 15.8097 16.1132C15.4339 16.5179 14.8012 16.5414 14.3965 16.1656L10.1635 12.2349C10.0878 12.1647 9.99414 12.1054 9.88597 12.0638C9.77774 12.0222 9.65945 12 9.53847 12C9.41748 12 9.29919 12.0222 9.19096 12.0638C9.08279 12.1054 8.98909 12.1647 8.91348 12.2349L4.68046 16.1656C4.27575 16.5414 3.64301 16.5179 3.26721 16.1132C3.10051 15.9337 3.01237 15.7093 3.00121 15.4824C3.00845 17.0057 3.05882 17.8626 3.40958 18.5769C3.76004 19.2905 4.36694 19.928 5.06249 20.3131C5.87538 20.7632 6.85958 20.8116 8.82796 20.9084C9.93044 20.9627 11.0384 21 12 21C12.9616 21 14.0695 20.9627 15.172 20.9084C17.1404 20.8116 18.1246 20.7632 18.9375 20.3131C19.6331 19.928 20.24 19.2905 20.5904 18.5769C20.9412 17.8626 20.9916 17.0058 20.9988 15.4826Z" fill="black"/>
<path d="M17 3C17.5523 3 18 3.44772 18 4V6H20C20.5523 6 21 6.44772 21 7C21 7.55228 20.5523 8 20 8H18V10C18 10.5523 17.5523 11 17 11C16.4477 11 16 10.5523 16 10V8H14C13.4477 8 13 7.55228 13 7C13 6.44772 13.4477 6 14 6H16V4C16 3.44772 16.4477 3 17 3Z" fill="black"/>
</svg>
