<svg width="24" height="24" viewBox="0 0 24 24" fill="none" xmlns="http://www.w3.org/2000/svg">
<path fill-rule="evenodd" clip-rule="evenodd" d="M3.40958 5.42313C3 6.25716 3 7.28565 3 9.34263V14.6574C3 14.9182 3 15.1625 3.00084 15.392C3.01121 15.1376 3.11819 14.887 3.31955 14.7L7.55257 10.7693C7.81984 10.5211 8.13317 10.3279 8.47298 10.1972C8.81272 10.0665 9.17457 10 9.53847 10C9.90236 10 10.2642 10.0665 10.604 10.1972C10.9438 10.3279 11.2571 10.5211 11.5244 10.7693L13.8462 12.9253L14.3218 12.4836C14.5891 12.2354 14.9024 12.0421 15.2422 11.9114C15.5819 11.7808 15.9438 11.7143 16.3077 11.7143C16.6716 11.7143 17.0334 11.7808 17.3732 11.9114C17.713 12.0421 18.0263 12.2354 18.2936 12.4836L20.6805 14.7C20.8818 14.8869 20.9887 15.1374 20.9992 15.3918C21 15.1624 21 14.9182 21 14.6574V9.34263C21 9.16397 21 8.99307 20.9997 8.82939C20.687 8.93988 20.3505 9 20 9H15H14C12.3431 9 11 7.65685 11 6C11 4.48096 12.129 3.22561 13.5937 3.02728C13.0372 3.01004 12.4989 3 12 3C11.0384 3 9.93045 3.03731 8.82798 3.09156C6.85958 3.1884 5.87539 3.23682 5.06249 3.68689C4.36694 4.07199 3.76004 4.7095 3.40958 5.42313ZM20.9988 15.4826C20.9876 15.7094 20.8995 15.9338 20.7328 16.1132C20.357 16.5179 19.7243 16.5414 19.3196 16.1656L16.9327 13.9492C16.8571 13.879 16.7634 13.8197 16.6552 13.7781C16.547 13.7365 16.4287 13.7143 16.3077 13.7143C16.1867 13.7143 16.0684 13.7365 15.9602 13.7781C15.852 13.8197 15.7583 13.879 15.6827 13.9492L15.3158 14.2899L15.7574 14.7C16.1621 15.0758 16.1855 15.7085 15.8097 16.1132C15.4339 16.5179 14.8012 16.5414 14.3965 16.1656L10.1635 12.2349C10.0878 12.1647 9.99414 12.1054 9.88597 12.0638C9.77774 12.0222 9.65945 12 9.53847 12C9.41748 12 9.29919 12.0222 9.19096 12.0638C9.08279 12.1054 8.98909 12.1647 8.91348 12.2349L4.68046 16.1656C4.27575 16.5414 3.64301 16.5179 3.26721 16.1132C3.10051 15.9337 3.01237 15.7093 3.00121 15.4824C3.00845 17.0057 3.05882 17.8626 3.40958 18.5769C3.76004 19.2905 4.36694 19.928 5.06249 20.3131C5.87538 20.7632 6.85958 20.8116 8.82796 20.9084H8.82798C9.93045 20.9627 11.0384 21 12 21C12.9616 21 14.0695 20.9627 15.172 20.9084C17.1404 20.8116 18.1246 20.7632 18.9375 20.3131C19.6331 19.928 20.24 19.2905 20.5904 18.5769C20.9412 17.8626 20.9916 17.0058 20.9988 15.4826ZM14 5C13.4477 5 13 5.44772 13 6C13 6.55228 13.4477 7 14 7H20C20.5523 7 21 6.55228 21 6C21 5.44772 20.5523 5 20 5H14Z" fill="black"/>
</svg>
