<svg width="24" height="24" viewBox="0 0 24 24" fill="none" xmlns="http://www.w3.org/2000/svg">
<path d="M15.1039 4.10123C15.559 4.15317 16.0549 4.23617 16.4523 4.38609C16.9376 4.5692 17.3719 4.86512 17.727 5.24553C18.1281 5.67512 18.3854 6.23928 18.7111 6.95329L18.767 7.07579L20.4962 10.6806L20.5041 10.6974L20.5256 10.7445C20.5671 10.8352 20.6057 10.9196 20.6414 11H16.8944C15.9185 11 15.0827 11.6014 14.6905 12.4592C14.5924 12.6739 14.4259 12.75 14.3056 12.75H9.69442C9.57404 12.75 9.4076 12.6739 9.30947 12.4592C8.91731 11.6014 8.08151 11 7.10557 11H3.35863C3.39428 10.9196 3.43286 10.8353 3.47437 10.7445L3.49593 10.6974L3.50377 10.6806L5.23302 7.0758L5.28892 6.95331C5.61461 6.23929 5.87193 5.67512 6.27296 5.24553C6.62807 4.86512 7.06237 4.5692 7.54774 4.38609C7.94514 4.23617 8.44098 4.15317 8.89612 4.10123C9.36957 4.0472 9.87689 4.01883 10.3349 4.00431C10.795 3.98972 11.2174 3.98875 11.5241 3.99138C11.6779 3.9927 11.8035 3.99493 11.8912 3.99684C11.9352 3.9978 11.9697 3.99869 11.9936 3.99934L12 3.99953L12.0064 3.99934C12.0303 3.99869 12.0649 3.9978 12.1088 3.99684C12.1965 3.99493 12.3221 3.9927 12.4759 3.99138C12.7827 3.98875 13.205 3.98972 13.6651 4.00431C14.1231 4.01883 14.6304 4.0472 15.1039 4.10123Z" fill="black"/>
<path d="M3 13L3 14.8406C2.99999 15.5407 2.99998 16.1081 3.0357 16.5681C3.07342 17.0538 3.1548 17.4922 3.35512 17.9222C3.66902 18.596 4.17785 19.1607 4.82362 19.5206C5.04169 19.6422 5.30045 19.6927 5.44096 19.7183C5.62526 19.7519 5.84331 19.7797 6.07773 19.8034C6.54909 19.851 7.14744 19.8882 7.79955 19.9169C9.10712 19.9745 10.6819 20 12 20C13.3181 20 14.8929 19.9745 16.2005 19.9169C16.8526 19.8882 17.4509 19.851 17.9223 19.8034C18.1567 19.7797 18.3747 19.7519 18.559 19.7183C18.6996 19.6927 18.9583 19.6422 19.1764 19.5206C19.8222 19.1607 20.331 18.596 20.6449 17.9222C20.8452 17.4922 20.9266 17.0538 20.9643 16.5681C21 16.1081 21 15.5408 21 14.8407L21 13H16.8944C16.774 13 16.6076 13.0761 16.5095 13.2908C16.1173 14.1486 15.2815 14.75 14.3056 14.75H9.69442C8.71847 14.75 7.88268 14.1486 7.49052 13.2908C7.39238 13.0761 7.22595 13 7.10557 13H3Z" fill="black"/>
</svg>
