<svg width="24" height="24" viewBox="0 0 24 24" fill="none" xmlns="http://www.w3.org/2000/svg">
<path fill-rule="evenodd" clip-rule="evenodd" d="M11.5 6C9.37801 6 6.21093 6.28389 5.70185 6.33071L5.67386 6.33325L5.67275 6.3333L5.64408 6.33334C5.20663 6.3334 4.81895 6.33386 4.4954 6.36157C4.16075 6.39023 3.8168 6.45282 3.48134 6.6204C2.97495 6.87335 2.55955 7.27889 2.29797 7.78219C2.11895 8.12665 2.05506 8.48094 2.02662 8.82229C1.99996 9.14217 1.99998 9.52789 2 9.96241V15.0376C1.99998 15.4721 1.99996 15.8578 2.02662 16.1777C2.05506 16.5191 2.11895 16.8733 2.29797 17.2178C2.55955 17.7211 2.97495 18.1266 3.48134 18.3796C3.8168 18.5472 4.16076 18.6098 4.4954 18.6384C4.81895 18.6661 5.20663 18.6666 5.64409 18.6667L5.67275 18.6667L5.67386 18.6667L5.70186 18.6693C6.21093 18.7161 9.37801 19 11.5 19C13.622 19 16.7891 18.7161 17.2981 18.6693L17.3261 18.6667L17.3273 18.6667L17.3559 18.6667C17.7934 18.6666 18.1811 18.6661 18.5046 18.6384C18.8392 18.6098 19.1832 18.5472 19.5187 18.3796C20.0251 18.1266 20.4405 17.7211 20.702 17.2178C20.8811 16.8733 20.9449 16.5191 20.9734 16.1777C21 15.8578 21 15.4721 21 15.0376V9.96242C21 9.52789 21 9.14217 20.9734 8.82229C20.9449 8.48094 20.8811 8.12666 20.702 7.78219C20.4405 7.27889 20.0251 6.87335 19.5187 6.6204C19.1832 6.45282 18.8392 6.39023 18.5046 6.36157C18.1811 6.33386 17.7934 6.3334 17.3559 6.33334L17.3273 6.3333L17.3261 6.33325L17.2981 6.33071C16.7891 6.28389 13.622 6 11.5 6ZM7 10C6.44772 10 6 10.4477 6 11C6 11.5523 6.44772 12 7 12C7.55228 12 8 11.5523 8 11C8 10.4477 7.55228 10 7 10ZM8 13C7.44772 13 7 13.4477 7 14C7 14.5523 7.44772 15 8 15H15C15.5523 15 16 14.5523 16 14C16 13.4477 15.5523 13 15 13H8ZM10 10C9.44772 10 9 10.4477 9 11C9 11.5523 9.44772 12 10 12C10.5523 12 11 11.5523 11 11C11 10.4477 10.5523 10 10 10ZM13 10C12.4477 10 12 10.4477 12 11C12 11.5523 12.4477 12 13 12C13.5523 12 14 11.5523 14 11C14 10.4477 13.5523 10 13 10ZM16 10C15.4477 10 15 10.4477 15 11C15 11.5523 15.4477 12 16 12C16.5523 12 17 11.5523 17 11C17 10.4477 16.5523 10 16 10Z" fill="black"/>
</svg>
