<svg width="24" height="24" viewBox="0 0 24 24" fill="none" xmlns="http://www.w3.org/2000/svg">
<path d="M6.90492 16.3029C5.09755 14.8263 3.94116 12.5777 3.94116 10.0588C3.94116 5.60806 7.54922 2 12 2C16.4507 2 20.0588 5.60806 20.0588 10.0588C20.0588 12.5777 18.9024 14.8263 17.0951 16.3028L16.6951 17.4179C16.6019 17.6777 16.4476 17.9784 16.2239 18.2386C16.0096 18.4879 15.6342 18.8089 15.0942 18.86C14.5583 18.9107 14.0812 18.5286 14.0092 18H13V14C13.5523 14 14 13.5523 14 13C14 12.4477 13.5523 12 13 12H11C10.4477 12 10 12.4477 10 13C10 13.5523 10.4477 14 11 14V18H9.99078C9.91885 18.5286 9.44174 18.9107 8.90578 18.86C8.36586 18.8089 7.99044 18.4879 7.77608 18.2386C7.55241 17.9784 7.39805 17.6777 7.30488 17.4179L6.90492 16.3029Z" fill="black"/>
<path d="M10.3858 20.0774C9.8765 19.8648 9.29057 20.1048 9.07749 20.614C8.8643 21.1235 9.1045 21.7093 9.61398 21.9225L9.6166 21.9236L9.62097 21.9254L9.63484 21.9311L9.68213 21.9502C9.72192 21.9661 9.77799 21.9881 9.84717 22.0141C9.98491 22.0659 10.1777 22.135 10.3994 22.2044C10.8145 22.3343 11.4366 22.5 12 22.5C12.5633 22.5 13.1855 22.3343 13.6006 22.2044C13.8223 22.135 14.0151 22.0659 14.1528 22.0141C14.222 21.9881 14.278 21.9661 14.3178 21.9502L14.3651 21.9311L14.379 21.9254L14.3834 21.9236L14.386 21.9225C14.8955 21.7093 15.1357 21.1235 14.9225 20.614C14.7093 20.1046 14.1236 19.8644 13.6142 20.0774L13.6076 20.0801L13.5763 20.0928C13.5476 20.1042 13.504 20.1213 13.4486 20.1422C13.3371 20.1841 13.1808 20.2401 13.0032 20.2957C12.6196 20.4157 12.2417 20.5 12 20.5C11.7583 20.5 11.3804 20.4157 10.9968 20.2957C10.8191 20.2401 10.6628 20.1841 10.5514 20.1422C10.4959 20.1213 10.4524 20.1042 10.4237 20.0928L10.3924 20.0801L10.3858 20.0774Z" fill="black"/>
</svg>
