<svg width="24" height="24" viewBox="0 0 24 24" fill="none" xmlns="http://www.w3.org/2000/svg">
<path fill-rule="evenodd" clip-rule="evenodd" d="M3 9.34263C3 7.28565 3 6.25716 3.40958 5.42313C3.76004 4.7095 4.36694 4.07199 5.06249 3.68689C5.87539 3.23682 6.85958 3.1884 8.82798 3.09156C9.93045 3.03731 11.0384 3 12 3C12.9616 3 14.0695 3.03731 15.172 3.09156C17.1404 3.1884 18.1246 3.23682 18.9375 3.68689C19.6331 4.07199 20.24 4.7095 20.5904 5.42313C21 6.25716 21 7.28565 21 9.34263V14.6574C21 16.7144 21 17.7428 20.5904 18.5769C20.24 19.2905 19.6331 19.928 18.9375 20.3131C18.1246 20.7632 17.1404 20.8116 15.172 20.9084C14.0695 20.9627 12.9616 21 12 21C11.0384 21 9.93045 20.9627 8.82798 20.9084C6.85959 20.8116 5.87538 20.7632 5.06249 20.3131C4.36694 19.928 3.76004 19.2905 3.40958 18.5769C3 17.7428 3 16.7144 3 14.6574V9.34263ZM9 7C7.89543 7 7 7.89543 7 9C7 10.1046 7.89543 11 9 11C10.1046 11 11 10.1046 11 9C11 7.89543 10.1046 7 9 7ZM13 9C13 8.44772 13.4477 8 14 8H16C16.5523 8 17 8.44772 17 9C17 9.55228 16.5523 10 16 10H14C13.4477 10 13 9.55228 13 9ZM13 15C13 14.4477 13.4477 14 14 14H16C16.5523 14 17 14.4477 17 15C17 15.5523 16.5523 16 16 16H14C13.4477 16 13 15.5523 13 15ZM7 15C7 13.8954 7.89543 13 9 13C10.1046 13 11 13.8954 11 15C11 16.1046 10.1046 17 9 17C7.89543 17 7 16.1046 7 15Z" fill="black"/>
</svg>
