<svg width="24" height="24" viewBox="0 0 24 24" fill="none" xmlns="http://www.w3.org/2000/svg">
<path fill-rule="evenodd" clip-rule="evenodd" d="M9.58804 6.48985C9.23534 7.236 9.07854 8.1772 9.02401 9.12285L9.18385 9.11217C10.1426 9.04749 11.1375 9 12 9C12.8625 9 13.8574 9.04749 14.8162 9.11217L15.0151 9.12547C16.2457 9.20737 17.1807 9.2696 17.9819 9.72666C18.6661 10.1169 19.2566 10.7486 19.6 11.4576C19.8238 11.9197 19.9161 12.3974 19.9591 12.9172C20 13.4122 20 14.0113 20 14.7292V15.2708C20 15.9887 20 16.5878 19.9591 17.0828C19.9161 17.6026 19.8238 18.0803 19.6 18.5424C19.2566 19.2514 18.6661 19.8831 17.9819 20.2733C17.1807 20.7304 16.2457 20.7926 15.0152 20.8745L14.8162 20.8878C13.8574 20.9525 12.8625 21 12 21C11.1375 21 10.1426 20.9525 9.18385 20.8878L8.98487 20.8745C7.75436 20.7926 6.81931 20.7304 6.01807 20.2733C5.33386 19.8831 4.74336 19.2514 4.40001 18.5424C4.17617 18.0803 4.08389 17.6026 4.0409 17.0828C3.99998 16.5878 3.99999 15.9888 4 15.2708V14.7292C3.99999 14.0113 3.99998 13.4122 4.0409 12.9172C4.08389 12.3974 4.17617 11.9197 4.40001 11.4576C4.74336 10.7486 5.33386 10.1169 6.01807 9.72666C6.32623 9.55087 6.65418 9.43349 7.01111 9.35093C7.05267 8.18203 7.22611 6.80665 7.77987 5.63515C8.11771 4.92044 8.61206 4.2491 9.33181 3.75924C10.0578 3.26512 10.9484 3 12 3C13.1138 3 14.0277 3.34749 14.7468 3.92199C15.4498 4.48364 15.919 5.22304 16.2354 5.94837C16.4563 6.45458 16.2249 7.04397 15.7187 7.26481C15.2125 7.48565 14.6231 7.2543 14.4023 6.74809C14.171 6.21786 13.8722 5.78314 13.4984 5.48457C13.1408 5.19884 12.6691 5 12 5C11.2969 5 10.8101 5.17238 10.4571 5.41264C10.0978 5.65715 9.81152 6.01706 9.58804 6.48985ZM11 14C11 13.4477 11.4477 13 12 13C12.5523 13 13 13.4477 13 14V15C13.5523 15 14 15.4477 14 16C14 16.5523 13.5523 17 13 17H11C10.4477 17 10 16.5523 10 16C10 15.4477 10.4477 15 11 15V14Z" fill="black"/>
</svg>
