<svg width="24" height="24" viewBox="0 0 24 24" fill="none" xmlns="http://www.w3.org/2000/svg">
<path fill-rule="evenodd" clip-rule="evenodd" d="M7.77987 5.63515C7.22611 6.80665 7.05267 8.18203 7.01111 9.35093C6.65418 9.43349 6.32623 9.55087 6.01807 9.72666C5.33386 10.1169 4.74336 10.7486 4.40001 11.4576C4.17617 11.9197 4.08389 12.3974 4.0409 12.9172C3.99998 13.4122 3.99999 14.0112 4 14.7292V15.2708C3.99999 15.9887 3.99998 16.5878 4.0409 17.0828C4.08389 17.6026 4.17617 18.0803 4.40001 18.5424C4.74336 19.2514 5.33386 19.8831 6.01807 20.2733C6.81931 20.7304 7.75434 20.7926 8.98484 20.8745L9.18385 20.8878C10.1426 20.9525 11.1375 21 12 21C12.8625 21 13.8574 20.9525 14.8162 20.8878L15.0151 20.8745C16.2456 20.7926 17.1807 20.7304 17.9819 20.2733C18.6661 19.8831 19.2566 19.2514 19.6 18.5424C19.8238 18.0803 19.9161 17.6026 19.9591 17.0828C20 16.5878 20 15.9887 20 15.2708V14.7292C20 14.0113 20 13.4122 19.9591 12.9172C19.9161 12.3974 19.8238 11.9197 19.6 11.4576C19.2566 10.7486 18.6661 10.1169 17.9819 9.72666C17.6716 9.54965 17.3413 9.43186 16.9814 9.34922C16.9424 8.66594 16.821 7.56642 16.4445 6.48398C16.1631 5.67498 15.7168 4.80791 14.9938 4.13512C14.2481 3.44126 13.2554 3 12 3C10.9484 3 10.0578 3.26512 9.33181 3.75924C8.61206 4.2491 8.11771 4.92044 7.77987 5.63515ZM9.58804 6.48985C9.23534 7.236 9.07854 8.1772 9.02401 9.12285L9.18385 9.11217C10.1426 9.04749 11.1375 9 12 9C12.8625 9 13.8574 9.04749 14.8162 9.11217L14.9593 9.12174C14.9096 8.57111 14.7996 7.84269 14.5555 7.14102C14.3369 6.51252 14.0333 5.97334 13.6313 5.59926C13.2519 5.24624 12.7446 5 12 5C11.2969 5 10.8101 5.17238 10.4571 5.41264C10.0978 5.65715 9.81152 6.01706 9.58804 6.48985ZM11 14C11 13.4477 11.4477 13 12 13C12.5523 13 13 13.4477 13 14V15C13.5523 15 14 15.4477 14 16C14 16.5523 13.5523 17 13 17H11C10.4477 17 10 16.5523 10 16C10 15.4477 10.4477 15 11 15V14Z" fill="black"/>
</svg>
