<svg width="24" height="24" viewBox="0 0 24 24" fill="none" xmlns="http://www.w3.org/2000/svg">
<path fill-rule="evenodd" clip-rule="evenodd" d="M6.00822 2.80561C6.62537 2.27663 7.43359 2 8.25 2H15.75C16.5664 2 17.3746 2.27663 17.9918 2.80561C18.6137 3.33868 19 4.09775 19 4.92857V19.0714C19 19.9023 18.6137 20.6613 17.9918 21.1944C17.3746 21.7234 16.5664 22 15.75 22H8.25023C7.43382 22 6.62537 21.7234 6.00822 21.1944C5.38631 20.6613 5 19.9023 5 19.0714V4.92857C5 4.09775 5.38631 3.33868 6.00822 2.80561ZM9.5 4.28577C9.5 3.73348 9.94772 3.28577 10.5 3.28577H13.5C14.0523 3.28577 14.5 3.73348 14.5 4.28577C14.5 4.83805 14.0523 5.28577 13.5 5.28577H10.5C9.94772 5.28577 9.5 4.83805 9.5 4.28577ZM10 18C10 17.5858 10.3358 17.25 10.75 17.25H13.25C13.6642 17.25 14 17.5858 14 18C14 18.4142 13.6642 18.75 13.25 18.75H10.75C10.3358 18.75 10 18.4142 10 18Z" fill="black"/>
</svg>
