<svg width="24" height="24" viewBox="0 0 24 24" fill="none" xmlns="http://www.w3.org/2000/svg">
<path fill-rule="evenodd" clip-rule="evenodd" d="M12 3C10.9732 3 9.66882 3.0395 8.62939 3.07848C8.10792 3.09803 7.64984 3.11758 7.32205 3.13225C7.15811 3.13958 7.02667 3.1457 6.93606 3.14999L6.81944 3.15558C5.74753 3.15798 4.69651 3.31631 3.95221 4.03427C3.19361 4.76603 3 5.83701 3 7V13.6C3 14.763 3.1936 15.834 3.9522 16.5657C4.70229 17.2893 5.76388 17.4444 6.84444 17.4444H11V18.9558C10.4962 18.9118 10.0523 18.8407 9.69612 18.7694C9.40857 18.7119 9.18102 18.6549 9.02875 18.6134C8.95269 18.5926 8.89564 18.5758 8.85952 18.5648C8.84148 18.5593 8.82868 18.5553 8.82138 18.553L8.81441 18.5507C8.29098 18.3773 7.72577 18.6605 7.55132 19.1838C7.37667 19.7077 7.66064 20.2743 8.18459 20.449L8.18786 20.4501L8.19415 20.4521L8.2133 20.4583C8.22894 20.4633 8.25033 20.47 8.2772 20.4782C8.33093 20.4945 8.4067 20.5168 8.50251 20.5429C8.69399 20.5951 8.96644 20.6631 9.30389 20.7306C9.9768 20.8652 10.9191 21 12 21C13.0807 21 14.0593 20.8632 14.7646 20.7281C15.1187 20.6603 15.4079 20.5921 15.6112 20.5401C15.713 20.514 15.7935 20.492 15.8502 20.4759C15.8786 20.4679 15.901 20.4614 15.9172 20.4566L15.9368 20.4508L15.943 20.4489L15.9451 20.4482L15.9467 20.4477C16.4746 20.2854 16.771 19.7259 16.6087 19.198C16.4464 18.6702 15.8868 18.374 15.359 18.536L15.3504 18.5386C15.3414 18.5412 15.3264 18.5456 15.3056 18.5515C15.2642 18.5632 15.1999 18.5809 15.1155 18.6025C14.9464 18.6457 14.6974 18.7046 14.3883 18.7638C14.0011 18.838 13.5258 18.9115 13 18.9563V17.4444H17.1556C18.2361 17.4444 19.2977 17.2893 20.0478 16.5657C20.8064 15.834 21 14.763 21 13.6V7C21 5.83701 20.8064 4.76603 20.0478 4.03427C19.3035 3.3163 18.2525 3.15798 17.1806 3.15558L17.0639 3.14999C16.9733 3.1457 16.8419 3.13958 16.678 3.13225C16.3502 3.11758 15.8921 3.09803 15.3706 3.07848C14.3312 3.0395 13.0268 3 12 3Z" fill="black"/>
</svg>
