<svg width="24" height="24" viewBox="0 0 24 24" fill="none" xmlns="http://www.w3.org/2000/svg">
<path fill-rule="evenodd" clip-rule="evenodd" d="M11.9475 2.12305C8.29494 2.12305 4.87479 5.07634 5.13669 9.00359L5.61669 16.2006C5.67043 17.0066 5.88644 17.8059 6.22779 18.5262C8.98161 24.338 17.8556 22.5261 18.2773 16.2006L18.7573 9.00359C19.0191 5.07655 15.6002 2.12305 11.9475 2.12305ZM12.9998 7C12.9998 6.44772 12.552 6 11.9998 6C11.4475 6 10.9998 6.44772 10.9998 7V9C10.9998 9.55228 11.4475 10 11.9998 10C12.552 10 12.9998 9.55228 12.9998 9V7Z" fill="black"/>
</svg>
