<svg width="24" height="24" viewBox="0 0 24 24" fill="none" xmlns="http://www.w3.org/2000/svg">
<path d="M21.0464 3.98638L21.0466 3.99174L21.0472 4.00643L21.0493 4.06027C21.051 4.10651 21.0532 4.17286 21.0555 4.25521C21.0601 4.41966 21.065 4.64916 21.0662 4.91044C21.0686 5.42153 21.0574 6.0968 20.9931 6.64495C20.9276 7.20397 20.7782 7.87631 20.6541 8.38255C20.5906 8.64136 20.531 8.86777 20.4872 9.02974C20.4652 9.11085 20.4472 9.17611 20.4345 9.22155L20.4196 9.27444L20.4155 9.28887L20.4138 9.2948C20.2612 9.8256 19.7073 10.1323 19.1765 9.97972C18.6457 9.8272 18.3392 9.27291 18.4916 8.74213L18.4923 8.73969L18.4955 8.72859L18.5084 8.68281C18.5197 8.6423 18.5363 8.58255 18.5566 8.50747C18.5973 8.35706 18.6527 8.14636 18.7116 7.90626C18.8256 7.44115 18.943 6.90343 18.998 6.48277L14.7495 10.7313C14.3589 11.1218 13.7258 11.1218 13.3353 10.7313C12.9447 10.3408 12.9447 9.70759 13.3353 9.31706L17.6322 5.02016C17.2023 5.06299 16.6313 5.17563 16.1405 5.28616C15.8993 5.34048 15.6876 5.39195 15.5364 5.42978C15.461 5.44866 15.4009 5.46407 15.3602 5.47463L15.3142 5.48665L15.303 5.4896L15.3006 5.49025C14.767 5.63264 14.2186 5.31566 14.0762 4.78208C13.9337 4.24848 14.2508 3.70044 14.7844 3.558L14.7904 3.55642L14.8049 3.55258L14.8581 3.5387C14.9037 3.52685 14.9693 3.51003 15.0508 3.48963C15.2136 3.44889 15.4411 3.39357 15.7011 3.33503C16.2096 3.22051 16.8846 3.08385 17.4448 3.02894C17.9941 2.97509 18.6694 2.97664 19.1804 2.98872C19.4416 2.9949 19.6709 3.00415 19.8353 3.01187C19.9176 3.01574 19.9839 3.01923 20.0301 3.02179L20.0839 3.02485L20.0985 3.02573L20.1 3.02582C20.3364 3.03939 20.5689 3.13647 20.7495 3.31706C20.9338 3.50143 21.0312 3.73989 21.0414 3.98136L21.0464 3.98638Z" fill="black"/>
<path d="M4.00457 3.02012L4.00993 3.0199L4.02462 3.0193L4.07846 3.01725C4.1247 3.01557 4.19105 3.01333 4.2734 3.01103C4.43785 3.00642 4.66735 3.00152 4.92863 3.00029C5.43972 2.99789 6.11499 3.00914 6.66314 3.07339C7.22216 3.13891 7.8945 3.28833 8.40074 3.41246C8.65955 3.47592 8.88596 3.53554 9.04793 3.57936C9.12903 3.6013 9.19429 3.61936 9.23974 3.63207L9.29263 3.64696L9.30706 3.65107L9.31298 3.65276C9.84379 3.80529 10.1504 4.35924 9.99791 4.89005C9.84539 5.42083 9.2911 5.72736 8.76032 5.57489L8.75788 5.57419L8.74678 5.57103L8.701 5.55815C8.66049 5.54681 8.60074 5.53027 8.52566 5.50996C8.37525 5.46927 8.16455 5.4138 7.92445 5.35492C7.45934 5.24088 6.92161 5.12354 6.50096 5.06856L10.7495 9.31706C11.14 9.70759 11.14 10.3408 10.7495 10.7313C10.3589 11.1218 9.72578 11.1218 9.33525 10.7313L5.03835 6.43438C5.08117 6.86424 5.19382 7.43525 5.30435 7.92606C5.35866 8.16723 5.41014 8.37894 5.44797 8.53009C5.46685 8.60555 5.48226 8.6656 5.49282 8.70632L5.50484 8.75233L5.50779 8.76349L5.50844 8.76595C5.65083 9.29952 5.33384 9.8479 4.80027 9.99034C4.26667 10.1328 3.71863 9.81569 3.57619 9.28209L3.5746 9.27613L3.57077 9.26163L3.55689 9.20846C3.54504 9.16279 3.52821 9.09719 3.50781 9.01569C3.46707 8.85292 3.41176 8.62542 3.35322 8.36545C3.2387 7.85695 3.10204 7.1819 3.04713 6.62174C2.99328 6.07247 2.99483 5.39711 3.00691 4.88616C3.01309 4.62495 3.02234 4.39558 3.03006 4.23124C3.03392 4.14896 3.03742 4.08266 3.03998 4.03646L3.04304 3.98267L3.04392 3.96799L3.04401 3.96652C3.05758 3.73014 3.15466 3.49766 3.33525 3.31706C3.51962 3.13269 3.75808 3.03536 3.99955 3.02508L4.00457 3.02012Z" fill="black"/>
<path d="M3.03831 20.062L3.03809 20.0566L3.03749 20.0419L3.03544 19.9881C3.03376 19.9418 3.03152 19.8755 3.02922 19.7931C3.02461 19.6287 3.01971 19.3992 3.01848 19.1379C3.01608 18.6268 3.02733 17.9515 3.09158 17.4034C3.1571 16.8444 3.30652 16.172 3.43065 15.6658C3.49411 15.407 3.55373 15.1806 3.59754 15.0186C3.61949 14.9375 3.63755 14.8722 3.65026 14.8268L3.66515 14.7739L3.66926 14.7595L3.67095 14.7535C3.82348 14.2227 4.37743 13.9161 4.90824 14.0686C5.43902 14.2211 5.74555 14.7754 5.59308 15.3062L5.59238 15.3086L5.58922 15.3197L5.57633 15.3655C5.565 15.406 5.54846 15.4658 5.52815 15.5409C5.48746 15.6913 5.43199 15.902 5.37311 16.1421C5.25907 16.6072 5.14173 17.1449 5.08675 17.5656L9.33525 13.3171C9.72578 12.9265 10.3589 12.9265 10.7495 13.3171C11.14 13.7076 11.14 14.3408 10.7495 14.7313L6.45256 19.0282C6.88243 18.9854 7.45344 18.8727 7.94425 18.7622C8.18542 18.7079 8.39713 18.6564 8.54828 18.6186C8.62374 18.5997 8.68378 18.5843 8.72451 18.5737L8.77052 18.5617L8.78168 18.5587L8.78413 18.5581C9.31771 18.4157 9.86609 18.7327 10.0085 19.2663C10.151 19.7999 9.83388 20.3479 9.30028 20.4903L9.29432 20.4919L9.27982 20.4958L9.22665 20.5096C9.18097 20.5215 9.11538 20.5383 9.03388 20.5587C8.87111 20.5995 8.64361 20.6548 8.38364 20.7133C7.87514 20.8278 7.20009 20.9645 6.63993 21.0194C6.09066 21.0733 5.4153 21.0717 4.90435 21.0596C4.64314 21.0534 4.41377 21.0442 4.24943 21.0365C4.16715 21.0326 4.10085 21.0291 4.05465 21.0266L4.00086 21.0235L3.98618 21.0226L3.98471 21.0225C3.74833 21.0089 3.51585 20.9119 3.33525 20.7313C3.15088 20.5469 3.05355 20.3085 3.04327 20.067L3.03831 20.062Z" fill="black"/>
<path d="M20.0748 21.0284L20.0801 21.0282L20.0852 21.0233C20.3266 21.013 20.5651 20.9156 20.7495 20.7313C20.9301 20.5507 21.0271 20.3182 21.0407 20.0818L21.0417 20.0657L21.0447 20.0119C21.0473 19.9657 21.0508 19.8994 21.0547 19.8171C21.0624 19.6528 21.0716 19.4234 21.0778 19.1622C21.0899 18.6512 21.0914 17.9759 21.0376 17.4266C20.9827 16.8664 20.846 16.1914 20.7315 15.6829C20.673 15.4229 20.6176 15.1954 20.5769 15.0326C20.5565 14.9511 20.5397 14.8856 20.5278 14.8399L20.5139 14.7867L20.5101 14.7722L20.5085 14.7662C20.3661 14.2326 19.818 13.9156 19.2844 14.058C18.7509 14.2004 18.4339 14.7488 18.5763 15.2824L18.5769 15.2848L18.5799 15.296L18.5919 15.342C18.6025 15.3827 18.6179 15.4428 18.6367 15.5182C18.6746 15.6694 18.7261 15.8811 18.7804 16.1223C18.8909 16.6131 19.0035 17.1841 19.0464 17.614L14.7495 13.3171C14.3589 12.9265 13.7258 12.9265 13.3352 13.3171C12.9447 13.7076 12.9447 14.3408 13.3353 14.7313L17.5838 18.9798C17.1631 18.9248 16.6254 18.8075 16.1603 18.6934C15.9202 18.6345 15.7095 18.5791 15.5591 18.5384C15.484 18.5181 15.4242 18.5015 15.3837 18.4902L15.3379 18.4773L15.3268 18.4741L15.3244 18.4734C14.7936 18.321 14.2393 18.6275 14.0868 19.1583C13.9343 19.6891 14.2409 20.243 14.7717 20.3956L14.7777 20.3973L14.7921 20.4014L14.845 20.4163C14.8904 20.429 14.9557 20.447 15.0368 20.469C15.1988 20.5128 15.4252 20.5724 15.684 20.6359C16.1902 20.76 16.8626 20.9094 17.4216 20.9749C17.9697 21.0392 18.645 21.0504 19.1561 21.048C19.4174 21.0468 19.6469 21.0419 19.8113 21.0373C19.8937 21.035 19.96 21.0328 20.0063 21.0311L20.0601 21.029L20.0748 21.0284Z" fill="black"/>
</svg>
