<svg width="24" height="24" viewBox="0 0 24 24" fill="none" xmlns="http://www.w3.org/2000/svg">
<path d="M18.526 5.07651C18.7477 5.0412 18.891 5.01968 18.9951 5.00866C18.9995 5.11528 19 5.26192 19 5.48701V12.3368C18.5454 12.1208 18.0368 12 17.5 12C15.567 12 14 13.567 14 15.5C14 17.433 15.567 19 17.5 19C19.433 19 21 17.433 21 15.5C21 15.444 20.9987 15.3883 20.9961 15.333C20.9987 15.3036 21 15.2739 21 15.2438L21 5.45237C21 5.1973 21.0001 4.9435 20.9808 4.72967C20.9596 4.49523 20.9083 4.20143 20.7364 3.91443C20.507 3.53135 20.1508 3.24675 19.7377 3.09977C19.446 2.99596 19.1673 2.99131 18.9392 3.00634C18.7201 3.02077 18.4677 3.0606 18.2115 3.10139L18.2055 3.10235C18.1832 3.10589 18.1553 3.11033 18.1271 3.11564C18.1021 3.12033 18.0785 3.12524 18.0538 3.13085C18.0258 3.13721 17.9981 3.14435 17.9759 3.15006L17.9698 3.15162C17.5493 3.25965 15.5218 3.77286 14.1697 3.98982C12.7974 4.21003 10.6719 4.35758 10.2353 4.38633L10.2291 4.38674C10.2063 4.38823 10.1778 4.3901 10.1493 4.39277C10.1242 4.39513 10.1002 4.39784 10.0752 4.40114C10.0469 4.40487 10.0192 4.40931 9.9972 4.41285L9.99132 4.41379L9.92631 4.42409C9.62097 4.47213 9.21366 4.53621 8.87182 4.75397C8.57161 4.94521 8.32792 5.21788 8.1747 5.54506C8.06383 5.7818 8.02808 6.00984 8.01315 6.19906C7.99994 6.36637 7.99997 6.55996 8 6.74719L8.00001 14.3368C7.54538 14.1208 7.0368 14 6.5 14C4.567 14 3 15.567 3 17.5C3 19.433 4.567 21 6.5 21C8.433 21 10 19.433 10 17.5C10 17.39 9.99492 17.2811 9.98499 17.1737C9.99486 17.1173 10 17.0593 10 17V6.77489C10 6.66697 10 6.58278 10.0011 6.51003C10.0015 6.48399 10.0021 6.46117 10.0027 6.44107C10.0703 6.42754 10.1644 6.41158 10.308 6.38857L10.336 6.38411L10.3372 6.38399L10.3667 6.38201C10.7897 6.35415 13.0073 6.20193 14.4866 5.96456C15.9444 5.73063 18.0598 5.19346 18.4675 5.0887L18.4962 5.08135L18.4975 5.08109L18.526 5.07651Z" fill="black"/>
</svg>
