<svg width="24" height="24" viewBox="0 0 24 24" fill="none" xmlns="http://www.w3.org/2000/svg">
<path d="M4.70711 3.29289C4.31658 2.90237 3.68342 2.90237 3.29289 3.29289C2.90237 3.68342 2.90237 4.31658 3.29289 4.70711L8 9.41421V11.6923C8 12.7041 8.53564 13.5526 9.26897 14.1167C10.0012 14.68 10.9701 15 12 15C12.4807 15 12.9481 14.9303 13.3844 14.7986L14.253 15.6672C13.5706 16.0411 12.8029 16.25 12 16.25C9.30076 16.25 7 13.8892 7 10.8334C7 10.2811 6.55228 9.83337 6 9.83337C5.44772 9.83337 5 10.2811 5 10.8334C5 14.516 7.56274 17.6588 11 18.1756V18.9546C10.5186 18.9107 10.1051 18.841 9.77893 18.7718C9.51223 18.7152 9.30555 18.6594 9.16979 18.6192C9.10196 18.5992 9.05201 18.5831 9.02131 18.5728C9.01739 18.5715 9.01379 18.5703 9.01051 18.5692C9.00092 18.566 8.99403 18.5636 8.98992 18.5621L8.98562 18.5606C8.46816 18.3718 7.89508 18.6371 7.70451 19.1543C7.51359 19.6726 7.77892 20.2475 8.29715 20.4384L8.29916 20.4391L8.30167 20.44L8.3082 20.4424L8.32725 20.4492C8.34259 20.4546 8.36318 20.4617 8.38885 20.4702C8.44018 20.4873 8.51188 20.5103 8.60253 20.5371C8.78374 20.5907 9.04134 20.6598 9.36392 20.7283C10.0081 20.8649 10.9178 21 12 21C13.0809 21 14.0232 20.8652 14.6961 20.7306C15.0336 20.6631 15.306 20.5952 15.4975 20.5429C15.5933 20.5168 15.6691 20.4946 15.7228 20.4782C15.7497 20.47 15.7711 20.4633 15.7867 20.4583L15.8059 20.4521L15.8121 20.4501L15.8145 20.4493L15.8162 20.4487C16.3402 20.2741 16.6233 19.7078 16.4487 19.1838C16.2741 18.66 15.708 18.3768 15.1841 18.5512L15.1786 18.553C15.1713 18.5553 15.1585 18.5594 15.1405 18.5649C15.1044 18.5758 15.0473 18.5927 14.9713 18.6134C14.819 18.6549 14.5914 18.712 14.3039 18.7695C13.9477 18.8407 13.5038 18.9118 13 18.9558V18.1756C13.9898 18.0268 14.9071 17.6602 15.7115 17.1257L19.2929 20.7071C19.6834 21.0976 20.3166 21.0976 20.7071 20.7071C21.0976 20.3166 21.0976 19.6834 20.7071 19.2929L4.70711 3.29289Z" fill="black"/>
<path d="M16.7474 12.5434L18.2904 14.0864C18.7459 13.099 19 11.9929 19 10.8334C19 10.2811 18.5523 9.83337 18 9.83337C17.4477 9.83337 17 10.2811 17 10.8334C17 11.4345 16.911 12.0087 16.7474 12.5434Z" fill="black"/>
<path fill-rule="evenodd" clip-rule="evenodd" d="M15.1866 10.9826L15.9982 11.7942C15.9994 11.7604 16 11.7265 16 11.6923V10V7V6.30769C16 5.29593 15.4644 4.44739 14.731 3.88328C13.9988 3.32001 13.0299 3 12 3C10.9701 3 10.0012 3.32001 9.26897 3.88328C9.04842 4.05294 8.84574 4.24832 8.67015 4.46614L13.204 9H15C15.5523 9 16 9.44772 16 10C16 10.4885 15.6497 10.8952 15.1866 10.9826ZM16 7C16 6.44772 15.5523 6 15 6H13C12.4477 6 12 6.44772 12 7C12 7.55228 12.4477 8 13 8H15C15.5523 8 16 7.55228 16 7Z" fill="black"/>
</svg>
