<svg width="24" height="24" viewBox="0 0 24 24" fill="none" xmlns="http://www.w3.org/2000/svg">
<path fill-rule="evenodd" clip-rule="evenodd" d="M2 12C2 6.47715 6.47715 2 12 2C17.5228 2 22 6.47715 22 12C22 17.5228 17.5228 22 12 22C6.47715 22 2 17.5228 2 12ZM9.30004 7.84998C8.49922 7.84998 7.85004 8.49916 7.85004 9.29997C7.85004 10.1008 8.49922 10.75 9.30004 10.75C10.1008 10.75 10.75 10.1008 10.75 9.29997C10.75 8.49916 10.1008 7.84998 9.30004 7.84998ZM9 13.5C8.44772 13.5 8 13.9477 8 14.5C8 15.0523 8.44772 15.5 9 15.5H15C15.5523 15.5 16 15.0523 16 14.5C16 13.9477 15.5523 13.5 15 13.5H9ZM13.25 9.29997C13.25 8.49916 13.8992 7.84998 14.7 7.84998C15.5008 7.84998 16.15 8.49916 16.15 9.29997C16.15 10.1008 15.5008 10.75 14.7 10.75C13.8992 10.75 13.25 10.1008 13.25 9.29997Z" fill="black"/>
</svg>
