<svg width="24" height="24" viewBox="0 0 24 24" fill="none" xmlns="http://www.w3.org/2000/svg">
<path d="M18 19C18 19.5523 18.4477 20 19 20C19.5523 20 20 19.5523 20 19L20 5C20 4.44771 19.5523 4 19 4C18.4477 4 18 4.44771 18 5L18 19Z" fill="black"/>
<path d="M4.43692 19.1671C4.8169 19.6431 5.39308 19.92 6.00216 19.9194C6.48669 19.9189 6.88771 19.6909 7.17105 19.5036C7.46117 19.3118 7.80322 19.0381 8.18948 18.729L14.0915 14.0075C14.3338 13.8137 14.5638 13.6297 14.7416 13.4598C14.9323 13.2777 15.1469 13.0358 15.2721 12.7016C15.4416 12.2492 15.4416 11.7508 15.2721 11.2984C15.1469 10.9642 14.9323 10.7223 14.7416 10.5402C14.5638 10.3703 14.3337 10.1863 14.0914 9.99252L8.18948 5.27096C7.80322 4.96191 7.46117 4.68824 7.17105 4.49643C6.88771 4.30911 6.48669 4.08115 6.00216 4.08063C5.39308 4.07997 4.81689 4.3569 4.43692 4.83292C4.13465 5.2116 4.06214 5.66715 4.03141 6.00542C3.99995 6.35178 3.99997 6.78982 4 7.28449V16.7155C3.99998 17.2101 3.99995 17.6482 4.03141 17.9946C4.06214 18.3329 4.13465 18.7884 4.43692 19.1671Z" fill="black"/>
</svg>
