<svg width="24" height="24" viewBox="0 0 24 24" fill="none" xmlns="http://www.w3.org/2000/svg">
<path fill-rule="evenodd" clip-rule="evenodd" d="M4.70711 3.29289C4.31658 2.90237 3.68342 2.90237 3.29289 3.29289C2.90237 3.68342 2.90237 4.31658 3.29289 4.70711L6.85945 8.27366C6.67986 8.57463 6.5422 8.91567 6.46406 9.30155C6.257 10.3242 6.20788 11.1163 6.16862 11.7495L6.16811 11.7578C6.13554 12.2829 6.11127 12.4724 6.05832 12.6364C6.00743 12.7941 5.9103 12.9851 5.60288 13.4406C5.39235 13.7525 5.18055 14.0435 4.97885 14.3205L4.97015 14.3325C4.79827 14.5685 4.62606 14.805 4.48444 15.018C4.34831 15.2228 4.19443 15.4725 4.10075 15.7264C4.02596 15.9291 3.8524 16.5056 4.26408 17.0167C4.60044 17.4343 5.09045 17.4922 5.35117 17.4991L5.47783 17.5144C5.59428 17.5283 5.76289 17.5481 5.97305 17.5718C6.39319 17.6192 6.98031 17.6824 7.64912 17.7456C8.07388 17.7857 8.53493 17.8262 9.00939 17.8627C9.00315 17.9371 9 18.0129 9 18.09C9 19.7401 10.3871 21 12 21C13.6129 21 15 19.7401 15 18.09C15 18.0128 14.9968 17.937 14.9906 17.8627C15.4584 17.8267 15.9132 17.7868 16.333 17.7473L19.2929 20.7071C19.6834 21.0976 20.3166 21.0976 20.7071 20.7071C21.0976 20.3166 21.0976 19.6834 20.7071 19.2929L4.70711 3.29289ZM12.9914 17.9804C12.6479 17.9929 12.3144 18 12 18C11.6856 18 11.3521 17.9929 11.0086 17.9804C11.0037 18.0079 11 18.0438 11 18.09C11 18.5497 11.4038 19 12 19C12.5962 19 13 18.5497 13 18.09C13 18.0439 12.9964 18.008 12.9914 17.9804Z" fill="black"/>
<path fill-rule="evenodd" clip-rule="evenodd" d="M19.5156 15.018C19.6426 15.2091 19.7851 15.4394 19.8797 15.6757L9.16251 4.9585C9.57383 3.79935 10.7153 3 12 3C13.6129 3 15 4.25992 15 5.90996C15 6.1322 14.9739 6.34262 14.9237 6.53963C14.9525 6.55089 14.9812 6.56235 15.0099 6.57403C16.0658 7.00462 17.2369 7.82464 17.536 9.30155C17.743 10.3242 17.7921 11.1163 17.8314 11.7495L17.8319 11.7578C17.8645 12.283 17.8888 12.4724 17.9417 12.6364C17.9926 12.7941 18.0897 12.9851 18.3971 13.4406C18.6076 13.7525 18.8194 14.0435 19.0211 14.3205L19.0299 14.3325C19.2017 14.5685 19.3739 14.805 19.5156 15.018ZM12 5C11.4038 5 11 5.45031 11 5.90996C11 5.98638 11.01 6.03463 11.0192 6.06329C11.3837 6.01849 11.7189 6 12 6C12.2811 6 12.6163 6.01849 12.9808 6.06329C12.9901 6.03425 13 5.98599 13 5.90996C13 5.45031 12.5962 5 12 5Z" fill="black"/>
</svg>
