<svg width="24" height="24" viewBox="0 0 24 24" fill="none" xmlns="http://www.w3.org/2000/svg">
<path fill-rule="evenodd" clip-rule="evenodd" d="M9 4C6.23858 4 4 6.23858 4 9V15C4 17.7614 6.23858 20 9 20H15C17.7614 20 20 17.7614 20 15V9C20 6.23858 17.7614 4 15 4H9Z" fill="black"/>
<mask id="path-2-outside-1_742_6683" maskUnits="userSpaceOnUse" x="9" y="1" width="14" height="14" fill="black">
<rect fill="white" x="9" y="1" width="14" height="14"/>
<path d="M14.8001 3.38724C14.2841 3.4835 13.9439 3.97981 14.0401 4.49578C14.1364 5.01174 14.6333 5.35187 15.1492 5.25564L15.1628 5.25313L15.2074 5.24499C15.2466 5.23786 15.3041 5.22752 15.3763 5.21484C15.5207 5.18945 15.7229 5.15487 15.953 5.1182C16.4206 5.04369 16.9765 4.96497 17.398 4.93316C17.5056 4.92504 17.6213 4.9187 17.7421 4.91388L11.2784 11.3776C10.9072 11.7488 10.9072 12.3505 11.2784 12.7216C11.6495 13.0928 12.2512 13.0928 12.6224 12.7216L19.0861 6.25792C19.0813 6.37872 19.075 6.49442 19.0668 6.60205C19.035 7.02354 18.9563 7.57943 18.8818 8.04699C18.8451 8.27712 18.8105 8.47928 18.7852 8.62374C18.7725 8.69589 18.7621 8.75344 18.755 8.79266L18.7469 8.8372L18.7442 8.85137C18.648 9.36733 18.9883 9.86361 19.5042 9.95986C20.0202 10.0561 20.5166 9.71536 20.6129 9.19939L20.6162 9.18153L20.6251 9.13234C20.6329 9.08991 20.6438 9.02877 20.6572 8.9527C20.6839 8.80071 20.7202 8.58835 20.7588 8.34611C20.8349 7.86897 20.9242 7.24884 20.9622 6.7451C21.0052 6.17517 21.0043 5.46631 20.9943 4.91968C20.9893 4.64216 20.9817 4.39844 20.9754 4.2239C20.9722 4.13654 20.9693 4.06628 20.9673 4.01751L20.9648 3.96097L20.9642 3.94921C20.9616 3.87815 20.9511 3.80894 20.9335 3.74246C20.9238 3.70593 20.9121 3.67029 20.8984 3.63569C20.8521 3.51835 20.7814 3.40838 20.6865 3.31349C20.5825 3.20947 20.4604 3.13461 20.3303 3.0889C20.2431 3.05816 20.1503 3.03983 20.0541 3.03593L20.0391 3.03524L19.9825 3.03275C19.9337 3.03066 19.8635 3.0278 19.7761 3.02464C19.6016 3.01831 19.3579 3.01072 19.0803 3.00565C18.5337 2.99568 17.8249 2.9948 17.2549 3.03782C16.7512 3.07583 16.131 3.16512 15.6539 3.24115C15.4117 3.27975 15.1993 3.31608 15.0473 3.34279C14.9712 3.35615 14.9101 3.36715 14.8677 3.37485L14.8185 3.38384L14.8001 3.38724Z"/>
</mask>
<path d="M14.8001 3.38724C14.2841 3.4835 13.9439 3.97981 14.0401 4.49578C14.1364 5.01174 14.6333 5.35187 15.1492 5.25564L15.1628 5.25313L15.2074 5.24499C15.2466 5.23786 15.3041 5.22752 15.3763 5.21484C15.5207 5.18945 15.7229 5.15487 15.953 5.1182C16.4206 5.04369 16.9765 4.96497 17.398 4.93316C17.5056 4.92504 17.6213 4.9187 17.7421 4.91388L11.2784 11.3776C10.9072 11.7488 10.9072 12.3505 11.2784 12.7216C11.6495 13.0928 12.2512 13.0928 12.6224 12.7216L19.0861 6.25792C19.0813 6.37872 19.075 6.49442 19.0668 6.60205C19.035 7.02354 18.9563 7.57943 18.8818 8.04699C18.8451 8.27712 18.8105 8.47928 18.7852 8.62374C18.7725 8.69589 18.7621 8.75344 18.755 8.79266L18.7469 8.8372L18.7442 8.85137C18.648 9.36733 18.9883 9.86361 19.5042 9.95986C20.0202 10.0561 20.5166 9.71536 20.6129 9.19939L20.6162 9.18153L20.6251 9.13234C20.6329 9.08991 20.6438 9.02877 20.6572 8.9527C20.6839 8.80071 20.7202 8.58835 20.7588 8.34611C20.8349 7.86897 20.9242 7.24884 20.9622 6.7451C21.0052 6.17517 21.0043 5.46631 20.9943 4.91968C20.9893 4.64216 20.9817 4.39844 20.9754 4.2239C20.9722 4.13654 20.9693 4.06628 20.9673 4.01751L20.9648 3.96097L20.9642 3.94921C20.9616 3.87815 20.9511 3.80894 20.9335 3.74246C20.9238 3.70593 20.9121 3.67029 20.8984 3.63569C20.8521 3.51835 20.7814 3.40838 20.6865 3.31349C20.5825 3.20947 20.4604 3.13461 20.3303 3.0889C20.2431 3.05816 20.1503 3.03983 20.0541 3.03593L20.0391 3.03524L19.9825 3.03275C19.9337 3.03066 19.8635 3.0278 19.7761 3.02464C19.6016 3.01831 19.3579 3.01072 19.0803 3.00565C18.5337 2.99568 17.8249 2.9948 17.2549 3.03782C16.7512 3.07583 16.131 3.16512 15.6539 3.24115C15.4117 3.27975 15.1993 3.31608 15.0473 3.34279C14.9712 3.35615 14.9101 3.36715 14.8677 3.37485L14.8185 3.38384L14.8001 3.38724Z" fill="black"/>
<path d="M14.8001 3.38724L14.4362 1.42062L14.4333 1.42116L14.8001 3.38724ZM14.0401 4.49578L12.0741 4.86256L12.0741 4.86256L14.0401 4.49578ZM14.8185 3.38384L14.4588 1.41645L14.4546 1.41723L14.8185 3.38384ZM14.8677 3.37485L14.5102 1.40705L14.508 1.40746L14.8677 3.37485ZM15.0473 3.34279L14.7012 1.37297L14.7012 1.37297L15.0473 3.34279ZM15.6539 3.24115L15.3392 1.26607L15.3392 1.26607L15.6539 3.24115ZM17.2549 3.03782L17.1044 1.04349L17.2549 3.03782ZM19.0803 3.00565L19.1168 1.00599H19.1168L19.0803 3.00565ZM19.7761 3.02464L19.8486 1.02595H19.8486L19.7761 3.02464ZM19.9825 3.03275L20.0705 1.03468L20.068 1.03457L19.9825 3.03275ZM20.0391 3.03524L20.1312 1.03736L20.127 1.03717L20.0391 3.03524ZM20.0541 3.03593L19.9619 5.03384L19.9731 5.03429L20.0541 3.03593ZM20.3303 3.0889L19.6652 4.97509L19.6673 4.97579L20.3303 3.0889ZM20.6865 3.31349L19.2723 4.72771V4.72771L20.6865 3.31349ZM20.8984 3.63569L19.0384 4.37075L19.0387 4.37158L20.8984 3.63569ZM20.9335 3.74246L18.9995 4.25198L19 4.25395L20.9335 3.74246ZM20.9642 3.94921L18.9656 4.02352L18.9659 4.03256L18.9664 4.04159L20.9642 3.94921ZM20.9648 3.96097L22.9628 3.87301L22.9626 3.86858L20.9648 3.96097ZM20.9673 4.01751L22.9654 3.93208L22.9653 3.92956L20.9673 4.01751ZM20.9754 4.2239L18.9767 4.29636L18.9767 4.29638L20.9754 4.2239ZM20.9943 4.91968L22.994 4.88319V4.88319L20.9943 4.91968ZM20.9622 6.7451L22.9565 6.89562V6.89561L20.9622 6.7451ZM20.7588 8.34611L22.7339 8.66086L22.7339 8.66085L20.7588 8.34611ZM20.6572 8.9527L18.6874 8.60657L18.6874 8.60658L20.6572 8.9527ZM20.6251 9.13234L22.5925 9.49204L22.593 9.48976L20.6251 9.13234ZM20.6162 9.18153L22.5828 9.54535L22.5835 9.54123L20.6162 9.18153ZM20.6129 9.19939L22.5789 9.56617L22.5795 9.56321L20.6129 9.19939ZM19.5042 9.95986L19.871 7.99378L19.871 7.99378L19.5042 9.95986ZM18.7442 8.85137L20.7103 9.21806L20.7109 9.21508L18.7442 8.85137ZM18.7469 8.8372L20.7135 9.2009L20.7143 9.19688L18.7469 8.8372ZM18.755 8.79266L20.7224 9.15233L20.7228 9.15008L18.755 8.79266ZM18.7852 8.62374L20.755 8.96988L20.755 8.96987L18.7852 8.62374ZM18.8818 8.04699L16.9067 7.73225L16.9067 7.73226L18.8818 8.04699ZM19.0668 6.60205L21.0612 6.75257V6.75257L19.0668 6.60205ZM19.0861 6.25792L21.0845 6.33776L21.2887 1.2269L17.6719 4.8437L19.0861 6.25792ZM12.6224 12.7216L11.2082 11.3074L12.6224 12.7216ZM11.2784 11.3776L12.6926 12.7918L11.2784 11.3776ZM17.7421 4.91388L19.1563 6.32809L22.7732 2.71127L17.6623 2.91547L17.7421 4.91388ZM17.398 4.93316L17.5485 6.92749L17.398 4.93316ZM15.953 5.1182L16.2678 7.09328L16.2678 7.09328L15.953 5.1182ZM15.3763 5.21484L15.7224 7.18466L15.7224 7.18466L15.3763 5.21484ZM15.2074 5.24499L14.8499 3.27718L14.8477 3.27759L15.2074 5.24499ZM15.1628 5.25313L14.8032 3.28573L14.7992 3.28647L15.1628 5.25313ZM15.1492 5.25564L14.7856 3.28898L14.7825 3.28955L15.1492 5.25564ZM14.4333 1.42116C12.8315 1.71999 11.7752 3.26075 12.0741 4.86256L16.0062 4.129C16.1125 4.69887 15.7368 5.24702 15.1669 5.35332L14.4333 1.42116ZM14.4546 1.41723L14.4362 1.42063L15.164 5.35386L15.1824 5.35046L14.4546 1.41723ZM14.508 1.40746L14.4588 1.41645L15.1782 5.35124L15.2273 5.34225L14.508 1.40746ZM14.7012 1.37297C14.621 1.38706 14.5561 1.39873 14.5102 1.40705L15.2251 5.34265C15.2641 5.33556 15.3215 5.32525 15.3935 5.31261L14.7012 1.37297ZM15.3392 1.26607C15.0842 1.3067 14.8611 1.34487 14.7012 1.37297L15.3935 5.31261C15.5375 5.28729 15.7392 5.2528 15.9686 5.21623L15.3392 1.26607ZM17.1044 1.04349C16.5142 1.08803 15.8265 1.18841 15.3392 1.26607L15.9686 5.21623C16.4356 5.14182 16.9882 5.06364 17.4054 5.03214L17.1044 1.04349ZM19.1168 1.00599C18.5585 0.995798 17.7722 0.993088 17.1044 1.04349L17.4054 5.03214C17.8775 4.99652 18.5089 4.99556 19.0439 5.00532L19.1168 1.00599ZM19.8486 1.02595C19.665 1.01929 19.4089 1.01132 19.1168 1.00599L19.0439 5.00532C19.3068 5.01012 19.5382 5.01732 19.7037 5.02332L19.8486 1.02595ZM20.068 1.03457C20.0153 1.03232 19.9407 1.02929 19.8486 1.02595L19.7037 5.02332C19.7863 5.02632 19.8522 5.029 19.8971 5.03092L20.068 1.03457ZM20.127 1.03717L20.0705 1.03468L19.8945 5.03081L19.9511 5.0333L20.127 1.03717ZM20.1462 1.03806L20.1312 1.03736L19.9469 5.03311L19.9619 5.03381L20.1462 1.03806ZM20.9953 1.2027C20.723 1.10668 20.4335 1.04966 20.1351 1.03757L19.9731 5.03429C19.8671 5.03 19.7632 5.00964 19.6652 4.97509L20.9953 1.2027ZM19.6673 4.97579C19.5208 4.92432 19.3846 4.84002 19.2723 4.72771L22.1007 1.89928C21.7804 1.57893 21.4 1.34489 20.9933 1.202L19.6673 4.97579ZM19.2723 4.72771C19.1701 4.6255 19.0907 4.50315 19.0384 4.37075L22.7584 2.90062C22.6134 2.53356 22.3927 2.19126 22.1007 1.89928L19.2723 4.72771ZM22.8675 3.23294C22.8375 3.11909 22.8009 3.00788 22.7581 2.89979L19.0387 4.37158C19.0233 4.33271 19.0102 4.29277 18.9995 4.25198L22.8675 3.23294ZM22.9628 3.8749C22.9546 3.65467 22.922 3.43887 22.867 3.23097L19 4.25395C18.9802 4.179 18.9685 4.10164 18.9656 4.02352L22.9628 3.8749ZM22.9626 3.86858L22.9621 3.85683L18.9664 4.04159L18.9669 4.05335L22.9626 3.86858ZM22.9653 3.92956L22.9628 3.87301L18.9667 4.04892L18.9692 4.10546L22.9653 3.92956ZM22.9741 4.15145C22.9707 4.05934 22.9677 3.98473 22.9654 3.93208L18.9691 4.10294C18.971 4.14783 18.9737 4.21375 18.9767 4.29636L22.9741 4.15145ZM22.994 4.88319C22.9887 4.59109 22.9807 4.33506 22.9741 4.15143L18.9767 4.29638C18.9827 4.46183 18.9899 4.69324 18.9947 4.95617L22.994 4.88319ZM22.9565 6.89561C23.0069 6.22781 23.0042 5.4415 22.994 4.88319L18.9947 4.95617C19.0044 5.49113 19.0035 6.12253 18.9679 6.59458L22.9565 6.89561ZM22.7339 8.66085C22.8116 8.17349 22.912 7.48583 22.9565 6.89562L18.9679 6.59458C18.9364 7.01184 18.8582 7.56445 18.7838 8.03137L22.7339 8.66085ZM22.627 9.29882C22.6551 9.13893 22.6933 8.91583 22.7339 8.66086L18.7838 8.03137C18.7472 8.26086 18.7127 8.46249 18.6874 8.60657L22.627 9.29882ZM22.593 9.48976C22.6013 9.44396 22.6129 9.37902 22.627 9.29881L18.6874 8.60658C18.6748 8.67851 18.6644 8.73587 18.6573 8.77492L22.593 9.48976ZM22.5835 9.54123L22.5925 9.49204L18.6578 8.77264L18.6488 8.82183L22.5835 9.54123ZM22.5795 9.56321L22.5828 9.54535L18.6495 8.81771L18.6462 8.83556L22.5795 9.56321ZM19.1374 11.9259C20.7407 12.225 22.2804 11.1666 22.5789 9.56617L18.6468 8.8326C18.7528 8.26416 19.2997 7.88721 19.871 7.99378L19.1374 11.9259ZM16.7781 8.48469C16.4794 10.0865 17.5357 11.6271 19.1374 11.9259L19.871 7.99378C20.4408 8.10009 20.8166 8.6482 20.7103 9.21806L16.7781 8.48469ZM16.7802 8.4735L16.7776 8.48767L20.7109 9.21508L20.7135 9.2009L16.7802 8.4735ZM16.7876 8.43298L16.7795 8.47753L20.7143 9.19688L20.7224 9.15233L16.7876 8.43298ZM16.8153 8.2776C16.8034 8.34565 16.7937 8.39943 16.7872 8.43524L20.7228 9.15008C20.7306 9.10746 20.7416 9.04614 20.755 8.96988L16.8153 8.2776ZM16.9067 7.73226C16.8721 7.94963 16.8393 8.14106 16.8153 8.27761L20.755 8.96987C20.7818 8.8175 20.8182 8.6046 20.8569 8.36173L16.9067 7.73226ZM17.0725 6.45154C17.0472 6.7864 16.9796 7.2746 16.9067 7.73225L20.8569 8.36174C20.933 7.88425 21.0228 7.26068 21.0612 6.75257L17.0725 6.45154ZM17.0877 6.17807C17.0836 6.28087 17.0785 6.37241 17.0725 6.45154L21.0612 6.75257C21.0714 6.61643 21.079 6.47657 21.0845 6.33776L17.0877 6.17807ZM17.6719 4.8437L11.2082 11.3074L14.0366 14.1359L20.5003 7.67213L17.6719 4.8437ZM11.2082 11.3074C11.6181 10.8975 12.2827 10.8975 12.6926 11.3074L9.86414 14.1359C11.0163 15.288 12.8844 15.288 14.0366 14.1359L11.2082 11.3074ZM12.6926 11.3074C13.1025 11.7173 13.1025 12.3819 12.6926 12.7918L9.86414 9.96341C8.71195 11.1156 8.71195 12.9837 9.86414 14.1359L12.6926 11.3074ZM12.6926 12.7918L19.1563 6.32809L16.3279 3.49966L9.86414 9.96341L12.6926 12.7918ZM17.5485 6.92749C17.6276 6.92152 17.7192 6.91639 17.822 6.91228L17.6623 2.91547C17.5235 2.92102 17.3836 2.92856 17.2475 2.93883L17.5485 6.92749ZM16.2678 7.09328C16.7254 7.02035 17.2136 6.95276 17.5485 6.92749L17.2475 2.93883C16.7393 2.97718 16.1158 3.06703 15.6383 3.14312L16.2678 7.09328ZM15.7224 7.18466C15.8589 7.16067 16.0504 7.12792 16.2678 7.09328L15.6383 3.14312C15.3954 3.18182 15.1825 3.21824 15.0301 3.24502L15.7224 7.18466ZM15.5648 7.21279C15.6006 7.20628 15.6544 7.19661 15.7224 7.18466L15.0301 3.24502C14.9539 3.25842 14.8925 3.26945 14.8499 3.27718L15.5648 7.21279ZM15.5225 7.22053L15.567 7.21239L14.8477 3.27759L14.8032 3.28573L15.5225 7.22053ZM15.5129 7.2223L15.5265 7.21979L14.7992 3.28647L14.7856 3.28898L15.5129 7.2223ZM12.0741 4.86256C12.3732 6.46589 13.9157 7.52018 15.5159 7.22174L14.7825 3.28955C15.3508 3.18356 15.8996 3.55759 16.0062 4.129L12.0741 4.86256Z" fill="white" mask="url(#path-2-outside-1_742_6683)"/>
</svg>
