<svg width="24" height="24" viewBox="0 0 24 24" fill="none" xmlns="http://www.w3.org/2000/svg">
<path d="M7.45247 4C7.04811 3.99998 6.68633 3.99996 6.38577 4.02452C6.06454 4.05076 5.7262 4.10997 5.39536 4.27854C4.9145 4.52355 4.52355 4.9145 4.27854 5.39536C4.10997 5.7262 4.05076 6.06454 4.02452 6.38577C3.99996 6.68633 3.99998 7.04806 4 7.45242V16.5475C3.99998 16.9519 3.99996 17.3137 4.02452 17.6142C4.05076 17.9355 4.10997 18.2738 4.27854 18.6046C4.52355 19.0855 4.9145 19.4765 5.39536 19.7215C5.72621 19.89 6.06454 19.9492 6.38578 19.9755C6.68631 20 7.04801 20 7.45234 20H7.992C8.39633 20 8.75815 20 9.05868 19.9755C9.37991 19.9492 9.71825 19.89 10.0491 19.7215C10.5299 19.4765 10.9209 19.0855 11.1659 18.6046C11.3345 18.2738 11.3937 17.9355 11.4199 17.6142C11.4445 17.3137 11.4445 16.9519 11.4444 16.5476V7.45247C11.4445 7.0481 11.4445 6.68633 11.4199 6.38577C11.3937 6.06454 11.3345 5.7262 11.1659 5.39536C10.9209 4.9145 10.5299 4.52355 10.0491 4.27854C9.71825 4.10997 9.37991 4.05076 9.05868 4.02452C8.75813 3.99996 8.39639 3.99998 7.99203 4H7.45247Z" fill="black"/>
<path d="M16.5475 4H16.008C15.6037 3.99998 15.2419 3.99996 14.9413 4.02452C14.6201 4.05076 14.2818 4.10997 13.9509 4.27854C13.4701 4.52355 13.0791 4.9145 12.8341 5.39536C12.6655 5.7262 12.6063 6.06454 12.5801 6.38577C12.5555 6.68632 12.5555 7.04805 12.5556 7.4524V16.5475C12.5555 16.9519 12.5555 17.3137 12.5801 17.6142C12.6063 17.9355 12.6655 18.2738 12.8341 18.6046C13.0791 19.0855 13.4701 19.4765 13.9509 19.7215C14.2818 19.89 14.6201 19.9492 14.9413 19.9755C15.2419 20 15.6036 20 16.0079 20H16.5476C16.9519 20 17.3137 20 17.6142 19.9755C17.9355 19.9492 18.2738 19.89 18.6046 19.7215C19.0855 19.4765 19.4765 19.0855 19.7215 18.6046C19.89 18.2738 19.9492 17.9355 19.9755 17.6142C20 17.3137 20 16.952 20 16.5477V7.45245C20 7.04812 20 6.68631 19.9755 6.38578C19.9492 6.06454 19.89 5.72621 19.7215 5.39536C19.4765 4.9145 19.0855 4.52355 18.6046 4.27854C18.2738 4.10997 17.9355 4.05076 17.6142 4.02452C17.3137 3.99996 16.9519 3.99998 16.5475 4Z" fill="black"/>
</svg>
