<svg width="24" height="24" viewBox="0 0 24 24" fill="none" xmlns="http://www.w3.org/2000/svg">
<path fill-rule="evenodd" clip-rule="evenodd" d="M6 7C6 4.79086 7.79086 3 10 3C12.2091 3 14 4.79086 14 7C14 9.20914 12.2091 11 10 11C7.79086 11 6 9.20914 6 7ZM8.09013 13H11.9098C12.4035 13 12.8277 13 13.1801 13.0263C13.5531 13.0541 13.9163 13.1149 14.2745 13.273C15.6274 13.8699 16.5187 15.3056 16.8497 16.8928C17.2895 19.0014 15.478 20.5964 13.7041 20.7732C12.5434 20.8889 11.1386 21 9.99999 21C8.86136 21 7.45652 20.8889 6.29584 20.7732C4.52195 20.5964 2.71048 19.0014 3.15023 16.8928C3.48124 15.3056 4.37254 13.8699 5.72545 13.273C6.08368 13.1149 6.44685 13.0541 6.81987 13.0263C7.17228 13 7.59652 13 8.09013 13ZM14.5 11C14.0686 11 13.6554 10.922 13.2739 10.7792C13.8337 10.2938 14.2846 9.6861 14.585 8.99763C15.3739 8.95357 16 8.2999 16 7.5C16 6.81417 15.5397 6.23584 14.9112 6.05707C14.7686 5.30971 14.4596 4.62137 14.0242 4.03206C14.1798 4.01092 14.3386 4 14.5 4C16.433 4 18 5.567 18 7.5C18 9.433 16.433 11 14.5 11ZM17.5747 20H17.0949C17.5141 19.4247 17.8122 18.7317 17.8944 17.9649C18.1808 17.9022 18.4445 17.7596 18.6354 17.5708C18.8855 17.3237 18.9688 17.0504 18.9134 16.7849C18.7112 15.8153 18.2269 15.2501 17.822 15.0715C17.7899 15.0573 17.718 15.032 17.5137 15.0168C17.4396 15.0113 17.3576 15.0076 17.2637 15.0051C16.8955 14.2358 16.3842 13.5348 15.7248 13H16.5961C17.0035 13 17.3625 13 17.6625 13.0223C17.983 13.0463 18.3066 13.0993 18.6294 13.2417C19.8225 13.7681 20.5887 15.0219 20.8713 16.3766C21.0894 17.4223 20.6835 18.3587 20.0413 18.9934C19.4095 19.6177 18.5099 20 17.5747 20Z" fill="black"/>
</svg>
