<svg width="24" height="24" viewBox="0 0 24 24" fill="none" xmlns="http://www.w3.org/2000/svg">
<path d="M12 3C9.25831 3 7.0625 5.25348 7.0625 8C7.0625 10.7465 9.25831 13 12 13C14.0332 13 15.7662 11.7607 16.5261 10H14C12.3431 10 11 8.65685 11 7C11 5.34315 12.3431 4 14 4H14.9636C14.14 3.37282 13.1152 3 12 3Z" fill="black"/>
<path d="M13 7C13 7.55228 13.4477 8 14 8H20C20.5523 8 21 7.55228 21 7C21 6.44772 20.5523 6 20 6H14C13.4477 6 13 6.44772 13 7Z" fill="black"/>
<path d="M12 14C10.6671 14 9.00518 14.1037 7.63753 14.211C5.55541 14.3743 4 16.1248 4 18.1818C4 19.4653 4.96881 20.5554 6.26549 20.6729C7.74733 20.8072 10.1842 21 12 21C13.8158 21 16.2527 20.8072 17.7345 20.6729C19.0312 20.5554 20 19.4653 20 18.1818C20 16.1247 18.4446 14.3743 16.3625 14.211C14.9948 14.1037 13.3329 14 12 14Z" fill="black"/>
</svg>
