<svg width="24" height="24" viewBox="0 0 24 24" fill="none" xmlns="http://www.w3.org/2000/svg">
<path d="M9.81779 4.73374C11.1782 4.9536 13.03 5.28527 14.3843 5.64818C15.7385 6.01101 17.5076 6.6495 18.7956 7.13927C19.2456 7.31038 19.501 7.80114 19.3693 8.2919C18.5196 11.459 18.0242 13.309 17.1764 16.4765C17.1403 16.6113 17.0789 16.7316 16.999 16.8334L16.9993 17.9623C17.0002 17.9872 17.0002 18.012 16.9993 18.0368L16.9995 18.7361C16.9994 18.4963 16.9994 18.2631 16.9993 18.0368C16.99 18.2852 16.8887 18.5312 16.6961 18.7178C16.2996 19.1023 15.6666 19.0926 15.2821 18.6961L13.3428 16.6961C13.2949 16.6467 13.2397 16.6092 13.1812 16.5842C13.1228 16.5593 13.0613 16.5469 13 16.5469C12.9387 16.5469 12.8772 16.5593 12.8188 16.5842C12.7603 16.6092 12.7051 16.6467 12.6572 16.6961L12.3929 16.9687L12.7179 17.3038C13.1024 17.7003 13.0926 18.3334 12.6961 18.7178C12.2996 19.1023 11.6666 19.0926 11.2821 18.6961L7.84276 15.1492C7.79486 15.0998 7.73968 15.0623 7.6812 15.0373C7.62279 15.0124 7.56131 14.9999 7.5 14.9999C7.43869 14.9999 7.37721 15.0124 7.3188 15.0373C7.26032 15.0623 7.20514 15.0998 7.15725 15.1492L3.71791 18.6961C3.33345 19.0926 2.70036 19.1023 2.30386 18.7178C2.10163 18.5217 2.00001 18.261 2 17.9999V18.7369C2 20.2442 3.12368 21.5355 4.64958 21.691C6.02721 21.8314 7.98851 21.9999 9.5 21.9999C11.0113 21.9999 12.9723 21.8314 14.3499 21.6911C15.7482 21.5485 16.8086 20.4523 16.9763 19.1102C17.9928 18.8514 18.8243 18.0552 19.1084 16.9936C19.9561 13.8263 20.4514 11.9767 21.301 8.81018C21.6917 7.35406 20.9406 5.81518 19.5065 5.26985C18.2122 4.7777 16.3617 4.10746 14.902 3.71632C13.442 3.32512 11.5039 2.98029 10.1369 2.75936C8.62272 2.51465 7.20312 3.47113 6.81301 4.92702L6.21365 7.16385C6.90053 7.10705 7.62753 7.0569 8.32075 7.02748L8.74486 5.44466C8.87631 4.9541 9.34265 4.65695 9.81779 4.73374Z" fill="black"/>
<path fill-rule="evenodd" clip-rule="evenodd" d="M2 17.9999C2.00001 17.7491 2.09375 17.498 2.28209 17.3038L5.72142 13.7569C5.9521 13.519 6.22765 13.3286 6.53314 13.1981C6.83871 13.0676 7.16734 12.9999 7.5 12.9999C7.83266 12.9999 8.16129 13.0676 8.46686 13.1981C8.77236 13.3286 9.04789 13.519 9.27858 13.7569L11 15.5322L11.2214 15.3038C11.4521 15.0659 11.7276 14.8755 12.0331 14.745C12.3387 14.6145 12.6673 14.5469 13 14.5469C13.3327 14.5469 13.6613 14.6145 13.9669 14.745C14.2724 14.8755 14.5479 15.0659 14.7786 15.3038L16.7179 17.3038C16.8967 17.4882 16.9903 17.7244 16.9993 17.9623C16.9985 15.1375 16.9983 13.2759 16.9993 10.264C16.9998 8.75642 15.8761 7.46437 14.3497 7.30881C12.9721 7.16841 11.0112 6.99994 9.5 6.99994C7.98851 6.99994 6.02721 7.16847 4.64958 7.30888C3.12368 7.4644 2 8.75571 2 10.263V17.9999ZM11 11.9999C11 11.4477 11.4477 10.9999 12 10.9999C12.5523 10.9999 13 11.4477 13 11.9999C13 12.5522 12.5523 12.9999 12 12.9999C11.4477 12.9999 11 12.5522 11 11.9999Z" fill="black"/>
</svg>
