<svg width="24" height="24" viewBox="0 0 24 24" fill="none" xmlns="http://www.w3.org/2000/svg">
<path fill-rule="evenodd" clip-rule="evenodd" d="M11 3.95082C11 2.87948 11.8934 1.87754 13.1081 2.01161C17.7464 2.52351 21.4273 6.20438 21.9392 10.8427C22.0733 12.0575 21.0713 12.9508 20 12.9508L13 12.9508C11.8954 12.9508 11 12.0554 11 10.9508V3.95082ZM20.0288 15.0005C20.19 14.9946 20.3549 15.0277 20.5095 15.1046C21.0041 15.3504 21.2058 15.9505 20.96 16.4451C19.3249 19.7354 15.9278 22.0001 12 22.0001C6.47715 22.0001 2 17.5229 2 12.0001C2 8.12874 4.20013 4.77295 7.41358 3.11176C7.58124 3.02509 7.76206 2.99048 7.93759 3.00204C7.95823 3.00077 7.97904 3.00012 8 3.00012C8.55228 3.00012 9 3.44784 9 4.00012V13.0001H9.00002C9.00478 14.1034 9.89489 14.9966 10.9935 15.0001H20L20.0074 15.0001L20.0288 15.0005Z" fill="black"/>
</svg>
