<svg width="24" height="24" viewBox="0 0 24 24" fill="none" xmlns="http://www.w3.org/2000/svg">
<path d="M10.0477 6.81182L9.22564 7.63387L7.47828 7.7097C7.44437 7.71113 7.37471 7.71406 7.30219 7.72059C7.24063 7.72613 7.17897 7.73361 7.11787 7.74295C7.04592 7.75395 6.97791 7.7677 6.94482 7.77439L6.93192 7.77699C6.63721 7.83615 6.284 7.90706 5.98151 8.00171C5.68859 8.09336 5.14149 8.2926 4.69613 8.79452C4.16007 9.39866 3.91527 10.2072 4.02619 11.0072C4.11788 11.6686 4.45952 12.1361 4.65216 12.3752C4.84441 12.6138 5.08775 12.8592 5.29424 13.0662L7.0492 15.5366L3.2929 19.2929C2.90237 19.6834 2.90237 20.3166 3.29289 20.7071C3.68341 21.0976 4.31697 21.0972 4.70749 20.7067L8.46342 16.9508L10.9339 18.7058C11.1408 18.9123 11.3862 19.1556 11.6248 19.3479C11.864 19.5405 12.3314 19.8821 12.9928 19.9738C13.7929 20.0847 14.6014 19.8399 15.2055 19.3039C15.7074 18.8585 15.9067 18.3114 15.9983 18.0185C16.093 17.716 16.1639 17.3628 16.223 17.0681L16.2256 17.0552C16.2323 17.0221 16.2461 16.9541 16.2571 16.8821C16.2664 16.821 16.2739 16.7594 16.2794 16.6978C16.286 16.6253 16.2889 16.5556 16.2903 16.5217L16.2907 16.5126L16.3662 14.7744L17.1882 13.9523L18.5449 13.5038C18.5991 13.4859 18.6525 13.4657 18.7049 13.4432L18.7524 13.4228C18.9864 13.3227 19.2708 13.201 19.5077 13.073C19.7656 12.9336 20.2133 12.6626 20.5475 12.1531C20.9467 11.5444 21.0896 10.8028 20.9449 10.0893C20.8361 9.55255 20.5723 9.1655 20.3908 8.935C20.2248 8.72421 20.0258 8.5212 19.8693 8.36362C19.6102 7.96185 18.811 6.74844 18.0313 5.96871C17.2516 5.18899 16.0382 4.38977 15.6364 4.13072C15.4788 3.97418 15.2758 3.77527 15.065 3.60925C14.8345 3.4277 14.4475 3.16389 13.9107 3.05508C13.1973 2.91045 12.4556 3.05329 11.8469 3.45252C11.3374 3.7867 11.0664 4.23446 10.927 4.49237C10.7991 4.7292 10.6773 5.01362 10.5772 5.24762L10.5568 5.2951C10.5344 5.34756 10.5141 5.40096 10.4962 5.45515L10.0477 6.81182Z" fill="black"/>
</svg>
