<svg width="24" height="24" viewBox="0 0 24 24" fill="none" xmlns="http://www.w3.org/2000/svg">
<path fill-rule="evenodd" clip-rule="evenodd" d="M4.06955 8.62409C4.59362 4.84481 7.98151 2 12 2C16.0855 2 19.5211 4.9418 19.9544 8.81551C19.9847 9.02114 20 9.23097 20 9.44454C20 9.47676 19.9998 9.50898 19.9994 9.5412C19.9998 9.57228 20 9.60339 20 9.63453C20 10.354 19.8954 11.0516 19.6997 11.7134C19.1446 13.8875 17.8979 15.9641 16.647 17.6447C15.3838 19.3418 14.0667 20.7004 13.3119 21.4332C12.5835 22.1403 11.4426 22.1614 10.69 21.4744C9.88001 20.735 8.44894 19.33 7.12084 17.5228C5.80321 15.7297 4.53386 13.4694 4.13132 11.0188C4.04498 10.5692 4 10.1064 4 9.63453C4 9.60449 4.00018 9.57448 4.00055 9.54451C4.00018 9.51122 4 9.47789 4 9.44454C4 9.16363 4.02336 8.8899 4.06955 8.62409ZM9 10C9 8.34315 10.3431 7 12 7C13.6569 7 15 8.34315 15 10C15 11.6569 13.6569 13 12 13C10.3431 13 9 11.6569 9 10Z" fill="black"/>
</svg>
