<svg width="24" height="24" viewBox="0 0 24 24" fill="none" xmlns="http://www.w3.org/2000/svg">
<path d="M9.30662 4.77177C9.05059 4.58594 8.8038 4.40681 8.59037 4.28092C8.38089 4.15736 8.02979 3.9748 7.59754 4.0029C7.06857 4.03727 6.60822 4.32029 6.32149 4.73283C6.09341 5.06098 6.04241 5.42831 6.02136 5.67842C5.99995 5.93277 5.99997 6.24815 6 6.58777L6 17.4122C5.99997 17.7518 5.99995 18.0672 6.02136 18.3216C6.04241 18.5717 6.09341 18.939 6.32149 19.2672C6.60822 19.6797 7.06857 19.9627 7.59754 19.9971C8.02979 20.0252 8.38089 19.8426 8.59037 19.7191C8.8038 19.5932 9.05059 19.4141 9.30662 19.2282L16.7752 13.8089C16.9851 13.6567 17.1945 13.5048 17.3579 13.3614C17.5343 13.2065 17.7547 12.9805 17.8807 12.6497C18.0398 12.2324 18.0398 11.7676 17.8807 11.3503C17.7547 11.0195 17.5343 10.7934 17.3579 10.6386C17.1945 10.4952 16.985 10.3433 16.7752 10.1911L9.30662 4.77177Z" fill="black"/>
</svg>
