<svg width="24" height="24" viewBox="0 0 24 24" fill="none" xmlns="http://www.w3.org/2000/svg">
<path fill-rule="evenodd" clip-rule="evenodd" d="M12.0039 3C12.5562 3 13.0039 3.44772 13.0039 4V11.9988C13.0039 12.5511 12.5562 12.9988 12.0039 12.9988C11.4516 12.9988 11.0039 12.5511 11.0039 11.9988V4C11.0039 3.44772 11.4516 3 12.0039 3ZM7.74646 6.9944C8.14248 7.37935 8.15145 8.01245 7.7665 8.40847C6.92539 9.27378 6.34961 10.3795 6.11617 11.5872C5.88269 12.7951 6.00295 14.0468 6.46062 15.1828C6.91821 16.3187 7.69118 17.285 8.67756 17.9627C9.66358 18.6402 10.8197 19 12 19C13.1803 19 14.3364 18.6402 15.3224 17.9627C16.3088 17.285 17.0818 16.3187 17.5394 15.1828C17.997 14.0468 18.1173 12.7951 17.8838 11.5872C17.6504 10.3795 17.0746 9.27378 16.2335 8.40847C15.8485 8.01245 15.8575 7.37935 16.2535 6.9944C16.6496 6.60945 17.2827 6.61842 17.6676 7.01444C18.784 8.16291 19.5411 9.62265 19.8475 11.2077C20.1538 12.7926 19.9966 14.4357 19.3945 15.9302C18.7923 17.4249 17.7709 18.707 16.4551 19.6111C15.1389 20.5155 13.5885 21 12 21C10.4115 21 8.86111 20.5155 7.54494 19.6111C6.22912 18.707 5.20768 17.4249 4.6055 15.9302C4.00342 14.4357 3.84616 12.7926 4.15251 11.2077C4.45889 9.62265 5.21603 8.16291 6.33239 7.01444C6.71734 6.61842 7.35044 6.60945 7.74646 6.9944Z" fill="black"/>
</svg>
