<svg width="24" height="24" viewBox="0 0 24 24" fill="none" xmlns="http://www.w3.org/2000/svg">
<path d="M6 5C6 4.44772 5.55228 4 5 4C4.44772 4 4 4.44772 4 5V19C4 19.5523 4.44772 20 5 20C5.55228 20 6 19.5523 6 19V5Z" fill="black"/>
<path d="M19.5631 4.83292C19.1831 4.3569 18.6069 4.07997 17.9978 4.08063C17.5133 4.08115 17.1123 4.30911 16.829 4.49643C16.5388 4.68824 16.1968 4.96191 15.8105 5.27095L9.90853 9.99254C9.66624 10.1863 9.4362 10.3703 9.25837 10.5402C9.06773 10.7223 8.85308 10.9642 8.72788 11.2984C8.55842 11.7508 8.55842 12.2492 8.72788 12.7016C8.85308 13.0358 9.06773 13.2777 9.25837 13.4598C9.43621 13.6297 9.66627 13.8137 9.90858 14.0075L15.8105 18.729C16.1968 19.0381 16.5388 19.3118 16.829 19.5036C17.1123 19.6909 17.5133 19.9189 17.9978 19.9194C18.6069 19.92 19.1831 19.6431 19.5631 19.1671C19.8654 18.7884 19.9379 18.3329 19.9686 17.9946C20.0001 17.6482 20 17.2102 20 16.7155V7.28453C20 6.78985 20.0001 6.35179 19.9686 6.00542C19.9379 5.66715 19.8654 5.2116 19.5631 4.83292Z" fill="black"/>
</svg>
