<svg width="24" height="24" viewBox="0 0 24 24" fill="none" xmlns="http://www.w3.org/2000/svg">
<path fill-rule="evenodd" clip-rule="evenodd" d="M10.2883 3.00006C10.6109 2.99964 10.9239 2.99924 11.2291 3.07251C11.4964 3.13668 11.7519 3.24253 11.9863 3.38616C12.2539 3.55015 12.4749 3.77174 12.7027 4.00014L18.993 10.2905C19.4501 10.7475 19.8353 11.1327 20.1249 11.4739C20.4281 11.8311 20.685 12.2053 20.8322 12.6583C21.056 13.347 21.056 14.089 20.8322 14.7778C20.685 15.2307 20.4282 15.605 20.1249 15.9621C19.8353 16.3034 19.4501 16.6885 18.9931 17.1455L17.1454 18.9932C16.6884 19.4502 16.3032 19.8354 15.962 20.1251C15.6048 20.4283 15.2306 20.6851 14.7777 20.8323C14.0889 21.0561 13.3469 21.0561 12.6581 20.8323C12.2052 20.6851 11.831 20.4283 11.4738 20.1251C11.1326 19.8354 10.7474 19.4502 10.2904 18.9932L4.00003 12.7029C3.77162 12.4751 3.55003 12.254 3.38604 11.9864C3.2424 11.752 3.13656 11.4965 3.07239 11.2292C2.99912 10.924 2.99952 10.611 2.99994 10.2885L3 6.55478C2.99998 6.13274 2.99996 5.75759 3.02539 5.44635C3.05251 5.11443 3.11346 4.76818 3.28553 4.43048C3.53668 3.93756 3.93744 3.53681 4.43036 3.28565C4.76806 3.11359 5.11431 3.05263 5.44623 3.02551C5.75746 3.00009 6.13262 3.0001 6.55466 3.00013L10.2883 3.00006ZM7 8.50012C7 7.67169 7.67157 7.00012 8.5 7.00012C9.32843 7.00012 10 7.67169 10 8.50012C10 9.32855 9.32843 10.0001 8.5 10.0001C7.67157 10.0001 7 9.32855 7 8.50012Z" fill="black"/>
</svg>
