<svg width="24" height="24" viewBox="0 0 24 24" fill="none" xmlns="http://www.w3.org/2000/svg">
<path fill-rule="evenodd" clip-rule="evenodd" d="M19 5.14641C19 3.9325 17.9345 3.01006 16.7476 3.14854C15.4811 3.29631 13.4613 3.50003 12 3.50003C10.5387 3.50003 8.51892 3.29631 7.25243 3.14854C6.06551 3.01006 5 3.9325 5 5.14641V7.30813C4.85728 7.32149 4.72332 7.33667 4.59864 7.35498C4.23007 7.40913 3.86847 7.49967 3.5196 7.6976C2.99583 7.99477 2.56434 8.45481 2.30131 8.99653C2.12529 9.35905 2.05859 9.72919 2.02837 10.103C1.99997 10.4542 1.99999 10.877 2 11.3628V14.6372C1.99999 15.1231 1.99997 15.5458 2.02837 15.897C2.05859 16.2708 2.12529 16.641 2.30131 17.0035C2.56434 17.5452 2.99583 18.0052 3.5196 18.3024C3.86847 18.5003 4.23007 18.5909 4.59864 18.645C4.80677 18.6756 5.04076 18.6974 5.29823 18.7166C5.03806 19.8539 5.80863 20.9933 6.99731 21.1323C8.26255 21.2803 10.4013 21.5 12 21.5C13.5987 21.5 15.7374 21.2803 17.0027 21.1323C18.1914 20.9933 18.9619 19.8539 18.7018 18.7166C18.9592 18.6974 19.1932 18.6756 19.4014 18.645C19.7699 18.5909 20.1315 18.5003 20.4804 18.3024C21.0042 18.0052 21.4357 17.5452 21.6987 17.0035C21.8747 16.641 21.9414 16.2708 21.9716 15.897C22 15.5458 22 15.123 22 14.6371V11.3629C22 10.877 22 10.4542 21.9716 10.103C21.9414 9.7292 21.8747 9.35905 21.6987 8.99653C21.4357 8.45481 21.0042 7.99477 20.4804 7.6976C20.1315 7.49967 19.7699 7.40913 19.4014 7.35498C19.2767 7.33667 19.1427 7.32149 19 7.30813V5.14641ZM7.25151 19.1484L7.99558 16.2548C8.97569 16.1566 10.743 16 12 16C13.257 16 15.0243 16.1566 16.0044 16.2548L16.7485 19.1484C15.4825 19.2961 13.4619 19.5 12 19.5C10.5381 19.5 8.51747 19.2961 7.25151 19.1484ZM17 7.17606V5.14641L16.9999 5.14471C16.9995 5.144 16.9984 5.14243 16.9962 5.14051C16.9931 5.13779 16.99 5.1362 16.9878 5.13549C16.9873 5.13534 16.9869 5.13522 16.9864 5.13513C16.9859 5.13503 16.9855 5.13495 16.985 5.13491C16.9842 5.13482 16.9824 5.13471 16.9793 5.13507C15.7118 5.28296 13.5892 5.50003 12 5.50003C10.4108 5.50003 8.28824 5.28296 7.02066 5.13507C7.01761 5.13471 7.01584 5.13482 7.015 5.13491C7.01408 5.135 7.01321 5.13518 7.01223 5.13549C7.01003 5.1362 7.00688 5.13779 7.0038 5.14051C7.00162 5.14243 7.00051 5.144 7.00006 5.14471L7 5.14641V7.17606C8.63295 7.08201 10.4884 7 12 7C13.5116 7 15.3671 7.08201 17 7.17606ZM16 12C16 11.4477 16.4477 11 17 11C17.5523 11 18 11.4477 18 12C18 12.5523 17.5523 13 17 13C16.4477 13 16 12.5523 16 12ZM13 12C13 11.4477 13.4477 11 14 11C14.5523 11 15 11.4477 15 12C15 12.5523 14.5523 13 14 13C13.4477 13 13 12.5523 13 12Z" fill="black"/>
</svg>
