<svg width="24" height="24" viewBox="0 0 24 24" fill="none" xmlns="http://www.w3.org/2000/svg">
<path d="M6 7C6 6.44772 6.44772 6 7 6C7.55228 6 8 6.44772 8 7C8 7.55228 7.55228 8 7 8C6.44772 8 6 7.55228 6 7Z" fill="black"/>
<path fill-rule="evenodd" clip-rule="evenodd" d="M5.30676 3.1821C5.83067 3.08707 6.45163 3 7 3C7.54837 3 8.16933 3.08707 8.69324 3.1821C10.1039 3.43798 11 4.69215 11 6.02293V7.97707C11 9.30785 10.1039 10.562 8.69324 10.8179C8.16933 10.9129 7.54837 11 7 11C6.45163 11 5.83067 10.9129 5.30676 10.8179C3.89607 10.562 3 9.30785 3 7.97707V6.02293C3 4.69215 3.89607 3.43798 5.30676 3.1821ZM7 5C6.63123 5 6.14884 5.06199 5.66371 5.14999C5.30387 5.21526 5 5.55428 5 6.02293V7.97707C5 8.44572 5.30387 8.78474 5.66371 8.85001C6.14884 8.93801 6.63123 9 7 9C7.36877 9 7.85116 8.93801 8.33629 8.85001C8.69613 8.78474 9 8.44572 9 7.97707V6.02293C9 5.55428 8.69613 5.21526 8.33629 5.14999C7.85116 5.06199 7.36877 5 7 5Z" fill="black"/>
<path d="M17 6C16.4477 6 16 6.44772 16 7C16 7.55228 16.4477 8 17 8C17.5523 8 18 7.55228 18 7C18 6.44772 17.5523 6 17 6Z" fill="black"/>
<path fill-rule="evenodd" clip-rule="evenodd" d="M15.3068 3.1821C15.8307 3.08707 16.4516 3 17 3C17.5484 3 18.1693 3.08707 18.6932 3.1821C20.1039 3.43798 21 4.69215 21 6.02293V7.97707C21 9.30785 20.1039 10.562 18.6932 10.8179C18.1693 10.9129 17.5484 11 17 11C16.4516 11 15.8307 10.9129 15.3068 10.8179C13.8961 10.562 13 9.30785 13 7.97707V6.02293C13 4.69215 13.8961 3.43798 15.3068 3.1821ZM17 5C16.6312 5 16.1488 5.06199 15.6637 5.14999C15.3039 5.21526 15 5.55428 15 6.02293V7.97707C15 8.44572 15.3039 8.78474 15.6637 8.85001C16.1488 8.93801 16.6312 9 17 9C17.3688 9 17.8512 8.93801 18.3363 8.85001C18.6961 8.78474 19 8.44572 19 7.97707V6.02293C19 5.55428 18.6961 5.21526 18.3363 5.14999C17.8512 5.06199 17.3688 5 17 5Z" fill="black"/>
<path d="M6 17C6 16.4477 6.44772 16 7 16C7.55228 16 8 16.4477 8 17C8 17.5523 7.55228 18 7 18C6.44772 18 6 17.5523 6 17Z" fill="black"/>
<path fill-rule="evenodd" clip-rule="evenodd" d="M7 13C6.45163 13 5.83067 13.0871 5.30676 13.1821C3.89607 13.438 3 14.6922 3 16.0229V17.9771C3 19.3078 3.89607 20.562 5.30676 20.8179C5.83067 20.9129 6.45163 21 7 21C7.54837 21 8.16933 20.9129 8.69324 20.8179C10.1039 20.562 11 19.3078 11 17.9771V16.0229C11 14.6922 10.1039 13.438 8.69324 13.1821C8.16933 13.0871 7.54837 13 7 13ZM5.66371 15.15C6.14884 15.062 6.63123 15 7 15C7.36877 15 7.85116 15.062 8.33629 15.15C8.69613 15.2153 9 15.5543 9 16.0229V17.9771C9 18.4457 8.69613 18.7847 8.33629 18.85C7.85116 18.938 7.36877 19 7 19C6.63123 19 6.14884 18.938 5.66371 18.85C5.30387 18.7847 5 18.4457 5 17.9771V16.0229C5 15.5543 5.30387 15.2153 5.66371 15.15Z" fill="black"/>
<path d="M21 15C21 14.4477 20.5523 14 20 14C19.4477 14 19 14.4477 19 15V16C19 16.5523 19.4477 17 20 17C20.5523 17 21 16.5523 21 16V15Z" fill="black"/>
<path d="M20 18C20.5523 18 21 18.4477 21 19V20C21 20.5523 20.5523 21 20 21C19.4477 21 19 20.5523 19 20V19C19 18.4477 19.4477 18 20 18Z" fill="black"/>
<path d="M13 15C13 14.4477 13.4477 14 14 14H16C16.5523 14 17 14.4477 17 15C17 15.5523 16.5523 16 16 16H15V17C15 17.5523 14.5523 18 14 18C13.4477 18 13 17.5523 13 17V15Z" fill="black"/>
<path d="M17 17C17.5523 17 18 17.4477 18 18V20C18 20.5523 17.5523 21 17 21C16.4477 21 16 20.5523 16 20V18C16 17.4477 16.4477 17 17 17Z" fill="black"/>
<path d="M14 19C13.4477 19 13 19.4477 13 20C13 20.5523 13.4477 21 14 21C14.5523 21 15 20.5523 15 20C15 19.4477 14.5523 19 14 19Z" fill="black"/>
</svg>
