<svg width="24" height="24" viewBox="0 0 24 24" fill="none" xmlns="http://www.w3.org/2000/svg">
<path fill-rule="evenodd" clip-rule="evenodd" d="M12.4466 3.96773C12.0057 3.95667 11.588 4.15278 11.3139 4.493C11.0695 4.79622 11.03 5.14294 11.0155 5.30466C10.9999 5.47968 10.9999 5.69201 11 5.89299V5.89299L11 5.92604V8.69822C9.29427 9.15044 7.46265 10.0882 6.27446 11.4324C4.80981 13.0893 4.00114 15.2321 4 17.4507V17.9599C4 18.3823 4.26538 18.7591 4.66307 18.9015C5.06076 19.0438 5.50497 18.9209 5.77296 18.5944C6.54506 17.6537 7.50838 16.8938 8.59645 16.3659C9.24531 16.0511 10.1446 15.7965 11 15.6457V17.9999L11 18.033C10.9999 18.2339 10.9999 18.4463 11.0155 18.6213C11.03 18.783 11.0695 19.1297 11.3139 19.433C11.588 19.7732 12.0057 19.9693 12.4466 19.9582C12.8408 19.9483 13.1322 19.749 13.2635 19.6545C13.4059 19.5521 13.5659 19.4133 13.7164 19.2827L13.7164 19.2827L13.7415 19.2609C13.7456 19.2574 13.7497 19.2538 13.7537 19.2502C13.7565 19.2477 13.7592 19.2453 13.7619 19.2428L20.3029 13.2521L20.3102 13.2458C20.3947 13.1727 20.5 13.0815 20.5859 12.993C20.6847 12.8911 20.8305 12.7218 20.9181 12.4753C21.0273 12.1679 21.0273 11.832 20.9181 11.5246C20.8305 11.2781 20.6847 11.1088 20.5859 11.0069C20.5 10.9184 20.3947 10.8272 20.3102 10.7541L20.3102 10.754L20.3053 10.7498L13.7664 4.68733C13.7583 4.67975 13.75 4.67232 13.7415 4.66502L13.7165 4.64327L13.7164 4.64325C13.5659 4.51268 13.4059 4.37388 13.2635 4.27141C13.1322 4.17691 12.8408 3.97762 12.4466 3.96773Z" fill="black"/>
</svg>
