<svg width="24" height="24" viewBox="0 0 24 24" fill="none" xmlns="http://www.w3.org/2000/svg">
<path fill-rule="evenodd" clip-rule="evenodd" d="M12.5534 3.96773C12.9943 3.95667 13.412 4.15278 13.6861 4.493C13.9305 4.79622 13.97 5.14294 13.9845 5.30466C14.0001 5.47968 14.0001 5.69201 14 5.89299V5.89299L14 5.92604V8.69822C15.7057 9.15044 17.5373 10.0882 18.7255 11.4324C20.1902 13.0893 20.9989 15.2321 21 17.4507V17.9599C21 18.3823 20.7346 18.7591 20.3369 18.9015C19.9392 19.0438 19.495 18.9209 19.227 18.5944C18.4549 17.6537 17.4916 16.8938 16.4035 16.3659C15.7547 16.0511 14.8554 15.7965 14 15.6457V17.9999L14 18.033C14.0001 18.2339 14.0001 18.4463 13.9845 18.6213C13.97 18.783 13.9305 19.1297 13.6861 19.433C13.412 19.7732 12.9943 19.9693 12.5534 19.9582C12.1592 19.9483 11.8678 19.749 11.7365 19.6545C11.5941 19.5521 11.4341 19.4133 11.2836 19.2827L11.2836 19.2827L11.2585 19.2609C11.2544 19.2574 11.2503 19.2538 11.2463 19.2502C11.2435 19.2477 11.2408 19.2453 11.2381 19.2428L4.69706 13.2521L4.68982 13.2458C4.60535 13.1727 4.50002 13.0815 4.41414 12.993C4.31526 12.8911 4.16946 12.7218 4.0819 12.4753C3.9727 12.1679 3.9727 11.832 4.0819 11.5246C4.16946 11.2781 4.31526 11.1088 4.41414 11.0069C4.50001 10.9184 4.60534 10.8272 4.6898 10.7541L4.68982 10.754L4.69475 10.7498L11.2336 4.68733C11.2417 4.67975 11.25 4.67232 11.2585 4.66502L11.2835 4.64327L11.2836 4.64325C11.4341 4.51268 11.5941 4.37388 11.7365 4.27141C11.8678 4.17691 12.1592 3.97762 12.5534 3.96773Z" fill="black"/>
</svg>
