<svg width="24" height="24" viewBox="0 0 24 24" fill="none" xmlns="http://www.w3.org/2000/svg">
<path fill-rule="evenodd" clip-rule="evenodd" d="M12 2C6.47715 2 2 6.47715 2 12C2 17.5228 6.47715 22 12 22C17.5228 22 22 17.5228 22 12C22 6.47715 17.5228 2 12 2ZM7.85003 9.29997C7.85003 8.49916 8.49922 7.84998 9.30003 7.84998C10.1008 7.84998 10.75 8.49916 10.75 9.29997C10.75 10.1008 10.1008 10.75 9.30003 10.75C8.49922 10.75 7.85003 10.1008 7.85003 9.29997ZM14.7 7.84998C13.8992 7.84998 13.25 8.49916 13.25 9.29997C13.25 10.1008 13.8992 10.75 14.7 10.75C15.5008 10.75 16.15 10.1008 16.15 9.29997C16.15 8.49916 15.5008 7.84998 14.7 7.84998ZM16.2 16.3999C15.7596 16.7302 15.1356 16.6423 14.8033 16.2044L14.8002 16.2004C14.7954 16.1944 14.7859 16.1824 14.7716 16.1654C14.7431 16.1314 14.6962 16.0776 14.6319 16.0106C14.5026 15.8756 14.3078 15.6921 14.0556 15.5087C13.5473 15.139 12.8495 14.7999 12 14.7999C11.1505 14.7999 10.4527 15.139 9.94441 15.5087C9.69218 15.6921 9.4974 15.8756 9.36807 16.0106C9.30382 16.0776 9.25693 16.1314 9.22837 16.1654C9.21412 16.1824 9.20454 16.1944 9.19975 16.2004L9.19664 16.2044C8.86441 16.6423 8.24033 16.7302 7.79999 16.3999C7.35816 16.0685 7.26862 15.4417 7.59999 14.9999L8.39999 15.5999C7.59999 14.9999 7.60099 14.9986 7.60099 14.9986L7.60213 14.9971L7.60479 14.9936L7.61167 14.9846L7.63166 14.959C7.64774 14.9387 7.66936 14.9119 7.69642 14.8797C7.75047 14.8153 7.82663 14.7285 7.9241 14.6268C8.1182 14.4242 8.40155 14.1577 8.76807 13.8912C9.49726 13.3609 10.5995 12.7999 12 12.7999C13.4005 12.7999 14.5027 13.3609 15.2319 13.8912C15.5984 14.1577 15.8818 14.4242 16.0759 14.6268C16.1734 14.7285 16.2495 14.8153 16.3036 14.8797C16.3306 14.9119 16.3522 14.9387 16.3683 14.959L16.3883 14.9846L16.3952 14.9936L16.3979 14.9971L16.4 14.9999C16.7314 15.4417 16.6418 16.0685 16.2 16.3999Z" fill="black"/>
</svg>
