<svg width="24" height="24" viewBox="0 0 24 24" fill="none" xmlns="http://www.w3.org/2000/svg">
<path d="M8.44445 3H8.22609C7.51389 2.99999 6.91941 2.99998 6.43377 3.03965C5.92726 3.08104 5.45172 3.17052 5.00204 3.39964C4.31211 3.75118 3.75118 4.31211 3.39964 5.00204C3.17052 5.45172 3.08104 5.92726 3.03965 6.43377C2.99998 6.91941 2.99999 7.51387 3 8.22606V8.44445C3 8.99673 3.44772 9.44445 4 9.44445C4.55229 9.44445 5 8.99673 5 8.44445V8.26667C5 7.50343 5.00078 6.99114 5.03301 6.59664C5.06429 6.21381 5.12013 6.03077 5.18166 5.91002C5.34145 5.59641 5.59641 5.34145 5.91002 5.18166C6.03077 5.12013 6.21381 5.06429 6.59664 5.03301C6.99114 5.00078 7.50343 5 8.26667 5H8.44445C8.99673 5 9.44445 4.55229 9.44445 4C9.44445 3.44772 8.99673 3 8.44445 3Z" fill="black"/>
<path d="M15.7333 5C16.4966 5 17.0089 5.00078 17.4034 5.03301C17.7862 5.06429 17.9692 5.12013 18.09 5.18166C18.4036 5.34145 18.6586 5.59641 18.8183 5.91002C18.8799 6.03077 18.9357 6.21381 18.967 6.59664C18.9992 6.99114 19 7.50343 19 8.26667V8.44445C19 8.99673 19.4477 9.44445 20 9.44445C20.5523 9.44445 21 8.99673 21 8.44445V8.22606C21 7.51387 21 6.91941 20.9604 6.43377C20.919 5.92726 20.8295 5.45172 20.6004 5.00204C20.2488 4.31211 19.6879 3.75118 18.998 3.39964C18.5483 3.17052 18.0727 3.08104 17.5662 3.03965C17.0806 2.99998 16.4861 2.99999 15.7739 3H15.5556C15.0033 3 14.5556 3.44772 14.5556 4C14.5556 4.55229 15.0033 5 15.5556 5H15.7333Z" fill="black"/>
<path d="M5 15.5556C5 15.0033 4.55229 14.5556 4 14.5556C3.44772 14.5556 3 15.0033 3 15.5556V15.7739C2.99999 16.4861 2.99998 17.0806 3.03965 17.5662C3.08104 18.0727 3.17052 18.5483 3.39964 18.998C3.75118 19.6879 4.31211 20.2488 5.00204 20.6004C5.45172 20.8295 5.92726 20.919 6.43377 20.9604C6.91941 21 7.51387 21 8.22606 21H8.44445C8.99673 21 9.44445 20.5523 9.44445 20C9.44445 19.4477 8.99673 19 8.44445 19H8.26667C7.50343 19 6.99114 18.9992 6.59664 18.967C6.21381 18.9357 6.03077 18.8799 5.91002 18.8183C5.59641 18.6586 5.34145 18.4036 5.18166 18.09C5.12013 17.9692 5.06429 17.7862 5.03301 17.4034C5.00078 17.0089 5 16.4966 5 15.7333V15.5556Z" fill="black"/>
<path d="M21 15.5556C21 15.0033 20.5523 14.5556 20 14.5556C19.4477 14.5556 19 15.0033 19 15.5556V15.7333C19 16.4966 18.9992 17.0089 18.967 17.4034C18.9357 17.7862 18.8799 17.9692 18.8183 18.09C18.6586 18.4036 18.4036 18.6586 18.09 18.8183C17.9692 18.8799 17.7862 18.9357 17.4034 18.967C17.0089 18.9992 16.4966 19 15.7333 19H15.5556C15.0033 19 14.5556 19.4477 14.5556 20C14.5556 20.5523 15.0033 21 15.5556 21H15.7739C16.4861 21 17.0806 21 17.5662 20.9604C18.0727 20.919 18.5483 20.8295 18.998 20.6004C19.6879 20.2488 20.2488 19.6879 20.6004 18.998C20.8295 18.5483 20.919 18.0727 20.9604 17.5662C21 17.0806 21 16.4861 21 15.7739V15.5556Z" fill="black"/>
<path d="M4 11C3.44772 11 3 11.4477 3 12C3 12.5523 3.44772 13 4 13H20C20.5523 13 21 12.5523 21 12C21 11.4477 20.5523 11 20 11H4Z" fill="black"/>
</svg>
