<svg width="24" height="24" viewBox="0 0 24 24" fill="none" xmlns="http://www.w3.org/2000/svg">
<path fill-rule="evenodd" clip-rule="evenodd" d="M11.775 3.02565C11.8489 3.00857 11.9244 3.00002 11.9998 3C12.0752 3.00002 12.1511 3.00857 12.225 3.02565L12.2326 3.0274L12.2524 3.03201L12.3264 3.04945C12.3903 3.0646 12.4825 3.08666 12.597 3.11464C12.8259 3.17055 13.145 3.25035 13.5068 3.34615C14.2214 3.53533 15.1365 3.7957 15.8511 4.06366C16.6122 4.34904 17.5265 4.78575 18.2301 5.1389C18.5865 5.31774 18.8973 5.47947 19.1192 5.5966C19.2303 5.65522 19.3193 5.7028 19.381 5.73592L19.4523 5.77437L19.4713 5.78468L19.4779 5.78826C19.7993 5.96346 20 6.30062 20 6.66667V12C20 15.5508 17.982 17.8196 16.0726 19.1532C15.1191 19.8191 14.1722 20.2692 13.4668 20.5528C13.1127 20.6952 12.8155 20.7973 12.6034 20.8646C12.4972 20.8983 12.4121 20.9234 12.3515 20.9406C12.3211 20.9492 12.2969 20.9558 12.2792 20.9606L12.2576 20.9663L12.2506 20.9681L12.247 20.969C12.1663 20.9895 12.0831 20.9998 12 20.9998C11.9169 20.9998 11.8337 20.9895 11.753 20.969L11.7494 20.9681L11.7424 20.9663L11.7208 20.9606C11.7031 20.9558 11.6789 20.9492 11.6485 20.9406C11.5879 20.9234 11.5028 20.8983 11.3966 20.8646C11.1845 20.7973 10.8873 20.6952 10.5332 20.5528C9.82782 20.2692 8.88095 19.8191 7.92741 19.1532C6.01795 17.8196 4 15.5508 4 12V6.66667C4 6.30062 4.2 5.96383 4.52139 5.78864L4.52866 5.78468L4.54769 5.77437L4.61901 5.73592C4.68066 5.7028 4.76972 5.65522 4.88079 5.5966C5.10274 5.47947 5.41355 5.31774 5.76986 5.1389C6.47351 4.78575 7.38783 4.34904 8.1489 4.06366C8.86354 3.7957 9.77864 3.53533 10.4932 3.34615C10.855 3.25035 11.1741 3.17055 11.403 3.11464C11.5175 3.08666 11.6097 3.0646 11.6736 3.04945L11.7476 3.03201L11.7674 3.0274L11.775 3.02565ZM10 10C10 8.89543 10.8954 8 12 8C13.1046 8 14 8.89543 14 10C14 10.7532 13.5837 11.4091 12.9686 11.7502C12.9891 11.8301 13 11.9138 13 12V15C13 15.5523 12.5523 16 12 16C11.4477 16 11 15.5523 11 15V12C11 11.9138 11.0109 11.8301 11.0314 11.7502C10.4163 11.4091 10 10.7532 10 10Z" fill="black"/>
</svg>
