<svg width="24" height="24" viewBox="0 0 24 24" fill="none" xmlns="http://www.w3.org/2000/svg">
<path d="M11.2929 11.2929C11.4804 11.1054 11.7348 11 12 11C12.2652 11 12.5196 11.1054 12.7071 11.2929C12.8946 11.4804 13 11.7348 13 12C13 12.2652 12.8946 12.5196 12.7071 12.7071C12.5196 12.8946 12.2652 13 12 13C11.7348 13 11.4804 12.8946 11.2929 12.7071C11.1054 12.5196 11 12.2652 11 12C11 11.7348 11.1054 11.4804 11.2929 11.2929Z" fill="black"/>
<path fill-rule="evenodd" clip-rule="evenodd" d="M3 11.5746C3 10.4319 3.67234 9.42342 4.67072 8.96317C4.52693 8.57281 4.46848 8.15294 4.50329 7.73226C4.55943 7.0539 4.85494 6.41698 5.33629 5.93573L5.93701 5.33501C6.41825 4.85366 7.05468 4.55866 7.73304 4.50252C8.15382 4.46769 8.5738 4.52618 8.96426 4.67005C9.42465 3.67204 10.4329 3 11.5753 3H12.4254C13.5679 3 14.5761 3.67204 15.0365 4.67006C15.427 4.52618 15.847 4.46769 16.2677 4.50252C16.9463 4.55868 17.5834 4.85428 18.0647 5.33592L18.6632 5.93519L18.6649 5.93691C19.4759 6.74715 19.7098 7.93499 19.3303 8.96427C20.3288 9.42478 21 10.4333 21 11.5746V12.4254C21 13.5666 20.3295 14.5757 19.3305 15.0364C19.711 16.0681 19.4718 17.2548 18.6668 18.062L18.6641 18.0647L18.0621 18.6659C17.581 19.1465 16.9451 19.441 16.2674 19.4971C15.8468 19.532 15.4269 19.4736 15.0366 19.3298C14.5762 20.3279 13.5679 21 12.4254 21H11.5746C10.4295 21 9.42398 20.3262 8.96404 19.3303C7.93229 19.711 6.74528 19.472 5.93805 18.6668L5.93531 18.6641L5.33551 18.0635C4.85433 17.5827 4.55862 16.9449 4.50252 16.267C4.46769 15.8462 4.52618 15.4262 4.67006 15.0357C3.67257 14.5756 3 13.568 3 12.4254V11.5746ZM12 9C11.2044 9 10.4413 9.31607 9.87868 9.87868C9.31607 10.4413 9 11.2044 9 12C9 12.7956 9.31607 13.5587 9.87868 14.1213C10.4413 14.6839 11.2044 15 12 15C12.7956 15 13.5587 14.6839 14.1213 14.1213C14.6839 13.5587 15 12.7956 15 12C15 11.2044 14.6839 10.4413 14.1213 9.87868C13.5587 9.31607 12.7956 9 12 9Z" fill="black"/>
</svg>
