<svg width="24" height="24" viewBox="0 0 24 24" fill="none" xmlns="http://www.w3.org/2000/svg">
<path d="M9 16L9 11.1001C7.80192 11.1681 6.62546 11.2596 5.71086 11.3377C4.16204 11.47 3 12.7701 3 14.3052L3 17.6948C3 19.2299 4.16204 20.53 5.71085 20.6623C7.41601 20.808 10.0313 21 12 21C13.9687 21 16.584 20.808 18.2891 20.6623C19.838 20.53 21 19.2299 21 17.6948L21 14.3052C21 12.7701 19.838 11.47 18.2891 11.3377C17.3745 11.2596 16.1981 11.1681 15 11.1001L15 16C15 17.6569 13.6569 19 12 19C10.3431 19 9 17.6569 9 16Z" fill="black"/>
<path d="M13 16.0714C13 16.5843 12.5523 17 12 17C11.9989 17 11.9978 17 11.9968 17C11.446 16.9984 11 16.5833 11 16.0714L11 6.41421L8.70711 8.70711C8.31658 9.09763 7.68342 9.09763 7.29289 8.70711C6.90237 8.31658 6.90237 7.68342 7.29289 7.29289L11.2929 3.29289C11.6346 2.95118 12.1621 2.90847 12.5502 3.16475C12.6057 3.20136 12.6583 3.24408 12.7071 3.29289L16.7071 7.29289C17.0976 7.68342 17.0976 8.31658 16.7071 8.70711C16.3166 9.09763 15.6834 9.09763 15.2929 8.70711L13 6.41421L13 16.0714Z" fill="black"/>
</svg>
