<svg width="24" height="24" viewBox="0 0 24 24" fill="none" xmlns="http://www.w3.org/2000/svg">
<path fill-rule="evenodd" clip-rule="evenodd" d="M7.25045 7.25636C7.36794 6.69983 7.53747 6.14796 7.77987 5.63515C8.11771 4.92044 8.61206 4.2491 9.33181 3.75924C10.0578 3.26512 10.9484 3 12 3C13.2554 3 14.2481 3.44126 14.9937 4.13512C15.7168 4.80791 16.1631 5.67498 16.4445 6.48398C16.5335 6.73967 16.6081 6.99631 16.6709 7.2482C17.3483 7.31644 17.9168 7.42284 18.4394 7.69164C19.0617 8.0117 19.621 8.52417 19.994 9.11621C20.4287 9.80603 20.5643 10.6387 20.7436 11.7401L21.1616 14.2954C21.2996 15.1382 21.4135 15.8346 21.4566 16.4094C21.5014 17.0077 21.4786 17.5663 21.2839 18.1148C20.9866 18.9522 20.3878 19.6977 19.6342 20.1686C19.1439 20.475 18.6129 20.6183 18.0286 20.7036C17.4703 20.7851 16.7849 20.8229 15.9593 20.8685L15.9146 20.871C14.5854 20.9444 13.1888 21 12 21C10.8112 21 9.41459 20.9444 8.08537 20.871L8.04066 20.8685C7.21513 20.8229 6.52966 20.7851 5.97137 20.7036C5.38714 20.6183 4.8561 20.475 4.36581 20.1686C3.61225 19.6977 3.01337 18.9522 2.71608 18.1148C2.52137 17.5663 2.49864 17.0077 2.54343 16.4094C2.58647 15.8346 2.70044 15.1382 2.83838 14.2953L3.2564 11.7401C3.43572 10.6387 3.57128 9.80603 4.00597 9.11621C4.37904 8.52417 4.93829 8.0117 5.56058 7.69164C6.06283 7.43331 6.60748 7.32497 7.25045 7.25636ZM9.35467 7.09624C9.42073 6.88351 9.498 6.68033 9.58804 6.48985C9.81152 6.01706 10.0978 5.65715 10.4571 5.41264C10.8101 5.17238 11.2969 5 12 5C12.7446 5 13.2519 5.24624 13.6313 5.59926C14.0223 5.9631 14.3202 6.48313 14.5374 7.08961C13.6624 7.03661 12.7776 7 12 7C11.1904 7 10.2646 7.03969 9.35467 7.09624Z" fill="black"/>
</svg>
