<svg width="24" height="24" viewBox="0 0 24 24" fill="none" xmlns="http://www.w3.org/2000/svg">
<path d="M19.4571 4.54275C17.8239 2.90958 15.1761 2.90958 13.5429 4.54275L11.7568 6.32887C12.0375 6.05919 12.4629 5.96778 12.8433 6.13055L12.8468 6.13201L12.8532 6.1348L12.875 6.14428C12.8933 6.15231 12.9192 6.16375 12.9519 6.17841C13.0171 6.20772 13.1096 6.25001 13.2228 6.30381C13.4485 6.41111 13.7599 6.56577 14.104 6.75605C14.7636 7.1208 15.6514 7.6743 16.2428 8.3304C16.7213 8.86128 17.133 9.60078 17.4063 10.1454C17.5489 10.4293 17.6654 10.684 17.7465 10.8681C17.7871 10.9604 17.8192 11.0356 17.8414 11.0886C17.8525 11.1152 17.8612 11.1362 17.8673 11.1512L17.8746 11.1689L17.8774 11.1759L17.8778 11.177C18.0286 11.552 17.936 11.9644 17.6747 12.2394L19.4571 10.457C21.0903 8.82379 21.0903 6.17591 19.4571 4.54275Z" fill="black"/>
<path d="M4.59252 13.4931L11.7285 6.35715C11.6472 6.4418 11.5795 6.5423 11.5306 6.6566C11.3134 7.1643 11.549 7.75203 12.0567 7.96933L12.0589 7.97031L12.0727 7.97633C12.0857 7.98199 12.1059 7.99091 12.1326 8.0029C12.1861 8.02691 12.2653 8.06313 12.3641 8.1101C12.5624 8.20435 12.836 8.3403 13.1361 8.50626C13.7649 8.85399 14.4021 9.27548 14.7572 9.66947C15.0457 9.98951 15.3591 10.525 15.6189 11.0427C15.743 11.2899 15.8452 11.5132 15.9161 11.6742C15.9515 11.7545 15.9788 11.8187 15.9969 11.8619L16.017 11.9101L16.0215 11.9212L16.0223 11.9232C16.2284 12.4354 16.8107 12.6837 17.323 12.4778C17.4438 12.4292 17.5499 12.3598 17.6388 12.2752L10.4973 19.4168L10.475 19.4391C10.3906 19.5238 10.2841 19.6307 10.1587 19.7227C10.0502 19.8024 9.93237 19.8718 9.81007 19.928C9.66876 19.993 9.52476 20.0339 9.41087 20.0663L9.38106 20.0748C8.76427 20.2513 7.53382 20.5989 6.64075 20.8204C6.48742 20.8585 6.3236 20.8979 6.15521 20.9375L6.11495 20.947C5.75463 21.0318 5.41857 21.111 5.13703 21.1497C4.84044 21.1904 4.46551 21.2093 4.08304 21.0585C3.5776 20.8593 3.16864 20.4546 2.96397 19.9514C2.80811 19.5681 2.82488 19.1892 2.86295 18.8917C2.89939 18.6069 2.97598 18.2654 3.0586 17.897L3.17937 17.3581L3.92355 14.6441L3.93217 14.6125C3.96455 14.4936 4.00533 14.3438 4.07061 14.1988C4.12733 14.0728 4.19697 13.953 4.27839 13.8413C4.3721 13.7128 4.48205 13.6032 4.56934 13.5162L4.59252 13.4931Z" fill="black"/>
<path d="M14 18.9999C13.4477 18.9999 13 19.4476 13 19.9999C13 20.5522 13.4477 20.9999 14 20.9999H20C20.5523 20.9999 21 20.5522 21 19.9999C21 19.4476 20.5523 18.9999 20 18.9999H14Z" fill="black"/>
</svg>
