<svg width="24" height="24" viewBox="0 0 24 24" fill="none" xmlns="http://www.w3.org/2000/svg">
<path d="M19 16.8293C20.1652 16.4175 21 15.3063 21 14C21 12.3431 19.657 11 18 11C16.3431 11 15 12.3431 15 14C15 15.3063 15.8348 16.4175 17 16.8293V20C17 20.5523 17.4477 21 18 21C18.5523 21 19 20.5523 19 20V16.8293Z" fill="black"/>
<path d="M13 14.9986C12.9992 14.4463 12.5508 13.9992 11.9986 14C11.4463 14.0008 10.9992 14.4492 11 15.0014L11.007 20.0014C11.0078 20.5537 11.4562 21.0008 12.0085 21C12.5607 20.9992 13.0078 20.5509 13.007 19.9986L13 14.9986Z" fill="black"/>
<path d="M12.0071 3.00002C12.5594 3.00002 13.0071 3.44773 13.0071 4.00002V6.00002C13.0071 6.05734 13.0023 6.11354 12.993 6.16823C14.1619 6.57805 15 7.69109 15 9.00002C15 10.657 13.657 12 12 12C10.3431 12 9.00001 10.657 9.00001 9.00002C9.00002 7.6861 9.84453 6.56956 11.0204 6.16357C11.0117 6.11035 11.0071 6.05572 11.0071 6.00002V4.00002C11.0071 3.44773 11.4548 3.00002 12.0071 3.00002Z" fill="black"/>
<path d="M19 4.00002C19 3.44773 18.5523 3.00002 18 3.00002C17.4477 3.00002 17 3.44773 17 4.00002V8.00002C17 8.5523 17.4477 9.00002 18 9.00002C18.5523 9.00002 19 8.5523 19 8.00002V4.00002Z" fill="black"/>
<path d="M6.00856 3C6.56085 3.00078 7.00793 3.44913 7.00714 4.00142L7.00006 9.00142C6.99928 9.5537 6.55093 10.0008 5.99865 10C5.44636 9.99922 4.99928 9.55087 5.00007 8.99859L5.00715 3.99859C5.00793 3.4463 5.45628 2.99922 6.00856 3Z" fill="black"/>
<path d="M7.00709 18.0036C7.0073 17.945 7.00247 17.8876 6.99301 17.8318C8.1619 17.422 9.00001 16.3089 9.00001 15C9.00001 13.3431 7.65697 12 6.00001 12C4.34306 12 3.00002 13.3431 3.00002 15C3.00002 16.3139 3.84453 17.4305 5.02041 17.8365C5.01184 17.8885 5.00729 17.942 5.0071 17.9965L5.00002 19.9965C4.99807 20.5488 5.44419 20.9981 5.99647 21C6.54876 21.002 6.99805 20.5558 7.00001 20.0036L7.00709 18.0036Z" fill="black"/>
</svg>
