<svg width="24" height="24" viewBox="0 0 24 24" fill="none" xmlns="http://www.w3.org/2000/svg">
<path d="M16.8293 5C16.4175 3.83477 15.3063 3 14 3C12.3431 3 11 4.34305 11 6C11 7.65695 12.3431 9 14 9C15.3063 9 16.4175 8.16523 16.8293 7L20 7C20.5523 7 21 6.55229 21 6C21 5.44772 20.5523 5 20 5L16.8293 5Z" fill="black"/>
<path d="M14.9986 11C14.4463 11.0008 13.9992 11.4492 14 12.0015C14.0008 12.5537 14.4492 13.0008 15.0014 13L20.0014 12.993C20.5537 12.9922 21.0008 12.5438 21 11.9916C20.9992 11.4393 20.5509 10.9922 19.9986 10.993L14.9986 11Z" fill="black"/>
<path d="M3.00002 11.9929C3.00002 11.4406 3.44773 10.9929 4.00002 10.9929H6.00002C6.05734 10.9929 6.11354 10.9977 6.16823 11.007C6.57805 9.83811 7.69109 9 9.00002 9C10.657 9 12 10.343 12 12C12 13.657 10.657 15 9.00002 15C7.6861 15 6.56956 14.1555 6.16357 12.9796C6.11035 12.9884 6.05572 12.9929 6.00002 12.9929H4.00002C3.44773 12.9929 3.00002 12.5452 3.00002 11.9929Z" fill="black"/>
<path d="M4.00002 5C3.44773 5 3.00002 5.44772 3.00002 6C3.00002 6.55228 3.44773 7 4.00002 7H8.00002C8.5523 7 9.00002 6.55228 9.00002 6C9.00002 5.44772 8.5523 5 8.00002 5H4.00002Z" fill="black"/>
<path d="M3 17.9915C3.00079 17.4392 3.44913 16.9921 4.00142 16.9929L9.00142 17C9.5537 17.0007 10.0008 17.4491 10 18.0014C9.99922 18.5537 9.55087 19.0007 8.99859 18.9999L3.99859 18.9929C3.4463 18.9921 2.99922 18.5437 3 17.9915Z" fill="black"/>
<path d="M18.0036 16.9929C17.945 16.9927 17.8876 16.9975 17.8318 17.007C17.422 15.8381 16.3089 15 15 15C13.3431 15 12 16.343 12 18C12 19.657 13.3431 21 15 21C16.3139 21 17.4305 20.1555 17.8365 18.9796C17.8885 18.9882 17.942 18.9927 17.9965 18.9929L19.9965 19C20.5488 19.0019 20.9981 18.5558 21 18.0035C21.002 17.4513 20.5558 17.002 20.0036 17L18.0036 16.9929Z" fill="black"/>
</svg>
