<svg width="24" height="24" viewBox="0 0 24 24" fill="none" xmlns="http://www.w3.org/2000/svg">
<mask id="path-1-inside-1_766_6758" fill="white">
<path fill-rule="evenodd" clip-rule="evenodd" d="M12 2C6.47715 2 2 6.47715 2 12C2 17.5228 6.47715 22 12 22C17.5228 22 22 17.5228 22 12C22 6.47715 17.5228 2 12 2ZM11.2191 7.01987L10.3164 7L10.2976 7.00058L10.1001 7.00645L9.46694 7.02709L8.81163 7.06381L7.9413 7.15788C7.62 7.20124 7.2945 7.25071 6.96811 7.31119C6.48891 7.4 6.01904 7.5184 5.55858 7.65817C5.14808 7.78278 4.91179 8.2322 5.03081 8.66197C5.14984 9.09174 5.5791 9.33913 5.9896 9.21452C6.40429 9.08863 6.82004 8.98427 7.23789 8.90683C7.53361 8.85203 7.83413 8.80619 8.13947 8.76498C8.40125 8.7296 8.66792 8.7026 8.94134 8.67856C9.12638 8.66224 9.31567 8.65454 9.52459 8.6464C9.73602 8.63814 9.94568 8.63202 10.1362 8.62647L10.3244 8.62089C10.4321 8.62299 10.5295 8.6244 10.6202 8.62571C10.8155 8.62853 10.9807 8.63092 11.1516 8.63876C11.4354 8.65169 11.722 8.67246 12.0147 8.69612C12.2596 8.71596 12.4933 8.73717 12.7217 8.76709C13.033 8.80803 13.3429 8.85436 13.6504 8.90727C14.1234 8.98862 14.4901 9.05651 14.9996 9.20502C15.9039 9.46862 16.6083 9.85206 17.3112 10.2347C17.4999 10.3374 17.6887 10.4402 17.881 10.5404C18.2636 10.7399 18.7282 10.5768 18.9187 10.1763C19.1092 9.77573 18.9535 9.28932 18.5709 9.08986C18.4183 9.01031 18.2566 8.92196 18.0852 8.82839C17.3712 8.43843 16.4909 7.95764 15.4147 7.64395C14.8235 7.47163 14.3913 7.39254 13.9013 7.30827C13.5724 7.25167 13.2429 7.20245 12.9142 7.15924C12.6485 7.12442 12.3854 7.10087 12.1339 7.0805C11.8347 7.05631 11.5283 7.03396 11.2191 7.01987ZM10.2857 10.5119L10.2692 10.5114L10.2527 10.5116C9.70865 10.519 9.20672 10.5319 8.69886 10.5888L8.62893 10.5966C8.44739 10.6168 8.24636 10.6391 8.0464 10.6706C7.8121 10.7076 7.54794 10.75 7.28321 10.8134C6.89444 10.9064 6.48096 11.0061 6.07071 11.1322C5.66062 11.2583 5.4258 11.7086 5.54622 12.1379C5.66664 12.5672 6.0967 12.8131 6.50679 12.687C6.8654 12.5768 7.23502 12.4871 7.62813 12.3931C7.82869 12.3451 8.03875 12.3106 8.277 12.273C8.44135 12.2471 8.60717 12.2286 8.79249 12.2079L8.86358 12.2L10.2565 12.1322C10.3181 12.134 10.3807 12.1354 10.4442 12.1368C10.603 12.1403 10.7686 12.144 10.9428 12.1551C11.2564 12.1749 11.5599 12.1983 11.8572 12.2338C12.8546 12.3532 13.8246 12.577 14.7643 12.9213C15.4915 13.1876 16.026 13.4282 16.711 13.7973C17.091 14.0021 17.5576 13.8455 17.7532 13.4477C17.9488 13.0498 17.7993 12.5613 17.4193 12.3565C16.6706 11.9531 16.0702 11.6829 15.2755 11.3918C14.2187 11.0046 13.1354 10.7558 12.033 10.6238C11.6956 10.5835 11.3605 10.5581 11.0363 10.5376C10.83 10.5245 10.6126 10.5196 10.4448 10.5159L10.4433 10.5158C10.3836 10.5145 10.3301 10.5133 10.2857 10.5119ZM10.362 13.8579L10.388 13.8588C10.4589 13.8613 10.5346 13.8635 10.6131 13.8657C10.7959 13.8708 10.9939 13.8764 11.1824 13.8881C12.4393 13.966 13.676 14.2194 14.8719 14.715C15.395 14.9319 15.9008 15.1903 16.3868 15.4939C16.7538 15.7231 16.8738 16.2205 16.6549 16.6048C16.4359 16.9891 15.9608 17.1147 15.5938 16.8854C15.182 16.6282 14.7511 16.4078 14.3021 16.2217C13.2806 15.7983 12.2086 15.575 11.0909 15.5057C10.9275 15.4956 10.7721 15.4913 10.6027 15.4865C10.5261 15.4844 10.446 15.4821 10.3617 15.4793L10.1144 15.4865C9.93251 15.4915 9.76495 15.4961 9.58933 15.5075C9.31551 15.5252 9.03883 15.5522 8.75687 15.5837C8.49926 15.6126 8.25777 15.6423 8.02377 15.6836C7.7441 15.7329 7.46823 15.7886 7.18225 15.8463C7.08637 15.8657 6.98933 15.8853 6.89062 15.9049C6.47074 15.9885 6.06562 15.6999 5.98577 15.2603C5.90591 14.8207 6.18156 14.3966 6.60144 14.313C6.69151 14.2951 6.78308 14.2766 6.87573 14.2579C7.16607 14.1993 7.46715 14.1385 7.76643 14.0857C8.04883 14.0359 8.32894 14.002 8.59226 13.9725C8.88708 13.9395 9.18856 13.9099 9.49368 13.8901C9.69755 13.8769 9.91086 13.871 10.1062 13.8657C10.1865 13.8635 10.2638 13.8613 10.3361 13.8588L10.362 13.8579Z"/>
</mask>
<path fill-rule="evenodd" clip-rule="evenodd" d="M12 2C6.47715 2 2 6.47715 2 12C2 17.5228 6.47715 22 12 22C17.5228 22 22 17.5228 22 12C22 6.47715 17.5228 2 12 2ZM11.2191 7.01987L10.3164 7L10.2976 7.00058L10.1001 7.00645L9.46694 7.02709L8.81163 7.06381L7.9413 7.15788C7.62 7.20124 7.2945 7.25071 6.96811 7.31119C6.48891 7.4 6.01904 7.5184 5.55858 7.65817C5.14808 7.78278 4.91179 8.2322 5.03081 8.66197C5.14984 9.09174 5.5791 9.33913 5.9896 9.21452C6.40429 9.08863 6.82004 8.98427 7.23789 8.90683C7.53361 8.85203 7.83413 8.80619 8.13947 8.76498C8.40125 8.7296 8.66792 8.7026 8.94134 8.67856C9.12638 8.66224 9.31567 8.65454 9.52459 8.6464C9.73602 8.63814 9.94568 8.63202 10.1362 8.62647L10.3244 8.62089C10.4321 8.62299 10.5295 8.6244 10.6202 8.62571C10.8155 8.62853 10.9807 8.63092 11.1516 8.63876C11.4354 8.65169 11.722 8.67246 12.0147 8.69612C12.2596 8.71596 12.4933 8.73717 12.7217 8.76709C13.033 8.80803 13.3429 8.85436 13.6504 8.90727C14.1234 8.98862 14.4901 9.05651 14.9996 9.20502C15.9039 9.46862 16.6083 9.85206 17.3112 10.2347C17.4999 10.3374 17.6887 10.4402 17.881 10.5404C18.2636 10.7399 18.7282 10.5768 18.9187 10.1763C19.1092 9.77573 18.9535 9.28932 18.5709 9.08986C18.4183 9.01031 18.2566 8.92196 18.0852 8.82839C17.3712 8.43843 16.4909 7.95764 15.4147 7.64395C14.8235 7.47163 14.3913 7.39254 13.9013 7.30827C13.5724 7.25167 13.2429 7.20245 12.9142 7.15924C12.6485 7.12442 12.3854 7.10087 12.1339 7.0805C11.8347 7.05631 11.5283 7.03396 11.2191 7.01987ZM10.2857 10.5119L10.2692 10.5114L10.2527 10.5116C9.70865 10.519 9.20672 10.5319 8.69886 10.5888L8.62893 10.5966C8.44739 10.6168 8.24636 10.6391 8.0464 10.6706C7.8121 10.7076 7.54794 10.75 7.28321 10.8134C6.89444 10.9064 6.48096 11.0061 6.07071 11.1322C5.66062 11.2583 5.4258 11.7086 5.54622 12.1379C5.66664 12.5672 6.0967 12.8131 6.50679 12.687C6.8654 12.5768 7.23502 12.4871 7.62813 12.3931C7.82869 12.3451 8.03875 12.3106 8.277 12.273C8.44135 12.2471 8.60717 12.2286 8.79249 12.2079L8.86358 12.2L10.2565 12.1322C10.3181 12.134 10.3807 12.1354 10.4442 12.1368C10.603 12.1403 10.7686 12.144 10.9428 12.1551C11.2564 12.1749 11.5599 12.1983 11.8572 12.2338C12.8546 12.3532 13.8246 12.577 14.7643 12.9213C15.4915 13.1876 16.026 13.4282 16.711 13.7973C17.091 14.0021 17.5576 13.8455 17.7532 13.4477C17.9488 13.0498 17.7993 12.5613 17.4193 12.3565C16.6706 11.9531 16.0702 11.6829 15.2755 11.3918C14.2187 11.0046 13.1354 10.7558 12.033 10.6238C11.6956 10.5835 11.3605 10.5581 11.0363 10.5376C10.83 10.5245 10.6126 10.5196 10.4448 10.5159L10.4433 10.5158C10.3836 10.5145 10.3301 10.5133 10.2857 10.5119ZM10.362 13.8579L10.388 13.8588C10.4589 13.8613 10.5346 13.8635 10.6131 13.8657C10.7959 13.8708 10.9939 13.8764 11.1824 13.8881C12.4393 13.966 13.676 14.2194 14.8719 14.715C15.395 14.9319 15.9008 15.1903 16.3868 15.4939C16.7538 15.7231 16.8738 16.2205 16.6549 16.6048C16.4359 16.9891 15.9608 17.1147 15.5938 16.8854C15.182 16.6282 14.7511 16.4078 14.3021 16.2217C13.2806 15.7983 12.2086 15.575 11.0909 15.5057C10.9275 15.4956 10.7721 15.4913 10.6027 15.4865C10.5261 15.4844 10.446 15.4821 10.3617 15.4793L10.1144 15.4865C9.93251 15.4915 9.76495 15.4961 9.58933 15.5075C9.31551 15.5252 9.03883 15.5522 8.75687 15.5837C8.49926 15.6126 8.25777 15.6423 8.02377 15.6836C7.7441 15.7329 7.46823 15.7886 7.18225 15.8463C7.08637 15.8657 6.98933 15.8853 6.89062 15.9049C6.47074 15.9885 6.06562 15.6999 5.98577 15.2603C5.90591 14.8207 6.18156 14.3966 6.60144 14.313C6.69151 14.2951 6.78308 14.2766 6.87573 14.2579C7.16607 14.1993 7.46715 14.1385 7.76643 14.0857C8.04883 14.0359 8.32894 14.002 8.59226 13.9725C8.88708 13.9395 9.18856 13.9099 9.49368 13.8901C9.69755 13.8769 9.91086 13.871 10.1062 13.8657C10.1865 13.8635 10.2638 13.8613 10.3361 13.8588L10.362 13.8579Z" fill="black"/>
<path d="M9.46694 7.02709L9.50585 8.02633L9.50601 8.02632L9.46694 7.02709ZM8.81163 7.06381L8.89923 8.05997L8.89944 8.05995L8.81163 7.06381ZM12.0147 8.69612L12.1146 7.70112L12.0869 7.69834L12.0591 7.69711L12.0147 8.69612ZM10.9428 12.1551L11.0286 11.1588L11.0024 11.1565L10.9762 11.1556L10.9428 12.1551ZM10.3352 7.00038L10.3552 6.00058L10.3552 6.00058L10.3352 7.00038ZM10.6142 7.00496L10.5996 8.00485H10.5996L10.6142 7.00496ZM10.3552 6.00058L10.3364 6.0002L10.2964 7.9998L10.3152 8.00018L10.3552 6.00058ZM10.6288 6.00507C10.5369 6.00372 10.4464 6.0024 10.3552 6.00058L10.3152 8.00018C10.4127 8.00213 10.5085 8.00352 10.5996 8.00485L10.6288 6.00507ZM11.265 6.02092C11.0522 6.01116 10.8346 6.00807 10.6288 6.00507L10.5996 8.00485C10.8117 8.00795 10.9973 8.01074 11.1733 8.01882L11.265 6.02092ZM12.0591 7.69711L10.3689 7.62188L10.28 9.6199L11.9702 9.69513L12.0591 7.69711ZM10.0709 6.00687C9.87918 6.01246 9.65295 6.01905 9.42787 6.02785L9.50601 8.02632C9.7196 8.01797 9.93609 8.01165 10.1292 8.00602L10.0709 6.00687ZM9.42803 6.02784C9.22692 6.03568 8.97856 6.04522 8.72383 6.06768L8.89944 8.05995C9.09794 8.04246 9.2987 8.0344 9.50585 8.02633L9.42803 6.02784ZM8.72403 6.06766C8.43156 6.09338 8.12254 6.1243 7.80738 6.16689L8.07523 8.14887C8.3473 8.1121 8.62223 8.08433 8.89923 8.05997L8.72403 6.06766ZM11.9148 9.69112L12.6218 9.76209L12.8216 7.77209L12.1146 7.70112L11.9148 9.69112ZM10.9762 11.1556L10.2898 11.1327L10.2231 13.1316L10.9094 13.1545L10.9762 11.1556ZM10.857 13.1514L11.7715 13.2301L11.943 11.2375L11.0286 11.1588L10.857 13.1514ZM8.40219 13.2651L8.91769 13.2001L8.66729 11.2158L8.1518 11.2809L8.40219 13.2651ZM10.3063 12.8593L10.0764 12.8661L10.136 14.8652L10.3659 14.8584L10.3063 12.8593ZM10.3164 7L10.3604 5.00048L10.3075 4.99932L10.2546 5.00095L10.3164 7ZM11.2191 7.01987L11.3102 5.02194L11.2867 5.02087L11.2631 5.02035L11.2191 7.01987ZM10.2976 7.00058L10.3569 8.9997L10.3593 8.99963L10.2976 7.00058ZM10.1001 7.00645L10.0407 5.00732L10.0349 5.00751L10.1001 7.00645ZM9.46694 7.02709L9.40177 5.02815L9.37838 5.02891L9.35502 5.03022L9.46694 7.02709ZM8.81163 7.06381L8.69971 5.06695L8.64811 5.06984L8.59673 5.07539L8.81163 7.06381ZM7.9413 7.15788L7.7264 5.16946L7.70008 5.1723L7.67384 5.17584L7.9413 7.15788ZM6.96811 7.31119L6.60368 5.34468L6.60367 5.34468L6.96811 7.31119ZM5.55858 7.65817L4.97764 5.74441L4.97764 5.74441L5.55858 7.65817ZM5.03081 8.66197L3.10336 9.19576L3.10336 9.19576L5.03081 8.66197ZM5.9896 9.21452L6.57053 11.1283H6.57053L5.9896 9.21452ZM7.23789 8.90683L6.87346 6.94031L6.87345 6.94031L7.23789 8.90683ZM8.13947 8.76498L8.40692 10.747L8.40734 10.747L8.13947 8.76498ZM8.94134 8.67856L9.11654 10.6709L9.11699 10.6708L8.94134 8.67856ZM9.52459 8.6464L9.60241 10.6449L9.60273 10.6449L9.52459 8.6464ZM10.1362 8.62647L10.1945 10.6256L10.1954 10.6256L10.1362 8.62647ZM10.3244 8.62089L10.3634 6.62127L10.3143 6.62032L10.2653 6.62177L10.3244 8.62089ZM10.6202 8.62571L10.5913 10.6255H10.5913L10.6202 8.62571ZM11.1516 8.63876L11.0599 10.6367L11.0606 10.6367L11.1516 8.63876ZM12.0147 8.69612L12.1761 6.70265L12.1758 6.70262L12.0147 8.69612ZM12.7217 8.76709L12.9824 6.78416L12.9815 6.78404L12.7217 8.76709ZM13.6504 8.90727L13.3113 10.8783L13.3114 10.8783L13.6504 8.90727ZM14.9996 9.20502L14.4399 11.1251L14.9996 9.20502ZM17.3112 10.2347L18.2674 8.47808L18.2674 8.47808L17.3112 10.2347ZM17.881 10.5404L18.8056 8.76694L18.8055 8.76693L17.881 10.5404ZM18.9187 10.1763L20.7248 11.0353L20.7248 11.0353L18.9187 10.1763ZM18.5709 9.08986L17.6463 10.8633L17.6463 10.8633L18.5709 9.08986ZM18.0852 8.82839L19.0439 7.07311L19.0439 7.07311L18.0852 8.82839ZM15.4147 7.64395L14.855 9.56404L14.855 9.56405L15.4147 7.64395ZM13.9013 7.30827L13.5622 9.27931L13.5623 9.27933L13.9013 7.30827ZM12.9142 7.15924L13.1749 5.1763L13.1741 5.1762L12.9142 7.15924ZM12.1339 7.0805L12.2954 5.08702L12.2951 5.087L12.1339 7.0805ZM10.2692 10.5114L10.3317 8.51238L10.2869 8.51098L10.2421 8.51159L10.2692 10.5114ZM10.2857 10.5119L10.2233 12.5109L10.2234 12.5109L10.2857 10.5119ZM10.2527 10.5116L10.2797 12.5114L10.2798 12.5114L10.2527 10.5116ZM8.69886 10.5888L8.92065 12.5764L8.92135 12.5763L8.69886 10.5888ZM8.62893 10.5966L8.85014 12.5843L8.85072 12.5842L8.62893 10.5966ZM8.0464 10.6706L7.73519 8.695L7.73435 8.69513L8.0464 10.6706ZM7.28321 10.8134L7.74861 12.7585L7.74871 12.7585L7.28321 10.8134ZM6.07071 11.1322L6.65842 13.0439L6.65843 13.0439L6.07071 11.1322ZM6.50679 12.687L7.0945 14.5987H7.0945L6.50679 12.687ZM7.62813 12.3931L8.09352 14.3382L8.09364 14.3381L7.62813 12.3931ZM8.277 12.273L7.96591 10.2973L7.96493 10.2975L8.277 12.273ZM8.79249 12.2079L9.01422 14.1956L9.01463 14.1956L8.79249 12.2079ZM8.86358 12.2L8.76629 10.2024L8.70371 10.2054L8.64145 10.2124L8.86358 12.2ZM10.2565 12.1322L10.316 10.133L10.2375 10.1307L10.1592 10.1345L10.2565 12.1322ZM10.4442 12.1368L10.4888 10.1373H10.4888L10.4442 12.1368ZM10.9428 12.1551L11.0693 10.1591L11.0692 10.1591L10.9428 12.1551ZM11.8572 12.2338L12.095 10.248L12.0947 10.2479L11.8572 12.2338ZM14.7643 12.9213L14.0763 14.7992L14.0764 14.7992L14.7643 12.9213ZM16.711 13.7973L15.7622 15.5579L15.7622 15.5579L16.711 13.7973ZM17.7532 13.4477L15.9584 12.5653L15.9584 12.5653L17.7532 13.4477ZM17.4193 12.3565L18.368 10.5958H18.368L17.4193 12.3565ZM15.2755 11.3918L14.5875 13.2697L14.5875 13.2697L15.2755 11.3918ZM12.033 10.6238L12.2708 8.63803L12.2705 8.63799L12.033 10.6238ZM11.0363 10.5376L11.1628 8.54159L11.1627 8.54158L11.0363 10.5376ZM10.4448 10.5159L10.4896 8.51638L10.4878 8.51634L10.4448 10.5159ZM10.4433 10.5158L10.3985 12.5153L10.4004 12.5154L10.4433 10.5158ZM10.388 13.8588L10.4586 11.8601L10.4586 11.8601L10.388 13.8588ZM10.362 13.8579L10.4327 11.8592L10.3626 11.8567L10.2925 11.8591L10.362 13.8579ZM10.6131 13.8657L10.6695 11.8665H10.6695L10.6131 13.8657ZM11.1824 13.8881L11.0584 15.8843L11.0588 15.8843L11.1824 13.8881ZM14.8719 14.715L15.6378 12.8675L15.6377 12.8674L14.8719 14.715ZM16.3868 15.4939L15.3272 17.1901L16.3868 15.4939ZM16.6549 16.6048L14.9172 15.6145L14.9172 15.6146L16.6549 16.6048ZM15.5938 16.8854L14.5342 18.5817L14.5342 18.5817L15.5938 16.8854ZM14.3021 16.2217L15.068 14.3742L15.0679 14.3741L14.3021 16.2217ZM11.0909 15.5057L10.9668 17.5019L10.9673 17.5019L11.0909 15.5057ZM10.6027 15.4865L10.5468 17.4857H10.5468L10.6027 15.4865ZM10.3617 15.4793L10.4298 13.4804L10.3663 13.4782L10.3027 13.4801L10.3617 15.4793ZM10.1144 15.4865L10.1691 17.4858L10.1734 17.4857L10.1144 15.4865ZM9.58933 15.5075L9.45995 13.5117L9.45993 13.5117L9.58933 15.5075ZM8.75687 15.5837L8.53442 13.5961L8.53418 13.5962L8.75687 15.5837ZM8.02377 15.6836L8.37117 17.6532L8.37143 17.6531L8.02377 15.6836ZM7.18225 15.8463L7.57794 17.8068H7.57794L7.18225 15.8463ZM6.89062 15.9049L6.50006 13.9434L6.50006 13.9434L6.89062 15.9049ZM5.98577 15.2603L4.01797 15.6178L4.01797 15.6178L5.98577 15.2603ZM6.60144 14.313L6.992 16.2745L6.99201 16.2745L6.60144 14.313ZM6.87573 14.2579L6.47999 12.2974L6.47998 12.2974L6.87573 14.2579ZM7.76643 14.0857L8.11386 16.0553L8.11408 16.0553L7.76643 14.0857ZM8.59226 13.9725L8.3698 11.9849L8.36958 11.9849L8.59226 13.9725ZM9.49368 13.8901L9.36428 11.8943H9.36427L9.49368 13.8901ZM10.1062 13.8657L10.0512 11.8664L10.0512 11.8664L10.1062 13.8657ZM10.3361 13.8588L10.2665 11.86H10.2665L10.3361 13.8588ZM4 12C4 7.58172 7.58172 4 12 4V0C5.37258 0 0 5.37258 0 12H4ZM12 20C7.58172 20 4 16.4183 4 12H0C0 18.6274 5.37258 24 12 24V20ZM20 12C20 16.4183 16.4183 20 12 20V24C18.6274 24 24 18.6274 24 12H20ZM12 4C16.4183 4 20 7.58172 20 12H24C24 5.37258 18.6274 0 12 0V4ZM10.2724 8.99952L11.1751 9.01938L11.2631 5.02035L10.3604 5.00048L10.2724 8.99952ZM10.3593 8.99963L10.3781 8.99905L10.2546 5.00095L10.2358 5.00153L10.3593 8.99963ZM10.1594 9.00556L10.3569 8.9997L10.2382 5.00146L10.0407 5.00733L10.1594 9.00556ZM9.53211 9.02602L10.1652 9.00538L10.0349 5.00751L9.40177 5.02815L9.53211 9.02602ZM8.92355 9.06068L9.57886 9.02395L9.35502 5.03022L8.69971 5.06695L8.92355 9.06068ZM8.15621 9.1463L9.02654 9.05224L8.59673 5.07539L7.7264 5.16946L8.15621 9.1463ZM7.33255 9.27771C7.61756 9.22489 7.9091 9.18035 8.20877 9.13991L7.67384 5.17584C7.33089 5.22212 6.97144 5.27652 6.60368 5.34468L7.33255 9.27771ZM6.13952 9.57194C6.53878 9.45074 6.93597 9.3512 7.33256 9.27771L6.60367 5.34468C6.04185 5.4488 5.49931 5.58605 4.97764 5.74441L6.13952 9.57194ZM6.95826 8.12818C7.10996 8.67595 6.8344 9.361 6.13952 9.57194L4.97764 5.74441C3.46176 6.20457 2.71362 7.78845 3.10336 9.19576L6.95826 8.12818ZM5.40866 7.30075C6.14533 7.07712 6.79778 7.54869 6.95826 8.12818L3.10336 9.19576C3.50189 10.6348 5.01286 11.6011 6.57053 11.1283L5.40866 7.30075ZM6.87345 6.94031C6.37298 7.03306 5.88456 7.15628 5.40866 7.30075L6.57053 11.1283C6.92403 11.021 7.26711 10.9355 7.60234 10.8733L6.87345 6.94031ZM7.87201 6.78295C7.54506 6.82707 7.21058 6.87784 6.87346 6.94031L7.60233 10.8733C7.85665 10.8262 8.1232 10.7853 8.40692 10.747L7.87201 6.78295ZM8.76615 6.68624C8.47732 6.71164 8.17653 6.74179 7.87159 6.783L8.40734 10.747C8.62596 10.7174 8.85852 10.6936 9.11654 10.6709L8.76615 6.68624ZM9.44676 6.64792C9.24455 6.65579 9.0072 6.66499 8.7657 6.68628L9.11699 10.6708C9.24555 10.6595 9.38679 10.6533 9.60241 10.6449L9.44676 6.64792ZM10.0779 6.62732C9.88874 6.63283 9.66936 6.63921 9.44645 6.64793L9.60273 10.6449C9.80269 10.6371 10.0026 10.6312 10.1945 10.6256L10.0779 6.62732ZM10.2653 6.62177L10.077 6.62734L10.1954 10.6256L10.3836 10.62L10.2653 6.62177ZM10.6491 6.62592C10.558 6.6246 10.4654 6.62326 10.3634 6.62127L10.2855 10.6205C10.3988 10.6227 10.5009 10.6242 10.5913 10.6255L10.6491 6.62592ZM11.2433 6.64087C11.0356 6.63133 10.8387 6.62866 10.6491 6.62592L10.5913 10.6255C10.7924 10.6284 10.9257 10.6305 11.0599 10.6367L11.2433 6.64087ZM12.1758 6.70262C11.8742 6.67824 11.5608 6.65533 11.2426 6.64084L11.0606 10.6367C11.3101 10.6481 11.5699 10.6667 11.8535 10.6896L12.1758 6.70262ZM12.9815 6.78404C12.7029 6.74754 12.4297 6.72318 12.1761 6.70265L11.8532 10.6896C12.0895 10.7087 12.2837 10.7268 12.4619 10.7501L12.9815 6.78404ZM13.9895 6.93623C13.6532 6.87836 13.317 6.82815 12.9824 6.78416L12.461 10.75C12.7491 10.7879 13.0326 10.8304 13.3113 10.8783L13.9895 6.93623ZM15.5593 7.28492C14.9401 7.10445 14.4852 7.0215 13.9894 6.93621L13.3114 10.8783C13.7615 10.9557 14.04 11.0086 14.4399 11.1251L15.5593 7.28492ZM18.2674 8.47808C17.5737 8.10045 16.696 7.61627 15.5593 7.28492L14.4399 11.1251C15.1118 11.321 15.6429 11.6037 16.355 11.9913L18.2674 8.47808ZM18.8055 8.76693C18.6318 8.67634 18.4586 8.58215 18.2674 8.47808L16.355 11.9913C16.5412 12.0926 16.7456 12.204 16.9564 12.3139L18.8055 8.76693ZM17.1126 9.31725C17.385 8.74446 18.1348 8.41723 18.8056 8.76694L16.9564 12.3139C18.3924 13.0625 20.0713 12.4092 20.7248 11.0353L17.1126 9.31725ZM17.6463 10.8633C17.0313 10.5427 16.8622 9.84359 17.1126 9.31725L20.7248 11.0353C21.3562 9.70786 20.8757 8.03596 19.4955 7.31639L17.6463 10.8633ZM17.1266 10.5837C17.294 10.6751 17.4734 10.7732 17.6463 10.8633L19.4955 7.3164C19.3632 7.24745 19.2191 7.16883 19.0439 7.07311L17.1266 10.5837ZM14.855 9.56405C15.6982 9.80983 16.4055 10.1898 17.1266 10.5837L19.0439 7.07311C18.337 6.68703 17.2836 6.10546 15.9744 5.72386L14.855 9.56405ZM13.5623 9.27933C14.0291 9.35961 14.3733 9.42363 14.855 9.56404L15.9744 5.72386C15.2737 5.51962 14.7535 5.42548 14.2404 5.33722L13.5623 9.27933ZM12.6535 9.14217C12.9589 9.18233 13.2621 9.22768 13.5622 9.27931L14.2405 5.33723C13.8826 5.27566 13.5268 5.22256 13.1749 5.1763L12.6535 9.14217ZM11.9725 9.07397C12.2152 9.09363 12.4388 9.11404 12.6543 9.14228L13.1741 5.1762C12.8583 5.1348 12.5556 5.1081 12.2954 5.08702L11.9725 9.07397ZM11.1281 9.01779C11.403 9.03032 11.6826 9.05053 11.9728 9.07399L12.2951 5.087C11.9868 5.06208 11.6537 5.03759 11.3102 5.02194L11.1281 9.01779ZM10.2067 12.5104L10.2233 12.5109L10.3482 8.5129L10.3317 8.51238L10.2067 12.5104ZM10.2798 12.5114L10.2964 12.5112L10.2421 8.51159L10.2256 8.51181L10.2798 12.5114ZM8.92135 12.5763C9.32412 12.5313 9.74149 12.5187 10.2797 12.5114L10.2257 8.51181C9.6758 8.51924 9.08932 8.53256 8.47637 8.60117L8.92135 12.5763ZM8.85072 12.5842L8.92065 12.5764L8.47708 8.60109L8.40715 8.6089L8.85072 12.5842ZM8.35761 12.6463C8.50561 12.623 8.66221 12.6052 8.85014 12.5843L8.40772 8.60883C8.23257 8.62832 7.9871 8.65531 7.73519 8.695L8.35761 12.6463ZM7.74871 12.7585C7.92743 12.7157 8.11924 12.6839 8.35845 12.6461L7.73435 8.69513C7.50497 8.73136 7.16844 8.78437 6.81772 8.8683L7.74871 12.7585ZM6.65843 13.0439C6.99959 12.939 7.35432 12.8528 7.74861 12.7585L6.81782 8.86828C6.43456 8.95998 5.96233 9.07317 5.483 9.22053L6.65843 13.0439ZM7.47191 11.5978C7.62545 12.1452 7.35202 12.8307 6.65842 13.0439L5.48301 9.22053C3.96923 9.6859 3.22615 11.2719 3.62053 12.678L7.47191 11.5978ZM5.91908 10.7753C6.65484 10.5491 7.30938 11.0183 7.47191 11.5978L3.62053 12.678C4.0239 14.1162 5.53856 15.0771 7.0945 14.5987L5.91908 10.7753ZM7.16274 10.448C6.77562 10.5406 6.34694 10.6438 5.91908 10.7753L7.0945 14.5987C7.38386 14.5098 7.69442 14.4337 8.09352 14.3382L7.16274 10.448ZM7.96493 10.2975C7.73271 10.3342 7.44959 10.3793 7.16262 10.448L8.09364 14.3381C8.20779 14.3108 8.3448 14.2871 8.58906 14.2485L7.96493 10.2975ZM8.57076 10.2203C8.39432 10.24 8.18268 10.2632 7.96591 10.2973L8.58809 14.2486C8.70002 14.231 8.82003 14.2173 9.01422 14.1956L8.57076 10.2203ZM8.64145 10.2124L8.57036 10.2203L9.01463 14.1956L9.08572 14.1876L8.64145 10.2124ZM10.1592 10.1345L8.76629 10.2024L8.96087 14.1976L10.3538 14.1298L10.1592 10.1345ZM10.4888 10.1373C10.4239 10.1359 10.3689 10.1346 10.316 10.133L10.197 14.1313C10.2674 14.1334 10.3374 14.1349 10.3996 14.1363L10.4888 10.1373ZM11.0692 10.1591C10.848 10.1451 10.6428 10.1407 10.4888 10.1373L10.3996 14.1363C10.5632 14.14 10.6892 14.143 10.8164 14.1511L11.0692 10.1591ZM12.0947 10.2479C11.7432 10.2059 11.3972 10.1799 11.0693 10.1591L10.8163 14.1511C11.1157 14.17 11.3767 14.1906 11.6198 14.2197L12.0947 10.2479ZM15.4523 11.0433C14.3565 10.6419 13.2343 10.3844 12.095 10.248L11.6194 14.2196C12.4748 14.322 13.2927 14.5122 14.0763 14.7992L15.4523 11.0433ZM17.6597 12.0366C16.8911 11.6224 16.2694 11.3427 15.4522 11.0433L14.0764 14.7992C14.7135 15.0326 15.1608 15.2339 15.7622 15.5579L17.6597 12.0366ZM15.9584 12.5653C16.2394 11.9937 16.9951 11.6785 17.6597 12.0366L15.7622 15.5579C17.1869 16.3256 18.8758 15.6974 19.5481 14.33L15.9584 12.5653ZM16.4705 14.1171C15.8622 13.7893 15.7006 13.0897 15.9584 12.5653L19.548 14.33C20.197 13.0099 19.7364 11.3332 18.368 10.5958L16.4705 14.1171ZM14.5875 13.2697C15.2923 13.5279 15.8055 13.7588 16.4705 14.1171L18.368 10.5958C17.5357 10.1473 16.8482 9.83791 15.9634 9.51379L14.5875 13.2697ZM11.7952 12.6097C12.7556 12.7247 13.6869 12.9398 14.5875 13.2697L15.9635 9.51381C14.7506 9.06949 13.5151 8.78703 12.2708 8.63803L11.7952 12.6097ZM10.9098 12.5336C11.2197 12.5532 11.5122 12.5758 11.7955 12.6097L12.2705 8.63799C11.8789 8.59117 11.5013 8.56305 11.1628 8.54159L10.9098 12.5336ZM10.4 12.5154C10.5737 12.5193 10.7508 12.5235 10.9099 12.5336L11.1627 8.54158C10.9092 8.52553 10.6516 8.52001 10.4896 8.51638L10.4 12.5154ZM10.4004 12.5154L10.4018 12.5154L10.4878 8.51634L10.4863 8.51631L10.4004 12.5154ZM10.2234 12.5109C10.2784 12.5127 10.3415 12.5141 10.3985 12.5153L10.4882 8.51635C10.4256 8.51495 10.3819 8.51395 10.3481 8.51289L10.2234 12.5109ZM10.4586 11.8601L10.4327 11.8592L10.2914 15.8567L10.3173 15.8576L10.4586 11.8601ZM10.6695 11.8665C10.5894 11.8642 10.5211 11.8623 10.4586 11.8601L10.3173 15.8576C10.3967 15.8604 10.4798 15.8627 10.5567 15.8649L10.6695 11.8665ZM11.3064 11.892C11.0783 11.8778 10.8461 11.8715 10.6695 11.8665L10.5567 15.8649C10.7456 15.8702 10.9095 15.875 11.0584 15.8843L11.3064 11.892ZM15.6377 12.8674C14.2096 12.2756 12.7515 11.9815 11.3061 11.892L11.0588 15.8843C12.127 15.9505 13.1423 16.1632 14.1061 16.5626L15.6377 12.8674ZM17.4463 13.7976C16.8635 13.4336 16.2592 13.1251 15.6378 12.8675L14.106 16.5626C14.5308 16.7387 14.938 16.947 15.3272 17.1901L17.4463 13.7976ZM18.3925 17.595C19.1236 16.3121 18.7562 14.6158 17.4463 13.7976L15.3272 17.1901C14.7515 16.8305 14.6241 16.1289 14.9172 15.6145L18.3925 17.595ZM14.5342 18.5817C15.9018 19.4359 17.6327 18.9284 18.3925 17.595L14.9172 15.6146C15.2391 15.0498 16.0199 14.7935 16.6533 15.1892L14.5342 18.5817ZM13.5362 18.0692C13.8869 18.2146 14.2192 18.3849 14.5342 18.5817L16.6533 15.1892C16.1447 14.8715 15.6154 14.6011 15.068 14.3742L13.5362 18.0692ZM10.9673 17.5019C11.8964 17.5595 12.7469 17.7421 13.5363 18.0693L15.0679 14.3741C13.8142 13.8545 12.5209 13.5905 11.2145 13.5096L10.9673 17.5019ZM10.5468 17.4857C10.7213 17.4906 10.843 17.4942 10.9668 17.5019L11.2149 13.5096C11.0121 13.497 10.8229 13.4919 10.6586 13.4873L10.5468 17.4857ZM10.2935 17.4781C10.3849 17.4812 10.4709 17.4836 10.5468 17.4857L10.6586 13.4873C10.5813 13.4851 10.5072 13.4831 10.4298 13.4804L10.2935 17.4781ZM10.1734 17.4857L10.4206 17.4784L10.3027 13.4801L10.0555 13.4874L10.1734 17.4857ZM9.71872 17.5033C9.85096 17.4947 9.98148 17.4909 10.1691 17.4858L10.0598 13.4873C9.88355 13.4921 9.67894 13.4975 9.45995 13.5117L9.71872 17.5033ZM8.97933 17.5713C9.24396 17.5417 9.48719 17.5183 9.71874 17.5033L9.45993 13.5117C9.14383 13.5322 8.83369 13.5627 8.53442 13.5961L8.97933 17.5713ZM8.37143 17.6531C8.5401 17.6234 8.72953 17.5993 8.97956 17.5713L8.53418 13.5962C8.26898 13.6259 7.97543 13.6612 7.6761 13.714L8.37143 17.6531ZM7.57794 17.8068C7.86797 17.7482 8.11974 17.6975 8.37117 17.6532L7.67636 13.714C7.36845 13.7683 7.06849 13.8289 6.78657 13.8858L7.57794 17.8068ZM7.28117 17.8664C7.38287 17.8462 7.48244 17.8261 7.57794 17.8068L6.78657 13.8858C6.6903 13.9053 6.5958 13.9244 6.50006 13.9434L7.28117 17.8664ZM4.01797 15.6178C4.2827 17.0751 5.68502 18.1842 7.28118 17.8664L6.50006 13.9434C7.25646 13.7928 7.84854 14.3247 7.95356 14.9029L4.01797 15.6178ZM6.21088 12.3515C4.64447 12.6634 3.75721 14.1823 4.01797 15.6178L7.95356 14.9029C8.05461 15.4591 7.71864 16.1298 6.992 16.2745L6.21088 12.3515ZM6.47998 12.2974C6.38686 12.3162 6.29791 12.3342 6.21086 12.3515L6.99201 16.2745C7.08511 16.256 7.17929 16.2369 7.27147 16.2183L6.47998 12.2974ZM7.41901 12.1161C7.09148 12.1739 6.76633 12.2396 6.47999 12.2974L7.27146 16.2183C7.56581 16.1589 7.84282 16.1031 8.11386 16.0553L7.41901 12.1161ZM8.36958 11.9849C8.09836 12.0153 7.76636 12.0548 7.41879 12.1161L8.11408 16.0553C8.3313 16.0169 8.55951 15.9887 8.81494 15.9601L8.36958 11.9849ZM9.36427 11.8943C9.01689 11.9169 8.68196 11.95 8.3698 11.9849L8.81472 15.9601C9.0922 15.929 9.36022 15.903 9.62308 15.8859L9.36427 11.8943ZM10.0512 11.8664C9.86247 11.8716 9.61165 11.8783 9.36428 11.8943L9.62307 15.8859C9.78346 15.8755 9.95925 15.8705 10.1612 15.8649L10.0512 11.8664ZM10.2665 11.86C10.2029 11.8622 10.1331 11.8642 10.0512 11.8664L10.1612 15.8649C10.2399 15.8628 10.3248 15.8604 10.4057 15.8576L10.2665 11.86ZM10.2925 11.8591L10.2665 11.86L10.4057 15.8576L10.4316 15.8567L10.2925 11.8591Z" fill="black" mask="url(#path-1-inside-1_766_6758)"/>
</svg>
