<svg width="24" height="24" viewBox="0 0 24 24" fill="none" xmlns="http://www.w3.org/2000/svg">
<path d="M12.6072 3.1352C12.2227 2.95493 11.7774 2.95493 11.3929 3.1352C11.0524 3.29484 10.8668 3.57157 10.7789 3.7127C10.6885 3.85791 10.5968 4.04075 10.512 4.2098L8.71807 7.78358L4.69898 8.36124C4.5088 8.38852 4.30531 8.41772 4.13866 8.45713C3.9796 8.49474 3.65681 8.58138 3.39618 8.8519C3.09829 9.16109 2.95482 9.59042 3.01257 10.0205C3.06328 10.398 3.27781 10.6599 3.38479 10.7829C3.497 10.9119 3.64511 11.0536 3.78251 11.1852L6.67961 13.9599L5.99671 17.8752C5.96428 18.0608 5.92909 18.2622 5.91538 18.4326C5.90215 18.5968 5.88585 18.9345 6.07023 19.2683C6.27856 19.6454 6.64488 19.9037 7.06179 19.9797C7.42856 20.0465 7.73905 19.9315 7.89221 19.869C8.05086 19.8042 8.23324 19.7099 8.40338 19.6218L12 17.7619L15.5967 19.6218C15.7668 19.7099 15.9492 19.8042 16.1078 19.869C16.261 19.9315 16.5715 20.0465 16.9382 19.9797C17.3552 19.9037 17.7215 19.6454 17.9298 19.2683C18.1142 18.9345 18.0979 18.5968 18.0847 18.4326C18.071 18.2622 18.0358 18.0608 18.0033 17.8752L17.3204 13.9599L20.2175 11.1852C20.3549 11.0537 20.503 10.9119 20.6153 10.7829C20.7222 10.6599 20.9368 10.398 20.9875 10.0205C21.0452 9.59042 20.9018 9.16109 20.6039 8.8519C20.3432 8.58138 20.0204 8.49474 19.8614 8.45713C19.6947 8.41772 19.4913 8.38853 19.3011 8.36124L15.282 7.78358L13.488 4.20979C13.4032 4.04075 13.3115 3.8579 13.2211 3.7127C13.1332 3.57157 12.9477 3.29484 12.6072 3.1352Z" fill="black"/>
</svg>
