<svg width="24" height="24" viewBox="0 0 24 24" fill="none" xmlns="http://www.w3.org/2000/svg">
<path d="M13 3C13 2.44772 12.5523 2 12 2C11.4477 2 11 2.44772 11 3V5.25C11 5.80228 11.4477 6.25 12 6.25C12.5523 6.25 13 5.80228 13 5.25V3Z" fill="black"/>
<path d="M6.34311 4.92889C5.95258 4.53837 5.31942 4.53837 4.92889 4.92889C4.53837 5.31942 4.53837 5.95258 4.92889 6.34311L6.51989 7.93411C6.91042 8.32463 7.54358 8.32463 7.93411 7.93411C8.32463 7.54358 8.32463 6.91042 7.93411 6.51989L6.34311 4.92889Z" fill="black"/>
<path d="M17.4801 7.93411L19.0711 6.34311C19.4616 5.95258 19.4616 5.31942 19.0711 4.92889C18.6806 4.53837 18.0474 4.53837 17.6569 4.92889L16.0659 6.51989C15.6754 6.91042 15.6754 7.54358 16.0659 7.93411C16.4564 8.32463 17.0896 8.32463 17.4801 7.93411Z" fill="black"/>
<path d="M12 7.25C10.7402 7.25 9.53204 7.75044 8.64124 8.64124C7.75044 9.53204 7.25 10.7402 7.25 12C7.25 13.2598 7.75044 14.468 8.64124 15.3588C9.53204 16.2496 10.7402 16.75 12 16.75C13.2598 16.75 14.468 16.2496 15.3588 15.3588C16.2496 14.468 16.75 13.2598 16.75 12C16.75 10.7402 16.2496 9.53204 15.3588 8.64124C14.468 7.75044 13.2598 7.25 12 7.25Z" fill="black"/>
<path d="M3 11C2.44772 11 2 11.4477 2 12C2 12.5523 2.44772 13 3 13H5.25C5.80228 13 6.25 12.5523 6.25 12C6.25 11.4477 5.80228 11 5.25 11H3Z" fill="black"/>
<path d="M18.75 11C18.1977 11 17.75 11.4477 17.75 12C17.75 12.5523 18.1977 13 18.75 13H21C21.5523 13 22 12.5523 22 12C22 11.4477 21.5523 11 21 11H18.75Z" fill="black"/>
<path d="M6.34311 19.0711L7.93411 17.4801C8.32463 17.0896 8.32463 16.4564 7.93411 16.0659C7.54358 15.6754 6.91042 15.6754 6.51989 16.0659L4.92889 17.6569C4.53837 18.0474 4.53837 18.6806 4.92889 19.0711C5.31942 19.4616 5.95258 19.4616 6.34311 19.0711Z" fill="black"/>
<path d="M19.0711 17.6569L17.4801 16.0659C17.0896 15.6754 16.4564 15.6754 16.0659 16.0659C15.6754 16.4564 15.6754 17.0896 16.0659 17.4801L17.6569 19.0711C18.0474 19.4616 18.6806 19.4616 19.0711 19.0711C19.4616 18.6806 19.4616 18.0474 19.0711 17.6569Z" fill="black"/>
<path d="M13 18.75C13 18.1977 12.5523 17.75 12 17.75C11.4477 17.75 11 18.1977 11 18.75V21C11 21.5523 11.4477 22 12 22C12.5523 22 13 21.5523 13 21V18.75Z" fill="black"/>
</svg>
