<svg width="24" height="24" viewBox="0 0 24 24" fill="none" xmlns="http://www.w3.org/2000/svg">
<path fill-rule="evenodd" clip-rule="evenodd" d="M9.15143 2.03592C10.0328 2.01804 11.135 2 12 2C12.865 2 13.9672 2.01804 14.8486 2.03592C15.2902 2.04488 15.6783 2.05384 15.9559 2.06056L16.2827 2.06869L16.3891 2.07145C17.2626 2.07415 18.1396 2.32813 18.8232 2.83041C19.5157 3.33914 20 4.10633 20 5V19C20 19.8937 19.5157 20.6609 18.8232 21.1696C18.1396 21.6719 17.2626 21.9259 16.3891 21.9286L16.2827 21.9313L15.9559 21.9394C15.6783 21.9462 15.2902 21.9551 14.8486 21.9641C13.9672 21.982 12.865 22 12 22C11.135 22 10.0328 21.982 9.15143 21.9641C8.70976 21.9551 8.32175 21.9462 8.0441 21.9394L7.71729 21.9313L7.61094 21.9286C6.73741 21.9259 5.86044 21.6719 5.17677 21.1696C4.48433 20.6609 4 19.8937 4 19V5C4 4.10633 4.48434 3.33914 5.17677 2.83041C5.86044 2.32813 6.73739 2.07415 7.61092 2.07145L7.71729 2.06869L8.0441 2.06056C8.32175 2.05384 8.70976 2.04488 9.15143 2.03592ZM10.75 17.25C10.3358 17.25 10 17.5858 10 18C10 18.4142 10.3358 18.75 10.75 18.75H13.25C13.6642 18.75 14 18.4142 14 18C14 17.5858 13.6642 17.25 13.25 17.25H10.75Z" fill="black"/>
</svg>
