<svg width="24" height="24" viewBox="0 0 24 24" fill="none" xmlns="http://www.w3.org/2000/svg">
<path d="M4.62785 4.3005L4.4294 4.4989C4.03529 4.89249 3.71579 5.21157 3.47375 5.64244C3.19689 6.13529 3.01444 6.83686 3.01612 7.40215C3.01759 7.8952 3.12053 8.25723 3.24605 8.69871L3.26114 8.75183C4.04444 11.5116 5.52264 14.1155 7.69302 16.2858C9.8634 18.4562 12.4673 19.9344 15.227 20.7177L15.2801 20.7328C15.7216 20.8583 16.0836 20.9613 16.5767 20.9627C17.142 20.9644 17.8436 20.782 18.3364 20.5051C18.7673 20.2631 19.0864 19.9436 19.4799 19.5494L19.6783 19.351L19.7656 19.2639C20.1326 18.8981 20.4721 18.5597 20.6705 18.1674C21.0601 17.3972 21.0601 16.4875 20.6705 15.7173C20.4721 15.325 20.1326 14.9866 19.7656 14.6208L19.6783 14.5337L19.5113 14.3667L19.454 14.3092C19.2129 14.0677 18.9908 13.8451 18.7492 13.688C17.8496 13.1031 16.6898 13.1031 15.7902 13.688C15.5486 13.8451 15.3265 14.0676 15.0855 14.3092L15.0025 14.3922L14.997 14.3896C13.8549 13.8412 12.7835 13.0933 11.8345 12.1444C10.8855 11.1954 10.1376 10.124 9.58926 8.98184L9.58661 8.97632L9.66963 8.89337C9.9112 8.65233 10.1337 8.43027 10.2909 8.18862C10.8758 7.28902 10.8758 6.12927 10.2909 5.22967C10.1337 4.98802 9.9112 4.76596 9.66963 4.52491L9.44514 4.3005L9.35807 4.21325C8.99222 3.8462 8.65387 3.50674 8.26154 3.3083C7.4913 2.91872 6.58169 2.91872 5.81146 3.3083C5.41912 3.50674 5.08077 3.8462 4.71492 4.21325L4.62785 4.3005Z" fill="black"/>
</svg>
