<svg width="24" height="24" viewBox="0 0 24 24" fill="none" xmlns="http://www.w3.org/2000/svg">
<path d="M16 15.423L16 3.23287C15.0429 3.11526 13.923 3 12.8522 3C11.7025 3 10.5742 3.13284 9.61451 3.25846C9.47177 3.27714 9.33431 3.29539 9.20202 3.31296C8.40364 3.41897 7.79343 3.5 7.34503 3.5C5.65939 3.5 4.19373 4.70044 3.92608 6.37122L3.04381 11.4644L3.04135 11.4792C2.71169 13.5689 4.36843 15.4 6.46158 15.4H9.15576V18.0273C9.15576 19.6926 10.533 21 12.1786 21C12.8262 21 13.4296 20.6278 13.7047 20.0242C13.7046 20.0245 13.7054 20.0232 13.7072 20.02L13.7088 20.0172C13.7228 19.9925 13.7741 19.902 13.888 19.7087L13.9635 19.5808C14.0705 19.3996 14.2005 19.1795 14.3393 18.9396C14.6834 18.3449 15.1037 17.5911 15.4109 16.9125C15.6239 16.4424 15.8252 15.9136 16 15.423Z" fill="black"/>
<path d="M18 13.8H18.3593C19.7939 13.8 21 12.6595 21 11.2L21 6.1C21 4.64052 19.7939 3.5 18.3593 3.5C18.2634 3.5 18.1435 3.4927 18 3.47956L18 13.8Z" fill="black"/>
</svg>
