<svg width="24" height="24" viewBox="0 0 24 24" fill="none" xmlns="http://www.w3.org/2000/svg">
<path d="M10.2953 3.97579C10.5703 3.37218 11.1738 3 11.8214 3C13.467 3 14.8442 4.30738 14.8442 5.97267V8.6H17.5384C19.6316 8.6 21.2883 10.4311 20.9586 12.5208L20.9562 12.5356L20.0739 17.6288C19.8063 19.2996 18.3406 20.5 16.655 20.5C16.2066 20.5 15.5965 20.581 14.7982 20.687C14.6659 20.7046 14.5282 20.7229 14.3855 20.7415C13.4258 20.8672 12.2975 21 11.1478 21C10.077 21 8.95709 20.8847 8 20.7671L8 8.57695C8.17475 8.08642 8.37614 7.55764 8.58905 7.08748C8.89633 6.40891 9.31659 5.65513 9.6607 5.06039C9.7995 4.82049 9.92946 4.60044 10.0365 4.41918L10.112 4.29131C10.2261 4.09779 10.2773 4.00737 10.2912 3.98285C10.2942 3.97764 10.2954 3.97541 10.2953 3.97579Z" fill="black"/>
<path d="M6 10.2H5.64071C4.20612 10.2 3 11.3405 3 12.8V17.9C3 19.3595 4.20612 20.5 5.64071 20.5C5.7366 20.5 5.85649 20.5073 6 20.5204L6 10.2Z" fill="black"/>
</svg>
