<svg width="24" height="24" viewBox="0 0 24 24" fill="none" xmlns="http://www.w3.org/2000/svg">
<path fill-rule="evenodd" clip-rule="evenodd" d="M7 4C7 3.44772 7.44772 3 8 3C8.55228 3 9 3.44772 9 4V5.08323C9.67943 5.05093 10.3579 5.02545 11 5.01158V4C11 3.44772 11.4477 3 12 3C12.5523 3 13 3.44772 13 4V5.01158C13.6421 5.02545 14.3206 5.05093 15 5.08323V4C15 3.44772 15.4477 3 16 3C16.5523 3 17 3.44772 17 4V5.19522C18.253 5.2739 18.9248 5.33878 19.475 5.64944C19.9942 5.94261 20.4366 6.41288 20.6975 6.94904C21 7.57057 21 8.34104 21 9.88197V16.118C21 17.659 21 18.4294 20.6975 19.051C20.4366 19.5871 19.9942 20.0574 19.475 20.3506C18.8731 20.6904 18.1257 20.7361 16.6311 20.8275C15.0873 20.922 13.3907 21 12 21C10.6093 21 8.91267 20.922 7.36894 20.8275C5.87426 20.7361 5.12692 20.6904 4.52501 20.3506C4.00577 20.0574 3.5634 19.5871 3.30247 19.051C3 18.4294 3 17.659 3 16.118V9.88197C3 8.34104 3 7.57057 3.30247 6.94904C3.5634 6.41288 4.00577 5.94261 4.52501 5.64944C5.07522 5.33878 5.74696 5.2739 7 5.19522V4ZM7 12C7 11.4477 7.44772 11 8 11C8.55228 11 9 11.4477 9 12C9 12.5523 8.55228 13 8 13C7.44772 13 7 12.5523 7 12ZM7 16C7 15.4477 7.44772 15 8 15C8.55228 15 9 15.4477 9 16C9 16.5523 8.55228 17 8 17C7.44772 17 7 16.5523 7 16ZM12 15C11.4477 15 11 15.4477 11 16C11 16.5523 11.4477 17 12 17C12.5523 17 13 16.5523 13 16C13 15.4477 12.5523 15 12 15ZM11 12C11 11.4477 11.4477 11 12 11C12.5523 11 13 11.4477 13 12C13 12.5523 12.5523 13 12 13C11.4477 13 11 12.5523 11 12ZM16 11C15.4477 11 15 11.4477 15 12C15 12.5523 15.4477 13 16 13C16.5523 13 17 12.5523 17 12C17 11.4477 16.5523 11 16 11ZM15 16C15 15.4477 15.4477 15 16 15C16.5523 15 17 15.4477 17 16C17 16.5523 16.5523 17 16 17C15.4477 17 15 16.5523 15 16Z" fill="black"/>
</svg>
