<svg width="24" height="24" viewBox="0 0 24 24" fill="none" xmlns="http://www.w3.org/2000/svg">
<path fill-rule="evenodd" clip-rule="evenodd" d="M7.90497 4.0976C9.09205 3.39977 10.4718 3 11.9412 3C16.4071 3 20 6.67461 20 11.1734C20 13.483 19.6826 15.7191 19.0891 17.8382C18.9402 18.37 18.3883 18.6804 17.8565 18.5315C17.3246 18.3825 17.0143 17.8306 17.1632 17.2988C17.708 15.3537 18 13.2991 18 11.1734C18 7.74869 15.2722 5 11.9412 5C10.8391 5 9.80797 5.29889 8.91853 5.82175C8.44242 6.10164 7.82956 5.94257 7.54968 5.46646C7.26979 4.99035 7.42886 4.37749 7.90497 4.0976ZM6.32138 6.71765C6.80135 6.99086 6.96897 7.60144 6.69575 8.08141C6.17903 8.98918 5.88234 10.0442 5.88234 11.1734C5.88234 12.7284 5.53067 14.2033 4.9022 15.5179C4.664 16.0162 4.06697 16.2271 3.56869 15.9889C3.07042 15.7507 2.85958 15.1536 3.09778 14.6554C3.59988 13.605 3.88234 12.4244 3.88234 11.1734C3.88234 9.6895 4.27314 8.29449 4.95762 7.09202C5.23083 6.61205 5.84141 6.44444 6.32138 6.71765ZM7.41167 11.1734C7.41167 8.6555 9.42443 6.58672 11.9411 6.58672C14.4577 6.58672 16.4705 8.6555 16.4705 11.1734C16.4705 12.1301 16.4064 13.0727 16.2822 13.9967C16.2087 14.544 15.7053 14.9281 15.1579 14.8546C14.6106 14.781 14.2265 14.2776 14.3 13.7303C14.4124 12.8942 14.4705 12.0407 14.4705 11.1734C14.4705 9.72958 13.3229 8.58672 11.9411 8.58672C10.5592 8.58672 9.41167 9.72958 9.41167 11.1734C9.41167 13.8223 8.66559 16.2872 7.37495 18.3723C7.36302 18.3915 7.35138 18.4109 7.34002 18.4303C7.06136 18.9071 6.44891 19.0678 5.97208 18.7891C5.49526 18.5105 5.33461 17.898 5.61327 17.4212C5.63317 17.3871 5.65354 17.3533 5.67438 17.3196C6.77402 15.5431 7.41167 13.4415 7.41167 11.1734ZM11.941 10.1734C12.4933 10.1734 12.941 10.6211 12.941 11.1734C12.941 14.5177 11.9967 17.6419 10.3624 20.2821C10.0717 20.7517 9.45538 20.8967 8.98578 20.606C8.51618 20.3153 8.37114 19.699 8.66183 19.2294C10.1052 16.8977 10.9411 14.1368 10.9411 11.1734C10.9411 10.6211 11.3888 10.1734 11.941 10.1734ZM15.0071 15.5902C15.5391 15.7383 15.8504 16.2897 15.7022 16.8218C15.3516 18.0809 14.8868 19.292 14.3198 20.4422C14.0756 20.9375 13.476 21.1411 12.9807 20.8969C12.4853 20.6527 12.2817 20.0532 12.5259 19.5578C13.0384 18.5183 13.4585 17.4236 13.7755 16.2853C13.9237 15.7532 14.4751 15.442 15.0071 15.5902Z" fill="black"/>
</svg>
