<svg width="24" height="24" viewBox="0 0 24 24" fill="none" xmlns="http://www.w3.org/2000/svg">
<path d="M10.6746 4.00582C11.2056 3.95568 11.6582 4.22214 11.9188 4.58823C12.1329 4.88891 12.1683 5.22828 12.1824 5.39415C12.1989 5.58771 12.1998 5.82358 12.2 6.0655C12.3286 6.65374 13 9.81348 13 11.9999C13 14.1863 12.3286 17.3461 12.2 17.9343C12.1998 18.1763 12.1989 18.4121 12.1824 18.6057C12.1683 18.7716 12.1329 19.1109 11.9188 19.4116C11.6582 19.7777 11.2056 20.0441 10.6746 19.994C10.2136 19.9505 9.90974 19.6452 9.80532 19.5402L9.8027 19.5376C9.66669 19.401 9.51334 19.2169 9.36234 19.0357L6.80674 15.9695C6.77668 15.9334 6.75255 15.9045 6.73143 15.8795L5.46772 15.8794C5.27221 15.8795 5.06032 15.8795 4.877 15.8616C4.66525 15.8408 4.39959 15.7896 4.13522 15.628C3.87834 15.471 3.67401 15.2558 3.52573 15.0154L3.52413 15.0128L3.51839 15.0033C3.51275 14.9939 3.50348 14.978 3.49285 14.958C3.48201 14.9375 3.47356 14.9198 3.4675 14.9066L3.46262 14.8958L3.45352 14.8766C3.42215 14.811 3.37119 14.6814 3.34944 14.612C3.31954 14.5166 3.30779 14.4613 3.29603 14.4024C3.2203 14.0227 3 12.8594 3 11.9999C3 11.2103 3.1852 10.1706 3.27214 9.71935L3.27437 9.70775C3.29008 9.62594 3.30961 9.52427 3.35577 9.39003C3.39067 9.28858 3.45736 9.1413 3.51059 9.04816C3.57669 8.9325 3.62225 8.87198 3.67086 8.80937C3.73349 8.72869 3.90123 8.51486 4.13522 8.37182C4.39959 8.2102 4.66525 8.159 4.877 8.13825C5.0603 8.12028 5.27219 8.12034 5.46769 8.12039L6.73144 8.12036C6.75256 8.09534 6.77668 8.0664 6.80674 8.03034L9.36235 4.96412C9.51335 4.78288 9.66669 4.59882 9.8027 4.46221L9.80531 4.45958C9.90973 4.35467 10.2136 4.04936 10.6746 4.00582Z" fill="black"/>
<path d="M16.46 8.21988C16.3053 7.68969 15.7502 7.38525 15.22 7.5399C14.6898 7.69455 14.3853 8.24972 14.54 8.77991C14.9001 10.0144 15 10.7139 15 11.9999C15 13.2858 14.9001 13.9854 14.54 15.2199C14.3853 15.7501 14.6898 16.3052 15.22 16.4599C15.7502 16.6145 16.3053 16.3101 16.46 15.7799C16.8731 14.3635 17 13.4754 17 11.9999C17 10.5244 16.8731 9.63633 16.46 8.21988Z" fill="black"/>
</svg>
