<svg width="24" height="24" viewBox="0 0 24 24" fill="none" xmlns="http://www.w3.org/2000/svg">
<path d="M19.4122 4.59025C19.1859 4.08646 18.594 3.86151 18.0903 4.08781C17.5865 4.3141 17.3615 4.90596 17.5878 5.40975C18.6755 7.83116 19 9.34553 19 12C19 14.6456 18.5611 16.4235 17.5878 18.5903C17.3615 19.094 17.5865 19.6859 18.0903 19.9122C18.594 20.1385 19.1859 19.9135 19.4122 19.4098C20.4938 17.002 21 14.9459 21 12C21 9.06302 20.6156 7.26936 19.4122 4.59025Z" fill="black"/>
<path d="M10.6746 4.00595C11.2056 3.95581 11.6582 4.22226 11.9188 4.58835C12.1329 4.88903 12.1683 5.2284 12.1824 5.39427C12.1989 5.58783 12.1998 5.8237 12.2 6.06563C12.3286 6.65386 13 9.8136 13 12C13 14.1865 12.3286 17.3462 12.2 17.9345C12.1998 18.1764 12.1989 18.4122 12.1824 18.6058C12.1683 18.7717 12.1329 19.111 11.9188 19.4117C11.6582 19.7778 11.2056 20.0443 10.6746 19.9941C10.2136 19.9506 9.90974 19.6453 9.80532 19.5404L9.8027 19.5377C9.66669 19.4011 9.51334 19.2171 9.36234 19.0358L6.80674 15.9696C6.77668 15.9335 6.75255 15.9046 6.73143 15.8796L5.46772 15.8796C5.27221 15.8796 5.06032 15.8797 4.877 15.8617C4.66525 15.8409 4.39959 15.7897 4.13522 15.6281C3.87834 15.4711 3.67401 15.256 3.52573 15.0155L3.52413 15.0129L3.51839 15.0034C3.51275 14.994 3.50348 14.9782 3.49285 14.9581C3.48201 14.9376 3.47356 14.9199 3.4675 14.9067L3.46262 14.8959L3.45352 14.8767C3.42215 14.8111 3.37119 14.6816 3.34944 14.6121C3.31954 14.5167 3.30779 14.4615 3.29603 14.4025C3.2203 14.0229 3 12.8595 3 12C3 11.2104 3.1852 10.1707 3.27214 9.71947L3.27437 9.70787C3.29008 9.62607 3.30961 9.52439 3.35577 9.39015C3.39067 9.2887 3.45736 9.14143 3.51059 9.04828C3.57669 8.93262 3.62225 8.8721 3.67086 8.80949C3.73349 8.72881 3.90123 8.51499 4.13522 8.37194C4.39959 8.21032 4.66525 8.15913 4.877 8.13837C5.0603 8.1204 5.27219 8.12046 5.46769 8.12051L6.73144 8.12048C6.75256 8.09546 6.77668 8.06652 6.80674 8.03046L9.36235 4.96424C9.51335 4.783 9.66669 4.59894 9.8027 4.46233L9.80531 4.45971C9.90973 4.35479 10.2136 4.04948 10.6746 4.00595Z" fill="black"/>
<path d="M16.46 8.22C16.3053 7.68981 15.7502 7.38537 15.22 7.54002C14.6898 7.69467 14.3853 8.24984 14.54 8.78003C14.9001 10.0145 15 10.7141 15 12C15 13.286 14.9001 13.9855 14.54 15.22C14.3853 15.7502 14.6898 16.3054 15.22 16.46C15.7502 16.6147 16.3053 16.3102 16.46 15.78C16.8731 14.3636 17 13.4755 17 12C17 10.5245 16.8731 9.63645 16.46 8.22Z" fill="black"/>
</svg>
