<svg width="24" height="24" viewBox="0 0 24 24" fill="none" xmlns="http://www.w3.org/2000/svg">
<path d="M11.9188 4.58823C11.6582 4.22214 11.2056 3.95568 10.6746 4.00582C10.2136 4.04936 9.90973 4.35467 9.80531 4.45958L9.8027 4.46221C9.66669 4.59882 9.51335 4.78288 9.36235 4.96412L6.80674 8.03034C6.77668 8.0664 6.75256 8.09534 6.73144 8.12036L5.46769 8.12039C5.27219 8.12034 5.0603 8.12028 4.877 8.13825C4.66525 8.159 4.39959 8.2102 4.13522 8.37182C3.90123 8.51486 3.73349 8.72869 3.67086 8.80937C3.62225 8.87198 3.57669 8.9325 3.51059 9.04816C3.45736 9.1413 3.39067 9.28858 3.35577 9.39003C3.30961 9.52427 3.29008 9.62594 3.27437 9.70775L3.27214 9.71935C3.1852 10.1706 3 11.2103 3 11.9999C3 12.8594 3.2203 14.0227 3.29603 14.4024C3.30779 14.4613 3.31954 14.5166 3.34944 14.612C3.37119 14.6814 3.42215 14.811 3.45352 14.8766L3.46262 14.8958L3.4675 14.9066C3.47356 14.9198 3.48201 14.9375 3.49285 14.958C3.50348 14.978 3.51275 14.9939 3.51839 15.0033L3.52413 15.0128L3.52573 15.0154C3.67401 15.2558 3.87834 15.471 4.13522 15.628C4.39959 15.7896 4.66525 15.8408 4.877 15.8616C5.06032 15.8795 5.27221 15.8795 5.46772 15.8794L6.73143 15.8795C6.75255 15.9045 6.77668 15.9334 6.80674 15.9695L9.36234 19.0357C9.51334 19.2169 9.66669 19.401 9.8027 19.5376L9.80532 19.5402C9.90974 19.6452 10.2136 19.9505 10.6746 19.994C11.2056 20.0441 11.6582 19.7777 11.9188 19.4116C12.1329 19.1109 12.1683 18.7716 12.1824 18.6057C12.1989 18.4121 12.1998 18.1763 12.2 17.9343C12.3286 17.3461 13 14.1863 13 11.9999C13 9.81348 12.3286 6.65374 12.2 6.0655C12.1998 5.82358 12.1989 5.58771 12.1824 5.39415C12.1683 5.22828 12.1329 4.88891 11.9188 4.58823Z" fill="black"/>
<path d="M15.2929 14.7071C14.9024 14.3166 14.9024 13.6834 15.2929 13.2929L16.5858 12L15.2929 10.7071C14.9024 10.3166 14.9024 9.68345 15.2929 9.29292C15.6834 8.9024 16.3166 8.9024 16.7071 9.29292L18 10.5858L19.2929 9.29289C19.6834 8.90237 20.3166 8.90237 20.7071 9.29289C21.0976 9.68342 21.0976 10.3166 20.7071 10.7071L19.4142 12L20.7071 13.2929C21.0976 13.6834 21.0976 14.3166 20.7071 14.7071C20.3166 15.0977 19.6834 15.0977 19.2929 14.7071L18 13.4142L16.7071 14.7071C16.3166 15.0976 15.6834 15.0976 15.2929 14.7071Z" fill="black"/>
</svg>
