<svg width="24" height="24" viewBox="0 0 24 24" fill="none" xmlns="http://www.w3.org/2000/svg">
<path d="M11 13.5458V10.4542L13.4773 12L11 13.5458Z" fill="black"/>
<path fill-rule="evenodd" clip-rule="evenodd" d="M7.3686 4.14947C8.90373 4.06783 10.5982 4 12 4C13.4018 4 15.0963 4.06783 16.6314 4.14947L16.672 4.15163C17.3958 4.19011 17.9998 4.22221 18.4964 4.29038C19.0181 4.36197 19.4943 4.48147 19.9472 4.73387C20.6503 5.12567 21.2386 5.74614 21.5925 6.46898C21.8218 6.93719 21.915 7.42592 21.9585 7.95757C22 8.46597 22 9.08453 22 9.82902V14.1709C22 14.9154 22 15.534 21.9585 16.0424C21.915 16.5741 21.8218 17.0628 21.5925 17.531C21.2386 18.2539 20.6503 18.8743 19.9472 19.2661C19.4943 19.5185 19.0181 19.638 18.4964 19.7096C17.9998 19.7778 17.3959 19.8099 16.6721 19.8484L16.6314 19.8505C15.0963 19.9322 13.4018 20 12 20C10.5982 20 8.90373 19.9322 7.3686 19.8505L7.32793 19.8484C6.60415 19.8099 6.0002 19.7778 5.50356 19.7096C4.98193 19.638 4.50567 19.5185 4.05277 19.2661C3.34975 18.8743 2.76139 18.2539 2.40748 17.531C2.17825 17.0628 2.08497 16.5741 2.04153 16.0424C1.99998 15.534 1.99999 14.9155 2 14.171V9.82908C1.99999 9.08458 1.99998 8.46598 2.04153 7.95757C2.08497 7.42592 2.17825 6.93719 2.40748 6.46898C2.76139 5.74614 3.34975 5.12567 4.05277 4.73387C4.50567 4.48147 4.98193 4.36197 5.50356 4.29038C6.00021 4.22221 6.60418 4.19011 7.32798 4.15163L7.3686 4.14947ZM11.5662 8.45005C11.4165 8.35656 11.2523 8.25406 11.1065 8.1804C10.9588 8.10576 10.6795 7.97887 10.3313 8.00301C9.92762 8.031 9.54742 8.2282 9.29418 8.55654C9.07364 8.84248 9.03075 9.15584 9.01518 9.32064C8.99987 9.48277 8.99993 9.67513 8.99999 9.84686V14.1531C8.99993 14.3248 8.99987 14.5172 9.01518 14.6793C9.03075 14.8441 9.07364 15.1575 9.29418 15.4434C9.54742 15.7718 9.92762 15.969 10.3313 15.997C10.6795 16.0211 10.9588 15.8942 11.1065 15.8196C11.2523 15.7459 11.4165 15.6434 11.5662 15.55L15.017 13.3967C15.1455 13.3165 15.2929 13.2246 15.4115 13.1348C15.5363 13.0403 15.7532 12.8599 15.8829 12.562C16.039 12.2033 16.039 11.7966 15.8829 11.4379C15.7532 11.1401 15.5363 10.9597 15.4115 10.8652C15.2928 10.7753 15.1455 10.6834 15.0169 10.6033L11.5662 8.45005Z" fill="black"/>
</svg>
